%TF.GenerationSoftware,KiCad,Pcbnew,(6.0.5-71-gf89d5f9949)*%
%TF.CreationDate,2022-07-15T15:52:26+02:00*%
%TF.ProjectId,Vectorblade_PLCC32_THT,56656374-6f72-4626-9c61-64655f504c43,rev?*%
%TF.SameCoordinates,Original*%
%TF.FileFunction,Copper,L1,Top*%
%TF.FilePolarity,Positive*%
%FSLAX46Y46*%
G04 Gerber Fmt 4.6, Leading zero omitted, Abs format (unit mm)*
G04 Created by KiCad (PCBNEW (6.0.5-71-gf89d5f9949)) date 2022-07-15 15:52:26*
%MOMM*%
%LPD*%
G01*
G04 APERTURE LIST*
G04 Aperture macros list*
%AMRoundRect*
0 Rectangle with rounded corners*
0 $1 Rounding radius*
0 $2 $3 $4 $5 $6 $7 $8 $9 X,Y pos of 4 corners*
0 Add a 4 corners polygon primitive as box body*
4,1,4,$2,$3,$4,$5,$6,$7,$8,$9,$2,$3,0*
0 Add four circle primitives for the rounded corners*
1,1,$1+$1,$2,$3*
1,1,$1+$1,$4,$5*
1,1,$1+$1,$6,$7*
1,1,$1+$1,$8,$9*
0 Add four rect primitives between the rounded corners*
20,1,$1+$1,$2,$3,$4,$5,0*
20,1,$1+$1,$4,$5,$6,$7,0*
20,1,$1+$1,$6,$7,$8,$9,0*
20,1,$1+$1,$8,$9,$2,$3,0*%
G04 Aperture macros list end*
%TA.AperFunction,ComponentPad*%
%ADD10C,1.422400*%
%TD*%
%TA.AperFunction,ComponentPad*%
%ADD11R,1.422400X1.422400*%
%TD*%
%TA.AperFunction,SMDPad,CuDef*%
%ADD12RoundRect,0.666750X-0.222250X-3.778250X0.222250X-3.778250X0.222250X3.778250X-0.222250X3.778250X0*%
%TD*%
%TA.AperFunction,SMDPad,CuDef*%
%ADD13RoundRect,0.150000X0.150000X-0.512500X0.150000X0.512500X-0.150000X0.512500X-0.150000X-0.512500X0*%
%TD*%
%TA.AperFunction,SMDPad,CuDef*%
%ADD14RoundRect,0.150000X-0.150000X0.512500X-0.150000X-0.512500X0.150000X-0.512500X0.150000X0.512500X0*%
%TD*%
%TA.AperFunction,SMDPad,CuDef*%
%ADD15RoundRect,0.250000X-0.325000X-0.650000X0.325000X-0.650000X0.325000X0.650000X-0.325000X0.650000X0*%
%TD*%
%TA.AperFunction,ViaPad*%
%ADD16C,0.800000*%
%TD*%
%TA.AperFunction,Conductor*%
%ADD17C,0.300000*%
%TD*%
%TA.AperFunction,Conductor*%
%ADD18C,1.240000*%
%TD*%
%TA.AperFunction,Conductor*%
%ADD19C,1.000000*%
%TD*%
%TA.AperFunction,Conductor*%
%ADD20C,0.600000*%
%TD*%
G04 APERTURE END LIST*
D10*
%TO.P,,22,CE*%
%TO.N,Net-(U1-Pad22)*%
X150876000Y-96012000D03*
%TD*%
D11*
%TO.P,U1,1,NC*%
%TO.N,unconnected-(U1-Pad1)*%
X162560000Y-85090000D03*
D10*
%TO.P,U1,2,A16*%
%TO.N,/PB6*%
X165100000Y-82550000D03*
%TO.P,U1,3,A15*%
%TO.N,/V-CE*%
X162560000Y-82550000D03*
%TO.P,U1,4,A12*%
%TO.N,/V-A12*%
X165100000Y-80010000D03*
%TO.P,U1,5,A7*%
%TO.N,/V-A7*%
X162560000Y-77470000D03*
%TO.P,U1,6,A6*%
%TO.N,/V-A6*%
X162560000Y-80010000D03*
%TO.P,U1,7,A5*%
%TO.N,/V-A5*%
X160020000Y-77470000D03*
%TO.P,U1,8,A4*%
%TO.N,/V-A4*%
X160020000Y-80010000D03*
%TO.P,U1,9,A3*%
%TO.N,/V-A3*%
X157480000Y-77470000D03*
%TO.P,U1,10,A2*%
%TO.N,/V-A2*%
X157480000Y-80010000D03*
%TO.P,U1,11,A1*%
%TO.N,/V-A1*%
X154940000Y-77470000D03*
%TO.P,U1,12,A0*%
%TO.N,/V-A0*%
X154940000Y-80010000D03*
%TO.P,U1,13,D0*%
%TO.N,/V-D0*%
X152400000Y-77470000D03*
%TO.P,U1,14,D1*%
%TO.N,/V-D1*%
X149860000Y-80010000D03*
%TO.P,U1,15,D2*%
%TO.N,/V-D2*%
X152400000Y-80010000D03*
%TO.P,U1,16,GND*%
%TO.N,GND*%
X149860000Y-82550000D03*
%TO.P,U1,17,D3*%
%TO.N,/V-D3*%
X152400000Y-82550000D03*
%TO.P,U1,18,D4*%
%TO.N,/V-D4*%
X149860000Y-85090000D03*
%TO.P,U1,19,D5*%
%TO.N,/V-D5*%
X152400000Y-85090000D03*
%TO.P,U1,20,D6*%
%TO.N,/V-D6*%
X149860000Y-87630000D03*
%TO.P,U1,21,D7*%
%TO.N,/V-D7*%
X152400000Y-90170000D03*
%TO.P,U1,22,CE*%
%TO.N,Net-(U1-Pad22)*%
X152400000Y-87630000D03*
%TO.P,U1,23,A10*%
%TO.N,/V-A10*%
X154940000Y-90170000D03*
%TO.P,U1,24,OE*%
%TO.N,Net-(U1-Pad24)*%
X154940000Y-87630000D03*
%TO.P,U1,25,A11*%
%TO.N,/V-A11*%
X157480000Y-90170000D03*
%TO.P,U1,26,A9*%
%TO.N,/V-A9*%
X157480000Y-87630000D03*
%TO.P,U1,27,A8*%
%TO.N,/V-A8*%
X160020000Y-90170000D03*
%TO.P,U1,28,A13*%
%TO.N,/V-A13*%
X160020000Y-87630000D03*
%TO.P,U1,29,A14*%
%TO.N,/V-A14*%
X162560000Y-90170000D03*
%TO.P,U1,30,A17*%
%TO.N,/IRQ*%
X165100000Y-87630000D03*
%TO.P,U1,31,PGM*%
%TO.N,/V-RW*%
X162560000Y-87630000D03*
%TO.P,U1,32,VCC*%
%TO.N,+5V*%
X165100000Y-85090000D03*
%TD*%
D12*
%TO.P,CON3,2,VCC*%
%TO.N,+5V*%
X179070000Y-114300000D03*
%TO.P,CON3,4,VCC2*%
X176530000Y-114300000D03*
%TO.P,CON3,6,A8*%
%TO.N,/V-A8*%
X173990000Y-114300000D03*
%TO.P,CON3,8,A9*%
%TO.N,/V-A9*%
X171450000Y-114300000D03*
%TO.P,CON3,10,A11*%
%TO.N,/V-A11*%
X168910000Y-114300000D03*
%TO.P,CON3,12,OE*%
%TO.N,unconnected-(CON3-Pad12)*%
X166370000Y-114300000D03*
%TO.P,CON3,14,A10*%
%TO.N,/V-A10*%
X163830000Y-114300000D03*
%TO.P,CON3,16,CE*%
%TO.N,/V-CE*%
X161290000Y-114300000D03*
%TO.P,CON3,18,D7*%
%TO.N,/V-D7*%
X158750000Y-114300000D03*
%TO.P,CON3,20,D6*%
%TO.N,/V-D6*%
X156210000Y-114300000D03*
%TO.P,CON3,22,D5*%
%TO.N,/V-D5*%
X153670000Y-114300000D03*
%TO.P,CON3,24,D4*%
%TO.N,/V-D4*%
X151130000Y-114300000D03*
%TO.P,CON3,26,D3*%
%TO.N,/V-D3*%
X148590000Y-114300000D03*
%TO.P,CON3,28,GND2*%
%TO.N,GND*%
X146050000Y-114300000D03*
%TO.P,CON3,30,RW*%
%TO.N,/V-RW*%
X143510000Y-114300000D03*
%TO.P,CON3,32,CART*%
%TO.N,unconnected-(CON3-Pad32)*%
X140970000Y-114300000D03*
%TO.P,CON3,34,NMI*%
%TO.N,unconnected-(CON3-Pad34)*%
X138430000Y-114300000D03*
%TO.P,CON3,36,IRQ*%
%TO.N,/IRQ*%
X135890000Y-114300000D03*
%TD*%
D10*
%TO.P,,22,CE*%
%TO.N,Net-(U1-Pad22)*%
X177292000Y-96012000D03*
%TD*%
D13*
%TO.P,U2,1*%
%TO.N,N/C*%
X176596000Y-92323500D03*
%TO.P,U2,2*%
%TO.N,/V-RW*%
X177546000Y-92323500D03*
%TO.P,U2,3,GND*%
%TO.N,GND*%
X178496000Y-92323500D03*
%TO.P,U2,4*%
%TO.N,Net-(U1-Pad22)*%
X178496000Y-90048500D03*
%TO.P,U2,5,VCC*%
%TO.N,+5V*%
X176596000Y-90048500D03*
%TD*%
D14*
%TO.P,U3,1*%
%TO.N,/V-A14*%
X173416000Y-90048500D03*
%TO.P,U3,2*%
%TO.N,/V-CE*%
X172466000Y-90048500D03*
%TO.P,U3,3,GND*%
%TO.N,GND*%
X171516000Y-90048500D03*
%TO.P,U3,4*%
%TO.N,Net-(U1-Pad24)*%
X171516000Y-92323500D03*
%TO.P,U3,5,VCC*%
%TO.N,+5V*%
X173416000Y-92323500D03*
%TD*%
D15*
%TO.P,C1,1,1*%
%TO.N,+5V*%
X173023000Y-85090000D03*
%TO.P,C1,2,2*%
%TO.N,GND*%
X175973000Y-85090000D03*
%TD*%
D10*
%TO.P,,24,OE*%
%TO.N,Net-(U1-Pad24)*%
X156972000Y-94488000D03*
%TD*%
%TO.P,,24,OE*%
%TO.N,Net-(U1-Pad24)*%
X172720000Y-94488000D03*
%TD*%
D16*
%TO.N,GND*%
X135890000Y-104775000D03*
X175260000Y-82804000D03*
X146050000Y-107188000D03*
X171323000Y-88667977D03*
X147320000Y-105918000D03*
X144780000Y-97536000D03*
X135890000Y-97155000D03*
X177546000Y-94234000D03*
X168656000Y-76962000D03*
X147320000Y-108458000D03*
X144780000Y-94742000D03*
X135890000Y-74930000D03*
X144780000Y-85852000D03*
X171958000Y-81026000D03*
X178816000Y-86995000D03*
X179070000Y-97155000D03*
X179070000Y-74930000D03*
X146050000Y-108458000D03*
X144780000Y-91694000D03*
X171958000Y-83058000D03*
X176403000Y-94234000D03*
X147320000Y-107188000D03*
X176403000Y-86995000D03*
X144780000Y-88900000D03*
X146050000Y-105918000D03*
X144780000Y-100330000D03*
X179070000Y-104775000D03*
%TO.N,/V-A5*%
X167386000Y-81280000D03*
%TO.N,/V-CE*%
X172466000Y-88646000D03*
%TO.N,/V-A12*%
X144272000Y-108458000D03*
%TO.N,/V-A13*%
X170434000Y-94996000D03*
%TO.N,/V-A14*%
X173609000Y-88630536D03*
%TO.N,/V-RW*%
X177546000Y-91186000D03*
X171196000Y-93980000D03*
X164592000Y-92710000D03*
X142240000Y-104394000D03*
%TO.N,/PB6*%
X142240000Y-102870000D03*
%TD*%
D17*
%TO.N,GND*%
X177546000Y-94234000D02*
X178496000Y-93284000D01*
X171323000Y-88667977D02*
X171516000Y-88860977D01*
D18*
X149860000Y-82550000D02*
X148336000Y-82550000D01*
D17*
X178496000Y-93284000D02*
X178496000Y-92323500D01*
X171516000Y-88860977D02*
X171516000Y-90048500D01*
D19*
%TO.N,+5V*%
X175006000Y-87852250D02*
X173023000Y-85869250D01*
X175006000Y-96520000D02*
X175006000Y-87852250D01*
D20*
X176596000Y-90048500D02*
X175006000Y-90048500D01*
D19*
X176530000Y-106680000D02*
X172720000Y-102870000D01*
X173023000Y-85090000D02*
X165100000Y-85090000D01*
X172720000Y-98806000D02*
X175006000Y-96520000D01*
X176530000Y-114300000D02*
X176530000Y-106680000D01*
X176530000Y-106680000D02*
X179070000Y-109220000D01*
X179070000Y-109220000D02*
X179070000Y-114300000D01*
D20*
X173416000Y-92323500D02*
X175006000Y-92323500D01*
D19*
X173023000Y-85869250D02*
X173023000Y-85090000D01*
X172720000Y-102870000D02*
X172720000Y-98806000D01*
D17*
%TO.N,/V-A8*%
X173990000Y-106680000D02*
X160020000Y-92710000D01*
X160020000Y-92710000D02*
X160020000Y-90170000D01*
X173990000Y-114300000D02*
X173990000Y-106680000D01*
%TO.N,/V-A5*%
X165100000Y-76200000D02*
X161290000Y-76200000D01*
X167386000Y-78486000D02*
X165100000Y-76200000D01*
X161290000Y-76200000D02*
X160020000Y-77470000D01*
X167386000Y-81280000D02*
X167386000Y-78486000D01*
%TO.N,/V-A9*%
X158750000Y-88900000D02*
X157480000Y-87630000D01*
X171450000Y-105410000D02*
X158750000Y-92710000D01*
X158750000Y-92710000D02*
X158750000Y-88900000D01*
X171450000Y-114300000D02*
X171450000Y-105410000D01*
%TO.N,/V-A11*%
X168910000Y-114300000D02*
X168910000Y-104140000D01*
X168910000Y-104140000D02*
X157480000Y-92710000D01*
X157480000Y-92710000D02*
X157480000Y-90170000D01*
%TO.N,/V-A10*%
X154940000Y-95250000D02*
X154940000Y-90170000D01*
X163830000Y-114300000D02*
X163830000Y-100330000D01*
X163830000Y-100330000D02*
X159512000Y-96012000D01*
X155702000Y-96012000D02*
X154940000Y-95250000D01*
X159512000Y-96012000D02*
X155702000Y-96012000D01*
%TO.N,/V-CE*%
X172466000Y-90048500D02*
X172466000Y-88646000D01*
X161290000Y-86360000D02*
X161290000Y-83820000D01*
X153670000Y-87122000D02*
X153670000Y-96774000D01*
X172466000Y-88296750D02*
X171799250Y-87630000D01*
X157480000Y-107950000D02*
X160020000Y-107950000D01*
X152654000Y-103124000D02*
X157480000Y-107950000D01*
X161290000Y-83820000D02*
X162560000Y-82550000D01*
X154432000Y-86360000D02*
X153670000Y-87122000D01*
X171799250Y-87630000D02*
X167132000Y-87630000D01*
X153670000Y-96774000D02*
X152654000Y-97790000D01*
X160020000Y-107950000D02*
X161290000Y-109220000D01*
X172466000Y-88646000D02*
X172466000Y-88296750D01*
X165862000Y-88900000D02*
X161925000Y-88900000D01*
X161290000Y-109220000D02*
X161290000Y-114300000D01*
X152654000Y-97790000D02*
X152654000Y-103124000D01*
X167132000Y-87630000D02*
X165862000Y-88900000D01*
X161290000Y-86360000D02*
X154432000Y-86360000D01*
X161925000Y-88900000D02*
X161290000Y-88265000D01*
X161290000Y-88265000D02*
X161290000Y-86360000D01*
%TO.N,/V-D7*%
X158233520Y-108712000D02*
X156972000Y-108712000D01*
X158750000Y-109228480D02*
X158233520Y-108712000D01*
X151892000Y-97282000D02*
X152400000Y-96774000D01*
X151892000Y-103632000D02*
X151892000Y-97282000D01*
X158750000Y-114300000D02*
X158750000Y-109228480D01*
X152400000Y-96774000D02*
X152400000Y-90170000D01*
X156972000Y-108712000D02*
X151892000Y-103632000D01*
%TO.N,/V-D6*%
X149352000Y-88138000D02*
X149352000Y-102362000D01*
X149352000Y-102362000D02*
X156210000Y-109220000D01*
X156210000Y-109220000D02*
X156210000Y-114300000D01*
X149860000Y-87630000D02*
X149352000Y-88138000D01*
%TO.N,/V-D5*%
X149098000Y-86360000D02*
X151130000Y-86360000D01*
X151130000Y-86360000D02*
X152400000Y-85090000D01*
X153670000Y-107950000D02*
X148590000Y-102870000D01*
X153670000Y-114300000D02*
X153670000Y-107950000D01*
X148590000Y-102870000D02*
X148590000Y-86868000D01*
X148590000Y-86868000D02*
X149098000Y-86360000D01*
%TO.N,/V-D4*%
X147828000Y-103378000D02*
X147828000Y-86487000D01*
X147828000Y-86487000D02*
X149225000Y-85090000D01*
X151130000Y-114300000D02*
X151130000Y-106680000D01*
X151130000Y-106680000D02*
X147828000Y-103378000D01*
X149225000Y-85090000D02*
X149860000Y-85090000D01*
%TO.N,/V-D3*%
X147066000Y-85852000D02*
X149098000Y-83820000D01*
X149098000Y-83820000D02*
X151130000Y-83820000D01*
X148590000Y-114300000D02*
X148590000Y-105410000D01*
X151130000Y-83820000D02*
X152400000Y-82550000D01*
X147066000Y-103886000D02*
X147066000Y-85852000D01*
X148590000Y-105410000D02*
X147066000Y-103886000D01*
%TO.N,/V-A12*%
X143256000Y-107442000D02*
X143256000Y-85344000D01*
X163830000Y-81280000D02*
X165100000Y-80010000D01*
X144272000Y-108458000D02*
X143256000Y-107442000D01*
X143256000Y-85344000D02*
X147320000Y-81280000D01*
X147320000Y-81280000D02*
X163830000Y-81280000D01*
%TO.N,/V-A13*%
X161290000Y-89535000D02*
X160020000Y-88265000D01*
X170434000Y-94996000D02*
X165354000Y-94996000D01*
X165354000Y-94996000D02*
X161290000Y-90932000D01*
X161290000Y-90932000D02*
X161290000Y-89535000D01*
X160020000Y-88265000D02*
X160020000Y-87630000D01*
%TO.N,/V-A14*%
X163576000Y-91186000D02*
X162560000Y-90170000D01*
X173416000Y-90744000D02*
X172974000Y-91186000D01*
X173416000Y-90048500D02*
X173416000Y-90744000D01*
X173609000Y-88630536D02*
X173416000Y-88823536D01*
X173416000Y-88823536D02*
X173416000Y-90048500D01*
X172974000Y-91186000D02*
X163576000Y-91186000D01*
%TO.N,/V-RW*%
X164592000Y-92710000D02*
X165862000Y-93980000D01*
X143510000Y-109220000D02*
X143510000Y-114300000D01*
X177546000Y-91186000D02*
X177546000Y-92323500D01*
X165862000Y-93980000D02*
X171196000Y-93980000D01*
X142240000Y-104394000D02*
X142240000Y-107950000D01*
X142240000Y-107950000D02*
X143510000Y-109220000D01*
%TO.N,/PB6*%
X142494000Y-84836000D02*
X148590000Y-78740000D01*
X142494000Y-102616000D02*
X142494000Y-84836000D01*
X165862000Y-78740000D02*
X166370000Y-79248000D01*
X148590000Y-78740000D02*
X165862000Y-78740000D01*
X166370000Y-79248000D02*
X166370000Y-81280000D01*
X166370000Y-81280000D02*
X165100000Y-82550000D01*
X142240000Y-102870000D02*
X142494000Y-102616000D01*
%TO.N,/IRQ*%
X141732000Y-83566000D02*
X141732000Y-101578015D01*
X168402000Y-81788000D02*
X168402000Y-78232000D01*
X165608000Y-75438000D02*
X149860000Y-75438000D01*
X141224000Y-106934000D02*
X139700000Y-108458000D01*
X141732000Y-101578015D02*
X141224000Y-102086015D01*
X165100000Y-87630000D02*
X163830000Y-86360000D01*
X136652000Y-108458000D02*
X135890000Y-109220000D01*
X163830000Y-84582000D02*
X164592000Y-83820000D01*
X139700000Y-108458000D02*
X136652000Y-108458000D01*
X149860000Y-75438000D02*
X141732000Y-83566000D01*
X166370000Y-83820000D02*
X168402000Y-81788000D01*
X135890000Y-109220000D02*
X135890000Y-114300000D01*
X141224000Y-102086015D02*
X141224000Y-106934000D01*
X163830000Y-86360000D02*
X163830000Y-84582000D01*
X168402000Y-78232000D02*
X165608000Y-75438000D01*
X164592000Y-83820000D02*
X166370000Y-83820000D01*
%TO.N,Net-(U1-Pad22)*%
X179324000Y-93980000D02*
X179324000Y-90876500D01*
X150876000Y-89154000D02*
X150876000Y-96012000D01*
X177292000Y-96012000D02*
X179324000Y-93980000D01*
X152400000Y-87630000D02*
X150876000Y-89154000D01*
X179324000Y-90876500D02*
X178496000Y-90048500D01*
%TO.N,Net-(U1-Pad24)*%
X156210000Y-88900000D02*
X156210000Y-93726000D01*
X154940000Y-87630000D02*
X156210000Y-88900000D01*
X171516000Y-92776000D02*
X172720000Y-93980000D01*
X172720000Y-93980000D02*
X172720000Y-94488000D01*
X171516000Y-92323500D02*
X171516000Y-92776000D01*
X156210000Y-93726000D02*
X157226000Y-94742000D01*
%TD*%
%TA.AperFunction,Conductor*%
%TO.N,GND*%
G36*
X148645388Y-81950462D02*
G01*
X148699926Y-82005000D01*
X148719888Y-82079500D01*
X148710901Y-82130463D01*
X148708268Y-82137696D01*
X148656418Y-82331201D01*
X148654169Y-82343955D01*
X148636710Y-82543519D01*
X148636710Y-82556481D01*
X148654169Y-82756045D01*
X148656418Y-82768799D01*
X148708268Y-82962303D01*
X148712699Y-82974477D01*
X148771704Y-83101013D01*
X148785097Y-83176969D01*
X148758718Y-83249446D01*
X148712513Y-83292233D01*
X148704205Y-83297146D01*
X148704202Y-83297148D01*
X148696135Y-83301919D01*
X148682520Y-83315534D01*
X148664741Y-83330719D01*
X148656745Y-83336528D01*
X148656743Y-83336530D01*
X148649163Y-83342037D01*
X148628310Y-83367244D01*
X148620815Y-83376304D01*
X148611367Y-83386687D01*
X146662701Y-85335353D01*
X146654879Y-85342471D01*
X146648060Y-85346798D01*
X146641643Y-85353632D01*
X146641640Y-85353634D01*
X146600428Y-85397521D01*
X146597171Y-85400883D01*
X146577089Y-85420965D01*
X146574223Y-85424659D01*
X146571352Y-85427916D01*
X146565995Y-85434188D01*
X146535552Y-85466607D01*
X146526274Y-85483485D01*
X146513443Y-85503017D01*
X146501638Y-85518236D01*
X146497914Y-85526841D01*
X146497912Y-85526845D01*
X146483977Y-85559049D01*
X146477805Y-85571648D01*
X146456373Y-85610632D01*
X146454042Y-85619711D01*
X146451583Y-85629288D01*
X146444011Y-85651406D01*
X146436365Y-85669074D01*
X146434899Y-85678330D01*
X146434898Y-85678333D01*
X146429409Y-85712990D01*
X146426563Y-85726734D01*
X146419142Y-85755639D01*
X146415500Y-85769823D01*
X146415500Y-85789079D01*
X146413665Y-85812389D01*
X146413141Y-85815700D01*
X146410653Y-85831405D01*
X146411535Y-85840734D01*
X146414839Y-85875686D01*
X146415500Y-85889709D01*
X146415500Y-103805846D01*
X146415002Y-103816414D01*
X146413240Y-103824296D01*
X146413535Y-103833668D01*
X146415426Y-103893849D01*
X146415500Y-103898530D01*
X146415500Y-103926925D01*
X146416085Y-103931558D01*
X146416357Y-103935884D01*
X146417006Y-103944125D01*
X146418403Y-103988569D01*
X146421018Y-103997568D01*
X146423774Y-104007054D01*
X146428516Y-104029953D01*
X146430929Y-104049058D01*
X146434380Y-104057774D01*
X146447302Y-104090410D01*
X146451850Y-104103693D01*
X146464256Y-104146398D01*
X146469028Y-104154467D01*
X146474059Y-104162974D01*
X146484342Y-104183963D01*
X146491432Y-104201871D01*
X146517575Y-104237854D01*
X146525275Y-104249576D01*
X146547919Y-104287865D01*
X146561534Y-104301480D01*
X146576719Y-104319259D01*
X146588037Y-104334837D01*
X146622179Y-104363081D01*
X146622304Y-104363185D01*
X146632687Y-104372633D01*
X147895859Y-105635805D01*
X147934423Y-105702600D01*
X147939500Y-105741164D01*
X147939500Y-109337895D01*
X147919538Y-109412395D01*
X147865000Y-109466933D01*
X147851227Y-109473958D01*
X147794071Y-109499466D01*
X147738422Y-109537784D01*
X147623002Y-109617258D01*
X147622998Y-109617261D01*
X147617381Y-109621129D01*
X147612562Y-109625957D01*
X147612559Y-109625959D01*
X147589335Y-109649224D01*
X147465821Y-109772954D01*
X147461960Y-109778582D01*
X147461956Y-109778587D01*
X147447344Y-109799888D01*
X147388738Y-109850030D01*
X147312914Y-109864151D01*
X147240188Y-109838468D01*
X147201756Y-109800103D01*
X147182531Y-109772183D01*
X147173828Y-109761737D01*
X147030691Y-109618851D01*
X147020224Y-109610161D01*
X146853449Y-109495753D01*
X146841579Y-109489119D01*
X146656749Y-109407021D01*
X146643860Y-109402658D01*
X146446432Y-109355443D01*
X146434458Y-109353594D01*
X146369567Y-109348943D01*
X146353838Y-109351972D01*
X146350000Y-109363054D01*
X146350000Y-110744000D01*
X145750000Y-110744000D01*
X145750000Y-109367168D01*
X145745855Y-109351697D01*
X145734591Y-109348679D01*
X145663511Y-109353880D01*
X145651525Y-109355750D01*
X145454186Y-109403309D01*
X145441307Y-109407693D01*
X145256625Y-109490112D01*
X145244758Y-109496772D01*
X145078180Y-109611471D01*
X145067737Y-109620172D01*
X144924851Y-109763309D01*
X144916159Y-109773779D01*
X144898241Y-109799897D01*
X144839636Y-109850038D01*
X144763812Y-109864159D01*
X144691085Y-109838475D01*
X144652653Y-109800110D01*
X144636742Y-109777003D01*
X144636741Y-109777002D01*
X144632871Y-109771381D01*
X144623211Y-109761737D01*
X144541720Y-109680389D01*
X144481046Y-109619821D01*
X144449488Y-109598172D01*
X144399346Y-109539567D01*
X144385225Y-109463742D01*
X144410908Y-109391016D01*
X144469513Y-109340874D01*
X144502799Y-109329560D01*
X144544161Y-109320769D01*
X144544167Y-109320767D01*
X144551803Y-109319144D01*
X144724730Y-109242151D01*
X144806145Y-109183000D01*
X144871551Y-109135480D01*
X144871553Y-109135479D01*
X144877871Y-109130888D01*
X144941930Y-109059744D01*
X144999307Y-108996021D01*
X144999311Y-108996016D01*
X145004533Y-108990216D01*
X145009939Y-108980854D01*
X145059595Y-108894845D01*
X145099179Y-108826284D01*
X145139122Y-108703353D01*
X145155259Y-108653689D01*
X145155259Y-108653688D01*
X145157674Y-108646256D01*
X145159874Y-108625329D01*
X145176644Y-108465764D01*
X145177460Y-108458000D01*
X145161048Y-108301843D01*
X145158491Y-108277514D01*
X145158490Y-108277511D01*
X145157674Y-108269744D01*
X145099179Y-108089716D01*
X145032675Y-107974528D01*
X145008438Y-107932547D01*
X145008436Y-107932544D01*
X145004533Y-107925784D01*
X144999311Y-107919984D01*
X144999307Y-107919979D01*
X144915028Y-107826379D01*
X144877871Y-107785112D01*
X144724730Y-107673849D01*
X144551803Y-107596856D01*
X144544167Y-107595233D01*
X144544164Y-107595232D01*
X144374287Y-107559124D01*
X144374286Y-107559124D01*
X144366646Y-107557500D01*
X144353164Y-107557500D01*
X144278664Y-107537538D01*
X144247805Y-107513859D01*
X143950141Y-107216195D01*
X143911577Y-107149400D01*
X143906500Y-107110836D01*
X143906500Y-85675164D01*
X143926462Y-85600664D01*
X143950141Y-85569805D01*
X147545805Y-81974141D01*
X147612600Y-81935577D01*
X147651164Y-81930500D01*
X148570888Y-81930500D01*
X148645388Y-81950462D01*
G37*
%TD.AperFunction*%
%TA.AperFunction,Conductor*%
G36*
X180523000Y-73246062D02*
G01*
X180577538Y-73300600D01*
X180597500Y-73375100D01*
X180597500Y-109883608D01*
X180577538Y-109958108D01*
X180523000Y-110012646D01*
X180448500Y-110032608D01*
X180374000Y-110012646D01*
X180318561Y-109956524D01*
X180317317Y-109954308D01*
X180314534Y-109948071D01*
X180256755Y-109864159D01*
X180196742Y-109777002D01*
X180196739Y-109776998D01*
X180192871Y-109771381D01*
X180184785Y-109763309D01*
X180114234Y-109692881D01*
X180075611Y-109626120D01*
X180070500Y-109587430D01*
X180070500Y-109236467D01*
X180070558Y-109232307D01*
X180072748Y-109153895D01*
X180072959Y-109146347D01*
X180066272Y-109108425D01*
X180062632Y-109087778D01*
X180061131Y-109076962D01*
X180057780Y-109043973D01*
X180055120Y-109017784D01*
X180052863Y-109010581D01*
X180046956Y-108991730D01*
X180042402Y-108973049D01*
X180041768Y-108969451D01*
X180037664Y-108946178D01*
X180015773Y-108890887D01*
X180012128Y-108880595D01*
X179996594Y-108831027D01*
X179994338Y-108823828D01*
X179981100Y-108799945D01*
X179972888Y-108782572D01*
X179962840Y-108757195D01*
X179930281Y-108707438D01*
X179924641Y-108698091D01*
X179900028Y-108653689D01*
X179895797Y-108646056D01*
X179890888Y-108640328D01*
X179890882Y-108640320D01*
X179878033Y-108625329D01*
X179866488Y-108609953D01*
X179854683Y-108591914D01*
X179851544Y-108587117D01*
X179847082Y-108582162D01*
X179808801Y-108543881D01*
X179801028Y-108535487D01*
X179768435Y-108497460D01*
X179763523Y-108491729D01*
X179740289Y-108473707D01*
X179726253Y-108461333D01*
X177307092Y-106042172D01*
X177307083Y-106042162D01*
X177268795Y-106003874D01*
X177261022Y-105995480D01*
X177228435Y-105957460D01*
X177223523Y-105951729D01*
X177200293Y-105933710D01*
X177186257Y-105921336D01*
X175502764Y-104237843D01*
X173764141Y-102499221D01*
X173725577Y-102432426D01*
X173720500Y-102393862D01*
X173720500Y-100982918D01*
X174897500Y-100982918D01*
X174936934Y-101295073D01*
X174938097Y-101299602D01*
X175010300Y-101580813D01*
X175015181Y-101599825D01*
X175131006Y-101892366D01*
X175133255Y-101896458D01*
X175133257Y-101896461D01*
X175161044Y-101947005D01*
X175282584Y-102168084D01*
X175285329Y-102171863D01*
X175285334Y-102171870D01*
X175348734Y-102259132D01*
X175467522Y-102422630D01*
X175470725Y-102426041D01*
X175470726Y-102426042D01*
X175651781Y-102618845D01*
X175682906Y-102651990D01*
X175686517Y-102654978D01*
X175686521Y-102654981D01*
X175921728Y-102849562D01*
X175921734Y-102849567D01*
X175925337Y-102852547D01*
X175929281Y-102855050D01*
X175929288Y-102855055D01*
X176068897Y-102943653D01*
X176190993Y-103021137D01*
X176239556Y-103043989D01*
X176471438Y-103153105D01*
X176471445Y-103153108D01*
X176475685Y-103155103D01*
X176774921Y-103252331D01*
X176779517Y-103253208D01*
X176779522Y-103253209D01*
X177045418Y-103303931D01*
X177083985Y-103311288D01*
X177088646Y-103311581D01*
X177088652Y-103311582D01*
X177295715Y-103324609D01*
X177319417Y-103326100D01*
X177476583Y-103326100D01*
X177500285Y-103324609D01*
X177707348Y-103311582D01*
X177707354Y-103311581D01*
X177712015Y-103311288D01*
X177750582Y-103303931D01*
X178016478Y-103253209D01*
X178016483Y-103253208D01*
X178021079Y-103252331D01*
X178320315Y-103155103D01*
X178324555Y-103153108D01*
X178324562Y-103153105D01*
X178556444Y-103043989D01*
X178605007Y-103021137D01*
X178727103Y-102943653D01*
X178866712Y-102855055D01*
X178866719Y-102855050D01*
X178870663Y-102852547D01*
X178874266Y-102849567D01*
X178874272Y-102849562D01*
X179109479Y-102654981D01*
X179109483Y-102654978D01*
X179113094Y-102651990D01*
X179144220Y-102618845D01*
X179325274Y-102426042D01*
X179325275Y-102426041D01*
X179328478Y-102422630D01*
X179447266Y-102259132D01*
X179510666Y-102171870D01*
X179510671Y-102171863D01*
X179513416Y-102168084D01*
X179634956Y-101947005D01*
X179662743Y-101896461D01*
X179662745Y-101896458D01*
X179664994Y-101892366D01*
X179780819Y-101599825D01*
X179785701Y-101580813D01*
X179857903Y-101299602D01*
X179859066Y-101295073D01*
X179898500Y-100982918D01*
X179898500Y-100668282D01*
X179859066Y-100356127D01*
X179780819Y-100051375D01*
X179664994Y-99758834D01*
X179623368Y-99683116D01*
X179515669Y-99487215D01*
X179513416Y-99483116D01*
X179510671Y-99479337D01*
X179510666Y-99479330D01*
X179331228Y-99232355D01*
X179328478Y-99228570D01*
X179320826Y-99220421D01*
X179116303Y-99002627D01*
X179116301Y-99002625D01*
X179113094Y-98999210D01*
X179109479Y-98996219D01*
X178874272Y-98801638D01*
X178874266Y-98801633D01*
X178870663Y-98798653D01*
X178866719Y-98796150D01*
X178866712Y-98796145D01*
X178608962Y-98632573D01*
X178605007Y-98630063D01*
X178467776Y-98565487D01*
X178324562Y-98498095D01*
X178324555Y-98498092D01*
X178320315Y-98496097D01*
X178021079Y-98398869D01*
X178016483Y-98397992D01*
X178016478Y-98397991D01*
X177716607Y-98340788D01*
X177712015Y-98339912D01*
X177707354Y-98339619D01*
X177707348Y-98339618D01*
X177500285Y-98326591D01*
X177476583Y-98325100D01*
X177319417Y-98325100D01*
X177295715Y-98326591D01*
X177088652Y-98339618D01*
X177088646Y-98339619D01*
X177083985Y-98339912D01*
X177079393Y-98340788D01*
X176779522Y-98397991D01*
X176779517Y-98397992D01*
X176774921Y-98398869D01*
X176475685Y-98496097D01*
X176471445Y-98498092D01*
X176471438Y-98498095D01*
X176328224Y-98565487D01*
X176190993Y-98630063D01*
X176187038Y-98632573D01*
X175929288Y-98796145D01*
X175929281Y-98796150D01*
X175925337Y-98798653D01*
X175921734Y-98801633D01*
X175921728Y-98801638D01*
X175686521Y-98996219D01*
X175682906Y-98999210D01*
X175679699Y-99002625D01*
X175679697Y-99002627D01*
X175475174Y-99220421D01*
X175467522Y-99228570D01*
X175464772Y-99232355D01*
X175285334Y-99479330D01*
X175285329Y-99479337D01*
X175282584Y-99483116D01*
X175280331Y-99487215D01*
X175172633Y-99683116D01*
X175131006Y-99758834D01*
X175015181Y-100051375D01*
X174936934Y-100356127D01*
X174897500Y-100668282D01*
X174897500Y-100982918D01*
X173720500Y-100982918D01*
X173720500Y-99282139D01*
X173740462Y-99207639D01*
X173764141Y-99176780D01*
X175701792Y-97239128D01*
X175704775Y-97236227D01*
X175761797Y-97182304D01*
X175767280Y-97177119D01*
X175801402Y-97128388D01*
X175807989Y-97119679D01*
X175840801Y-97079448D01*
X175845573Y-97073597D01*
X175852418Y-97060504D01*
X175858221Y-97049405D01*
X175868208Y-97032979D01*
X175874789Y-97023580D01*
X175883863Y-97010621D01*
X175886860Y-97003695D01*
X175886863Y-97003690D01*
X175907485Y-96956035D01*
X175912186Y-96946179D01*
X175936245Y-96900159D01*
X175936248Y-96900152D01*
X175939741Y-96893470D01*
X175941822Y-96886213D01*
X175947264Y-96867236D01*
X175953747Y-96849129D01*
X175961588Y-96831010D01*
X175961590Y-96831005D01*
X175964586Y-96824081D01*
X175966774Y-96813611D01*
X175976750Y-96765856D01*
X175979373Y-96755257D01*
X175995766Y-96698087D01*
X175998540Y-96698883D01*
X176025383Y-96641806D01*
X176088707Y-96597774D01*
X176165563Y-96591303D01*
X176235358Y-96624127D01*
X176261263Y-96652491D01*
X176356504Y-96788508D01*
X176356509Y-96788514D01*
X176360239Y-96793841D01*
X176510159Y-96943761D01*
X176520526Y-96951020D01*
X176678504Y-97061638D01*
X176678508Y-97061640D01*
X176683836Y-97065371D01*
X176875991Y-97154974D01*
X176882272Y-97156657D01*
X177074508Y-97208167D01*
X177074513Y-97208168D01*
X177080787Y-97209849D01*
X177087258Y-97210415D01*
X177087263Y-97210416D01*
X177285519Y-97227761D01*
X177292000Y-97228328D01*
X177298481Y-97227761D01*
X177496737Y-97210416D01*
X177496742Y-97210415D01*
X177503213Y-97209849D01*
X177509487Y-97208168D01*
X177509492Y-97208167D01*
X177701728Y-97156657D01*
X177708009Y-97154974D01*
X177900164Y-97065371D01*
X177905492Y-97061640D01*
X177905496Y-97061638D01*
X178063474Y-96951020D01*
X178073841Y-96943761D01*
X178223761Y-96793841D01*
X178290809Y-96698087D01*
X178341638Y-96625496D01*
X178341640Y-96625492D01*
X178345371Y-96620164D01*
X178434974Y-96428009D01*
X178489849Y-96223213D01*
X178499023Y-96118361D01*
X178507761Y-96018481D01*
X178508328Y-96012000D01*
X178490539Y-95808677D01*
X178503932Y-95732722D01*
X178533613Y-95690333D01*
X179727299Y-94496647D01*
X179735121Y-94489529D01*
X179741940Y-94485202D01*
X179748357Y-94478368D01*
X179748360Y-94478366D01*
X179789572Y-94434479D01*
X179792829Y-94431117D01*
X179812911Y-94411035D01*
X179815777Y-94407341D01*
X179818648Y-94404084D01*
X179824005Y-94397812D01*
X179848031Y-94372227D01*
X179848033Y-94372225D01*
X179854448Y-94365393D01*
X179863726Y-94348515D01*
X179876557Y-94328983D01*
X179888362Y-94313764D01*
X179892086Y-94305159D01*
X179892088Y-94305155D01*
X179906023Y-94272951D01*
X179912195Y-94260352D01*
X179933627Y-94221368D01*
X179938417Y-94202712D01*
X179945991Y-94180589D01*
X179948481Y-94174837D01*
X179953635Y-94162926D01*
X179955719Y-94149773D01*
X179960591Y-94119010D01*
X179963437Y-94105266D01*
X179972169Y-94071257D01*
X179972169Y-94071254D01*
X179974500Y-94062177D01*
X179974500Y-94042921D01*
X179976335Y-94019611D01*
X179977881Y-94009853D01*
X179977881Y-94009850D01*
X179979347Y-94000595D01*
X179975161Y-93956314D01*
X179974500Y-93942291D01*
X179974500Y-90956654D01*
X179974998Y-90946086D01*
X179976760Y-90938204D01*
X179974574Y-90868638D01*
X179974500Y-90863958D01*
X179974500Y-90835575D01*
X179973914Y-90830937D01*
X179973641Y-90826592D01*
X179972995Y-90818381D01*
X179971893Y-90783304D01*
X179971893Y-90783301D01*
X179971598Y-90773931D01*
X179966224Y-90755434D01*
X179961484Y-90732543D01*
X179960246Y-90722741D01*
X179960246Y-90722739D01*
X179959071Y-90713442D01*
X179955621Y-90704729D01*
X179955620Y-90704724D01*
X179942698Y-90672086D01*
X179938152Y-90658809D01*
X179936512Y-90653165D01*
X179925744Y-90616102D01*
X179915940Y-90599524D01*
X179905657Y-90578534D01*
X179902019Y-90569345D01*
X179898568Y-90560629D01*
X179872425Y-90524646D01*
X179864725Y-90512924D01*
X179846854Y-90482705D01*
X179846852Y-90482702D01*
X179842081Y-90474635D01*
X179828466Y-90461020D01*
X179813281Y-90443241D01*
X179807472Y-90435245D01*
X179807470Y-90435243D01*
X179801963Y-90427663D01*
X179767696Y-90399315D01*
X179757313Y-90389867D01*
X179340141Y-89972695D01*
X179301577Y-89905900D01*
X179296500Y-89867336D01*
X179296500Y-89470306D01*
X179293598Y-89433431D01*
X179285183Y-89404466D01*
X179250358Y-89284598D01*
X179250357Y-89284595D01*
X179247744Y-89275602D01*
X179210004Y-89211787D01*
X179168854Y-89142205D01*
X179168852Y-89142203D01*
X179164081Y-89134135D01*
X179047865Y-89017919D01*
X179039797Y-89013148D01*
X179039795Y-89013146D01*
X178914462Y-88939025D01*
X178906398Y-88934256D01*
X178897405Y-88931643D01*
X178897402Y-88931642D01*
X178755880Y-88890526D01*
X178755879Y-88890526D01*
X178748569Y-88888402D01*
X178711694Y-88885500D01*
X178280306Y-88885500D01*
X178243431Y-88888402D01*
X178236121Y-88890526D01*
X178236120Y-88890526D01*
X178094598Y-88931642D01*
X178094595Y-88931643D01*
X178085602Y-88934256D01*
X178077538Y-88939025D01*
X177952205Y-89013146D01*
X177952203Y-89013148D01*
X177944135Y-89017919D01*
X177827919Y-89134135D01*
X177823148Y-89142203D01*
X177823146Y-89142205D01*
X177781996Y-89211787D01*
X177744256Y-89275602D01*
X177741643Y-89284595D01*
X177741642Y-89284598D01*
X177706817Y-89404466D01*
X177698402Y-89433431D01*
X177695500Y-89470306D01*
X177695500Y-90007827D01*
X177675538Y-90082327D01*
X177621000Y-90136865D01*
X177546500Y-90156827D01*
X177472000Y-90136865D01*
X177417462Y-90082327D01*
X177398316Y-90023402D01*
X177397316Y-90013888D01*
X177396500Y-89998313D01*
X177396500Y-89470306D01*
X177393598Y-89433431D01*
X177385183Y-89404466D01*
X177350358Y-89284598D01*
X177350357Y-89284595D01*
X177347744Y-89275602D01*
X177310004Y-89211787D01*
X177268854Y-89142205D01*
X177268852Y-89142203D01*
X177264081Y-89134135D01*
X177147865Y-89017919D01*
X177139797Y-89013148D01*
X177139795Y-89013146D01*
X177014462Y-88939025D01*
X177006398Y-88934256D01*
X176997405Y-88931643D01*
X176997402Y-88931642D01*
X176855880Y-88890526D01*
X176855879Y-88890526D01*
X176848569Y-88888402D01*
X176811694Y-88885500D01*
X176380306Y-88885500D01*
X176343431Y-88888402D01*
X176336121Y-88890526D01*
X176336120Y-88890526D01*
X176197070Y-88930924D01*
X176119959Y-88932539D01*
X176052371Y-88895382D01*
X176012416Y-88829410D01*
X176006500Y-88787840D01*
X176006500Y-87868717D01*
X176006558Y-87864557D01*
X176007940Y-87815087D01*
X176008959Y-87778597D01*
X176005377Y-87758281D01*
X175998632Y-87720028D01*
X175997131Y-87709212D01*
X175991882Y-87657540D01*
X175991120Y-87650034D01*
X175984842Y-87630000D01*
X175982956Y-87623980D01*
X175978402Y-87605299D01*
X175974974Y-87585860D01*
X175973664Y-87578428D01*
X175951773Y-87523137D01*
X175948128Y-87512845D01*
X175932594Y-87463277D01*
X175930338Y-87456078D01*
X175917100Y-87432195D01*
X175908888Y-87414822D01*
X175898840Y-87389445D01*
X175866281Y-87339688D01*
X175860641Y-87330341D01*
X175831797Y-87278306D01*
X175826888Y-87272578D01*
X175826882Y-87272570D01*
X175814033Y-87257579D01*
X175802488Y-87242203D01*
X175790683Y-87224164D01*
X175787544Y-87219367D01*
X175783082Y-87214412D01*
X175744801Y-87176131D01*
X175737028Y-87167737D01*
X175731400Y-87161171D01*
X175699523Y-87123979D01*
X175676289Y-87105957D01*
X175662253Y-87093583D01*
X175283788Y-86715118D01*
X175245224Y-86648323D01*
X175245224Y-86571195D01*
X175283788Y-86504400D01*
X175350583Y-86465836D01*
X175427711Y-86465836D01*
X175436056Y-86468336D01*
X175485521Y-86484743D01*
X175501333Y-86488133D01*
X175593849Y-86497612D01*
X175601444Y-86498000D01*
X175653384Y-86498000D01*
X175668855Y-86493855D01*
X175673000Y-86478384D01*
X175673000Y-86478383D01*
X176273000Y-86478383D01*
X176277145Y-86493854D01*
X176292616Y-86497999D01*
X176344503Y-86497999D01*
X176352204Y-86497600D01*
X176445953Y-86487873D01*
X176461793Y-86484453D01*
X176613524Y-86433832D01*
X176629093Y-86426539D01*
X176764669Y-86342641D01*
X176778156Y-86331952D01*
X176890795Y-86219117D01*
X176901452Y-86205623D01*
X176985115Y-86069895D01*
X176992384Y-86054307D01*
X177042743Y-85902482D01*
X177046133Y-85886667D01*
X177055612Y-85794151D01*
X177056000Y-85786556D01*
X177056000Y-85409616D01*
X177051855Y-85394145D01*
X177036384Y-85390000D01*
X176292616Y-85390000D01*
X176277145Y-85394145D01*
X176273000Y-85409616D01*
X176273000Y-86478383D01*
X175673000Y-86478383D01*
X175673000Y-85409616D01*
X175668855Y-85394145D01*
X175653384Y-85390000D01*
X174909617Y-85390000D01*
X174894146Y-85394145D01*
X174890001Y-85409616D01*
X174890001Y-85786503D01*
X174890400Y-85794204D01*
X174900127Y-85887953D01*
X174903547Y-85903793D01*
X174919502Y-85951617D01*
X174924143Y-86028606D01*
X174889668Y-86097600D01*
X174825315Y-86140114D01*
X174748326Y-86144755D01*
X174679332Y-86110280D01*
X174672801Y-86104131D01*
X174142141Y-85573471D01*
X174103577Y-85506676D01*
X174098500Y-85468112D01*
X174098500Y-84770384D01*
X174890000Y-84770384D01*
X174894145Y-84785855D01*
X174909616Y-84790000D01*
X175653384Y-84790000D01*
X175668855Y-84785855D01*
X175673000Y-84770384D01*
X176273000Y-84770384D01*
X176277145Y-84785855D01*
X176292616Y-84790000D01*
X177036383Y-84790000D01*
X177051854Y-84785855D01*
X177055999Y-84770384D01*
X177055999Y-84393497D01*
X177055600Y-84385796D01*
X177045873Y-84292047D01*
X177042453Y-84276207D01*
X176991832Y-84124476D01*
X176984539Y-84108907D01*
X176900641Y-83973331D01*
X176889952Y-83959844D01*
X176777117Y-83847205D01*
X176763623Y-83836548D01*
X176627895Y-83752885D01*
X176612307Y-83745616D01*
X176460482Y-83695257D01*
X176444667Y-83691867D01*
X176352151Y-83682388D01*
X176344555Y-83682000D01*
X176292616Y-83682000D01*
X176277145Y-83686145D01*
X176273000Y-83701616D01*
X176273000Y-84770384D01*
X175673000Y-84770384D01*
X175673000Y-83701617D01*
X175668855Y-83686146D01*
X175653384Y-83682001D01*
X175601497Y-83682001D01*
X175593796Y-83682400D01*
X175500047Y-83692127D01*
X175484207Y-83695547D01*
X175332476Y-83746168D01*
X175316907Y-83753461D01*
X175181331Y-83837359D01*
X175167844Y-83848048D01*
X175055205Y-83960883D01*
X175044548Y-83974377D01*
X174960885Y-84110105D01*
X174953616Y-84125693D01*
X174903257Y-84277518D01*
X174899867Y-84293333D01*
X174890388Y-84385849D01*
X174890000Y-84393445D01*
X174890000Y-84770384D01*
X174098500Y-84770384D01*
X174098500Y-84390134D01*
X174098056Y-84385849D01*
X174088483Y-84293593D01*
X174088482Y-84293590D01*
X174087641Y-84285481D01*
X174085060Y-84277744D01*
X174034995Y-84127680D01*
X174034994Y-84127678D01*
X174032256Y-84119471D01*
X173940166Y-83970655D01*
X173934047Y-83964546D01*
X173934044Y-83964543D01*
X173822436Y-83853130D01*
X173822434Y-83853129D01*
X173816311Y-83847016D01*
X173721375Y-83788497D01*
X173674703Y-83759728D01*
X173674701Y-83759727D01*
X173667334Y-83755186D01*
X173659119Y-83752461D01*
X173508956Y-83702653D01*
X173508953Y-83702652D01*
X173501228Y-83700090D01*
X173493131Y-83699260D01*
X173493129Y-83699260D01*
X173401655Y-83689888D01*
X173401651Y-83689888D01*
X173397866Y-83689500D01*
X172648134Y-83689500D01*
X172644303Y-83689898D01*
X172644294Y-83689898D01*
X172551593Y-83699517D01*
X172551590Y-83699518D01*
X172543481Y-83700359D01*
X172535746Y-83702940D01*
X172535744Y-83702940D01*
X172385680Y-83753005D01*
X172385678Y-83753006D01*
X172377471Y-83755744D01*
X172228655Y-83847834D01*
X172222546Y-83853953D01*
X172222543Y-83853956D01*
X172111130Y-83965564D01*
X172105016Y-83971689D01*
X172100476Y-83979054D01*
X172100473Y-83979058D01*
X172076048Y-84018684D01*
X172019963Y-84071629D01*
X171949209Y-84089500D01*
X167380164Y-84089500D01*
X167305664Y-84069538D01*
X167251126Y-84015000D01*
X167231164Y-83940500D01*
X167251126Y-83866000D01*
X167274805Y-83835141D01*
X168805299Y-82304647D01*
X168813121Y-82297529D01*
X168819940Y-82293202D01*
X168826357Y-82286368D01*
X168826360Y-82286366D01*
X168867572Y-82242479D01*
X168870829Y-82239117D01*
X168890911Y-82219035D01*
X168893777Y-82215341D01*
X168896648Y-82212084D01*
X168902005Y-82205812D01*
X168926031Y-82180227D01*
X168926033Y-82180225D01*
X168932448Y-82173393D01*
X168941726Y-82156515D01*
X168954557Y-82136983D01*
X168966362Y-82121764D01*
X168970086Y-82113159D01*
X168970088Y-82113155D01*
X168984023Y-82080951D01*
X168990195Y-82068352D01*
X169011627Y-82029368D01*
X169016417Y-82010712D01*
X169023991Y-81988589D01*
X169024569Y-81987255D01*
X169031635Y-81970926D01*
X169033514Y-81959067D01*
X169038591Y-81927010D01*
X169041437Y-81913266D01*
X169050169Y-81879257D01*
X169050169Y-81879254D01*
X169052500Y-81870177D01*
X169052500Y-81850921D01*
X169054335Y-81827611D01*
X169055881Y-81817853D01*
X169055881Y-81817850D01*
X169057347Y-81808595D01*
X169053161Y-81764314D01*
X169052500Y-81750291D01*
X169052500Y-78312154D01*
X169052998Y-78301586D01*
X169054760Y-78293704D01*
X169052574Y-78224138D01*
X169052500Y-78219458D01*
X169052500Y-78191075D01*
X169051914Y-78186437D01*
X169051641Y-78182092D01*
X169050995Y-78173881D01*
X169049893Y-78138804D01*
X169049893Y-78138801D01*
X169049598Y-78129431D01*
X169044225Y-78110935D01*
X169039485Y-78088049D01*
X169038533Y-78080514D01*
X169037071Y-78068942D01*
X169033623Y-78060233D01*
X169033621Y-78060226D01*
X169020701Y-78027596D01*
X169016153Y-78014312D01*
X169006361Y-77980606D01*
X169006361Y-77980605D01*
X169003745Y-77971602D01*
X168993942Y-77955026D01*
X168983653Y-77934025D01*
X168976568Y-77916129D01*
X168950420Y-77880139D01*
X168942724Y-77868421D01*
X168924854Y-77838205D01*
X168924853Y-77838203D01*
X168920081Y-77830135D01*
X168906466Y-77816520D01*
X168891281Y-77798741D01*
X168885472Y-77790745D01*
X168885470Y-77790743D01*
X168879963Y-77783163D01*
X168845696Y-77754815D01*
X168835313Y-77745367D01*
X166124647Y-75034701D01*
X166117529Y-75026879D01*
X166113202Y-75020060D01*
X166106368Y-75013643D01*
X166106366Y-75013640D01*
X166062479Y-74972428D01*
X166059117Y-74969171D01*
X166039035Y-74949089D01*
X166035341Y-74946223D01*
X166032084Y-74943352D01*
X166025812Y-74937995D01*
X166000227Y-74913969D01*
X166000225Y-74913967D01*
X165993393Y-74907552D01*
X165976515Y-74898274D01*
X165956983Y-74885443D01*
X165941764Y-74873638D01*
X165933159Y-74869914D01*
X165933155Y-74869912D01*
X165900951Y-74855977D01*
X165888352Y-74849805D01*
X165849368Y-74828373D01*
X165839959Y-74825957D01*
X165830712Y-74823583D01*
X165808594Y-74816011D01*
X165790926Y-74808365D01*
X165781670Y-74806899D01*
X165781667Y-74806898D01*
X165747010Y-74801409D01*
X165733266Y-74798563D01*
X165699257Y-74789831D01*
X165699254Y-74789831D01*
X165690177Y-74787500D01*
X165670921Y-74787500D01*
X165647611Y-74785665D01*
X165637853Y-74784119D01*
X165637850Y-74784119D01*
X165628595Y-74782653D01*
X165596733Y-74785665D01*
X165584314Y-74786839D01*
X165570291Y-74787500D01*
X149940154Y-74787500D01*
X149929586Y-74787002D01*
X149921704Y-74785240D01*
X149854122Y-74787364D01*
X149852151Y-74787426D01*
X149847470Y-74787500D01*
X149819075Y-74787500D01*
X149814442Y-74788085D01*
X149810116Y-74788357D01*
X149801875Y-74789006D01*
X149795580Y-74789204D01*
X149766801Y-74790108D01*
X149766798Y-74790109D01*
X149757431Y-74790403D01*
X149738942Y-74795775D01*
X149716047Y-74800516D01*
X149712478Y-74800967D01*
X149706243Y-74801754D01*
X149706242Y-74801754D01*
X149696942Y-74802929D01*
X149688226Y-74806380D01*
X149655590Y-74819302D01*
X149642307Y-74823850D01*
X149599602Y-74836256D01*
X149591532Y-74841028D01*
X149591533Y-74841028D01*
X149583026Y-74846059D01*
X149562037Y-74856342D01*
X149544129Y-74863432D01*
X149508146Y-74889575D01*
X149496424Y-74897275D01*
X149466205Y-74915146D01*
X149466202Y-74915148D01*
X149458135Y-74919919D01*
X149444520Y-74933534D01*
X149426741Y-74948719D01*
X149418745Y-74954528D01*
X149418743Y-74954530D01*
X149411163Y-74960037D01*
X149382919Y-74994179D01*
X149382815Y-74994304D01*
X149373367Y-75004687D01*
X141328701Y-83049353D01*
X141320879Y-83056471D01*
X141314060Y-83060798D01*
X141307643Y-83067632D01*
X141307640Y-83067634D01*
X141266428Y-83111521D01*
X141263171Y-83114883D01*
X141243089Y-83134965D01*
X141240223Y-83138659D01*
X141237352Y-83141916D01*
X141231995Y-83148188D01*
X141228168Y-83152264D01*
X141201552Y-83180607D01*
X141192274Y-83197485D01*
X141179443Y-83217017D01*
X141167638Y-83232236D01*
X141163914Y-83240841D01*
X141163912Y-83240845D01*
X141149977Y-83273049D01*
X141143805Y-83285648D01*
X141122373Y-83324632D01*
X141120042Y-83333711D01*
X141117583Y-83343288D01*
X141110011Y-83365406D01*
X141102365Y-83383074D01*
X141100899Y-83392330D01*
X141100898Y-83392333D01*
X141095409Y-83426990D01*
X141092563Y-83440734D01*
X141087166Y-83461756D01*
X141081500Y-83483823D01*
X141081500Y-83503079D01*
X141079665Y-83526389D01*
X141076653Y-83545405D01*
X141077535Y-83554734D01*
X141080839Y-83589686D01*
X141081500Y-83603709D01*
X141081500Y-101246851D01*
X141061538Y-101321351D01*
X141037859Y-101352210D01*
X140820701Y-101569368D01*
X140812879Y-101576486D01*
X140806060Y-101580813D01*
X140799643Y-101587647D01*
X140799640Y-101587649D01*
X140758428Y-101631536D01*
X140755171Y-101634898D01*
X140735089Y-101654980D01*
X140732223Y-101658674D01*
X140729352Y-101661931D01*
X140723995Y-101668203D01*
X140693552Y-101700622D01*
X140684274Y-101717500D01*
X140671443Y-101737032D01*
X140659638Y-101752251D01*
X140655914Y-101760856D01*
X140655912Y-101760860D01*
X140641977Y-101793064D01*
X140635805Y-101805663D01*
X140614373Y-101844647D01*
X140612042Y-101853726D01*
X140609583Y-101863303D01*
X140602011Y-101885421D01*
X140594365Y-101903089D01*
X140592899Y-101912345D01*
X140592898Y-101912348D01*
X140587409Y-101947005D01*
X140584563Y-101960749D01*
X140573500Y-102003838D01*
X140573500Y-102023094D01*
X140571665Y-102046404D01*
X140568653Y-102065420D01*
X140569535Y-102074749D01*
X140572839Y-102109701D01*
X140573500Y-102123724D01*
X140573500Y-106602836D01*
X140553538Y-106677336D01*
X140529859Y-106708195D01*
X139474195Y-107763859D01*
X139407400Y-107802423D01*
X139368836Y-107807500D01*
X136732154Y-107807500D01*
X136721586Y-107807002D01*
X136713704Y-107805240D01*
X136704336Y-107805534D01*
X136704332Y-107805534D01*
X136644138Y-107807426D01*
X136639458Y-107807500D01*
X136611075Y-107807500D01*
X136606437Y-107808086D01*
X136602092Y-107808359D01*
X136593884Y-107809005D01*
X136585114Y-107809280D01*
X136558804Y-107810107D01*
X136558801Y-107810107D01*
X136549431Y-107810402D01*
X136540428Y-107813018D01*
X136540425Y-107813018D01*
X136530935Y-107815775D01*
X136508048Y-107820515D01*
X136488942Y-107822929D01*
X136480233Y-107826377D01*
X136480226Y-107826379D01*
X136447596Y-107839299D01*
X136434312Y-107843847D01*
X136400606Y-107853639D01*
X136400605Y-107853639D01*
X136391602Y-107856255D01*
X136383533Y-107861027D01*
X136383531Y-107861028D01*
X136375026Y-107866058D01*
X136354030Y-107876345D01*
X136336129Y-107883432D01*
X136300139Y-107909580D01*
X136288421Y-107917276D01*
X136258205Y-107935146D01*
X136258203Y-107935147D01*
X136250135Y-107939919D01*
X136236520Y-107953534D01*
X136218741Y-107968719D01*
X136210745Y-107974528D01*
X136210743Y-107974530D01*
X136203163Y-107980037D01*
X136179925Y-108008127D01*
X136174815Y-108014304D01*
X136165367Y-108024687D01*
X135486701Y-108703353D01*
X135478879Y-108710471D01*
X135472060Y-108714798D01*
X135465643Y-108721632D01*
X135465640Y-108721634D01*
X135424428Y-108765521D01*
X135421171Y-108768883D01*
X135401089Y-108788965D01*
X135398223Y-108792659D01*
X135395352Y-108795916D01*
X135389995Y-108802188D01*
X135367057Y-108826615D01*
X135359552Y-108834607D01*
X135350274Y-108851485D01*
X135337443Y-108871017D01*
X135325638Y-108886236D01*
X135321914Y-108894841D01*
X135321912Y-108894845D01*
X135307977Y-108927049D01*
X135301805Y-108939648D01*
X135280373Y-108978632D01*
X135278042Y-108987711D01*
X135275583Y-108997288D01*
X135268011Y-109019406D01*
X135260365Y-109037074D01*
X135258899Y-109046330D01*
X135258898Y-109046333D01*
X135253409Y-109080990D01*
X135250563Y-109094734D01*
X135242330Y-109126802D01*
X135239500Y-109137823D01*
X135239500Y-109157079D01*
X135237665Y-109180389D01*
X135234653Y-109199405D01*
X135235535Y-109208734D01*
X135238839Y-109243686D01*
X135239500Y-109257709D01*
X135239500Y-109337895D01*
X135219538Y-109412395D01*
X135165000Y-109466933D01*
X135151227Y-109473958D01*
X135094071Y-109499466D01*
X135038422Y-109537784D01*
X134923002Y-109617258D01*
X134922998Y-109617261D01*
X134917381Y-109621129D01*
X134912562Y-109625957D01*
X134912559Y-109625959D01*
X134889335Y-109649224D01*
X134765821Y-109772954D01*
X134742652Y-109806728D01*
X134670368Y-109912098D01*
X134611763Y-109962239D01*
X134535939Y-109976361D01*
X134463212Y-109950678D01*
X134413071Y-109892073D01*
X134398500Y-109827810D01*
X134398500Y-101182918D01*
X135097500Y-101182918D01*
X135098087Y-101187562D01*
X135098087Y-101187567D01*
X135110336Y-101284523D01*
X135136934Y-101495073D01*
X135162667Y-101595296D01*
X135199061Y-101737040D01*
X135215181Y-101799825D01*
X135331006Y-102092366D01*
X135333255Y-102096458D01*
X135333257Y-102096461D01*
X135373509Y-102169678D01*
X135482584Y-102368084D01*
X135485329Y-102371863D01*
X135485334Y-102371870D01*
X135577860Y-102499221D01*
X135667522Y-102622630D01*
X135670725Y-102626041D01*
X135670726Y-102626042D01*
X135863571Y-102831400D01*
X135882906Y-102851990D01*
X135886517Y-102854978D01*
X135886521Y-102854981D01*
X136121728Y-103049562D01*
X136121734Y-103049567D01*
X136125337Y-103052547D01*
X136129281Y-103055050D01*
X136129288Y-103055055D01*
X136343481Y-103190985D01*
X136390993Y-103221137D01*
X136444459Y-103246296D01*
X136671438Y-103353105D01*
X136671445Y-103353108D01*
X136675685Y-103355103D01*
X136974921Y-103452331D01*
X136979517Y-103453208D01*
X136979522Y-103453209D01*
X137239919Y-103502882D01*
X137283985Y-103511288D01*
X137288646Y-103511581D01*
X137288652Y-103511582D01*
X137495715Y-103524609D01*
X137519417Y-103526100D01*
X137676583Y-103526100D01*
X137700285Y-103524609D01*
X137907348Y-103511582D01*
X137907354Y-103511581D01*
X137912015Y-103511288D01*
X137956081Y-103502882D01*
X138216478Y-103453209D01*
X138216483Y-103453208D01*
X138221079Y-103452331D01*
X138520315Y-103355103D01*
X138524555Y-103353108D01*
X138524562Y-103353105D01*
X138751541Y-103246296D01*
X138805007Y-103221137D01*
X138852519Y-103190985D01*
X139066712Y-103055055D01*
X139066719Y-103055050D01*
X139070663Y-103052547D01*
X139074266Y-103049567D01*
X139074272Y-103049562D01*
X139309479Y-102854981D01*
X139309483Y-102854978D01*
X139313094Y-102851990D01*
X139332430Y-102831400D01*
X139525274Y-102626042D01*
X139525275Y-102626041D01*
X139528478Y-102622630D01*
X139618140Y-102499221D01*
X139710666Y-102371870D01*
X139710671Y-102371863D01*
X139713416Y-102368084D01*
X139822491Y-102169678D01*
X139862743Y-102096461D01*
X139862745Y-102096458D01*
X139864994Y-102092366D01*
X139980819Y-101799825D01*
X139996940Y-101737040D01*
X140033333Y-101595296D01*
X140059066Y-101495073D01*
X140085664Y-101284523D01*
X140097913Y-101187567D01*
X140097913Y-101187562D01*
X140098500Y-101182918D01*
X140098500Y-100868282D01*
X140095834Y-100847174D01*
X140072335Y-100661164D01*
X140059066Y-100556127D01*
X140006552Y-100351598D01*
X139981982Y-100255904D01*
X139981981Y-100255902D01*
X139980819Y-100251375D01*
X139864994Y-99958834D01*
X139713416Y-99683116D01*
X139710671Y-99679337D01*
X139710666Y-99679330D01*
X139531228Y-99432355D01*
X139528478Y-99428570D01*
X139390970Y-99282139D01*
X139316303Y-99202627D01*
X139316301Y-99202625D01*
X139313094Y-99199210D01*
X139309479Y-99196219D01*
X139074272Y-99001638D01*
X139074266Y-99001633D01*
X139070663Y-98998653D01*
X139066719Y-98996150D01*
X139066712Y-98996145D01*
X138808962Y-98832573D01*
X138805007Y-98830063D01*
X138671865Y-98767411D01*
X138524562Y-98698095D01*
X138524555Y-98698092D01*
X138520315Y-98696097D01*
X138221079Y-98598869D01*
X138216483Y-98597992D01*
X138216478Y-98597991D01*
X137916607Y-98540788D01*
X137912015Y-98539912D01*
X137907354Y-98539619D01*
X137907348Y-98539618D01*
X137700285Y-98526591D01*
X137676583Y-98525100D01*
X137519417Y-98525100D01*
X137495715Y-98526591D01*
X137288652Y-98539618D01*
X137288646Y-98539619D01*
X137283985Y-98539912D01*
X137279393Y-98540788D01*
X136979522Y-98597991D01*
X136979517Y-98597992D01*
X136974921Y-98598869D01*
X136675685Y-98696097D01*
X136671445Y-98698092D01*
X136671438Y-98698095D01*
X136524135Y-98767411D01*
X136390993Y-98830063D01*
X136387038Y-98832573D01*
X136129288Y-98996145D01*
X136129281Y-98996150D01*
X136125337Y-98998653D01*
X136121734Y-99001633D01*
X136121728Y-99001638D01*
X135886521Y-99196219D01*
X135882906Y-99199210D01*
X135879699Y-99202625D01*
X135879697Y-99202627D01*
X135805030Y-99282139D01*
X135667522Y-99428570D01*
X135664772Y-99432355D01*
X135485334Y-99679330D01*
X135485329Y-99679337D01*
X135482584Y-99683116D01*
X135331006Y-99958834D01*
X135215181Y-100251375D01*
X135214019Y-100255902D01*
X135214018Y-100255904D01*
X135189448Y-100351598D01*
X135136934Y-100556127D01*
X135123665Y-100661164D01*
X135100167Y-100847174D01*
X135097500Y-100868282D01*
X135097500Y-101182918D01*
X134398500Y-101182918D01*
X134398500Y-73375100D01*
X134418462Y-73300600D01*
X134473000Y-73246062D01*
X134547500Y-73226100D01*
X180448500Y-73226100D01*
X180523000Y-73246062D01*
G37*
%TD.AperFunction*%
%TA.AperFunction,Conductor*%
G36*
X178599000Y-92043462D02*
G01*
X178653538Y-92098000D01*
X178673500Y-92172500D01*
X178673500Y-93648836D01*
X178653538Y-93723336D01*
X178629859Y-93754195D01*
X177613667Y-94770387D01*
X177546872Y-94808951D01*
X177495324Y-94813461D01*
X177292000Y-94795672D01*
X177285519Y-94796239D01*
X177087263Y-94813584D01*
X177087258Y-94813585D01*
X177080787Y-94814151D01*
X177074513Y-94815832D01*
X177074508Y-94815833D01*
X176882272Y-94867343D01*
X176875991Y-94869026D01*
X176683836Y-94958629D01*
X176678508Y-94962360D01*
X176678504Y-94962362D01*
X176576876Y-95033523D01*
X176510159Y-95080239D01*
X176360239Y-95230159D01*
X176313375Y-95297088D01*
X176277554Y-95348245D01*
X176218470Y-95397822D01*
X176142514Y-95411215D01*
X176070037Y-95384836D01*
X176020460Y-95325752D01*
X176006500Y-95262782D01*
X176006500Y-93584160D01*
X176026462Y-93509660D01*
X176081000Y-93455122D01*
X176155500Y-93435160D01*
X176197070Y-93441076D01*
X176319406Y-93476618D01*
X176343431Y-93483598D01*
X176380306Y-93486500D01*
X176811694Y-93486500D01*
X176848569Y-93483598D01*
X176872594Y-93476618D01*
X176997398Y-93440359D01*
X176997400Y-93440358D01*
X177006398Y-93437744D01*
X177012769Y-93433977D01*
X177088125Y-93422848D01*
X177128880Y-93433769D01*
X177135602Y-93437744D01*
X177144600Y-93440358D01*
X177144602Y-93440359D01*
X177269406Y-93476618D01*
X177293431Y-93483598D01*
X177330306Y-93486500D01*
X177761694Y-93486500D01*
X177798569Y-93483598D01*
X177822594Y-93476618D01*
X177947395Y-93440360D01*
X177947398Y-93440359D01*
X177956398Y-93437744D01*
X177956655Y-93437592D01*
X178028608Y-93426967D01*
X178070655Y-93438234D01*
X178091596Y-93447296D01*
X178177165Y-93472156D01*
X178193176Y-93472491D01*
X178195860Y-93468059D01*
X178196000Y-93467077D01*
X178196000Y-93309201D01*
X178216749Y-93233354D01*
X178292975Y-93104462D01*
X178297744Y-93096398D01*
X178306761Y-93065364D01*
X178341474Y-92945880D01*
X178341474Y-92945879D01*
X178343598Y-92938569D01*
X178346500Y-92901694D01*
X178346500Y-92172500D01*
X178366462Y-92098000D01*
X178421000Y-92043462D01*
X178495500Y-92023500D01*
X178524500Y-92023500D01*
X178599000Y-92043462D01*
G37*
%TD.AperFunction*%
%TA.AperFunction,Conductor*%
G36*
X171509335Y-88300462D02*
G01*
X171563873Y-88355000D01*
X171583835Y-88429500D01*
X171581125Y-88455286D01*
X171580326Y-88457744D01*
X171560540Y-88646000D01*
X171561356Y-88653764D01*
X171576456Y-88797430D01*
X171580326Y-88834256D01*
X171638821Y-89014284D01*
X171708017Y-89134135D01*
X171709837Y-89137287D01*
X171729799Y-89211787D01*
X171717837Y-89269547D01*
X171714256Y-89275602D01*
X171711641Y-89284602D01*
X171711640Y-89284605D01*
X171676817Y-89404466D01*
X171668402Y-89433431D01*
X171665500Y-89470306D01*
X171665500Y-90199500D01*
X171645538Y-90274000D01*
X171591000Y-90328538D01*
X171516500Y-90348500D01*
X170727617Y-90348500D01*
X170712146Y-90352645D01*
X170708001Y-90368116D01*
X170708001Y-90386500D01*
X170688039Y-90461000D01*
X170633501Y-90515538D01*
X170559001Y-90535500D01*
X163907164Y-90535500D01*
X163832664Y-90515538D01*
X163801805Y-90491859D01*
X163801613Y-90491667D01*
X163763049Y-90424872D01*
X163758539Y-90373321D01*
X163758995Y-90368116D01*
X163776328Y-90170000D01*
X163775761Y-90163519D01*
X163758416Y-89965263D01*
X163758415Y-89965258D01*
X163757849Y-89958787D01*
X163702974Y-89753991D01*
X163701030Y-89749822D01*
X163699198Y-89728884D01*
X170708000Y-89728884D01*
X170712145Y-89744355D01*
X170727616Y-89748500D01*
X171196384Y-89748500D01*
X171211855Y-89744355D01*
X171216000Y-89728884D01*
X171216000Y-88913988D01*
X171211855Y-88898517D01*
X171206849Y-88897176D01*
X171205869Y-88897315D01*
X171111596Y-88924704D01*
X171094536Y-88932087D01*
X170967572Y-89007172D01*
X170952872Y-89018575D01*
X170848575Y-89122872D01*
X170837172Y-89137572D01*
X170762087Y-89264536D01*
X170754704Y-89281597D01*
X170713059Y-89424937D01*
X170710338Y-89439838D01*
X170708229Y-89466638D01*
X170708000Y-89472460D01*
X170708000Y-89728884D01*
X163699198Y-89728884D01*
X163694364Y-89673627D01*
X163726959Y-89603725D01*
X163790139Y-89559486D01*
X163841100Y-89550500D01*
X165781846Y-89550500D01*
X165792414Y-89550998D01*
X165800296Y-89552760D01*
X165869848Y-89550574D01*
X165874530Y-89550500D01*
X165902925Y-89550500D01*
X165907558Y-89549915D01*
X165911884Y-89549643D01*
X165920125Y-89548994D01*
X165926420Y-89548796D01*
X165955199Y-89547892D01*
X165955202Y-89547891D01*
X165964569Y-89547597D01*
X165983058Y-89542225D01*
X166005953Y-89537484D01*
X166009522Y-89537033D01*
X166015757Y-89536246D01*
X166015758Y-89536246D01*
X166025058Y-89535071D01*
X166066411Y-89518698D01*
X166079694Y-89514150D01*
X166113393Y-89504360D01*
X166122398Y-89501744D01*
X166138976Y-89491940D01*
X166159963Y-89481658D01*
X166177871Y-89474568D01*
X166213854Y-89448425D01*
X166225576Y-89440725D01*
X166255795Y-89422854D01*
X166255798Y-89422852D01*
X166263865Y-89418081D01*
X166277480Y-89404466D01*
X166295259Y-89389281D01*
X166303255Y-89383472D01*
X166303257Y-89383470D01*
X166310837Y-89377963D01*
X166339185Y-89343696D01*
X166348633Y-89333313D01*
X167357805Y-88324141D01*
X167424600Y-88285577D01*
X167463164Y-88280500D01*
X171434835Y-88280500D01*
X171509335Y-88300462D01*
G37*
%TD.AperFunction*%
%TD*%
M02*
