%TF.GenerationSoftware,KiCad,Pcbnew,(6.0.5-71-gf89d5f9949)*%
%TF.CreationDate,2022-07-15T15:52:26+02:00*%
%TF.ProjectId,Vectorblade_PLCC32_THT,56656374-6f72-4626-9c61-64655f504c43,rev?*%
%TF.SameCoordinates,Original*%
%TF.FileFunction,Legend,Bot*%
%TF.FilePolarity,Positive*%
%FSLAX46Y46*%
G04 Gerber Fmt 4.6, Leading zero omitted, Abs format (unit mm)*
G04 Created by KiCad (PCBNEW (6.0.5-71-gf89d5f9949)) date 2022-07-15 15:52:26*
%MOMM*%
%LPD*%
G01*
G04 APERTURE LIST*
%ADD10C,1.000000*%
%ADD11C,0.400000*%
G04 APERTURE END LIST*
D10*
X159766000Y-83820000D02*
G75*
G03*
X159766000Y-83820000I-2286000J0D01*
G01*
D11*
X161622857Y-106537142D02*
X161337142Y-106632380D01*
X161241904Y-106727619D01*
X161146666Y-106918095D01*
X161146666Y-107203809D01*
X161241904Y-107394285D01*
X161337142Y-107489523D01*
X161527619Y-107584761D01*
X162289523Y-107584761D01*
X162289523Y-105584761D01*
X161622857Y-105584761D01*
X161432380Y-105680000D01*
X161337142Y-105775238D01*
X161241904Y-105965714D01*
X161241904Y-106156190D01*
X161337142Y-106346666D01*
X161432380Y-106441904D01*
X161622857Y-106537142D01*
X162289523Y-106537142D01*
X160003809Y-107584761D02*
X160194285Y-107489523D01*
X160289523Y-107394285D01*
X160384761Y-107203809D01*
X160384761Y-106632380D01*
X160289523Y-106441904D01*
X160194285Y-106346666D01*
X160003809Y-106251428D01*
X159718095Y-106251428D01*
X159527619Y-106346666D01*
X159432380Y-106441904D01*
X159337142Y-106632380D01*
X159337142Y-107203809D01*
X159432380Y-107394285D01*
X159527619Y-107489523D01*
X159718095Y-107584761D01*
X160003809Y-107584761D01*
X158765714Y-106251428D02*
X158003809Y-106251428D01*
X158480000Y-105584761D02*
X158480000Y-107299047D01*
X158384761Y-107489523D01*
X158194285Y-107584761D01*
X158003809Y-107584761D01*
X157622857Y-106251428D02*
X156860952Y-106251428D01*
X157337142Y-105584761D02*
X157337142Y-107299047D01*
X157241904Y-107489523D01*
X157051428Y-107584761D01*
X156860952Y-107584761D01*
X155908571Y-107584761D02*
X156099047Y-107489523D01*
X156194285Y-107394285D01*
X156289523Y-107203809D01*
X156289523Y-106632380D01*
X156194285Y-106441904D01*
X156099047Y-106346666D01*
X155908571Y-106251428D01*
X155622857Y-106251428D01*
X155432380Y-106346666D01*
X155337142Y-106441904D01*
X155241904Y-106632380D01*
X155241904Y-107203809D01*
X155337142Y-107394285D01*
X155432380Y-107489523D01*
X155622857Y-107584761D01*
X155908571Y-107584761D01*
X154384761Y-107584761D02*
X154384761Y-106251428D01*
X154384761Y-106441904D02*
X154289523Y-106346666D01*
X154099047Y-106251428D01*
X153813333Y-106251428D01*
X153622857Y-106346666D01*
X153527619Y-106537142D01*
X153527619Y-107584761D01*
X153527619Y-106537142D02*
X153432380Y-106346666D01*
X153241904Y-106251428D01*
X152956190Y-106251428D01*
X152765714Y-106346666D01*
X152670476Y-106537142D01*
X152670476Y-107584761D01*
M02*
