%TF.GenerationSoftware,KiCad,Pcbnew,(6.99.0-1875-gfe1a5267a2)*%
%TF.CreationDate,2022-07-11T17:03:01+02:00*%
%TF.ProjectId,Vectorblade_PLCC32_THT_Kicad6,56656374-6f72-4626-9c61-64655f504c43,rev?*%
%TF.SameCoordinates,Original*%
%TF.FileFunction,Copper,L1,Top*%
%TF.FilePolarity,Positive*%
%FSLAX46Y46*%
G04 Gerber Fmt 4.6, Leading zero omitted, Abs format (unit mm)*
G04 Created by KiCad (PCBNEW (6.99.0-1875-gfe1a5267a2)) date 2022-07-11 17:03:01*
%MOMM*%
%LPD*%
G01*
G04 APERTURE LIST*
G04 Aperture macros list*
%AMRoundRect*
0 Rectangle with rounded corners*
0 $1 Rounding radius*
0 $2 $3 $4 $5 $6 $7 $8 $9 X,Y pos of 4 corners*
0 Add a 4 corners polygon primitive as box body*
4,1,4,$2,$3,$4,$5,$6,$7,$8,$9,$2,$3,0*
0 Add four circle primitives for the rounded corners*
1,1,$1+$1,$2,$3*
1,1,$1+$1,$4,$5*
1,1,$1+$1,$6,$7*
1,1,$1+$1,$8,$9*
0 Add four rect primitives between the rounded corners*
20,1,$1+$1,$2,$3,$4,$5,0*
20,1,$1+$1,$4,$5,$6,$7,0*
20,1,$1+$1,$6,$7,$8,$9,0*
20,1,$1+$1,$8,$9,$2,$3,0*%
G04 Aperture macros list end*
%TA.AperFunction,ComponentPad*%
%ADD10C,1.422400*%
%TD*%
%TA.AperFunction,ComponentPad*%
%ADD11R,1.422400X1.422400*%
%TD*%
%TA.AperFunction,SMDPad,CuDef*%
%ADD12RoundRect,0.666750X-0.222250X-3.778250X0.222250X-3.778250X0.222250X3.778250X-0.222250X3.778250X0*%
%TD*%
%TA.AperFunction,SMDPad,CuDef*%
%ADD13RoundRect,0.150000X0.150000X-0.512500X0.150000X0.512500X-0.150000X0.512500X-0.150000X-0.512500X0*%
%TD*%
%TA.AperFunction,SMDPad,CuDef*%
%ADD14RoundRect,0.150000X-0.150000X0.512500X-0.150000X-0.512500X0.150000X-0.512500X0.150000X0.512500X0*%
%TD*%
%TA.AperFunction,SMDPad,CuDef*%
%ADD15RoundRect,0.250000X-0.325000X-0.650000X0.325000X-0.650000X0.325000X0.650000X-0.325000X0.650000X0*%
%TD*%
%TA.AperFunction,ViaPad*%
%ADD16C,0.800000*%
%TD*%
%TA.AperFunction,Conductor*%
%ADD17C,0.300000*%
%TD*%
%TA.AperFunction,Conductor*%
%ADD18C,1.240000*%
%TD*%
%TA.AperFunction,Conductor*%
%ADD19C,1.000000*%
%TD*%
%TA.AperFunction,Conductor*%
%ADD20C,0.600000*%
%TD*%
G04 APERTURE END LIST*
D10*
%TO.P,,22,CE*%
%TO.N,Net-(U1-Pad22)*%
X150876000Y-96012000D03*
%TD*%
D11*
%TO.P,U1,1,NC*%
%TO.N,unconnected-(U1-Pad1)*%
X162559999Y-85089999D03*
D10*
%TO.P,U1,2,A16*%
%TO.N,/PB6*%
X165100000Y-82550000D03*
%TO.P,U1,3,A15*%
%TO.N,/V-CE*%
X162560000Y-82550000D03*
%TO.P,U1,4,A12*%
%TO.N,/V-A12*%
X165100000Y-80010000D03*
%TO.P,U1,5,A7*%
%TO.N,/V-A7*%
X162560000Y-77470000D03*
%TO.P,U1,6,A6*%
%TO.N,/V-A6*%
X162560000Y-80010000D03*
%TO.P,U1,7,A5*%
%TO.N,/V-A5*%
X160020000Y-77470000D03*
%TO.P,U1,8,A4*%
%TO.N,/V-A4*%
X160020000Y-80010000D03*
%TO.P,U1,9,A3*%
%TO.N,/V-A3*%
X157480000Y-77470000D03*
%TO.P,U1,10,A2*%
%TO.N,/V-A2*%
X157480000Y-80010000D03*
%TO.P,U1,11,A1*%
%TO.N,/V-A1*%
X154940000Y-77470000D03*
%TO.P,U1,12,A0*%
%TO.N,/V-A0*%
X154940000Y-80010000D03*
%TO.P,U1,13,D0*%
%TO.N,/V-D0*%
X152400000Y-77470000D03*
%TO.P,U1,14,D1*%
%TO.N,/V-D1*%
X149860000Y-80010000D03*
%TO.P,U1,15,D2*%
%TO.N,/V-D2*%
X152400000Y-80010000D03*
%TO.P,U1,16,GND*%
%TO.N,GND*%
X149860000Y-82550000D03*
%TO.P,U1,17,D3*%
%TO.N,/V-D3*%
X152400000Y-82550000D03*
%TO.P,U1,18,D4*%
%TO.N,/V-D4*%
X149860000Y-85090000D03*
%TO.P,U1,19,D5*%
%TO.N,/V-D5*%
X152400000Y-85090000D03*
%TO.P,U1,20,D6*%
%TO.N,/V-D6*%
X149860000Y-87630000D03*
%TO.P,U1,21,D7*%
%TO.N,/V-D7*%
X152400000Y-90170000D03*
%TO.P,U1,22,CE*%
%TO.N,Net-(U1-Pad22)*%
X152400000Y-87630000D03*
%TO.P,U1,23,A10*%
%TO.N,/V-A10*%
X154940000Y-90170000D03*
%TO.P,U1,24,OE*%
%TO.N,Net-(U1-Pad24)*%
X154940000Y-87630000D03*
%TO.P,U1,25,A11*%
%TO.N,/V-A11*%
X157480000Y-90170000D03*
%TO.P,U1,26,A9*%
%TO.N,/V-A9*%
X157480000Y-87630000D03*
%TO.P,U1,27,A8*%
%TO.N,/V-A8*%
X160020000Y-90170000D03*
%TO.P,U1,28,A13*%
%TO.N,/V-A13*%
X160020000Y-87630000D03*
%TO.P,U1,29,A14*%
%TO.N,/V-A14*%
X162560000Y-90170000D03*
%TO.P,U1,30,A17*%
%TO.N,/IRQ*%
X165100000Y-87630000D03*
%TO.P,U1,31,PGM*%
%TO.N,/V-RW*%
X162560000Y-87630000D03*
%TO.P,U1,32,VCC*%
%TO.N,+5V*%
X165100000Y-85090000D03*
%TD*%
D12*
%TO.P,CON3,2,VCC*%
%TO.N,+5V*%
X179070000Y-114300000D03*
%TO.P,CON3,4,VCC2*%
X176530000Y-114300000D03*
%TO.P,CON3,6,A8*%
%TO.N,/V-A8*%
X173990000Y-114300000D03*
%TO.P,CON3,8,A9*%
%TO.N,/V-A9*%
X171450000Y-114300000D03*
%TO.P,CON3,10,A11*%
%TO.N,/V-A11*%
X168910000Y-114300000D03*
%TO.P,CON3,12,OE*%
%TO.N,unconnected-(CON3-Pad12)*%
X166370000Y-114300000D03*
%TO.P,CON3,14,A10*%
%TO.N,/V-A10*%
X163830000Y-114300000D03*
%TO.P,CON3,16,CE*%
%TO.N,/V-CE*%
X161290000Y-114300000D03*
%TO.P,CON3,18,D7*%
%TO.N,/V-D7*%
X158750000Y-114300000D03*
%TO.P,CON3,20,D6*%
%TO.N,/V-D6*%
X156210000Y-114300000D03*
%TO.P,CON3,22,D5*%
%TO.N,/V-D5*%
X153670000Y-114300000D03*
%TO.P,CON3,24,D4*%
%TO.N,/V-D4*%
X151130000Y-114300000D03*
%TO.P,CON3,26,D3*%
%TO.N,/V-D3*%
X148590000Y-114300000D03*
%TO.P,CON3,28,GND2*%
%TO.N,GND*%
X146050000Y-114300000D03*
%TO.P,CON3,30,RW*%
%TO.N,/V-RW*%
X143510000Y-114300000D03*
%TO.P,CON3,32,CART*%
%TO.N,unconnected-(CON3-Pad32)*%
X140970000Y-114300000D03*
%TO.P,CON3,34,NMI*%
%TO.N,unconnected-(CON3-Pad34)*%
X138430000Y-114300000D03*
%TO.P,CON3,36,IRQ*%
%TO.N,/IRQ*%
X135890000Y-114300000D03*
%TD*%
D10*
%TO.P,,22,CE*%
%TO.N,Net-(U1-Pad22)*%
X177292000Y-96012000D03*
%TD*%
D13*
%TO.P,U2,1*%
%TO.N,N/C*%
X176596000Y-92323500D03*
%TO.P,U2,2*%
%TO.N,/V-RW*%
X177546000Y-92323500D03*
%TO.P,U2,3,GND*%
%TO.N,GND*%
X178496000Y-92323500D03*
%TO.P,U2,4*%
%TO.N,Net-(U1-Pad22)*%
X178496000Y-90048500D03*
%TO.P,U2,5,VCC*%
%TO.N,+5V*%
X176596000Y-90048500D03*
%TD*%
D14*
%TO.P,U3,1*%
%TO.N,/V-A14*%
X173416000Y-90048500D03*
%TO.P,U3,2*%
%TO.N,/V-CE*%
X172466000Y-90048500D03*
%TO.P,U3,3,GND*%
%TO.N,GND*%
X171516000Y-90048500D03*
%TO.P,U3,4*%
%TO.N,Net-(U1-Pad24)*%
X171516000Y-92323500D03*
%TO.P,U3,5,VCC*%
%TO.N,+5V*%
X173416000Y-92323500D03*
%TD*%
D15*
%TO.P,C1,1,1*%
%TO.N,+5V*%
X173023000Y-85090000D03*
%TO.P,C1,2,2*%
%TO.N,GND*%
X175973000Y-85090000D03*
%TD*%
D10*
%TO.P,,24,OE*%
%TO.N,Net-(U1-Pad24)*%
X156972000Y-94488000D03*
%TD*%
%TO.P,,24,OE*%
%TO.N,Net-(U1-Pad24)*%
X172720000Y-94488000D03*
%TD*%
D16*
%TO.N,GND*%
X135890000Y-104775000D03*
X175260000Y-82804000D03*
X146050000Y-107188000D03*
X171323000Y-88667977D03*
X147320000Y-105918000D03*
X144780000Y-97536000D03*
X135890000Y-97155000D03*
X177546000Y-94234000D03*
X168656000Y-76962000D03*
X147320000Y-108458000D03*
X144780000Y-94742000D03*
X135890000Y-74930000D03*
X144780000Y-85852000D03*
X171958000Y-81026000D03*
X178816000Y-86995000D03*
X179070000Y-97155000D03*
X179070000Y-74930000D03*
X146050000Y-108458000D03*
X144780000Y-91694000D03*
X171958000Y-83058000D03*
X176403000Y-94234000D03*
X147320000Y-107188000D03*
X176403000Y-86995000D03*
X144780000Y-88900000D03*
X146050000Y-105918000D03*
X144780000Y-100330000D03*
X179070000Y-104775000D03*
%TO.N,/V-A5*%
X167386000Y-81280000D03*
%TO.N,/V-CE*%
X172466000Y-88646000D03*
%TO.N,/V-A12*%
X144272000Y-108458000D03*
%TO.N,/V-A13*%
X170434000Y-94996000D03*
%TO.N,/V-A14*%
X173609000Y-88630536D03*
%TO.N,/V-RW*%
X177546000Y-91186000D03*
X171196000Y-93980000D03*
X164592000Y-92710000D03*
X142240000Y-104394000D03*
%TO.N,/PB6*%
X142240000Y-102870000D03*
%TD*%
D17*
%TO.N,/V-A13*%
X160020000Y-88265000D02*
X160312893Y-88557893D01*
X160020000Y-87630000D02*
X160020000Y-88265000D01*
%TO.N,/V-D4*%
X149225000Y-85090000D02*
X148932107Y-85382893D01*
X149860000Y-85090000D02*
X149225000Y-85090000D01*
%TO.N,/V-D6*%
X149352000Y-88138000D02*
X149860000Y-87630000D01*
X155917107Y-108927107D02*
X149644893Y-102654893D01*
X149352010Y-101947786D02*
G75*
G03*
X149644893Y-102654893I999990J-14D01*
G01*
X156210000Y-114300000D02*
X156210000Y-109634214D01*
X149352000Y-101947786D02*
X149352000Y-88138000D01*
X156209990Y-109634214D02*
G75*
G03*
X155917107Y-108927107I-999990J14D01*
G01*
%TO.N,Net-(U1-Pad24)*%
X156210000Y-89314214D02*
X156210000Y-93472000D01*
X156209961Y-89314214D02*
G75*
G03*
X155917107Y-88607107I-1000061J14D01*
G01*
X154940000Y-87630000D02*
X155917107Y-88607107D01*
X156210000Y-93726000D02*
X157226000Y-94742000D01*
X156210000Y-93472000D02*
X156210000Y-93726000D01*
X172720000Y-93980000D02*
X172720000Y-94488000D01*
X171516000Y-92776000D02*
X172720000Y-93980000D01*
X171516000Y-92323500D02*
X171516000Y-92776000D01*
%TO.N,GND*%
X171516000Y-88860977D02*
X171516000Y-90048500D01*
X171323000Y-88667977D02*
X171516000Y-88860977D01*
X177546000Y-94234000D02*
X178203107Y-93576893D01*
D18*
X149860000Y-82550000D02*
X148336000Y-82550000D01*
D17*
X178496000Y-92869786D02*
X178496000Y-92323500D01*
X178203114Y-93576900D02*
G75*
G03*
X178496000Y-92869786I-707114J707100D01*
G01*
D19*
%TO.N,+5V*%
X174713107Y-87559357D02*
X173315893Y-86162143D01*
X175006000Y-96105786D02*
X175006000Y-88266464D01*
D20*
X176596000Y-90048500D02*
X175006000Y-90048500D01*
D19*
X176530000Y-106680000D02*
X173012893Y-103162893D01*
X173023000Y-85090000D02*
X165100000Y-85090000D01*
X173012893Y-98513107D02*
X174713107Y-96812893D01*
X176530000Y-114300000D02*
X176530000Y-106680000D01*
X176530000Y-106680000D02*
X178777107Y-108927107D01*
X179070000Y-109634214D02*
X179070000Y-114300000D01*
D20*
X173416000Y-92323500D02*
X175006000Y-92323500D01*
D19*
X173023000Y-85455036D02*
X173023000Y-85090000D01*
X172720000Y-102455786D02*
X172720000Y-99220214D01*
X173012886Y-98513100D02*
G75*
G03*
X172720000Y-99220214I707114J-707100D01*
G01*
X173022975Y-85455036D02*
G75*
G03*
X173315894Y-86162142I1000025J36D01*
G01*
X179069990Y-109634214D02*
G75*
G03*
X178777107Y-108927107I-999990J14D01*
G01*
X174713114Y-96812900D02*
G75*
G03*
X175006000Y-96105786I-707114J707100D01*
G01*
X175006025Y-88266464D02*
G75*
G03*
X174713106Y-87559358I-1000025J-36D01*
G01*
X172720010Y-102455786D02*
G75*
G03*
X173012893Y-103162893I999990J-14D01*
G01*
D17*
%TO.N,/V-A8*%
X173697107Y-106387107D02*
X160312893Y-93002893D01*
X160020000Y-92295786D02*
X160020000Y-90170000D01*
X173990000Y-114300000D02*
X173990000Y-107094214D01*
X160020010Y-92295786D02*
G75*
G03*
X160312893Y-93002893I999990J-14D01*
G01*
X173989990Y-107094214D02*
G75*
G03*
X173697107Y-106387107I-999990J14D01*
G01*
%TO.N,/V-A5*%
X164685786Y-76200000D02*
X161704214Y-76200000D01*
X167093107Y-78193107D02*
X165392893Y-76492893D01*
X160997107Y-76492893D02*
X160020000Y-77470000D01*
X167386000Y-81280000D02*
X167386000Y-78900214D01*
X167385990Y-78900214D02*
G75*
G03*
X167093107Y-78193107I-999990J14D01*
G01*
X165392900Y-76492886D02*
G75*
G03*
X164685786Y-76200000I-707100J-707114D01*
G01*
X161704214Y-76200010D02*
G75*
G03*
X160997107Y-76492893I-14J-999990D01*
G01*
%TO.N,/V-A9*%
X158457107Y-88607107D02*
X157480000Y-87630000D01*
X171157107Y-105117107D02*
X159042893Y-93002893D01*
X158750000Y-92295786D02*
X158750000Y-89314214D01*
X171450000Y-114300000D02*
X171450000Y-105824214D01*
X158750010Y-92295786D02*
G75*
G03*
X159042893Y-93002893I999990J-14D01*
G01*
X158749990Y-89314214D02*
G75*
G03*
X158457107Y-88607107I-999990J14D01*
G01*
X171449990Y-105824214D02*
G75*
G03*
X171157107Y-105117107I-999990J14D01*
G01*
%TO.N,/V-A11*%
X168910000Y-114300000D02*
X168910000Y-104554214D01*
X168617107Y-103847107D02*
X157772893Y-93002893D01*
X157480000Y-92295786D02*
X157480000Y-90170000D01*
X157480010Y-92295786D02*
G75*
G03*
X157772893Y-93002893I999990J-14D01*
G01*
X168909990Y-104554214D02*
G75*
G03*
X168617107Y-103847107I-999990J14D01*
G01*
%TO.N,/V-A10*%
X154940000Y-94835786D02*
X154940000Y-90170000D01*
X163830000Y-114300000D02*
X163830000Y-100744214D01*
X163537107Y-100037107D02*
X159804893Y-96304893D01*
X155409107Y-95719107D02*
X155232893Y-95542893D01*
X159097786Y-96012000D02*
X156116214Y-96012000D01*
X163829990Y-100744214D02*
G75*
G03*
X163537107Y-100037107I-999990J14D01*
G01*
X154940010Y-94835786D02*
G75*
G03*
X155232893Y-95542893I999990J-14D01*
G01*
X159804900Y-96304886D02*
G75*
G03*
X159097786Y-96012000I-707100J-707114D01*
G01*
X155409100Y-95719114D02*
G75*
G03*
X156116214Y-96012000I707100J707114D01*
G01*
%TO.N,/V-CE*%
X172466000Y-90048500D02*
X172466000Y-88646000D01*
X161290000Y-86360000D02*
X161290000Y-84234214D01*
X153670000Y-87536214D02*
X153670000Y-96359786D01*
X172466000Y-88296750D02*
X172092143Y-87922893D01*
X157894214Y-107950000D02*
X159605786Y-107950000D01*
X152946893Y-103416893D02*
X157187107Y-107657107D01*
X161582893Y-83527107D02*
X162560000Y-82550000D01*
X154139107Y-86652893D02*
X153962893Y-86829107D01*
X171385036Y-87630000D02*
X167546214Y-87630000D01*
X153377107Y-97066893D02*
X152946893Y-97497107D01*
X160312893Y-108242893D02*
X160997107Y-108927107D01*
X172466000Y-88646000D02*
X172466000Y-88296750D01*
X165447786Y-88900000D02*
X162339214Y-88900000D01*
X161290000Y-109634214D02*
X161290000Y-114300000D01*
X152654000Y-98204214D02*
X152654000Y-102709786D01*
X166839107Y-87922893D02*
X166154893Y-88607107D01*
X161290000Y-86360000D02*
X154846214Y-86360000D01*
X161632107Y-88607107D02*
X161582893Y-88557893D01*
X161290000Y-87850786D02*
X161290000Y-86360000D01*
X165447786Y-88899990D02*
G75*
G03*
X166154893Y-88607107I14J999990D01*
G01*
X161632100Y-88607114D02*
G75*
G03*
X162339214Y-88900000I707100J707114D01*
G01*
X152946886Y-97497100D02*
G75*
G03*
X152654000Y-98204214I707114J-707100D01*
G01*
X161582886Y-83527100D02*
G75*
G03*
X161290000Y-84234214I707114J-707100D01*
G01*
X172092125Y-87922911D02*
G75*
G03*
X171385036Y-87630000I-707125J-707089D01*
G01*
X154846214Y-86360010D02*
G75*
G03*
X154139107Y-86652893I-14J-999990D01*
G01*
X160312900Y-108242886D02*
G75*
G03*
X159605786Y-107950000I-707100J-707114D01*
G01*
X161289990Y-109634214D02*
G75*
G03*
X160997107Y-108927107I-999990J14D01*
G01*
X152654010Y-102709786D02*
G75*
G03*
X152946893Y-103416893I999990J-14D01*
G01*
X167546214Y-87630010D02*
G75*
G03*
X166839107Y-87922893I-14J-999990D01*
G01*
X153962886Y-86829100D02*
G75*
G03*
X153670000Y-87536214I707114J-707100D01*
G01*
X161290010Y-87850786D02*
G75*
G03*
X161582893Y-88557893I999990J-14D01*
G01*
X157187100Y-107657114D02*
G75*
G03*
X157894214Y-107950000I707100J707114D01*
G01*
X153377114Y-97066900D02*
G75*
G03*
X153670000Y-96359786I-707114J707100D01*
G01*
%TO.N,/V-D7*%
X157819306Y-108712000D02*
X157386214Y-108712000D01*
X158540506Y-109018986D02*
X158526413Y-109004893D01*
X152068552Y-97105448D02*
X152107107Y-97066893D01*
X151892000Y-103217786D02*
X151892000Y-97531672D01*
X158750000Y-114300000D02*
X158750000Y-109524751D01*
X152107107Y-97066893D02*
X152187740Y-96986258D01*
X152400000Y-96473811D02*
X152400000Y-90170000D01*
X156679107Y-108419107D02*
X152184893Y-103924893D01*
X156679100Y-108419114D02*
G75*
G03*
X157386214Y-108712000I707100J707114D01*
G01*
X152068558Y-97105454D02*
G75*
G03*
X151892000Y-97531672I426242J-426246D01*
G01*
X158749952Y-109524751D02*
G75*
G03*
X158540506Y-109018986I-715252J51D01*
G01*
X151892010Y-103217786D02*
G75*
G03*
X152184893Y-103924893I999990J-14D01*
G01*
X158526410Y-109004896D02*
G75*
G03*
X157819306Y-108712000I-707110J-707104D01*
G01*
X152187731Y-96986249D02*
G75*
G03*
X152400000Y-96473811I-512431J512449D01*
G01*
%TO.N,/V-D5*%
X149512214Y-86360000D02*
X150715786Y-86360000D01*
X151422893Y-86067107D02*
X152400000Y-85090000D01*
X153377107Y-107657107D02*
X148882893Y-103162893D01*
X153670000Y-114300000D02*
X153670000Y-108364214D01*
X148590000Y-102455786D02*
X148590000Y-87161349D01*
X148797405Y-86660595D02*
X148805107Y-86652893D01*
X153669990Y-108364214D02*
G75*
G03*
X153377107Y-107657107I-999990J14D01*
G01*
X149512214Y-86360010D02*
G75*
G03*
X148805107Y-86652893I-14J-999990D01*
G01*
X148590010Y-102455786D02*
G75*
G03*
X148882893Y-103162893I999990J-14D01*
G01*
X150715786Y-86359990D02*
G75*
G03*
X151422893Y-86067107I14J999990D01*
G01*
X148797382Y-86660572D02*
G75*
G03*
X148590000Y-87161349I500818J-500728D01*
G01*
%TO.N,/V-D4*%
X147828000Y-102963786D02*
X147828000Y-86901214D01*
X148120893Y-86194107D02*
X148932107Y-85382893D01*
X151130000Y-114300000D02*
X151130000Y-107094214D01*
X150837107Y-106387107D02*
X148120893Y-103670893D01*
X151129990Y-107094214D02*
G75*
G03*
X150837107Y-106387107I-999990J14D01*
G01*
X148120886Y-86194100D02*
G75*
G03*
X147828000Y-86901214I707114J-707100D01*
G01*
X147828010Y-102963786D02*
G75*
G03*
X148120893Y-103670893I999990J-14D01*
G01*
%TO.N,/V-D3*%
X147358893Y-85559107D02*
X148805107Y-84112893D01*
X149512214Y-83820000D02*
X150715786Y-83820000D01*
X148590000Y-114300000D02*
X148590000Y-105824214D01*
X151422893Y-83527107D02*
X152400000Y-82550000D01*
X147066000Y-103471786D02*
X147066000Y-86266214D01*
X148297107Y-105117107D02*
X147358893Y-104178893D01*
X147066010Y-103471786D02*
G75*
G03*
X147358893Y-104178893I999990J-14D01*
G01*
X150715786Y-83819990D02*
G75*
G03*
X151422893Y-83527107I14J999990D01*
G01*
X149512214Y-83820010D02*
G75*
G03*
X148805107Y-84112893I-14J-999990D01*
G01*
X147358886Y-85559100D02*
G75*
G03*
X147066000Y-86266214I707114J-707100D01*
G01*
X148589990Y-105824214D02*
G75*
G03*
X148297107Y-105117107I-999990J14D01*
G01*
%TO.N,/V-A12*%
X143256000Y-107027786D02*
X143256000Y-85758214D01*
X164122893Y-80987107D02*
X165100000Y-80010000D01*
X144272000Y-108458000D02*
X143548893Y-107734893D01*
X143548893Y-85051107D02*
X147027107Y-81572893D01*
X147734214Y-81280000D02*
X163415786Y-81280000D01*
X147734214Y-81280010D02*
G75*
G03*
X147027107Y-81572893I-14J-999990D01*
G01*
X163415786Y-81279990D02*
G75*
G03*
X164122893Y-80987107I14J999990D01*
G01*
X143548886Y-85051100D02*
G75*
G03*
X143256000Y-85758214I707114J-707100D01*
G01*
X143256010Y-107027786D02*
G75*
G03*
X143548893Y-107734893I999990J-14D01*
G01*
%TO.N,/V-A13*%
X160997107Y-89242107D02*
X160312893Y-88557893D01*
X170434000Y-94996000D02*
X165768214Y-94996000D01*
X165061107Y-94703107D02*
X161582893Y-91224893D01*
X161290000Y-90517786D02*
X161290000Y-89949214D01*
X161289990Y-89949214D02*
G75*
G03*
X160997107Y-89242107I-999990J14D01*
G01*
X161290010Y-90517786D02*
G75*
G03*
X161582893Y-91224893I999990J-14D01*
G01*
X165061100Y-94703114D02*
G75*
G03*
X165768214Y-94996000I707100J707114D01*
G01*
%TO.N,/V-A14*%
X163283107Y-90893107D02*
X162560000Y-90170000D01*
X173123107Y-91036893D02*
X172974000Y-91186000D01*
X173416000Y-90048500D02*
X173416000Y-90329786D01*
X173609000Y-88630536D02*
X173416000Y-88823536D01*
X173416000Y-88823536D02*
X173416000Y-90048500D01*
X172974000Y-91186000D02*
X163990214Y-91186000D01*
X173123114Y-91036900D02*
G75*
G03*
X173416000Y-90329786I-707114J707100D01*
G01*
X163283100Y-90893114D02*
G75*
G03*
X163990214Y-91186000I707100J707114D01*
G01*
%TO.N,/V-RW*%
X164592000Y-92710000D02*
X165569107Y-93687107D01*
X143510000Y-109634214D02*
X143510000Y-114300000D01*
X177546000Y-91186000D02*
X177546000Y-92323500D01*
X166276214Y-93980000D02*
X171196000Y-93980000D01*
X142240000Y-104394000D02*
X142240000Y-107535786D01*
X142532893Y-108242893D02*
X143217107Y-108927107D01*
X165569100Y-93687114D02*
G75*
G03*
X166276214Y-93980000I707100J707114D01*
G01*
X142240010Y-107535786D02*
G75*
G03*
X142532893Y-108242893I999990J-14D01*
G01*
X143509990Y-109634214D02*
G75*
G03*
X143217107Y-108927107I-999990J14D01*
G01*
%TO.N,/PB6*%
X142786893Y-84543107D02*
X148297107Y-79032893D01*
X142494000Y-102616000D02*
X142494000Y-85250214D01*
X149004214Y-78740000D02*
X165521092Y-78740000D01*
X166370000Y-79625509D02*
X166370000Y-80865786D01*
X166077107Y-81572893D02*
X165100000Y-82550000D01*
X142240000Y-102870000D02*
X142494000Y-102616000D01*
X166077114Y-81572900D02*
G75*
G03*
X166370000Y-80865786I-707114J707100D01*
G01*
X142786886Y-84543100D02*
G75*
G03*
X142494000Y-85250214I707114J-707100D01*
G01*
X149004214Y-78740010D02*
G75*
G03*
X148297107Y-79032893I-14J-999990D01*
G01*
X166369989Y-79625509D02*
G75*
G03*
X166103058Y-78981060I-911389J9D01*
G01*
X166103058Y-78981060D02*
G75*
G03*
X165521092Y-78740000I-581958J-581940D01*
G01*
%TO.N,/IRQ*%
X141732000Y-84742214D02*
X141732000Y-101312761D01*
X163830000Y-85945786D02*
X163830000Y-84996214D01*
X140931107Y-107226893D02*
X139992893Y-108165107D01*
X165193786Y-75438000D02*
X151036214Y-75438000D01*
X165100000Y-87630000D02*
X164122893Y-86652893D01*
X139285786Y-108458000D02*
X137066214Y-108458000D01*
X141516893Y-101793122D02*
X141404304Y-101905716D01*
X150329107Y-75730893D02*
X142024893Y-84035107D01*
X166662893Y-83527107D02*
X168109107Y-82080893D01*
X136359107Y-108750893D02*
X136182893Y-108927107D01*
X141224000Y-102341021D02*
X141224000Y-106519786D01*
X168402000Y-81373786D02*
X168402000Y-78646214D01*
X165006214Y-83820000D02*
X165955786Y-83820000D01*
X135890000Y-109634214D02*
X135890000Y-114300000D01*
X141544418Y-101765597D02*
X141516893Y-101793122D01*
X164122893Y-84289107D02*
X164299107Y-84112893D01*
X168109107Y-77939107D02*
X165900893Y-75730893D01*
X142024886Y-84035100D02*
G75*
G03*
X141732000Y-84742214I707114J-707100D01*
G01*
X165955786Y-83819990D02*
G75*
G03*
X166662893Y-83527107I14J999990D01*
G01*
X137066214Y-108458010D02*
G75*
G03*
X136359107Y-108750893I-14J-999990D01*
G01*
X141404299Y-101905711D02*
G75*
G03*
X141224000Y-102341021I435301J-435289D01*
G01*
X139285786Y-108457990D02*
G75*
G03*
X139992893Y-108165107I14J999990D01*
G01*
X168401990Y-78646214D02*
G75*
G03*
X168109107Y-77939107I-999990J14D01*
G01*
X164122886Y-84289100D02*
G75*
G03*
X163830000Y-84996214I707114J-707100D01*
G01*
X136182886Y-108927100D02*
G75*
G03*
X135890000Y-109634214I707114J-707100D01*
G01*
X163830010Y-85945786D02*
G75*
G03*
X164122893Y-86652893I999990J-14D01*
G01*
X151036214Y-75438010D02*
G75*
G03*
X150329107Y-75730893I-14J-999990D01*
G01*
X165900920Y-75730866D02*
G75*
G03*
X165193786Y-75438000I-707120J-707234D01*
G01*
X168109114Y-82080900D02*
G75*
G03*
X168402000Y-81373786I-707114J707100D01*
G01*
X140931114Y-107226900D02*
G75*
G03*
X141224000Y-106519786I-707114J707100D01*
G01*
X165006214Y-83820010D02*
G75*
G03*
X164299107Y-84112893I-14J-999990D01*
G01*
X141544433Y-101765612D02*
G75*
G03*
X141732000Y-101312761I-453033J452912D01*
G01*
%TO.N,Net-(U1-Pad22)*%
X179324000Y-93565786D02*
X179324000Y-91290714D01*
X150876000Y-89568214D02*
X150876000Y-96012000D01*
X177292000Y-96012000D02*
X179031107Y-94272893D01*
X152400000Y-87630000D02*
X151168893Y-88861107D01*
X179031107Y-90583607D02*
X178496000Y-90048500D01*
X151168886Y-88861100D02*
G75*
G03*
X150876000Y-89568214I707114J-707100D01*
G01*
X179031114Y-94272900D02*
G75*
G03*
X179324000Y-93565786I-707114J707100D01*
G01*
X179323990Y-91290714D02*
G75*
G03*
X179031107Y-90583607I-999990J14D01*
G01*
%TD*%
%TA.AperFunction,Conductor*%
%TO.N,GND*%
G36*
X148645388Y-81950462D02*
G01*
X148699926Y-82005000D01*
X148719888Y-82079500D01*
X148710901Y-82130463D01*
X148708268Y-82137696D01*
X148656418Y-82331201D01*
X148654169Y-82343955D01*
X148636710Y-82543519D01*
X148636710Y-82556481D01*
X148654169Y-82756045D01*
X148656418Y-82768799D01*
X148708268Y-82962303D01*
X148712699Y-82974477D01*
X148800109Y-83161929D01*
X148798824Y-83162528D01*
X148816806Y-83229645D01*
X148796841Y-83304144D01*
X148742304Y-83358679D01*
X148597506Y-83442275D01*
X148597494Y-83442283D01*
X148593285Y-83444713D01*
X148421634Y-83576422D01*
X148403246Y-83594809D01*
X148403242Y-83594812D01*
X146899084Y-85098970D01*
X146898912Y-85099136D01*
X146898909Y-85099132D01*
X146822415Y-85175628D01*
X146690705Y-85347279D01*
X146582527Y-85534654D01*
X146580659Y-85539164D01*
X146510102Y-85709510D01*
X146499732Y-85734545D01*
X146498469Y-85739259D01*
X146461036Y-85878971D01*
X146443737Y-85943534D01*
X146443102Y-85948356D01*
X146443102Y-85948357D01*
X146418558Y-86134809D01*
X146415499Y-86158043D01*
X146415500Y-86212779D01*
X146415500Y-103512711D01*
X146415507Y-103512761D01*
X146415510Y-103512866D01*
X146415509Y-103579956D01*
X146443747Y-103794464D01*
X146499742Y-104003452D01*
X146582536Y-104203342D01*
X146690713Y-104390715D01*
X146822422Y-104562366D01*
X146840809Y-104580754D01*
X146840812Y-104580758D01*
X147830220Y-105570166D01*
X147843071Y-105584820D01*
X147880727Y-105633895D01*
X147900175Y-105667581D01*
X147920076Y-105715629D01*
X147930143Y-105753199D01*
X147938226Y-105814601D01*
X147939500Y-105834048D01*
X147939499Y-105897499D01*
X147939500Y-105897503D01*
X147939500Y-109320796D01*
X147919538Y-109395296D01*
X147901373Y-109420336D01*
X147887352Y-109435953D01*
X147876108Y-109448477D01*
X147825421Y-109485240D01*
X147822851Y-109486375D01*
X147797327Y-109497645D01*
X147791648Y-109501535D01*
X147791643Y-109501538D01*
X147640849Y-109604835D01*
X147618861Y-109619897D01*
X147585906Y-109652852D01*
X147575354Y-109662039D01*
X147575475Y-109662180D01*
X147572104Y-109665061D01*
X147572079Y-109665083D01*
X147571252Y-109665790D01*
X147548282Y-109686681D01*
X147544320Y-109691794D01*
X147544318Y-109691796D01*
X147540983Y-109696100D01*
X147528564Y-109710194D01*
X147465897Y-109772861D01*
X147462006Y-109778541D01*
X147462002Y-109778546D01*
X147447469Y-109799762D01*
X147388898Y-109849942D01*
X147313083Y-109864114D01*
X147240339Y-109838480D01*
X147201620Y-109799761D01*
X147183790Y-109773732D01*
X147175026Y-109763178D01*
X147030822Y-109618974D01*
X147020268Y-109610210D01*
X146852022Y-109494958D01*
X146840033Y-109488281D01*
X146653478Y-109405909D01*
X146640467Y-109401548D01*
X146441110Y-109354660D01*
X146429235Y-109352864D01*
X146369570Y-109348722D01*
X146353849Y-109351786D01*
X146350000Y-109362983D01*
X146350000Y-110744000D01*
X145750000Y-110744000D01*
X145750000Y-109366980D01*
X145745855Y-109351509D01*
X145734420Y-109348445D01*
X145670765Y-109352864D01*
X145658890Y-109354660D01*
X145459533Y-109401548D01*
X145446522Y-109405909D01*
X145259967Y-109488281D01*
X145247978Y-109494958D01*
X145079732Y-109610210D01*
X145069178Y-109618974D01*
X144924974Y-109763178D01*
X144916210Y-109773732D01*
X144898380Y-109799761D01*
X144839809Y-109849942D01*
X144763994Y-109864115D01*
X144691250Y-109838481D01*
X144652531Y-109799762D01*
X144637998Y-109778546D01*
X144637994Y-109778541D01*
X144634103Y-109772861D01*
X144563192Y-109701950D01*
X144557464Y-109695491D01*
X144557337Y-109695606D01*
X144553756Y-109691660D01*
X144550474Y-109687480D01*
X144545777Y-109682994D01*
X144545460Y-109682691D01*
X144545453Y-109682685D01*
X144543999Y-109681296D01*
X144538067Y-109676209D01*
X144529716Y-109668474D01*
X144481139Y-109619897D01*
X144464000Y-109608156D01*
X144449524Y-109598240D01*
X144399342Y-109539670D01*
X144385169Y-109463855D01*
X144410803Y-109391111D01*
X144469373Y-109340929D01*
X144502748Y-109329571D01*
X144515631Y-109326833D01*
X144551803Y-109319144D01*
X144724730Y-109242151D01*
X144877871Y-109130888D01*
X144933597Y-109068998D01*
X144999307Y-108996021D01*
X144999311Y-108996016D01*
X145004533Y-108990216D01*
X145099179Y-108826284D01*
X145151577Y-108665020D01*
X145155259Y-108653689D01*
X145155259Y-108653688D01*
X145157674Y-108646256D01*
X145159765Y-108626366D01*
X145176644Y-108465764D01*
X145177460Y-108458000D01*
X145175305Y-108437499D01*
X145158491Y-108277514D01*
X145158490Y-108277511D01*
X145157674Y-108269744D01*
X145099179Y-108089716D01*
X145004533Y-107925784D01*
X144999311Y-107919984D01*
X144999307Y-107919979D01*
X144896882Y-107806226D01*
X144877871Y-107785112D01*
X144724730Y-107673849D01*
X144717597Y-107670673D01*
X144717595Y-107670672D01*
X144623534Y-107628793D01*
X144614085Y-107624180D01*
X144599430Y-107616371D01*
X144590061Y-107611379D01*
X144590057Y-107611377D01*
X144585372Y-107608881D01*
X144435498Y-107554723D01*
X144419703Y-107549309D01*
X144418991Y-107549078D01*
X144403177Y-107544232D01*
X144402627Y-107544073D01*
X144402606Y-107544067D01*
X144301584Y-107514908D01*
X144293137Y-107512195D01*
X144282404Y-107508391D01*
X144274300Y-107505518D01*
X144225352Y-107476674D01*
X144156680Y-107415919D01*
X144156677Y-107415917D01*
X144155579Y-107414945D01*
X144125626Y-107390424D01*
X144126001Y-107389966D01*
X144113982Y-107380036D01*
X144015780Y-107281834D01*
X144002929Y-107267180D01*
X143965274Y-107218107D01*
X143945825Y-107184419D01*
X143925924Y-107136371D01*
X143915857Y-107098800D01*
X143907774Y-107037397D01*
X143906500Y-107017951D01*
X143906500Y-107002491D01*
X143906501Y-106954511D01*
X143906501Y-106954501D01*
X143906500Y-106954497D01*
X143906500Y-85831503D01*
X143906501Y-85831499D01*
X143906500Y-85767973D01*
X143907774Y-85748526D01*
X143909277Y-85737111D01*
X143915848Y-85687190D01*
X143925913Y-85649627D01*
X143945817Y-85601572D01*
X143965264Y-85567890D01*
X144002875Y-85518874D01*
X144015726Y-85504220D01*
X147480166Y-82039780D01*
X147494820Y-82026929D01*
X147507860Y-82016923D01*
X147543895Y-81989273D01*
X147577581Y-81969825D01*
X147625629Y-81949924D01*
X147663199Y-81939857D01*
X147694831Y-81935693D01*
X147724604Y-81931774D01*
X147744048Y-81930500D01*
X147807425Y-81930501D01*
X147807499Y-81930501D01*
X147807502Y-81930500D01*
X148570888Y-81930500D01*
X148645388Y-81950462D01*
G37*
%TD.AperFunction*%
%TA.AperFunction,Conductor*%
G36*
X181013000Y-72756062D02*
G01*
X181067538Y-72810600D01*
X181087500Y-72885100D01*
X181087500Y-110595000D01*
X181067538Y-110669500D01*
X181013000Y-110724038D01*
X180938500Y-110744000D01*
X180608500Y-110744000D01*
X180534000Y-110724038D01*
X180479462Y-110669500D01*
X180459500Y-110595000D01*
X180459500Y-110449698D01*
X180453260Y-110359796D01*
X180403732Y-110149219D01*
X180388278Y-110114217D01*
X180384218Y-110104021D01*
X180371204Y-110067472D01*
X180362214Y-110052421D01*
X180353832Y-110036205D01*
X180319139Y-109957632D01*
X180319139Y-109957631D01*
X180316355Y-109951327D01*
X180312465Y-109945648D01*
X180312462Y-109945643D01*
X180197996Y-109778544D01*
X180194103Y-109772861D01*
X180185922Y-109764680D01*
X180155768Y-109721266D01*
X180144050Y-109695632D01*
X180104063Y-109608154D01*
X180101200Y-109601462D01*
X180078336Y-109544173D01*
X180068660Y-109505626D01*
X180057019Y-109402299D01*
X180045337Y-109298603D01*
X179995341Y-109079545D01*
X179975996Y-109024258D01*
X179922516Y-108871413D01*
X179922513Y-108871405D01*
X179921133Y-108867462D01*
X179919317Y-108863690D01*
X179825460Y-108668788D01*
X179825456Y-108668781D01*
X179823645Y-108665020D01*
X179704105Y-108474767D01*
X179564014Y-108299095D01*
X179556513Y-108291594D01*
X179556509Y-108291588D01*
X179436098Y-108171177D01*
X179419019Y-108154097D01*
X179419016Y-108154095D01*
X177309404Y-106044484D01*
X177309402Y-106044481D01*
X177268366Y-106003445D01*
X177260670Y-105995141D01*
X177234627Y-105964805D01*
X177222866Y-105951105D01*
X177200067Y-105933457D01*
X177185913Y-105920992D01*
X175565087Y-104300166D01*
X173764142Y-102499222D01*
X173725578Y-102432427D01*
X173720501Y-102393863D01*
X173720501Y-102363090D01*
X173720500Y-102363085D01*
X173720500Y-100900969D01*
X175143723Y-100900969D01*
X175173882Y-101200762D01*
X175243731Y-101493861D01*
X175245519Y-101498503D01*
X175245521Y-101498510D01*
X175325753Y-101706826D01*
X175352023Y-101775034D01*
X175496825Y-102039265D01*
X175499783Y-102043279D01*
X175647144Y-102243279D01*
X175675554Y-102281838D01*
X175679010Y-102285412D01*
X175679013Y-102285415D01*
X175687760Y-102294459D01*
X175885020Y-102498424D01*
X175888928Y-102501510D01*
X176059870Y-102636501D01*
X176121485Y-102685158D01*
X176179292Y-102719397D01*
X176346393Y-102818371D01*
X176380730Y-102838709D01*
X176385305Y-102840649D01*
X176385307Y-102840650D01*
X176530366Y-102902160D01*
X176658128Y-102956336D01*
X176948729Y-103035940D01*
X176953665Y-103036604D01*
X176953666Y-103036604D01*
X177242422Y-103075438D01*
X177242427Y-103075438D01*
X177247347Y-103076100D01*
X177473244Y-103076100D01*
X177475732Y-103075933D01*
X177475745Y-103075933D01*
X177574985Y-103069289D01*
X177698634Y-103061012D01*
X177703519Y-103060019D01*
X177703527Y-103060018D01*
X177885695Y-103022990D01*
X177993903Y-103000996D01*
X178278537Y-102902160D01*
X178547459Y-102766268D01*
X178795869Y-102595744D01*
X178802405Y-102589833D01*
X178907426Y-102494846D01*
X179019333Y-102393632D01*
X179213865Y-102163539D01*
X179216544Y-102159342D01*
X179216548Y-102159337D01*
X179373314Y-101913766D01*
X179375993Y-101909570D01*
X179502823Y-101636258D01*
X179592093Y-101348479D01*
X179642209Y-101051370D01*
X179647778Y-100884805D01*
X179652111Y-100755209D01*
X179652111Y-100755203D01*
X179652277Y-100750231D01*
X179622118Y-100450438D01*
X179552269Y-100157339D01*
X179550481Y-100152697D01*
X179550479Y-100152690D01*
X179445766Y-99880810D01*
X179445764Y-99880805D01*
X179443977Y-99876166D01*
X179299175Y-99611935D01*
X179120446Y-99369362D01*
X179104406Y-99352776D01*
X178923807Y-99166039D01*
X178910980Y-99152776D01*
X178736542Y-99015024D01*
X178678422Y-98969127D01*
X178678419Y-98969125D01*
X178674515Y-98966042D01*
X178415270Y-98812491D01*
X178410693Y-98810550D01*
X178142457Y-98696808D01*
X178142454Y-98696807D01*
X178137872Y-98694864D01*
X177847271Y-98615260D01*
X177842334Y-98614596D01*
X177553578Y-98575762D01*
X177553573Y-98575762D01*
X177548653Y-98575100D01*
X177322756Y-98575100D01*
X177320268Y-98575267D01*
X177320255Y-98575267D01*
X177221015Y-98581911D01*
X177097366Y-98590188D01*
X177092481Y-98591181D01*
X177092473Y-98591182D01*
X176967536Y-98616577D01*
X176802097Y-98650204D01*
X176517463Y-98749040D01*
X176248541Y-98884932D01*
X176000131Y-99055456D01*
X175776667Y-99257568D01*
X175582135Y-99487661D01*
X175579456Y-99491858D01*
X175579452Y-99491863D01*
X175505364Y-99607921D01*
X175420007Y-99741630D01*
X175293177Y-100014942D01*
X175203907Y-100302721D01*
X175153791Y-100599830D01*
X175151338Y-100673199D01*
X175146514Y-100817503D01*
X175143723Y-100900969D01*
X173720500Y-100900969D01*
X173720500Y-99312915D01*
X173720501Y-99312910D01*
X173720501Y-99282138D01*
X173740463Y-99207638D01*
X173764142Y-99176779D01*
X175355016Y-97585905D01*
X175355019Y-97585903D01*
X175401871Y-97539050D01*
X175420557Y-97520365D01*
X175420577Y-97520349D01*
X175420581Y-97520353D01*
X175500021Y-97440911D01*
X175640113Y-97265238D01*
X175708337Y-97156657D01*
X175757430Y-97078524D01*
X175757432Y-97078521D01*
X175759654Y-97074984D01*
X175762959Y-97068122D01*
X175855326Y-96876314D01*
X175855329Y-96876307D01*
X175857142Y-96872542D01*
X175886544Y-96788515D01*
X175929970Y-96664405D01*
X175929970Y-96664404D01*
X175931351Y-96660458D01*
X175941820Y-96614588D01*
X175977859Y-96546397D01*
X176043164Y-96505361D01*
X176120238Y-96502476D01*
X176188429Y-96538515D01*
X176222125Y-96584771D01*
X176238629Y-96620164D01*
X176242360Y-96625492D01*
X176242362Y-96625496D01*
X176282253Y-96682466D01*
X176360239Y-96793841D01*
X176510159Y-96943761D01*
X176515485Y-96947490D01*
X176678504Y-97061638D01*
X176678508Y-97061640D01*
X176683836Y-97065371D01*
X176875991Y-97154974D01*
X176882272Y-97156657D01*
X177074508Y-97208167D01*
X177074513Y-97208168D01*
X177080787Y-97209849D01*
X177087258Y-97210415D01*
X177087263Y-97210416D01*
X177285519Y-97227761D01*
X177292000Y-97228328D01*
X177298481Y-97227761D01*
X177496737Y-97210416D01*
X177496742Y-97210415D01*
X177503213Y-97209849D01*
X177509487Y-97208168D01*
X177509492Y-97208167D01*
X177701728Y-97156657D01*
X177708009Y-97154974D01*
X177900164Y-97065371D01*
X177905492Y-97061640D01*
X177905496Y-97061638D01*
X178068515Y-96947490D01*
X178073841Y-96943761D01*
X178223761Y-96793841D01*
X178301747Y-96682466D01*
X178341638Y-96625496D01*
X178341640Y-96625492D01*
X178345371Y-96620164D01*
X178434974Y-96428009D01*
X178454673Y-96354492D01*
X178455305Y-96352208D01*
X178508260Y-96166448D01*
X178508264Y-96166431D01*
X178508808Y-96164524D01*
X178520836Y-96111769D01*
X178521260Y-96109308D01*
X178527567Y-96055773D01*
X178540586Y-95852387D01*
X178540933Y-95846405D01*
X178540949Y-95846098D01*
X178541276Y-95838803D01*
X178544276Y-95759086D01*
X178567026Y-95685391D01*
X178575122Y-95673777D01*
X178648722Y-95578220D01*
X178649178Y-95577601D01*
X178649206Y-95577564D01*
X178650449Y-95575876D01*
X178665046Y-95558900D01*
X179490916Y-94733030D01*
X179491088Y-94732864D01*
X179491091Y-94732868D01*
X179567585Y-94656372D01*
X179699295Y-94484721D01*
X179807473Y-94297346D01*
X179890268Y-94097455D01*
X179946263Y-93888466D01*
X179957234Y-93805126D01*
X179973866Y-93678782D01*
X179973866Y-93678780D01*
X179974501Y-93673957D01*
X179974500Y-93565777D01*
X179974500Y-91249789D01*
X179974493Y-91249739D01*
X179974490Y-91249634D01*
X179974491Y-91187414D01*
X179974491Y-91182544D01*
X179946253Y-90968036D01*
X179890258Y-90759048D01*
X179807464Y-90559158D01*
X179793806Y-90535500D01*
X179701720Y-90376000D01*
X179699287Y-90371785D01*
X179567578Y-90200134D01*
X179549191Y-90181746D01*
X179549188Y-90181742D01*
X179527081Y-90159635D01*
X179511671Y-90141545D01*
X179468992Y-90082483D01*
X179465155Y-90076911D01*
X179416812Y-90003177D01*
X179413674Y-89998176D01*
X179362658Y-89913150D01*
X179360058Y-89908637D01*
X179315114Y-89827375D01*
X179296500Y-89755261D01*
X179296500Y-89470306D01*
X179293598Y-89433431D01*
X179272608Y-89361182D01*
X179250358Y-89284598D01*
X179250357Y-89284595D01*
X179247744Y-89275602D01*
X179202656Y-89199362D01*
X179168854Y-89142205D01*
X179168852Y-89142203D01*
X179164081Y-89134135D01*
X179047865Y-89017919D01*
X179039797Y-89013148D01*
X179039795Y-89013146D01*
X178914462Y-88939025D01*
X178906398Y-88934256D01*
X178897405Y-88931643D01*
X178897402Y-88931642D01*
X178755880Y-88890526D01*
X178755879Y-88890526D01*
X178748569Y-88888402D01*
X178711694Y-88885500D01*
X178280306Y-88885500D01*
X178243431Y-88888402D01*
X178236121Y-88890526D01*
X178236120Y-88890526D01*
X178094598Y-88931642D01*
X178094595Y-88931643D01*
X178085602Y-88934256D01*
X178077538Y-88939025D01*
X177952205Y-89013146D01*
X177952203Y-89013148D01*
X177944135Y-89017919D01*
X177827919Y-89134135D01*
X177823148Y-89142203D01*
X177823146Y-89142205D01*
X177789344Y-89199362D01*
X177744256Y-89275602D01*
X177741643Y-89284595D01*
X177741642Y-89284598D01*
X177719392Y-89361182D01*
X177698402Y-89433431D01*
X177695500Y-89470306D01*
X177695500Y-90004056D01*
X177675538Y-90078556D01*
X177621000Y-90133094D01*
X177546500Y-90153056D01*
X177472000Y-90133094D01*
X177417462Y-90078556D01*
X177398437Y-90020737D01*
X177397437Y-90011861D01*
X177396500Y-89995180D01*
X177396500Y-89470306D01*
X177393598Y-89433431D01*
X177372608Y-89361182D01*
X177350358Y-89284598D01*
X177350357Y-89284595D01*
X177347744Y-89275602D01*
X177302656Y-89199362D01*
X177268854Y-89142205D01*
X177268852Y-89142203D01*
X177264081Y-89134135D01*
X177147865Y-89017919D01*
X177139797Y-89013148D01*
X177139795Y-89013146D01*
X177014462Y-88939025D01*
X177006398Y-88934256D01*
X176997405Y-88931643D01*
X176997402Y-88931642D01*
X176855880Y-88890526D01*
X176855879Y-88890526D01*
X176848569Y-88888402D01*
X176811694Y-88885500D01*
X176380306Y-88885500D01*
X176343431Y-88888402D01*
X176336121Y-88890526D01*
X176336120Y-88890526D01*
X176197070Y-88930924D01*
X176119959Y-88932539D01*
X176052371Y-88895382D01*
X176012416Y-88829410D01*
X176006500Y-88787840D01*
X176006500Y-88359165D01*
X176006501Y-88359150D01*
X176006503Y-88359138D01*
X176006500Y-88266521D01*
X176006512Y-88266428D01*
X176006525Y-88266428D01*
X176006521Y-88154082D01*
X175999901Y-88095341D01*
X175982421Y-87940255D01*
X175981356Y-87930805D01*
X175980429Y-87926742D01*
X175980427Y-87926733D01*
X175932280Y-87715823D01*
X175931350Y-87711749D01*
X175857133Y-87499669D01*
X175855317Y-87495899D01*
X175855314Y-87495891D01*
X175761452Y-87301000D01*
X175761450Y-87300996D01*
X175759637Y-87297232D01*
X175640088Y-87106984D01*
X175499991Y-86931318D01*
X175433873Y-86865202D01*
X175283737Y-86715066D01*
X175245173Y-86648271D01*
X175245173Y-86571143D01*
X175283737Y-86504348D01*
X175350532Y-86465784D01*
X175427660Y-86465784D01*
X175435963Y-86468270D01*
X175485953Y-86484835D01*
X175501771Y-86488221D01*
X175593707Y-86497613D01*
X175601292Y-86498000D01*
X175653384Y-86498000D01*
X175668855Y-86493855D01*
X175673000Y-86478384D01*
X176273000Y-86478384D01*
X176277145Y-86493855D01*
X176292616Y-86498000D01*
X176344708Y-86498000D01*
X176352293Y-86497613D01*
X176444229Y-86488221D01*
X176460047Y-86484835D01*
X176612285Y-86434388D01*
X176627911Y-86427102D01*
X176763954Y-86343190D01*
X176777475Y-86332499D01*
X176890499Y-86219475D01*
X176901190Y-86205954D01*
X176985102Y-86069911D01*
X176992388Y-86054285D01*
X177042835Y-85902047D01*
X177046221Y-85886229D01*
X177055613Y-85794293D01*
X177056000Y-85786708D01*
X177056000Y-85409616D01*
X177051855Y-85394145D01*
X177036384Y-85390000D01*
X176292616Y-85390000D01*
X176277145Y-85394145D01*
X176273000Y-85409616D01*
X176273000Y-86478384D01*
X175673000Y-86478384D01*
X175673000Y-85409616D01*
X175668855Y-85394145D01*
X175653384Y-85390000D01*
X174909616Y-85390000D01*
X174894145Y-85394145D01*
X174890000Y-85409616D01*
X174890000Y-85786708D01*
X174890387Y-85794293D01*
X174899779Y-85886229D01*
X174903166Y-85902050D01*
X174919730Y-85952039D01*
X174924215Y-86029036D01*
X174889599Y-86097960D01*
X174825159Y-86140342D01*
X174748162Y-86144827D01*
X174679238Y-86110211D01*
X174672934Y-86104264D01*
X174142141Y-85573471D01*
X174103577Y-85506676D01*
X174098500Y-85468112D01*
X174098499Y-84770384D01*
X174890000Y-84770384D01*
X174894145Y-84785855D01*
X174909616Y-84790000D01*
X175653384Y-84790000D01*
X175668855Y-84785855D01*
X175673000Y-84770384D01*
X176273000Y-84770384D01*
X176277145Y-84785855D01*
X176292616Y-84790000D01*
X177036384Y-84790000D01*
X177051855Y-84785855D01*
X177056000Y-84770384D01*
X177056000Y-84393292D01*
X177055613Y-84385707D01*
X177046221Y-84293771D01*
X177042835Y-84277953D01*
X176992388Y-84125715D01*
X176985102Y-84110089D01*
X176901190Y-83974046D01*
X176890499Y-83960525D01*
X176777475Y-83847501D01*
X176763954Y-83836810D01*
X176627911Y-83752898D01*
X176612285Y-83745612D01*
X176460047Y-83695165D01*
X176444229Y-83691779D01*
X176352293Y-83682387D01*
X176344708Y-83682000D01*
X176292616Y-83682000D01*
X176277145Y-83686145D01*
X176273000Y-83701616D01*
X176273000Y-84770384D01*
X175673000Y-84770384D01*
X175673000Y-83701616D01*
X175668855Y-83686145D01*
X175653384Y-83682000D01*
X175601292Y-83682000D01*
X175593707Y-83682387D01*
X175501771Y-83691779D01*
X175485953Y-83695165D01*
X175333715Y-83745612D01*
X175318089Y-83752898D01*
X175182046Y-83836810D01*
X175168525Y-83847501D01*
X175055501Y-83960525D01*
X175044810Y-83974046D01*
X174960898Y-84110089D01*
X174953612Y-84125715D01*
X174903165Y-84277953D01*
X174899779Y-84293771D01*
X174890387Y-84385707D01*
X174890000Y-84393292D01*
X174890000Y-84770384D01*
X174098499Y-84770384D01*
X174098499Y-84393779D01*
X174098499Y-84389992D01*
X174098062Y-84385707D01*
X174088826Y-84295297D01*
X174088826Y-84295295D01*
X174087999Y-84287203D01*
X174032814Y-84120666D01*
X173940712Y-83971344D01*
X173816656Y-83847288D01*
X173667334Y-83755186D01*
X173500797Y-83700001D01*
X173492706Y-83699174D01*
X173492704Y-83699174D01*
X173453460Y-83695165D01*
X173398009Y-83689500D01*
X173394209Y-83689500D01*
X173022358Y-83689501D01*
X172647992Y-83689501D01*
X172644237Y-83689885D01*
X172644229Y-83689885D01*
X172553297Y-83699174D01*
X172553295Y-83699174D01*
X172545203Y-83700001D01*
X172378666Y-83755186D01*
X172229344Y-83847288D01*
X172105288Y-83971344D01*
X172100735Y-83978726D01*
X172100730Y-83978732D01*
X172076066Y-84018720D01*
X172019966Y-84071649D01*
X171949249Y-84089500D01*
X167380164Y-84089500D01*
X167305664Y-84069538D01*
X167251126Y-84015000D01*
X167231164Y-83940500D01*
X167251126Y-83866000D01*
X167274805Y-83835141D01*
X168568916Y-82541030D01*
X168569088Y-82540864D01*
X168569091Y-82540868D01*
X168645585Y-82464372D01*
X168777295Y-82292721D01*
X168885473Y-82105346D01*
X168906895Y-82053627D01*
X168966400Y-81909966D01*
X168966402Y-81909960D01*
X168968268Y-81905455D01*
X169024263Y-81696466D01*
X169052501Y-81481957D01*
X169052500Y-81373777D01*
X169052500Y-78605289D01*
X169052493Y-78605239D01*
X169052490Y-78605134D01*
X169052491Y-78542914D01*
X169052491Y-78538044D01*
X169024253Y-78323536D01*
X168968258Y-78114548D01*
X168885464Y-77914658D01*
X168777287Y-77727285D01*
X168645578Y-77555634D01*
X168627191Y-77537246D01*
X168627188Y-77537242D01*
X166412683Y-75322737D01*
X166412670Y-75322723D01*
X166412659Y-75322705D01*
X166360934Y-75270988D01*
X166360842Y-75270869D01*
X166360856Y-75270855D01*
X166287864Y-75197873D01*
X166287809Y-75197818D01*
X166284358Y-75194368D01*
X166112704Y-75062672D01*
X166108481Y-75060234D01*
X165929559Y-74956947D01*
X165929556Y-74956945D01*
X165925330Y-74954506D01*
X165725441Y-74871721D01*
X165720723Y-74870457D01*
X165720720Y-74870456D01*
X165605230Y-74839515D01*
X165516457Y-74815732D01*
X165511628Y-74815096D01*
X165511626Y-74815096D01*
X165463067Y-74808705D01*
X165301954Y-74787498D01*
X165297082Y-74787498D01*
X165193777Y-74787500D01*
X150995289Y-74787500D01*
X150995239Y-74787507D01*
X150995134Y-74787510D01*
X150994141Y-74787510D01*
X150932914Y-74787509D01*
X150928044Y-74787509D01*
X150923222Y-74788144D01*
X150923219Y-74788144D01*
X150834868Y-74799775D01*
X150713536Y-74815747D01*
X150504548Y-74871742D01*
X150304658Y-74954536D01*
X150117285Y-75062713D01*
X149945634Y-75194422D01*
X149927246Y-75212809D01*
X149927242Y-75212812D01*
X141565084Y-83574970D01*
X141564912Y-83575136D01*
X141564909Y-83575132D01*
X141488415Y-83651628D01*
X141356705Y-83823279D01*
X141248527Y-84010654D01*
X141246659Y-84015164D01*
X141167986Y-84205104D01*
X141165732Y-84210545D01*
X141164469Y-84215259D01*
X141116638Y-84393779D01*
X141109737Y-84419534D01*
X141109102Y-84424356D01*
X141109102Y-84424357D01*
X141101536Y-84481836D01*
X141081499Y-84634043D01*
X141081499Y-84638914D01*
X141081500Y-84688763D01*
X141081500Y-101246851D01*
X141061538Y-101321351D01*
X141037859Y-101352210D01*
X141027982Y-101362087D01*
X141027971Y-101362099D01*
X140944346Y-101445728D01*
X140944322Y-101445746D01*
X140944320Y-101445744D01*
X140873860Y-101516207D01*
X140756721Y-101677441D01*
X140754061Y-101682662D01*
X140754059Y-101682665D01*
X140741749Y-101706826D01*
X140666247Y-101855014D01*
X140664439Y-101860580D01*
X140664437Y-101860584D01*
X140647159Y-101913766D01*
X140604667Y-102044555D01*
X140603752Y-102050332D01*
X140603751Y-102050337D01*
X140574413Y-102235609D01*
X140573497Y-102241396D01*
X140573500Y-102333179D01*
X140573500Y-106446497D01*
X140573499Y-106446501D01*
X140573499Y-106446509D01*
X140573500Y-106510025D01*
X140572226Y-106529474D01*
X140564152Y-106590808D01*
X140554087Y-106628373D01*
X140534183Y-106676428D01*
X140514736Y-106710110D01*
X140477125Y-106759126D01*
X140464274Y-106773780D01*
X139539834Y-107698220D01*
X139525180Y-107711071D01*
X139476107Y-107748726D01*
X139442419Y-107768175D01*
X139394371Y-107788076D01*
X139356801Y-107798143D01*
X139330833Y-107801561D01*
X139295396Y-107806226D01*
X139275952Y-107807500D01*
X139212575Y-107807499D01*
X139212501Y-107807499D01*
X139212498Y-107807500D01*
X137025289Y-107807500D01*
X137025239Y-107807507D01*
X137025134Y-107807510D01*
X137024141Y-107807510D01*
X136962914Y-107807509D01*
X136958044Y-107807509D01*
X136953222Y-107808144D01*
X136953219Y-107808144D01*
X136864868Y-107819775D01*
X136743536Y-107835747D01*
X136534548Y-107891742D01*
X136334658Y-107974536D01*
X136147285Y-108082713D01*
X135975634Y-108214422D01*
X135957246Y-108232809D01*
X135957242Y-108232812D01*
X135723084Y-108466970D01*
X135722912Y-108467136D01*
X135722909Y-108467132D01*
X135646415Y-108543628D01*
X135568820Y-108644754D01*
X135539337Y-108683178D01*
X135514705Y-108715279D01*
X135406527Y-108902654D01*
X135397704Y-108923956D01*
X135329111Y-109089559D01*
X135323732Y-109102545D01*
X135267737Y-109311534D01*
X135263171Y-109346216D01*
X135233658Y-109417470D01*
X135175632Y-109463070D01*
X135097327Y-109497645D01*
X135091648Y-109501535D01*
X135091643Y-109501538D01*
X134940849Y-109604835D01*
X134918861Y-109619897D01*
X134872648Y-109666110D01*
X134864812Y-109673402D01*
X134848429Y-109687585D01*
X134843906Y-109693422D01*
X134842251Y-109695169D01*
X134832328Y-109706430D01*
X134765897Y-109772861D01*
X134762004Y-109778544D01*
X134647538Y-109945643D01*
X134647535Y-109945648D01*
X134643645Y-109951327D01*
X134556268Y-110149219D01*
X134554692Y-110155918D01*
X134554691Y-110155922D01*
X134508121Y-110353924D01*
X134506740Y-110359796D01*
X134500500Y-110449698D01*
X134500500Y-110595000D01*
X134480538Y-110669500D01*
X134426000Y-110724038D01*
X134351500Y-110744000D01*
X134057500Y-110744000D01*
X133983000Y-110724038D01*
X133928462Y-110669500D01*
X133908500Y-110595000D01*
X133908500Y-101100969D01*
X135343723Y-101100969D01*
X135373882Y-101400762D01*
X135443731Y-101693861D01*
X135445519Y-101698503D01*
X135445521Y-101698510D01*
X135541532Y-101947795D01*
X135552023Y-101975034D01*
X135696825Y-102239265D01*
X135875554Y-102481838D01*
X135879010Y-102485412D01*
X135879013Y-102485415D01*
X135947312Y-102556035D01*
X136085020Y-102698424D01*
X136088928Y-102701510D01*
X136265124Y-102840650D01*
X136321485Y-102885158D01*
X136429575Y-102949180D01*
X136539692Y-103014402D01*
X136580730Y-103038709D01*
X136585305Y-103040649D01*
X136585307Y-103040650D01*
X136774409Y-103120836D01*
X136858128Y-103156336D01*
X137148729Y-103235940D01*
X137153665Y-103236604D01*
X137153666Y-103236604D01*
X137442422Y-103275438D01*
X137442427Y-103275438D01*
X137447347Y-103276100D01*
X137673244Y-103276100D01*
X137675732Y-103275933D01*
X137675745Y-103275933D01*
X137774985Y-103269289D01*
X137898634Y-103261012D01*
X137903519Y-103260019D01*
X137903527Y-103260018D01*
X138107358Y-103218587D01*
X138193903Y-103200996D01*
X138478537Y-103102160D01*
X138747459Y-102966268D01*
X138995869Y-102795744D01*
X139219333Y-102593632D01*
X139253811Y-102552852D01*
X139385601Y-102396970D01*
X139413865Y-102363539D01*
X139416544Y-102359342D01*
X139416548Y-102359337D01*
X139521505Y-102194924D01*
X139575993Y-102109570D01*
X139702823Y-101836258D01*
X139792093Y-101548479D01*
X139842209Y-101251370D01*
X139848683Y-101057742D01*
X139852111Y-100955209D01*
X139852111Y-100955203D01*
X139852277Y-100950231D01*
X139822118Y-100650438D01*
X139752269Y-100357339D01*
X139750481Y-100352697D01*
X139750479Y-100352690D01*
X139645766Y-100080810D01*
X139645764Y-100080805D01*
X139643977Y-100076166D01*
X139499175Y-99811935D01*
X139351814Y-99611935D01*
X139323400Y-99573371D01*
X139323399Y-99573370D01*
X139320446Y-99569362D01*
X139110980Y-99352776D01*
X138927189Y-99207638D01*
X138878422Y-99169127D01*
X138878419Y-99169125D01*
X138874515Y-99166042D01*
X138687809Y-99055456D01*
X138619547Y-99015024D01*
X138619544Y-99015022D01*
X138615270Y-99012491D01*
X138610693Y-99010550D01*
X138342457Y-98896808D01*
X138342454Y-98896807D01*
X138337872Y-98894864D01*
X138047271Y-98815260D01*
X138012249Y-98810550D01*
X137753578Y-98775762D01*
X137753573Y-98775762D01*
X137748653Y-98775100D01*
X137522756Y-98775100D01*
X137520268Y-98775267D01*
X137520255Y-98775267D01*
X137421015Y-98781911D01*
X137297366Y-98790188D01*
X137292481Y-98791181D01*
X137292473Y-98791182D01*
X137167536Y-98816577D01*
X137002097Y-98850204D01*
X136717463Y-98949040D01*
X136448541Y-99084932D01*
X136200131Y-99255456D01*
X136196437Y-99258797D01*
X136173769Y-99279299D01*
X135976667Y-99457568D01*
X135782135Y-99687661D01*
X135779456Y-99691858D01*
X135779452Y-99691863D01*
X135705364Y-99807921D01*
X135620007Y-99941630D01*
X135493177Y-100214942D01*
X135403907Y-100502721D01*
X135353791Y-100799830D01*
X135353200Y-100817503D01*
X135345548Y-101046395D01*
X135343723Y-101100969D01*
X133908500Y-101100969D01*
X133908500Y-72885100D01*
X133928462Y-72810600D01*
X133983000Y-72756062D01*
X134057500Y-72736100D01*
X180938500Y-72736100D01*
X181013000Y-72756062D01*
G37*
%TD.AperFunction*%
%TA.AperFunction,Conductor*%
G36*
X178599000Y-92043462D02*
G01*
X178653538Y-92098000D01*
X178673500Y-92172500D01*
X178673500Y-93492497D01*
X178673499Y-93492501D01*
X178673499Y-93492509D01*
X178673500Y-93556025D01*
X178672226Y-93575472D01*
X178664192Y-93636507D01*
X178664152Y-93636808D01*
X178654087Y-93674373D01*
X178634183Y-93722428D01*
X178614736Y-93756110D01*
X178577125Y-93805126D01*
X178564274Y-93819780D01*
X177743895Y-94640159D01*
X177725634Y-94655082D01*
X177725784Y-94655276D01*
X177630232Y-94728871D01*
X177559029Y-94758516D01*
X177544926Y-94759720D01*
X177471065Y-94762501D01*
X177465274Y-94762719D01*
X177465264Y-94762719D01*
X177465195Y-94762722D01*
X177465155Y-94762724D01*
X177465125Y-94762725D01*
X177458119Y-94763039D01*
X177458068Y-94763041D01*
X177457900Y-94763049D01*
X177457593Y-94763065D01*
X177455630Y-94763179D01*
X177451831Y-94763399D01*
X177451769Y-94763403D01*
X177451611Y-94763412D01*
X177248226Y-94776431D01*
X177246269Y-94776662D01*
X177246264Y-94776662D01*
X177221459Y-94779584D01*
X177194691Y-94782738D01*
X177192230Y-94783162D01*
X177190301Y-94783602D01*
X177190290Y-94783604D01*
X177163608Y-94789688D01*
X177139470Y-94795191D01*
X177137578Y-94795730D01*
X177137560Y-94795735D01*
X176951701Y-94848720D01*
X176949416Y-94849352D01*
X176882275Y-94867342D01*
X176882273Y-94867343D01*
X176875991Y-94869026D01*
X176870090Y-94871778D01*
X176870089Y-94871778D01*
X176856935Y-94877911D01*
X176854288Y-94879114D01*
X176814954Y-94896529D01*
X176789525Y-94907787D01*
X176785181Y-94911030D01*
X176779271Y-94914127D01*
X176683836Y-94958629D01*
X176678508Y-94962360D01*
X176678504Y-94962362D01*
X176576876Y-95033523D01*
X176510159Y-95080239D01*
X176360239Y-95230159D01*
X176313375Y-95297088D01*
X176277554Y-95348245D01*
X176218470Y-95397822D01*
X176142514Y-95411215D01*
X176070037Y-95384836D01*
X176020460Y-95325752D01*
X176006500Y-95262782D01*
X176006500Y-93584160D01*
X176026462Y-93509660D01*
X176081000Y-93455122D01*
X176155500Y-93435160D01*
X176197070Y-93441076D01*
X176319406Y-93476618D01*
X176343431Y-93483598D01*
X176380306Y-93486500D01*
X176811694Y-93486500D01*
X176848569Y-93483598D01*
X176872594Y-93476618D01*
X176997398Y-93440359D01*
X176997400Y-93440358D01*
X177006398Y-93437744D01*
X177012769Y-93433977D01*
X177088125Y-93422848D01*
X177128880Y-93433769D01*
X177135602Y-93437744D01*
X177144600Y-93440358D01*
X177144602Y-93440359D01*
X177269406Y-93476618D01*
X177293431Y-93483598D01*
X177330306Y-93486500D01*
X177761694Y-93486500D01*
X177798569Y-93483598D01*
X177822594Y-93476618D01*
X177947395Y-93440360D01*
X177947398Y-93440359D01*
X177956398Y-93437744D01*
X177956655Y-93437592D01*
X178028608Y-93426967D01*
X178070655Y-93438234D01*
X178091596Y-93447296D01*
X178177165Y-93472156D01*
X178193176Y-93472491D01*
X178195860Y-93468059D01*
X178196000Y-93467077D01*
X178196000Y-93309201D01*
X178216749Y-93233354D01*
X178292975Y-93104462D01*
X178297744Y-93096398D01*
X178343598Y-92938569D01*
X178346500Y-92901694D01*
X178346500Y-92172500D01*
X178366462Y-92098000D01*
X178421000Y-92043462D01*
X178495500Y-92023500D01*
X178524500Y-92023500D01*
X178599000Y-92043462D01*
G37*
%TD.AperFunction*%
%TA.AperFunction,Conductor*%
G36*
X171394695Y-88281775D02*
G01*
X171449719Y-88289021D01*
X171520975Y-88318540D01*
X171567925Y-88379731D01*
X171578407Y-88452715D01*
X171569920Y-88531448D01*
X171564806Y-88578893D01*
X171564726Y-88579879D01*
X171564723Y-88579912D01*
X171562723Y-88604602D01*
X171562639Y-88605641D01*
X171562572Y-88606874D01*
X171562648Y-88609856D01*
X171562648Y-88609858D01*
X171562730Y-88613083D01*
X171561962Y-88632469D01*
X171560540Y-88646000D01*
X171564540Y-88684062D01*
X171564626Y-88687420D01*
X171564715Y-88687771D01*
X171564525Y-88689283D01*
X171565083Y-88689224D01*
X171576764Y-88800361D01*
X171580326Y-88834256D01*
X171582741Y-88841688D01*
X171582741Y-88841689D01*
X171598951Y-88891577D01*
X171638821Y-89014284D01*
X171642724Y-89021045D01*
X171642791Y-89021195D01*
X171643155Y-89022072D01*
X171643995Y-89024828D01*
X171646250Y-89029635D01*
X171646252Y-89029640D01*
X171708797Y-89162963D01*
X171722366Y-89238889D01*
X171711062Y-89284454D01*
X171709049Y-89289198D01*
X171708571Y-89290419D01*
X171684919Y-89369192D01*
X171684463Y-89375950D01*
X171681736Y-89387537D01*
X171668402Y-89433431D01*
X171665500Y-89470306D01*
X171665500Y-90199500D01*
X171645538Y-90274000D01*
X171591000Y-90328538D01*
X171516500Y-90348500D01*
X170727617Y-90348500D01*
X170712146Y-90352645D01*
X170708001Y-90368116D01*
X170708001Y-90386500D01*
X170688039Y-90461000D01*
X170633501Y-90515538D01*
X170559001Y-90535500D01*
X164063502Y-90535500D01*
X164063499Y-90535499D01*
X164063424Y-90535499D01*
X163999973Y-90535500D01*
X163980528Y-90534226D01*
X163919190Y-90526152D01*
X163881626Y-90516086D01*
X163858666Y-90506577D01*
X163797478Y-90459626D01*
X163767961Y-90388370D01*
X163766914Y-90360680D01*
X163775104Y-90212798D01*
X163775243Y-90210290D01*
X163775040Y-90193097D01*
X163775597Y-90178353D01*
X163775761Y-90176479D01*
X163776328Y-90170000D01*
X163775013Y-90154965D01*
X163774955Y-90153792D01*
X163774944Y-90153764D01*
X163774802Y-90152551D01*
X163774524Y-90149377D01*
X163774442Y-90142461D01*
X163774040Y-90140680D01*
X163774344Y-90138602D01*
X163773587Y-90138668D01*
X163758416Y-89965264D01*
X163758415Y-89965260D01*
X163757849Y-89958787D01*
X163702974Y-89753991D01*
X163701030Y-89749822D01*
X163699198Y-89728884D01*
X170708000Y-89728884D01*
X170712145Y-89744355D01*
X170727616Y-89748500D01*
X171196384Y-89748500D01*
X171211855Y-89744355D01*
X171216000Y-89728884D01*
X171216000Y-88913988D01*
X171211855Y-88898517D01*
X171206849Y-88897176D01*
X171205869Y-88897315D01*
X171111596Y-88924704D01*
X171094536Y-88932087D01*
X170967572Y-89007172D01*
X170952872Y-89018575D01*
X170848575Y-89122872D01*
X170837172Y-89137572D01*
X170762087Y-89264536D01*
X170754704Y-89281597D01*
X170713059Y-89424937D01*
X170710338Y-89439838D01*
X170708229Y-89466638D01*
X170708000Y-89472460D01*
X170708000Y-89728884D01*
X163699198Y-89728884D01*
X163694364Y-89673627D01*
X163726959Y-89603725D01*
X163790139Y-89559486D01*
X163841100Y-89550500D01*
X165488711Y-89550500D01*
X165488761Y-89550493D01*
X165488866Y-89550490D01*
X165489859Y-89550490D01*
X165551086Y-89550491D01*
X165555956Y-89550491D01*
X165560778Y-89549856D01*
X165560781Y-89549856D01*
X165649132Y-89538225D01*
X165770464Y-89522253D01*
X165979452Y-89466258D01*
X166179342Y-89383464D01*
X166187390Y-89378818D01*
X166237053Y-89350146D01*
X166366715Y-89275287D01*
X166538366Y-89143578D01*
X166556754Y-89125191D01*
X166556758Y-89125188D01*
X167292166Y-88389780D01*
X167306820Y-88376929D01*
X167355893Y-88339274D01*
X167389581Y-88319825D01*
X167437629Y-88299924D01*
X167475199Y-88289857D01*
X167501167Y-88286439D01*
X167536604Y-88281774D01*
X167556048Y-88280500D01*
X167619425Y-88280501D01*
X167619499Y-88280501D01*
X167619502Y-88280500D01*
X171375241Y-88280500D01*
X171394695Y-88281775D01*
G37*
%TD.AperFunction*%
%TD*%
%TA.AperFunction,Conductor*%
%TO.N,/V-A13*%
G36*
X160716824Y-87629986D02*
G01*
X160725093Y-87633421D01*
X160728512Y-87641698D01*
X160728266Y-87644074D01*
X160679295Y-87878981D01*
X160677949Y-87882486D01*
X160566936Y-88072905D01*
X160566643Y-88073380D01*
X160522683Y-88141139D01*
X160462040Y-88234611D01*
X160431779Y-88393002D01*
X160432909Y-88394859D01*
X160538397Y-88568191D01*
X160539770Y-88577040D01*
X160536675Y-88582547D01*
X160338953Y-88780269D01*
X160330680Y-88783696D01*
X160322790Y-88780635D01*
X160204693Y-88672737D01*
X160140222Y-88613834D01*
X160140217Y-88613830D01*
X160139996Y-88613628D01*
X160139746Y-88613444D01*
X159991480Y-88504421D01*
X159991471Y-88504414D01*
X159991338Y-88504317D01*
X159857083Y-88416929D01*
X159856535Y-88416549D01*
X159708659Y-88307813D01*
X159707698Y-88307025D01*
X159526130Y-88141139D01*
X159522334Y-88133029D01*
X159525737Y-88124239D01*
X160015860Y-87632736D01*
X160024157Y-87629298D01*
X160716824Y-87629986D01*
G37*
%TD.AperFunction*%
%TD*%
%TA.AperFunction,Conductor*%
%TO.N,/V-D4*%
G36*
X149365761Y-84595737D02*
G01*
X149857264Y-85085860D01*
X149860702Y-85094157D01*
X149860014Y-85786824D01*
X149856579Y-85795093D01*
X149848302Y-85798512D01*
X149845926Y-85798266D01*
X149611017Y-85749295D01*
X149607512Y-85747949D01*
X149417094Y-85636936D01*
X149416619Y-85636643D01*
X149256342Y-85532659D01*
X149255388Y-85532040D01*
X149186739Y-85518925D01*
X149099133Y-85502187D01*
X149099132Y-85502187D01*
X149096996Y-85501779D01*
X149095139Y-85502909D01*
X148921809Y-85608397D01*
X148912960Y-85609770D01*
X148907453Y-85606675D01*
X148709731Y-85408953D01*
X148706304Y-85400680D01*
X148709365Y-85392790D01*
X148876371Y-85209996D01*
X148961549Y-85094157D01*
X148985577Y-85061480D01*
X148985584Y-85061471D01*
X148985681Y-85061338D01*
X149073069Y-84927083D01*
X149073449Y-84926535D01*
X149182186Y-84778659D01*
X149182974Y-84777698D01*
X149348861Y-84596130D01*
X149356972Y-84592334D01*
X149365761Y-84595737D01*
G37*
%TD.AperFunction*%
%TD*%
%TA.AperFunction,Conductor*%
%TO.N,/V-D6*%
G36*
X149860444Y-87632426D02*
G01*
X149862994Y-87636239D01*
X150035874Y-88054243D01*
X150127126Y-88274881D01*
X150127121Y-88283836D01*
X150120786Y-88290165D01*
X150119470Y-88290619D01*
X149940096Y-88340871D01*
X149938484Y-88341203D01*
X149851064Y-88352842D01*
X149767101Y-88364020D01*
X149766875Y-88364069D01*
X149766871Y-88364070D01*
X149714674Y-88375459D01*
X149628321Y-88394300D01*
X149535704Y-88470399D01*
X149535294Y-88472352D01*
X149535293Y-88472353D01*
X149503953Y-88621486D01*
X149498898Y-88628878D01*
X149492503Y-88630780D01*
X149213442Y-88630780D01*
X149205169Y-88627353D01*
X149201745Y-88619341D01*
X149196471Y-88382540D01*
X149196470Y-88382523D01*
X149196467Y-88382382D01*
X149196455Y-88382220D01*
X149183284Y-88206491D01*
X149183283Y-88206474D01*
X149183273Y-88206347D01*
X149167541Y-88054575D01*
X149167512Y-88054243D01*
X149154355Y-87878706D01*
X149154325Y-87878092D01*
X149149066Y-87641943D01*
X149152308Y-87633596D01*
X149160747Y-87629983D01*
X149852166Y-87629011D01*
X149860444Y-87632426D01*
G37*
%TD.AperFunction*%
%TD*%
%TA.AperFunction,Conductor*%
%TO.N,/V-D6*%
G36*
X156363496Y-109638210D02*
G01*
X156468742Y-109758507D01*
X156577484Y-109862260D01*
X156686227Y-109945475D01*
X156794970Y-110008150D01*
X156795379Y-110008308D01*
X156795380Y-110008309D01*
X156816582Y-110016524D01*
X156894866Y-110046859D01*
X156901341Y-110053043D01*
X156902185Y-110059651D01*
X156221547Y-114230247D01*
X156216833Y-114237860D01*
X156208115Y-114239909D01*
X156200502Y-114235195D01*
X156198453Y-114230247D01*
X155517815Y-110059652D01*
X155519864Y-110050935D01*
X155525134Y-110046859D01*
X155588524Y-110022296D01*
X155624609Y-110008313D01*
X155624612Y-110008312D01*
X155625029Y-110008150D01*
X155665047Y-109985085D01*
X155733442Y-109945665D01*
X155733446Y-109945662D01*
X155733771Y-109945475D01*
X155842514Y-109862260D01*
X155951257Y-109758507D01*
X156056504Y-109638210D01*
X156065310Y-109634214D01*
X156354690Y-109634214D01*
X156363496Y-109638210D01*
G37*
%TD.AperFunction*%
%TD*%
%TA.AperFunction,Conductor*%
%TO.N,Net-(U1-Pad24)*%
G36*
X155593897Y-87362849D02*
G01*
X155600221Y-87369190D01*
X155600658Y-87370445D01*
X155670675Y-87616057D01*
X155671099Y-87618518D01*
X155684118Y-87821903D01*
X155684134Y-87822210D01*
X155690805Y-87999425D01*
X155745462Y-88176475D01*
X155896241Y-88372238D01*
X155898575Y-88380882D01*
X155895245Y-88387649D01*
X155697649Y-88585245D01*
X155689376Y-88588672D01*
X155682238Y-88586241D01*
X155486475Y-88435462D01*
X155331595Y-88387649D01*
X155310161Y-88381032D01*
X155310159Y-88381032D01*
X155309425Y-88380805D01*
X155308659Y-88380776D01*
X155308658Y-88380776D01*
X155132210Y-88374134D01*
X155131903Y-88374118D01*
X154928518Y-88361099D01*
X154926057Y-88360675D01*
X154803105Y-88325625D01*
X154680444Y-88290657D01*
X154673429Y-88285094D01*
X154672401Y-88276198D01*
X154672838Y-88274943D01*
X154786859Y-87998658D01*
X154937438Y-87633788D01*
X154943788Y-87627438D01*
X155584943Y-87362838D01*
X155593897Y-87362849D01*
G37*
%TD.AperFunction*%
%TD*%
%TA.AperFunction,Conductor*%
%TO.N,Net-(U1-Pad24)*%
G36*
X156359393Y-93595858D02*
G01*
X156362389Y-93600982D01*
X156411342Y-93776241D01*
X156549393Y-93823726D01*
X156685879Y-93809744D01*
X156750084Y-93803167D01*
X156750286Y-93803148D01*
X156849340Y-93794732D01*
X156988176Y-93782937D01*
X156991336Y-93783099D01*
X157230030Y-93828263D01*
X157237521Y-93833167D01*
X157239350Y-93841933D01*
X157238666Y-93844230D01*
X156973857Y-94484511D01*
X156967508Y-94490854D01*
X156325739Y-94755706D01*
X156316785Y-94755695D01*
X156310466Y-94749368D01*
X156200686Y-94484274D01*
X156200518Y-94483843D01*
X156126648Y-94283385D01*
X156126239Y-94282028D01*
X156084062Y-94103435D01*
X156083797Y-94101806D01*
X156064598Y-93890799D01*
X156064551Y-93889918D01*
X156063539Y-93823726D01*
X156060182Y-93604310D01*
X156063482Y-93595985D01*
X156071881Y-93592431D01*
X156351120Y-93592431D01*
X156359393Y-93595858D01*
G37*
%TD.AperFunction*%
%TD*%
%TA.AperFunction,Conductor*%
%TO.N,Net-(U1-Pad24)*%
G36*
X171813581Y-92260419D02*
G01*
X171818668Y-92267570D01*
X171859637Y-92439477D01*
X171859648Y-92439522D01*
X171859670Y-92439609D01*
X171903288Y-92613639D01*
X171903296Y-92613669D01*
X171946945Y-92778816D01*
X171990569Y-92934874D01*
X171990616Y-92935039D01*
X172032263Y-93075435D01*
X172031330Y-93084341D01*
X172029319Y-93087035D01*
X171831295Y-93285059D01*
X171823022Y-93288486D01*
X171814749Y-93285059D01*
X171813933Y-93284153D01*
X171757679Y-93214750D01*
X171757670Y-93214739D01*
X171757552Y-93214594D01*
X171692994Y-93143945D01*
X171633399Y-93087035D01*
X171628604Y-93082456D01*
X171628598Y-93082451D01*
X171628436Y-93082296D01*
X171563878Y-93029648D01*
X171504619Y-92989582D01*
X171499685Y-92982109D01*
X171499475Y-92979607D01*
X171508288Y-92613669D01*
X171515072Y-92331957D01*
X171518697Y-92323770D01*
X171524244Y-92320816D01*
X171765315Y-92267570D01*
X171804764Y-92258857D01*
X171813581Y-92260419D01*
G37*
%TD.AperFunction*%
%TD*%
%TA.AperFunction,Conductor*%
%TO.N,Net-(U1-Pad24)*%
G36*
X172311252Y-93357954D02*
G01*
X172457874Y-93483777D01*
X172512460Y-93530620D01*
X172683703Y-93631020D01*
X172683942Y-93631131D01*
X172683941Y-93631131D01*
X172841721Y-93704747D01*
X172842692Y-93705257D01*
X173012555Y-93804849D01*
X173014256Y-93806063D01*
X173213324Y-93976894D01*
X173217371Y-93984882D01*
X173213990Y-93994035D01*
X172724140Y-94485264D01*
X172715843Y-94488702D01*
X172477185Y-94488465D01*
X172022571Y-94488014D01*
X172014303Y-94484579D01*
X172010884Y-94476302D01*
X172011040Y-94474411D01*
X172048613Y-94246496D01*
X172049456Y-94243668D01*
X172132250Y-94056383D01*
X172132275Y-94056328D01*
X172203355Y-93897779D01*
X172203827Y-93896727D01*
X172208428Y-93740721D01*
X172096166Y-93570996D01*
X172094460Y-93562206D01*
X172097651Y-93556269D01*
X172295360Y-93358560D01*
X172303633Y-93355133D01*
X172311252Y-93357954D01*
G37*
%TD.AperFunction*%
%TD*%
%TA.AperFunction,Conductor*%
%TO.N,+5V*%
G36*
X165217181Y-84387294D02*
G01*
X165402012Y-84400692D01*
X165403974Y-84401003D01*
X165513653Y-84428119D01*
X165614358Y-84453017D01*
X165615354Y-84453311D01*
X165796335Y-84515657D01*
X165796596Y-84515722D01*
X165796601Y-84515723D01*
X165881609Y-84536740D01*
X166008190Y-84568035D01*
X166300346Y-84589213D01*
X166308350Y-84593229D01*
X166311200Y-84600882D01*
X166311200Y-85579118D01*
X166307773Y-85587391D01*
X166300347Y-85590787D01*
X166008190Y-85611964D01*
X165881609Y-85643259D01*
X165796601Y-85664276D01*
X165796596Y-85664277D01*
X165796335Y-85664342D01*
X165615354Y-85726688D01*
X165614358Y-85726982D01*
X165513653Y-85751880D01*
X165403974Y-85778996D01*
X165402012Y-85779307D01*
X165273279Y-85788639D01*
X165112528Y-85800292D01*
X165104029Y-85797473D01*
X165099982Y-85788639D01*
X165099969Y-85778996D01*
X165099000Y-85090000D01*
X165099982Y-84391360D01*
X165103420Y-84383092D01*
X165112528Y-84379708D01*
X165217181Y-84387294D01*
G37*
%TD.AperFunction*%
%TD*%
%TA.AperFunction,Conductor*%
%TO.N,+5V*%
G36*
X172449798Y-84517971D02*
G01*
X172453453Y-84520444D01*
X172533737Y-84600588D01*
X173015706Y-85081720D01*
X173019140Y-85089990D01*
X173015706Y-85098279D01*
X172453454Y-85659555D01*
X172445179Y-85662975D01*
X172440846Y-85662138D01*
X172388000Y-85641000D01*
X172387812Y-85640939D01*
X172387804Y-85640936D01*
X172328186Y-85621560D01*
X172328174Y-85621557D01*
X172328000Y-85621500D01*
X172307947Y-85616487D01*
X172268202Y-85606550D01*
X172268190Y-85606547D01*
X172268000Y-85606500D01*
X172233737Y-85600504D01*
X172208196Y-85596034D01*
X172208188Y-85596033D01*
X172208000Y-85596000D01*
X172158535Y-85591054D01*
X172150645Y-85586821D01*
X172148000Y-85579412D01*
X172148000Y-84600588D01*
X172151427Y-84592315D01*
X172158535Y-84588947D01*
X172208000Y-84584000D01*
X172208188Y-84583967D01*
X172208196Y-84583966D01*
X172233737Y-84579496D01*
X172268000Y-84573500D01*
X172268190Y-84573453D01*
X172268202Y-84573450D01*
X172307947Y-84563513D01*
X172328000Y-84558500D01*
X172328174Y-84558443D01*
X172328186Y-84558440D01*
X172387804Y-84539064D01*
X172387812Y-84539061D01*
X172388000Y-84539000D01*
X172440845Y-84517862D01*
X172449798Y-84517971D01*
G37*
%TD.AperFunction*%
%TD*%
%TA.AperFunction,Conductor*%
%TO.N,+5V*%
G36*
X177030034Y-109558427D02*
G01*
X177032776Y-109562755D01*
X177097649Y-109743998D01*
X177165298Y-109909658D01*
X177232948Y-110051977D01*
X177233046Y-110052150D01*
X177233050Y-110052157D01*
X177300452Y-110170702D01*
X177300457Y-110170710D01*
X177300597Y-110170956D01*
X177365309Y-110262442D01*
X177367212Y-110271578D01*
X176541455Y-114245868D01*
X176536417Y-114253271D01*
X176527620Y-114254943D01*
X176520217Y-114249905D01*
X176518545Y-114245868D01*
X175692788Y-110271578D01*
X175694691Y-110262442D01*
X175694692Y-110262441D01*
X175759402Y-110170956D01*
X175759542Y-110170710D01*
X175759547Y-110170702D01*
X175826949Y-110052157D01*
X175826953Y-110052150D01*
X175827051Y-110051977D01*
X175894701Y-109909658D01*
X175962350Y-109743998D01*
X176027224Y-109562756D01*
X176033238Y-109556123D01*
X176038239Y-109555000D01*
X177021761Y-109555000D01*
X177030034Y-109558427D01*
G37*
%TD.AperFunction*%
%TD*%
%TA.AperFunction,Conductor*%
%TO.N,+5V*%
G36*
X179570345Y-109637641D02*
G01*
X179572938Y-109641575D01*
X179637649Y-109803719D01*
X179705298Y-109951710D01*
X179705386Y-109951874D01*
X179772835Y-110077976D01*
X179772842Y-110077988D01*
X179772948Y-110078186D01*
X179840597Y-110183148D01*
X179840790Y-110183386D01*
X179840795Y-110183393D01*
X179904751Y-110262284D01*
X179907299Y-110270869D01*
X179907117Y-110272032D01*
X179081455Y-114245868D01*
X179076417Y-114253271D01*
X179067620Y-114254943D01*
X179060217Y-114249905D01*
X179058545Y-114245868D01*
X178232882Y-110272032D01*
X178234554Y-110263235D01*
X178235242Y-110262292D01*
X178267359Y-110222675D01*
X178299204Y-110183393D01*
X178299209Y-110183386D01*
X178299402Y-110183148D01*
X178367051Y-110078186D01*
X178367157Y-110077988D01*
X178367164Y-110077976D01*
X178434613Y-109951874D01*
X178434701Y-109951710D01*
X178502350Y-109803719D01*
X178567062Y-109641576D01*
X178573311Y-109635164D01*
X178577928Y-109634214D01*
X179562072Y-109634214D01*
X179570345Y-109637641D01*
G37*
%TD.AperFunction*%
%TD*%
%TA.AperFunction,Conductor*%
%TO.N,/V-A8*%
G36*
X160664955Y-90437130D02*
G01*
X160671279Y-90443471D01*
X160671268Y-90452425D01*
X160670688Y-90453622D01*
X160546528Y-90676801D01*
X160545089Y-90678841D01*
X160410440Y-90831906D01*
X160410256Y-90832109D01*
X160290202Y-90961555D01*
X160290199Y-90961559D01*
X160289676Y-90962123D01*
X160203131Y-91125964D01*
X160202996Y-91127002D01*
X160202996Y-91127003D01*
X160171323Y-91371006D01*
X160166859Y-91378769D01*
X160159720Y-91381200D01*
X159880280Y-91381200D01*
X159872007Y-91377773D01*
X159868677Y-91371006D01*
X159837003Y-91127003D01*
X159837003Y-91127002D01*
X159836868Y-91125964D01*
X159750322Y-90962123D01*
X159629742Y-90832109D01*
X159629536Y-90831881D01*
X159494910Y-90678841D01*
X159493471Y-90676801D01*
X159369312Y-90453622D01*
X159368284Y-90444726D01*
X159373848Y-90437710D01*
X159375041Y-90437132D01*
X160015509Y-90170867D01*
X160024491Y-90170867D01*
X160664955Y-90437130D01*
G37*
%TD.AperFunction*%
%TD*%
%TA.AperFunction,Conductor*%
%TO.N,/V-A8*%
G36*
X174142467Y-109558427D02*
G01*
X174143510Y-109559621D01*
X174248742Y-109698185D01*
X174357484Y-109819307D01*
X174466227Y-109918365D01*
X174574970Y-109995358D01*
X174676060Y-110046421D01*
X174681900Y-110053210D01*
X174682332Y-110058748D01*
X174001547Y-114230246D01*
X173996833Y-114237860D01*
X173988116Y-114239909D01*
X173980502Y-114235195D01*
X173978453Y-114230246D01*
X173297668Y-110058748D01*
X173299717Y-110050031D01*
X173303940Y-110046421D01*
X173404631Y-109995559D01*
X173405029Y-109995358D01*
X173513771Y-109918365D01*
X173622514Y-109819307D01*
X173731257Y-109698185D01*
X173836488Y-109559624D01*
X173844221Y-109555108D01*
X173845806Y-109555000D01*
X174134194Y-109555000D01*
X174142467Y-109558427D01*
G37*
%TD.AperFunction*%
%TD*%
%TA.AperFunction,Conductor*%
%TO.N,/V-A5*%
G36*
X160777649Y-76514755D02*
G01*
X160975245Y-76712351D01*
X160978672Y-76720624D01*
X160976242Y-76727762D01*
X160825462Y-76923524D01*
X160770805Y-77100574D01*
X160770776Y-77101340D01*
X160770776Y-77101341D01*
X160764134Y-77277788D01*
X160764118Y-77278095D01*
X160751099Y-77481481D01*
X160750675Y-77483942D01*
X160680658Y-77729555D01*
X160675094Y-77736571D01*
X160666198Y-77737599D01*
X160664943Y-77737162D01*
X160515295Y-77675404D01*
X160023788Y-77472562D01*
X160017438Y-77466212D01*
X159793888Y-76924526D01*
X159752838Y-76825057D01*
X159752849Y-76816103D01*
X159759190Y-76809779D01*
X159760439Y-76809344D01*
X159870538Y-76777957D01*
X160006057Y-76739323D01*
X160008518Y-76738899D01*
X160211903Y-76725880D01*
X160212210Y-76725864D01*
X160388658Y-76719222D01*
X160388659Y-76719222D01*
X160389425Y-76719193D01*
X160390160Y-76718966D01*
X160390161Y-76718966D01*
X160458661Y-76697820D01*
X160566475Y-76664537D01*
X160762238Y-76513759D01*
X160770882Y-76511425D01*
X160777649Y-76514755D01*
G37*
%TD.AperFunction*%
%TD*%
%TA.AperFunction,Conductor*%
%TO.N,/V-A5*%
G36*
X167533267Y-80483427D02*
G01*
X167536672Y-80490986D01*
X167546284Y-80648152D01*
X167575635Y-80764394D01*
X167621799Y-80861252D01*
X167621889Y-80861415D01*
X167682338Y-80970920D01*
X167682687Y-80971605D01*
X167750361Y-81115862D01*
X167750773Y-81124807D01*
X167744271Y-81131630D01*
X167390502Y-81279123D01*
X167381498Y-81279123D01*
X167027729Y-81131630D01*
X167021411Y-81125283D01*
X167021639Y-81115862D01*
X167089312Y-80971605D01*
X167089661Y-80970920D01*
X167150110Y-80861415D01*
X167150200Y-80861252D01*
X167196364Y-80764394D01*
X167225715Y-80648152D01*
X167235328Y-80490986D01*
X167239253Y-80482937D01*
X167247006Y-80480000D01*
X167524994Y-80480000D01*
X167533267Y-80483427D01*
G37*
%TD.AperFunction*%
%TD*%
%TA.AperFunction,Conductor*%
%TO.N,/V-A9*%
G36*
X158133897Y-87362849D02*
G01*
X158140221Y-87369190D01*
X158140658Y-87370445D01*
X158210675Y-87616057D01*
X158211099Y-87618518D01*
X158224118Y-87821903D01*
X158224134Y-87822210D01*
X158230805Y-87999425D01*
X158285462Y-88176475D01*
X158436241Y-88372238D01*
X158438575Y-88380882D01*
X158435245Y-88387649D01*
X158237649Y-88585245D01*
X158229376Y-88588672D01*
X158222238Y-88586241D01*
X158026475Y-88435462D01*
X157871595Y-88387649D01*
X157850161Y-88381032D01*
X157850159Y-88381032D01*
X157849425Y-88380805D01*
X157848659Y-88380776D01*
X157848658Y-88380776D01*
X157672210Y-88374134D01*
X157671903Y-88374118D01*
X157468518Y-88361099D01*
X157466057Y-88360675D01*
X157343105Y-88325625D01*
X157220444Y-88290657D01*
X157213429Y-88285094D01*
X157212401Y-88276198D01*
X157212838Y-88274943D01*
X157326859Y-87998658D01*
X157477438Y-87633788D01*
X157483788Y-87627438D01*
X158124943Y-87362838D01*
X158133897Y-87362849D01*
G37*
%TD.AperFunction*%
%TD*%
%TA.AperFunction,Conductor*%
%TO.N,/V-A9*%
G36*
X171602467Y-109558427D02*
G01*
X171603510Y-109559621D01*
X171708742Y-109698185D01*
X171817484Y-109819307D01*
X171926227Y-109918365D01*
X172034970Y-109995358D01*
X172136060Y-110046421D01*
X172141900Y-110053210D01*
X172142332Y-110058748D01*
X171461547Y-114230246D01*
X171456833Y-114237860D01*
X171448116Y-114239909D01*
X171440502Y-114235195D01*
X171438453Y-114230246D01*
X170757668Y-110058748D01*
X170759717Y-110050031D01*
X170763940Y-110046421D01*
X170864631Y-109995559D01*
X170865029Y-109995358D01*
X170973771Y-109918365D01*
X171082514Y-109819307D01*
X171191257Y-109698185D01*
X171296488Y-109559624D01*
X171304221Y-109555108D01*
X171305806Y-109555000D01*
X171594194Y-109555000D01*
X171602467Y-109558427D01*
G37*
%TD.AperFunction*%
%TD*%
%TA.AperFunction,Conductor*%
%TO.N,/V-A11*%
G36*
X169062467Y-109558427D02*
G01*
X169063510Y-109559621D01*
X169168742Y-109698185D01*
X169277484Y-109819307D01*
X169386227Y-109918365D01*
X169494970Y-109995358D01*
X169596060Y-110046421D01*
X169601900Y-110053210D01*
X169602332Y-110058748D01*
X168921547Y-114230246D01*
X168916833Y-114237860D01*
X168908116Y-114239909D01*
X168900502Y-114235195D01*
X168898453Y-114230246D01*
X168217668Y-110058748D01*
X168219717Y-110050031D01*
X168223940Y-110046421D01*
X168324631Y-109995559D01*
X168325029Y-109995358D01*
X168433771Y-109918365D01*
X168542514Y-109819307D01*
X168651257Y-109698185D01*
X168756488Y-109559624D01*
X168764221Y-109555108D01*
X168765806Y-109555000D01*
X169054194Y-109555000D01*
X169062467Y-109558427D01*
G37*
%TD.AperFunction*%
%TD*%
%TA.AperFunction,Conductor*%
%TO.N,/V-A11*%
G36*
X158124955Y-90437130D02*
G01*
X158131279Y-90443471D01*
X158131268Y-90452425D01*
X158130688Y-90453622D01*
X158006528Y-90676801D01*
X158005089Y-90678841D01*
X157870440Y-90831906D01*
X157870256Y-90832109D01*
X157750202Y-90961555D01*
X157750199Y-90961559D01*
X157749676Y-90962123D01*
X157663131Y-91125964D01*
X157662996Y-91127002D01*
X157662996Y-91127003D01*
X157631323Y-91371006D01*
X157626859Y-91378769D01*
X157619720Y-91381200D01*
X157340280Y-91381200D01*
X157332007Y-91377773D01*
X157328677Y-91371006D01*
X157297003Y-91127003D01*
X157297003Y-91127002D01*
X157296868Y-91125964D01*
X157210322Y-90962123D01*
X157089742Y-90832109D01*
X157089536Y-90831881D01*
X156954910Y-90678841D01*
X156953471Y-90676801D01*
X156829312Y-90453622D01*
X156828284Y-90444726D01*
X156833848Y-90437710D01*
X156835041Y-90437132D01*
X157475509Y-90170867D01*
X157484491Y-90170867D01*
X158124955Y-90437130D01*
G37*
%TD.AperFunction*%
%TD*%
%TA.AperFunction,Conductor*%
%TO.N,/V-A10*%
G36*
X155584955Y-90437130D02*
G01*
X155591279Y-90443471D01*
X155591268Y-90452425D01*
X155590688Y-90453622D01*
X155466528Y-90676801D01*
X155465089Y-90678841D01*
X155330440Y-90831906D01*
X155330256Y-90832109D01*
X155210202Y-90961555D01*
X155210199Y-90961559D01*
X155209676Y-90962123D01*
X155123131Y-91125964D01*
X155122996Y-91127002D01*
X155122996Y-91127003D01*
X155091323Y-91371006D01*
X155086859Y-91378769D01*
X155079720Y-91381200D01*
X154800280Y-91381200D01*
X154792007Y-91377773D01*
X154788677Y-91371006D01*
X154757003Y-91127003D01*
X154757003Y-91127002D01*
X154756868Y-91125964D01*
X154670322Y-90962123D01*
X154549742Y-90832109D01*
X154549536Y-90831881D01*
X154414910Y-90678841D01*
X154413471Y-90676801D01*
X154289312Y-90453622D01*
X154288284Y-90444726D01*
X154293848Y-90437710D01*
X154295041Y-90437132D01*
X154935509Y-90170867D01*
X154944491Y-90170867D01*
X155584955Y-90437130D01*
G37*
%TD.AperFunction*%
%TD*%
%TA.AperFunction,Conductor*%
%TO.N,/V-A10*%
G36*
X163982467Y-109558427D02*
G01*
X163983510Y-109559621D01*
X164088742Y-109698185D01*
X164197484Y-109819307D01*
X164306227Y-109918365D01*
X164414970Y-109995358D01*
X164516060Y-110046421D01*
X164521900Y-110053210D01*
X164522332Y-110058748D01*
X163841547Y-114230246D01*
X163836833Y-114237860D01*
X163828116Y-114239909D01*
X163820502Y-114235195D01*
X163818453Y-114230246D01*
X163137668Y-110058748D01*
X163139717Y-110050031D01*
X163143940Y-110046421D01*
X163244631Y-109995559D01*
X163245029Y-109995358D01*
X163353771Y-109918365D01*
X163462514Y-109819307D01*
X163571257Y-109698185D01*
X163676488Y-109559624D01*
X163684221Y-109555108D01*
X163685806Y-109555000D01*
X163974194Y-109555000D01*
X163982467Y-109558427D01*
G37*
%TD.AperFunction*%
%TD*%
%TA.AperFunction,Conductor*%
%TO.N,/V-CE*%
G36*
X172824271Y-88794370D02*
G01*
X172830589Y-88800717D01*
X172830361Y-88810138D01*
X172762687Y-88954393D01*
X172762342Y-88955069D01*
X172701799Y-89064746D01*
X172655635Y-89161605D01*
X172655494Y-89162163D01*
X172655493Y-89162166D01*
X172647808Y-89192600D01*
X172647808Y-89192603D01*
X172626284Y-89277847D01*
X172616000Y-89446000D01*
X172316000Y-89446000D01*
X172305715Y-89277847D01*
X172284191Y-89192603D01*
X172284191Y-89192600D01*
X172276506Y-89162166D01*
X172276505Y-89162163D01*
X172276364Y-89161605D01*
X172230200Y-89064746D01*
X172169657Y-88955069D01*
X172169312Y-88954393D01*
X172101639Y-88810138D01*
X172101227Y-88801193D01*
X172107729Y-88794370D01*
X172232817Y-88742218D01*
X172461499Y-88646877D01*
X172470502Y-88646877D01*
X172824271Y-88794370D01*
G37*
%TD.AperFunction*%
%TD*%
%TA.AperFunction,Conductor*%
%TO.N,/V-CE*%
G36*
X172643716Y-89182519D02*
G01*
X172647409Y-89194181D01*
X172647409Y-89194182D01*
X172671432Y-89270038D01*
X172699149Y-89348557D01*
X172726865Y-89418077D01*
X172726932Y-89418223D01*
X172752236Y-89473474D01*
X172752566Y-89482423D01*
X172752041Y-89483624D01*
X172476442Y-90028843D01*
X172469651Y-90034681D01*
X172460722Y-90034007D01*
X172455558Y-90028843D01*
X172179960Y-89483625D01*
X172179286Y-89474696D01*
X172179764Y-89473475D01*
X172205082Y-89418190D01*
X172205134Y-89418077D01*
X172232850Y-89348557D01*
X172260567Y-89270038D01*
X172284590Y-89194182D01*
X172284590Y-89194181D01*
X172288283Y-89182519D01*
X172316000Y-89086000D01*
X172616000Y-89086000D01*
X172643716Y-89182519D01*
G37*
%TD.AperFunction*%
%TD*%
%TA.AperFunction,Conductor*%
%TO.N,/V-CE*%
G36*
X172255167Y-87873755D02*
G01*
X172371067Y-87989238D01*
X172459565Y-88076668D01*
X172536170Y-88151999D01*
X172570211Y-88185629D01*
X172624633Y-88239395D01*
X172624668Y-88239430D01*
X172740561Y-88354905D01*
X172744003Y-88363172D01*
X172740597Y-88371444D01*
X172470146Y-88643251D01*
X172461832Y-88646698D01*
X172079006Y-88646023D01*
X172070739Y-88642582D01*
X172067327Y-88634302D01*
X172067394Y-88633069D01*
X172081974Y-88497812D01*
X172082301Y-88496054D01*
X172112922Y-88381102D01*
X172112924Y-88381094D01*
X172112963Y-88380947D01*
X172132696Y-88282677D01*
X172124852Y-88239430D01*
X172115529Y-88188029D01*
X172115528Y-88188027D01*
X172115289Y-88186709D01*
X172040744Y-88085746D01*
X172038586Y-88077054D01*
X172041883Y-88070523D01*
X172238636Y-87873770D01*
X172246909Y-87870343D01*
X172255167Y-87873755D01*
G37*
%TD.AperFunction*%
%TD*%
%TA.AperFunction,Conductor*%
%TO.N,/V-CE*%
G36*
X161915057Y-82282838D02*
G01*
X162556212Y-82547438D01*
X162562562Y-82553788D01*
X162713141Y-82918658D01*
X162827162Y-83194943D01*
X162827151Y-83203897D01*
X162820810Y-83210221D01*
X162819563Y-83210655D01*
X162695325Y-83246072D01*
X162573942Y-83280675D01*
X162571481Y-83281099D01*
X162368095Y-83294118D01*
X162367788Y-83294134D01*
X162191341Y-83300776D01*
X162191340Y-83300776D01*
X162190574Y-83300805D01*
X162189840Y-83301032D01*
X162189838Y-83301032D01*
X162168404Y-83307649D01*
X162013524Y-83355462D01*
X161817762Y-83506241D01*
X161809118Y-83508575D01*
X161802351Y-83505245D01*
X161604755Y-83307649D01*
X161601328Y-83299376D01*
X161603759Y-83292238D01*
X161754537Y-83096475D01*
X161809193Y-82919425D01*
X161815864Y-82742210D01*
X161815880Y-82741903D01*
X161828899Y-82538518D01*
X161829323Y-82536057D01*
X161899342Y-82290445D01*
X161904906Y-82283429D01*
X161913802Y-82282401D01*
X161915057Y-82282838D01*
G37*
%TD.AperFunction*%
%TD*%
%TA.AperFunction,Conductor*%
%TO.N,/V-CE*%
G36*
X161443496Y-109638210D02*
G01*
X161548742Y-109758507D01*
X161657484Y-109862260D01*
X161766227Y-109945475D01*
X161874970Y-110008150D01*
X161875379Y-110008308D01*
X161875380Y-110008309D01*
X161896582Y-110016524D01*
X161974866Y-110046859D01*
X161981341Y-110053043D01*
X161982185Y-110059651D01*
X161301547Y-114230247D01*
X161296833Y-114237860D01*
X161288115Y-114239909D01*
X161280502Y-114235195D01*
X161278453Y-114230247D01*
X160597815Y-110059652D01*
X160599864Y-110050935D01*
X160605134Y-110046859D01*
X160668524Y-110022296D01*
X160704609Y-110008313D01*
X160704612Y-110008312D01*
X160705029Y-110008150D01*
X160745047Y-109985085D01*
X160813442Y-109945665D01*
X160813446Y-109945662D01*
X160813771Y-109945475D01*
X160922514Y-109862260D01*
X161031257Y-109758507D01*
X161136504Y-109638210D01*
X161145310Y-109634214D01*
X161434690Y-109634214D01*
X161443496Y-109638210D01*
G37*
%TD.AperFunction*%
%TD*%
%TA.AperFunction,Conductor*%
%TO.N,/V-D7*%
G36*
X158902467Y-109558427D02*
G01*
X158903510Y-109559621D01*
X159008742Y-109698185D01*
X159117484Y-109819307D01*
X159226227Y-109918365D01*
X159334970Y-109995358D01*
X159436060Y-110046421D01*
X159441900Y-110053210D01*
X159442332Y-110058748D01*
X158761547Y-114230246D01*
X158756833Y-114237860D01*
X158748116Y-114239909D01*
X158740502Y-114235195D01*
X158738453Y-114230246D01*
X158057668Y-110058748D01*
X158059717Y-110050031D01*
X158063940Y-110046421D01*
X158164631Y-109995559D01*
X158165029Y-109995358D01*
X158273771Y-109918365D01*
X158382514Y-109819307D01*
X158491257Y-109698185D01*
X158596488Y-109559624D01*
X158604221Y-109555108D01*
X158605806Y-109555000D01*
X158894194Y-109555000D01*
X158902467Y-109558427D01*
G37*
%TD.AperFunction*%
%TD*%
%TA.AperFunction,Conductor*%
%TO.N,/V-D7*%
G36*
X153044955Y-90437130D02*
G01*
X153051279Y-90443471D01*
X153051268Y-90452425D01*
X153050688Y-90453622D01*
X152926528Y-90676801D01*
X152925089Y-90678841D01*
X152790440Y-90831906D01*
X152790256Y-90832109D01*
X152670202Y-90961555D01*
X152670199Y-90961559D01*
X152669676Y-90962123D01*
X152583131Y-91125964D01*
X152582996Y-91127002D01*
X152582996Y-91127003D01*
X152551323Y-91371006D01*
X152546859Y-91378769D01*
X152539720Y-91381200D01*
X152260280Y-91381200D01*
X152252007Y-91377773D01*
X152248677Y-91371006D01*
X152217003Y-91127003D01*
X152217003Y-91127002D01*
X152216868Y-91125964D01*
X152130322Y-90962123D01*
X152009742Y-90832109D01*
X152009536Y-90831881D01*
X151874910Y-90678841D01*
X151873471Y-90676801D01*
X151749312Y-90453622D01*
X151748284Y-90444726D01*
X151753848Y-90437710D01*
X151755041Y-90437132D01*
X152395509Y-90170867D01*
X152404491Y-90170867D01*
X153044955Y-90437130D01*
G37*
%TD.AperFunction*%
%TD*%
%TA.AperFunction,Conductor*%
%TO.N,/V-D5*%
G36*
X151755057Y-84822838D02*
G01*
X152396212Y-85087438D01*
X152402562Y-85093788D01*
X152553141Y-85458658D01*
X152667162Y-85734943D01*
X152667151Y-85743897D01*
X152660810Y-85750221D01*
X152659563Y-85750655D01*
X152535325Y-85786072D01*
X152413942Y-85820675D01*
X152411481Y-85821099D01*
X152208095Y-85834118D01*
X152207788Y-85834134D01*
X152031341Y-85840776D01*
X152031340Y-85840776D01*
X152030574Y-85840805D01*
X152029840Y-85841032D01*
X152029838Y-85841032D01*
X152008404Y-85847649D01*
X151853524Y-85895462D01*
X151657762Y-86046241D01*
X151649118Y-86048575D01*
X151642351Y-86045245D01*
X151444755Y-85847649D01*
X151441328Y-85839376D01*
X151443759Y-85832238D01*
X151594537Y-85636475D01*
X151649193Y-85459425D01*
X151655864Y-85282210D01*
X151655880Y-85281903D01*
X151668899Y-85078518D01*
X151669323Y-85076057D01*
X151739342Y-84830445D01*
X151744906Y-84823429D01*
X151753802Y-84822401D01*
X151755057Y-84822838D01*
G37*
%TD.AperFunction*%
%TD*%
%TA.AperFunction,Conductor*%
%TO.N,/V-D5*%
G36*
X153822467Y-109558427D02*
G01*
X153823510Y-109559621D01*
X153928742Y-109698185D01*
X154037484Y-109819307D01*
X154146227Y-109918365D01*
X154254970Y-109995358D01*
X154356060Y-110046421D01*
X154361900Y-110053210D01*
X154362332Y-110058748D01*
X153681547Y-114230246D01*
X153676833Y-114237860D01*
X153668116Y-114239909D01*
X153660502Y-114235195D01*
X153658453Y-114230246D01*
X152977668Y-110058748D01*
X152979717Y-110050031D01*
X152983940Y-110046421D01*
X153084631Y-109995559D01*
X153085029Y-109995358D01*
X153193771Y-109918365D01*
X153302514Y-109819307D01*
X153411257Y-109698185D01*
X153516488Y-109559624D01*
X153524221Y-109555108D01*
X153525806Y-109555000D01*
X153814194Y-109555000D01*
X153822467Y-109558427D01*
G37*
%TD.AperFunction*%
%TD*%
%TA.AperFunction,Conductor*%
%TO.N,/V-D4*%
G36*
X151282467Y-109558427D02*
G01*
X151283510Y-109559621D01*
X151388742Y-109698185D01*
X151497484Y-109819307D01*
X151606227Y-109918365D01*
X151714970Y-109995358D01*
X151816060Y-110046421D01*
X151821900Y-110053210D01*
X151822332Y-110058748D01*
X151141547Y-114230246D01*
X151136833Y-114237860D01*
X151128116Y-114239909D01*
X151120502Y-114235195D01*
X151118453Y-114230246D01*
X150437668Y-110058748D01*
X150439717Y-110050031D01*
X150443940Y-110046421D01*
X150544631Y-109995559D01*
X150545029Y-109995358D01*
X150653771Y-109918365D01*
X150762514Y-109819307D01*
X150871257Y-109698185D01*
X150976488Y-109559624D01*
X150984221Y-109555108D01*
X150985806Y-109555000D01*
X151274194Y-109555000D01*
X151282467Y-109558427D01*
G37*
%TD.AperFunction*%
%TD*%
%TA.AperFunction,Conductor*%
%TO.N,/V-D3*%
G36*
X148742467Y-109558427D02*
G01*
X148743510Y-109559621D01*
X148848742Y-109698185D01*
X148957484Y-109819307D01*
X149066227Y-109918365D01*
X149174970Y-109995358D01*
X149276060Y-110046421D01*
X149281900Y-110053210D01*
X149282332Y-110058748D01*
X148601547Y-114230246D01*
X148596833Y-114237860D01*
X148588116Y-114239909D01*
X148580502Y-114235195D01*
X148578453Y-114230246D01*
X147897668Y-110058748D01*
X147899717Y-110050031D01*
X147903940Y-110046421D01*
X148004631Y-109995559D01*
X148005029Y-109995358D01*
X148113771Y-109918365D01*
X148222514Y-109819307D01*
X148331257Y-109698185D01*
X148436488Y-109559624D01*
X148444221Y-109555108D01*
X148445806Y-109555000D01*
X148734194Y-109555000D01*
X148742467Y-109558427D01*
G37*
%TD.AperFunction*%
%TD*%
%TA.AperFunction,Conductor*%
%TO.N,/V-D3*%
G36*
X151755057Y-82282838D02*
G01*
X152396212Y-82547438D01*
X152402562Y-82553788D01*
X152553141Y-82918658D01*
X152667162Y-83194943D01*
X152667151Y-83203897D01*
X152660810Y-83210221D01*
X152659563Y-83210655D01*
X152535325Y-83246072D01*
X152413942Y-83280675D01*
X152411481Y-83281099D01*
X152208095Y-83294118D01*
X152207788Y-83294134D01*
X152031341Y-83300776D01*
X152031340Y-83300776D01*
X152030574Y-83300805D01*
X152029840Y-83301032D01*
X152029838Y-83301032D01*
X152008404Y-83307649D01*
X151853524Y-83355462D01*
X151657762Y-83506241D01*
X151649118Y-83508575D01*
X151642351Y-83505245D01*
X151444755Y-83307649D01*
X151441328Y-83299376D01*
X151443759Y-83292238D01*
X151594537Y-83096475D01*
X151649193Y-82919425D01*
X151655864Y-82742210D01*
X151655880Y-82741903D01*
X151668899Y-82538518D01*
X151669323Y-82536057D01*
X151739342Y-82290445D01*
X151744906Y-82283429D01*
X151753802Y-82282401D01*
X151755057Y-82282838D01*
G37*
%TD.AperFunction*%
%TD*%
%TA.AperFunction,Conductor*%
%TO.N,/V-A12*%
G36*
X164455057Y-79742838D02*
G01*
X165096212Y-80007438D01*
X165102562Y-80013788D01*
X165253141Y-80378658D01*
X165367162Y-80654943D01*
X165367151Y-80663897D01*
X165360810Y-80670221D01*
X165359563Y-80670655D01*
X165235325Y-80706072D01*
X165113942Y-80740675D01*
X165111481Y-80741099D01*
X164908095Y-80754118D01*
X164907788Y-80754134D01*
X164731341Y-80760776D01*
X164731340Y-80760776D01*
X164730574Y-80760805D01*
X164729840Y-80761032D01*
X164729838Y-80761032D01*
X164708404Y-80767649D01*
X164553524Y-80815462D01*
X164357762Y-80966241D01*
X164349118Y-80968575D01*
X164342351Y-80965245D01*
X164144755Y-80767649D01*
X164141328Y-80759376D01*
X164143759Y-80752238D01*
X164294537Y-80556475D01*
X164349193Y-80379425D01*
X164355864Y-80202210D01*
X164355880Y-80201903D01*
X164368899Y-79998518D01*
X164369323Y-79996057D01*
X164439342Y-79750445D01*
X164444906Y-79743429D01*
X164453802Y-79742401D01*
X164455057Y-79742838D01*
G37*
%TD.AperFunction*%
%TD*%
%TA.AperFunction,Conductor*%
%TO.N,/V-A12*%
G36*
X143820624Y-107793542D02*
G01*
X143938152Y-107897523D01*
X143938156Y-107897526D01*
X143938554Y-107897878D01*
X144041504Y-107959319D01*
X144142636Y-107995165D01*
X144142797Y-107995212D01*
X144142808Y-107995215D01*
X144204401Y-108012993D01*
X144262992Y-108029905D01*
X144263704Y-108030136D01*
X144413578Y-108084294D01*
X144420194Y-108090329D01*
X144420422Y-108099750D01*
X144274563Y-108454197D01*
X144268197Y-108460563D01*
X143956579Y-108588797D01*
X143930382Y-108599578D01*
X143913750Y-108606422D01*
X143904796Y-108606401D01*
X143898294Y-108599578D01*
X143844139Y-108449714D01*
X143843902Y-108448983D01*
X143809215Y-108328808D01*
X143809212Y-108328797D01*
X143809165Y-108328636D01*
X143773319Y-108227504D01*
X143711878Y-108124554D01*
X143711526Y-108124156D01*
X143711523Y-108124152D01*
X143607542Y-108006624D01*
X143604627Y-107998157D01*
X143608032Y-107990598D01*
X143804598Y-107794032D01*
X143812871Y-107790605D01*
X143820624Y-107793542D01*
G37*
%TD.AperFunction*%
%TD*%
%TA.AperFunction,Conductor*%
%TO.N,/V-A13*%
G36*
X170285630Y-94637729D02*
G01*
X170433123Y-94991498D01*
X170433123Y-95000502D01*
X170285630Y-95354271D01*
X170279283Y-95360589D01*
X170269862Y-95360361D01*
X170227830Y-95340643D01*
X170125597Y-95292683D01*
X170124929Y-95292342D01*
X170015252Y-95231799D01*
X169918394Y-95185635D01*
X169917836Y-95185494D01*
X169917833Y-95185493D01*
X169842714Y-95166526D01*
X169802152Y-95156284D01*
X169644986Y-95146672D01*
X169636937Y-95142747D01*
X169634000Y-95134994D01*
X169634000Y-94857006D01*
X169637427Y-94848733D01*
X169644986Y-94845328D01*
X169802152Y-94835715D01*
X169842714Y-94825473D01*
X169917833Y-94806506D01*
X169917836Y-94806505D01*
X169918394Y-94806364D01*
X170015252Y-94760200D01*
X170124929Y-94699657D01*
X170125597Y-94699316D01*
X170269862Y-94631639D01*
X170278807Y-94631227D01*
X170285630Y-94637729D01*
G37*
%TD.AperFunction*%
%TD*%
%TA.AperFunction,Conductor*%
%TO.N,/V-A14*%
G36*
X163258847Y-90169988D02*
G01*
X163267116Y-90173423D01*
X163270517Y-90182335D01*
X163262163Y-90333167D01*
X163262116Y-90333747D01*
X163248759Y-90458925D01*
X163251695Y-90564354D01*
X163291613Y-90667732D01*
X163292202Y-90668452D01*
X163382471Y-90778846D01*
X163385056Y-90787420D01*
X163381687Y-90794525D01*
X163184525Y-90991687D01*
X163176252Y-90995114D01*
X163168846Y-90992471D01*
X163058452Y-90902202D01*
X163057732Y-90901613D01*
X163056870Y-90901280D01*
X163056868Y-90901279D01*
X162955287Y-90862055D01*
X162955286Y-90862055D01*
X162954354Y-90861695D01*
X162953353Y-90861667D01*
X162953352Y-90861667D01*
X162849320Y-90858770D01*
X162848925Y-90858759D01*
X162723747Y-90872116D01*
X162723182Y-90872162D01*
X162572335Y-90880517D01*
X162563885Y-90877553D01*
X162559988Y-90868847D01*
X162559305Y-90181017D01*
X162562724Y-90172740D01*
X162571017Y-90169305D01*
X163258847Y-90169988D01*
G37*
%TD.AperFunction*%
%TD*%
%TA.AperFunction,Conductor*%
%TO.N,/V-A14*%
G36*
X173612441Y-88632989D02*
G01*
X173883062Y-88904567D01*
X173886474Y-88912847D01*
X173882510Y-88921604D01*
X173781710Y-89010441D01*
X173781109Y-89010936D01*
X173691332Y-89080011D01*
X173691326Y-89080016D01*
X173691043Y-89080234D01*
X173623294Y-89147113D01*
X173580753Y-89236462D01*
X173566000Y-89373410D01*
X173266000Y-89373410D01*
X173260072Y-89188862D01*
X173245936Y-89058273D01*
X173238537Y-89008896D01*
X173229099Y-88945901D01*
X173229038Y-88945426D01*
X173214976Y-88815524D01*
X173214914Y-88814641D01*
X173209387Y-88642582D01*
X173212546Y-88634203D01*
X173221052Y-88630506D01*
X173376675Y-88630117D01*
X173604124Y-88629548D01*
X173612441Y-88632989D01*
G37*
%TD.AperFunction*%
%TD*%
%TA.AperFunction,Conductor*%
%TO.N,/V-A14*%
G36*
X173593716Y-89182519D02*
G01*
X173598797Y-89198564D01*
X173621432Y-89270038D01*
X173649149Y-89348557D01*
X173676865Y-89418077D01*
X173676932Y-89418223D01*
X173702236Y-89473474D01*
X173702566Y-89482423D01*
X173702041Y-89483624D01*
X173426442Y-90028843D01*
X173419651Y-90034681D01*
X173410722Y-90034007D01*
X173405558Y-90028843D01*
X173129960Y-89483625D01*
X173129286Y-89474696D01*
X173129764Y-89473475D01*
X173155082Y-89418190D01*
X173155134Y-89418077D01*
X173182850Y-89348557D01*
X173210567Y-89270038D01*
X173238283Y-89182519D01*
X173242291Y-89168564D01*
X173253295Y-89130242D01*
X173266000Y-89086000D01*
X173566000Y-89086000D01*
X173593716Y-89182519D01*
G37*
%TD.AperFunction*%
%TD*%
%TA.AperFunction,Conductor*%
%TO.N,/V-RW*%
G36*
X164959204Y-92561599D02*
G01*
X164965706Y-92568422D01*
X165019859Y-92718284D01*
X165020093Y-92719006D01*
X165054833Y-92839363D01*
X165090679Y-92940495D01*
X165152121Y-93043444D01*
X165152473Y-93043842D01*
X165152476Y-93043846D01*
X165256458Y-93161376D01*
X165259373Y-93169843D01*
X165255968Y-93177402D01*
X165059402Y-93373968D01*
X165051129Y-93377395D01*
X165043376Y-93374458D01*
X164925846Y-93270476D01*
X164925842Y-93270473D01*
X164925444Y-93270121D01*
X164822495Y-93208679D01*
X164764364Y-93188075D01*
X164721527Y-93172891D01*
X164721523Y-93172890D01*
X164721363Y-93172833D01*
X164721202Y-93172786D01*
X164721191Y-93172783D01*
X164659642Y-93155018D01*
X164601006Y-93138093D01*
X164600294Y-93137862D01*
X164450422Y-93083706D01*
X164443806Y-93077671D01*
X164443578Y-93068250D01*
X164495946Y-92940992D01*
X164589437Y-92713803D01*
X164595803Y-92707437D01*
X164907421Y-92579203D01*
X164950250Y-92561578D01*
X164959204Y-92561599D01*
G37*
%TD.AperFunction*%
%TD*%
%TA.AperFunction,Conductor*%
%TO.N,/V-RW*%
G36*
X143663496Y-109638210D02*
G01*
X143768742Y-109758507D01*
X143877484Y-109862260D01*
X143986227Y-109945475D01*
X144094970Y-110008150D01*
X144095379Y-110008308D01*
X144095380Y-110008309D01*
X144116582Y-110016524D01*
X144194866Y-110046859D01*
X144201341Y-110053043D01*
X144202185Y-110059651D01*
X143521547Y-114230247D01*
X143516833Y-114237860D01*
X143508115Y-114239909D01*
X143500502Y-114235195D01*
X143498453Y-114230247D01*
X142817815Y-110059652D01*
X142819864Y-110050935D01*
X142825134Y-110046859D01*
X142888524Y-110022296D01*
X142924609Y-110008313D01*
X142924612Y-110008312D01*
X142925029Y-110008150D01*
X142965047Y-109985085D01*
X143033442Y-109945665D01*
X143033446Y-109945662D01*
X143033771Y-109945475D01*
X143142514Y-109862260D01*
X143251257Y-109758507D01*
X143356504Y-109638210D01*
X143365310Y-109634214D01*
X143654690Y-109634214D01*
X143663496Y-109638210D01*
G37*
%TD.AperFunction*%
%TD*%
%TA.AperFunction,Conductor*%
%TO.N,/V-RW*%
G36*
X177904271Y-91334370D02*
G01*
X177910589Y-91340717D01*
X177910361Y-91350138D01*
X177842687Y-91494393D01*
X177842342Y-91495069D01*
X177781799Y-91604746D01*
X177735635Y-91701605D01*
X177706284Y-91817847D01*
X177696000Y-91986000D01*
X177396000Y-91986000D01*
X177385715Y-91817847D01*
X177356364Y-91701605D01*
X177310200Y-91604746D01*
X177249657Y-91495069D01*
X177249312Y-91494393D01*
X177181639Y-91350138D01*
X177181227Y-91341193D01*
X177187729Y-91334370D01*
X177541498Y-91186877D01*
X177550502Y-91186877D01*
X177904271Y-91334370D01*
G37*
%TD.AperFunction*%
%TD*%
%TA.AperFunction,Conductor*%
%TO.N,/V-RW*%
G36*
X177723716Y-91457519D02*
G01*
X177751432Y-91545038D01*
X177776462Y-91615944D01*
X177779149Y-91623557D01*
X177806865Y-91693077D01*
X177806932Y-91693223D01*
X177832236Y-91748474D01*
X177832566Y-91757423D01*
X177832041Y-91758624D01*
X177556442Y-92303843D01*
X177549651Y-92309681D01*
X177540722Y-92309007D01*
X177535558Y-92303843D01*
X177259960Y-91758625D01*
X177259286Y-91749696D01*
X177259764Y-91748475D01*
X177285082Y-91693190D01*
X177285134Y-91693077D01*
X177312850Y-91623557D01*
X177340567Y-91545038D01*
X177368283Y-91457519D01*
X177396000Y-91361000D01*
X177696000Y-91361000D01*
X177723716Y-91457519D01*
G37*
%TD.AperFunction*%
%TD*%
%TA.AperFunction,Conductor*%
%TO.N,/V-RW*%
G36*
X171047630Y-93621729D02*
G01*
X171195123Y-93975498D01*
X171195123Y-93984502D01*
X171047630Y-94338271D01*
X171041283Y-94344589D01*
X171031862Y-94344361D01*
X170989830Y-94324643D01*
X170887597Y-94276683D01*
X170886929Y-94276342D01*
X170777252Y-94215799D01*
X170680394Y-94169635D01*
X170679836Y-94169494D01*
X170679833Y-94169493D01*
X170604714Y-94150526D01*
X170564152Y-94140284D01*
X170406986Y-94130672D01*
X170398937Y-94126747D01*
X170396000Y-94118994D01*
X170396000Y-93841006D01*
X170399427Y-93832733D01*
X170406986Y-93829328D01*
X170564152Y-93819715D01*
X170604714Y-93809473D01*
X170679833Y-93790506D01*
X170679836Y-93790505D01*
X170680394Y-93790364D01*
X170777252Y-93744200D01*
X170886929Y-93683657D01*
X170887597Y-93683316D01*
X171031862Y-93615639D01*
X171040807Y-93615227D01*
X171047630Y-93621729D01*
G37*
%TD.AperFunction*%
%TD*%
%TA.AperFunction,Conductor*%
%TO.N,/V-RW*%
G36*
X142598271Y-104542370D02*
G01*
X142604589Y-104548717D01*
X142604361Y-104558138D01*
X142536687Y-104702393D01*
X142536342Y-104703069D01*
X142475799Y-104812746D01*
X142429635Y-104909605D01*
X142400284Y-105025847D01*
X142400251Y-105026389D01*
X142390672Y-105183014D01*
X142386747Y-105191063D01*
X142378994Y-105194000D01*
X142101006Y-105194000D01*
X142092733Y-105190573D01*
X142089328Y-105183014D01*
X142079748Y-105026389D01*
X142079715Y-105025847D01*
X142050364Y-104909605D01*
X142004200Y-104812746D01*
X141943657Y-104703069D01*
X141943312Y-104702393D01*
X141875639Y-104558138D01*
X141875227Y-104549193D01*
X141881729Y-104542370D01*
X142235498Y-104394877D01*
X142244502Y-104394877D01*
X142598271Y-104542370D01*
G37*
%TD.AperFunction*%
%TD*%
%TA.AperFunction,Conductor*%
%TO.N,/PB6*%
G36*
X142640545Y-102171312D02*
G01*
X142643972Y-102179613D01*
X142643584Y-102341945D01*
X142643584Y-102342011D01*
X142642592Y-102465582D01*
X142642577Y-102465582D01*
X142642592Y-102465617D01*
X142642276Y-102494084D01*
X142641408Y-102572302D01*
X142640416Y-102695873D01*
X142640028Y-102858357D01*
X142636581Y-102866622D01*
X142628357Y-102870029D01*
X142489788Y-102870376D01*
X142244876Y-102870988D01*
X142236559Y-102867547D01*
X142235637Y-102866622D01*
X141966390Y-102596422D01*
X141962978Y-102588143D01*
X141966419Y-102579876D01*
X141967392Y-102579010D01*
X142074085Y-102494084D01*
X142075670Y-102493021D01*
X142180456Y-102434589D01*
X142206267Y-102418284D01*
X142264977Y-102381197D01*
X142264979Y-102381195D01*
X142265918Y-102380602D01*
X142323130Y-102301657D01*
X142342456Y-102177781D01*
X142347117Y-102170135D01*
X142354016Y-102167885D01*
X142632272Y-102167885D01*
X142640545Y-102171312D01*
G37*
%TD.AperFunction*%
%TD*%
%TA.AperFunction,Conductor*%
%TO.N,/PB6*%
G36*
X165857649Y-81594755D02*
G01*
X166055245Y-81792351D01*
X166058672Y-81800624D01*
X166056242Y-81807762D01*
X165905462Y-82003524D01*
X165850805Y-82180574D01*
X165850776Y-82181340D01*
X165850776Y-82181341D01*
X165844134Y-82357788D01*
X165844118Y-82358095D01*
X165831099Y-82561481D01*
X165830675Y-82563942D01*
X165760658Y-82809555D01*
X165755094Y-82816571D01*
X165746198Y-82817599D01*
X165744943Y-82817162D01*
X165595295Y-82755404D01*
X165103788Y-82552562D01*
X165097438Y-82546212D01*
X164873888Y-82004526D01*
X164832838Y-81905057D01*
X164832849Y-81896103D01*
X164839190Y-81889779D01*
X164840439Y-81889344D01*
X164950538Y-81857957D01*
X165086057Y-81819323D01*
X165088518Y-81818899D01*
X165291903Y-81805880D01*
X165292210Y-81805864D01*
X165468658Y-81799222D01*
X165468659Y-81799222D01*
X165469425Y-81799193D01*
X165470160Y-81798966D01*
X165470161Y-81798966D01*
X165538661Y-81777820D01*
X165646475Y-81744537D01*
X165842238Y-81593759D01*
X165850882Y-81591425D01*
X165857649Y-81594755D01*
G37*
%TD.AperFunction*%
%TD*%
%TA.AperFunction,Conductor*%
%TO.N,/IRQ*%
G36*
X164357762Y-86673759D02*
G01*
X164553524Y-86824537D01*
X164661338Y-86857820D01*
X164729838Y-86878966D01*
X164729839Y-86878966D01*
X164730574Y-86879193D01*
X164731340Y-86879222D01*
X164731341Y-86879222D01*
X164907788Y-86885864D01*
X164908095Y-86885880D01*
X165111481Y-86898899D01*
X165113942Y-86899323D01*
X165247483Y-86937393D01*
X165359556Y-86969343D01*
X165366571Y-86974906D01*
X165367599Y-86983802D01*
X165367162Y-86985057D01*
X165326112Y-87084526D01*
X165102562Y-87626212D01*
X165096212Y-87632562D01*
X164455057Y-87897162D01*
X164446103Y-87897151D01*
X164439779Y-87890810D01*
X164439342Y-87889555D01*
X164369323Y-87643942D01*
X164368899Y-87641481D01*
X164355880Y-87438095D01*
X164355864Y-87437788D01*
X164349222Y-87261341D01*
X164349222Y-87261340D01*
X164349193Y-87260574D01*
X164294537Y-87083524D01*
X164143759Y-86887762D01*
X164141425Y-86879118D01*
X164144755Y-86872351D01*
X164342351Y-86674755D01*
X164350624Y-86671328D01*
X164357762Y-86673759D01*
G37*
%TD.AperFunction*%
%TD*%
%TA.AperFunction,Conductor*%
%TO.N,/IRQ*%
G36*
X136043496Y-109638210D02*
G01*
X136148742Y-109758507D01*
X136257484Y-109862260D01*
X136366227Y-109945475D01*
X136474970Y-110008150D01*
X136475379Y-110008308D01*
X136475380Y-110008309D01*
X136496582Y-110016524D01*
X136574866Y-110046859D01*
X136581341Y-110053043D01*
X136582185Y-110059651D01*
X135901547Y-114230247D01*
X135896833Y-114237860D01*
X135888115Y-114239909D01*
X135880502Y-114235195D01*
X135878453Y-114230247D01*
X135197815Y-110059652D01*
X135199864Y-110050935D01*
X135205134Y-110046859D01*
X135268524Y-110022296D01*
X135304609Y-110008313D01*
X135304612Y-110008312D01*
X135305029Y-110008150D01*
X135345047Y-109985085D01*
X135413442Y-109945665D01*
X135413446Y-109945662D01*
X135413771Y-109945475D01*
X135522514Y-109862260D01*
X135631257Y-109758507D01*
X135736504Y-109638210D01*
X135745310Y-109634214D01*
X136034690Y-109634214D01*
X136043496Y-109638210D01*
G37*
%TD.AperFunction*%
%TD*%
%TA.AperFunction,Conductor*%
%TO.N,Net-(U1-Pad22)*%
G36*
X151023993Y-94804227D02*
G01*
X151027323Y-94810994D01*
X151059131Y-95056034D01*
X151145676Y-95219876D01*
X151146199Y-95220440D01*
X151146202Y-95220444D01*
X151266256Y-95349890D01*
X151266440Y-95350093D01*
X151385773Y-95485747D01*
X151401089Y-95503157D01*
X151402528Y-95505197D01*
X151526688Y-95728378D01*
X151527716Y-95737274D01*
X151522152Y-95744290D01*
X151520959Y-95744868D01*
X150880491Y-96011133D01*
X150871509Y-96011133D01*
X150231045Y-95744870D01*
X150224721Y-95738529D01*
X150224732Y-95729575D01*
X150225312Y-95728378D01*
X150349471Y-95505197D01*
X150350910Y-95503157D01*
X150367106Y-95484746D01*
X150485558Y-95350093D01*
X150485742Y-95349890D01*
X150605796Y-95220444D01*
X150605799Y-95220440D01*
X150606322Y-95219876D01*
X150692868Y-95056034D01*
X150724677Y-94810994D01*
X150729141Y-94803231D01*
X150736280Y-94800800D01*
X151015720Y-94800800D01*
X151023993Y-94804227D01*
G37*
%TD.AperFunction*%
%TD*%
%TA.AperFunction,Conductor*%
%TO.N,Net-(U1-Pad22)*%
G36*
X178049649Y-95056755D02*
G01*
X178247245Y-95254351D01*
X178250672Y-95262624D01*
X178248242Y-95269762D01*
X178097462Y-95465524D01*
X178042805Y-95642574D01*
X178042776Y-95643340D01*
X178042776Y-95643341D01*
X178036134Y-95819788D01*
X178036118Y-95820095D01*
X178023099Y-96023481D01*
X178022675Y-96025942D01*
X177952658Y-96271555D01*
X177947094Y-96278571D01*
X177938198Y-96279599D01*
X177936943Y-96279162D01*
X177787295Y-96217404D01*
X177295788Y-96014562D01*
X177289438Y-96008212D01*
X177065888Y-95466526D01*
X177024838Y-95367057D01*
X177024849Y-95358103D01*
X177031190Y-95351779D01*
X177032439Y-95351344D01*
X177142538Y-95319957D01*
X177278057Y-95281323D01*
X177280518Y-95280899D01*
X177483903Y-95267880D01*
X177484210Y-95267864D01*
X177660658Y-95261222D01*
X177660659Y-95261222D01*
X177661425Y-95261193D01*
X177662160Y-95260966D01*
X177662161Y-95260966D01*
X177730661Y-95239820D01*
X177838475Y-95206537D01*
X178034238Y-95055759D01*
X178042882Y-95053425D01*
X178049649Y-95056755D01*
G37*
%TD.AperFunction*%
%TD*%
%TA.AperFunction,Conductor*%
%TO.N,Net-(U1-Pad22)*%
G36*
X151755057Y-87362838D02*
G01*
X152396212Y-87627438D01*
X152402562Y-87633788D01*
X152553141Y-87998658D01*
X152667162Y-88274943D01*
X152667151Y-88283897D01*
X152660810Y-88290221D01*
X152659563Y-88290655D01*
X152535325Y-88326072D01*
X152413942Y-88360675D01*
X152411481Y-88361099D01*
X152208095Y-88374118D01*
X152207788Y-88374134D01*
X152031341Y-88380776D01*
X152031340Y-88380776D01*
X152030574Y-88380805D01*
X152029840Y-88381032D01*
X152029838Y-88381032D01*
X152008404Y-88387649D01*
X151853524Y-88435462D01*
X151657762Y-88586241D01*
X151649118Y-88588575D01*
X151642351Y-88585245D01*
X151444755Y-88387649D01*
X151441328Y-88379376D01*
X151443759Y-88372238D01*
X151594537Y-88176475D01*
X151649193Y-87999425D01*
X151655864Y-87822210D01*
X151655880Y-87821903D01*
X151668899Y-87618518D01*
X151669323Y-87616057D01*
X151739342Y-87370445D01*
X151744906Y-87363429D01*
X151753802Y-87362401D01*
X151755057Y-87362838D01*
G37*
%TD.AperFunction*%
%TD*%
%TA.AperFunction,Conductor*%
%TO.N,Net-(U1-Pad22)*%
G36*
X178795007Y-89928349D02*
G01*
X178800909Y-89933806D01*
X178857233Y-90043610D01*
X178859639Y-90048301D01*
X178923279Y-90163367D01*
X178986918Y-90269433D01*
X178986970Y-90269512D01*
X179050503Y-90366416D01*
X179050513Y-90366430D01*
X179050558Y-90366499D01*
X179079356Y-90406351D01*
X179108360Y-90446488D01*
X179110428Y-90455201D01*
X179107150Y-90461614D01*
X178906332Y-90662432D01*
X178898059Y-90665859D01*
X178896120Y-90665696D01*
X178864660Y-90660397D01*
X178846605Y-90660089D01*
X178827694Y-90659765D01*
X178827687Y-90659765D01*
X178827255Y-90659758D01*
X178826824Y-90659816D01*
X178826822Y-90659816D01*
X178790274Y-90664722D01*
X178790273Y-90664722D01*
X178789850Y-90664779D01*
X178789436Y-90664897D01*
X178789437Y-90664897D01*
X178752829Y-90675351D01*
X178752824Y-90675353D01*
X178752445Y-90675461D01*
X178726692Y-90686714D01*
X178717740Y-90686887D01*
X178711287Y-90680678D01*
X178710935Y-90679771D01*
X178534750Y-90163429D01*
X178498847Y-90058209D01*
X178499418Y-90049274D01*
X178505473Y-90043610D01*
X178786052Y-89928324D01*
X178795007Y-89928349D01*
G37*
%TD.AperFunction*%
%TD*%
M02*
