%TF.GenerationSoftware,KiCad,Pcbnew,(6.99.0-3907-g11dc5424cb)*%
%TF.CreationDate,2022-10-22T08:16:01+02:00*%
%TF.ProjectId,Vectorblade_PLCC32_THT_Kicad7,56656374-6f72-4626-9c61-64655f504c43,rev?*%
%TF.SameCoordinates,Original*%
%TF.FileFunction,Copper,L1,Top*%
%TF.FilePolarity,Positive*%
%FSLAX46Y46*%
G04 Gerber Fmt 4.6, Leading zero omitted, Abs format (unit mm)*
G04 Created by KiCad (PCBNEW (6.99.0-3907-g11dc5424cb)) date 2022-10-22 08:16:01*
%MOMM*%
%LPD*%
G01*
G04 APERTURE LIST*
G04 Aperture macros list*
%AMRoundRect*
0 Rectangle with rounded corners*
0 $1 Rounding radius*
0 $2 $3 $4 $5 $6 $7 $8 $9 X,Y pos of 4 corners*
0 Add a 4 corners polygon primitive as box body*
4,1,4,$2,$3,$4,$5,$6,$7,$8,$9,$2,$3,0*
0 Add four circle primitives for the rounded corners*
1,1,$1+$1,$2,$3*
1,1,$1+$1,$4,$5*
1,1,$1+$1,$6,$7*
1,1,$1+$1,$8,$9*
0 Add four rect primitives between the rounded corners*
20,1,$1+$1,$2,$3,$4,$5,0*
20,1,$1+$1,$4,$5,$6,$7,0*
20,1,$1+$1,$6,$7,$8,$9,0*
20,1,$1+$1,$8,$9,$2,$3,0*%
G04 Aperture macros list end*
%TA.AperFunction,ComponentPad*%
%ADD10C,1.422400*%
%TD*%
%TA.AperFunction,ComponentPad*%
%ADD11R,1.422400X1.422400*%
%TD*%
%TA.AperFunction,SMDPad,CuDef*%
%ADD12RoundRect,0.666750X-0.222250X-3.778250X0.222250X-3.778250X0.222250X3.778250X-0.222250X3.778250X0*%
%TD*%
%TA.AperFunction,SMDPad,CuDef*%
%ADD13RoundRect,0.150000X0.150000X-0.512500X0.150000X0.512500X-0.150000X0.512500X-0.150000X-0.512500X0*%
%TD*%
%TA.AperFunction,SMDPad,CuDef*%
%ADD14RoundRect,0.250000X-0.325000X-0.650000X0.325000X-0.650000X0.325000X0.650000X-0.325000X0.650000X0*%
%TD*%
%TA.AperFunction,SMDPad,CuDef*%
%ADD15RoundRect,0.150000X-0.150000X0.512500X-0.150000X-0.512500X0.150000X-0.512500X0.150000X0.512500X0*%
%TD*%
%TA.AperFunction,ViaPad*%
%ADD16C,0.800000*%
%TD*%
%TA.AperFunction,Conductor*%
%ADD17C,0.300000*%
%TD*%
%TA.AperFunction,Conductor*%
%ADD18C,1.240000*%
%TD*%
%TA.AperFunction,Conductor*%
%ADD19C,1.000000*%
%TD*%
%TA.AperFunction,Conductor*%
%ADD20C,0.600000*%
%TD*%
G04 APERTURE END LIST*
D10*
%TO.P,,22,CE*%
%TO.N,/~{CE}*%
X150876000Y-94488000D03*
%TD*%
D11*
%TO.P,U1,1,NC*%
%TO.N,unconnected-(U1-Pad1)*%
X162559999Y-85089999D03*
D10*
%TO.P,U1,2,A16*%
%TO.N,/PB6*%
X165100000Y-82550000D03*
%TO.P,U1,3,A15*%
%TO.N,/V-A15*%
X162560000Y-82550000D03*
%TO.P,U1,4,A12*%
%TO.N,/V-A12*%
X165100000Y-80010000D03*
%TO.P,U1,5,A7*%
%TO.N,/V-A7*%
X162560000Y-77470000D03*
%TO.P,U1,6,A6*%
%TO.N,/V-A6*%
X162560000Y-80010000D03*
%TO.P,U1,7,A5*%
%TO.N,/V-A5*%
X160020000Y-77470000D03*
%TO.P,U1,8,A4*%
%TO.N,/V-A4*%
X160020000Y-80010000D03*
%TO.P,U1,9,A3*%
%TO.N,/V-A3*%
X157480000Y-77470000D03*
%TO.P,U1,10,A2*%
%TO.N,/V-A2*%
X157480000Y-80010000D03*
%TO.P,U1,11,A1*%
%TO.N,/V-A1*%
X154940000Y-77470000D03*
%TO.P,U1,12,A0*%
%TO.N,/V-A0*%
X154940000Y-80010000D03*
%TO.P,U1,13,D0*%
%TO.N,/V-D0*%
X152400000Y-77470000D03*
%TO.P,U1,14,D1*%
%TO.N,/V-D1*%
X149860000Y-80010000D03*
%TO.P,U1,15,D2*%
%TO.N,/V-D2*%
X152400000Y-80010000D03*
%TO.P,U1,16,GND*%
%TO.N,GND*%
X149860000Y-82550000D03*
%TO.P,U1,17,D3*%
%TO.N,/V-D3*%
X152400000Y-82550000D03*
%TO.P,U1,18,D4*%
%TO.N,/V-D4*%
X149860000Y-85090000D03*
%TO.P,U1,19,D5*%
%TO.N,/V-D5*%
X152400000Y-85090000D03*
%TO.P,U1,20,D6*%
%TO.N,/V-D6*%
X149860000Y-87630000D03*
%TO.P,U1,21,D7*%
%TO.N,/V-D7*%
X152400000Y-90170000D03*
%TO.P,U1,22,CE*%
%TO.N,/~{CE}*%
X152400000Y-87630000D03*
%TO.P,U1,23,A10*%
%TO.N,/V-A10*%
X154940000Y-90170000D03*
%TO.P,U1,24,OE*%
%TO.N,/~{OE}*%
X154940000Y-87630000D03*
%TO.P,U1,25,A11*%
%TO.N,/V-A11*%
X157480000Y-90170000D03*
%TO.P,U1,26,A9*%
%TO.N,/V-A9*%
X157480000Y-87630000D03*
%TO.P,U1,27,A8*%
%TO.N,/V-A8*%
X160020000Y-90170000D03*
%TO.P,U1,28,A13*%
%TO.N,/V-A13*%
X160020000Y-87630000D03*
%TO.P,U1,29,A14*%
%TO.N,/V-A14*%
X162560000Y-90170000D03*
%TO.P,U1,30,A17*%
%TO.N,/IRQ*%
X165100000Y-87630000D03*
%TO.P,U1,31,PGM*%
%TO.N,/V-RW*%
X162560000Y-87630000D03*
%TO.P,U1,32,VCC*%
%TO.N,+5V*%
X165100000Y-85090000D03*
%TD*%
D12*
%TO.P,CON3,2,VCC*%
%TO.N,+5V*%
X179070000Y-114300000D03*
%TO.P,CON3,4,VCC2*%
X176530000Y-114300000D03*
%TO.P,CON3,6,A8*%
%TO.N,/V-A8*%
X173990000Y-114300000D03*
%TO.P,CON3,8,A9*%
%TO.N,/V-A9*%
X171450000Y-114300000D03*
%TO.P,CON3,10,A11*%
%TO.N,/V-A11*%
X168910000Y-114300000D03*
%TO.P,CON3,12,OE*%
%TO.N,unconnected-(CON3-Pad12)*%
X166370000Y-114300000D03*
%TO.P,CON3,14,A10*%
%TO.N,/V-A10*%
X163830000Y-114300000D03*
%TO.P,CON3,16,CE*%
%TO.N,unconnected-(CON3-Pad16)*%
X161290000Y-114300000D03*
%TO.P,CON3,18,D7*%
%TO.N,/V-D7*%
X158750000Y-114300000D03*
%TO.P,CON3,20,D6*%
%TO.N,/V-D6*%
X156210000Y-114300000D03*
%TO.P,CON3,22,D5*%
%TO.N,/V-D5*%
X153670000Y-114300000D03*
%TO.P,CON3,24,D4*%
%TO.N,/V-D4*%
X151130000Y-114300000D03*
%TO.P,CON3,26,D3*%
%TO.N,/V-D3*%
X148590000Y-114300000D03*
%TO.P,CON3,28,GND2*%
%TO.N,GND*%
X146050000Y-114300000D03*
%TO.P,CON3,30,RW*%
%TO.N,/V-RW*%
X143510000Y-114300000D03*
%TO.P,CON3,32,CART*%
%TO.N,unconnected-(CON3-Pad32)*%
X140970000Y-114300000D03*
%TO.P,CON3,34,NMI*%
%TO.N,unconnected-(CON3-Pad34)*%
X138430000Y-114300000D03*
%TO.P,CON3,36,IRQ*%
%TO.N,/IRQ*%
X135890000Y-114300000D03*
%TD*%
D10*
%TO.P,,22,CE*%
%TO.N,/~{OE}*%
X177292000Y-96012000D03*
%TD*%
D13*
%TO.P,U3,1*%
%TO.N,N/C*%
X176596000Y-92323500D03*
%TO.P,U3,2*%
%TO.N,/V-RW*%
X177546000Y-92323500D03*
%TO.P,U3,3,GND*%
%TO.N,GND*%
X178496000Y-92323500D03*
%TO.P,U3,4*%
%TO.N,/~{OE}*%
X178496000Y-90048500D03*
%TO.P,U3,5,VCC*%
%TO.N,+5V*%
X176596000Y-90048500D03*
%TD*%
D14*
%TO.P,C1,1,1*%
%TO.N,+5V*%
X173023000Y-85090000D03*
%TO.P,C1,2,2*%
%TO.N,GND*%
X175973000Y-85090000D03*
%TD*%
D10*
%TO.P,,24,OE*%
%TO.N,/~{OE}*%
X154940000Y-96012000D03*
%TD*%
%TO.P,,24,OE*%
%TO.N,/~{CE}*%
X172720000Y-94488000D03*
%TD*%
D15*
%TO.P,U2,1*%
%TO.N,/V-A14*%
X173416000Y-90048500D03*
%TO.P,U2,2*%
%TO.N,/V-A15*%
X172466000Y-90048500D03*
%TO.P,U2,3,GND*%
%TO.N,GND*%
X171516000Y-90048500D03*
%TO.P,U2,4*%
%TO.N,/~{CE}*%
X171516000Y-92323500D03*
%TO.P,U2,5,VCC*%
%TO.N,+5V*%
X173416000Y-92323500D03*
%TD*%
D16*
%TO.N,GND*%
X135890000Y-104775000D03*
X175260000Y-82804000D03*
X146050000Y-107188000D03*
X171323000Y-88667977D03*
X147320000Y-105918000D03*
X144780000Y-97536000D03*
X135890000Y-97155000D03*
X177546000Y-94234000D03*
X168656000Y-76962000D03*
X147320000Y-108458000D03*
X144780000Y-94742000D03*
X135890000Y-74930000D03*
X144780000Y-85852000D03*
X171958000Y-81026000D03*
X178816000Y-86995000D03*
X179070000Y-97155000D03*
X179070000Y-74930000D03*
X146050000Y-108458000D03*
X144780000Y-91694000D03*
X171958000Y-83058000D03*
X176403000Y-94234000D03*
X147320000Y-107188000D03*
X176403000Y-86995000D03*
X144780000Y-88900000D03*
X146050000Y-105918000D03*
X144780000Y-100330000D03*
X179070000Y-104775000D03*
%TO.N,/V-A5*%
X167386000Y-81280000D03*
%TO.N,/V-A12*%
X144272000Y-108458000D03*
%TO.N,/V-A13*%
X170434000Y-94996000D03*
%TO.N,/V-A14*%
X173609000Y-88630536D03*
%TO.N,/V-RW*%
X177546000Y-91186000D03*
X171196000Y-93980000D03*
X164592000Y-92710000D03*
X142240000Y-104394000D03*
%TO.N,/PB6*%
X142240000Y-102870000D03*
%TD*%
D17*
%TO.N,GND*%
X171323000Y-88667977D02*
X171516000Y-88860977D01*
D18*
X149860000Y-82550000D02*
X148336000Y-82550000D01*
D17*
X178496000Y-93284000D02*
X178496000Y-92323500D01*
X171516000Y-88860977D02*
X171516000Y-90048500D01*
X177546000Y-94234000D02*
X178496000Y-93284000D01*
D19*
%TO.N,+5V*%
X174713107Y-87559357D02*
X173315893Y-86162143D01*
X175006000Y-96105786D02*
X175006000Y-88266464D01*
D20*
X176596000Y-90048500D02*
X175006000Y-90048500D01*
D19*
X176530000Y-106680000D02*
X173012893Y-103162893D01*
X173023000Y-85090000D02*
X165100000Y-85090000D01*
X173012893Y-98513107D02*
X174713107Y-96812893D01*
X176530000Y-114300000D02*
X176530000Y-106680000D01*
X176530000Y-106680000D02*
X178777107Y-108927107D01*
X179070000Y-109634214D02*
X179070000Y-114300000D01*
D20*
X173416000Y-92323500D02*
X175006000Y-92323500D01*
D19*
X173023000Y-85455036D02*
X173023000Y-85090000D01*
X172720000Y-102455786D02*
X172720000Y-99220214D01*
X173022975Y-85455036D02*
G75*
G03*
X173315894Y-86162142I1000025J36D01*
G01*
X172720010Y-102455786D02*
G75*
G03*
X173012893Y-103162893I999990J-14D01*
G01*
X173012886Y-98513100D02*
G75*
G03*
X172720000Y-99220214I707114J-707100D01*
G01*
X175006025Y-88266464D02*
G75*
G03*
X174713106Y-87559358I-1000025J-36D01*
G01*
X179069990Y-109634214D02*
G75*
G03*
X178777107Y-108927107I-999990J14D01*
G01*
X174713114Y-96812900D02*
G75*
G03*
X175006000Y-96105786I-707114J707100D01*
G01*
D17*
%TO.N,/V-A8*%
X173697107Y-106387107D02*
X160312893Y-93002893D01*
X160020000Y-92295786D02*
X160020000Y-90170000D01*
X173990000Y-114300000D02*
X173990000Y-107094214D01*
X160020010Y-92295786D02*
G75*
G03*
X160312893Y-93002893I999990J-14D01*
G01*
X173989990Y-107094214D02*
G75*
G03*
X173697107Y-106387107I-999990J14D01*
G01*
%TO.N,/V-A5*%
X164685786Y-76200000D02*
X161704214Y-76200000D01*
X167093107Y-78193107D02*
X165392893Y-76492893D01*
X160997107Y-76492893D02*
X160020000Y-77470000D01*
X167386000Y-81280000D02*
X167386000Y-78900214D01*
X167385990Y-78900214D02*
G75*
G03*
X167093107Y-78193107I-999990J14D01*
G01*
X161704214Y-76200010D02*
G75*
G03*
X160997107Y-76492893I-14J-999990D01*
G01*
X165392900Y-76492886D02*
G75*
G03*
X164685786Y-76200000I-707100J-707114D01*
G01*
%TO.N,/V-A9*%
X158457107Y-88607107D02*
X157480000Y-87630000D01*
X171157107Y-105117107D02*
X159042893Y-93002893D01*
X158750000Y-92295786D02*
X158750000Y-89314214D01*
X171450000Y-114300000D02*
X171450000Y-105824214D01*
X158750010Y-92295786D02*
G75*
G03*
X159042893Y-93002893I999990J-14D01*
G01*
X158749990Y-89314214D02*
G75*
G03*
X158457107Y-88607107I-999990J14D01*
G01*
X171449990Y-105824214D02*
G75*
G03*
X171157107Y-105117107I-999990J14D01*
G01*
%TO.N,/V-A11*%
X168910000Y-114300000D02*
X168910000Y-104554214D01*
X168617107Y-103847107D02*
X157772893Y-93002893D01*
X157480000Y-92295786D02*
X157480000Y-90170000D01*
X168909990Y-104554214D02*
G75*
G03*
X168617107Y-103847107I-999990J14D01*
G01*
X157480010Y-92295786D02*
G75*
G03*
X157772893Y-93002893I999990J-14D01*
G01*
%TO.N,/V-A10*%
X163830000Y-114300000D02*
X163830000Y-100744214D01*
X163537107Y-100037107D02*
X155161908Y-91661908D01*
X154940000Y-91126175D02*
X154940000Y-90170000D01*
X154940006Y-91126175D02*
G75*
G03*
X155161908Y-91661908I757594J-25D01*
G01*
X163829990Y-100744214D02*
G75*
G03*
X163537107Y-100037107I-999990J14D01*
G01*
%TO.N,/V-D7*%
X157850000Y-108712000D02*
X157386214Y-108712000D01*
X156679107Y-108419107D02*
X152692893Y-104432893D01*
X152400000Y-103725786D02*
X152400000Y-90170000D01*
X158750000Y-114300000D02*
X158750000Y-109612000D01*
X152400010Y-103725786D02*
G75*
G03*
X152692893Y-104432893I999990J-14D01*
G01*
X158750000Y-109612000D02*
G75*
G03*
X157850000Y-108712000I-900000J0D01*
G01*
X156679121Y-108419093D02*
G75*
G03*
X157386214Y-108712000I707079J706993D01*
G01*
%TO.N,/V-D6*%
X155917107Y-108927107D02*
X149644893Y-102654893D01*
X149352000Y-88138000D02*
X149860000Y-87630000D01*
X156210000Y-114300000D02*
X156210000Y-109634214D01*
X149352000Y-101947786D02*
X149352000Y-88138000D01*
X156209990Y-109634214D02*
G75*
G03*
X155917107Y-108927107I-999990J14D01*
G01*
X149352010Y-101947786D02*
G75*
G03*
X149644893Y-102654893I999990J-14D01*
G01*
%TO.N,/V-D5*%
X150715786Y-86360000D02*
X149590000Y-86360000D01*
X148882893Y-103162893D02*
X153377107Y-107657107D01*
X152400000Y-85090000D02*
X151422893Y-86067107D01*
X153670000Y-108364214D02*
X153670000Y-114300000D01*
X148590000Y-87360000D02*
X148590000Y-102455786D01*
X150715786Y-86359990D02*
G75*
G03*
X151422893Y-86067107I14J999990D01*
G01*
X149590000Y-86360000D02*
G75*
G03*
X148590000Y-87360000I0J-1000000D01*
G01*
X153669990Y-108364214D02*
G75*
G03*
X153377107Y-107657107I-999990J14D01*
G01*
X148590010Y-102455786D02*
G75*
G03*
X148882893Y-103162893I999990J-14D01*
G01*
%TO.N,/V-D4*%
X151130000Y-107094214D02*
X151130000Y-114300000D01*
X148120893Y-103670893D02*
X150837107Y-106387107D01*
X149098000Y-85090000D02*
X148120893Y-86067107D01*
X147828000Y-86774214D02*
X147828000Y-102963786D01*
X149860000Y-85090000D02*
X149098000Y-85090000D01*
X148120886Y-86067100D02*
G75*
G03*
X147828000Y-86774214I707114J-707100D01*
G01*
X147828010Y-102963786D02*
G75*
G03*
X148120893Y-103670893I999990J-14D01*
G01*
X151129990Y-107094214D02*
G75*
G03*
X150837107Y-106387107I-999990J14D01*
G01*
%TO.N,/V-D3*%
X147358893Y-85559107D02*
X148805107Y-84112893D01*
X149512214Y-83820000D02*
X150715786Y-83820000D01*
X148590000Y-114300000D02*
X148590000Y-105824214D01*
X151422893Y-83527107D02*
X152400000Y-82550000D01*
X147066000Y-103471786D02*
X147066000Y-86266214D01*
X148297107Y-105117107D02*
X147358893Y-104178893D01*
X148589990Y-105824214D02*
G75*
G03*
X148297107Y-105117107I-999990J14D01*
G01*
X150715786Y-83819990D02*
G75*
G03*
X151422893Y-83527107I14J999990D01*
G01*
X147358886Y-85559100D02*
G75*
G03*
X147066000Y-86266214I707114J-707100D01*
G01*
X147066010Y-103471786D02*
G75*
G03*
X147358893Y-104178893I999990J-14D01*
G01*
X149512214Y-83820010D02*
G75*
G03*
X148805107Y-84112893I-14J-999990D01*
G01*
%TO.N,/V-A12*%
X143256000Y-107027786D02*
X143256000Y-85758214D01*
X164122893Y-80987107D02*
X165100000Y-80010000D01*
X144272000Y-108458000D02*
X143548893Y-107734893D01*
X143548893Y-85051107D02*
X147027107Y-81572893D01*
X147734214Y-81280000D02*
X163415786Y-81280000D01*
X143548886Y-85051100D02*
G75*
G03*
X143256000Y-85758214I707114J-707100D01*
G01*
X143256010Y-107027786D02*
G75*
G03*
X143548893Y-107734893I999990J-14D01*
G01*
X147734214Y-81280010D02*
G75*
G03*
X147027107Y-81572893I-14J-999990D01*
G01*
X163415786Y-81279990D02*
G75*
G03*
X164122893Y-80987107I14J999990D01*
G01*
%TO.N,/V-A13*%
X160020000Y-88239600D02*
X160997107Y-89216707D01*
X161290000Y-89923814D02*
X161290000Y-90517786D01*
X165768214Y-94996000D02*
X170434000Y-94996000D01*
X160020000Y-88265000D02*
X160020000Y-87630000D01*
X160020000Y-87630000D02*
X160020000Y-88239600D01*
X161582893Y-91224893D02*
X165061107Y-94703107D01*
X165061100Y-94703114D02*
G75*
G03*
X165768214Y-94996000I707100J707114D01*
G01*
X161290010Y-90517786D02*
G75*
G03*
X161582893Y-91224893I999990J-14D01*
G01*
X161289990Y-89923814D02*
G75*
G03*
X160997107Y-89216707I-999990J14D01*
G01*
%TO.N,/V-A14*%
X162560000Y-90170000D02*
X163283107Y-90893107D01*
X163990214Y-91186000D02*
X173116000Y-91186000D01*
X173416000Y-90886000D02*
X173416000Y-90048500D01*
X173609000Y-88630536D02*
X173416000Y-88823536D01*
X173416000Y-88823536D02*
X173416000Y-90048500D01*
X163283080Y-90893134D02*
G75*
G03*
X163990214Y-91186000I707120J707234D01*
G01*
X173116000Y-91186000D02*
G75*
G03*
X173416000Y-90886000I0J300000D01*
G01*
%TO.N,/V-RW*%
X164592000Y-92710000D02*
X165569107Y-93687107D01*
X143510000Y-109634214D02*
X143510000Y-114300000D01*
X177546000Y-91186000D02*
X177546000Y-92323500D01*
X166276214Y-93980000D02*
X171196000Y-93980000D01*
X142240000Y-104394000D02*
X142240000Y-107535786D01*
X142532893Y-108242893D02*
X143217107Y-108927107D01*
X143509990Y-109634214D02*
G75*
G03*
X143217107Y-108927107I-999990J14D01*
G01*
X142240010Y-107535786D02*
G75*
G03*
X142532893Y-108242893I999990J-14D01*
G01*
X165569100Y-93687114D02*
G75*
G03*
X166276214Y-93980000I707100J707114D01*
G01*
%TO.N,/PB6*%
X148297107Y-79032893D02*
X142786893Y-84543107D01*
X142494000Y-102616000D02*
X142240000Y-102870000D01*
X165370000Y-78740000D02*
X149004214Y-78740000D01*
X142494000Y-85250214D02*
X142494000Y-102616000D01*
X166370000Y-80865786D02*
X166370000Y-79740000D01*
X165100000Y-82550000D02*
X166077107Y-81572893D01*
X142786886Y-84543100D02*
G75*
G03*
X142494000Y-85250214I707114J-707100D01*
G01*
X166077114Y-81572900D02*
G75*
G03*
X166370000Y-80865786I-707114J707100D01*
G01*
X166370000Y-79740000D02*
G75*
G03*
X165370000Y-78740000I-1000000J0D01*
G01*
X149004214Y-78740010D02*
G75*
G03*
X148297107Y-79032893I-14J-999990D01*
G01*
%TO.N,/IRQ*%
X141224000Y-106519786D02*
X141224000Y-102417386D01*
X163830000Y-84820000D02*
X163830000Y-85945786D01*
X136182893Y-108927107D02*
X136359107Y-108750893D01*
X141732000Y-101246644D02*
X141732000Y-84742214D01*
X135890000Y-114300000D02*
X135890000Y-109634214D01*
X164122893Y-86652893D02*
X165100000Y-87630000D01*
X142024893Y-84035107D02*
X150329107Y-75730893D01*
X168109107Y-82080893D02*
X166662893Y-83527107D01*
X141458315Y-101851700D02*
X141497686Y-101812329D01*
X139992893Y-108165107D02*
X140931107Y-107226893D01*
X168402000Y-78646214D02*
X168402000Y-81373786D01*
X151036214Y-75438000D02*
X165193786Y-75438000D01*
X137066214Y-108458000D02*
X139285786Y-108458000D01*
X165955786Y-83820000D02*
X164830000Y-83820000D01*
X165900893Y-75730893D02*
X168109107Y-77939107D01*
X168109114Y-82080900D02*
G75*
G03*
X168402000Y-81373786I-707114J707100D01*
G01*
X165955786Y-83819990D02*
G75*
G03*
X166662893Y-83527107I14J999990D01*
G01*
X151036214Y-75438010D02*
G75*
G03*
X150329107Y-75730893I-14J-999990D01*
G01*
X165900900Y-75730886D02*
G75*
G03*
X165193786Y-75438000I-707100J-707114D01*
G01*
X163830010Y-85945786D02*
G75*
G03*
X164122893Y-86652893I999990J-14D01*
G01*
X141458322Y-101851707D02*
G75*
G03*
X141224000Y-102417386I565678J-565693D01*
G01*
X140931114Y-107226900D02*
G75*
G03*
X141224000Y-106519786I-707114J707100D01*
G01*
X168401990Y-78646214D02*
G75*
G03*
X168109107Y-77939107I-999990J14D01*
G01*
X136182886Y-108927100D02*
G75*
G03*
X135890000Y-109634214I707114J-707100D01*
G01*
X137066214Y-108458010D02*
G75*
G03*
X136359107Y-108750893I-14J-999990D01*
G01*
X139285786Y-108457990D02*
G75*
G03*
X139992893Y-108165107I14J999990D01*
G01*
X142024886Y-84035100D02*
G75*
G03*
X141732000Y-84742214I707114J-707100D01*
G01*
X164830000Y-83820000D02*
G75*
G03*
X163830000Y-84820000I0J-1000000D01*
G01*
X141497664Y-101812307D02*
G75*
G03*
X141732000Y-101246644I-565664J565707D01*
G01*
%TO.N,/V-A15*%
X172466000Y-88630000D02*
X172466000Y-90048500D01*
X162560000Y-82550000D02*
X161582893Y-83527107D01*
X166154893Y-88607107D02*
X166839107Y-87922893D01*
X167546214Y-87630000D02*
X171466000Y-87630000D01*
X162290000Y-88900000D02*
X165447786Y-88900000D01*
X161290000Y-84234214D02*
X161290000Y-87900000D01*
X161582886Y-83527100D02*
G75*
G03*
X161290000Y-84234214I707114J-707100D01*
G01*
X167546214Y-87630010D02*
G75*
G03*
X166839107Y-87922893I-14J-999990D01*
G01*
X165447786Y-88899990D02*
G75*
G03*
X166154893Y-88607107I14J999990D01*
G01*
X172466000Y-88630000D02*
G75*
G03*
X171466000Y-87630000I-1000000J0D01*
G01*
X161290000Y-87900000D02*
G75*
G03*
X162290000Y-88900000I1000000J0D01*
G01*
%TO.N,/~{CE}*%
X172720000Y-94488000D02*
X172720000Y-93980000D01*
X150876000Y-89568214D02*
X150876000Y-94488000D01*
X172720000Y-93980000D02*
X171516000Y-92776000D01*
X152400000Y-87630000D02*
X151168893Y-88861107D01*
X171516000Y-92776000D02*
X171516000Y-92323500D01*
X151168886Y-88861100D02*
G75*
G03*
X150876000Y-89568214I707114J-707100D01*
G01*
%TO.N,/~{OE}*%
X179324000Y-93565786D02*
X179324000Y-91290714D01*
X177292000Y-96012000D02*
X179031107Y-94272893D01*
X153962893Y-95034893D02*
X154940000Y-96012000D01*
X153670000Y-89314214D02*
X153670000Y-94327786D01*
X179031107Y-90583607D02*
X178496000Y-90048500D01*
X154940000Y-87630000D02*
X153962893Y-88607107D01*
X179031114Y-94272900D02*
G75*
G03*
X179324000Y-93565786I-707114J707100D01*
G01*
X153962886Y-88607100D02*
G75*
G03*
X153670000Y-89314214I707114J-707100D01*
G01*
X153670010Y-94327786D02*
G75*
G03*
X153962893Y-95034893I999990J-14D01*
G01*
X179323990Y-91290714D02*
G75*
G03*
X179031107Y-90583607I-999990J14D01*
G01*
%TD*%
%TA.AperFunction,Conductor*%
%TO.N,/V-A11*%
G36*
X158125621Y-90437407D02*
G01*
X158131945Y-90443748D01*
X158131659Y-90453314D01*
X158073557Y-90573198D01*
X158072851Y-90574451D01*
X158006270Y-90677354D01*
X158005503Y-90678406D01*
X157937769Y-90761202D01*
X157937183Y-90761865D01*
X157870417Y-90831936D01*
X157870288Y-90832070D01*
X157806956Y-90896449D01*
X157749676Y-90962123D01*
X157700931Y-91036224D01*
X157700727Y-91036707D01*
X157700726Y-91036710D01*
X157671169Y-91106882D01*
X157663131Y-91125964D01*
X157638684Y-91238553D01*
X157638657Y-91239002D01*
X157638656Y-91239007D01*
X157630669Y-91370211D01*
X157626746Y-91378261D01*
X157618991Y-91381200D01*
X157341009Y-91381200D01*
X157332736Y-91377773D01*
X157329331Y-91370211D01*
X157321343Y-91239007D01*
X157321342Y-91239002D01*
X157321315Y-91238553D01*
X157296868Y-91125964D01*
X157259067Y-91036224D01*
X157210322Y-90962123D01*
X157153042Y-90896449D01*
X157089710Y-90832070D01*
X157089581Y-90831936D01*
X157022815Y-90761865D01*
X157022229Y-90761202D01*
X156954496Y-90678406D01*
X156953729Y-90677354D01*
X156887147Y-90574451D01*
X156886441Y-90573198D01*
X156828341Y-90453314D01*
X156827817Y-90444374D01*
X156834379Y-90437407D01*
X157475509Y-90170867D01*
X157484491Y-90170867D01*
X158125621Y-90437407D01*
G37*
%TD.AperFunction*%
%TD*%
%TA.AperFunction,Conductor*%
%TO.N,/PB6*%
G36*
X165858166Y-81595272D02*
G01*
X166054728Y-81791834D01*
X166058155Y-81800107D01*
X166055216Y-81807862D01*
X165967787Y-81906625D01*
X165905462Y-82003524D01*
X165905262Y-82004016D01*
X165905259Y-82004021D01*
X165869320Y-82092271D01*
X165868735Y-82093708D01*
X165850805Y-82180574D01*
X165844871Y-82267515D01*
X165844870Y-82267668D01*
X165844130Y-82357831D01*
X165844127Y-82358018D01*
X165841790Y-82454764D01*
X165841735Y-82455646D01*
X165831084Y-82562091D01*
X165830882Y-82563378D01*
X165805199Y-82683220D01*
X165804812Y-82684605D01*
X165761126Y-82810459D01*
X165755176Y-82817151D01*
X165745610Y-82817437D01*
X165420386Y-82683220D01*
X165103788Y-82552562D01*
X165097438Y-82546212D01*
X164946542Y-82180574D01*
X164832563Y-81904390D01*
X164832574Y-81895436D01*
X164839541Y-81888874D01*
X164965394Y-81845187D01*
X164966779Y-81844800D01*
X165020502Y-81833286D01*
X165086627Y-81819115D01*
X165087902Y-81818915D01*
X165194364Y-81808262D01*
X165195224Y-81808209D01*
X165292007Y-81805871D01*
X165292139Y-81805868D01*
X165382484Y-81805128D01*
X165469425Y-81799193D01*
X165469821Y-81799111D01*
X165469823Y-81799111D01*
X165555762Y-81781372D01*
X165556290Y-81781263D01*
X165558815Y-81780235D01*
X165645978Y-81744740D01*
X165645983Y-81744737D01*
X165646475Y-81744537D01*
X165743374Y-81682212D01*
X165842138Y-81594784D01*
X165850604Y-81591867D01*
X165858166Y-81595272D01*
G37*
%TD.AperFunction*%
%TD*%
%TA.AperFunction,Conductor*%
%TO.N,/V-RW*%
G36*
X171047529Y-93621486D02*
G01*
X171134328Y-93829678D01*
X171195123Y-93975498D01*
X171195123Y-93984502D01*
X171058685Y-94311757D01*
X171047530Y-94338512D01*
X171041183Y-94344830D01*
X171031992Y-94344707D01*
X170957616Y-94311757D01*
X170957114Y-94311521D01*
X170887428Y-94276609D01*
X170887062Y-94276417D01*
X170828612Y-94244500D01*
X170828511Y-94244444D01*
X170777334Y-94215845D01*
X170777252Y-94215799D01*
X170729213Y-94190756D01*
X170729010Y-94190668D01*
X170680661Y-94169750D01*
X170680653Y-94169747D01*
X170680394Y-94169635D01*
X170626729Y-94152717D01*
X170626431Y-94152658D01*
X170626428Y-94152657D01*
X170564425Y-94140338D01*
X170564420Y-94140337D01*
X170564152Y-94140284D01*
X170563878Y-94140256D01*
X170563870Y-94140255D01*
X170488826Y-94132641D01*
X170488820Y-94132641D01*
X170488597Y-94132618D01*
X170488377Y-94132612D01*
X170488365Y-94132611D01*
X170407369Y-94130321D01*
X170399196Y-94126662D01*
X170396000Y-94118626D01*
X170396000Y-93841373D01*
X170399427Y-93833100D01*
X170407368Y-93829678D01*
X170447992Y-93828529D01*
X170488365Y-93827388D01*
X170488377Y-93827387D01*
X170488597Y-93827381D01*
X170488820Y-93827358D01*
X170488826Y-93827358D01*
X170563870Y-93819744D01*
X170563878Y-93819743D01*
X170564152Y-93819715D01*
X170564420Y-93819662D01*
X170564425Y-93819661D01*
X170626428Y-93807342D01*
X170626431Y-93807341D01*
X170626729Y-93807282D01*
X170680394Y-93790364D01*
X170680653Y-93790252D01*
X170680661Y-93790249D01*
X170729010Y-93769331D01*
X170729014Y-93769329D01*
X170729213Y-93769243D01*
X170777252Y-93744200D01*
X170828511Y-93715554D01*
X170828612Y-93715498D01*
X170887062Y-93683582D01*
X170887428Y-93683390D01*
X170957114Y-93648477D01*
X170957616Y-93648241D01*
X171031992Y-93615292D01*
X171040944Y-93615074D01*
X171047529Y-93621486D01*
G37*
%TD.AperFunction*%
%TD*%
%TA.AperFunction,Conductor*%
%TO.N,/V-D7*%
G36*
X153045621Y-90437407D02*
G01*
X153051945Y-90443748D01*
X153051659Y-90453314D01*
X152993557Y-90573198D01*
X152992851Y-90574451D01*
X152926270Y-90677354D01*
X152925503Y-90678406D01*
X152857769Y-90761202D01*
X152857183Y-90761865D01*
X152790417Y-90831936D01*
X152790288Y-90832070D01*
X152726956Y-90896449D01*
X152669676Y-90962123D01*
X152620931Y-91036224D01*
X152620727Y-91036707D01*
X152620726Y-91036710D01*
X152591169Y-91106882D01*
X152583131Y-91125964D01*
X152558684Y-91238553D01*
X152558657Y-91239002D01*
X152558656Y-91239007D01*
X152550669Y-91370211D01*
X152546746Y-91378261D01*
X152538991Y-91381200D01*
X152261009Y-91381200D01*
X152252736Y-91377773D01*
X152249331Y-91370211D01*
X152241343Y-91239007D01*
X152241342Y-91239002D01*
X152241315Y-91238553D01*
X152216868Y-91125964D01*
X152179067Y-91036224D01*
X152130322Y-90962123D01*
X152073042Y-90896449D01*
X152009710Y-90832070D01*
X152009581Y-90831936D01*
X151942815Y-90761865D01*
X151942229Y-90761202D01*
X151874496Y-90678406D01*
X151873729Y-90677354D01*
X151807147Y-90574451D01*
X151806441Y-90573198D01*
X151748341Y-90453314D01*
X151747817Y-90444374D01*
X151754379Y-90437407D01*
X152395509Y-90170867D01*
X152404491Y-90170867D01*
X153045621Y-90437407D01*
G37*
%TD.AperFunction*%
%TD*%
%TA.AperFunction,Conductor*%
%TO.N,/~{OE}*%
G36*
X178050166Y-95057272D02*
G01*
X178246728Y-95253834D01*
X178250155Y-95262107D01*
X178247216Y-95269862D01*
X178159787Y-95368625D01*
X178097462Y-95465524D01*
X178097262Y-95466016D01*
X178097259Y-95466021D01*
X178061320Y-95554271D01*
X178060735Y-95555708D01*
X178042805Y-95642574D01*
X178036871Y-95729515D01*
X178036870Y-95729668D01*
X178036130Y-95819831D01*
X178036127Y-95820018D01*
X178033790Y-95916764D01*
X178033735Y-95917646D01*
X178023084Y-96024091D01*
X178022882Y-96025378D01*
X177997199Y-96145220D01*
X177996812Y-96146605D01*
X177953126Y-96272459D01*
X177947176Y-96279151D01*
X177937610Y-96279437D01*
X177612386Y-96145220D01*
X177295788Y-96014562D01*
X177289438Y-96008212D01*
X177138542Y-95642574D01*
X177024563Y-95366390D01*
X177024574Y-95357436D01*
X177031541Y-95350874D01*
X177157394Y-95307187D01*
X177158779Y-95306800D01*
X177212502Y-95295286D01*
X177278627Y-95281115D01*
X177279902Y-95280915D01*
X177386364Y-95270262D01*
X177387224Y-95270209D01*
X177484007Y-95267871D01*
X177484139Y-95267868D01*
X177574484Y-95267128D01*
X177661425Y-95261193D01*
X177661821Y-95261111D01*
X177661823Y-95261111D01*
X177747762Y-95243372D01*
X177748290Y-95243263D01*
X177750815Y-95242235D01*
X177837978Y-95206740D01*
X177837983Y-95206737D01*
X177838475Y-95206537D01*
X177935374Y-95144212D01*
X178034138Y-95056784D01*
X178042604Y-95053867D01*
X178050166Y-95057272D01*
G37*
%TD.AperFunction*%
%TD*%
%TA.AperFunction,Conductor*%
%TO.N,/V-RW*%
G36*
X142598512Y-104542470D02*
G01*
X142604830Y-104548817D01*
X142604707Y-104558008D01*
X142571757Y-104632383D01*
X142571521Y-104632885D01*
X142536609Y-104702570D01*
X142536417Y-104702936D01*
X142504481Y-104761421D01*
X142475799Y-104812746D01*
X142450756Y-104860785D01*
X142429635Y-104909605D01*
X142412717Y-104963270D01*
X142400284Y-105025847D01*
X142392618Y-105101401D01*
X142392612Y-105101621D01*
X142392611Y-105101633D01*
X142390321Y-105182631D01*
X142386662Y-105190804D01*
X142378626Y-105194000D01*
X142101373Y-105194000D01*
X142093100Y-105190573D01*
X142089678Y-105182631D01*
X142087388Y-105101633D01*
X142087387Y-105101621D01*
X142087381Y-105101401D01*
X142079715Y-105025847D01*
X142067282Y-104963270D01*
X142050364Y-104909605D01*
X142029243Y-104860785D01*
X142004200Y-104812746D01*
X141975517Y-104761421D01*
X141943582Y-104702936D01*
X141943390Y-104702570D01*
X141908477Y-104632885D01*
X141908241Y-104632383D01*
X141875292Y-104558008D01*
X141875074Y-104549056D01*
X141881486Y-104542471D01*
X142235498Y-104394877D01*
X142244502Y-104394877D01*
X142598512Y-104542470D01*
G37*
%TD.AperFunction*%
%TD*%
%TA.AperFunction,Conductor*%
%TO.N,/V-A8*%
G36*
X160665621Y-90437407D02*
G01*
X160671945Y-90443748D01*
X160671659Y-90453314D01*
X160613557Y-90573198D01*
X160612851Y-90574451D01*
X160546270Y-90677354D01*
X160545503Y-90678406D01*
X160477769Y-90761202D01*
X160477183Y-90761865D01*
X160410417Y-90831936D01*
X160410288Y-90832070D01*
X160346956Y-90896449D01*
X160289676Y-90962123D01*
X160240931Y-91036224D01*
X160240727Y-91036707D01*
X160240726Y-91036710D01*
X160211169Y-91106882D01*
X160203131Y-91125964D01*
X160178684Y-91238553D01*
X160178657Y-91239002D01*
X160178656Y-91239007D01*
X160170669Y-91370211D01*
X160166746Y-91378261D01*
X160158991Y-91381200D01*
X159881009Y-91381200D01*
X159872736Y-91377773D01*
X159869331Y-91370211D01*
X159861343Y-91239007D01*
X159861342Y-91239002D01*
X159861315Y-91238553D01*
X159836868Y-91125964D01*
X159799067Y-91036224D01*
X159750322Y-90962123D01*
X159693042Y-90896449D01*
X159629710Y-90832070D01*
X159629581Y-90831936D01*
X159562815Y-90761865D01*
X159562229Y-90761202D01*
X159494496Y-90678406D01*
X159493729Y-90677354D01*
X159427147Y-90574451D01*
X159426441Y-90573198D01*
X159368341Y-90453314D01*
X159367817Y-90444374D01*
X159374379Y-90437407D01*
X160015509Y-90170867D01*
X160024491Y-90170867D01*
X160665621Y-90437407D01*
G37*
%TD.AperFunction*%
%TD*%
%TA.AperFunction,Conductor*%
%TO.N,/IRQ*%
G36*
X164357862Y-86674784D02*
G01*
X164456625Y-86762212D01*
X164553524Y-86824537D01*
X164554016Y-86824737D01*
X164554021Y-86824740D01*
X164641492Y-86860361D01*
X164643708Y-86861263D01*
X164644236Y-86861372D01*
X164730176Y-86879111D01*
X164730178Y-86879111D01*
X164730574Y-86879193D01*
X164817515Y-86885128D01*
X164907859Y-86885868D01*
X164907991Y-86885871D01*
X165004775Y-86888209D01*
X165005635Y-86888262D01*
X165112097Y-86898915D01*
X165113372Y-86899115D01*
X165179497Y-86913286D01*
X165233220Y-86924800D01*
X165234605Y-86925187D01*
X165360459Y-86968874D01*
X165367151Y-86974824D01*
X165367437Y-86984390D01*
X165253458Y-87260574D01*
X165102562Y-87626212D01*
X165096212Y-87632562D01*
X164779614Y-87763220D01*
X164454390Y-87897437D01*
X164445436Y-87897426D01*
X164438874Y-87890459D01*
X164395187Y-87764605D01*
X164394800Y-87763220D01*
X164369116Y-87643378D01*
X164368914Y-87642091D01*
X164358263Y-87535646D01*
X164358208Y-87534764D01*
X164355871Y-87438018D01*
X164355868Y-87437831D01*
X164355129Y-87347668D01*
X164355128Y-87347515D01*
X164349193Y-87260574D01*
X164331263Y-87173708D01*
X164330361Y-87171492D01*
X164294740Y-87084021D01*
X164294737Y-87084016D01*
X164294537Y-87083524D01*
X164232212Y-86986625D01*
X164144784Y-86887862D01*
X164141867Y-86879396D01*
X164145272Y-86871834D01*
X164341834Y-86675272D01*
X164350107Y-86671845D01*
X164357862Y-86674784D01*
G37*
%TD.AperFunction*%
%TD*%
%TA.AperFunction,Conductor*%
%TO.N,/V-A12*%
G36*
X164471299Y-79749541D02*
G01*
X165096212Y-80007438D01*
X165102562Y-80013788D01*
X165139938Y-80104353D01*
X165367437Y-80655610D01*
X165367426Y-80664564D01*
X165360459Y-80671126D01*
X165234605Y-80714812D01*
X165233220Y-80715199D01*
X165179649Y-80726680D01*
X165113372Y-80740883D01*
X165112097Y-80741083D01*
X165005635Y-80751736D01*
X165004775Y-80751789D01*
X164907991Y-80754127D01*
X164907859Y-80754130D01*
X164817515Y-80754871D01*
X164730574Y-80760805D01*
X164730178Y-80760887D01*
X164730176Y-80760887D01*
X164644236Y-80778626D01*
X164643708Y-80778735D01*
X164643212Y-80778937D01*
X164554021Y-80815259D01*
X164554016Y-80815262D01*
X164553524Y-80815462D01*
X164456625Y-80877787D01*
X164358413Y-80964728D01*
X164357862Y-80965216D01*
X164349396Y-80968133D01*
X164341834Y-80964728D01*
X164145272Y-80768166D01*
X164141845Y-80759893D01*
X164144784Y-80752138D01*
X164177826Y-80714812D01*
X164232212Y-80653374D01*
X164294537Y-80556475D01*
X164294737Y-80555983D01*
X164294740Y-80555978D01*
X164331061Y-80466786D01*
X164331263Y-80466290D01*
X164349193Y-80379425D01*
X164355128Y-80292484D01*
X164355868Y-80202139D01*
X164355871Y-80201980D01*
X164358208Y-80105235D01*
X164358263Y-80104353D01*
X164368914Y-79997908D01*
X164369116Y-79996621D01*
X164394800Y-79876779D01*
X164395187Y-79875394D01*
X164438874Y-79749541D01*
X164444824Y-79742849D01*
X164454390Y-79742563D01*
X164471299Y-79749541D01*
G37*
%TD.AperFunction*%
%TD*%
%TA.AperFunction,Conductor*%
%TO.N,/V-D5*%
G36*
X151771299Y-84829541D02*
G01*
X152396212Y-85087438D01*
X152402562Y-85093788D01*
X152439938Y-85184353D01*
X152667437Y-85735610D01*
X152667426Y-85744564D01*
X152660459Y-85751126D01*
X152534605Y-85794812D01*
X152533220Y-85795199D01*
X152479649Y-85806680D01*
X152413372Y-85820883D01*
X152412097Y-85821083D01*
X152305635Y-85831736D01*
X152304775Y-85831789D01*
X152207991Y-85834127D01*
X152207859Y-85834130D01*
X152117515Y-85834871D01*
X152030574Y-85840805D01*
X152030178Y-85840887D01*
X152030176Y-85840887D01*
X151944236Y-85858626D01*
X151943708Y-85858735D01*
X151943212Y-85858937D01*
X151854021Y-85895259D01*
X151854016Y-85895262D01*
X151853524Y-85895462D01*
X151756625Y-85957787D01*
X151658413Y-86044728D01*
X151657862Y-86045216D01*
X151649396Y-86048133D01*
X151641834Y-86044728D01*
X151445272Y-85848166D01*
X151441845Y-85839893D01*
X151444784Y-85832138D01*
X151477826Y-85794812D01*
X151532212Y-85733374D01*
X151594537Y-85636475D01*
X151594737Y-85635983D01*
X151594740Y-85635978D01*
X151631061Y-85546786D01*
X151631263Y-85546290D01*
X151649193Y-85459425D01*
X151655128Y-85372484D01*
X151655868Y-85282139D01*
X151655871Y-85281980D01*
X151658208Y-85185235D01*
X151658263Y-85184353D01*
X151668914Y-85077908D01*
X151669116Y-85076621D01*
X151694800Y-84956779D01*
X151695187Y-84955394D01*
X151738874Y-84829541D01*
X151744824Y-84822849D01*
X151754390Y-84822563D01*
X151771299Y-84829541D01*
G37*
%TD.AperFunction*%
%TD*%
%TA.AperFunction,Conductor*%
%TO.N,/~{OE}*%
G36*
X178794934Y-89928379D02*
G01*
X178800875Y-89933912D01*
X178827819Y-89987393D01*
X178859374Y-90047793D01*
X178859639Y-90048301D01*
X178891459Y-90106959D01*
X178923279Y-90163367D01*
X178955099Y-90217525D01*
X178986918Y-90269433D01*
X179018738Y-90319091D01*
X179018796Y-90319177D01*
X179050542Y-90366476D01*
X179050558Y-90366499D01*
X179082378Y-90411657D01*
X179082395Y-90411679D01*
X179082413Y-90411705D01*
X179108187Y-90446460D01*
X179110362Y-90455146D01*
X179107062Y-90461702D01*
X178906526Y-90662238D01*
X178898253Y-90665665D01*
X178895891Y-90665424D01*
X178891806Y-90664582D01*
X178883578Y-90662884D01*
X178883569Y-90662883D01*
X178883363Y-90662840D01*
X178878754Y-90662238D01*
X178864891Y-90660427D01*
X178864886Y-90660427D01*
X178864660Y-90660397D01*
X178864437Y-90660385D01*
X178864429Y-90660384D01*
X178846181Y-90659382D01*
X178846175Y-90659382D01*
X178845958Y-90659370D01*
X178838044Y-90659534D01*
X178827474Y-90659753D01*
X178827462Y-90659754D01*
X178827255Y-90659758D01*
X178827054Y-90659777D01*
X178827043Y-90659778D01*
X178818810Y-90660572D01*
X178808553Y-90661561D01*
X178808355Y-90661595D01*
X178808348Y-90661596D01*
X178790047Y-90664745D01*
X178790044Y-90664746D01*
X178789850Y-90664779D01*
X178789663Y-90664825D01*
X178789655Y-90664827D01*
X178771336Y-90669366D01*
X178771325Y-90669369D01*
X178771148Y-90669413D01*
X178752445Y-90675461D01*
X178733743Y-90682925D01*
X178727090Y-90686084D01*
X178726894Y-90686177D01*
X178717951Y-90686630D01*
X178711307Y-90680626D01*
X178710803Y-90679386D01*
X178498847Y-90058209D01*
X178499418Y-90049274D01*
X178505473Y-90043610D01*
X178785979Y-89928354D01*
X178794934Y-89928379D01*
G37*
%TD.AperFunction*%
%TD*%
%TA.AperFunction,Conductor*%
%TO.N,/~{OE}*%
G36*
X154311299Y-87369541D02*
G01*
X154936212Y-87627438D01*
X154942562Y-87633788D01*
X154979938Y-87724353D01*
X155207437Y-88275610D01*
X155207426Y-88284564D01*
X155200459Y-88291126D01*
X155074605Y-88334812D01*
X155073220Y-88335199D01*
X155019649Y-88346680D01*
X154953372Y-88360883D01*
X154952097Y-88361083D01*
X154845635Y-88371736D01*
X154844775Y-88371789D01*
X154747991Y-88374127D01*
X154747859Y-88374130D01*
X154657515Y-88374871D01*
X154570574Y-88380805D01*
X154570178Y-88380887D01*
X154570176Y-88380887D01*
X154484236Y-88398626D01*
X154483708Y-88398735D01*
X154483212Y-88398937D01*
X154394021Y-88435259D01*
X154394016Y-88435262D01*
X154393524Y-88435462D01*
X154296625Y-88497787D01*
X154198413Y-88584728D01*
X154197862Y-88585216D01*
X154189396Y-88588133D01*
X154181834Y-88584728D01*
X153985272Y-88388166D01*
X153981845Y-88379893D01*
X153984784Y-88372138D01*
X154017826Y-88334812D01*
X154072212Y-88273374D01*
X154134537Y-88176475D01*
X154134737Y-88175983D01*
X154134740Y-88175978D01*
X154171061Y-88086786D01*
X154171263Y-88086290D01*
X154189193Y-87999425D01*
X154195128Y-87912484D01*
X154195868Y-87822139D01*
X154195871Y-87821980D01*
X154198208Y-87725235D01*
X154198263Y-87724353D01*
X154208914Y-87617908D01*
X154209116Y-87616621D01*
X154234800Y-87496779D01*
X154235187Y-87495394D01*
X154278874Y-87369541D01*
X154284824Y-87362849D01*
X154294390Y-87362563D01*
X154311299Y-87369541D01*
G37*
%TD.AperFunction*%
%TD*%
%TA.AperFunction,Conductor*%
%TO.N,/~{CE}*%
G36*
X151023264Y-93280227D02*
G01*
X151026669Y-93287789D01*
X151034684Y-93419446D01*
X151059131Y-93532034D01*
X151059340Y-93532530D01*
X151096724Y-93621282D01*
X151096931Y-93621774D01*
X151145676Y-93695876D01*
X151202956Y-93761549D01*
X151203072Y-93761667D01*
X151203073Y-93761668D01*
X151266288Y-93825929D01*
X151266417Y-93826063D01*
X151333183Y-93896134D01*
X151333769Y-93896797D01*
X151401503Y-93979592D01*
X151402270Y-93980644D01*
X151468851Y-94083548D01*
X151469557Y-94084801D01*
X151527659Y-94204686D01*
X151528183Y-94213626D01*
X151521621Y-94220593D01*
X150880491Y-94487133D01*
X150871509Y-94487133D01*
X150230379Y-94220593D01*
X150224055Y-94214252D01*
X150224341Y-94204686D01*
X150282441Y-94084801D01*
X150283147Y-94083548D01*
X150349729Y-93980644D01*
X150350496Y-93979592D01*
X150418229Y-93896797D01*
X150418815Y-93896134D01*
X150485581Y-93826063D01*
X150485710Y-93825929D01*
X150548925Y-93761668D01*
X150548926Y-93761667D01*
X150549042Y-93761549D01*
X150606322Y-93695876D01*
X150655067Y-93621774D01*
X150692868Y-93532034D01*
X150717315Y-93419446D01*
X150725331Y-93287789D01*
X150729254Y-93279739D01*
X150737009Y-93276800D01*
X151014991Y-93276800D01*
X151023264Y-93280227D01*
G37*
%TD.AperFunction*%
%TD*%
%TA.AperFunction,Conductor*%
%TO.N,/V-D3*%
G36*
X151771299Y-82289541D02*
G01*
X152396212Y-82547438D01*
X152402562Y-82553788D01*
X152439938Y-82644353D01*
X152667437Y-83195610D01*
X152667426Y-83204564D01*
X152660459Y-83211126D01*
X152534605Y-83254812D01*
X152533220Y-83255199D01*
X152479649Y-83266680D01*
X152413372Y-83280883D01*
X152412097Y-83281083D01*
X152305635Y-83291736D01*
X152304775Y-83291789D01*
X152207991Y-83294127D01*
X152207859Y-83294130D01*
X152117515Y-83294871D01*
X152030574Y-83300805D01*
X152030178Y-83300887D01*
X152030176Y-83300887D01*
X151944236Y-83318626D01*
X151943708Y-83318735D01*
X151943212Y-83318937D01*
X151854021Y-83355259D01*
X151854016Y-83355262D01*
X151853524Y-83355462D01*
X151756625Y-83417787D01*
X151658413Y-83504728D01*
X151657862Y-83505216D01*
X151649396Y-83508133D01*
X151641834Y-83504728D01*
X151445272Y-83308166D01*
X151441845Y-83299893D01*
X151444784Y-83292138D01*
X151477826Y-83254812D01*
X151532212Y-83193374D01*
X151594537Y-83096475D01*
X151594737Y-83095983D01*
X151594740Y-83095978D01*
X151631061Y-83006786D01*
X151631263Y-83006290D01*
X151649193Y-82919425D01*
X151655128Y-82832484D01*
X151655868Y-82742139D01*
X151655871Y-82741980D01*
X151658208Y-82645235D01*
X151658263Y-82644353D01*
X151668914Y-82537908D01*
X151669116Y-82536621D01*
X151694800Y-82416779D01*
X151695187Y-82415394D01*
X151738874Y-82289541D01*
X151744824Y-82282849D01*
X151754390Y-82282563D01*
X151771299Y-82289541D01*
G37*
%TD.AperFunction*%
%TD*%
%TA.AperFunction,Conductor*%
%TO.N,/V-A10*%
G36*
X163982335Y-109558427D02*
G01*
X163983504Y-109559792D01*
X164034371Y-109629350D01*
X164088742Y-109698185D01*
X164143113Y-109761504D01*
X164143213Y-109761610D01*
X164197374Y-109819191D01*
X164197390Y-109819207D01*
X164197484Y-109819307D01*
X164251856Y-109871594D01*
X164251990Y-109871709D01*
X164251993Y-109871712D01*
X164306097Y-109918254D01*
X164306112Y-109918266D01*
X164306227Y-109918365D01*
X164360598Y-109959619D01*
X164414970Y-109995358D01*
X164415157Y-109995462D01*
X164415167Y-109995468D01*
X164415171Y-109995470D01*
X164469341Y-110025580D01*
X164469551Y-110025675D01*
X164469560Y-110025680D01*
X164515564Y-110046584D01*
X164521679Y-110053127D01*
X164522271Y-110059120D01*
X163841547Y-114230246D01*
X163836833Y-114237860D01*
X163828116Y-114239909D01*
X163820502Y-114235195D01*
X163818453Y-114230246D01*
X163137729Y-110059120D01*
X163139778Y-110050403D01*
X163144436Y-110046584D01*
X163190438Y-110025680D01*
X163190439Y-110025680D01*
X163190658Y-110025580D01*
X163245029Y-109995358D01*
X163245203Y-109995244D01*
X163245214Y-109995237D01*
X163275950Y-109975033D01*
X163299400Y-109959619D01*
X163353771Y-109918365D01*
X163353886Y-109918266D01*
X163353901Y-109918254D01*
X163408006Y-109871712D01*
X163408009Y-109871709D01*
X163408143Y-109871594D01*
X163462514Y-109819307D01*
X163462608Y-109819207D01*
X163462624Y-109819191D01*
X163516776Y-109761620D01*
X163516785Y-109761610D01*
X163516885Y-109761504D01*
X163571257Y-109698185D01*
X163625628Y-109629350D01*
X163676494Y-109559794D01*
X163684144Y-109555138D01*
X163685938Y-109555000D01*
X163974062Y-109555000D01*
X163982335Y-109558427D01*
G37*
%TD.AperFunction*%
%TD*%
%TA.AperFunction,Conductor*%
%TO.N,/V-A15*%
G36*
X172615404Y-89089427D02*
G01*
X172618396Y-89094539D01*
X172629858Y-89135384D01*
X172643716Y-89182519D01*
X172657574Y-89227403D01*
X172671432Y-89270038D01*
X172685291Y-89310423D01*
X172699149Y-89348557D01*
X172713007Y-89384442D01*
X172726865Y-89418077D01*
X172740723Y-89449462D01*
X172740753Y-89449525D01*
X172752117Y-89473415D01*
X172752576Y-89482358D01*
X172751993Y-89483719D01*
X172476442Y-90028843D01*
X172469651Y-90034681D01*
X172460722Y-90034007D01*
X172455558Y-90028843D01*
X172180007Y-89483719D01*
X172179333Y-89474790D01*
X172179883Y-89473416D01*
X172191235Y-89449550D01*
X172191254Y-89449508D01*
X172191276Y-89449462D01*
X172205134Y-89418077D01*
X172218992Y-89384442D01*
X172232850Y-89348557D01*
X172246709Y-89310423D01*
X172260567Y-89270038D01*
X172274425Y-89227403D01*
X172288283Y-89182519D01*
X172302141Y-89135384D01*
X172313604Y-89094539D01*
X172319139Y-89087499D01*
X172324869Y-89086000D01*
X172607131Y-89086000D01*
X172615404Y-89089427D01*
G37*
%TD.AperFunction*%
%TD*%
%TA.AperFunction,Conductor*%
%TO.N,/V-A13*%
G36*
X170285529Y-94637486D02*
G01*
X170372328Y-94845678D01*
X170433123Y-94991498D01*
X170433123Y-95000502D01*
X170296685Y-95327757D01*
X170285530Y-95354512D01*
X170279183Y-95360830D01*
X170269992Y-95360707D01*
X170195616Y-95327757D01*
X170195114Y-95327521D01*
X170125428Y-95292609D01*
X170125062Y-95292417D01*
X170066612Y-95260500D01*
X170066511Y-95260444D01*
X170015334Y-95231845D01*
X170015252Y-95231799D01*
X169967213Y-95206756D01*
X169967010Y-95206668D01*
X169918661Y-95185750D01*
X169918653Y-95185747D01*
X169918394Y-95185635D01*
X169864729Y-95168717D01*
X169864431Y-95168658D01*
X169864428Y-95168657D01*
X169802425Y-95156338D01*
X169802420Y-95156337D01*
X169802152Y-95156284D01*
X169801878Y-95156256D01*
X169801870Y-95156255D01*
X169726826Y-95148641D01*
X169726820Y-95148641D01*
X169726597Y-95148618D01*
X169726377Y-95148612D01*
X169726365Y-95148611D01*
X169645369Y-95146321D01*
X169637196Y-95142662D01*
X169634000Y-95134626D01*
X169634000Y-94857373D01*
X169637427Y-94849100D01*
X169645368Y-94845678D01*
X169685992Y-94844529D01*
X169726365Y-94843388D01*
X169726377Y-94843387D01*
X169726597Y-94843381D01*
X169726820Y-94843358D01*
X169726826Y-94843358D01*
X169801870Y-94835744D01*
X169801878Y-94835743D01*
X169802152Y-94835715D01*
X169802420Y-94835662D01*
X169802425Y-94835661D01*
X169864428Y-94823342D01*
X169864431Y-94823341D01*
X169864729Y-94823282D01*
X169918394Y-94806364D01*
X169918653Y-94806252D01*
X169918661Y-94806249D01*
X169967010Y-94785331D01*
X169967014Y-94785329D01*
X169967213Y-94785243D01*
X170015252Y-94760200D01*
X170066511Y-94731554D01*
X170066612Y-94731498D01*
X170125062Y-94699582D01*
X170125428Y-94699390D01*
X170195114Y-94664477D01*
X170195616Y-94664241D01*
X170269992Y-94631292D01*
X170278944Y-94631074D01*
X170285529Y-94637486D01*
G37*
%TD.AperFunction*%
%TD*%
%TA.AperFunction,Conductor*%
%TO.N,/V-D6*%
G36*
X156362822Y-109637641D02*
G01*
X156363506Y-109638387D01*
X156414371Y-109698927D01*
X156414445Y-109699008D01*
X156414458Y-109699023D01*
X156468644Y-109758400D01*
X156468742Y-109758507D01*
X156523113Y-109812951D01*
X156577484Y-109862260D01*
X156577564Y-109862325D01*
X156577579Y-109862338D01*
X156631739Y-109906340D01*
X156631856Y-109906435D01*
X156631971Y-109906517D01*
X156631982Y-109906526D01*
X156686075Y-109945366D01*
X156686227Y-109945475D01*
X156740598Y-109979380D01*
X156740761Y-109979466D01*
X156740764Y-109979468D01*
X156794769Y-110008044D01*
X156794776Y-110008048D01*
X156794970Y-110008150D01*
X156795175Y-110008239D01*
X156795181Y-110008242D01*
X156822155Y-110019968D01*
X156849341Y-110031786D01*
X156849561Y-110031861D01*
X156849564Y-110031862D01*
X156894340Y-110047098D01*
X156901068Y-110053007D01*
X156902118Y-110060058D01*
X156221547Y-114230246D01*
X156216833Y-114237860D01*
X156208116Y-114239909D01*
X156200502Y-114235195D01*
X156198453Y-114230246D01*
X155517882Y-110060058D01*
X155519931Y-110051341D01*
X155525660Y-110047098D01*
X155570435Y-110031862D01*
X155570438Y-110031861D01*
X155570658Y-110031786D01*
X155625029Y-110008150D01*
X155679400Y-109979380D01*
X155733771Y-109945475D01*
X155788143Y-109906435D01*
X155788260Y-109906340D01*
X155842419Y-109862338D01*
X155842434Y-109862325D01*
X155842514Y-109862260D01*
X155896885Y-109812951D01*
X155951257Y-109758507D01*
X155951355Y-109758400D01*
X156005541Y-109699023D01*
X156005554Y-109699008D01*
X156005628Y-109698927D01*
X156056493Y-109638388D01*
X156064439Y-109634258D01*
X156065451Y-109634214D01*
X156354549Y-109634214D01*
X156362822Y-109637641D01*
G37*
%TD.AperFunction*%
%TD*%
%TA.AperFunction,Conductor*%
%TO.N,/V-A14*%
G36*
X173612441Y-88632989D02*
G01*
X173883308Y-88904814D01*
X173886720Y-88913094D01*
X173883002Y-88921628D01*
X173834543Y-88966842D01*
X173834007Y-88967312D01*
X173781574Y-89010570D01*
X173781244Y-89010832D01*
X173733563Y-89047368D01*
X173691043Y-89080234D01*
X173654179Y-89112435D01*
X173623294Y-89147113D01*
X173598711Y-89187408D01*
X173580753Y-89236462D01*
X173569742Y-89297416D01*
X173566000Y-89373410D01*
X173266000Y-89373410D01*
X173264404Y-89272143D01*
X173260072Y-89188862D01*
X173253688Y-89119071D01*
X173252877Y-89112705D01*
X173245936Y-89058273D01*
X173229082Y-88945788D01*
X173229047Y-88945534D01*
X173221337Y-88885071D01*
X173221292Y-88884657D01*
X173214949Y-88815315D01*
X173214916Y-88814857D01*
X173210608Y-88732031D01*
X173210593Y-88731607D01*
X173209187Y-88642390D01*
X173212484Y-88634064D01*
X173220856Y-88630506D01*
X173604124Y-88629548D01*
X173612441Y-88632989D01*
G37*
%TD.AperFunction*%
%TD*%
%TA.AperFunction,Conductor*%
%TO.N,/V-A15*%
G36*
X161931299Y-82289541D02*
G01*
X162556212Y-82547438D01*
X162562562Y-82553788D01*
X162599938Y-82644353D01*
X162827437Y-83195610D01*
X162827426Y-83204564D01*
X162820459Y-83211126D01*
X162694605Y-83254812D01*
X162693220Y-83255199D01*
X162639649Y-83266680D01*
X162573372Y-83280883D01*
X162572097Y-83281083D01*
X162465635Y-83291736D01*
X162464775Y-83291789D01*
X162367991Y-83294127D01*
X162367859Y-83294130D01*
X162277515Y-83294871D01*
X162190574Y-83300805D01*
X162190178Y-83300887D01*
X162190176Y-83300887D01*
X162104236Y-83318626D01*
X162103708Y-83318735D01*
X162103212Y-83318937D01*
X162014021Y-83355259D01*
X162014016Y-83355262D01*
X162013524Y-83355462D01*
X161916625Y-83417787D01*
X161818413Y-83504728D01*
X161817862Y-83505216D01*
X161809396Y-83508133D01*
X161801834Y-83504728D01*
X161605272Y-83308166D01*
X161601845Y-83299893D01*
X161604784Y-83292138D01*
X161637826Y-83254812D01*
X161692212Y-83193374D01*
X161754537Y-83096475D01*
X161754737Y-83095983D01*
X161754740Y-83095978D01*
X161791061Y-83006786D01*
X161791263Y-83006290D01*
X161809193Y-82919425D01*
X161815128Y-82832484D01*
X161815868Y-82742139D01*
X161815871Y-82741980D01*
X161818208Y-82645235D01*
X161818263Y-82644353D01*
X161828914Y-82537908D01*
X161829116Y-82536621D01*
X161854800Y-82416779D01*
X161855187Y-82415394D01*
X161898874Y-82289541D01*
X161904824Y-82282849D01*
X161914390Y-82282563D01*
X161931299Y-82289541D01*
G37*
%TD.AperFunction*%
%TD*%
%TA.AperFunction,Conductor*%
%TO.N,/~{CE}*%
G36*
X151771299Y-87369541D02*
G01*
X152396212Y-87627438D01*
X152402562Y-87633788D01*
X152439938Y-87724353D01*
X152667437Y-88275610D01*
X152667426Y-88284564D01*
X152660459Y-88291126D01*
X152534605Y-88334812D01*
X152533220Y-88335199D01*
X152479649Y-88346680D01*
X152413372Y-88360883D01*
X152412097Y-88361083D01*
X152305635Y-88371736D01*
X152304775Y-88371789D01*
X152207991Y-88374127D01*
X152207859Y-88374130D01*
X152117515Y-88374871D01*
X152030574Y-88380805D01*
X152030178Y-88380887D01*
X152030176Y-88380887D01*
X151944236Y-88398626D01*
X151943708Y-88398735D01*
X151943212Y-88398937D01*
X151854021Y-88435259D01*
X151854016Y-88435262D01*
X151853524Y-88435462D01*
X151756625Y-88497787D01*
X151658413Y-88584728D01*
X151657862Y-88585216D01*
X151649396Y-88588133D01*
X151641834Y-88584728D01*
X151445272Y-88388166D01*
X151441845Y-88379893D01*
X151444784Y-88372138D01*
X151477826Y-88334812D01*
X151532212Y-88273374D01*
X151594537Y-88176475D01*
X151594737Y-88175983D01*
X151594740Y-88175978D01*
X151631061Y-88086786D01*
X151631263Y-88086290D01*
X151649193Y-87999425D01*
X151655128Y-87912484D01*
X151655868Y-87822139D01*
X151655871Y-87821980D01*
X151658208Y-87725235D01*
X151658263Y-87724353D01*
X151668914Y-87617908D01*
X151669116Y-87616621D01*
X151694800Y-87496779D01*
X151695187Y-87495394D01*
X151738874Y-87369541D01*
X151744824Y-87362849D01*
X151754390Y-87362563D01*
X151771299Y-87369541D01*
G37*
%TD.AperFunction*%
%TD*%
%TA.AperFunction,Conductor*%
%TO.N,/V-A9*%
G36*
X158134564Y-87362574D02*
G01*
X158141126Y-87369541D01*
X158184812Y-87495394D01*
X158185199Y-87496779D01*
X158210882Y-87616621D01*
X158211084Y-87617908D01*
X158221735Y-87724353D01*
X158221790Y-87725235D01*
X158224127Y-87821980D01*
X158224130Y-87822139D01*
X158224871Y-87912484D01*
X158230805Y-87999425D01*
X158248735Y-88086290D01*
X158248937Y-88086786D01*
X158285259Y-88175978D01*
X158285262Y-88175983D01*
X158285462Y-88176475D01*
X158347787Y-88273374D01*
X158425252Y-88360882D01*
X158435216Y-88372138D01*
X158438133Y-88380604D01*
X158434728Y-88388166D01*
X158238166Y-88584728D01*
X158229893Y-88588155D01*
X158222138Y-88585216D01*
X158215145Y-88579026D01*
X158123374Y-88497787D01*
X158026475Y-88435462D01*
X158025983Y-88435262D01*
X158025978Y-88435259D01*
X157936786Y-88398937D01*
X157936290Y-88398735D01*
X157885087Y-88388166D01*
X157849823Y-88380887D01*
X157849821Y-88380887D01*
X157849425Y-88380805D01*
X157762484Y-88374871D01*
X157672139Y-88374130D01*
X157672007Y-88374127D01*
X157575224Y-88371789D01*
X157574364Y-88371736D01*
X157467902Y-88361083D01*
X157466627Y-88360883D01*
X157400350Y-88346680D01*
X157346779Y-88335199D01*
X157345394Y-88334812D01*
X157219541Y-88291126D01*
X157212849Y-88285176D01*
X157212563Y-88275610D01*
X157440062Y-87724353D01*
X157477438Y-87633788D01*
X157483788Y-87627438D01*
X158108701Y-87369541D01*
X158125610Y-87362563D01*
X158134564Y-87362574D01*
G37*
%TD.AperFunction*%
%TD*%
%TA.AperFunction,Conductor*%
%TO.N,/V-A13*%
G36*
X160416572Y-87629688D02*
G01*
X160718241Y-87629987D01*
X160726510Y-87633422D01*
X160729929Y-87641699D01*
X160729867Y-87642891D01*
X160717517Y-87762295D01*
X160717050Y-87764569D01*
X160681659Y-87878248D01*
X160680974Y-87879960D01*
X160631498Y-87979922D01*
X160630947Y-87980911D01*
X160575166Y-88070593D01*
X160575022Y-88070820D01*
X160520966Y-88153443D01*
X160476999Y-88231950D01*
X160451265Y-88309649D01*
X160451855Y-88389933D01*
X160486857Y-88476195D01*
X160487399Y-88476864D01*
X160487401Y-88476867D01*
X160506904Y-88500932D01*
X160557727Y-88563643D01*
X160560273Y-88572227D01*
X160556910Y-88579282D01*
X160360296Y-88775896D01*
X160352023Y-88779323D01*
X160343962Y-88776103D01*
X160248098Y-88684978D01*
X160248097Y-88684977D01*
X160247978Y-88684864D01*
X160157553Y-88608427D01*
X160108799Y-88572227D01*
X160077625Y-88549080D01*
X160077624Y-88549079D01*
X160077497Y-88548985D01*
X160004354Y-88500873D01*
X160004258Y-88500815D01*
X160004243Y-88500805D01*
X159934667Y-88458427D01*
X159865171Y-88416096D01*
X159864827Y-88415879D01*
X159823693Y-88388823D01*
X159792104Y-88368045D01*
X159791583Y-88367680D01*
X159712066Y-88308639D01*
X159711491Y-88308182D01*
X159621621Y-88232215D01*
X159621113Y-88231760D01*
X159525792Y-88141150D01*
X159522157Y-88132966D01*
X159525568Y-88124408D01*
X160015860Y-87632736D01*
X160024157Y-87629298D01*
X160416572Y-87629688D01*
G37*
%TD.AperFunction*%
%TD*%
%TA.AperFunction,Conductor*%
%TO.N,+5V*%
G36*
X179570254Y-109637641D02*
G01*
X179572893Y-109641693D01*
X179603824Y-109721656D01*
X179637649Y-109803719D01*
X179671474Y-109880404D01*
X179705298Y-109951710D01*
X179739123Y-110017638D01*
X179772948Y-110078186D01*
X179806772Y-110133357D01*
X179806832Y-110133445D01*
X179806835Y-110133450D01*
X179840510Y-110183021D01*
X179840522Y-110183038D01*
X179840597Y-110183148D01*
X179874422Y-110227561D01*
X179874541Y-110227698D01*
X179904456Y-110262222D01*
X179907284Y-110270719D01*
X179907069Y-110272264D01*
X179081455Y-114245868D01*
X179076417Y-114253271D01*
X179067620Y-114254943D01*
X179060217Y-114249905D01*
X179058545Y-114245868D01*
X178232931Y-110272263D01*
X178234603Y-110263466D01*
X178235544Y-110262221D01*
X178265458Y-110227698D01*
X178265577Y-110227561D01*
X178299402Y-110183148D01*
X178299477Y-110183038D01*
X178299489Y-110183021D01*
X178333164Y-110133450D01*
X178333167Y-110133445D01*
X178333227Y-110133357D01*
X178367051Y-110078186D01*
X178400876Y-110017638D01*
X178434701Y-109951710D01*
X178468525Y-109880404D01*
X178502350Y-109803719D01*
X178536175Y-109721656D01*
X178567107Y-109641693D01*
X178573288Y-109635213D01*
X178578019Y-109634214D01*
X179561981Y-109634214D01*
X179570254Y-109637641D01*
G37*
%TD.AperFunction*%
%TD*%
%TA.AperFunction,Conductor*%
%TO.N,/V-A8*%
G36*
X174142335Y-109558427D02*
G01*
X174143504Y-109559792D01*
X174194371Y-109629350D01*
X174248742Y-109698185D01*
X174303113Y-109761504D01*
X174303213Y-109761610D01*
X174357374Y-109819191D01*
X174357390Y-109819207D01*
X174357484Y-109819307D01*
X174411856Y-109871594D01*
X174411990Y-109871709D01*
X174411993Y-109871712D01*
X174466097Y-109918254D01*
X174466112Y-109918266D01*
X174466227Y-109918365D01*
X174520598Y-109959619D01*
X174574970Y-109995358D01*
X174575157Y-109995462D01*
X174575167Y-109995468D01*
X174575171Y-109995470D01*
X174629341Y-110025580D01*
X174629551Y-110025675D01*
X174629560Y-110025680D01*
X174675564Y-110046584D01*
X174681679Y-110053127D01*
X174682271Y-110059120D01*
X174001547Y-114230246D01*
X173996833Y-114237860D01*
X173988116Y-114239909D01*
X173980502Y-114235195D01*
X173978453Y-114230246D01*
X173297729Y-110059120D01*
X173299778Y-110050403D01*
X173304436Y-110046584D01*
X173350438Y-110025680D01*
X173350439Y-110025680D01*
X173350658Y-110025580D01*
X173405029Y-109995358D01*
X173405203Y-109995244D01*
X173405214Y-109995237D01*
X173435950Y-109975033D01*
X173459400Y-109959619D01*
X173513771Y-109918365D01*
X173513886Y-109918266D01*
X173513901Y-109918254D01*
X173568006Y-109871712D01*
X173568009Y-109871709D01*
X173568143Y-109871594D01*
X173622514Y-109819307D01*
X173622608Y-109819207D01*
X173622624Y-109819191D01*
X173676776Y-109761620D01*
X173676785Y-109761610D01*
X173676885Y-109761504D01*
X173731257Y-109698185D01*
X173785628Y-109629350D01*
X173836494Y-109559794D01*
X173844144Y-109555138D01*
X173845938Y-109555000D01*
X174134062Y-109555000D01*
X174142335Y-109558427D01*
G37*
%TD.AperFunction*%
%TD*%
%TA.AperFunction,Conductor*%
%TO.N,/V-RW*%
G36*
X143662822Y-109637641D02*
G01*
X143663506Y-109638387D01*
X143714371Y-109698927D01*
X143714445Y-109699008D01*
X143714458Y-109699023D01*
X143768644Y-109758400D01*
X143768742Y-109758507D01*
X143823113Y-109812951D01*
X143877484Y-109862260D01*
X143877564Y-109862325D01*
X143877579Y-109862338D01*
X143931739Y-109906340D01*
X143931856Y-109906435D01*
X143931971Y-109906517D01*
X143931982Y-109906526D01*
X143986075Y-109945366D01*
X143986227Y-109945475D01*
X144040598Y-109979380D01*
X144040761Y-109979466D01*
X144040764Y-109979468D01*
X144094769Y-110008044D01*
X144094776Y-110008048D01*
X144094970Y-110008150D01*
X144095175Y-110008239D01*
X144095181Y-110008242D01*
X144122155Y-110019968D01*
X144149341Y-110031786D01*
X144149561Y-110031861D01*
X144149564Y-110031862D01*
X144194340Y-110047098D01*
X144201068Y-110053007D01*
X144202118Y-110060058D01*
X143521547Y-114230246D01*
X143516833Y-114237860D01*
X143508116Y-114239909D01*
X143500502Y-114235195D01*
X143498453Y-114230246D01*
X142817882Y-110060058D01*
X142819931Y-110051341D01*
X142825660Y-110047098D01*
X142870435Y-110031862D01*
X142870438Y-110031861D01*
X142870658Y-110031786D01*
X142925029Y-110008150D01*
X142979400Y-109979380D01*
X143033771Y-109945475D01*
X143088143Y-109906435D01*
X143088260Y-109906340D01*
X143142419Y-109862338D01*
X143142434Y-109862325D01*
X143142514Y-109862260D01*
X143196885Y-109812951D01*
X143251257Y-109758507D01*
X143251355Y-109758400D01*
X143305541Y-109699023D01*
X143305554Y-109699008D01*
X143305628Y-109698927D01*
X143356493Y-109638388D01*
X143364439Y-109634258D01*
X143365451Y-109634214D01*
X143654549Y-109634214D01*
X143662822Y-109637641D01*
G37*
%TD.AperFunction*%
%TD*%
%TA.AperFunction,Conductor*%
%TO.N,/V-A12*%
G36*
X143820647Y-107794061D02*
G01*
X143846910Y-107818879D01*
X143879708Y-107849874D01*
X143938554Y-107897878D01*
X143991594Y-107933335D01*
X144041504Y-107959319D01*
X144068031Y-107969824D01*
X144090769Y-107978829D01*
X144090775Y-107978831D01*
X144090959Y-107978904D01*
X144142636Y-107995165D01*
X144199181Y-108011168D01*
X144199263Y-108011192D01*
X144263151Y-108029950D01*
X144263529Y-108030067D01*
X144337508Y-108054662D01*
X144338014Y-108054844D01*
X144413915Y-108084141D01*
X144420399Y-108090317D01*
X144420522Y-108099507D01*
X144274563Y-108454197D01*
X144268197Y-108460563D01*
X143913507Y-108606522D01*
X143904554Y-108606501D01*
X143898141Y-108599915D01*
X143868847Y-108524022D01*
X143868659Y-108523500D01*
X143844070Y-108449537D01*
X143843947Y-108449142D01*
X143825200Y-108385291D01*
X143825168Y-108385181D01*
X143809183Y-108328700D01*
X143809165Y-108328636D01*
X143792904Y-108276959D01*
X143773319Y-108227504D01*
X143747335Y-108177594D01*
X143711878Y-108124554D01*
X143663874Y-108065708D01*
X143630079Y-108029947D01*
X143608061Y-108006647D01*
X143604870Y-107998280D01*
X143608292Y-107990338D01*
X143804338Y-107794292D01*
X143812611Y-107790865D01*
X143820647Y-107794061D01*
G37*
%TD.AperFunction*%
%TD*%
%TA.AperFunction,Conductor*%
%TO.N,/V-A9*%
G36*
X171602335Y-109558427D02*
G01*
X171603504Y-109559792D01*
X171654371Y-109629350D01*
X171708742Y-109698185D01*
X171763113Y-109761504D01*
X171763213Y-109761610D01*
X171817374Y-109819191D01*
X171817390Y-109819207D01*
X171817484Y-109819307D01*
X171871856Y-109871594D01*
X171871990Y-109871709D01*
X171871993Y-109871712D01*
X171926097Y-109918254D01*
X171926112Y-109918266D01*
X171926227Y-109918365D01*
X171980598Y-109959619D01*
X172034970Y-109995358D01*
X172035157Y-109995462D01*
X172035167Y-109995468D01*
X172035171Y-109995470D01*
X172089341Y-110025580D01*
X172089551Y-110025675D01*
X172089560Y-110025680D01*
X172135564Y-110046584D01*
X172141679Y-110053127D01*
X172142271Y-110059120D01*
X171461547Y-114230246D01*
X171456833Y-114237860D01*
X171448116Y-114239909D01*
X171440502Y-114235195D01*
X171438453Y-114230246D01*
X170757729Y-110059120D01*
X170759778Y-110050403D01*
X170764436Y-110046584D01*
X170810438Y-110025680D01*
X170810439Y-110025680D01*
X170810658Y-110025580D01*
X170865029Y-109995358D01*
X170865203Y-109995244D01*
X170865214Y-109995237D01*
X170895950Y-109975033D01*
X170919400Y-109959619D01*
X170973771Y-109918365D01*
X170973886Y-109918266D01*
X170973901Y-109918254D01*
X171028006Y-109871712D01*
X171028009Y-109871709D01*
X171028143Y-109871594D01*
X171082514Y-109819307D01*
X171082608Y-109819207D01*
X171082624Y-109819191D01*
X171136776Y-109761620D01*
X171136785Y-109761610D01*
X171136885Y-109761504D01*
X171191257Y-109698185D01*
X171245628Y-109629350D01*
X171296494Y-109559794D01*
X171304144Y-109555138D01*
X171305938Y-109555000D01*
X171594062Y-109555000D01*
X171602335Y-109558427D01*
G37*
%TD.AperFunction*%
%TD*%
%TA.AperFunction,Conductor*%
%TO.N,/V-RW*%
G36*
X164959446Y-92561499D02*
G01*
X164965859Y-92568085D01*
X164995152Y-92643977D01*
X164995340Y-92644499D01*
X165019928Y-92718461D01*
X165020051Y-92718856D01*
X165038790Y-92782679D01*
X165038822Y-92782789D01*
X165054805Y-92839266D01*
X165054814Y-92839296D01*
X165054833Y-92839363D01*
X165071094Y-92891039D01*
X165090679Y-92940495D01*
X165116664Y-92990404D01*
X165152121Y-93043444D01*
X165200125Y-93102291D01*
X165231301Y-93135281D01*
X165255939Y-93161353D01*
X165259130Y-93169720D01*
X165255708Y-93177662D01*
X165059662Y-93373708D01*
X165051389Y-93377135D01*
X165043353Y-93373939D01*
X165017281Y-93349301D01*
X164984291Y-93318125D01*
X164925444Y-93270121D01*
X164872404Y-93234664D01*
X164822495Y-93208679D01*
X164795989Y-93198182D01*
X164773229Y-93189169D01*
X164773223Y-93189167D01*
X164773039Y-93189094D01*
X164772839Y-93189031D01*
X164721485Y-93172871D01*
X164721456Y-93172862D01*
X164721363Y-93172833D01*
X164721296Y-93172814D01*
X164721266Y-93172805D01*
X164664817Y-93156830D01*
X164664707Y-93156798D01*
X164600847Y-93138048D01*
X164600469Y-93137931D01*
X164526491Y-93113337D01*
X164525985Y-93113155D01*
X164450085Y-93083859D01*
X164443601Y-93077683D01*
X164443478Y-93068492D01*
X164453786Y-93043444D01*
X164589437Y-92713803D01*
X164595803Y-92707437D01*
X164950493Y-92561478D01*
X164959446Y-92561499D01*
G37*
%TD.AperFunction*%
%TD*%
%TA.AperFunction,Conductor*%
%TO.N,+5V*%
G36*
X177029950Y-109558427D02*
G01*
X177032730Y-109562862D01*
X177063821Y-109652408D01*
X177063824Y-109652416D01*
X177097633Y-109743954D01*
X177097663Y-109744035D01*
X177131455Y-109829697D01*
X177131474Y-109829745D01*
X177165298Y-109909658D01*
X177199123Y-109983735D01*
X177232948Y-110051977D01*
X177266772Y-110114384D01*
X177300597Y-110170956D01*
X177334422Y-110221693D01*
X177334515Y-110221817D01*
X177334526Y-110221832D01*
X177365059Y-110262364D01*
X177367169Y-110271784D01*
X176541455Y-114245868D01*
X176536417Y-114253271D01*
X176527620Y-114254943D01*
X176520217Y-114249905D01*
X176518545Y-114245868D01*
X175692831Y-110271784D01*
X175694941Y-110262364D01*
X175725473Y-110221832D01*
X175725484Y-110221817D01*
X175725577Y-110221693D01*
X175759402Y-110170956D01*
X175793227Y-110114384D01*
X175827051Y-110051977D01*
X175860876Y-109983735D01*
X175894701Y-109909658D01*
X175928525Y-109829745D01*
X175928544Y-109829697D01*
X175962336Y-109744035D01*
X175962366Y-109743954D01*
X175996175Y-109652416D01*
X175996178Y-109652408D01*
X176027270Y-109562862D01*
X176033221Y-109556171D01*
X176038323Y-109555000D01*
X177021677Y-109555000D01*
X177029950Y-109558427D01*
G37*
%TD.AperFunction*%
%TD*%
%TA.AperFunction,Conductor*%
%TO.N,/V-RW*%
G36*
X177904512Y-91334470D02*
G01*
X177910830Y-91340817D01*
X177910707Y-91350008D01*
X177877757Y-91424383D01*
X177877521Y-91424885D01*
X177842609Y-91494570D01*
X177842417Y-91494936D01*
X177810481Y-91553421D01*
X177781799Y-91604746D01*
X177781775Y-91604792D01*
X177781763Y-91604814D01*
X177777347Y-91613285D01*
X177776209Y-91615468D01*
X177776209Y-91615469D01*
X177756756Y-91652785D01*
X177735635Y-91701605D01*
X177718717Y-91755270D01*
X177706284Y-91817847D01*
X177698618Y-91893401D01*
X177696000Y-91986000D01*
X177396000Y-91986000D01*
X177393381Y-91893401D01*
X177385715Y-91817847D01*
X177373282Y-91755270D01*
X177356364Y-91701605D01*
X177335243Y-91652785D01*
X177315790Y-91615469D01*
X177315790Y-91615468D01*
X177314652Y-91613285D01*
X177310236Y-91604814D01*
X177310224Y-91604792D01*
X177310200Y-91604746D01*
X177281517Y-91553421D01*
X177249582Y-91494936D01*
X177249390Y-91494570D01*
X177214477Y-91424885D01*
X177214241Y-91424383D01*
X177181292Y-91350008D01*
X177181074Y-91341056D01*
X177187486Y-91334471D01*
X177541498Y-91186877D01*
X177550502Y-91186877D01*
X177904512Y-91334470D01*
G37*
%TD.AperFunction*%
%TD*%
%TA.AperFunction,Conductor*%
%TO.N,+5V*%
G36*
X172453550Y-84520540D02*
G01*
X172533938Y-84600788D01*
X173015706Y-85081720D01*
X173019140Y-85089990D01*
X173015706Y-85098279D01*
X172517133Y-85595987D01*
X172453551Y-85659459D01*
X172445275Y-85662879D01*
X172440768Y-85661971D01*
X172418000Y-85652437D01*
X172417924Y-85652408D01*
X172417909Y-85652402D01*
X172402866Y-85646668D01*
X172388000Y-85641000D01*
X172358000Y-85630687D01*
X172357889Y-85630653D01*
X172328086Y-85621526D01*
X172328071Y-85621522D01*
X172328000Y-85621500D01*
X172298000Y-85613437D01*
X172297919Y-85613418D01*
X172297910Y-85613416D01*
X172268109Y-85606525D01*
X172268099Y-85606523D01*
X172268000Y-85606500D01*
X172267893Y-85606479D01*
X172267887Y-85606478D01*
X172238140Y-85600714D01*
X172238133Y-85600713D01*
X172238000Y-85600687D01*
X172216825Y-85597379D01*
X172208097Y-85596015D01*
X172208090Y-85596014D01*
X172208000Y-85596000D01*
X172178000Y-85592437D01*
X172177908Y-85592430D01*
X172177903Y-85592429D01*
X172174175Y-85592126D01*
X172158752Y-85590873D01*
X172150784Y-85586788D01*
X172148000Y-85579212D01*
X172148000Y-84600788D01*
X172151427Y-84592515D01*
X172158751Y-84589126D01*
X172167761Y-84588394D01*
X172177880Y-84587572D01*
X172177891Y-84587571D01*
X172178000Y-84587562D01*
X172208000Y-84584000D01*
X172208128Y-84583980D01*
X172237880Y-84579331D01*
X172237891Y-84579329D01*
X172238000Y-84579312D01*
X172253690Y-84576272D01*
X172267893Y-84573521D01*
X172267906Y-84573518D01*
X172268000Y-84573500D01*
X172285414Y-84569473D01*
X172297867Y-84566593D01*
X172297879Y-84566590D01*
X172298000Y-84566562D01*
X172311737Y-84562870D01*
X172327923Y-84558521D01*
X172327938Y-84558517D01*
X172328000Y-84558500D01*
X172330195Y-84557828D01*
X172357887Y-84549347D01*
X172357909Y-84549340D01*
X172358000Y-84549312D01*
X172358080Y-84549285D01*
X172358097Y-84549279D01*
X172387905Y-84539033D01*
X172387923Y-84539027D01*
X172388000Y-84539000D01*
X172388083Y-84538968D01*
X172388117Y-84538956D01*
X172417909Y-84527597D01*
X172417924Y-84527591D01*
X172418000Y-84527562D01*
X172440766Y-84518029D01*
X172449721Y-84517994D01*
X172453550Y-84520540D01*
G37*
%TD.AperFunction*%
%TD*%
%TA.AperFunction,Conductor*%
%TO.N,/V-A14*%
G36*
X173421278Y-90062994D02*
G01*
X173426442Y-90068158D01*
X173701114Y-90611542D01*
X173701788Y-90620471D01*
X173699661Y-90624309D01*
X173690723Y-90635037D01*
X173676865Y-90653922D01*
X173676776Y-90654057D01*
X173676764Y-90654075D01*
X173663088Y-90674933D01*
X173663007Y-90675057D01*
X173649149Y-90698441D01*
X173635291Y-90724076D01*
X173621432Y-90751961D01*
X173621398Y-90752035D01*
X173621397Y-90752037D01*
X173607601Y-90782035D01*
X173607584Y-90782073D01*
X173607574Y-90782095D01*
X173593716Y-90814480D01*
X173579858Y-90849115D01*
X173568849Y-90878417D01*
X173562733Y-90884954D01*
X173557898Y-90886000D01*
X173274102Y-90886000D01*
X173265829Y-90882573D01*
X173263150Y-90878415D01*
X173252175Y-90849206D01*
X173252141Y-90849115D01*
X173238283Y-90814480D01*
X173224425Y-90782095D01*
X173224415Y-90782073D01*
X173224398Y-90782035D01*
X173210602Y-90752037D01*
X173210601Y-90752035D01*
X173210567Y-90751961D01*
X173196709Y-90724076D01*
X173182850Y-90698441D01*
X173168992Y-90675057D01*
X173168911Y-90674933D01*
X173155235Y-90654075D01*
X173155223Y-90654057D01*
X173155134Y-90653922D01*
X173141276Y-90635037D01*
X173132339Y-90624310D01*
X173129676Y-90615760D01*
X173130886Y-90611543D01*
X173405558Y-90068158D01*
X173412349Y-90062320D01*
X173421278Y-90062994D01*
G37*
%TD.AperFunction*%
%TD*%
%TA.AperFunction,Conductor*%
%TO.N,/V-D3*%
G36*
X148742335Y-109558427D02*
G01*
X148743504Y-109559792D01*
X148794371Y-109629350D01*
X148848742Y-109698185D01*
X148903113Y-109761504D01*
X148903213Y-109761610D01*
X148957374Y-109819191D01*
X148957390Y-109819207D01*
X148957484Y-109819307D01*
X149011856Y-109871594D01*
X149011990Y-109871709D01*
X149011993Y-109871712D01*
X149066097Y-109918254D01*
X149066112Y-109918266D01*
X149066227Y-109918365D01*
X149120598Y-109959619D01*
X149174970Y-109995358D01*
X149175157Y-109995462D01*
X149175167Y-109995468D01*
X149175171Y-109995470D01*
X149229341Y-110025580D01*
X149229551Y-110025675D01*
X149229560Y-110025680D01*
X149275564Y-110046584D01*
X149281679Y-110053127D01*
X149282271Y-110059120D01*
X148601547Y-114230246D01*
X148596833Y-114237860D01*
X148588116Y-114239909D01*
X148580502Y-114235195D01*
X148578453Y-114230246D01*
X147897729Y-110059120D01*
X147899778Y-110050403D01*
X147904436Y-110046584D01*
X147950438Y-110025680D01*
X147950439Y-110025680D01*
X147950658Y-110025580D01*
X148005029Y-109995358D01*
X148005203Y-109995244D01*
X148005214Y-109995237D01*
X148035950Y-109975033D01*
X148059400Y-109959619D01*
X148113771Y-109918365D01*
X148113886Y-109918266D01*
X148113901Y-109918254D01*
X148168006Y-109871712D01*
X148168009Y-109871709D01*
X148168143Y-109871594D01*
X148222514Y-109819307D01*
X148222608Y-109819207D01*
X148222624Y-109819191D01*
X148276776Y-109761620D01*
X148276785Y-109761610D01*
X148276885Y-109761504D01*
X148331257Y-109698185D01*
X148385628Y-109629350D01*
X148436494Y-109559794D01*
X148444144Y-109555138D01*
X148445938Y-109555000D01*
X148734062Y-109555000D01*
X148742335Y-109558427D01*
G37*
%TD.AperFunction*%
%TD*%
%TA.AperFunction,Conductor*%
%TO.N,/V-A14*%
G36*
X163204025Y-90169933D02*
G01*
X163259148Y-90169988D01*
X163267417Y-90173423D01*
X163270830Y-90182048D01*
X163268516Y-90257293D01*
X163268481Y-90257911D01*
X163262160Y-90333303D01*
X163262129Y-90333617D01*
X163254703Y-90399823D01*
X163248759Y-90458925D01*
X163246895Y-90513020D01*
X163251695Y-90564354D01*
X163265740Y-90615176D01*
X163291613Y-90667732D01*
X163291883Y-90668111D01*
X163291886Y-90668116D01*
X163311151Y-90695155D01*
X163331896Y-90724271D01*
X163332126Y-90724523D01*
X163332130Y-90724528D01*
X163356965Y-90751744D01*
X163381639Y-90778785D01*
X163384684Y-90787205D01*
X163381269Y-90794943D01*
X163184943Y-90991269D01*
X163176670Y-90994696D01*
X163168785Y-90991639D01*
X163141744Y-90966965D01*
X163114528Y-90942130D01*
X163114523Y-90942126D01*
X163114271Y-90941896D01*
X163085155Y-90921151D01*
X163058116Y-90901886D01*
X163058111Y-90901883D01*
X163057732Y-90901613D01*
X163057312Y-90901406D01*
X163057310Y-90901405D01*
X163005670Y-90875983D01*
X163005668Y-90875982D01*
X163005176Y-90875740D01*
X162981323Y-90869148D01*
X162954854Y-90861833D01*
X162954852Y-90861833D01*
X162954354Y-90861695D01*
X162919327Y-90858420D01*
X162903396Y-90856930D01*
X162903394Y-90856930D01*
X162903020Y-90856895D01*
X162848925Y-90858759D01*
X162789823Y-90864703D01*
X162723617Y-90872129D01*
X162723320Y-90872158D01*
X162647896Y-90878482D01*
X162647305Y-90878515D01*
X162572047Y-90880830D01*
X162563673Y-90877660D01*
X162559988Y-90869148D01*
X162559305Y-90181017D01*
X162562724Y-90172740D01*
X162571017Y-90169305D01*
X163204025Y-90169933D01*
G37*
%TD.AperFunction*%
%TD*%
%TA.AperFunction,Conductor*%
%TO.N,/V-A10*%
G36*
X154948281Y-90177297D02*
G01*
X155434270Y-90664253D01*
X155437689Y-90672530D01*
X155433894Y-90681143D01*
X155384008Y-90726864D01*
X155383300Y-90727464D01*
X155328442Y-90770264D01*
X155327937Y-90770636D01*
X155277187Y-90806023D01*
X155277073Y-90806102D01*
X155231040Y-90837394D01*
X155231024Y-90837405D01*
X155230935Y-90837466D01*
X155190284Y-90867986D01*
X155155725Y-90901030D01*
X155127839Y-90939985D01*
X155107203Y-90988236D01*
X155094397Y-91049170D01*
X155094372Y-91049606D01*
X155094372Y-91049607D01*
X155090630Y-91115142D01*
X155086737Y-91123206D01*
X155078949Y-91126175D01*
X154801051Y-91126175D01*
X154792778Y-91122748D01*
X154789370Y-91115142D01*
X154785627Y-91049607D01*
X154785627Y-91049606D01*
X154785602Y-91049170D01*
X154772796Y-90988236D01*
X154752160Y-90939985D01*
X154724274Y-90901030D01*
X154689715Y-90867986D01*
X154649063Y-90837466D01*
X154602926Y-90806102D01*
X154602812Y-90806023D01*
X154552062Y-90770636D01*
X154551557Y-90770264D01*
X154496699Y-90727464D01*
X154495991Y-90726864D01*
X154446106Y-90681143D01*
X154442322Y-90673027D01*
X154445730Y-90664253D01*
X154931719Y-90177297D01*
X154939988Y-90173862D01*
X154948281Y-90177297D01*
G37*
%TD.AperFunction*%
%TD*%
%TA.AperFunction,Conductor*%
%TO.N,/V-A5*%
G36*
X167532899Y-80483427D02*
G01*
X167536321Y-80491369D01*
X167538618Y-80572597D01*
X167546284Y-80648152D01*
X167558717Y-80710729D01*
X167575635Y-80764394D01*
X167575747Y-80764653D01*
X167575750Y-80764661D01*
X167596668Y-80813010D01*
X167596756Y-80813213D01*
X167621799Y-80861252D01*
X167621845Y-80861334D01*
X167650425Y-80912476D01*
X167650481Y-80912577D01*
X167682417Y-80971062D01*
X167682609Y-80971428D01*
X167717521Y-81041114D01*
X167717757Y-81041616D01*
X167750707Y-81115992D01*
X167750925Y-81124944D01*
X167744512Y-81131530D01*
X167390502Y-81279123D01*
X167381498Y-81279123D01*
X167027486Y-81131529D01*
X167021169Y-81125183D01*
X167021292Y-81115992D01*
X167054241Y-81041616D01*
X167054477Y-81041114D01*
X167089390Y-80971428D01*
X167089582Y-80971062D01*
X167121517Y-80912577D01*
X167121573Y-80912476D01*
X167150154Y-80861334D01*
X167150200Y-80861252D01*
X167175243Y-80813213D01*
X167175331Y-80813010D01*
X167196249Y-80764661D01*
X167196252Y-80764653D01*
X167196364Y-80764394D01*
X167213282Y-80710729D01*
X167225715Y-80648152D01*
X167233381Y-80572597D01*
X167235678Y-80491368D01*
X167239337Y-80483196D01*
X167247373Y-80480000D01*
X167524626Y-80480000D01*
X167532899Y-80483427D01*
G37*
%TD.AperFunction*%
%TD*%
%TA.AperFunction,Conductor*%
%TO.N,/V-D4*%
G36*
X151282335Y-109558427D02*
G01*
X151283504Y-109559792D01*
X151334371Y-109629350D01*
X151388742Y-109698185D01*
X151443113Y-109761504D01*
X151443213Y-109761610D01*
X151497374Y-109819191D01*
X151497390Y-109819207D01*
X151497484Y-109819307D01*
X151551856Y-109871594D01*
X151551990Y-109871709D01*
X151551993Y-109871712D01*
X151606097Y-109918254D01*
X151606112Y-109918266D01*
X151606227Y-109918365D01*
X151660598Y-109959619D01*
X151714970Y-109995358D01*
X151715157Y-109995462D01*
X151715167Y-109995468D01*
X151715171Y-109995470D01*
X151769341Y-110025580D01*
X151769551Y-110025675D01*
X151769560Y-110025680D01*
X151815564Y-110046584D01*
X151821679Y-110053127D01*
X151822271Y-110059120D01*
X151141547Y-114230246D01*
X151136833Y-114237860D01*
X151128116Y-114239909D01*
X151120502Y-114235195D01*
X151118453Y-114230246D01*
X150437729Y-110059120D01*
X150439778Y-110050403D01*
X150444436Y-110046584D01*
X150490438Y-110025680D01*
X150490439Y-110025680D01*
X150490658Y-110025580D01*
X150545029Y-109995358D01*
X150545203Y-109995244D01*
X150545214Y-109995237D01*
X150575950Y-109975033D01*
X150599400Y-109959619D01*
X150653771Y-109918365D01*
X150653886Y-109918266D01*
X150653901Y-109918254D01*
X150708006Y-109871712D01*
X150708009Y-109871709D01*
X150708143Y-109871594D01*
X150762514Y-109819307D01*
X150762608Y-109819207D01*
X150762624Y-109819191D01*
X150816776Y-109761620D01*
X150816785Y-109761610D01*
X150816885Y-109761504D01*
X150871257Y-109698185D01*
X150925628Y-109629350D01*
X150976494Y-109559794D01*
X150984144Y-109555138D01*
X150985938Y-109555000D01*
X151274062Y-109555000D01*
X151282335Y-109558427D01*
G37*
%TD.AperFunction*%
%TD*%
%TA.AperFunction,Conductor*%
%TO.N,/V-D7*%
G36*
X158902679Y-109615427D02*
G01*
X158903512Y-109616354D01*
X158954371Y-109679398D01*
X158954427Y-109679462D01*
X158954442Y-109679480D01*
X158981556Y-109710478D01*
X159008742Y-109741559D01*
X159063113Y-109798482D01*
X159117484Y-109850167D01*
X159171856Y-109896615D01*
X159226227Y-109937824D01*
X159280598Y-109973797D01*
X159334970Y-110004531D01*
X159389341Y-110030028D01*
X159389559Y-110030109D01*
X159389568Y-110030113D01*
X159434702Y-110046930D01*
X159441258Y-110053030D01*
X159442164Y-110059778D01*
X158761547Y-114230246D01*
X158756833Y-114237860D01*
X158748116Y-114239909D01*
X158740502Y-114235195D01*
X158738453Y-114230246D01*
X158057836Y-110059777D01*
X158059885Y-110051060D01*
X158065297Y-110046930D01*
X158088457Y-110038300D01*
X158110431Y-110030113D01*
X158110440Y-110030109D01*
X158110658Y-110030028D01*
X158165029Y-110004531D01*
X158219400Y-109973797D01*
X158273771Y-109937824D01*
X158328143Y-109896615D01*
X158382514Y-109850167D01*
X158436885Y-109798482D01*
X158491257Y-109741559D01*
X158518443Y-109710478D01*
X158545557Y-109679480D01*
X158545572Y-109679462D01*
X158545628Y-109679398D01*
X158596488Y-109616354D01*
X158604348Y-109612066D01*
X158605593Y-109612000D01*
X158894406Y-109612000D01*
X158902679Y-109615427D01*
G37*
%TD.AperFunction*%
%TD*%
%TA.AperFunction,Conductor*%
%TO.N,/V-D5*%
G36*
X153822335Y-109558427D02*
G01*
X153823504Y-109559792D01*
X153874371Y-109629350D01*
X153928742Y-109698185D01*
X153983113Y-109761504D01*
X153983213Y-109761610D01*
X154037374Y-109819191D01*
X154037390Y-109819207D01*
X154037484Y-109819307D01*
X154091856Y-109871594D01*
X154091990Y-109871709D01*
X154091993Y-109871712D01*
X154146097Y-109918254D01*
X154146112Y-109918266D01*
X154146227Y-109918365D01*
X154200598Y-109959619D01*
X154254970Y-109995358D01*
X154255157Y-109995462D01*
X154255167Y-109995468D01*
X154255171Y-109995470D01*
X154309341Y-110025580D01*
X154309551Y-110025675D01*
X154309560Y-110025680D01*
X154355564Y-110046584D01*
X154361679Y-110053127D01*
X154362271Y-110059120D01*
X153681547Y-114230246D01*
X153676833Y-114237860D01*
X153668116Y-114239909D01*
X153660502Y-114235195D01*
X153658453Y-114230246D01*
X152977729Y-110059120D01*
X152979778Y-110050403D01*
X152984436Y-110046584D01*
X153030438Y-110025680D01*
X153030439Y-110025680D01*
X153030658Y-110025580D01*
X153085029Y-109995358D01*
X153085203Y-109995244D01*
X153085214Y-109995237D01*
X153115950Y-109975033D01*
X153139400Y-109959619D01*
X153193771Y-109918365D01*
X153193886Y-109918266D01*
X153193901Y-109918254D01*
X153248006Y-109871712D01*
X153248009Y-109871709D01*
X153248143Y-109871594D01*
X153302514Y-109819307D01*
X153302608Y-109819207D01*
X153302624Y-109819191D01*
X153356776Y-109761620D01*
X153356785Y-109761610D01*
X153356885Y-109761504D01*
X153411257Y-109698185D01*
X153465628Y-109629350D01*
X153516494Y-109559794D01*
X153524144Y-109555138D01*
X153525938Y-109555000D01*
X153814062Y-109555000D01*
X153822335Y-109558427D01*
G37*
%TD.AperFunction*%
%TD*%
%TA.AperFunction,Conductor*%
%TO.N,/IRQ*%
G36*
X136042822Y-109637641D02*
G01*
X136043506Y-109638387D01*
X136094371Y-109698927D01*
X136094445Y-109699008D01*
X136094458Y-109699023D01*
X136148644Y-109758400D01*
X136148742Y-109758507D01*
X136203113Y-109812951D01*
X136257484Y-109862260D01*
X136257564Y-109862325D01*
X136257579Y-109862338D01*
X136311739Y-109906340D01*
X136311856Y-109906435D01*
X136311971Y-109906517D01*
X136311982Y-109906526D01*
X136366075Y-109945366D01*
X136366227Y-109945475D01*
X136420598Y-109979380D01*
X136420761Y-109979466D01*
X136420764Y-109979468D01*
X136474769Y-110008044D01*
X136474776Y-110008048D01*
X136474970Y-110008150D01*
X136475175Y-110008239D01*
X136475181Y-110008242D01*
X136502155Y-110019968D01*
X136529341Y-110031786D01*
X136529561Y-110031861D01*
X136529564Y-110031862D01*
X136574340Y-110047098D01*
X136581068Y-110053007D01*
X136582118Y-110060058D01*
X135901547Y-114230246D01*
X135896833Y-114237860D01*
X135888116Y-114239909D01*
X135880502Y-114235195D01*
X135878453Y-114230246D01*
X135197882Y-110060058D01*
X135199931Y-110051341D01*
X135205660Y-110047098D01*
X135250435Y-110031862D01*
X135250438Y-110031861D01*
X135250658Y-110031786D01*
X135305029Y-110008150D01*
X135359400Y-109979380D01*
X135413771Y-109945475D01*
X135468143Y-109906435D01*
X135468260Y-109906340D01*
X135522419Y-109862338D01*
X135522434Y-109862325D01*
X135522514Y-109862260D01*
X135576885Y-109812951D01*
X135631257Y-109758507D01*
X135631355Y-109758400D01*
X135685541Y-109699023D01*
X135685554Y-109699008D01*
X135685628Y-109698927D01*
X135736493Y-109638388D01*
X135744439Y-109634258D01*
X135745451Y-109634214D01*
X136034549Y-109634214D01*
X136042822Y-109637641D01*
G37*
%TD.AperFunction*%
%TD*%
%TA.AperFunction,Conductor*%
%TO.N,/~{OE}*%
G36*
X154197862Y-95056784D02*
G01*
X154296625Y-95144212D01*
X154393524Y-95206537D01*
X154394016Y-95206737D01*
X154394021Y-95206740D01*
X154481492Y-95242361D01*
X154483708Y-95243263D01*
X154484236Y-95243372D01*
X154570176Y-95261111D01*
X154570178Y-95261111D01*
X154570574Y-95261193D01*
X154657515Y-95267128D01*
X154747859Y-95267868D01*
X154747991Y-95267871D01*
X154844775Y-95270209D01*
X154845635Y-95270262D01*
X154952097Y-95280915D01*
X154953372Y-95281115D01*
X155019497Y-95295286D01*
X155073220Y-95306800D01*
X155074605Y-95307187D01*
X155200459Y-95350874D01*
X155207151Y-95356824D01*
X155207437Y-95366390D01*
X155093458Y-95642574D01*
X154942562Y-96008212D01*
X154936212Y-96014562D01*
X154619614Y-96145220D01*
X154294390Y-96279437D01*
X154285436Y-96279426D01*
X154278874Y-96272459D01*
X154235187Y-96146605D01*
X154234800Y-96145220D01*
X154209116Y-96025378D01*
X154208914Y-96024091D01*
X154198263Y-95917646D01*
X154198208Y-95916764D01*
X154195871Y-95820018D01*
X154195868Y-95819831D01*
X154195129Y-95729668D01*
X154195128Y-95729515D01*
X154189193Y-95642574D01*
X154171263Y-95555708D01*
X154170361Y-95553492D01*
X154134740Y-95466021D01*
X154134737Y-95466016D01*
X154134537Y-95465524D01*
X154072212Y-95368625D01*
X153984784Y-95269862D01*
X153981867Y-95261396D01*
X153985272Y-95253834D01*
X154181834Y-95057272D01*
X154190107Y-95053845D01*
X154197862Y-95056784D01*
G37*
%TD.AperFunction*%
%TD*%
%TA.AperFunction,Conductor*%
%TO.N,/V-D4*%
G36*
X149365418Y-84595395D02*
G01*
X149855160Y-85083762D01*
X149858598Y-85092031D01*
X149857705Y-85096529D01*
X149655114Y-85584885D01*
X149592654Y-85735449D01*
X149586319Y-85741778D01*
X149576599Y-85741423D01*
X149492926Y-85699428D01*
X149491676Y-85698701D01*
X149462609Y-85679289D01*
X149409236Y-85643645D01*
X149408479Y-85643091D01*
X149335298Y-85585011D01*
X149335017Y-85584781D01*
X149268761Y-85528602D01*
X149268757Y-85528599D01*
X149268696Y-85528547D01*
X149240712Y-85506192D01*
X149207354Y-85479545D01*
X149207090Y-85479334D01*
X149206813Y-85479160D01*
X149206807Y-85479156D01*
X149148465Y-85442566D01*
X149148462Y-85442564D01*
X149147887Y-85442204D01*
X149118836Y-85432353D01*
X149089648Y-85422454D01*
X149089646Y-85422454D01*
X149088653Y-85422117D01*
X149026956Y-85424031D01*
X148960361Y-85452905D01*
X148959730Y-85453424D01*
X148894632Y-85506956D01*
X148886066Y-85509564D01*
X148878928Y-85506192D01*
X148682537Y-85309801D01*
X148679110Y-85301528D01*
X148682498Y-85293294D01*
X148738307Y-85236960D01*
X148768891Y-85206089D01*
X148845942Y-85126633D01*
X148909837Y-85059192D01*
X148964963Y-84999761D01*
X149015703Y-84944335D01*
X149066444Y-84888909D01*
X149121569Y-84829479D01*
X149185465Y-84762038D01*
X149262515Y-84682582D01*
X149348845Y-84595445D01*
X149357102Y-84591980D01*
X149365418Y-84595395D01*
G37*
%TD.AperFunction*%
%TD*%
%TA.AperFunction,Conductor*%
%TO.N,/V-A11*%
G36*
X169062335Y-109558427D02*
G01*
X169063504Y-109559792D01*
X169114371Y-109629350D01*
X169168742Y-109698185D01*
X169223113Y-109761504D01*
X169223213Y-109761610D01*
X169277374Y-109819191D01*
X169277390Y-109819207D01*
X169277484Y-109819307D01*
X169331856Y-109871594D01*
X169331990Y-109871709D01*
X169331993Y-109871712D01*
X169386097Y-109918254D01*
X169386112Y-109918266D01*
X169386227Y-109918365D01*
X169440598Y-109959619D01*
X169494970Y-109995358D01*
X169495157Y-109995462D01*
X169495167Y-109995468D01*
X169495171Y-109995470D01*
X169549341Y-110025580D01*
X169549551Y-110025675D01*
X169549560Y-110025680D01*
X169595564Y-110046584D01*
X169601679Y-110053127D01*
X169602271Y-110059120D01*
X168921547Y-114230246D01*
X168916833Y-114237860D01*
X168908116Y-114239909D01*
X168900502Y-114235195D01*
X168898453Y-114230246D01*
X168217729Y-110059120D01*
X168219778Y-110050403D01*
X168224436Y-110046584D01*
X168270438Y-110025680D01*
X168270439Y-110025680D01*
X168270658Y-110025580D01*
X168325029Y-109995358D01*
X168325203Y-109995244D01*
X168325214Y-109995237D01*
X168355950Y-109975033D01*
X168379400Y-109959619D01*
X168433771Y-109918365D01*
X168433886Y-109918266D01*
X168433901Y-109918254D01*
X168488006Y-109871712D01*
X168488009Y-109871709D01*
X168488143Y-109871594D01*
X168542514Y-109819307D01*
X168542608Y-109819207D01*
X168542624Y-109819191D01*
X168596776Y-109761620D01*
X168596785Y-109761610D01*
X168596885Y-109761504D01*
X168651257Y-109698185D01*
X168705628Y-109629350D01*
X168756494Y-109559794D01*
X168764144Y-109555138D01*
X168765938Y-109555000D01*
X169054062Y-109555000D01*
X169062335Y-109558427D01*
G37*
%TD.AperFunction*%
%TD*%
%TA.AperFunction,Conductor*%
%TO.N,/V-A5*%
G36*
X160778166Y-76515272D02*
G01*
X160974728Y-76711834D01*
X160978155Y-76720107D01*
X160975216Y-76727862D01*
X160887787Y-76826625D01*
X160825462Y-76923524D01*
X160825262Y-76924016D01*
X160825259Y-76924021D01*
X160789320Y-77012271D01*
X160788735Y-77013708D01*
X160770805Y-77100574D01*
X160764871Y-77187515D01*
X160764870Y-77187668D01*
X160764130Y-77277831D01*
X160764127Y-77278018D01*
X160761790Y-77374764D01*
X160761735Y-77375646D01*
X160751084Y-77482091D01*
X160750882Y-77483378D01*
X160725199Y-77603220D01*
X160724812Y-77604605D01*
X160681126Y-77730459D01*
X160675176Y-77737151D01*
X160665610Y-77737437D01*
X160340386Y-77603220D01*
X160023788Y-77472562D01*
X160017438Y-77466212D01*
X159866542Y-77100574D01*
X159752563Y-76824390D01*
X159752574Y-76815436D01*
X159759541Y-76808874D01*
X159885394Y-76765187D01*
X159886779Y-76764800D01*
X159940502Y-76753286D01*
X160006627Y-76739115D01*
X160007902Y-76738915D01*
X160114364Y-76728262D01*
X160115224Y-76728209D01*
X160212007Y-76725871D01*
X160212139Y-76725868D01*
X160302484Y-76725128D01*
X160389425Y-76719193D01*
X160389821Y-76719111D01*
X160389823Y-76719111D01*
X160475762Y-76701372D01*
X160476290Y-76701263D01*
X160478815Y-76700235D01*
X160565978Y-76664740D01*
X160565983Y-76664737D01*
X160566475Y-76664537D01*
X160663374Y-76602212D01*
X160762138Y-76514784D01*
X160770604Y-76511867D01*
X160778166Y-76515272D01*
G37*
%TD.AperFunction*%
%TD*%
%TA.AperFunction,Conductor*%
%TO.N,+5V*%
G36*
X165266221Y-84384696D02*
G01*
X165267172Y-84384769D01*
X165402497Y-84400704D01*
X165403516Y-84400870D01*
X165452570Y-84411091D01*
X165516082Y-84424325D01*
X165516970Y-84424547D01*
X165614604Y-84453066D01*
X165615121Y-84453231D01*
X165705599Y-84484400D01*
X165796335Y-84515657D01*
X165894666Y-84544380D01*
X165894876Y-84544424D01*
X165894885Y-84544426D01*
X165988962Y-84564028D01*
X166008190Y-84568035D01*
X166144502Y-84584086D01*
X166223486Y-84586888D01*
X166299915Y-84589600D01*
X166308061Y-84593318D01*
X166311200Y-84601293D01*
X166311200Y-85578707D01*
X166307773Y-85586980D01*
X166299915Y-85590400D01*
X166231338Y-85592833D01*
X166144502Y-85595913D01*
X166008190Y-85611964D01*
X166007934Y-85612017D01*
X166007936Y-85612017D01*
X165894885Y-85635573D01*
X165894876Y-85635575D01*
X165894666Y-85635619D01*
X165796335Y-85664342D01*
X165705599Y-85695600D01*
X165615121Y-85726768D01*
X165614604Y-85726933D01*
X165516970Y-85755452D01*
X165516082Y-85755674D01*
X165452570Y-85768908D01*
X165403516Y-85779129D01*
X165402497Y-85779295D01*
X165267172Y-85795230D01*
X165266221Y-85795303D01*
X165112097Y-85800771D01*
X165103708Y-85797639D01*
X165099983Y-85789094D01*
X165099000Y-85090032D01*
X165099000Y-85090000D01*
X165099983Y-84390906D01*
X165103421Y-84382637D01*
X165112098Y-84379229D01*
X165266221Y-84384696D01*
G37*
%TD.AperFunction*%
%TD*%
%TA.AperFunction,Conductor*%
%TO.N,/PB6*%
G36*
X142640559Y-102171312D02*
G01*
X142643986Y-102179599D01*
X142643888Y-102263342D01*
X142643888Y-102263373D01*
X142643584Y-102341977D01*
X142643584Y-102342011D01*
X142643136Y-102408009D01*
X142643123Y-102408009D01*
X142643136Y-102408041D01*
X142642592Y-102465563D01*
X142642592Y-102465582D01*
X142641408Y-102572302D01*
X142640864Y-102629875D01*
X142640416Y-102695873D01*
X142640112Y-102774511D01*
X142640014Y-102858343D01*
X142636577Y-102866612D01*
X142628343Y-102870029D01*
X142244876Y-102870988D01*
X142236559Y-102867547D01*
X142227388Y-102858343D01*
X141965912Y-102595943D01*
X141962500Y-102587663D01*
X141966439Y-102578929D01*
X141992129Y-102556154D01*
X142016506Y-102534544D01*
X142017533Y-102533732D01*
X142048746Y-102511810D01*
X142074437Y-102493767D01*
X142075273Y-102493232D01*
X142129455Y-102461677D01*
X142129857Y-102461453D01*
X142158580Y-102446203D01*
X142180456Y-102434589D01*
X142226212Y-102408849D01*
X142226457Y-102408675D01*
X142226466Y-102408669D01*
X142265454Y-102380932D01*
X142265918Y-102380602D01*
X142298561Y-102346116D01*
X142323130Y-102301657D01*
X142338614Y-102243491D01*
X142343226Y-102178754D01*
X142347232Y-102170745D01*
X142354896Y-102167885D01*
X142632286Y-102167885D01*
X142640559Y-102171312D01*
G37*
%TD.AperFunction*%
%TD*%
%TA.AperFunction,Conductor*%
%TO.N,/V-RW*%
G36*
X177709858Y-91410384D02*
G01*
X177723716Y-91457519D01*
X177737574Y-91502403D01*
X177751432Y-91545038D01*
X177765291Y-91585423D01*
X177776209Y-91615468D01*
X177779149Y-91623557D01*
X177793007Y-91659442D01*
X177806865Y-91693077D01*
X177820723Y-91724462D01*
X177820753Y-91724525D01*
X177832117Y-91748415D01*
X177832576Y-91757358D01*
X177831993Y-91758719D01*
X177556442Y-92303843D01*
X177549651Y-92309681D01*
X177540722Y-92309007D01*
X177535558Y-92303843D01*
X177260007Y-91758719D01*
X177259333Y-91749790D01*
X177259883Y-91748416D01*
X177271235Y-91724550D01*
X177271254Y-91724508D01*
X177271276Y-91724462D01*
X177285134Y-91693077D01*
X177298992Y-91659442D01*
X177312850Y-91623557D01*
X177326709Y-91585423D01*
X177340567Y-91545038D01*
X177354425Y-91502403D01*
X177368283Y-91457519D01*
X177382141Y-91410384D01*
X177396000Y-91361000D01*
X177696000Y-91361000D01*
X177709858Y-91410384D01*
G37*
%TD.AperFunction*%
%TD*%
%TA.AperFunction,Conductor*%
%TO.N,/V-D6*%
G36*
X149860444Y-87632426D02*
G01*
X149862994Y-87636239D01*
X150035987Y-88054516D01*
X150127391Y-88275522D01*
X150127386Y-88284477D01*
X150120336Y-88291074D01*
X150034563Y-88320161D01*
X150033308Y-88320510D01*
X149939702Y-88341007D01*
X149938879Y-88341156D01*
X149917884Y-88344194D01*
X149849984Y-88354018D01*
X149849710Y-88354055D01*
X149767224Y-88364005D01*
X149767217Y-88364006D01*
X149767101Y-88364020D01*
X149715836Y-88372167D01*
X149693089Y-88375781D01*
X149693085Y-88375782D01*
X149692738Y-88375837D01*
X149628321Y-88394300D01*
X149605049Y-88407468D01*
X149576325Y-88423720D01*
X149576323Y-88423722D01*
X149575446Y-88424218D01*
X149535704Y-88470399D01*
X149510691Y-88537650D01*
X149510619Y-88538423D01*
X149502990Y-88620167D01*
X149498810Y-88628086D01*
X149491341Y-88630780D01*
X149213572Y-88630780D01*
X149205299Y-88627353D01*
X149201873Y-88619208D01*
X149200512Y-88494671D01*
X149200511Y-88494643D01*
X149200510Y-88494521D01*
X149199676Y-88471375D01*
X149196472Y-88382511D01*
X149196470Y-88382476D01*
X149196467Y-88382382D01*
X149196059Y-88375935D01*
X149190511Y-88288375D01*
X149190504Y-88288289D01*
X149183273Y-88206347D01*
X149175400Y-88130389D01*
X149167535Y-88054516D01*
X149167518Y-88054339D01*
X149160304Y-87972596D01*
X149160282Y-87972307D01*
X149154340Y-87878525D01*
X149154325Y-87878207D01*
X149150294Y-87766409D01*
X149150287Y-87766115D01*
X149148929Y-87641811D01*
X149152265Y-87633501D01*
X149160611Y-87629983D01*
X149852166Y-87629011D01*
X149860444Y-87632426D01*
G37*
%TD.AperFunction*%
%TD*%
%TA.AperFunction,Conductor*%
%TO.N,/V-A14*%
G36*
X173579858Y-89135384D02*
G01*
X173593716Y-89182519D01*
X173607574Y-89227403D01*
X173621432Y-89270038D01*
X173635291Y-89310423D01*
X173649149Y-89348557D01*
X173663007Y-89384442D01*
X173676865Y-89418077D01*
X173690723Y-89449462D01*
X173690753Y-89449525D01*
X173702117Y-89473415D01*
X173702576Y-89482358D01*
X173701993Y-89483719D01*
X173426442Y-90028842D01*
X173419651Y-90034680D01*
X173410722Y-90034006D01*
X173405558Y-90028842D01*
X173130007Y-89483719D01*
X173129333Y-89474790D01*
X173129883Y-89473416D01*
X173141235Y-89449550D01*
X173141254Y-89449508D01*
X173141276Y-89449462D01*
X173155134Y-89418077D01*
X173168992Y-89384442D01*
X173182850Y-89348557D01*
X173196709Y-89310423D01*
X173210567Y-89270038D01*
X173224425Y-89227403D01*
X173238283Y-89182519D01*
X173252141Y-89135384D01*
X173266000Y-89086000D01*
X173566000Y-89086000D01*
X173579858Y-89135384D01*
G37*
%TD.AperFunction*%
%TD*%
%TA.AperFunction,Conductor*%
%TO.N,/~{CE}*%
G36*
X172311288Y-93358561D02*
G01*
X172414108Y-93453977D01*
X172414302Y-93454128D01*
X172414310Y-93454135D01*
X172509810Y-93528555D01*
X172512460Y-93530620D01*
X172512682Y-93530762D01*
X172512689Y-93530767D01*
X172601060Y-93587300D01*
X172601069Y-93587305D01*
X172601264Y-93587430D01*
X172683703Y-93631020D01*
X172683823Y-93631076D01*
X172683829Y-93631079D01*
X172762959Y-93667999D01*
X172841959Y-93704858D01*
X172842477Y-93705116D01*
X172911598Y-93741664D01*
X172924224Y-93748340D01*
X172925060Y-93748827D01*
X173012999Y-93805085D01*
X173013886Y-93805712D01*
X173111416Y-93881713D01*
X173112183Y-93882366D01*
X173214004Y-93976856D01*
X173217737Y-93984995D01*
X173214330Y-93993694D01*
X172724140Y-94485264D01*
X172715843Y-94488702D01*
X172490060Y-94488478D01*
X172021535Y-94488013D01*
X172013267Y-94484578D01*
X172009848Y-94476301D01*
X172009891Y-94475311D01*
X172019880Y-94359100D01*
X172020201Y-94357206D01*
X172048668Y-94245759D01*
X172049138Y-94244318D01*
X172088419Y-94145910D01*
X172088779Y-94145099D01*
X172132220Y-94056445D01*
X172132250Y-94056383D01*
X172172856Y-93974732D01*
X172172964Y-93974515D01*
X172203827Y-93896727D01*
X172217947Y-93819852D01*
X172208428Y-93740721D01*
X172191497Y-93704978D01*
X172168688Y-93656828D01*
X172168687Y-93656826D01*
X172168375Y-93656168D01*
X172140346Y-93622473D01*
X172097721Y-93571232D01*
X172095065Y-93562681D01*
X172098443Y-93555477D01*
X172295056Y-93358864D01*
X172303329Y-93355437D01*
X172311288Y-93358561D01*
G37*
%TD.AperFunction*%
%TD*%
%TA.AperFunction,Conductor*%
%TO.N,GND*%
G36*
X181013000Y-72756062D02*
G01*
X181067538Y-72810600D01*
X181087500Y-72885100D01*
X181087500Y-110595000D01*
X181067538Y-110669500D01*
X181013000Y-110724038D01*
X180938500Y-110744000D01*
X180608500Y-110744000D01*
X180534000Y-110724038D01*
X180479462Y-110669500D01*
X180459500Y-110595000D01*
X180459500Y-110449698D01*
X180453260Y-110359796D01*
X180403732Y-110149219D01*
X180389825Y-110117722D01*
X180385430Y-110106340D01*
X180385397Y-110106352D01*
X180384811Y-110104737D01*
X180384759Y-110104603D01*
X180384089Y-110102589D01*
X180364275Y-110052229D01*
X180360320Y-110046074D01*
X180360317Y-110046069D01*
X180359783Y-110045238D01*
X180348827Y-110024869D01*
X180319139Y-109957632D01*
X180319139Y-109957631D01*
X180316355Y-109951327D01*
X180312465Y-109945648D01*
X180312462Y-109945643D01*
X180197996Y-109778544D01*
X180194103Y-109772861D01*
X180185396Y-109764154D01*
X180156132Y-109722651D01*
X180132054Y-109671889D01*
X180130351Y-109668167D01*
X180103382Y-109607027D01*
X180101951Y-109603673D01*
X180079304Y-109548728D01*
X180068998Y-109508629D01*
X180063129Y-109456533D01*
X180045337Y-109298603D01*
X179995341Y-109079545D01*
X179993960Y-109075598D01*
X179922516Y-108871413D01*
X179922513Y-108871405D01*
X179921133Y-108867462D01*
X179918769Y-108862552D01*
X179825460Y-108668788D01*
X179825456Y-108668781D01*
X179823645Y-108665020D01*
X179704105Y-108474767D01*
X179564014Y-108299095D01*
X179556513Y-108291594D01*
X179556509Y-108291588D01*
X179443333Y-108178412D01*
X179419019Y-108154097D01*
X179419016Y-108154095D01*
X177309404Y-106044484D01*
X177309402Y-106044481D01*
X177268366Y-106003445D01*
X177260670Y-105995141D01*
X177234627Y-105964805D01*
X177222866Y-105951105D01*
X177200067Y-105933457D01*
X177185913Y-105920992D01*
X175565087Y-104300166D01*
X173764142Y-102499222D01*
X173725578Y-102432427D01*
X173720501Y-102393863D01*
X173720501Y-102363090D01*
X173720500Y-102363085D01*
X173720500Y-100900969D01*
X175143723Y-100900969D01*
X175173882Y-101200762D01*
X175243731Y-101493861D01*
X175245519Y-101498503D01*
X175245521Y-101498510D01*
X175325753Y-101706826D01*
X175352023Y-101775034D01*
X175496825Y-102039265D01*
X175499783Y-102043279D01*
X175647144Y-102243279D01*
X175675554Y-102281838D01*
X175679010Y-102285412D01*
X175679013Y-102285415D01*
X175719408Y-102327183D01*
X175885020Y-102498424D01*
X176121485Y-102685158D01*
X176149093Y-102701510D01*
X176312949Y-102798562D01*
X176380730Y-102838709D01*
X176385305Y-102840649D01*
X176385307Y-102840650D01*
X176530366Y-102902160D01*
X176658128Y-102956336D01*
X176948729Y-103035940D01*
X176953665Y-103036604D01*
X176953666Y-103036604D01*
X177242422Y-103075438D01*
X177242427Y-103075438D01*
X177247347Y-103076100D01*
X177473244Y-103076100D01*
X177475732Y-103075933D01*
X177475745Y-103075933D01*
X177574985Y-103069289D01*
X177698634Y-103061012D01*
X177703519Y-103060019D01*
X177703527Y-103060018D01*
X177885695Y-103022990D01*
X177993903Y-103000996D01*
X178278537Y-102902160D01*
X178547459Y-102766268D01*
X178795869Y-102595744D01*
X178802405Y-102589833D01*
X178912046Y-102490668D01*
X179019333Y-102393632D01*
X179213865Y-102163539D01*
X179216544Y-102159342D01*
X179216548Y-102159337D01*
X179373314Y-101913766D01*
X179375993Y-101909570D01*
X179502823Y-101636258D01*
X179592093Y-101348479D01*
X179642209Y-101051370D01*
X179647778Y-100884805D01*
X179652111Y-100755209D01*
X179652111Y-100755203D01*
X179652277Y-100750231D01*
X179622118Y-100450438D01*
X179552269Y-100157339D01*
X179550481Y-100152697D01*
X179550479Y-100152690D01*
X179445766Y-99880810D01*
X179445764Y-99880805D01*
X179443977Y-99876166D01*
X179299175Y-99611935D01*
X179120446Y-99369362D01*
X179104406Y-99352776D01*
X178923807Y-99166039D01*
X178910980Y-99152776D01*
X178736542Y-99015024D01*
X178678422Y-98969127D01*
X178678419Y-98969125D01*
X178674515Y-98966042D01*
X178415270Y-98812491D01*
X178410693Y-98810550D01*
X178142457Y-98696808D01*
X178142454Y-98696807D01*
X178137872Y-98694864D01*
X177847271Y-98615260D01*
X177842334Y-98614596D01*
X177553578Y-98575762D01*
X177553573Y-98575762D01*
X177548653Y-98575100D01*
X177322756Y-98575100D01*
X177320268Y-98575267D01*
X177320255Y-98575267D01*
X177221015Y-98581911D01*
X177097366Y-98590188D01*
X177092481Y-98591181D01*
X177092473Y-98591182D01*
X176967536Y-98616577D01*
X176802097Y-98650204D01*
X176517463Y-98749040D01*
X176248541Y-98884932D01*
X176000131Y-99055456D01*
X175776667Y-99257568D01*
X175582135Y-99487661D01*
X175579456Y-99491858D01*
X175579452Y-99491863D01*
X175505364Y-99607921D01*
X175420007Y-99741630D01*
X175293177Y-100014942D01*
X175203907Y-100302721D01*
X175153791Y-100599830D01*
X175151338Y-100673199D01*
X175146514Y-100817503D01*
X175143723Y-100900969D01*
X173720500Y-100900969D01*
X173720500Y-99312915D01*
X173720501Y-99312910D01*
X173720501Y-99282138D01*
X173740463Y-99207638D01*
X173764142Y-99176779D01*
X175355016Y-97585905D01*
X175355019Y-97585903D01*
X175387797Y-97553124D01*
X175420556Y-97520366D01*
X175420578Y-97520350D01*
X175420581Y-97520353D01*
X175500021Y-97440911D01*
X175640113Y-97265238D01*
X175708337Y-97156657D01*
X175757430Y-97078524D01*
X175757432Y-97078521D01*
X175759654Y-97074984D01*
X175762959Y-97068122D01*
X175855326Y-96876314D01*
X175855329Y-96876307D01*
X175857142Y-96872542D01*
X175886544Y-96788515D01*
X175929970Y-96664405D01*
X175929970Y-96664404D01*
X175931351Y-96660458D01*
X175941820Y-96614588D01*
X175977859Y-96546397D01*
X176043164Y-96505361D01*
X176120238Y-96502476D01*
X176188429Y-96538515D01*
X176222125Y-96584771D01*
X176238629Y-96620164D01*
X176242360Y-96625492D01*
X176242362Y-96625496D01*
X176263989Y-96656382D01*
X176360239Y-96793841D01*
X176510159Y-96943761D01*
X176515485Y-96947490D01*
X176678504Y-97061638D01*
X176678508Y-97061640D01*
X176683836Y-97065371D01*
X176875991Y-97154974D01*
X176882272Y-97156657D01*
X177074508Y-97208167D01*
X177074513Y-97208168D01*
X177080787Y-97209849D01*
X177087258Y-97210415D01*
X177087263Y-97210416D01*
X177285519Y-97227761D01*
X177292000Y-97228328D01*
X177298481Y-97227761D01*
X177496737Y-97210416D01*
X177496742Y-97210415D01*
X177503213Y-97209849D01*
X177509487Y-97208168D01*
X177509492Y-97208167D01*
X177701728Y-97156657D01*
X177708009Y-97154974D01*
X177900164Y-97065371D01*
X177905492Y-97061640D01*
X177905496Y-97061638D01*
X178068515Y-96947490D01*
X178073841Y-96943761D01*
X178223761Y-96793841D01*
X178320011Y-96656382D01*
X178341638Y-96625496D01*
X178341640Y-96625492D01*
X178345371Y-96620164D01*
X178424650Y-96450151D01*
X178427310Y-96444735D01*
X178428236Y-96442943D01*
X178430674Y-96438224D01*
X178431135Y-96436894D01*
X178431391Y-96436192D01*
X178431426Y-96436105D01*
X178431511Y-96435866D01*
X178432061Y-96434355D01*
X178432023Y-96434337D01*
X178432226Y-96433902D01*
X178432227Y-96433901D01*
X178434974Y-96428009D01*
X178436656Y-96421732D01*
X178437149Y-96420378D01*
X178439295Y-96413390D01*
X178473978Y-96313470D01*
X178474360Y-96312370D01*
X178483663Y-96282642D01*
X178484050Y-96281257D01*
X178491476Y-96251147D01*
X178498850Y-96216737D01*
X178516946Y-96132301D01*
X178516952Y-96132270D01*
X178517159Y-96131305D01*
X178522268Y-96103759D01*
X178522470Y-96102472D01*
X178526072Y-96074421D01*
X178536723Y-95967976D01*
X178538255Y-95949107D01*
X178538310Y-95948225D01*
X178539143Y-95928971D01*
X178539159Y-95928295D01*
X178541475Y-95832450D01*
X178541477Y-95832350D01*
X178541480Y-95832225D01*
X178541610Y-95824173D01*
X178542182Y-95754547D01*
X178562756Y-95680213D01*
X178579611Y-95657008D01*
X178613347Y-95618898D01*
X178625716Y-95604926D01*
X178650291Y-95574920D01*
X178650745Y-95575291D01*
X178660687Y-95563259D01*
X179490916Y-94733030D01*
X179491088Y-94732864D01*
X179491091Y-94732868D01*
X179567585Y-94656372D01*
X179666611Y-94527316D01*
X179696321Y-94488597D01*
X179696322Y-94488596D01*
X179699295Y-94484721D01*
X179807473Y-94297346D01*
X179816440Y-94275697D01*
X179888400Y-94101966D01*
X179888402Y-94101960D01*
X179890268Y-94097455D01*
X179946263Y-93888466D01*
X179957234Y-93805126D01*
X179973866Y-93678782D01*
X179973866Y-93678780D01*
X179974501Y-93673957D01*
X179974500Y-93565777D01*
X179974500Y-91249789D01*
X179974493Y-91249739D01*
X179974490Y-91249634D01*
X179974491Y-91187414D01*
X179974491Y-91182544D01*
X179973845Y-91177632D01*
X179960871Y-91079081D01*
X179946253Y-90968036D01*
X179890258Y-90759048D01*
X179807464Y-90559158D01*
X179793806Y-90535500D01*
X179774146Y-90501447D01*
X179699287Y-90371785D01*
X179567578Y-90200134D01*
X179549191Y-90181746D01*
X179549188Y-90181742D01*
X179526078Y-90158632D01*
X179511761Y-90142034D01*
X179493137Y-90116920D01*
X179491060Y-90114046D01*
X179468064Y-90081413D01*
X179466143Y-90078620D01*
X179442355Y-90043177D01*
X179440620Y-90040531D01*
X179416061Y-90002205D01*
X179414483Y-89999688D01*
X179389249Y-89958524D01*
X179387837Y-89956172D01*
X179361992Y-89912183D01*
X179360718Y-89909970D01*
X179334416Y-89863343D01*
X179333221Y-89861183D01*
X179314529Y-89826725D01*
X179296500Y-89755679D01*
X179296500Y-89470306D01*
X179293598Y-89433431D01*
X179251920Y-89289976D01*
X179250358Y-89284598D01*
X179250357Y-89284595D01*
X179247744Y-89275602D01*
X179225648Y-89238239D01*
X179168854Y-89142205D01*
X179168852Y-89142203D01*
X179164081Y-89134135D01*
X179047865Y-89017919D01*
X179039797Y-89013148D01*
X179039795Y-89013146D01*
X178914462Y-88939025D01*
X178906398Y-88934256D01*
X178897405Y-88931643D01*
X178897402Y-88931642D01*
X178755880Y-88890526D01*
X178755879Y-88890526D01*
X178748569Y-88888402D01*
X178711694Y-88885500D01*
X178280306Y-88885500D01*
X178243431Y-88888402D01*
X178236121Y-88890526D01*
X178236120Y-88890526D01*
X178094598Y-88931642D01*
X178094595Y-88931643D01*
X178085602Y-88934256D01*
X178077538Y-88939025D01*
X177952205Y-89013146D01*
X177952203Y-89013148D01*
X177944135Y-89017919D01*
X177827919Y-89134135D01*
X177823148Y-89142203D01*
X177823146Y-89142205D01*
X177766352Y-89238239D01*
X177744256Y-89275602D01*
X177741643Y-89284595D01*
X177741642Y-89284598D01*
X177740080Y-89289976D01*
X177698402Y-89433431D01*
X177695500Y-89470306D01*
X177695500Y-90004056D01*
X177675538Y-90078556D01*
X177621000Y-90133094D01*
X177546500Y-90153056D01*
X177472000Y-90133094D01*
X177417462Y-90078556D01*
X177398437Y-90020737D01*
X177397437Y-90011861D01*
X177396500Y-89995180D01*
X177396500Y-89470306D01*
X177393598Y-89433431D01*
X177351920Y-89289976D01*
X177350358Y-89284598D01*
X177350357Y-89284595D01*
X177347744Y-89275602D01*
X177325648Y-89238239D01*
X177268854Y-89142205D01*
X177268852Y-89142203D01*
X177264081Y-89134135D01*
X177147865Y-89017919D01*
X177139797Y-89013148D01*
X177139795Y-89013146D01*
X177014462Y-88939025D01*
X177006398Y-88934256D01*
X176997405Y-88931643D01*
X176997402Y-88931642D01*
X176855880Y-88890526D01*
X176855879Y-88890526D01*
X176848569Y-88888402D01*
X176811694Y-88885500D01*
X176380306Y-88885500D01*
X176343431Y-88888402D01*
X176336121Y-88890526D01*
X176336120Y-88890526D01*
X176197070Y-88930924D01*
X176119959Y-88932539D01*
X176052371Y-88895382D01*
X176012416Y-88829410D01*
X176006500Y-88787840D01*
X176006500Y-88359165D01*
X176006501Y-88359150D01*
X176006503Y-88359138D01*
X176006500Y-88266521D01*
X176006512Y-88266428D01*
X176006525Y-88266428D01*
X176006521Y-88154082D01*
X176005739Y-88147139D01*
X175988974Y-87998398D01*
X175981356Y-87930805D01*
X175980429Y-87926742D01*
X175980427Y-87926733D01*
X175932280Y-87715823D01*
X175931350Y-87711749D01*
X175857133Y-87499669D01*
X175855317Y-87495899D01*
X175855314Y-87495891D01*
X175761452Y-87301000D01*
X175761450Y-87300996D01*
X175759637Y-87297232D01*
X175750328Y-87282417D01*
X175707330Y-87213991D01*
X175640088Y-87106984D01*
X175499991Y-86931318D01*
X175438292Y-86869621D01*
X175283737Y-86715066D01*
X175245173Y-86648271D01*
X175245173Y-86571143D01*
X175283737Y-86504348D01*
X175350532Y-86465784D01*
X175427660Y-86465784D01*
X175435963Y-86468270D01*
X175485953Y-86484835D01*
X175501771Y-86488221D01*
X175593707Y-86497613D01*
X175601292Y-86498000D01*
X175653384Y-86498000D01*
X175668855Y-86493855D01*
X175673000Y-86478384D01*
X176273000Y-86478384D01*
X176277145Y-86493855D01*
X176292616Y-86498000D01*
X176344708Y-86498000D01*
X176352293Y-86497613D01*
X176444229Y-86488221D01*
X176460047Y-86484835D01*
X176612285Y-86434388D01*
X176627911Y-86427102D01*
X176763954Y-86343190D01*
X176777475Y-86332499D01*
X176890499Y-86219475D01*
X176901190Y-86205954D01*
X176985102Y-86069911D01*
X176992388Y-86054285D01*
X177042835Y-85902047D01*
X177046221Y-85886229D01*
X177055613Y-85794293D01*
X177056000Y-85786708D01*
X177056000Y-85409616D01*
X177051855Y-85394145D01*
X177036384Y-85390000D01*
X176292616Y-85390000D01*
X176277145Y-85394145D01*
X176273000Y-85409616D01*
X176273000Y-86478384D01*
X175673000Y-86478384D01*
X175673000Y-85409616D01*
X175668855Y-85394145D01*
X175653384Y-85390000D01*
X174909616Y-85390000D01*
X174894145Y-85394145D01*
X174890000Y-85409616D01*
X174890000Y-85786708D01*
X174890387Y-85794293D01*
X174899779Y-85886229D01*
X174903166Y-85902050D01*
X174919730Y-85952039D01*
X174924215Y-86029036D01*
X174889599Y-86097960D01*
X174825159Y-86140342D01*
X174748162Y-86144827D01*
X174679238Y-86110211D01*
X174672934Y-86104264D01*
X174142141Y-85573471D01*
X174103577Y-85506676D01*
X174098500Y-85468112D01*
X174098499Y-84770384D01*
X174890000Y-84770384D01*
X174894145Y-84785855D01*
X174909616Y-84790000D01*
X175653384Y-84790000D01*
X175668855Y-84785855D01*
X175673000Y-84770384D01*
X176273000Y-84770384D01*
X176277145Y-84785855D01*
X176292616Y-84790000D01*
X177036384Y-84790000D01*
X177051855Y-84785855D01*
X177056000Y-84770384D01*
X177056000Y-84393292D01*
X177055613Y-84385707D01*
X177046221Y-84293771D01*
X177042835Y-84277953D01*
X176992388Y-84125715D01*
X176985102Y-84110089D01*
X176901190Y-83974046D01*
X176890499Y-83960525D01*
X176777475Y-83847501D01*
X176763954Y-83836810D01*
X176627911Y-83752898D01*
X176612285Y-83745612D01*
X176460047Y-83695165D01*
X176444229Y-83691779D01*
X176352293Y-83682387D01*
X176344708Y-83682000D01*
X176292616Y-83682000D01*
X176277145Y-83686145D01*
X176273000Y-83701616D01*
X176273000Y-84770384D01*
X175673000Y-84770384D01*
X175673000Y-83701616D01*
X175668855Y-83686145D01*
X175653384Y-83682000D01*
X175601292Y-83682000D01*
X175593707Y-83682387D01*
X175501771Y-83691779D01*
X175485953Y-83695165D01*
X175333715Y-83745612D01*
X175318089Y-83752898D01*
X175182046Y-83836810D01*
X175168525Y-83847501D01*
X175055501Y-83960525D01*
X175044810Y-83974046D01*
X174960898Y-84110089D01*
X174953612Y-84125715D01*
X174903165Y-84277953D01*
X174899779Y-84293771D01*
X174890387Y-84385707D01*
X174890000Y-84393292D01*
X174890000Y-84770384D01*
X174098499Y-84770384D01*
X174098499Y-84393779D01*
X174098499Y-84389992D01*
X174098062Y-84385707D01*
X174088826Y-84295297D01*
X174088826Y-84295295D01*
X174087999Y-84287203D01*
X174032814Y-84120666D01*
X173940712Y-83971344D01*
X173816656Y-83847288D01*
X173667334Y-83755186D01*
X173500797Y-83700001D01*
X173492706Y-83699174D01*
X173492704Y-83699174D01*
X173453460Y-83695165D01*
X173398009Y-83689500D01*
X173394209Y-83689500D01*
X173022358Y-83689501D01*
X172647992Y-83689501D01*
X172644237Y-83689885D01*
X172644229Y-83689885D01*
X172553297Y-83699174D01*
X172553295Y-83699174D01*
X172545203Y-83700001D01*
X172378666Y-83755186D01*
X172229344Y-83847288D01*
X172105288Y-83971344D01*
X172100735Y-83978726D01*
X172100730Y-83978732D01*
X172076066Y-84018720D01*
X172019966Y-84071649D01*
X171949249Y-84089500D01*
X167380164Y-84089500D01*
X167305664Y-84069538D01*
X167251126Y-84015000D01*
X167231164Y-83940500D01*
X167251126Y-83866000D01*
X167274805Y-83835141D01*
X168568916Y-82541030D01*
X168569088Y-82540864D01*
X168569091Y-82540868D01*
X168645585Y-82464372D01*
X168777295Y-82292721D01*
X168885473Y-82105346D01*
X168906895Y-82053627D01*
X168966400Y-81909966D01*
X168966402Y-81909960D01*
X168968268Y-81905455D01*
X169024263Y-81696466D01*
X169052501Y-81481957D01*
X169052500Y-81373777D01*
X169052500Y-78605289D01*
X169052493Y-78605239D01*
X169052490Y-78605134D01*
X169052491Y-78542914D01*
X169052491Y-78538044D01*
X169024253Y-78323536D01*
X168968258Y-78114548D01*
X168885464Y-77914658D01*
X168874822Y-77896224D01*
X168784998Y-77740642D01*
X168777287Y-77727285D01*
X168645578Y-77555634D01*
X168627191Y-77537246D01*
X168627188Y-77537242D01*
X166361030Y-75271084D01*
X166360864Y-75270912D01*
X166360868Y-75270909D01*
X166284372Y-75194415D01*
X166112721Y-75062705D01*
X165925346Y-74954527D01*
X165903697Y-74945560D01*
X165729966Y-74873600D01*
X165729960Y-74873598D01*
X165725455Y-74871732D01*
X165698820Y-74864596D01*
X165521166Y-74816996D01*
X165521162Y-74816995D01*
X165516466Y-74815737D01*
X165511644Y-74815102D01*
X165511643Y-74815102D01*
X165306782Y-74788134D01*
X165306780Y-74788134D01*
X165301957Y-74787499D01*
X165297086Y-74787499D01*
X165193777Y-74787500D01*
X150995289Y-74787500D01*
X150995239Y-74787507D01*
X150995134Y-74787510D01*
X150994141Y-74787510D01*
X150932914Y-74787509D01*
X150928044Y-74787509D01*
X150923222Y-74788144D01*
X150923219Y-74788144D01*
X150834868Y-74799775D01*
X150713536Y-74815747D01*
X150504548Y-74871742D01*
X150304658Y-74954536D01*
X150117285Y-75062713D01*
X150113423Y-75065676D01*
X150113422Y-75065677D01*
X149966572Y-75178356D01*
X149945634Y-75194422D01*
X149927246Y-75212809D01*
X149927242Y-75212812D01*
X141565084Y-83574970D01*
X141564912Y-83575136D01*
X141564909Y-83575132D01*
X141488415Y-83651628D01*
X141356705Y-83823279D01*
X141248527Y-84010654D01*
X141246659Y-84015164D01*
X141167986Y-84205104D01*
X141165732Y-84210545D01*
X141164469Y-84215259D01*
X141116638Y-84393779D01*
X141109737Y-84419534D01*
X141109102Y-84424356D01*
X141109102Y-84424357D01*
X141101536Y-84481836D01*
X141081499Y-84634043D01*
X141081499Y-84638914D01*
X141081500Y-84688763D01*
X141081500Y-101236840D01*
X141080224Y-101256300D01*
X141078979Y-101265751D01*
X141049459Y-101337004D01*
X141043503Y-101344765D01*
X141030658Y-101359411D01*
X141027977Y-101362092D01*
X140985902Y-101404163D01*
X140985895Y-101404174D01*
X140969404Y-101420665D01*
X140969373Y-101420705D01*
X140969303Y-101420779D01*
X140931130Y-101458952D01*
X140815377Y-101609799D01*
X140720305Y-101774464D01*
X140647538Y-101950130D01*
X140598323Y-102133791D01*
X140573502Y-102322304D01*
X140573502Y-102335202D01*
X140573500Y-102335209D01*
X140573500Y-102417375D01*
X140573499Y-102490668D01*
X140573500Y-102490672D01*
X140573500Y-106446497D01*
X140573499Y-106446501D01*
X140573499Y-106446509D01*
X140573500Y-106510025D01*
X140572226Y-106529474D01*
X140564152Y-106590808D01*
X140554087Y-106628373D01*
X140534183Y-106676428D01*
X140514736Y-106710110D01*
X140477125Y-106759126D01*
X140464274Y-106773780D01*
X139539834Y-107698220D01*
X139525180Y-107711071D01*
X139476107Y-107748726D01*
X139442419Y-107768175D01*
X139394371Y-107788076D01*
X139356801Y-107798143D01*
X139330833Y-107801561D01*
X139295396Y-107806226D01*
X139275952Y-107807500D01*
X139212575Y-107807499D01*
X139212501Y-107807499D01*
X139212498Y-107807500D01*
X137025289Y-107807500D01*
X137025239Y-107807507D01*
X137025134Y-107807510D01*
X137024141Y-107807510D01*
X136962914Y-107807509D01*
X136958044Y-107807509D01*
X136953222Y-107808144D01*
X136953219Y-107808144D01*
X136864868Y-107819775D01*
X136743536Y-107835747D01*
X136534548Y-107891742D01*
X136334658Y-107974536D01*
X136147285Y-108082713D01*
X135975634Y-108214422D01*
X135957246Y-108232809D01*
X135957242Y-108232812D01*
X135723084Y-108466970D01*
X135722912Y-108467136D01*
X135722909Y-108467132D01*
X135646415Y-108543628D01*
X135643442Y-108547503D01*
X135539337Y-108683178D01*
X135514705Y-108715279D01*
X135406527Y-108902654D01*
X135404659Y-108907164D01*
X135333259Y-109079545D01*
X135323732Y-109102545D01*
X135322469Y-109107259D01*
X135270090Y-109302753D01*
X135267737Y-109311534D01*
X135263867Y-109340929D01*
X135263172Y-109346212D01*
X135233657Y-109417470D01*
X135175630Y-109463070D01*
X135103636Y-109494858D01*
X135103624Y-109494864D01*
X135097327Y-109497645D01*
X135091648Y-109501535D01*
X135091643Y-109501538D01*
X134937649Y-109607027D01*
X134918861Y-109619897D01*
X134867731Y-109671027D01*
X134858725Y-109679321D01*
X134848496Y-109687991D01*
X134843733Y-109694138D01*
X134839050Y-109699030D01*
X134834024Y-109704734D01*
X134765897Y-109772861D01*
X134762004Y-109778544D01*
X134647538Y-109945643D01*
X134647535Y-109945648D01*
X134643645Y-109951327D01*
X134556268Y-110149219D01*
X134506740Y-110359796D01*
X134500500Y-110449698D01*
X134500500Y-110595000D01*
X134480538Y-110669500D01*
X134426000Y-110724038D01*
X134351500Y-110744000D01*
X134057500Y-110744000D01*
X133983000Y-110724038D01*
X133928462Y-110669500D01*
X133908500Y-110595000D01*
X133908500Y-101100969D01*
X135343723Y-101100969D01*
X135373882Y-101400762D01*
X135443731Y-101693861D01*
X135445519Y-101698503D01*
X135445521Y-101698510D01*
X135541532Y-101947795D01*
X135552023Y-101975034D01*
X135696825Y-102239265D01*
X135875554Y-102481838D01*
X135879010Y-102485412D01*
X135879013Y-102485415D01*
X135947312Y-102556035D01*
X136085020Y-102698424D01*
X136088928Y-102701510D01*
X136265124Y-102840650D01*
X136321485Y-102885158D01*
X136438375Y-102954392D01*
X136539692Y-103014402D01*
X136580730Y-103038709D01*
X136585305Y-103040649D01*
X136585307Y-103040650D01*
X136730366Y-103102160D01*
X136858128Y-103156336D01*
X137148729Y-103235940D01*
X137153665Y-103236604D01*
X137153666Y-103236604D01*
X137442422Y-103275438D01*
X137442427Y-103275438D01*
X137447347Y-103276100D01*
X137673244Y-103276100D01*
X137675732Y-103275933D01*
X137675745Y-103275933D01*
X137774985Y-103269289D01*
X137898634Y-103261012D01*
X137903519Y-103260019D01*
X137903527Y-103260018D01*
X138107358Y-103218587D01*
X138193903Y-103200996D01*
X138478537Y-103102160D01*
X138747459Y-102966268D01*
X138995869Y-102795744D01*
X139219333Y-102593632D01*
X139253811Y-102552852D01*
X139385601Y-102396970D01*
X139413865Y-102363539D01*
X139416544Y-102359342D01*
X139416548Y-102359337D01*
X139521505Y-102194924D01*
X139575993Y-102109570D01*
X139702823Y-101836258D01*
X139792093Y-101548479D01*
X139842209Y-101251370D01*
X139848683Y-101057742D01*
X139852111Y-100955209D01*
X139852111Y-100955203D01*
X139852277Y-100950231D01*
X139822118Y-100650438D01*
X139752269Y-100357339D01*
X139750481Y-100352697D01*
X139750479Y-100352690D01*
X139645766Y-100080810D01*
X139645764Y-100080805D01*
X139643977Y-100076166D01*
X139499175Y-99811935D01*
X139351814Y-99611935D01*
X139323400Y-99573371D01*
X139323399Y-99573370D01*
X139320446Y-99569362D01*
X139110980Y-99352776D01*
X138927189Y-99207638D01*
X138878422Y-99169127D01*
X138878419Y-99169125D01*
X138874515Y-99166042D01*
X138687809Y-99055456D01*
X138619547Y-99015024D01*
X138619544Y-99015022D01*
X138615270Y-99012491D01*
X138610693Y-99010550D01*
X138342457Y-98896808D01*
X138342454Y-98896807D01*
X138337872Y-98894864D01*
X138047271Y-98815260D01*
X138012249Y-98810550D01*
X137753578Y-98775762D01*
X137753573Y-98775762D01*
X137748653Y-98775100D01*
X137522756Y-98775100D01*
X137520268Y-98775267D01*
X137520255Y-98775267D01*
X137421015Y-98781911D01*
X137297366Y-98790188D01*
X137292481Y-98791181D01*
X137292473Y-98791182D01*
X137167536Y-98816577D01*
X137002097Y-98850204D01*
X136717463Y-98949040D01*
X136448541Y-99084932D01*
X136200131Y-99255456D01*
X136196437Y-99258797D01*
X136173769Y-99279299D01*
X135976667Y-99457568D01*
X135782135Y-99687661D01*
X135779456Y-99691858D01*
X135779452Y-99691863D01*
X135705364Y-99807921D01*
X135620007Y-99941630D01*
X135493177Y-100214942D01*
X135403907Y-100502721D01*
X135353791Y-100799830D01*
X135353200Y-100817503D01*
X135345548Y-101046395D01*
X135343723Y-101100969D01*
X133908500Y-101100969D01*
X133908500Y-72885100D01*
X133928462Y-72810600D01*
X133983000Y-72756062D01*
X134057500Y-72736100D01*
X180938500Y-72736100D01*
X181013000Y-72756062D01*
G37*
%TD.AperFunction*%
%TA.AperFunction,Conductor*%
G36*
X148645388Y-81950462D02*
G01*
X148699926Y-82005000D01*
X148719888Y-82079500D01*
X148710901Y-82130463D01*
X148708268Y-82137696D01*
X148656418Y-82331201D01*
X148654169Y-82343955D01*
X148636710Y-82543519D01*
X148636710Y-82556481D01*
X148654169Y-82756045D01*
X148656418Y-82768799D01*
X148708268Y-82962303D01*
X148712699Y-82974477D01*
X148800109Y-83161929D01*
X148798824Y-83162528D01*
X148816806Y-83229645D01*
X148796841Y-83304144D01*
X148742304Y-83358679D01*
X148597506Y-83442275D01*
X148597494Y-83442283D01*
X148593285Y-83444713D01*
X148421634Y-83576422D01*
X148403246Y-83594809D01*
X148403242Y-83594812D01*
X146899084Y-85098970D01*
X146898912Y-85099136D01*
X146898909Y-85099132D01*
X146822415Y-85175628D01*
X146690705Y-85347279D01*
X146582527Y-85534654D01*
X146580659Y-85539164D01*
X146512593Y-85703496D01*
X146499732Y-85734545D01*
X146443737Y-85943534D01*
X146443102Y-85948356D01*
X146443102Y-85948357D01*
X146417059Y-86146196D01*
X146415499Y-86158043D01*
X146415499Y-86162913D01*
X146415500Y-86192748D01*
X146415500Y-103512711D01*
X146415507Y-103512761D01*
X146415510Y-103512866D01*
X146415509Y-103579956D01*
X146443747Y-103794464D01*
X146499742Y-104003452D01*
X146582536Y-104203342D01*
X146690713Y-104390715D01*
X146822422Y-104562366D01*
X146840809Y-104580754D01*
X146840812Y-104580758D01*
X147830220Y-105570166D01*
X147843071Y-105584820D01*
X147880727Y-105633895D01*
X147900175Y-105667581D01*
X147920076Y-105715629D01*
X147930143Y-105753199D01*
X147938226Y-105814601D01*
X147939500Y-105834048D01*
X147939499Y-105897499D01*
X147939500Y-105897503D01*
X147939500Y-109323278D01*
X147919538Y-109397778D01*
X147903513Y-109420381D01*
X147902996Y-109420983D01*
X147898518Y-109425963D01*
X147875780Y-109450136D01*
X147827434Y-109484352D01*
X147797327Y-109497645D01*
X147791648Y-109501535D01*
X147791643Y-109501538D01*
X147637649Y-109607027D01*
X147618861Y-109619897D01*
X147582181Y-109656577D01*
X147575952Y-109662457D01*
X147548343Y-109687053D01*
X147542528Y-109694557D01*
X147530118Y-109708640D01*
X147465897Y-109772861D01*
X147462006Y-109778541D01*
X147462002Y-109778546D01*
X147447469Y-109799762D01*
X147388898Y-109849942D01*
X147313083Y-109864114D01*
X147240339Y-109838480D01*
X147201620Y-109799761D01*
X147183790Y-109773732D01*
X147175026Y-109763178D01*
X147030822Y-109618974D01*
X147020268Y-109610210D01*
X146852022Y-109494958D01*
X146840033Y-109488281D01*
X146653478Y-109405909D01*
X146640467Y-109401548D01*
X146441110Y-109354660D01*
X146429235Y-109352864D01*
X146369570Y-109348722D01*
X146353849Y-109351786D01*
X146350000Y-109362983D01*
X146350000Y-110744000D01*
X145750000Y-110744000D01*
X145750000Y-109366980D01*
X145745855Y-109351509D01*
X145734420Y-109348445D01*
X145670765Y-109352864D01*
X145658890Y-109354660D01*
X145459533Y-109401548D01*
X145446522Y-109405909D01*
X145259967Y-109488281D01*
X145247978Y-109494958D01*
X145079732Y-109610210D01*
X145069178Y-109618974D01*
X144924974Y-109763178D01*
X144916210Y-109773732D01*
X144898380Y-109799761D01*
X144839809Y-109849942D01*
X144763994Y-109864115D01*
X144691250Y-109838481D01*
X144652531Y-109799762D01*
X144637998Y-109778546D01*
X144637994Y-109778541D01*
X144634103Y-109772861D01*
X144535864Y-109674622D01*
X144535885Y-109674601D01*
X144535807Y-109674556D01*
X144534645Y-109673196D01*
X144532945Y-109671703D01*
X144481139Y-109619897D01*
X144462352Y-109607027D01*
X144449524Y-109598240D01*
X144399342Y-109539670D01*
X144385169Y-109463855D01*
X144410803Y-109391111D01*
X144469373Y-109340929D01*
X144502748Y-109329571D01*
X144515631Y-109326833D01*
X144551803Y-109319144D01*
X144724730Y-109242151D01*
X144877871Y-109130888D01*
X144938158Y-109063933D01*
X144999307Y-108996021D01*
X144999311Y-108996016D01*
X145004533Y-108990216D01*
X145099179Y-108826284D01*
X145151577Y-108665020D01*
X145155259Y-108653689D01*
X145155259Y-108653688D01*
X145157674Y-108646256D01*
X145159765Y-108626366D01*
X145176644Y-108465764D01*
X145177460Y-108458000D01*
X145175305Y-108437499D01*
X145158491Y-108277514D01*
X145158490Y-108277511D01*
X145157674Y-108269744D01*
X145099179Y-108089716D01*
X145004533Y-107925784D01*
X144999311Y-107919984D01*
X144999307Y-107919979D01*
X144896882Y-107806226D01*
X144877871Y-107785112D01*
X144724730Y-107673849D01*
X144636415Y-107634529D01*
X144624168Y-107628384D01*
X144595943Y-107612552D01*
X144590971Y-107610633D01*
X144590967Y-107610631D01*
X144520576Y-107583461D01*
X144520558Y-107583454D01*
X144520042Y-107583255D01*
X144509104Y-107579177D01*
X144508598Y-107578995D01*
X144496984Y-107574977D01*
X144423005Y-107550382D01*
X144422218Y-107550129D01*
X144413419Y-107547305D01*
X144413342Y-107547281D01*
X144412997Y-107547170D01*
X144412619Y-107547053D01*
X144412481Y-107547012D01*
X144412375Y-107546979D01*
X144405767Y-107544987D01*
X144405761Y-107544985D01*
X144405558Y-107544924D01*
X144405460Y-107544895D01*
X144405389Y-107544874D01*
X144341816Y-107526209D01*
X144341670Y-107526166D01*
X144336926Y-107524798D01*
X144336641Y-107524717D01*
X144336521Y-107524683D01*
X144289410Y-107511349D01*
X144285269Y-107510112D01*
X144283577Y-107509580D01*
X144276164Y-107507247D01*
X144226696Y-107480570D01*
X144217713Y-107473242D01*
X144209565Y-107466085D01*
X144169121Y-107427866D01*
X144167844Y-107426659D01*
X144132224Y-107396003D01*
X144131878Y-107395805D01*
X144118289Y-107384343D01*
X144015780Y-107281834D01*
X144002929Y-107267180D01*
X143965274Y-107218107D01*
X143945825Y-107184419D01*
X143925924Y-107136371D01*
X143915857Y-107098800D01*
X143907774Y-107037397D01*
X143906500Y-107017951D01*
X143906500Y-107002491D01*
X143906501Y-106954511D01*
X143906501Y-106954501D01*
X143906500Y-106954497D01*
X143906500Y-85831503D01*
X143906501Y-85831499D01*
X143906500Y-85767973D01*
X143907774Y-85748526D01*
X143908994Y-85739259D01*
X143915848Y-85687190D01*
X143925913Y-85649627D01*
X143945817Y-85601572D01*
X143965264Y-85567890D01*
X144002875Y-85518874D01*
X144015726Y-85504220D01*
X147480166Y-82039780D01*
X147494820Y-82026929D01*
X147507860Y-82016923D01*
X147543895Y-81989273D01*
X147577581Y-81969825D01*
X147625629Y-81949924D01*
X147663199Y-81939857D01*
X147694831Y-81935693D01*
X147724604Y-81931774D01*
X147744048Y-81930500D01*
X147807425Y-81930501D01*
X147807499Y-81930501D01*
X147807502Y-81930500D01*
X148570888Y-81930500D01*
X148645388Y-81950462D01*
G37*
%TD.AperFunction*%
%TA.AperFunction,Conductor*%
G36*
X178599000Y-92043462D02*
G01*
X178653538Y-92098000D01*
X178673500Y-92172500D01*
X178673500Y-93492497D01*
X178673499Y-93492501D01*
X178673499Y-93492509D01*
X178673500Y-93556025D01*
X178672226Y-93575472D01*
X178664192Y-93636507D01*
X178664152Y-93636808D01*
X178654087Y-93674373D01*
X178634183Y-93722428D01*
X178614736Y-93756110D01*
X178577125Y-93805126D01*
X178564274Y-93819780D01*
X177729404Y-94654650D01*
X177705921Y-94673779D01*
X177703524Y-94675355D01*
X177703517Y-94675360D01*
X177699078Y-94678280D01*
X177646990Y-94724390D01*
X177577978Y-94758821D01*
X177549452Y-94761816D01*
X177479999Y-94762385D01*
X177471932Y-94762515D01*
X177471827Y-94762518D01*
X177471749Y-94762519D01*
X177423159Y-94763693D01*
X177375017Y-94764856D01*
X177363340Y-94765357D01*
X177356848Y-94765635D01*
X177356826Y-94765636D01*
X177356130Y-94765666D01*
X177355270Y-94765719D01*
X177354584Y-94765774D01*
X177354548Y-94765777D01*
X177346399Y-94766436D01*
X177336033Y-94767274D01*
X177335395Y-94767338D01*
X177335371Y-94767340D01*
X177252796Y-94775603D01*
X177229571Y-94777927D01*
X177212676Y-94780096D01*
X177202647Y-94781383D01*
X177202631Y-94781385D01*
X177201566Y-94781522D01*
X177200291Y-94781722D01*
X177172697Y-94786839D01*
X177171718Y-94787049D01*
X177171707Y-94787051D01*
X177075918Y-94807580D01*
X177052849Y-94812524D01*
X177022742Y-94819949D01*
X177021357Y-94820336D01*
X176991625Y-94829640D01*
X176958484Y-94841144D01*
X176890591Y-94864711D01*
X176883625Y-94866851D01*
X176882279Y-94867341D01*
X176875991Y-94869026D01*
X176870095Y-94871776D01*
X176868129Y-94872491D01*
X176867882Y-94872579D01*
X176867669Y-94872659D01*
X176867114Y-94872861D01*
X176865772Y-94873327D01*
X176863461Y-94874310D01*
X176863452Y-94874313D01*
X176825240Y-94890559D01*
X176802665Y-94900157D01*
X176796239Y-94904674D01*
X176789374Y-94908490D01*
X176789217Y-94908207D01*
X176777791Y-94914817D01*
X176735491Y-94934542D01*
X176683836Y-94958629D01*
X176678508Y-94962360D01*
X176678504Y-94962362D01*
X176576876Y-95033523D01*
X176510159Y-95080239D01*
X176360239Y-95230159D01*
X176337396Y-95262782D01*
X176277554Y-95348245D01*
X176218470Y-95397822D01*
X176142514Y-95411215D01*
X176070037Y-95384836D01*
X176020460Y-95325752D01*
X176006500Y-95262782D01*
X176006500Y-93584160D01*
X176026462Y-93509660D01*
X176081000Y-93455122D01*
X176155500Y-93435160D01*
X176197070Y-93441076D01*
X176319406Y-93476618D01*
X176343431Y-93483598D01*
X176380306Y-93486500D01*
X176811694Y-93486500D01*
X176848569Y-93483598D01*
X176872594Y-93476618D01*
X176997398Y-93440359D01*
X176997400Y-93440358D01*
X177006398Y-93437744D01*
X177012769Y-93433977D01*
X177088125Y-93422848D01*
X177128880Y-93433769D01*
X177135602Y-93437744D01*
X177144600Y-93440358D01*
X177144602Y-93440359D01*
X177269406Y-93476618D01*
X177293431Y-93483598D01*
X177330306Y-93486500D01*
X177761694Y-93486500D01*
X177798569Y-93483598D01*
X177822594Y-93476618D01*
X177947395Y-93440360D01*
X177947398Y-93440359D01*
X177956398Y-93437744D01*
X177956655Y-93437592D01*
X178028608Y-93426967D01*
X178070655Y-93438234D01*
X178091596Y-93447296D01*
X178177165Y-93472156D01*
X178193176Y-93472491D01*
X178195860Y-93468059D01*
X178196000Y-93467077D01*
X178196000Y-93309201D01*
X178216749Y-93233354D01*
X178292975Y-93104462D01*
X178297744Y-93096398D01*
X178343598Y-92938569D01*
X178346500Y-92901694D01*
X178346500Y-92172500D01*
X178366462Y-92098000D01*
X178421000Y-92043462D01*
X178495500Y-92023500D01*
X178524500Y-92023500D01*
X178599000Y-92043462D01*
G37*
%TD.AperFunction*%
%TA.AperFunction,Conductor*%
G36*
X171475684Y-88281775D02*
G01*
X171537010Y-88289849D01*
X171574581Y-88299916D01*
X171622626Y-88319817D01*
X171656310Y-88339264D01*
X171697570Y-88370923D01*
X171725075Y-88398428D01*
X171735367Y-88411841D01*
X171756736Y-88439690D01*
X171776183Y-88473374D01*
X171796084Y-88521419D01*
X171806151Y-88558990D01*
X171814225Y-88620316D01*
X171815500Y-88639765D01*
X171815500Y-88977018D01*
X171809449Y-89019047D01*
X171804546Y-89035723D01*
X171803966Y-89037649D01*
X171792852Y-89073647D01*
X171792198Y-89075711D01*
X171781441Y-89108805D01*
X171780741Y-89110902D01*
X171770473Y-89140824D01*
X171769601Y-89143290D01*
X171759985Y-89169749D01*
X171758942Y-89172533D01*
X171750055Y-89195545D01*
X171748827Y-89198624D01*
X171740863Y-89217955D01*
X171739402Y-89221378D01*
X171732582Y-89236825D01*
X171730842Y-89240620D01*
X171723386Y-89256297D01*
X171716888Y-89271152D01*
X171714256Y-89275602D01*
X171712901Y-89280265D01*
X171710585Y-89285560D01*
X171710035Y-89286934D01*
X171684966Y-89369286D01*
X171684515Y-89375966D01*
X171681977Y-89386702D01*
X171670527Y-89426113D01*
X171670526Y-89426120D01*
X171668402Y-89433431D01*
X171665500Y-89470306D01*
X171665500Y-90199500D01*
X171645538Y-90274000D01*
X171591000Y-90328538D01*
X171516500Y-90348500D01*
X170727617Y-90348500D01*
X170712146Y-90352645D01*
X170708001Y-90368116D01*
X170708001Y-90386500D01*
X170688039Y-90461000D01*
X170633501Y-90515538D01*
X170559001Y-90535500D01*
X164063502Y-90535500D01*
X164063499Y-90535499D01*
X164063424Y-90535499D01*
X163999970Y-90535500D01*
X163980526Y-90534226D01*
X163919174Y-90526150D01*
X163881606Y-90516085D01*
X163858946Y-90506700D01*
X163797754Y-90459750D01*
X163768236Y-90388494D01*
X163767481Y-90356595D01*
X163772214Y-90300145D01*
X163773172Y-90286494D01*
X163773207Y-90285876D01*
X163773777Y-90272831D01*
X163776013Y-90200134D01*
X163776022Y-90199846D01*
X163776022Y-90199830D01*
X163776091Y-90197586D01*
X163776023Y-90195337D01*
X163776023Y-90195316D01*
X163775797Y-90187853D01*
X163775935Y-90182985D01*
X163775761Y-90182985D01*
X163775761Y-90176481D01*
X163776328Y-90170000D01*
X163775761Y-90163520D01*
X163775761Y-90163512D01*
X163775062Y-90155520D01*
X163774563Y-90147047D01*
X163774459Y-90143603D01*
X163774458Y-90143599D01*
X163774229Y-90136009D01*
X163773868Y-90134494D01*
X163774445Y-90130071D01*
X163772847Y-90130211D01*
X163758416Y-89965263D01*
X163758415Y-89965258D01*
X163757849Y-89958787D01*
X163702974Y-89753991D01*
X163701030Y-89749822D01*
X163699198Y-89728884D01*
X170708000Y-89728884D01*
X170712145Y-89744355D01*
X170727616Y-89748500D01*
X171196384Y-89748500D01*
X171211855Y-89744355D01*
X171216000Y-89728884D01*
X171216000Y-88913988D01*
X171211855Y-88898517D01*
X171206849Y-88897176D01*
X171205869Y-88897315D01*
X171111596Y-88924704D01*
X171094536Y-88932087D01*
X170967572Y-89007172D01*
X170952872Y-89018575D01*
X170848575Y-89122872D01*
X170837172Y-89137572D01*
X170762087Y-89264536D01*
X170754704Y-89281597D01*
X170713059Y-89424937D01*
X170710338Y-89439838D01*
X170708229Y-89466638D01*
X170708000Y-89472460D01*
X170708000Y-89728884D01*
X163699198Y-89728884D01*
X163694364Y-89673627D01*
X163726959Y-89603725D01*
X163790139Y-89559486D01*
X163841100Y-89550500D01*
X165488711Y-89550500D01*
X165488761Y-89550493D01*
X165488866Y-89550490D01*
X165489859Y-89550490D01*
X165551086Y-89550491D01*
X165555956Y-89550491D01*
X165560778Y-89549856D01*
X165560781Y-89549856D01*
X165649132Y-89538225D01*
X165770464Y-89522253D01*
X165979452Y-89466258D01*
X166179342Y-89383464D01*
X166187804Y-89378579D01*
X166346541Y-89286934D01*
X166366715Y-89275287D01*
X166372519Y-89270834D01*
X166534494Y-89146549D01*
X166538366Y-89143578D01*
X166556754Y-89125191D01*
X166556758Y-89125188D01*
X167292166Y-88389780D01*
X167306820Y-88376929D01*
X167355893Y-88339274D01*
X167389581Y-88319825D01*
X167437629Y-88299924D01*
X167475199Y-88289857D01*
X167501167Y-88286439D01*
X167536604Y-88281774D01*
X167556048Y-88280500D01*
X167619425Y-88280501D01*
X167619499Y-88280501D01*
X167619502Y-88280500D01*
X171456235Y-88280500D01*
X171475684Y-88281775D01*
G37*
%TD.AperFunction*%
%TD*%
M02*
