%TF.GenerationSoftware,KiCad,Pcbnew,(6.99.0-4380-g9b6f7d5db7)*%
%TF.CreationDate,2022-11-27T23:54:04+01:00*%
%TF.ProjectId,Vectorblade_PLCC32_THT_Kicad7,56656374-6f72-4626-9c61-64655f504c43,rev?*%
%TF.SameCoordinates,Original*%
%TF.FileFunction,Copper,L1,Top*%
%TF.FilePolarity,Positive*%
%FSLAX46Y46*%
G04 Gerber Fmt 4.6, Leading zero omitted, Abs format (unit mm)*
G04 Created by KiCad (PCBNEW (6.99.0-4380-g9b6f7d5db7)) date 2022-11-27 23:54:04*
%MOMM*%
%LPD*%
G01*
G04 APERTURE LIST*
G04 Aperture macros list*
%AMRoundRect*
0 Rectangle with rounded corners*
0 $1 Rounding radius*
0 $2 $3 $4 $5 $6 $7 $8 $9 X,Y pos of 4 corners*
0 Add a 4 corners polygon primitive as box body*
4,1,4,$2,$3,$4,$5,$6,$7,$8,$9,$2,$3,0*
0 Add four circle primitives for the rounded corners*
1,1,$1+$1,$2,$3*
1,1,$1+$1,$4,$5*
1,1,$1+$1,$6,$7*
1,1,$1+$1,$8,$9*
0 Add four rect primitives between the rounded corners*
20,1,$1+$1,$2,$3,$4,$5,0*
20,1,$1+$1,$4,$5,$6,$7,0*
20,1,$1+$1,$6,$7,$8,$9,0*
20,1,$1+$1,$8,$9,$2,$3,0*%
G04 Aperture macros list end*
%TA.AperFunction,ComponentPad*%
%ADD10C,1.422400*%
%TD*%
%TA.AperFunction,ComponentPad*%
%ADD11R,1.422400X1.422400*%
%TD*%
%TA.AperFunction,SMDPad,CuDef*%
%ADD12RoundRect,0.666750X-0.222250X-3.778250X0.222250X-3.778250X0.222250X3.778250X-0.222250X3.778250X0*%
%TD*%
%TA.AperFunction,SMDPad,CuDef*%
%ADD13RoundRect,0.150000X0.150000X-0.512500X0.150000X0.512500X-0.150000X0.512500X-0.150000X-0.512500X0*%
%TD*%
%TA.AperFunction,SMDPad,CuDef*%
%ADD14RoundRect,0.250000X-0.325000X-0.650000X0.325000X-0.650000X0.325000X0.650000X-0.325000X0.650000X0*%
%TD*%
%TA.AperFunction,SMDPad,CuDef*%
%ADD15RoundRect,0.150000X-0.150000X0.512500X-0.150000X-0.512500X0.150000X-0.512500X0.150000X0.512500X0*%
%TD*%
%TA.AperFunction,ViaPad*%
%ADD16C,0.800000*%
%TD*%
%TA.AperFunction,Conductor*%
%ADD17C,0.300000*%
%TD*%
%TA.AperFunction,Conductor*%
%ADD18C,1.240000*%
%TD*%
%TA.AperFunction,Conductor*%
%ADD19C,1.000000*%
%TD*%
%TA.AperFunction,Conductor*%
%ADD20C,0.600000*%
%TD*%
G04 APERTURE END LIST*
D10*
%TO.P,,22,CE*%
%TO.N,/~{CE}*%
X150876000Y-94488000D03*
%TD*%
D11*
%TO.P,U1,1,NC*%
%TO.N,unconnected-(U1-Pad1)*%
X162559999Y-85089999D03*
D10*
%TO.P,U1,2,A16*%
%TO.N,/PB6*%
X165100000Y-82550000D03*
%TO.P,U1,3,A15*%
%TO.N,/V-A15*%
X162560000Y-82550000D03*
%TO.P,U1,4,A12*%
%TO.N,/V-A12*%
X165100000Y-80010000D03*
%TO.P,U1,5,A7*%
%TO.N,/V-A7*%
X162560000Y-77470000D03*
%TO.P,U1,6,A6*%
%TO.N,/V-A6*%
X162560000Y-80010000D03*
%TO.P,U1,7,A5*%
%TO.N,/V-A5*%
X160020000Y-77470000D03*
%TO.P,U1,8,A4*%
%TO.N,/V-A4*%
X160020000Y-80010000D03*
%TO.P,U1,9,A3*%
%TO.N,/V-A3*%
X157480000Y-77470000D03*
%TO.P,U1,10,A2*%
%TO.N,/V-A2*%
X157480000Y-80010000D03*
%TO.P,U1,11,A1*%
%TO.N,/V-A1*%
X154940000Y-77470000D03*
%TO.P,U1,12,A0*%
%TO.N,/V-A0*%
X154940000Y-80010000D03*
%TO.P,U1,13,D0*%
%TO.N,/V-D0*%
X152400000Y-77470000D03*
%TO.P,U1,14,D1*%
%TO.N,/V-D1*%
X149860000Y-80010000D03*
%TO.P,U1,15,D2*%
%TO.N,/V-D2*%
X152400000Y-80010000D03*
%TO.P,U1,16,GND*%
%TO.N,GND*%
X149860000Y-82550000D03*
%TO.P,U1,17,D3*%
%TO.N,/V-D3*%
X152400000Y-82550000D03*
%TO.P,U1,18,D4*%
%TO.N,/V-D4*%
X149860000Y-85090000D03*
%TO.P,U1,19,D5*%
%TO.N,/V-D5*%
X152400000Y-85090000D03*
%TO.P,U1,20,D6*%
%TO.N,/V-D6*%
X149860000Y-87630000D03*
%TO.P,U1,21,D7*%
%TO.N,/V-D7*%
X152400000Y-90170000D03*
%TO.P,U1,22,CE*%
%TO.N,/~{CE}*%
X152400000Y-87630000D03*
%TO.P,U1,23,A10*%
%TO.N,/V-A10*%
X154940000Y-90170000D03*
%TO.P,U1,24,OE*%
%TO.N,/~{OE}*%
X154940000Y-87630000D03*
%TO.P,U1,25,A11*%
%TO.N,/V-A11*%
X157480000Y-90170000D03*
%TO.P,U1,26,A9*%
%TO.N,/V-A9*%
X157480000Y-87630000D03*
%TO.P,U1,27,A8*%
%TO.N,/V-A8*%
X160020000Y-90170000D03*
%TO.P,U1,28,A13*%
%TO.N,/V-A13*%
X160020000Y-87630000D03*
%TO.P,U1,29,A14*%
%TO.N,/V-A14*%
X162560000Y-90170000D03*
%TO.P,U1,30,A17*%
%TO.N,/IRQ*%
X165100000Y-87630000D03*
%TO.P,U1,31,PGM*%
%TO.N,/V-RW*%
X162560000Y-87630000D03*
%TO.P,U1,32,VCC*%
%TO.N,+5V*%
X165100000Y-85090000D03*
%TD*%
D12*
%TO.P,CON3,2,VCC*%
%TO.N,+5V*%
X179070000Y-114300000D03*
%TO.P,CON3,4,VCC2*%
X176530000Y-114300000D03*
%TO.P,CON3,6,A8*%
%TO.N,/V-A8*%
X173990000Y-114300000D03*
%TO.P,CON3,8,A9*%
%TO.N,/V-A9*%
X171450000Y-114300000D03*
%TO.P,CON3,10,A11*%
%TO.N,/V-A11*%
X168910000Y-114300000D03*
%TO.P,CON3,12,OE*%
%TO.N,unconnected-(CON3-Pad12)*%
X166370000Y-114300000D03*
%TO.P,CON3,14,A10*%
%TO.N,/V-A10*%
X163830000Y-114300000D03*
%TO.P,CON3,16,CE*%
%TO.N,/V-A15*%
X161290000Y-114300000D03*
%TO.P,CON3,18,D7*%
%TO.N,/V-D7*%
X158750000Y-114300000D03*
%TO.P,CON3,20,D6*%
%TO.N,/V-D6*%
X156210000Y-114300000D03*
%TO.P,CON3,22,D5*%
%TO.N,/V-D5*%
X153670000Y-114300000D03*
%TO.P,CON3,24,D4*%
%TO.N,/V-D4*%
X151130000Y-114300000D03*
%TO.P,CON3,26,D3*%
%TO.N,/V-D3*%
X148590000Y-114300000D03*
%TO.P,CON3,28,GND2*%
%TO.N,GND*%
X146050000Y-114300000D03*
%TO.P,CON3,30,RW*%
%TO.N,/V-RW*%
X143510000Y-114300000D03*
%TO.P,CON3,32,CART*%
%TO.N,unconnected-(CON3-Pad32)*%
X140970000Y-114300000D03*
%TO.P,CON3,34,NMI*%
%TO.N,unconnected-(CON3-Pad34)*%
X138430000Y-114300000D03*
%TO.P,CON3,36,IRQ*%
%TO.N,/IRQ*%
X135890000Y-114300000D03*
%TD*%
D10*
%TO.P,,22,CE*%
%TO.N,/~{OE}*%
X177292000Y-96012000D03*
%TD*%
D13*
%TO.P,U3,1*%
%TO.N,N/C*%
X176596000Y-92323500D03*
%TO.P,U3,2*%
%TO.N,/V-RW*%
X177546000Y-92323500D03*
%TO.P,U3,3,GND*%
%TO.N,GND*%
X178496000Y-92323500D03*
%TO.P,U3,4*%
%TO.N,/~{OE}*%
X178496000Y-90048500D03*
%TO.P,U3,5,VCC*%
%TO.N,+5V*%
X176596000Y-90048500D03*
%TD*%
D14*
%TO.P,C1,1,1*%
%TO.N,+5V*%
X173023000Y-85090000D03*
%TO.P,C1,2,2*%
%TO.N,GND*%
X175973000Y-85090000D03*
%TD*%
D10*
%TO.P,,24,OE*%
%TO.N,/~{OE}*%
X154940000Y-96012000D03*
%TD*%
%TO.P,,24,OE*%
%TO.N,/~{CE}*%
X172720000Y-94488000D03*
%TD*%
D15*
%TO.P,U2,1*%
%TO.N,/V-A14*%
X173416000Y-90048500D03*
%TO.P,U2,2*%
%TO.N,/V-A15*%
X172466000Y-90048500D03*
%TO.P,U2,3,GND*%
%TO.N,GND*%
X171516000Y-90048500D03*
%TO.P,U2,4*%
%TO.N,/~{CE}*%
X171516000Y-92323500D03*
%TO.P,U2,5,VCC*%
%TO.N,+5V*%
X173416000Y-92323500D03*
%TD*%
D16*
%TO.N,GND*%
X135890000Y-104775000D03*
X175260000Y-82804000D03*
X146050000Y-107188000D03*
X171323000Y-88667977D03*
X147320000Y-105918000D03*
X144780000Y-97536000D03*
X135890000Y-97155000D03*
X177546000Y-94234000D03*
X168656000Y-76962000D03*
X147320000Y-108458000D03*
X144780000Y-94742000D03*
X135890000Y-74930000D03*
X144780000Y-85852000D03*
X171958000Y-81026000D03*
X178816000Y-86995000D03*
X179070000Y-97155000D03*
X179070000Y-74930000D03*
X146050000Y-108458000D03*
X144780000Y-91694000D03*
X171958000Y-83058000D03*
X176403000Y-94234000D03*
X147320000Y-107188000D03*
X176403000Y-86995000D03*
X144780000Y-88900000D03*
X146050000Y-105918000D03*
X144780000Y-100330000D03*
X179070000Y-104775000D03*
%TO.N,/V-A5*%
X167386000Y-81280000D03*
%TO.N,/V-A12*%
X144272000Y-108458000D03*
%TO.N,/V-A13*%
X170434000Y-94996000D03*
%TO.N,/V-A14*%
X173609000Y-88630536D03*
%TO.N,/V-RW*%
X177546000Y-91186000D03*
X171196000Y-93980000D03*
X163830000Y-92710000D03*
X142240000Y-104394000D03*
%TO.N,/PB6*%
X142240000Y-102870000D03*
%TO.N,/V-A15*%
X165100000Y-105410000D03*
X165100000Y-89535000D03*
%TD*%
D17*
%TO.N,/V-A15*%
X165100000Y-89535000D02*
X165354000Y-89281000D01*
X165100000Y-89535000D02*
X164846000Y-89281000D01*
X165354000Y-89281000D02*
X165354000Y-88918051D01*
X164846000Y-89281000D02*
X164846000Y-89027000D01*
X165100000Y-89535000D02*
X165100000Y-88900000D01*
%TO.N,GND*%
X177546000Y-94234000D02*
X178496000Y-93284000D01*
X171323000Y-88667977D02*
X171516000Y-88860977D01*
D18*
X149860000Y-82550000D02*
X148336000Y-82550000D01*
D17*
X178496000Y-93284000D02*
X178496000Y-92323500D01*
X171516000Y-88860977D02*
X171516000Y-90048500D01*
D19*
%TO.N,+5V*%
X172720000Y-100711382D02*
X172720000Y-100964618D01*
D20*
X176596000Y-90048500D02*
X175006000Y-90048500D01*
D19*
X175006000Y-88564685D02*
X175006000Y-95192462D01*
X173023000Y-85090000D02*
X165100000Y-85090000D01*
X173023000Y-85090000D02*
X173023000Y-85869250D01*
X176530000Y-114300000D02*
X176530000Y-106680000D01*
X174067309Y-104217309D02*
X176530000Y-106680000D01*
X176530000Y-106680000D02*
X178698026Y-108848026D01*
X179070000Y-109746051D02*
X179070000Y-114300000D01*
X173023000Y-85869250D02*
X174502233Y-87348483D01*
D20*
X173416000Y-92323500D02*
X175006000Y-92323500D01*
D19*
X174067318Y-97458700D02*
G75*
G03*
X172720000Y-100711382I3252682J-3252700D01*
G01*
X175006001Y-88564685D02*
G75*
G03*
X174502232Y-87348484I-1720001J-15D01*
G01*
X174067336Y-97458718D02*
G75*
G03*
X175006000Y-95192462I-2266336J2266218D01*
G01*
X179070034Y-109746051D02*
G75*
G03*
X178698026Y-108848026I-1270034J-49D01*
G01*
X172719988Y-100964618D02*
G75*
G03*
X174067309Y-104217309I4600012J18D01*
G01*
D17*
%TO.N,/V-A8*%
X173618025Y-106308025D02*
X160391974Y-93081974D01*
X160020000Y-92183949D02*
X160020000Y-90170000D01*
X173990000Y-114300000D02*
X173990000Y-107206051D01*
X160019966Y-92183949D02*
G75*
G03*
X160391974Y-93081974I1270034J49D01*
G01*
X173990034Y-107206051D02*
G75*
G03*
X173618025Y-106308025I-1270034J-49D01*
G01*
%TO.N,/V-A5*%
X164573949Y-76200000D02*
X161816051Y-76200000D01*
X167014025Y-78114025D02*
X165471974Y-76571974D01*
X160918025Y-76571975D02*
X160020000Y-77470000D01*
X167386000Y-81280000D02*
X167386000Y-79012051D01*
X167386034Y-79012051D02*
G75*
G03*
X167014025Y-78114025I-1270034J-49D01*
G01*
X161816051Y-76199966D02*
G75*
G03*
X160918025Y-76571975I49J-1270034D01*
G01*
X165471950Y-76571998D02*
G75*
G03*
X164573949Y-76200000I-898050J-898002D01*
G01*
%TO.N,/V-A9*%
X158378025Y-88528025D02*
X157480000Y-87630000D01*
X171078025Y-105038025D02*
X159121974Y-93081974D01*
X158750000Y-92183949D02*
X158750000Y-89426051D01*
X171450000Y-114300000D02*
X171450000Y-105936051D01*
X171450034Y-105936051D02*
G75*
G03*
X171078025Y-105038025I-1270034J-49D01*
G01*
X158749966Y-92183949D02*
G75*
G03*
X159121974Y-93081974I1270034J49D01*
G01*
X158750034Y-89426051D02*
G75*
G03*
X158378025Y-88528025I-1270034J-49D01*
G01*
%TO.N,/V-A11*%
X168910000Y-114300000D02*
X168910000Y-104666051D01*
X168538025Y-103768025D02*
X157851974Y-93081974D01*
X157480000Y-92183949D02*
X157480000Y-90170000D01*
X168910034Y-104666051D02*
G75*
G03*
X168538025Y-103768025I-1270034J-49D01*
G01*
X157479966Y-92183949D02*
G75*
G03*
X157851974Y-93081974I1270034J49D01*
G01*
%TO.N,/V-A10*%
X166370000Y-105518949D02*
X166370000Y-103396051D01*
X164201975Y-108213025D02*
X165998026Y-106416974D01*
X165998025Y-102498025D02*
X155311974Y-91811974D01*
X154940000Y-90913949D02*
X154940000Y-90170000D01*
X163830000Y-114300000D02*
X163830000Y-109111051D01*
X154939966Y-90913949D02*
G75*
G03*
X155311974Y-91811974I1270034J49D01*
G01*
X165998002Y-106416950D02*
G75*
G03*
X166370000Y-105518949I-898002J898050D01*
G01*
X164201999Y-108213049D02*
G75*
G03*
X163830000Y-109111051I898001J-898051D01*
G01*
X166370034Y-103396051D02*
G75*
G03*
X165998025Y-102498025I-1270034J-49D01*
G01*
%TO.N,/V-D7*%
X152400000Y-103613949D02*
X152400000Y-90170000D01*
X157750000Y-108712000D02*
X157386214Y-108712000D01*
X156679107Y-108419107D02*
X152771974Y-104511974D01*
X158750000Y-114300000D02*
X158750000Y-109712000D01*
X152399966Y-103613949D02*
G75*
G03*
X152771974Y-104511974I1270034J49D01*
G01*
X158750000Y-109712000D02*
G75*
G03*
X157750000Y-108712000I-1000000J0D01*
G01*
X156679100Y-108419114D02*
G75*
G03*
X157386214Y-108712000I707100J707114D01*
G01*
%TO.N,/V-D6*%
X149352000Y-88138000D02*
X149352000Y-101835949D01*
X149723975Y-102733975D02*
X155838026Y-108848026D01*
X156210000Y-109746051D02*
X156210000Y-114300000D01*
X149860000Y-87630000D02*
X149352000Y-88138000D01*
X149351966Y-101835949D02*
G75*
G03*
X149723975Y-102733975I1270034J49D01*
G01*
X156210034Y-109746051D02*
G75*
G03*
X155838026Y-108848026I-1270034J-49D01*
G01*
%TO.N,/V-D5*%
X149860000Y-86360000D02*
X150603949Y-86360000D01*
X151501975Y-85988025D02*
X152400000Y-85090000D01*
X153670000Y-114300000D02*
X153670000Y-108476051D01*
X153298025Y-107578025D02*
X148961974Y-103241974D01*
X148590000Y-102343949D02*
X148590000Y-87630000D01*
X150603949Y-86360034D02*
G75*
G03*
X151501975Y-85988025I-49J1270034D01*
G01*
X153670034Y-108476051D02*
G75*
G03*
X153298025Y-107578025I-1270034J-49D01*
G01*
X148589966Y-102343949D02*
G75*
G03*
X148961974Y-103241974I1270034J49D01*
G01*
X149860000Y-86360000D02*
G75*
G03*
X148590000Y-87630000I0J-1270000D01*
G01*
%TO.N,/V-D4*%
X147828000Y-102851949D02*
X147828000Y-87122001D01*
X150758025Y-106308025D02*
X148199974Y-103749974D01*
X151130000Y-114300000D02*
X151130000Y-107206051D01*
X149860000Y-85090000D02*
G75*
G03*
X147828000Y-87122001I0J-2032000D01*
G01*
X147827966Y-102851949D02*
G75*
G03*
X148199974Y-103749974I1270034J49D01*
G01*
X151130034Y-107206051D02*
G75*
G03*
X150758025Y-106308025I-1270034J-49D01*
G01*
%TO.N,/V-D3*%
X151501975Y-83448025D02*
X152400000Y-82550000D01*
X148590000Y-114300000D02*
X148590000Y-105936051D01*
X149856609Y-83820000D02*
X150603949Y-83820000D01*
X148218025Y-105038025D02*
X147437974Y-104257974D01*
X147066000Y-103359949D02*
X147066000Y-86610609D01*
X150603949Y-83820034D02*
G75*
G03*
X151501975Y-83448025I-49J1270034D01*
G01*
X147065966Y-103359949D02*
G75*
G03*
X147437974Y-104257974I1270034J49D01*
G01*
X149856609Y-83820000D02*
G75*
G03*
X147066000Y-86610609I-9J-2790600D01*
G01*
X148590034Y-105936051D02*
G75*
G03*
X148218025Y-105038025I-1270034J-49D01*
G01*
%TO.N,/V-A12*%
X143256000Y-106915949D02*
X143256000Y-85870051D01*
X164201975Y-80908025D02*
X165100000Y-80010000D01*
X144272000Y-108458000D02*
X143627974Y-107813974D01*
X143627975Y-84972025D02*
X146948026Y-81651974D01*
X147846051Y-81280000D02*
X163303949Y-81280000D01*
X163303949Y-81280034D02*
G75*
G03*
X164201975Y-80908025I-49J1270034D01*
G01*
X147846051Y-81279966D02*
G75*
G03*
X146948026Y-81651974I49J-1270034D01*
G01*
X143627999Y-84972049D02*
G75*
G03*
X143256000Y-85870051I898001J-898051D01*
G01*
X143255966Y-106915949D02*
G75*
G03*
X143627974Y-107813974I1270034J49D01*
G01*
%TO.N,/V-A13*%
X160918025Y-89163025D02*
X160020000Y-88265000D01*
X161290000Y-91548949D02*
X161290000Y-90061051D01*
X160020000Y-88265000D02*
X160020000Y-87630000D01*
X163839025Y-94624025D02*
X161661974Y-92446974D01*
X170434000Y-94996000D02*
X164737051Y-94996000D01*
X161290034Y-90061051D02*
G75*
G03*
X160918025Y-89163025I-1270034J-49D01*
G01*
X163839049Y-94624001D02*
G75*
G03*
X164737051Y-94996000I898051J898001D01*
G01*
X161289966Y-91548949D02*
G75*
G03*
X161661974Y-92446974I1270034J49D01*
G01*
%TO.N,/V-A14*%
X163204025Y-90814025D02*
X162560000Y-90170000D01*
X173416000Y-91186000D02*
X164102051Y-91186000D01*
X173609000Y-88630536D02*
X173416000Y-88823536D01*
X173416000Y-88823536D02*
X173416000Y-90048500D01*
X173416000Y-90048500D02*
X173416000Y-91186000D01*
X163204049Y-90814001D02*
G75*
G03*
X164102051Y-91186000I898051J898001D01*
G01*
%TO.N,/V-RW*%
X165626051Y-93980000D02*
X171196000Y-93980000D01*
X163830000Y-92710000D02*
X164728026Y-93608026D01*
X143510000Y-109746051D02*
X143510000Y-114300000D01*
X177546000Y-91186000D02*
X177546000Y-92323500D01*
X142240000Y-104394000D02*
X142240000Y-107423949D01*
X142611975Y-108321975D02*
X143138026Y-108848026D01*
X164728050Y-93608002D02*
G75*
G03*
X165626051Y-93980000I898050J898002D01*
G01*
X143510034Y-109746051D02*
G75*
G03*
X143138026Y-108848026I-1270034J-49D01*
G01*
X142239966Y-107423949D02*
G75*
G03*
X142611975Y-108321975I1270034J49D01*
G01*
%TO.N,/PB6*%
X166370000Y-80010000D02*
X166370000Y-80753949D01*
X165998025Y-81651975D02*
X165100000Y-82550000D01*
X142240000Y-102870000D02*
X142494000Y-102616000D01*
X142865975Y-84464025D02*
X148218026Y-79111974D01*
X149116051Y-78740000D02*
X165100000Y-78740000D01*
X142494000Y-102616000D02*
X142494000Y-85362051D01*
X166370000Y-80010000D02*
G75*
G03*
X165100000Y-78740000I-1270000J0D01*
G01*
X149116051Y-78739966D02*
G75*
G03*
X148218026Y-79111974I49J-1270034D01*
G01*
X165998001Y-81651951D02*
G75*
G03*
X166370000Y-80753949I-898001J898051D01*
G01*
X142865999Y-84464049D02*
G75*
G03*
X142494000Y-85362051I898001J-898051D01*
G01*
%TO.N,/IRQ*%
X139954000Y-108458000D02*
X137160000Y-108458000D01*
X166741975Y-83448025D02*
X168030026Y-82159974D01*
X165081949Y-75438000D02*
X151148051Y-75438000D01*
X135890000Y-109728000D02*
X135890000Y-114300000D01*
X141483041Y-101826974D02*
X141472959Y-101837056D01*
X163830000Y-85833949D02*
X163830000Y-85090000D01*
X165100000Y-87630000D02*
X164201974Y-86731974D01*
X150250025Y-75809975D02*
X142103974Y-83956026D01*
X168030025Y-77860025D02*
X165979974Y-75809974D01*
X165100000Y-83820000D02*
X165843949Y-83820000D01*
X141224000Y-102438097D02*
X141224000Y-107188000D01*
X168402000Y-81261949D02*
X168402000Y-78758051D01*
X141732000Y-84854051D02*
X141732000Y-101225933D01*
X141483024Y-101826957D02*
G75*
G03*
X141732000Y-101225933I-601024J601057D01*
G01*
X141472961Y-101837058D02*
G75*
G03*
X141224000Y-102438097I601039J-601042D01*
G01*
X137160000Y-108458000D02*
G75*
G03*
X135890000Y-109728000I0J-1270000D01*
G01*
X165843949Y-83820034D02*
G75*
G03*
X166741975Y-83448025I-49J1270034D01*
G01*
X142103998Y-83956050D02*
G75*
G03*
X141732000Y-84854051I898002J-898050D01*
G01*
X165979950Y-75809998D02*
G75*
G03*
X165081949Y-75438000I-898050J-898002D01*
G01*
X165100000Y-83820000D02*
G75*
G03*
X163830000Y-85090000I0J-1270000D01*
G01*
X168402034Y-78758051D02*
G75*
G03*
X168030025Y-77860025I-1270034J-49D01*
G01*
X163829966Y-85833949D02*
G75*
G03*
X164201974Y-86731974I1270034J49D01*
G01*
X151148051Y-75437966D02*
G75*
G03*
X150250025Y-75809975I49J-1270034D01*
G01*
X139954000Y-108458000D02*
G75*
G03*
X141224000Y-107188000I0J1270000D01*
G01*
X168030002Y-82159950D02*
G75*
G03*
X168402000Y-81261949I-898002J898050D01*
G01*
%TO.N,/V-A15*%
X162560000Y-82550000D02*
X161661974Y-83448026D01*
X172466000Y-88900000D02*
X172466000Y-90048500D01*
X161290000Y-109746051D02*
X161290000Y-114300000D01*
X165100000Y-105410000D02*
X161661974Y-108848026D01*
X162560000Y-88900000D02*
X165100000Y-88900000D01*
X166233975Y-88528025D02*
X166760026Y-88001974D01*
X167658051Y-87630000D02*
X171196000Y-87630000D01*
X161290000Y-84346051D02*
X161290000Y-87630000D01*
X165100000Y-88900000D02*
X165335949Y-88900000D01*
X172466000Y-88900000D02*
G75*
G03*
X171196000Y-87630000I-1270000J0D01*
G01*
X161290000Y-87630000D02*
G75*
G03*
X162560000Y-88900000I1270000J0D01*
G01*
X161661998Y-108848050D02*
G75*
G03*
X161290000Y-109746051I898002J-898050D01*
G01*
X165335949Y-88900034D02*
G75*
G03*
X166233975Y-88528025I-49J1270034D01*
G01*
X161661998Y-83448050D02*
G75*
G03*
X161290000Y-84346051I898002J-898050D01*
G01*
X167658051Y-87629966D02*
G75*
G03*
X166760026Y-88001974I49J-1270034D01*
G01*
%TO.N,/~{CE}*%
X150876000Y-89680051D02*
X150876000Y-94488000D01*
X152400000Y-87630000D02*
X151247974Y-88782026D01*
X171516000Y-92776000D02*
X172720000Y-93980000D01*
X172720000Y-93980000D02*
X172720000Y-94488000D01*
X171516000Y-92323500D02*
X171516000Y-92776000D01*
X151247998Y-88782050D02*
G75*
G03*
X150876000Y-89680051I898002J-898050D01*
G01*
%TO.N,/~{OE}*%
X179324000Y-93453949D02*
X179324000Y-91402551D01*
X177292000Y-96012000D02*
X178952026Y-94351974D01*
X154041975Y-95113975D02*
X154940000Y-96012000D01*
X153670000Y-89426051D02*
X153670000Y-94215949D01*
X178952025Y-90504525D02*
X178496000Y-90048500D01*
X154940000Y-87630000D02*
X154041974Y-88528026D01*
X154041998Y-88528050D02*
G75*
G03*
X153670000Y-89426051I898002J-898050D01*
G01*
X179324034Y-91402551D02*
G75*
G03*
X178952025Y-90504525I-1270034J-49D01*
G01*
X153669966Y-94215949D02*
G75*
G03*
X154041975Y-95113975I1270034J49D01*
G01*
X178952002Y-94351950D02*
G75*
G03*
X179324000Y-93453949I-898002J898050D01*
G01*
%TD*%
%TA.AperFunction,Conductor*%
%TO.N,GND*%
G36*
X181013000Y-72756062D02*
G01*
X181067538Y-72810600D01*
X181087500Y-72885100D01*
X181087500Y-110595000D01*
X181067538Y-110669500D01*
X181013000Y-110724038D01*
X180938500Y-110744000D01*
X180608500Y-110744000D01*
X180534000Y-110724038D01*
X180479462Y-110669500D01*
X180459500Y-110595000D01*
X180459500Y-110449698D01*
X180453260Y-110359796D01*
X180403732Y-110149219D01*
X180374586Y-110083209D01*
X180368192Y-110065901D01*
X180367155Y-110062450D01*
X180365623Y-110057350D01*
X180361852Y-110049228D01*
X180350909Y-110028621D01*
X180346204Y-110018930D01*
X180319138Y-109957628D01*
X180319134Y-109957620D01*
X180316355Y-109951327D01*
X180312462Y-109945643D01*
X180197996Y-109778544D01*
X180194103Y-109772861D01*
X180114164Y-109692922D01*
X180085981Y-109653650D01*
X180082695Y-109647010D01*
X180068175Y-109597611D01*
X180064514Y-109565132D01*
X180041967Y-109365091D01*
X179985212Y-109116470D01*
X179900977Y-108875766D01*
X179835777Y-108740388D01*
X179792137Y-108649775D01*
X179792135Y-108649771D01*
X179790322Y-108646007D01*
X179654638Y-108430082D01*
X179643907Y-108416626D01*
X179498237Y-108233972D01*
X179498234Y-108233969D01*
X179495632Y-108230706D01*
X179405467Y-108140547D01*
X177309404Y-106044484D01*
X177309402Y-106044481D01*
X177268366Y-106003445D01*
X177260670Y-105995141D01*
X177234627Y-105964805D01*
X177222866Y-105951105D01*
X177200067Y-105933457D01*
X177185913Y-105920992D01*
X174777371Y-103512451D01*
X174772329Y-103507155D01*
X174542466Y-103253542D01*
X174533189Y-103242239D01*
X174331478Y-102970265D01*
X174323355Y-102958107D01*
X174149282Y-102667686D01*
X174142389Y-102654790D01*
X173997620Y-102348705D01*
X173992024Y-102335196D01*
X173877953Y-102016392D01*
X173873708Y-102002399D01*
X173791431Y-101673935D01*
X173788579Y-101659594D01*
X173738896Y-101324665D01*
X173737463Y-101310114D01*
X173720680Y-100968522D01*
X173720500Y-100961210D01*
X173720500Y-100900969D01*
X175143723Y-100900969D01*
X175173882Y-101200762D01*
X175243731Y-101493861D01*
X175245519Y-101498503D01*
X175245521Y-101498510D01*
X175350234Y-101770390D01*
X175352023Y-101775034D01*
X175496825Y-102039265D01*
X175521684Y-102073004D01*
X175647144Y-102243279D01*
X175675554Y-102281838D01*
X175679010Y-102285412D01*
X175679013Y-102285415D01*
X175687760Y-102294459D01*
X175885020Y-102498424D01*
X175888928Y-102501510D01*
X176099360Y-102667686D01*
X176121485Y-102685158D01*
X176149093Y-102701510D01*
X176312949Y-102798562D01*
X176380730Y-102838709D01*
X176385305Y-102840649D01*
X176385307Y-102840650D01*
X176542400Y-102907263D01*
X176658128Y-102956336D01*
X176948729Y-103035940D01*
X176953665Y-103036604D01*
X176953666Y-103036604D01*
X177242422Y-103075438D01*
X177242427Y-103075438D01*
X177247347Y-103076100D01*
X177473244Y-103076100D01*
X177475732Y-103075933D01*
X177475745Y-103075933D01*
X177574985Y-103069289D01*
X177698634Y-103061012D01*
X177703519Y-103060019D01*
X177703527Y-103060018D01*
X177885695Y-103022990D01*
X177993903Y-103000996D01*
X178278537Y-102902160D01*
X178547459Y-102766268D01*
X178795869Y-102595744D01*
X178802405Y-102589833D01*
X178907426Y-102494846D01*
X179019333Y-102393632D01*
X179213865Y-102163539D01*
X179216544Y-102159342D01*
X179216548Y-102159337D01*
X179347157Y-101954741D01*
X179375993Y-101909570D01*
X179502823Y-101636258D01*
X179592093Y-101348479D01*
X179642209Y-101051370D01*
X179647404Y-100895990D01*
X179652111Y-100755209D01*
X179652111Y-100755203D01*
X179652277Y-100750231D01*
X179622118Y-100450438D01*
X179552269Y-100157339D01*
X179550481Y-100152697D01*
X179550479Y-100152690D01*
X179445766Y-99880810D01*
X179445764Y-99880805D01*
X179443977Y-99876166D01*
X179299175Y-99611935D01*
X179120446Y-99369362D01*
X179104406Y-99352776D01*
X178923810Y-99166042D01*
X178910980Y-99152776D01*
X178736001Y-99014597D01*
X178678422Y-98969127D01*
X178678419Y-98969125D01*
X178674515Y-98966042D01*
X178415270Y-98812491D01*
X178410693Y-98810550D01*
X178142457Y-98696808D01*
X178142454Y-98696807D01*
X178137872Y-98694864D01*
X177847271Y-98615260D01*
X177842334Y-98614596D01*
X177553578Y-98575762D01*
X177553573Y-98575762D01*
X177548653Y-98575100D01*
X177322756Y-98575100D01*
X177320268Y-98575267D01*
X177320255Y-98575267D01*
X177221015Y-98581911D01*
X177097366Y-98590188D01*
X177092481Y-98591181D01*
X177092473Y-98591182D01*
X176967536Y-98616577D01*
X176802097Y-98650204D01*
X176517463Y-98749040D01*
X176248541Y-98884932D01*
X176000131Y-99055456D01*
X175776667Y-99257568D01*
X175582135Y-99487661D01*
X175579456Y-99491858D01*
X175579452Y-99491863D01*
X175505364Y-99607921D01*
X175420007Y-99741630D01*
X175293177Y-100014942D01*
X175203907Y-100302721D01*
X175153791Y-100599830D01*
X175150184Y-100707714D01*
X175147269Y-100794917D01*
X175143723Y-100900969D01*
X173720500Y-100900969D01*
X173720500Y-100715026D01*
X173720680Y-100707714D01*
X173737475Y-100365887D01*
X173738908Y-100351336D01*
X173788591Y-100016409D01*
X173791443Y-100002068D01*
X173873720Y-99673604D01*
X173877965Y-99659611D01*
X173980384Y-99373371D01*
X173992035Y-99340808D01*
X173997631Y-99327300D01*
X174142400Y-99021215D01*
X174149293Y-99008320D01*
X174323364Y-98717901D01*
X174331488Y-98705742D01*
X174533200Y-98433768D01*
X174542475Y-98422466D01*
X174771970Y-98169258D01*
X174777011Y-98163964D01*
X174902341Y-98038628D01*
X174904646Y-98036323D01*
X174906733Y-98033835D01*
X174906740Y-98033828D01*
X175138591Y-97757504D01*
X175140687Y-97755006D01*
X175351312Y-97454188D01*
X175534918Y-97136157D01*
X175690108Y-96803335D01*
X175815700Y-96458253D01*
X175842490Y-96358265D01*
X175881053Y-96291469D01*
X175947847Y-96252904D01*
X176024975Y-96252902D01*
X176091771Y-96291465D01*
X176130337Y-96358261D01*
X176149026Y-96428009D01*
X176238629Y-96620164D01*
X176242360Y-96625492D01*
X176242362Y-96625496D01*
X176313523Y-96727124D01*
X176360239Y-96793841D01*
X176510159Y-96943761D01*
X176515485Y-96947490D01*
X176678504Y-97061638D01*
X176678508Y-97061640D01*
X176683836Y-97065371D01*
X176875991Y-97154974D01*
X176882272Y-97156657D01*
X177074508Y-97208167D01*
X177074513Y-97208168D01*
X177080787Y-97209849D01*
X177087258Y-97210415D01*
X177087263Y-97210416D01*
X177285519Y-97227761D01*
X177292000Y-97228328D01*
X177298481Y-97227761D01*
X177496737Y-97210416D01*
X177496742Y-97210415D01*
X177503213Y-97209849D01*
X177509487Y-97208168D01*
X177509492Y-97208167D01*
X177701728Y-97156657D01*
X177708009Y-97154974D01*
X177900164Y-97065371D01*
X177905492Y-97061640D01*
X177905496Y-97061638D01*
X178068515Y-96947490D01*
X178073841Y-96943761D01*
X178223761Y-96793841D01*
X178270477Y-96727124D01*
X178341638Y-96625496D01*
X178341640Y-96625492D01*
X178345371Y-96620164D01*
X178424650Y-96450151D01*
X178427310Y-96444735D01*
X178428236Y-96442943D01*
X178430674Y-96438224D01*
X178431135Y-96436894D01*
X178431391Y-96436192D01*
X178431426Y-96436105D01*
X178431511Y-96435866D01*
X178432061Y-96434355D01*
X178432023Y-96434337D01*
X178432226Y-96433902D01*
X178432227Y-96433901D01*
X178434974Y-96428009D01*
X178436657Y-96421730D01*
X178437149Y-96420378D01*
X178439295Y-96413390D01*
X178473978Y-96313470D01*
X178474360Y-96312370D01*
X178483663Y-96282642D01*
X178484050Y-96281257D01*
X178491043Y-96252904D01*
X178491194Y-96252292D01*
X178491199Y-96252268D01*
X178491476Y-96251147D01*
X178517159Y-96131305D01*
X178522268Y-96103759D01*
X178522470Y-96102472D01*
X178526072Y-96074421D01*
X178536723Y-95967976D01*
X178538255Y-95949107D01*
X178538310Y-95948225D01*
X178539143Y-95928971D01*
X178539540Y-95912520D01*
X178541475Y-95832450D01*
X178541477Y-95832350D01*
X178541480Y-95832225D01*
X178541610Y-95824173D01*
X178542182Y-95754547D01*
X178562756Y-95680213D01*
X178579611Y-95657008D01*
X178618014Y-95613626D01*
X178625716Y-95604926D01*
X178650291Y-95574920D01*
X178650745Y-95575291D01*
X178660687Y-95563259D01*
X179440937Y-94783009D01*
X179441042Y-94782873D01*
X179441299Y-94782600D01*
X179497515Y-94726388D01*
X179500972Y-94722931D01*
X179654232Y-94523210D01*
X179694769Y-94453004D01*
X179777673Y-94309419D01*
X179777673Y-94309418D01*
X179780113Y-94305193D01*
X179841514Y-94156972D01*
X179874596Y-94077113D01*
X179874598Y-94077108D01*
X179876461Y-94072610D01*
X179877722Y-94067906D01*
X179940366Y-93834149D01*
X179940367Y-93834143D01*
X179941627Y-93829442D01*
X179959860Y-93690991D01*
X179973860Y-93584681D01*
X179973860Y-93584674D01*
X179974496Y-93579848D01*
X179974497Y-93536143D01*
X179974498Y-93536134D01*
X179974500Y-93536126D01*
X179974500Y-93443713D01*
X179974503Y-93380680D01*
X179974500Y-93380667D01*
X179974500Y-91475833D01*
X179974503Y-91475820D01*
X179974500Y-91402653D01*
X179974517Y-91402526D01*
X179974534Y-91402526D01*
X179974529Y-91276649D01*
X179973465Y-91268563D01*
X179947851Y-91074066D01*
X179941660Y-91027051D01*
X179934224Y-90999301D01*
X179887146Y-90823630D01*
X179876493Y-90783878D01*
X179780143Y-90551291D01*
X179686022Y-90388280D01*
X179656697Y-90337490D01*
X179656694Y-90337485D01*
X179654260Y-90333270D01*
X179648602Y-90325896D01*
X179523994Y-90163515D01*
X179500996Y-90133545D01*
X179472340Y-90104891D01*
X179455787Y-90085198D01*
X179450612Y-90077834D01*
X179448319Y-90074475D01*
X179431586Y-90049226D01*
X179429552Y-90046071D01*
X179411780Y-90017729D01*
X179409970Y-90014766D01*
X179400925Y-89999566D01*
X179391292Y-89983377D01*
X179389684Y-89980607D01*
X179370183Y-89946159D01*
X179368733Y-89943536D01*
X179348519Y-89906091D01*
X179347221Y-89903632D01*
X179343209Y-89895857D01*
X179326468Y-89863409D01*
X179325368Y-89861232D01*
X179311914Y-89833999D01*
X179296500Y-89768002D01*
X179296500Y-89470306D01*
X179293598Y-89433431D01*
X179291130Y-89424937D01*
X179250358Y-89284598D01*
X179250357Y-89284595D01*
X179247744Y-89275602D01*
X179225648Y-89238239D01*
X179168854Y-89142205D01*
X179168852Y-89142203D01*
X179164081Y-89134135D01*
X179047865Y-89017919D01*
X179039797Y-89013148D01*
X179039795Y-89013146D01*
X178914462Y-88939025D01*
X178906398Y-88934256D01*
X178897405Y-88931643D01*
X178897402Y-88931642D01*
X178755880Y-88890526D01*
X178755879Y-88890526D01*
X178748569Y-88888402D01*
X178711694Y-88885500D01*
X178280306Y-88885500D01*
X178243431Y-88888402D01*
X178236121Y-88890526D01*
X178236120Y-88890526D01*
X178094598Y-88931642D01*
X178094595Y-88931643D01*
X178085602Y-88934256D01*
X178077538Y-88939025D01*
X177952205Y-89013146D01*
X177952203Y-89013148D01*
X177944135Y-89017919D01*
X177827919Y-89134135D01*
X177823148Y-89142203D01*
X177823146Y-89142205D01*
X177766352Y-89238239D01*
X177744256Y-89275602D01*
X177741643Y-89284595D01*
X177741642Y-89284598D01*
X177700870Y-89424937D01*
X177698402Y-89433431D01*
X177695500Y-89470306D01*
X177695500Y-90004056D01*
X177675538Y-90078556D01*
X177621000Y-90133094D01*
X177546500Y-90153056D01*
X177472000Y-90133094D01*
X177417462Y-90078556D01*
X177398437Y-90020737D01*
X177397437Y-90011861D01*
X177396500Y-89995180D01*
X177396500Y-89470306D01*
X177393598Y-89433431D01*
X177391130Y-89424937D01*
X177350358Y-89284598D01*
X177350357Y-89284595D01*
X177347744Y-89275602D01*
X177325648Y-89238239D01*
X177268854Y-89142205D01*
X177268852Y-89142203D01*
X177264081Y-89134135D01*
X177147865Y-89017919D01*
X177139797Y-89013148D01*
X177139795Y-89013146D01*
X177014462Y-88939025D01*
X177006398Y-88934256D01*
X176997405Y-88931643D01*
X176997402Y-88931642D01*
X176855880Y-88890526D01*
X176855879Y-88890526D01*
X176848569Y-88888402D01*
X176811694Y-88885500D01*
X176380306Y-88885500D01*
X176343431Y-88888402D01*
X176336121Y-88890526D01*
X176336120Y-88890526D01*
X176197070Y-88930924D01*
X176119959Y-88932539D01*
X176052371Y-88895382D01*
X176012416Y-88829410D01*
X176006500Y-88787840D01*
X176006500Y-88657391D01*
X176006501Y-88657386D01*
X176006500Y-88564681D01*
X176006501Y-88564676D01*
X176006500Y-88416087D01*
X176006500Y-88411899D01*
X175972287Y-88108266D01*
X175969762Y-88097201D01*
X175934435Y-87942427D01*
X175904294Y-87810373D01*
X175863021Y-87692421D01*
X175804759Y-87525921D01*
X175804759Y-87525920D01*
X175803375Y-87521966D01*
X175771822Y-87456444D01*
X175710750Y-87329628D01*
X175670800Y-87246671D01*
X175655879Y-87222924D01*
X175510460Y-86991490D01*
X175510457Y-86991486D01*
X175508236Y-86987951D01*
X175501474Y-86979471D01*
X175401004Y-86853485D01*
X175317727Y-86749058D01*
X175283734Y-86715065D01*
X175245170Y-86648270D01*
X175245170Y-86571142D01*
X175283734Y-86504347D01*
X175350529Y-86465783D01*
X175427657Y-86465783D01*
X175435960Y-86468269D01*
X175485953Y-86484835D01*
X175501771Y-86488221D01*
X175593707Y-86497613D01*
X175601292Y-86498000D01*
X175653384Y-86498000D01*
X175668855Y-86493855D01*
X175673000Y-86478384D01*
X176273000Y-86478384D01*
X176277145Y-86493855D01*
X176292616Y-86498000D01*
X176344708Y-86498000D01*
X176352293Y-86497613D01*
X176444229Y-86488221D01*
X176460047Y-86484835D01*
X176612285Y-86434388D01*
X176627911Y-86427102D01*
X176763954Y-86343190D01*
X176777475Y-86332499D01*
X176890499Y-86219475D01*
X176901190Y-86205954D01*
X176985102Y-86069911D01*
X176992388Y-86054285D01*
X177042835Y-85902047D01*
X177046221Y-85886229D01*
X177055613Y-85794293D01*
X177056000Y-85786708D01*
X177056000Y-85409616D01*
X177051855Y-85394145D01*
X177036384Y-85390000D01*
X176292616Y-85390000D01*
X176277145Y-85394145D01*
X176273000Y-85409616D01*
X176273000Y-86478384D01*
X175673000Y-86478384D01*
X175673000Y-85409616D01*
X175668855Y-85394145D01*
X175653384Y-85390000D01*
X174909616Y-85390000D01*
X174894145Y-85394145D01*
X174890000Y-85409616D01*
X174890000Y-85786708D01*
X174890387Y-85794293D01*
X174899779Y-85886229D01*
X174903166Y-85902050D01*
X174919730Y-85952039D01*
X174924215Y-86029036D01*
X174889599Y-86097960D01*
X174825159Y-86140342D01*
X174748162Y-86144827D01*
X174679238Y-86110211D01*
X174672934Y-86104264D01*
X174223198Y-85654528D01*
X174184634Y-85587733D01*
X174180937Y-85569401D01*
X174176883Y-85539821D01*
X174176846Y-85539547D01*
X174171320Y-85498660D01*
X174165903Y-85458588D01*
X174165868Y-85458325D01*
X174154816Y-85375450D01*
X174154781Y-85375191D01*
X174143851Y-85292119D01*
X174143819Y-85291870D01*
X174132753Y-85206657D01*
X174132721Y-85206412D01*
X174121725Y-85120622D01*
X174121695Y-85120385D01*
X174110726Y-85033702D01*
X174110696Y-85033467D01*
X174101341Y-84958588D01*
X174101076Y-84956466D01*
X174100688Y-84954361D01*
X174100357Y-84952216D01*
X174100628Y-84952174D01*
X174098499Y-84928866D01*
X174098499Y-84770384D01*
X174890000Y-84770384D01*
X174894145Y-84785855D01*
X174909616Y-84790000D01*
X175653384Y-84790000D01*
X175668855Y-84785855D01*
X175673000Y-84770384D01*
X176273000Y-84770384D01*
X176277145Y-84785855D01*
X176292616Y-84790000D01*
X177036384Y-84790000D01*
X177051855Y-84785855D01*
X177056000Y-84770384D01*
X177056000Y-84393292D01*
X177055613Y-84385707D01*
X177046221Y-84293771D01*
X177042835Y-84277953D01*
X176992388Y-84125715D01*
X176985102Y-84110089D01*
X176901190Y-83974046D01*
X176890499Y-83960525D01*
X176777475Y-83847501D01*
X176763954Y-83836810D01*
X176627911Y-83752898D01*
X176612285Y-83745612D01*
X176460047Y-83695165D01*
X176444229Y-83691779D01*
X176352293Y-83682387D01*
X176344708Y-83682000D01*
X176292616Y-83682000D01*
X176277145Y-83686145D01*
X176273000Y-83701616D01*
X176273000Y-84770384D01*
X175673000Y-84770384D01*
X175673000Y-83701616D01*
X175668855Y-83686145D01*
X175653384Y-83682000D01*
X175601292Y-83682000D01*
X175593707Y-83682387D01*
X175501771Y-83691779D01*
X175485953Y-83695165D01*
X175333715Y-83745612D01*
X175318089Y-83752898D01*
X175182046Y-83836810D01*
X175168525Y-83847501D01*
X175055501Y-83960525D01*
X175044810Y-83974046D01*
X174960898Y-84110089D01*
X174953612Y-84125715D01*
X174903165Y-84277953D01*
X174899779Y-84293771D01*
X174890387Y-84385707D01*
X174890000Y-84393292D01*
X174890000Y-84770384D01*
X174098499Y-84770384D01*
X174098499Y-84389992D01*
X174098062Y-84385707D01*
X174088826Y-84295297D01*
X174088826Y-84295295D01*
X174087999Y-84287203D01*
X174032814Y-84120666D01*
X173940712Y-83971344D01*
X173816656Y-83847288D01*
X173667334Y-83755186D01*
X173500797Y-83700001D01*
X173492706Y-83699174D01*
X173492704Y-83699174D01*
X173453460Y-83695165D01*
X173398009Y-83689500D01*
X173394209Y-83689500D01*
X173022358Y-83689501D01*
X172647992Y-83689501D01*
X172644237Y-83689885D01*
X172644229Y-83689885D01*
X172553297Y-83699174D01*
X172553295Y-83699174D01*
X172545203Y-83700001D01*
X172378666Y-83755186D01*
X172229344Y-83847288D01*
X172105288Y-83971344D01*
X172100735Y-83978726D01*
X172100730Y-83978732D01*
X172076066Y-84018720D01*
X172019966Y-84071649D01*
X171949249Y-84089500D01*
X167380164Y-84089500D01*
X167305664Y-84069538D01*
X167251126Y-84015000D01*
X167231164Y-83940500D01*
X167251126Y-83866000D01*
X167274805Y-83835141D01*
X168518937Y-82591009D01*
X168519042Y-82590873D01*
X168519299Y-82590600D01*
X168575515Y-82534388D01*
X168578972Y-82530931D01*
X168732232Y-82331210D01*
X168744635Y-82309730D01*
X168855673Y-82117419D01*
X168855673Y-82117418D01*
X168858113Y-82113193D01*
X168870783Y-82082607D01*
X168952596Y-81885113D01*
X168952598Y-81885108D01*
X168954461Y-81880610D01*
X168967356Y-81832493D01*
X169018366Y-81642149D01*
X169018367Y-81642143D01*
X169019627Y-81637442D01*
X169029668Y-81561192D01*
X169051860Y-81392681D01*
X169051860Y-81392674D01*
X169052496Y-81387848D01*
X169052497Y-81344143D01*
X169052498Y-81344134D01*
X169052500Y-81344126D01*
X169052500Y-81254724D01*
X169052503Y-81188680D01*
X169052500Y-81188667D01*
X169052500Y-78831333D01*
X169052503Y-78831320D01*
X169052500Y-78758153D01*
X169052517Y-78758026D01*
X169052534Y-78758026D01*
X169052529Y-78632149D01*
X169019660Y-78382551D01*
X168954493Y-78139378D01*
X168858143Y-77906791D01*
X168779375Y-77770370D01*
X168734697Y-77692990D01*
X168734694Y-77692985D01*
X168732260Y-77688770D01*
X168726461Y-77681213D01*
X168581970Y-77492920D01*
X168581967Y-77492916D01*
X168578996Y-77489045D01*
X168504820Y-77414874D01*
X166411009Y-75321063D01*
X166410873Y-75320958D01*
X166410600Y-75320701D01*
X166354388Y-75264485D01*
X166350931Y-75261028D01*
X166151210Y-75107768D01*
X166146995Y-75105334D01*
X166146990Y-75105331D01*
X165937419Y-74984327D01*
X165937418Y-74984327D01*
X165933193Y-74981887D01*
X165928679Y-74980017D01*
X165705113Y-74887404D01*
X165705108Y-74887402D01*
X165700610Y-74885539D01*
X165695911Y-74884280D01*
X165695906Y-74884278D01*
X165462149Y-74821634D01*
X165462143Y-74821633D01*
X165457442Y-74820373D01*
X165381192Y-74810332D01*
X165212681Y-74788140D01*
X165212674Y-74788140D01*
X165207848Y-74787504D01*
X165164199Y-74787503D01*
X165164143Y-74787503D01*
X165164134Y-74787502D01*
X165164126Y-74787500D01*
X165081974Y-74787500D01*
X165008712Y-74787497D01*
X165008680Y-74787497D01*
X165008669Y-74787499D01*
X165008660Y-74787500D01*
X151221340Y-74787500D01*
X151221331Y-74787499D01*
X151221320Y-74787497D01*
X151221288Y-74787497D01*
X151206569Y-74787498D01*
X151148153Y-74787500D01*
X151148026Y-74787483D01*
X151148026Y-74787466D01*
X151144734Y-74787466D01*
X151022149Y-74787471D01*
X151017323Y-74788107D01*
X151017316Y-74788107D01*
X150847232Y-74810505D01*
X150772551Y-74820340D01*
X150767850Y-74821600D01*
X150767844Y-74821601D01*
X150650964Y-74852924D01*
X150529378Y-74885507D01*
X150296791Y-74981857D01*
X150171378Y-75054269D01*
X150082990Y-75105303D01*
X150082985Y-75105306D01*
X150078770Y-75107740D01*
X150074904Y-75110707D01*
X150074902Y-75110708D01*
X149882920Y-75258030D01*
X149882916Y-75258033D01*
X149879045Y-75261004D01*
X149804874Y-75335180D01*
X141615063Y-83524991D01*
X141614958Y-83525127D01*
X141614701Y-83525400D01*
X141555028Y-83585069D01*
X141401768Y-83784790D01*
X141399334Y-83789005D01*
X141399331Y-83789010D01*
X141328559Y-83911583D01*
X141275887Y-84002807D01*
X141274017Y-84007320D01*
X141274017Y-84007321D01*
X141183831Y-84225030D01*
X141179539Y-84235390D01*
X141178280Y-84240089D01*
X141178278Y-84240094D01*
X141118992Y-84461323D01*
X141114373Y-84478558D01*
X141104332Y-84554808D01*
X141084907Y-84702312D01*
X141081504Y-84728152D01*
X141081504Y-84733030D01*
X141081503Y-84771857D01*
X141081502Y-84771866D01*
X141081500Y-84771874D01*
X141081500Y-84854026D01*
X141081497Y-84927320D01*
X141081499Y-84927331D01*
X141081500Y-84927340D01*
X141081500Y-101216142D01*
X141080226Y-101235583D01*
X141077261Y-101258096D01*
X141067191Y-101295667D01*
X141062271Y-101307542D01*
X141042828Y-101341215D01*
X141028902Y-101359364D01*
X141016051Y-101374018D01*
X140971253Y-101418814D01*
X140971247Y-101418824D01*
X140971232Y-101418841D01*
X140943446Y-101446626D01*
X140823705Y-101602674D01*
X140821268Y-101606895D01*
X140821266Y-101606898D01*
X140790842Y-101659594D01*
X140725356Y-101773018D01*
X140723490Y-101777523D01*
X140723487Y-101777529D01*
X140697287Y-101840783D01*
X140650084Y-101954741D01*
X140648820Y-101959457D01*
X140648819Y-101959461D01*
X140608597Y-102109570D01*
X140599175Y-102144734D01*
X140593024Y-102191454D01*
X140575333Y-102325826D01*
X140573500Y-102339747D01*
X140573500Y-107179633D01*
X140572563Y-107196316D01*
X140559847Y-107309171D01*
X140552423Y-107341698D01*
X140517693Y-107440950D01*
X140503222Y-107471001D01*
X140447275Y-107560039D01*
X140426475Y-107586122D01*
X140352122Y-107660475D01*
X140326039Y-107681275D01*
X140237001Y-107737222D01*
X140206950Y-107751693D01*
X140107699Y-107786423D01*
X140075171Y-107793847D01*
X139962316Y-107806563D01*
X139945633Y-107807500D01*
X137034124Y-107807500D01*
X137029289Y-107808137D01*
X137029282Y-107808137D01*
X136789369Y-107839722D01*
X136789365Y-107839723D01*
X136784525Y-107840360D01*
X136779807Y-107841624D01*
X136779808Y-107841624D01*
X136546070Y-107904253D01*
X136546062Y-107904256D01*
X136541351Y-107905518D01*
X136492425Y-107925784D01*
X136313273Y-107999991D01*
X136313267Y-107999994D01*
X136308762Y-108001860D01*
X136304534Y-108004301D01*
X136143727Y-108097143D01*
X136090738Y-108127736D01*
X135952288Y-108233972D01*
X135918621Y-108259806D01*
X135891009Y-108280993D01*
X135712993Y-108459009D01*
X135559736Y-108658738D01*
X135557301Y-108662955D01*
X135557300Y-108662957D01*
X135489811Y-108779852D01*
X135433860Y-108876762D01*
X135431994Y-108881267D01*
X135431991Y-108881273D01*
X135386864Y-108990220D01*
X135337518Y-109109351D01*
X135336256Y-109114062D01*
X135336253Y-109114070D01*
X135273955Y-109346571D01*
X135272360Y-109352525D01*
X135272191Y-109352480D01*
X135238927Y-109419946D01*
X135187079Y-109458016D01*
X135103631Y-109494861D01*
X135103626Y-109494864D01*
X135097327Y-109497645D01*
X135091648Y-109501535D01*
X135091643Y-109501538D01*
X134950476Y-109598240D01*
X134918861Y-109619897D01*
X134765897Y-109772861D01*
X134762004Y-109778544D01*
X134647538Y-109945643D01*
X134647535Y-109945648D01*
X134643645Y-109951327D01*
X134556268Y-110149219D01*
X134506740Y-110359796D01*
X134500500Y-110449698D01*
X134500500Y-110595000D01*
X134480538Y-110669500D01*
X134426000Y-110724038D01*
X134351500Y-110744000D01*
X134057500Y-110744000D01*
X133983000Y-110724038D01*
X133928462Y-110669500D01*
X133908500Y-110595000D01*
X133908500Y-101100969D01*
X135343723Y-101100969D01*
X135373882Y-101400762D01*
X135443731Y-101693861D01*
X135445519Y-101698503D01*
X135445521Y-101698510D01*
X135544207Y-101954741D01*
X135552023Y-101975034D01*
X135696825Y-102239265D01*
X135875554Y-102481838D01*
X135879010Y-102485412D01*
X135879013Y-102485415D01*
X135947312Y-102556035D01*
X136085020Y-102698424D01*
X136088928Y-102701510D01*
X136265124Y-102840650D01*
X136321485Y-102885158D01*
X136580730Y-103038709D01*
X136585305Y-103040649D01*
X136585307Y-103040650D01*
X136833878Y-103146053D01*
X136858128Y-103156336D01*
X136862931Y-103157652D01*
X136862932Y-103157652D01*
X136883065Y-103163167D01*
X137148729Y-103235940D01*
X137153665Y-103236604D01*
X137153666Y-103236604D01*
X137442422Y-103275438D01*
X137442427Y-103275438D01*
X137447347Y-103276100D01*
X137673244Y-103276100D01*
X137675732Y-103275933D01*
X137675745Y-103275933D01*
X137774985Y-103269289D01*
X137898634Y-103261012D01*
X137903519Y-103260019D01*
X137903527Y-103260018D01*
X138085695Y-103222990D01*
X138193903Y-103200996D01*
X138478537Y-103102160D01*
X138747459Y-102966268D01*
X138995869Y-102795744D01*
X139219333Y-102593632D01*
X139253811Y-102552852D01*
X139410647Y-102367345D01*
X139413865Y-102363539D01*
X139416544Y-102359342D01*
X139416548Y-102359337D01*
X139573314Y-102113766D01*
X139575993Y-102109570D01*
X139702823Y-101836258D01*
X139792093Y-101548479D01*
X139842209Y-101251370D01*
X139848683Y-101057742D01*
X139852111Y-100955209D01*
X139852111Y-100955203D01*
X139852277Y-100950231D01*
X139822118Y-100650438D01*
X139752269Y-100357339D01*
X139750481Y-100352697D01*
X139750479Y-100352690D01*
X139645766Y-100080810D01*
X139645764Y-100080805D01*
X139643977Y-100076166D01*
X139499175Y-99811935D01*
X139351814Y-99611935D01*
X139323400Y-99573371D01*
X139323399Y-99573370D01*
X139320446Y-99569362D01*
X139110980Y-99352776D01*
X138904861Y-99190006D01*
X138878422Y-99169127D01*
X138878419Y-99169125D01*
X138874515Y-99166042D01*
X138687809Y-99055456D01*
X138619547Y-99015024D01*
X138619544Y-99015022D01*
X138615270Y-99012491D01*
X138605434Y-99008320D01*
X138342457Y-98896808D01*
X138342454Y-98896807D01*
X138337872Y-98894864D01*
X138047271Y-98815260D01*
X138012249Y-98810550D01*
X137753578Y-98775762D01*
X137753573Y-98775762D01*
X137748653Y-98775100D01*
X137522756Y-98775100D01*
X137520268Y-98775267D01*
X137520255Y-98775267D01*
X137421015Y-98781911D01*
X137297366Y-98790188D01*
X137292481Y-98791181D01*
X137292473Y-98791182D01*
X137167536Y-98816577D01*
X137002097Y-98850204D01*
X136717463Y-98949040D01*
X136448541Y-99084932D01*
X136200131Y-99255456D01*
X136196437Y-99258797D01*
X136173769Y-99279299D01*
X135976667Y-99457568D01*
X135782135Y-99687661D01*
X135779456Y-99691858D01*
X135779452Y-99691863D01*
X135705364Y-99807921D01*
X135620007Y-99941630D01*
X135493177Y-100214942D01*
X135403907Y-100502721D01*
X135353791Y-100799830D01*
X135353625Y-100804805D01*
X135345548Y-101046395D01*
X135343723Y-101100969D01*
X133908500Y-101100969D01*
X133908500Y-72885100D01*
X133928462Y-72810600D01*
X133983000Y-72756062D01*
X134057500Y-72736100D01*
X180938500Y-72736100D01*
X181013000Y-72756062D01*
G37*
%TD.AperFunction*%
%TA.AperFunction,Conductor*%
G36*
X148645388Y-81950462D02*
G01*
X148699926Y-82005000D01*
X148719888Y-82079500D01*
X148710901Y-82130463D01*
X148708268Y-82137696D01*
X148656418Y-82331201D01*
X148654169Y-82343955D01*
X148636710Y-82543519D01*
X148636710Y-82556481D01*
X148654169Y-82756045D01*
X148656418Y-82768799D01*
X148708268Y-82962303D01*
X148712699Y-82974477D01*
X148798272Y-83157989D01*
X148811665Y-83233945D01*
X148785286Y-83306422D01*
X148726202Y-83355999D01*
X148706488Y-83363542D01*
X148695936Y-83366743D01*
X148692563Y-83368140D01*
X148692555Y-83368143D01*
X148531400Y-83434896D01*
X148383570Y-83496129D01*
X148328808Y-83525400D01*
X148088611Y-83653787D01*
X148088606Y-83653790D01*
X148085390Y-83655509D01*
X148082360Y-83657534D01*
X148082356Y-83657536D01*
X147864956Y-83802798D01*
X147804269Y-83843348D01*
X147801453Y-83845659D01*
X147801449Y-83845662D01*
X147604467Y-84007321D01*
X147542912Y-84057838D01*
X147303838Y-84296912D01*
X147089348Y-84558269D01*
X147087319Y-84561306D01*
X147087318Y-84561307D01*
X146914895Y-84819357D01*
X146901509Y-84839390D01*
X146899790Y-84842606D01*
X146899787Y-84842611D01*
X146854503Y-84927333D01*
X146742129Y-85137570D01*
X146735417Y-85153774D01*
X146620158Y-85432035D01*
X146612743Y-85449936D01*
X146514598Y-85773480D01*
X146513887Y-85777052D01*
X146513885Y-85777062D01*
X146449436Y-86101074D01*
X146448638Y-86105086D01*
X146448279Y-86108728D01*
X146448279Y-86108730D01*
X146416426Y-86432151D01*
X146415499Y-86441560D01*
X146415499Y-86445221D01*
X146415500Y-86487026D01*
X146415500Y-103286667D01*
X146415497Y-103286680D01*
X146415497Y-103286712D01*
X146415500Y-103359847D01*
X146415483Y-103359974D01*
X146415466Y-103359974D01*
X146415471Y-103485851D01*
X146416107Y-103490677D01*
X146416107Y-103490684D01*
X146432343Y-103613974D01*
X146448340Y-103735449D01*
X146449600Y-103740150D01*
X146449601Y-103740156D01*
X146474952Y-103834751D01*
X146513507Y-103978621D01*
X146609856Y-104211208D01*
X146735740Y-104429229D01*
X146738707Y-104433095D01*
X146738708Y-104433097D01*
X146835950Y-104559817D01*
X146889003Y-104628953D01*
X146960212Y-104700158D01*
X147706232Y-105446178D01*
X147706237Y-105446186D01*
X147706254Y-105446203D01*
X147752883Y-105492829D01*
X147762700Y-105503660D01*
X147811989Y-105563714D01*
X147825803Y-105580546D01*
X147842029Y-105604829D01*
X147885452Y-105686059D01*
X147896628Y-105713040D01*
X147923365Y-105801172D01*
X147929064Y-105829817D01*
X147938782Y-105928444D01*
X147939500Y-105943055D01*
X147939500Y-109323278D01*
X147919538Y-109397778D01*
X147903513Y-109420381D01*
X147902996Y-109420983D01*
X147898520Y-109425961D01*
X147886864Y-109438353D01*
X147875780Y-109450136D01*
X147827434Y-109484352D01*
X147797327Y-109497645D01*
X147791648Y-109501535D01*
X147791643Y-109501538D01*
X147650476Y-109598240D01*
X147618861Y-109619897D01*
X147582181Y-109656577D01*
X147575952Y-109662457D01*
X147548343Y-109687053D01*
X147542528Y-109694557D01*
X147530118Y-109708640D01*
X147465897Y-109772861D01*
X147462006Y-109778541D01*
X147462002Y-109778546D01*
X147447469Y-109799762D01*
X147388898Y-109849942D01*
X147313083Y-109864114D01*
X147240339Y-109838480D01*
X147201620Y-109799761D01*
X147183790Y-109773732D01*
X147175026Y-109763178D01*
X147030822Y-109618974D01*
X147020268Y-109610210D01*
X146852022Y-109494958D01*
X146840033Y-109488281D01*
X146653478Y-109405909D01*
X146640467Y-109401548D01*
X146441110Y-109354660D01*
X146429235Y-109352864D01*
X146369570Y-109348722D01*
X146353849Y-109351786D01*
X146350000Y-109362983D01*
X146350000Y-110744000D01*
X145750000Y-110744000D01*
X145750000Y-109366980D01*
X145745855Y-109351509D01*
X145734420Y-109348445D01*
X145670765Y-109352864D01*
X145658890Y-109354660D01*
X145459533Y-109401548D01*
X145446522Y-109405909D01*
X145259967Y-109488281D01*
X145247978Y-109494958D01*
X145079732Y-109610210D01*
X145069178Y-109618974D01*
X144924974Y-109763178D01*
X144916210Y-109773732D01*
X144898380Y-109799761D01*
X144839809Y-109849942D01*
X144763994Y-109864115D01*
X144691250Y-109838481D01*
X144652531Y-109799762D01*
X144637998Y-109778546D01*
X144637994Y-109778541D01*
X144634103Y-109772861D01*
X144481139Y-109619897D01*
X144449524Y-109598240D01*
X144399342Y-109539670D01*
X144385169Y-109463855D01*
X144410803Y-109391111D01*
X144469373Y-109340929D01*
X144502748Y-109329571D01*
X144521006Y-109325690D01*
X144551803Y-109319144D01*
X144724730Y-109242151D01*
X144877871Y-109130888D01*
X144933597Y-109068998D01*
X144999307Y-108996021D01*
X144999311Y-108996016D01*
X145004533Y-108990216D01*
X145010249Y-108980317D01*
X145067431Y-108881273D01*
X145099179Y-108826284D01*
X145141380Y-108696404D01*
X145155259Y-108653689D01*
X145155259Y-108653688D01*
X145157674Y-108646256D01*
X145158857Y-108635007D01*
X145176644Y-108465764D01*
X145177460Y-108458000D01*
X145170033Y-108387332D01*
X145158491Y-108277514D01*
X145158490Y-108277511D01*
X145157674Y-108269744D01*
X145144033Y-108227760D01*
X145112882Y-108131890D01*
X145099179Y-108089716D01*
X145039399Y-107986174D01*
X145008438Y-107932547D01*
X145008436Y-107932544D01*
X145004533Y-107925784D01*
X144999311Y-107919984D01*
X144999307Y-107919979D01*
X144927042Y-107839722D01*
X144877871Y-107785112D01*
X144724730Y-107673849D01*
X144636415Y-107634529D01*
X144624168Y-107628384D01*
X144595943Y-107612552D01*
X144590971Y-107610633D01*
X144590967Y-107610631D01*
X144520576Y-107583461D01*
X144520558Y-107583454D01*
X144520042Y-107583255D01*
X144509104Y-107579177D01*
X144508598Y-107578995D01*
X144496984Y-107574977D01*
X144423005Y-107550382D01*
X144422218Y-107550129D01*
X144413419Y-107547305D01*
X144413342Y-107547281D01*
X144412997Y-107547170D01*
X144412619Y-107547053D01*
X144412481Y-107547012D01*
X144412375Y-107546979D01*
X144405767Y-107544987D01*
X144405761Y-107544985D01*
X144405558Y-107544924D01*
X144405460Y-107544895D01*
X144405389Y-107544874D01*
X144341816Y-107526209D01*
X144341670Y-107526166D01*
X144336926Y-107524798D01*
X144336641Y-107524717D01*
X144336521Y-107524683D01*
X144289410Y-107511349D01*
X144285269Y-107510112D01*
X144283577Y-107509580D01*
X144276164Y-107507247D01*
X144226696Y-107480570D01*
X144217713Y-107473242D01*
X144209565Y-107466085D01*
X144169121Y-107427866D01*
X144167844Y-107426659D01*
X144166516Y-107425516D01*
X144137572Y-107400605D01*
X144137569Y-107400603D01*
X144132224Y-107396003D01*
X144131878Y-107395805D01*
X144118294Y-107384347D01*
X144093116Y-107359170D01*
X144083297Y-107348337D01*
X144064843Y-107325852D01*
X144020196Y-107271452D01*
X144003969Y-107247168D01*
X143960550Y-107165942D01*
X143949372Y-107138959D01*
X143933066Y-107085213D01*
X143922634Y-107050829D01*
X143916935Y-107022183D01*
X143913079Y-106983040D01*
X143907218Y-106923556D01*
X143906500Y-106908948D01*
X143906500Y-85877399D01*
X143907218Y-85862789D01*
X143916969Y-85763823D01*
X143922667Y-85735183D01*
X143949408Y-85647042D01*
X143960578Y-85620076D01*
X144003998Y-85538849D01*
X144020224Y-85514567D01*
X144083541Y-85437420D01*
X144093360Y-85426587D01*
X144139746Y-85380203D01*
X144139763Y-85380186D01*
X144139768Y-85380178D01*
X147356181Y-82163765D01*
X147356186Y-82163762D01*
X147365948Y-82154000D01*
X147402832Y-82117115D01*
X147413663Y-82107298D01*
X147490545Y-82044198D01*
X147514832Y-82027969D01*
X147596058Y-81984550D01*
X147623041Y-81973372D01*
X147640903Y-81967953D01*
X147711171Y-81946634D01*
X147739816Y-81940935D01*
X147838444Y-81931218D01*
X147853052Y-81930500D01*
X148570888Y-81930500D01*
X148645388Y-81950462D01*
G37*
%TD.AperFunction*%
%TA.AperFunction,Conductor*%
G36*
X178599000Y-92043462D02*
G01*
X178653538Y-92098000D01*
X178673500Y-92172500D01*
X178673500Y-93446601D01*
X178672782Y-93461211D01*
X178663031Y-93560175D01*
X178657332Y-93588821D01*
X178630597Y-93676946D01*
X178619419Y-93703931D01*
X178615381Y-93711486D01*
X178576003Y-93785150D01*
X178559776Y-93809433D01*
X178511857Y-93867820D01*
X178496460Y-93886580D01*
X178486643Y-93897411D01*
X178440238Y-93943814D01*
X178440235Y-93943819D01*
X177729404Y-94654650D01*
X177705921Y-94673779D01*
X177703524Y-94675355D01*
X177703517Y-94675360D01*
X177699078Y-94678280D01*
X177646990Y-94724390D01*
X177577978Y-94758821D01*
X177549452Y-94761816D01*
X177479999Y-94762385D01*
X177471932Y-94762515D01*
X177471827Y-94762518D01*
X177471749Y-94762519D01*
X177423159Y-94763693D01*
X177375017Y-94764856D01*
X177363340Y-94765357D01*
X177356848Y-94765635D01*
X177356826Y-94765636D01*
X177356130Y-94765666D01*
X177355270Y-94765719D01*
X177354584Y-94765774D01*
X177354548Y-94765777D01*
X177346399Y-94766436D01*
X177336033Y-94767274D01*
X177335395Y-94767338D01*
X177335371Y-94767340D01*
X177252796Y-94775603D01*
X177229571Y-94777927D01*
X177212676Y-94780096D01*
X177202647Y-94781383D01*
X177202631Y-94781385D01*
X177201566Y-94781522D01*
X177200291Y-94781722D01*
X177172697Y-94786839D01*
X177171718Y-94787049D01*
X177171707Y-94787051D01*
X177075918Y-94807580D01*
X177052849Y-94812524D01*
X177022742Y-94819949D01*
X177021357Y-94820336D01*
X176991625Y-94829640D01*
X176977273Y-94834622D01*
X176890591Y-94864711D01*
X176883625Y-94866851D01*
X176882279Y-94867341D01*
X176875991Y-94869026D01*
X176870095Y-94871776D01*
X176868129Y-94872491D01*
X176867882Y-94872579D01*
X176867669Y-94872659D01*
X176867114Y-94872861D01*
X176865772Y-94873327D01*
X176863461Y-94874310D01*
X176863452Y-94874313D01*
X176825240Y-94890559D01*
X176802665Y-94900157D01*
X176796239Y-94904674D01*
X176789374Y-94908490D01*
X176789217Y-94908207D01*
X176777791Y-94914817D01*
X176735491Y-94934542D01*
X176683836Y-94958629D01*
X176678508Y-94962360D01*
X176678504Y-94962362D01*
X176576876Y-95033523D01*
X176510159Y-95080239D01*
X176360239Y-95230159D01*
X176293305Y-95325751D01*
X176277555Y-95348244D01*
X176218471Y-95397821D01*
X176142515Y-95411214D01*
X176070038Y-95384835D01*
X176020461Y-95325751D01*
X176006501Y-95262783D01*
X176006501Y-95225561D01*
X176006500Y-95192450D01*
X176006500Y-93584160D01*
X176026462Y-93509660D01*
X176081000Y-93455122D01*
X176155500Y-93435160D01*
X176197070Y-93441076D01*
X176319406Y-93476618D01*
X176343431Y-93483598D01*
X176380306Y-93486500D01*
X176811694Y-93486500D01*
X176848569Y-93483598D01*
X176872594Y-93476618D01*
X176997398Y-93440359D01*
X176997400Y-93440358D01*
X177006398Y-93437744D01*
X177012769Y-93433977D01*
X177088125Y-93422848D01*
X177128880Y-93433769D01*
X177135602Y-93437744D01*
X177144600Y-93440358D01*
X177144602Y-93440359D01*
X177269406Y-93476618D01*
X177293431Y-93483598D01*
X177330306Y-93486500D01*
X177761694Y-93486500D01*
X177798569Y-93483598D01*
X177822594Y-93476618D01*
X177947395Y-93440360D01*
X177947398Y-93440359D01*
X177956398Y-93437744D01*
X177956655Y-93437592D01*
X178028608Y-93426967D01*
X178070655Y-93438234D01*
X178091596Y-93447296D01*
X178177165Y-93472156D01*
X178193176Y-93472491D01*
X178195860Y-93468059D01*
X178196000Y-93467077D01*
X178196000Y-93309201D01*
X178216749Y-93233354D01*
X178292975Y-93104462D01*
X178297744Y-93096398D01*
X178343598Y-92938569D01*
X178346500Y-92901694D01*
X178346500Y-92172500D01*
X178366462Y-92098000D01*
X178421000Y-92043462D01*
X178495500Y-92023500D01*
X178524500Y-92023500D01*
X178599000Y-92043462D01*
G37*
%TD.AperFunction*%
%TA.AperFunction,Conductor*%
G36*
X171204316Y-88281437D02*
G01*
X171317171Y-88294153D01*
X171349698Y-88301577D01*
X171448950Y-88336307D01*
X171479001Y-88350778D01*
X171568039Y-88406725D01*
X171594122Y-88427525D01*
X171668475Y-88501878D01*
X171689275Y-88527961D01*
X171745222Y-88616999D01*
X171759693Y-88647050D01*
X171789932Y-88733466D01*
X171794423Y-88746301D01*
X171801847Y-88778829D01*
X171814563Y-88891684D01*
X171815500Y-88908367D01*
X171815500Y-88977018D01*
X171809449Y-89019047D01*
X171804546Y-89035723D01*
X171803966Y-89037649D01*
X171792852Y-89073647D01*
X171792198Y-89075711D01*
X171781441Y-89108805D01*
X171780741Y-89110902D01*
X171770473Y-89140824D01*
X171769601Y-89143290D01*
X171759985Y-89169749D01*
X171758942Y-89172533D01*
X171750055Y-89195545D01*
X171748827Y-89198624D01*
X171740863Y-89217955D01*
X171739402Y-89221378D01*
X171734405Y-89232697D01*
X171732582Y-89236825D01*
X171730842Y-89240620D01*
X171723386Y-89256297D01*
X171716888Y-89271152D01*
X171714256Y-89275602D01*
X171712901Y-89280265D01*
X171710585Y-89285560D01*
X171710035Y-89286934D01*
X171709109Y-89289976D01*
X171688399Y-89358010D01*
X171684966Y-89369286D01*
X171684515Y-89375966D01*
X171681977Y-89386702D01*
X171670527Y-89426113D01*
X171670526Y-89426120D01*
X171668402Y-89433431D01*
X171665500Y-89470306D01*
X171665500Y-90199500D01*
X171645538Y-90274000D01*
X171591000Y-90328538D01*
X171516500Y-90348500D01*
X170727617Y-90348500D01*
X170712146Y-90352645D01*
X170708001Y-90368116D01*
X170708001Y-90386500D01*
X170688039Y-90461000D01*
X170633501Y-90515538D01*
X170559001Y-90535500D01*
X165713527Y-90535500D01*
X165639027Y-90515538D01*
X165584489Y-90461000D01*
X165564527Y-90386500D01*
X165584489Y-90312000D01*
X165625947Y-90265956D01*
X165699551Y-90212480D01*
X165699553Y-90212479D01*
X165705871Y-90207888D01*
X165775914Y-90130098D01*
X165827307Y-90073021D01*
X165827311Y-90073016D01*
X165832533Y-90067216D01*
X165843819Y-90047669D01*
X165903162Y-89944883D01*
X165927179Y-89903284D01*
X165977472Y-89748500D01*
X165983259Y-89730689D01*
X165983261Y-89730681D01*
X165983845Y-89728884D01*
X170708000Y-89728884D01*
X170712145Y-89744355D01*
X170727616Y-89748500D01*
X171196384Y-89748500D01*
X171211855Y-89744355D01*
X171216000Y-89728884D01*
X171216000Y-88913988D01*
X171211855Y-88898517D01*
X171206849Y-88897176D01*
X171205869Y-88897315D01*
X171111596Y-88924704D01*
X171094536Y-88932087D01*
X170967572Y-89007172D01*
X170952872Y-89018575D01*
X170848575Y-89122872D01*
X170837172Y-89137572D01*
X170762087Y-89264536D01*
X170754704Y-89281597D01*
X170713059Y-89424937D01*
X170710338Y-89439838D01*
X170708229Y-89466638D01*
X170708000Y-89472460D01*
X170708000Y-89728884D01*
X165983845Y-89728884D01*
X165985674Y-89723256D01*
X166001029Y-89577164D01*
X166004644Y-89542764D01*
X166005460Y-89535000D01*
X166004886Y-89529536D01*
X166004943Y-89527967D01*
X166005516Y-89524017D01*
X166005521Y-89520000D01*
X166030730Y-89447489D01*
X166089090Y-89397061D01*
X166096984Y-89393519D01*
X166121022Y-89383561D01*
X166187209Y-89356143D01*
X166301806Y-89289976D01*
X166401010Y-89232697D01*
X166401015Y-89232694D01*
X166405230Y-89230260D01*
X166488568Y-89166309D01*
X166601086Y-89079965D01*
X166604955Y-89076996D01*
X166614076Y-89067875D01*
X166686112Y-88995834D01*
X167168179Y-88513767D01*
X167168182Y-88513765D01*
X167168186Y-88513762D01*
X167205685Y-88476262D01*
X167214832Y-88467115D01*
X167225663Y-88457298D01*
X167302545Y-88394198D01*
X167326832Y-88377969D01*
X167408058Y-88334550D01*
X167435041Y-88323372D01*
X167452903Y-88317953D01*
X167523171Y-88296634D01*
X167551816Y-88290935D01*
X167650444Y-88281218D01*
X167665052Y-88280500D01*
X171187633Y-88280500D01*
X171204316Y-88281437D01*
G37*
%TD.AperFunction*%
%TD*%
%TA.AperFunction,Conductor*%
%TO.N,/V-A15*%
G36*
X165500557Y-88921478D02*
G01*
X165503984Y-88929767D01*
X165503888Y-89001922D01*
X165503888Y-89001958D01*
X165503584Y-89071017D01*
X165503584Y-89071055D01*
X165503136Y-89129048D01*
X165503121Y-89129048D01*
X165503136Y-89129084D01*
X165502592Y-89179615D01*
X165502592Y-89179637D01*
X165502000Y-89226525D01*
X165501408Y-89273412D01*
X165500864Y-89324001D01*
X165500416Y-89381994D01*
X165500112Y-89451093D01*
X165500016Y-89523345D01*
X165496578Y-89531613D01*
X165488345Y-89535029D01*
X165327347Y-89535432D01*
X165104876Y-89535988D01*
X165096559Y-89532547D01*
X165095628Y-89531613D01*
X164826112Y-89261143D01*
X164822700Y-89252864D01*
X164826141Y-89244597D01*
X164826838Y-89243957D01*
X164871195Y-89206387D01*
X164872696Y-89205307D01*
X164926160Y-89172927D01*
X164927449Y-89172252D01*
X164980026Y-89148768D01*
X164980805Y-89148453D01*
X165031367Y-89130096D01*
X165031395Y-89130086D01*
X165078122Y-89113256D01*
X165078121Y-89113256D01*
X165078347Y-89113175D01*
X165119878Y-89094017D01*
X165120339Y-89093682D01*
X165120342Y-89093680D01*
X165135821Y-89082424D01*
X165154597Y-89068770D01*
X165181117Y-89033589D01*
X165198047Y-88984631D01*
X165203047Y-88928709D01*
X165207197Y-88920774D01*
X165214701Y-88918051D01*
X165492284Y-88918051D01*
X165500557Y-88921478D01*
G37*
%TD.AperFunction*%
%TD*%
%TA.AperFunction,Conductor*%
%TO.N,/V-A15*%
G36*
X164993621Y-89030427D02*
G01*
X164996997Y-89037605D01*
X164999556Y-89064843D01*
X165009787Y-89092095D01*
X165026035Y-89110727D01*
X165038659Y-89117728D01*
X165047041Y-89122377D01*
X165047044Y-89122378D01*
X165047644Y-89122711D01*
X165048307Y-89122895D01*
X165048309Y-89122896D01*
X165072676Y-89129664D01*
X165073956Y-89130019D01*
X165104315Y-89134624D01*
X165118064Y-89136202D01*
X165137919Y-89138481D01*
X165138209Y-89138518D01*
X165158496Y-89141361D01*
X165174136Y-89143553D01*
X165174959Y-89143700D01*
X165194955Y-89148018D01*
X165212449Y-89151797D01*
X165213725Y-89152149D01*
X165226475Y-89156458D01*
X165241235Y-89161447D01*
X165247974Y-89167341D01*
X165248302Y-89176997D01*
X165102996Y-89528747D01*
X165096670Y-89535085D01*
X165092153Y-89535980D01*
X164711652Y-89535029D01*
X164703387Y-89531581D01*
X164699981Y-89523348D01*
X164699888Y-89465910D01*
X164699888Y-89465847D01*
X164699584Y-89409013D01*
X164699136Y-89361261D01*
X164699135Y-89361151D01*
X164698592Y-89319606D01*
X164697408Y-89242392D01*
X164697408Y-89242366D01*
X164696864Y-89200737D01*
X164696864Y-89200694D01*
X164696641Y-89176997D01*
X164696416Y-89153031D01*
X164696435Y-89152985D01*
X164696416Y-89152985D01*
X164696112Y-89096089D01*
X164696019Y-89038719D01*
X164699432Y-89030440D01*
X164707719Y-89027000D01*
X164985348Y-89027000D01*
X164993621Y-89030427D01*
G37*
%TD.AperFunction*%
%TD*%
%TA.AperFunction,Conductor*%
%TO.N,/V-A15*%
G36*
X165247119Y-88903427D02*
G01*
X165250533Y-88911140D01*
X165253411Y-88971232D01*
X165263105Y-89028314D01*
X165263241Y-89028729D01*
X165278128Y-89074197D01*
X165278131Y-89074203D01*
X165278271Y-89074632D01*
X165298098Y-89113572D01*
X165321776Y-89148521D01*
X165321892Y-89148670D01*
X165348494Y-89182865D01*
X165377260Y-89219760D01*
X165377612Y-89220236D01*
X165407533Y-89262896D01*
X165408048Y-89263698D01*
X165438506Y-89315667D01*
X165439010Y-89316626D01*
X165464380Y-89370869D01*
X165464781Y-89379815D01*
X165458284Y-89386625D01*
X165104502Y-89534123D01*
X165095498Y-89534123D01*
X164741716Y-89386625D01*
X164735398Y-89380278D01*
X164735620Y-89370869D01*
X164760989Y-89316626D01*
X164761493Y-89315667D01*
X164791951Y-89263698D01*
X164792466Y-89262896D01*
X164822386Y-89220236D01*
X164822738Y-89219760D01*
X164851504Y-89182865D01*
X164878106Y-89148670D01*
X164878222Y-89148521D01*
X164901900Y-89113572D01*
X164921728Y-89074632D01*
X164921868Y-89074203D01*
X164921871Y-89074197D01*
X164936758Y-89028729D01*
X164936894Y-89028314D01*
X164946588Y-88971232D01*
X164949466Y-88911139D01*
X164953285Y-88903041D01*
X164961153Y-88900000D01*
X165238846Y-88900000D01*
X165247119Y-88903427D01*
G37*
%TD.AperFunction*%
%TD*%
%TA.AperFunction,Conductor*%
%TO.N,+5V*%
G36*
X165266221Y-84384696D02*
G01*
X165267172Y-84384769D01*
X165402497Y-84400704D01*
X165403516Y-84400870D01*
X165452570Y-84411091D01*
X165516082Y-84424325D01*
X165516970Y-84424547D01*
X165614604Y-84453066D01*
X165615121Y-84453231D01*
X165705599Y-84484400D01*
X165796335Y-84515657D01*
X165894666Y-84544380D01*
X165894876Y-84544424D01*
X165894885Y-84544426D01*
X165988962Y-84564028D01*
X166008190Y-84568035D01*
X166144502Y-84584086D01*
X166223486Y-84586888D01*
X166299915Y-84589600D01*
X166308061Y-84593318D01*
X166311200Y-84601293D01*
X166311200Y-85578707D01*
X166307773Y-85586980D01*
X166299915Y-85590400D01*
X166231338Y-85592833D01*
X166144502Y-85595913D01*
X166008190Y-85611964D01*
X166007934Y-85612017D01*
X166007936Y-85612017D01*
X165894885Y-85635573D01*
X165894876Y-85635575D01*
X165894666Y-85635619D01*
X165796335Y-85664342D01*
X165705599Y-85695600D01*
X165615121Y-85726768D01*
X165614604Y-85726933D01*
X165516970Y-85755452D01*
X165516082Y-85755674D01*
X165452570Y-85768908D01*
X165403516Y-85779129D01*
X165402497Y-85779295D01*
X165267172Y-85795230D01*
X165266221Y-85795303D01*
X165112097Y-85800771D01*
X165103708Y-85797639D01*
X165099983Y-85789094D01*
X165099000Y-85090032D01*
X165099000Y-85090000D01*
X165099983Y-84390906D01*
X165103421Y-84382637D01*
X165112098Y-84379229D01*
X165266221Y-84384696D01*
G37*
%TD.AperFunction*%
%TD*%
%TA.AperFunction,Conductor*%
%TO.N,+5V*%
G36*
X172453550Y-84520540D02*
G01*
X172533938Y-84600788D01*
X173015706Y-85081720D01*
X173019140Y-85089990D01*
X173015706Y-85098279D01*
X172517133Y-85595987D01*
X172453551Y-85659459D01*
X172445275Y-85662879D01*
X172440768Y-85661971D01*
X172418000Y-85652437D01*
X172417924Y-85652408D01*
X172417909Y-85652402D01*
X172402866Y-85646668D01*
X172388000Y-85641000D01*
X172358000Y-85630687D01*
X172357889Y-85630653D01*
X172328086Y-85621526D01*
X172328071Y-85621522D01*
X172328000Y-85621500D01*
X172298000Y-85613437D01*
X172297919Y-85613418D01*
X172297910Y-85613416D01*
X172268109Y-85606525D01*
X172268099Y-85606523D01*
X172268000Y-85606500D01*
X172267893Y-85606479D01*
X172267887Y-85606478D01*
X172238140Y-85600714D01*
X172238133Y-85600713D01*
X172238000Y-85600687D01*
X172216825Y-85597379D01*
X172208097Y-85596015D01*
X172208090Y-85596014D01*
X172208000Y-85596000D01*
X172178000Y-85592437D01*
X172177908Y-85592430D01*
X172177903Y-85592429D01*
X172174175Y-85592126D01*
X172158752Y-85590873D01*
X172150784Y-85586788D01*
X172148000Y-85579212D01*
X172148000Y-84600788D01*
X172151427Y-84592515D01*
X172158751Y-84589126D01*
X172167761Y-84588394D01*
X172177880Y-84587572D01*
X172177891Y-84587571D01*
X172178000Y-84587562D01*
X172208000Y-84584000D01*
X172208128Y-84583980D01*
X172237880Y-84579331D01*
X172237891Y-84579329D01*
X172238000Y-84579312D01*
X172253690Y-84576272D01*
X172267893Y-84573521D01*
X172267906Y-84573518D01*
X172268000Y-84573500D01*
X172285414Y-84569473D01*
X172297867Y-84566593D01*
X172297879Y-84566590D01*
X172298000Y-84566562D01*
X172311737Y-84562870D01*
X172327923Y-84558521D01*
X172327938Y-84558517D01*
X172328000Y-84558500D01*
X172330195Y-84557828D01*
X172357887Y-84549347D01*
X172357909Y-84549340D01*
X172358000Y-84549312D01*
X172358080Y-84549285D01*
X172358097Y-84549279D01*
X172387905Y-84539033D01*
X172387923Y-84539027D01*
X172388000Y-84539000D01*
X172388083Y-84538968D01*
X172388117Y-84538956D01*
X172417909Y-84527597D01*
X172417924Y-84527591D01*
X172418000Y-84527562D01*
X172440766Y-84518029D01*
X172449721Y-84517994D01*
X172453550Y-84520540D01*
G37*
%TD.AperFunction*%
%TD*%
%TA.AperFunction,Conductor*%
%TO.N,+5V*%
G36*
X177029950Y-109558427D02*
G01*
X177032730Y-109562862D01*
X177063821Y-109652408D01*
X177063824Y-109652416D01*
X177097633Y-109743954D01*
X177097663Y-109744035D01*
X177131455Y-109829697D01*
X177131474Y-109829745D01*
X177165298Y-109909658D01*
X177199123Y-109983735D01*
X177232948Y-110051977D01*
X177266772Y-110114384D01*
X177300597Y-110170956D01*
X177334422Y-110221693D01*
X177334515Y-110221817D01*
X177334526Y-110221832D01*
X177365059Y-110262364D01*
X177367169Y-110271784D01*
X176541455Y-114245868D01*
X176536417Y-114253271D01*
X176527620Y-114254943D01*
X176520217Y-114249905D01*
X176518545Y-114245868D01*
X175692831Y-110271784D01*
X175694941Y-110262364D01*
X175725473Y-110221832D01*
X175725484Y-110221817D01*
X175725577Y-110221693D01*
X175759402Y-110170956D01*
X175793227Y-110114384D01*
X175827051Y-110051977D01*
X175860876Y-109983735D01*
X175894701Y-109909658D01*
X175928525Y-109829745D01*
X175928544Y-109829697D01*
X175962336Y-109744035D01*
X175962366Y-109743954D01*
X175996175Y-109652416D01*
X175996178Y-109652408D01*
X176027270Y-109562862D01*
X176033221Y-109556171D01*
X176038323Y-109555000D01*
X177021677Y-109555000D01*
X177029950Y-109558427D01*
G37*
%TD.AperFunction*%
%TD*%
%TA.AperFunction,Conductor*%
%TO.N,+5V*%
G36*
X179570799Y-109749478D02*
G01*
X179573141Y-109752831D01*
X179603824Y-109819056D01*
X179603846Y-109819101D01*
X179603860Y-109819130D01*
X179637579Y-109887266D01*
X179637649Y-109887407D01*
X179671474Y-109951101D01*
X179705298Y-110010139D01*
X179705343Y-110010212D01*
X179705344Y-110010213D01*
X179739062Y-110064425D01*
X179739077Y-110064449D01*
X179739123Y-110064522D01*
X179772948Y-110114248D01*
X179806772Y-110159319D01*
X179840597Y-110199734D01*
X179874422Y-110235492D01*
X179874569Y-110235627D01*
X179903361Y-110262103D01*
X179907132Y-110270225D01*
X179906897Y-110273095D01*
X179081455Y-114245868D01*
X179076417Y-114253271D01*
X179067620Y-114254943D01*
X179060217Y-114249905D01*
X179058545Y-114245868D01*
X178233103Y-110273095D01*
X178234775Y-110264298D01*
X178236639Y-110262103D01*
X178265429Y-110235629D01*
X178265443Y-110235616D01*
X178265577Y-110235492D01*
X178265709Y-110235353D01*
X178299275Y-110199868D01*
X178299402Y-110199734D01*
X178333227Y-110159319D01*
X178367051Y-110114248D01*
X178400876Y-110064522D01*
X178400922Y-110064449D01*
X178400937Y-110064425D01*
X178434655Y-110010213D01*
X178434656Y-110010212D01*
X178434701Y-110010139D01*
X178468525Y-109951101D01*
X178502350Y-109887407D01*
X178536175Y-109819056D01*
X178566858Y-109752832D01*
X178573445Y-109746766D01*
X178577474Y-109746051D01*
X179562526Y-109746051D01*
X179570799Y-109749478D01*
G37*
%TD.AperFunction*%
%TD*%
%TA.AperFunction,Conductor*%
%TO.N,+5V*%
G36*
X173594890Y-85011227D02*
G01*
X173599476Y-85019134D01*
X173609142Y-85096504D01*
X173609143Y-85096510D01*
X173620287Y-85184573D01*
X173631430Y-85271511D01*
X173642574Y-85357325D01*
X173653717Y-85442013D01*
X173664861Y-85525576D01*
X173676002Y-85608000D01*
X173676004Y-85608014D01*
X173687148Y-85689327D01*
X173698291Y-85769515D01*
X173708620Y-85842800D01*
X173706382Y-85851471D01*
X173705308Y-85852706D01*
X173013778Y-86544236D01*
X173005505Y-86547663D01*
X172997232Y-86544236D01*
X172995053Y-86541221D01*
X172971259Y-86493927D01*
X172940190Y-86433294D01*
X172909120Y-86373786D01*
X172909077Y-86373705D01*
X172878051Y-86315404D01*
X172846981Y-86258146D01*
X172815912Y-86202014D01*
X172784842Y-86147006D01*
X172753773Y-86093123D01*
X172722752Y-86040449D01*
X172722746Y-86040438D01*
X172722703Y-86040366D01*
X172694525Y-85993538D01*
X172693196Y-85984684D01*
X172693569Y-85983470D01*
X172741642Y-85852706D01*
X173019881Y-85095854D01*
X173025952Y-85089271D01*
X173029213Y-85088308D01*
X173586217Y-85009001D01*
X173594890Y-85011227D01*
G37*
%TD.AperFunction*%
%TD*%
%TA.AperFunction,Conductor*%
%TO.N,/V-A8*%
G36*
X160665621Y-90437407D02*
G01*
X160671945Y-90443748D01*
X160671659Y-90453314D01*
X160613557Y-90573198D01*
X160612851Y-90574451D01*
X160546270Y-90677354D01*
X160545503Y-90678406D01*
X160477769Y-90761202D01*
X160477183Y-90761865D01*
X160410417Y-90831936D01*
X160410288Y-90832070D01*
X160346956Y-90896449D01*
X160289676Y-90962123D01*
X160240931Y-91036224D01*
X160240727Y-91036707D01*
X160240726Y-91036710D01*
X160211169Y-91106882D01*
X160203131Y-91125964D01*
X160178684Y-91238553D01*
X160178657Y-91239002D01*
X160178656Y-91239007D01*
X160170669Y-91370211D01*
X160166746Y-91378261D01*
X160158991Y-91381200D01*
X159881009Y-91381200D01*
X159872736Y-91377773D01*
X159869331Y-91370211D01*
X159861343Y-91239007D01*
X159861342Y-91239002D01*
X159861315Y-91238553D01*
X159836868Y-91125964D01*
X159799067Y-91036224D01*
X159750322Y-90962123D01*
X159693042Y-90896449D01*
X159629710Y-90832070D01*
X159629581Y-90831936D01*
X159562815Y-90761865D01*
X159562229Y-90761202D01*
X159494496Y-90678406D01*
X159493729Y-90677354D01*
X159427147Y-90574451D01*
X159426441Y-90573198D01*
X159368341Y-90453314D01*
X159367817Y-90444374D01*
X159374379Y-90437407D01*
X160015509Y-90170867D01*
X160024491Y-90170867D01*
X160665621Y-90437407D01*
G37*
%TD.AperFunction*%
%TD*%
%TA.AperFunction,Conductor*%
%TO.N,/V-A8*%
G36*
X174142335Y-109558427D02*
G01*
X174143504Y-109559792D01*
X174194371Y-109629350D01*
X174248742Y-109698185D01*
X174303113Y-109761504D01*
X174303213Y-109761610D01*
X174357374Y-109819191D01*
X174357390Y-109819207D01*
X174357484Y-109819307D01*
X174411856Y-109871594D01*
X174411990Y-109871709D01*
X174411993Y-109871712D01*
X174466097Y-109918254D01*
X174466112Y-109918266D01*
X174466227Y-109918365D01*
X174520598Y-109959619D01*
X174574970Y-109995358D01*
X174575157Y-109995462D01*
X174575167Y-109995468D01*
X174575171Y-109995470D01*
X174629341Y-110025580D01*
X174629551Y-110025675D01*
X174629560Y-110025680D01*
X174675564Y-110046584D01*
X174681679Y-110053127D01*
X174682271Y-110059120D01*
X174001547Y-114230246D01*
X173996833Y-114237860D01*
X173988116Y-114239909D01*
X173980502Y-114235195D01*
X173978453Y-114230246D01*
X173297729Y-110059120D01*
X173299778Y-110050403D01*
X173304436Y-110046584D01*
X173350438Y-110025680D01*
X173350439Y-110025680D01*
X173350658Y-110025580D01*
X173405029Y-109995358D01*
X173405203Y-109995244D01*
X173405214Y-109995237D01*
X173435950Y-109975033D01*
X173459400Y-109959619D01*
X173513771Y-109918365D01*
X173513886Y-109918266D01*
X173513901Y-109918254D01*
X173568006Y-109871712D01*
X173568009Y-109871709D01*
X173568143Y-109871594D01*
X173622514Y-109819307D01*
X173622608Y-109819207D01*
X173622624Y-109819191D01*
X173676776Y-109761620D01*
X173676785Y-109761610D01*
X173676885Y-109761504D01*
X173731257Y-109698185D01*
X173785628Y-109629350D01*
X173836494Y-109559794D01*
X173844144Y-109555138D01*
X173845938Y-109555000D01*
X174134062Y-109555000D01*
X174142335Y-109558427D01*
G37*
%TD.AperFunction*%
%TD*%
%TA.AperFunction,Conductor*%
%TO.N,/V-A5*%
G36*
X160778166Y-76515272D02*
G01*
X160974728Y-76711834D01*
X160978155Y-76720107D01*
X160975216Y-76727862D01*
X160887787Y-76826625D01*
X160825462Y-76923524D01*
X160825262Y-76924016D01*
X160825259Y-76924021D01*
X160789320Y-77012271D01*
X160788735Y-77013708D01*
X160770805Y-77100574D01*
X160764871Y-77187515D01*
X160764870Y-77187668D01*
X160764130Y-77277831D01*
X160764127Y-77278018D01*
X160761790Y-77374764D01*
X160761735Y-77375646D01*
X160751084Y-77482091D01*
X160750882Y-77483378D01*
X160725199Y-77603220D01*
X160724812Y-77604605D01*
X160681126Y-77730459D01*
X160675176Y-77737151D01*
X160665610Y-77737437D01*
X160340386Y-77603220D01*
X160023788Y-77472562D01*
X160017438Y-77466212D01*
X159866542Y-77100574D01*
X159752563Y-76824390D01*
X159752574Y-76815436D01*
X159759541Y-76808874D01*
X159885394Y-76765187D01*
X159886779Y-76764800D01*
X159940502Y-76753286D01*
X160006627Y-76739115D01*
X160007902Y-76738915D01*
X160114364Y-76728262D01*
X160115224Y-76728209D01*
X160212007Y-76725871D01*
X160212139Y-76725868D01*
X160302484Y-76725128D01*
X160389425Y-76719193D01*
X160389821Y-76719111D01*
X160389823Y-76719111D01*
X160475762Y-76701372D01*
X160476290Y-76701263D01*
X160478815Y-76700235D01*
X160565978Y-76664740D01*
X160565983Y-76664737D01*
X160566475Y-76664537D01*
X160663374Y-76602212D01*
X160762138Y-76514784D01*
X160770604Y-76511867D01*
X160778166Y-76515272D01*
G37*
%TD.AperFunction*%
%TD*%
%TA.AperFunction,Conductor*%
%TO.N,/V-A5*%
G36*
X167532899Y-80483427D02*
G01*
X167536321Y-80491369D01*
X167538618Y-80572597D01*
X167546284Y-80648152D01*
X167558717Y-80710729D01*
X167575635Y-80764394D01*
X167575747Y-80764653D01*
X167575750Y-80764661D01*
X167596668Y-80813010D01*
X167596756Y-80813213D01*
X167621799Y-80861252D01*
X167621845Y-80861334D01*
X167650425Y-80912476D01*
X167650481Y-80912577D01*
X167682417Y-80971062D01*
X167682609Y-80971428D01*
X167717521Y-81041114D01*
X167717757Y-81041616D01*
X167750707Y-81115992D01*
X167750925Y-81124944D01*
X167744512Y-81131530D01*
X167390502Y-81279123D01*
X167381498Y-81279123D01*
X167027486Y-81131529D01*
X167021169Y-81125183D01*
X167021292Y-81115992D01*
X167054241Y-81041616D01*
X167054477Y-81041114D01*
X167089390Y-80971428D01*
X167089582Y-80971062D01*
X167121517Y-80912577D01*
X167121573Y-80912476D01*
X167150154Y-80861334D01*
X167150200Y-80861252D01*
X167175243Y-80813213D01*
X167175331Y-80813010D01*
X167196249Y-80764661D01*
X167196252Y-80764653D01*
X167196364Y-80764394D01*
X167213282Y-80710729D01*
X167225715Y-80648152D01*
X167233381Y-80572597D01*
X167235678Y-80491368D01*
X167239337Y-80483196D01*
X167247373Y-80480000D01*
X167524626Y-80480000D01*
X167532899Y-80483427D01*
G37*
%TD.AperFunction*%
%TD*%
%TA.AperFunction,Conductor*%
%TO.N,/V-A9*%
G36*
X158134564Y-87362574D02*
G01*
X158141126Y-87369541D01*
X158184812Y-87495394D01*
X158185199Y-87496779D01*
X158210882Y-87616621D01*
X158211084Y-87617908D01*
X158221735Y-87724353D01*
X158221790Y-87725235D01*
X158224127Y-87821980D01*
X158224130Y-87822139D01*
X158224871Y-87912484D01*
X158230805Y-87999425D01*
X158248735Y-88086290D01*
X158248937Y-88086786D01*
X158285259Y-88175978D01*
X158285262Y-88175983D01*
X158285462Y-88176475D01*
X158347787Y-88273374D01*
X158425252Y-88360882D01*
X158435216Y-88372138D01*
X158438133Y-88380604D01*
X158434728Y-88388166D01*
X158238166Y-88584728D01*
X158229893Y-88588155D01*
X158222138Y-88585216D01*
X158215145Y-88579026D01*
X158123374Y-88497787D01*
X158026475Y-88435462D01*
X158025983Y-88435262D01*
X158025978Y-88435259D01*
X157936786Y-88398937D01*
X157936290Y-88398735D01*
X157885087Y-88388166D01*
X157849823Y-88380887D01*
X157849821Y-88380887D01*
X157849425Y-88380805D01*
X157762484Y-88374871D01*
X157672139Y-88374130D01*
X157672007Y-88374127D01*
X157575224Y-88371789D01*
X157574364Y-88371736D01*
X157467902Y-88361083D01*
X157466627Y-88360883D01*
X157400350Y-88346680D01*
X157346779Y-88335199D01*
X157345394Y-88334812D01*
X157219541Y-88291126D01*
X157212849Y-88285176D01*
X157212563Y-88275610D01*
X157440062Y-87724353D01*
X157477438Y-87633788D01*
X157483788Y-87627438D01*
X158108701Y-87369541D01*
X158125610Y-87362563D01*
X158134564Y-87362574D01*
G37*
%TD.AperFunction*%
%TD*%
%TA.AperFunction,Conductor*%
%TO.N,/V-A9*%
G36*
X171602335Y-109558427D02*
G01*
X171603504Y-109559792D01*
X171654371Y-109629350D01*
X171708742Y-109698185D01*
X171763113Y-109761504D01*
X171763213Y-109761610D01*
X171817374Y-109819191D01*
X171817390Y-109819207D01*
X171817484Y-109819307D01*
X171871856Y-109871594D01*
X171871990Y-109871709D01*
X171871993Y-109871712D01*
X171926097Y-109918254D01*
X171926112Y-109918266D01*
X171926227Y-109918365D01*
X171980598Y-109959619D01*
X172034970Y-109995358D01*
X172035157Y-109995462D01*
X172035167Y-109995468D01*
X172035171Y-109995470D01*
X172089341Y-110025580D01*
X172089551Y-110025675D01*
X172089560Y-110025680D01*
X172135564Y-110046584D01*
X172141679Y-110053127D01*
X172142271Y-110059120D01*
X171461547Y-114230246D01*
X171456833Y-114237860D01*
X171448116Y-114239909D01*
X171440502Y-114235195D01*
X171438453Y-114230246D01*
X170757729Y-110059120D01*
X170759778Y-110050403D01*
X170764436Y-110046584D01*
X170810438Y-110025680D01*
X170810439Y-110025680D01*
X170810658Y-110025580D01*
X170865029Y-109995358D01*
X170865203Y-109995244D01*
X170865214Y-109995237D01*
X170895950Y-109975033D01*
X170919400Y-109959619D01*
X170973771Y-109918365D01*
X170973886Y-109918266D01*
X170973901Y-109918254D01*
X171028006Y-109871712D01*
X171028009Y-109871709D01*
X171028143Y-109871594D01*
X171082514Y-109819307D01*
X171082608Y-109819207D01*
X171082624Y-109819191D01*
X171136776Y-109761620D01*
X171136785Y-109761610D01*
X171136885Y-109761504D01*
X171191257Y-109698185D01*
X171245628Y-109629350D01*
X171296494Y-109559794D01*
X171304144Y-109555138D01*
X171305938Y-109555000D01*
X171594062Y-109555000D01*
X171602335Y-109558427D01*
G37*
%TD.AperFunction*%
%TD*%
%TA.AperFunction,Conductor*%
%TO.N,/V-A11*%
G36*
X169062335Y-109558427D02*
G01*
X169063504Y-109559792D01*
X169114371Y-109629350D01*
X169168742Y-109698185D01*
X169223113Y-109761504D01*
X169223213Y-109761610D01*
X169277374Y-109819191D01*
X169277390Y-109819207D01*
X169277484Y-109819307D01*
X169331856Y-109871594D01*
X169331990Y-109871709D01*
X169331993Y-109871712D01*
X169386097Y-109918254D01*
X169386112Y-109918266D01*
X169386227Y-109918365D01*
X169440598Y-109959619D01*
X169494970Y-109995358D01*
X169495157Y-109995462D01*
X169495167Y-109995468D01*
X169495171Y-109995470D01*
X169549341Y-110025580D01*
X169549551Y-110025675D01*
X169549560Y-110025680D01*
X169595564Y-110046584D01*
X169601679Y-110053127D01*
X169602271Y-110059120D01*
X168921547Y-114230246D01*
X168916833Y-114237860D01*
X168908116Y-114239909D01*
X168900502Y-114235195D01*
X168898453Y-114230246D01*
X168217729Y-110059120D01*
X168219778Y-110050403D01*
X168224436Y-110046584D01*
X168270438Y-110025680D01*
X168270439Y-110025680D01*
X168270658Y-110025580D01*
X168325029Y-109995358D01*
X168325203Y-109995244D01*
X168325214Y-109995237D01*
X168355950Y-109975033D01*
X168379400Y-109959619D01*
X168433771Y-109918365D01*
X168433886Y-109918266D01*
X168433901Y-109918254D01*
X168488006Y-109871712D01*
X168488009Y-109871709D01*
X168488143Y-109871594D01*
X168542514Y-109819307D01*
X168542608Y-109819207D01*
X168542624Y-109819191D01*
X168596776Y-109761620D01*
X168596785Y-109761610D01*
X168596885Y-109761504D01*
X168651257Y-109698185D01*
X168705628Y-109629350D01*
X168756494Y-109559794D01*
X168764144Y-109555138D01*
X168765938Y-109555000D01*
X169054062Y-109555000D01*
X169062335Y-109558427D01*
G37*
%TD.AperFunction*%
%TD*%
%TA.AperFunction,Conductor*%
%TO.N,/V-A11*%
G36*
X158125621Y-90437407D02*
G01*
X158131945Y-90443748D01*
X158131659Y-90453314D01*
X158073557Y-90573198D01*
X158072851Y-90574451D01*
X158006270Y-90677354D01*
X158005503Y-90678406D01*
X157937769Y-90761202D01*
X157937183Y-90761865D01*
X157870417Y-90831936D01*
X157870288Y-90832070D01*
X157806956Y-90896449D01*
X157749676Y-90962123D01*
X157700931Y-91036224D01*
X157700727Y-91036707D01*
X157700726Y-91036710D01*
X157671169Y-91106882D01*
X157663131Y-91125964D01*
X157638684Y-91238553D01*
X157638657Y-91239002D01*
X157638656Y-91239007D01*
X157630669Y-91370211D01*
X157626746Y-91378261D01*
X157618991Y-91381200D01*
X157341009Y-91381200D01*
X157332736Y-91377773D01*
X157329331Y-91370211D01*
X157321343Y-91239007D01*
X157321342Y-91239002D01*
X157321315Y-91238553D01*
X157296868Y-91125964D01*
X157259067Y-91036224D01*
X157210322Y-90962123D01*
X157153042Y-90896449D01*
X157089710Y-90832070D01*
X157089581Y-90831936D01*
X157022815Y-90761865D01*
X157022229Y-90761202D01*
X156954496Y-90678406D01*
X156953729Y-90677354D01*
X156887147Y-90574451D01*
X156886441Y-90573198D01*
X156828341Y-90453314D01*
X156827817Y-90444374D01*
X156834379Y-90437407D01*
X157475509Y-90170867D01*
X157484491Y-90170867D01*
X158125621Y-90437407D01*
G37*
%TD.AperFunction*%
%TD*%
%TA.AperFunction,Conductor*%
%TO.N,/V-A10*%
G36*
X154948281Y-90177297D02*
G01*
X155433719Y-90663701D01*
X155437138Y-90671978D01*
X155433703Y-90680247D01*
X155432797Y-90681062D01*
X155397222Y-90709841D01*
X155395236Y-90711138D01*
X155349010Y-90735037D01*
X155347280Y-90735762D01*
X155314337Y-90746533D01*
X155300582Y-90751030D01*
X155299462Y-90751335D01*
X155253541Y-90761447D01*
X155253256Y-90761506D01*
X155209994Y-90769910D01*
X155209983Y-90769913D01*
X155209785Y-90769951D01*
X155188253Y-90775654D01*
X155171245Y-90780158D01*
X155171243Y-90780159D01*
X155170702Y-90780302D01*
X155170198Y-90780545D01*
X155170197Y-90780545D01*
X155138539Y-90795784D01*
X155138538Y-90795785D01*
X155137667Y-90796204D01*
X155112195Y-90821330D01*
X155111747Y-90822369D01*
X155096152Y-90858541D01*
X155095801Y-90859354D01*
X155095708Y-90860230D01*
X155091112Y-90903485D01*
X155086830Y-90911350D01*
X155079477Y-90913949D01*
X154800522Y-90913949D01*
X154792249Y-90910522D01*
X154788888Y-90903485D01*
X154784292Y-90860236D01*
X154784292Y-90860234D01*
X154784198Y-90859354D01*
X154783849Y-90858544D01*
X154783848Y-90858541D01*
X154768252Y-90822369D01*
X154767804Y-90821330D01*
X154742332Y-90796204D01*
X154741461Y-90795785D01*
X154741460Y-90795784D01*
X154709795Y-90780542D01*
X154709793Y-90780541D01*
X154709296Y-90780302D01*
X154689054Y-90774941D01*
X154670393Y-90769998D01*
X154670382Y-90769996D01*
X154670214Y-90769951D01*
X154637299Y-90763557D01*
X154626743Y-90761506D01*
X154626458Y-90761447D01*
X154580537Y-90751335D01*
X154579417Y-90751030D01*
X154565591Y-90746510D01*
X154532718Y-90735762D01*
X154530993Y-90735040D01*
X154484763Y-90711138D01*
X154482778Y-90709841D01*
X154447203Y-90681062D01*
X154442927Y-90673195D01*
X154445466Y-90664607D01*
X154446281Y-90663701D01*
X154931719Y-90177297D01*
X154939988Y-90173862D01*
X154948281Y-90177297D01*
G37*
%TD.AperFunction*%
%TD*%
%TA.AperFunction,Conductor*%
%TO.N,/V-A10*%
G36*
X163982335Y-109558427D02*
G01*
X163983504Y-109559792D01*
X164034371Y-109629350D01*
X164088742Y-109698185D01*
X164143113Y-109761504D01*
X164143213Y-109761610D01*
X164197374Y-109819191D01*
X164197390Y-109819207D01*
X164197484Y-109819307D01*
X164251856Y-109871594D01*
X164251990Y-109871709D01*
X164251993Y-109871712D01*
X164306097Y-109918254D01*
X164306112Y-109918266D01*
X164306227Y-109918365D01*
X164360598Y-109959619D01*
X164414970Y-109995358D01*
X164415157Y-109995462D01*
X164415167Y-109995468D01*
X164415171Y-109995470D01*
X164469341Y-110025580D01*
X164469551Y-110025675D01*
X164469560Y-110025680D01*
X164515564Y-110046584D01*
X164521679Y-110053127D01*
X164522271Y-110059120D01*
X163841547Y-114230246D01*
X163836833Y-114237860D01*
X163828116Y-114239909D01*
X163820502Y-114235195D01*
X163818453Y-114230246D01*
X163137729Y-110059120D01*
X163139778Y-110050403D01*
X163144436Y-110046584D01*
X163190438Y-110025680D01*
X163190439Y-110025680D01*
X163190658Y-110025580D01*
X163245029Y-109995358D01*
X163245203Y-109995244D01*
X163245214Y-109995237D01*
X163275950Y-109975033D01*
X163299400Y-109959619D01*
X163353771Y-109918365D01*
X163353886Y-109918266D01*
X163353901Y-109918254D01*
X163408006Y-109871712D01*
X163408009Y-109871709D01*
X163408143Y-109871594D01*
X163462514Y-109819307D01*
X163462608Y-109819207D01*
X163462624Y-109819191D01*
X163516776Y-109761620D01*
X163516785Y-109761610D01*
X163516885Y-109761504D01*
X163571257Y-109698185D01*
X163625628Y-109629350D01*
X163676494Y-109559794D01*
X163684144Y-109555138D01*
X163685938Y-109555000D01*
X163974062Y-109555000D01*
X163982335Y-109558427D01*
G37*
%TD.AperFunction*%
%TD*%
%TA.AperFunction,Conductor*%
%TO.N,/V-D7*%
G36*
X153045621Y-90437407D02*
G01*
X153051945Y-90443748D01*
X153051659Y-90453314D01*
X152993557Y-90573198D01*
X152992851Y-90574451D01*
X152926270Y-90677354D01*
X152925503Y-90678406D01*
X152857769Y-90761202D01*
X152857183Y-90761865D01*
X152790417Y-90831936D01*
X152790288Y-90832070D01*
X152726956Y-90896449D01*
X152669676Y-90962123D01*
X152620931Y-91036224D01*
X152620727Y-91036707D01*
X152620726Y-91036710D01*
X152591169Y-91106882D01*
X152583131Y-91125964D01*
X152558684Y-91238553D01*
X152558657Y-91239002D01*
X152558656Y-91239007D01*
X152550669Y-91370211D01*
X152546746Y-91378261D01*
X152538991Y-91381200D01*
X152261009Y-91381200D01*
X152252736Y-91377773D01*
X152249331Y-91370211D01*
X152241343Y-91239007D01*
X152241342Y-91239002D01*
X152241315Y-91238553D01*
X152216868Y-91125964D01*
X152179067Y-91036224D01*
X152130322Y-90962123D01*
X152073042Y-90896449D01*
X152009710Y-90832070D01*
X152009581Y-90831936D01*
X151942815Y-90761865D01*
X151942229Y-90761202D01*
X151874496Y-90678406D01*
X151873729Y-90677354D01*
X151807147Y-90574451D01*
X151806441Y-90573198D01*
X151748341Y-90453314D01*
X151747817Y-90444374D01*
X151754379Y-90437407D01*
X152395509Y-90170867D01*
X152404491Y-90170867D01*
X153045621Y-90437407D01*
G37*
%TD.AperFunction*%
%TD*%
%TA.AperFunction,Conductor*%
%TO.N,/V-D7*%
G36*
X158903415Y-109715360D02*
G01*
X158932740Y-109744214D01*
X158965480Y-109773576D01*
X158965594Y-109773668D01*
X158965603Y-109773676D01*
X158998087Y-109799977D01*
X158998102Y-109799988D01*
X158998220Y-109800084D01*
X159030961Y-109823739D01*
X159063701Y-109844541D01*
X159063862Y-109844629D01*
X159063870Y-109844634D01*
X159096239Y-109862379D01*
X159096246Y-109862382D01*
X159096442Y-109862490D01*
X159096636Y-109862579D01*
X159096643Y-109862583D01*
X159112812Y-109870037D01*
X159129182Y-109877585D01*
X159161923Y-109889828D01*
X159162130Y-109889887D01*
X159162135Y-109889889D01*
X159188931Y-109897573D01*
X159194663Y-109899217D01*
X159194890Y-109899262D01*
X159194897Y-109899264D01*
X159205450Y-109901370D01*
X159216907Y-109903657D01*
X159224349Y-109908637D01*
X159226248Y-109916394D01*
X158761632Y-114193909D01*
X158757331Y-114201764D01*
X158748737Y-114204278D01*
X158740882Y-114199977D01*
X158738368Y-114193909D01*
X158273752Y-109916394D01*
X158276266Y-109907800D01*
X158283093Y-109903657D01*
X158290552Y-109902168D01*
X158305108Y-109899263D01*
X158305119Y-109899260D01*
X158305336Y-109899217D01*
X158325668Y-109893386D01*
X158337864Y-109889889D01*
X158337869Y-109889887D01*
X158338076Y-109889828D01*
X158370816Y-109877585D01*
X158387186Y-109870038D01*
X158403356Y-109862583D01*
X158403364Y-109862579D01*
X158403557Y-109862490D01*
X158403753Y-109862382D01*
X158403760Y-109862379D01*
X158436128Y-109844634D01*
X158436136Y-109844629D01*
X158436297Y-109844541D01*
X158469038Y-109823739D01*
X158501778Y-109800084D01*
X158501896Y-109799988D01*
X158501911Y-109799977D01*
X158534395Y-109773676D01*
X158534519Y-109773576D01*
X158567259Y-109744214D01*
X158596585Y-109715360D01*
X158604791Y-109712000D01*
X158895209Y-109712000D01*
X158903415Y-109715360D01*
G37*
%TD.AperFunction*%
%TD*%
%TA.AperFunction,Conductor*%
%TO.N,/V-D6*%
G36*
X156363295Y-109748895D02*
G01*
X156392740Y-109774315D01*
X156425480Y-109799847D01*
X156458220Y-109822648D01*
X156490961Y-109842716D01*
X156491101Y-109842790D01*
X156491113Y-109842797D01*
X156515857Y-109855898D01*
X156523701Y-109860052D01*
X156556442Y-109874656D01*
X156556656Y-109874734D01*
X156556657Y-109874734D01*
X156588969Y-109886451D01*
X156588975Y-109886453D01*
X156589182Y-109886528D01*
X156621923Y-109895668D01*
X156622147Y-109895712D01*
X156622156Y-109895714D01*
X156641495Y-109899499D01*
X156654663Y-109902076D01*
X156654908Y-109902103D01*
X156654911Y-109902104D01*
X156675819Y-109904452D01*
X156683658Y-109908781D01*
X156686145Y-109917342D01*
X156221632Y-114193909D01*
X156217331Y-114201764D01*
X156208737Y-114204278D01*
X156200882Y-114199977D01*
X156198368Y-114193909D01*
X155733855Y-109917342D01*
X155736369Y-109908748D01*
X155744181Y-109904452D01*
X155765088Y-109902104D01*
X155765091Y-109902103D01*
X155765336Y-109902076D01*
X155778504Y-109899499D01*
X155797843Y-109895714D01*
X155797852Y-109895712D01*
X155798076Y-109895668D01*
X155830816Y-109886528D01*
X155831023Y-109886453D01*
X155831029Y-109886451D01*
X155863342Y-109874734D01*
X155863343Y-109874734D01*
X155863557Y-109874656D01*
X155896297Y-109860052D01*
X155904220Y-109855857D01*
X155928886Y-109842797D01*
X155928898Y-109842790D01*
X155929038Y-109842716D01*
X155961778Y-109822648D01*
X155994519Y-109799847D01*
X156027259Y-109774315D01*
X156056707Y-109748894D01*
X156064351Y-109746051D01*
X156355648Y-109746051D01*
X156363295Y-109748895D01*
G37*
%TD.AperFunction*%
%TD*%
%TA.AperFunction,Conductor*%
%TO.N,/V-D6*%
G36*
X149860444Y-87632426D02*
G01*
X149862994Y-87636239D01*
X150035987Y-88054516D01*
X150127391Y-88275522D01*
X150127386Y-88284477D01*
X150120336Y-88291074D01*
X150034563Y-88320161D01*
X150033308Y-88320510D01*
X149939702Y-88341007D01*
X149938879Y-88341156D01*
X149917884Y-88344194D01*
X149849984Y-88354018D01*
X149849710Y-88354055D01*
X149767224Y-88364005D01*
X149767217Y-88364006D01*
X149767101Y-88364020D01*
X149715836Y-88372167D01*
X149693089Y-88375781D01*
X149693085Y-88375782D01*
X149692738Y-88375837D01*
X149628321Y-88394300D01*
X149605049Y-88407468D01*
X149576325Y-88423720D01*
X149576323Y-88423722D01*
X149575446Y-88424218D01*
X149535704Y-88470399D01*
X149510691Y-88537650D01*
X149510619Y-88538423D01*
X149502990Y-88620167D01*
X149498810Y-88628086D01*
X149491341Y-88630780D01*
X149213572Y-88630780D01*
X149205299Y-88627353D01*
X149201873Y-88619208D01*
X149200512Y-88494671D01*
X149200511Y-88494643D01*
X149200510Y-88494521D01*
X149199676Y-88471375D01*
X149196472Y-88382511D01*
X149196470Y-88382476D01*
X149196467Y-88382382D01*
X149196059Y-88375935D01*
X149190511Y-88288375D01*
X149190504Y-88288289D01*
X149183273Y-88206347D01*
X149175400Y-88130389D01*
X149167535Y-88054516D01*
X149167518Y-88054339D01*
X149160304Y-87972596D01*
X149160282Y-87972307D01*
X149154340Y-87878525D01*
X149154325Y-87878207D01*
X149150294Y-87766409D01*
X149150287Y-87766115D01*
X149148929Y-87641811D01*
X149152265Y-87633501D01*
X149160611Y-87629983D01*
X149852166Y-87629011D01*
X149860444Y-87632426D01*
G37*
%TD.AperFunction*%
%TD*%
%TA.AperFunction,Conductor*%
%TO.N,/V-D5*%
G36*
X151771299Y-84829541D02*
G01*
X152396212Y-85087438D01*
X152402562Y-85093788D01*
X152439938Y-85184353D01*
X152667437Y-85735610D01*
X152667426Y-85744564D01*
X152660459Y-85751126D01*
X152534605Y-85794812D01*
X152533220Y-85795199D01*
X152479649Y-85806680D01*
X152413372Y-85820883D01*
X152412097Y-85821083D01*
X152305635Y-85831736D01*
X152304775Y-85831789D01*
X152207991Y-85834127D01*
X152207859Y-85834130D01*
X152117515Y-85834871D01*
X152030574Y-85840805D01*
X152030178Y-85840887D01*
X152030176Y-85840887D01*
X151944236Y-85858626D01*
X151943708Y-85858735D01*
X151943212Y-85858937D01*
X151854021Y-85895259D01*
X151854016Y-85895262D01*
X151853524Y-85895462D01*
X151756625Y-85957787D01*
X151658413Y-86044728D01*
X151657862Y-86045216D01*
X151649396Y-86048133D01*
X151641834Y-86044728D01*
X151445272Y-85848166D01*
X151441845Y-85839893D01*
X151444784Y-85832138D01*
X151477826Y-85794812D01*
X151532212Y-85733374D01*
X151594537Y-85636475D01*
X151594737Y-85635983D01*
X151594740Y-85635978D01*
X151631061Y-85546786D01*
X151631263Y-85546290D01*
X151649193Y-85459425D01*
X151655128Y-85372484D01*
X151655868Y-85282139D01*
X151655871Y-85281980D01*
X151658208Y-85185235D01*
X151658263Y-85184353D01*
X151668914Y-85077908D01*
X151669116Y-85076621D01*
X151694800Y-84956779D01*
X151695187Y-84955394D01*
X151738874Y-84829541D01*
X151744824Y-84822849D01*
X151754390Y-84822563D01*
X151771299Y-84829541D01*
G37*
%TD.AperFunction*%
%TD*%
%TA.AperFunction,Conductor*%
%TO.N,/V-D5*%
G36*
X153822335Y-109558427D02*
G01*
X153823504Y-109559792D01*
X153874371Y-109629350D01*
X153928742Y-109698185D01*
X153983113Y-109761504D01*
X153983213Y-109761610D01*
X154037374Y-109819191D01*
X154037390Y-109819207D01*
X154037484Y-109819307D01*
X154091856Y-109871594D01*
X154091990Y-109871709D01*
X154091993Y-109871712D01*
X154146097Y-109918254D01*
X154146112Y-109918266D01*
X154146227Y-109918365D01*
X154200598Y-109959619D01*
X154254970Y-109995358D01*
X154255157Y-109995462D01*
X154255167Y-109995468D01*
X154255171Y-109995470D01*
X154309341Y-110025580D01*
X154309551Y-110025675D01*
X154309560Y-110025680D01*
X154355564Y-110046584D01*
X154361679Y-110053127D01*
X154362271Y-110059120D01*
X153681547Y-114230246D01*
X153676833Y-114237860D01*
X153668116Y-114239909D01*
X153660502Y-114235195D01*
X153658453Y-114230246D01*
X152977729Y-110059120D01*
X152979778Y-110050403D01*
X152984436Y-110046584D01*
X153030438Y-110025680D01*
X153030439Y-110025680D01*
X153030658Y-110025580D01*
X153085029Y-109995358D01*
X153085203Y-109995244D01*
X153085214Y-109995237D01*
X153115950Y-109975033D01*
X153139400Y-109959619D01*
X153193771Y-109918365D01*
X153193886Y-109918266D01*
X153193901Y-109918254D01*
X153248006Y-109871712D01*
X153248009Y-109871709D01*
X153248143Y-109871594D01*
X153302514Y-109819307D01*
X153302608Y-109819207D01*
X153302624Y-109819191D01*
X153356776Y-109761620D01*
X153356785Y-109761610D01*
X153356885Y-109761504D01*
X153411257Y-109698185D01*
X153465628Y-109629350D01*
X153516494Y-109559794D01*
X153524144Y-109555138D01*
X153525938Y-109555000D01*
X153814062Y-109555000D01*
X153822335Y-109558427D01*
G37*
%TD.AperFunction*%
%TD*%
%TA.AperFunction,Conductor*%
%TO.N,/V-D4*%
G36*
X151282335Y-109558427D02*
G01*
X151283504Y-109559792D01*
X151334371Y-109629350D01*
X151388742Y-109698185D01*
X151443113Y-109761504D01*
X151443213Y-109761610D01*
X151497374Y-109819191D01*
X151497390Y-109819207D01*
X151497484Y-109819307D01*
X151551856Y-109871594D01*
X151551990Y-109871709D01*
X151551993Y-109871712D01*
X151606097Y-109918254D01*
X151606112Y-109918266D01*
X151606227Y-109918365D01*
X151660598Y-109959619D01*
X151714970Y-109995358D01*
X151715157Y-109995462D01*
X151715167Y-109995468D01*
X151715171Y-109995470D01*
X151769341Y-110025580D01*
X151769551Y-110025675D01*
X151769560Y-110025680D01*
X151815564Y-110046584D01*
X151821679Y-110053127D01*
X151822271Y-110059120D01*
X151141547Y-114230246D01*
X151136833Y-114237860D01*
X151128116Y-114239909D01*
X151120502Y-114235195D01*
X151118453Y-114230246D01*
X150437729Y-110059120D01*
X150439778Y-110050403D01*
X150444436Y-110046584D01*
X150490438Y-110025680D01*
X150490439Y-110025680D01*
X150490658Y-110025580D01*
X150545029Y-109995358D01*
X150545203Y-109995244D01*
X150545214Y-109995237D01*
X150575950Y-109975033D01*
X150599400Y-109959619D01*
X150653771Y-109918365D01*
X150653886Y-109918266D01*
X150653901Y-109918254D01*
X150708006Y-109871712D01*
X150708009Y-109871709D01*
X150708143Y-109871594D01*
X150762514Y-109819307D01*
X150762608Y-109819207D01*
X150762624Y-109819191D01*
X150816776Y-109761620D01*
X150816785Y-109761610D01*
X150816885Y-109761504D01*
X150871257Y-109698185D01*
X150925628Y-109629350D01*
X150976494Y-109559794D01*
X150984144Y-109555138D01*
X150985938Y-109555000D01*
X151274062Y-109555000D01*
X151282335Y-109558427D01*
G37*
%TD.AperFunction*%
%TD*%
%TA.AperFunction,Conductor*%
%TO.N,/V-D3*%
G36*
X151771299Y-82289541D02*
G01*
X152396212Y-82547438D01*
X152402562Y-82553788D01*
X152439938Y-82644353D01*
X152667437Y-83195610D01*
X152667426Y-83204564D01*
X152660459Y-83211126D01*
X152534605Y-83254812D01*
X152533220Y-83255199D01*
X152479649Y-83266680D01*
X152413372Y-83280883D01*
X152412097Y-83281083D01*
X152305635Y-83291736D01*
X152304775Y-83291789D01*
X152207991Y-83294127D01*
X152207859Y-83294130D01*
X152117515Y-83294871D01*
X152030574Y-83300805D01*
X152030178Y-83300887D01*
X152030176Y-83300887D01*
X151944236Y-83318626D01*
X151943708Y-83318735D01*
X151943212Y-83318937D01*
X151854021Y-83355259D01*
X151854016Y-83355262D01*
X151853524Y-83355462D01*
X151756625Y-83417787D01*
X151658413Y-83504728D01*
X151657862Y-83505216D01*
X151649396Y-83508133D01*
X151641834Y-83504728D01*
X151445272Y-83308166D01*
X151441845Y-83299893D01*
X151444784Y-83292138D01*
X151477826Y-83254812D01*
X151532212Y-83193374D01*
X151594537Y-83096475D01*
X151594737Y-83095983D01*
X151594740Y-83095978D01*
X151631061Y-83006786D01*
X151631263Y-83006290D01*
X151649193Y-82919425D01*
X151655128Y-82832484D01*
X151655868Y-82742139D01*
X151655871Y-82741980D01*
X151658208Y-82645235D01*
X151658263Y-82644353D01*
X151668914Y-82537908D01*
X151669116Y-82536621D01*
X151694800Y-82416779D01*
X151695187Y-82415394D01*
X151738874Y-82289541D01*
X151744824Y-82282849D01*
X151754390Y-82282563D01*
X151771299Y-82289541D01*
G37*
%TD.AperFunction*%
%TD*%
%TA.AperFunction,Conductor*%
%TO.N,/V-D3*%
G36*
X148742335Y-109558427D02*
G01*
X148743504Y-109559792D01*
X148794371Y-109629350D01*
X148848742Y-109698185D01*
X148903113Y-109761504D01*
X148903213Y-109761610D01*
X148957374Y-109819191D01*
X148957390Y-109819207D01*
X148957484Y-109819307D01*
X149011856Y-109871594D01*
X149011990Y-109871709D01*
X149011993Y-109871712D01*
X149066097Y-109918254D01*
X149066112Y-109918266D01*
X149066227Y-109918365D01*
X149120598Y-109959619D01*
X149174970Y-109995358D01*
X149175157Y-109995462D01*
X149175167Y-109995468D01*
X149175171Y-109995470D01*
X149229341Y-110025580D01*
X149229551Y-110025675D01*
X149229560Y-110025680D01*
X149275564Y-110046584D01*
X149281679Y-110053127D01*
X149282271Y-110059120D01*
X148601547Y-114230246D01*
X148596833Y-114237860D01*
X148588116Y-114239909D01*
X148580502Y-114235195D01*
X148578453Y-114230246D01*
X147897729Y-110059120D01*
X147899778Y-110050403D01*
X147904436Y-110046584D01*
X147950438Y-110025680D01*
X147950439Y-110025680D01*
X147950658Y-110025580D01*
X148005029Y-109995358D01*
X148005203Y-109995244D01*
X148005214Y-109995237D01*
X148035950Y-109975033D01*
X148059400Y-109959619D01*
X148113771Y-109918365D01*
X148113886Y-109918266D01*
X148113901Y-109918254D01*
X148168006Y-109871712D01*
X148168009Y-109871709D01*
X148168143Y-109871594D01*
X148222514Y-109819307D01*
X148222608Y-109819207D01*
X148222624Y-109819191D01*
X148276776Y-109761620D01*
X148276785Y-109761610D01*
X148276885Y-109761504D01*
X148331257Y-109698185D01*
X148385628Y-109629350D01*
X148436494Y-109559794D01*
X148444144Y-109555138D01*
X148445938Y-109555000D01*
X148734062Y-109555000D01*
X148742335Y-109558427D01*
G37*
%TD.AperFunction*%
%TD*%
%TA.AperFunction,Conductor*%
%TO.N,/V-A12*%
G36*
X164471299Y-79749541D02*
G01*
X165096212Y-80007438D01*
X165102562Y-80013788D01*
X165139938Y-80104353D01*
X165367437Y-80655610D01*
X165367426Y-80664564D01*
X165360459Y-80671126D01*
X165234605Y-80714812D01*
X165233220Y-80715199D01*
X165179649Y-80726680D01*
X165113372Y-80740883D01*
X165112097Y-80741083D01*
X165005635Y-80751736D01*
X165004775Y-80751789D01*
X164907991Y-80754127D01*
X164907859Y-80754130D01*
X164817515Y-80754871D01*
X164730574Y-80760805D01*
X164730178Y-80760887D01*
X164730176Y-80760887D01*
X164644236Y-80778626D01*
X164643708Y-80778735D01*
X164643212Y-80778937D01*
X164554021Y-80815259D01*
X164554016Y-80815262D01*
X164553524Y-80815462D01*
X164456625Y-80877787D01*
X164358413Y-80964728D01*
X164357862Y-80965216D01*
X164349396Y-80968133D01*
X164341834Y-80964728D01*
X164145272Y-80768166D01*
X164141845Y-80759893D01*
X164144784Y-80752138D01*
X164177826Y-80714812D01*
X164232212Y-80653374D01*
X164294537Y-80556475D01*
X164294737Y-80555983D01*
X164294740Y-80555978D01*
X164331061Y-80466786D01*
X164331263Y-80466290D01*
X164349193Y-80379425D01*
X164355128Y-80292484D01*
X164355868Y-80202139D01*
X164355871Y-80201980D01*
X164358208Y-80105235D01*
X164358263Y-80104353D01*
X164368914Y-79997908D01*
X164369116Y-79996621D01*
X164394800Y-79876779D01*
X164395187Y-79875394D01*
X164438874Y-79749541D01*
X164444824Y-79742849D01*
X164454390Y-79742563D01*
X164471299Y-79749541D01*
G37*
%TD.AperFunction*%
%TD*%
%TA.AperFunction,Conductor*%
%TO.N,/V-A12*%
G36*
X143820647Y-107794061D02*
G01*
X143846910Y-107818879D01*
X143879708Y-107849874D01*
X143938554Y-107897878D01*
X143991594Y-107933335D01*
X144041504Y-107959319D01*
X144068031Y-107969824D01*
X144090769Y-107978829D01*
X144090775Y-107978831D01*
X144090959Y-107978904D01*
X144142636Y-107995165D01*
X144199181Y-108011168D01*
X144199263Y-108011192D01*
X144263151Y-108029950D01*
X144263529Y-108030067D01*
X144337508Y-108054662D01*
X144338014Y-108054844D01*
X144413915Y-108084141D01*
X144420399Y-108090317D01*
X144420522Y-108099507D01*
X144274563Y-108454197D01*
X144268197Y-108460563D01*
X143913507Y-108606522D01*
X143904554Y-108606501D01*
X143898141Y-108599915D01*
X143868847Y-108524022D01*
X143868659Y-108523500D01*
X143844070Y-108449537D01*
X143843947Y-108449142D01*
X143825200Y-108385291D01*
X143825168Y-108385181D01*
X143809183Y-108328700D01*
X143809165Y-108328636D01*
X143792904Y-108276959D01*
X143773319Y-108227504D01*
X143747335Y-108177594D01*
X143711878Y-108124554D01*
X143663874Y-108065708D01*
X143630079Y-108029947D01*
X143608061Y-108006647D01*
X143604870Y-107998280D01*
X143608292Y-107990338D01*
X143804338Y-107794292D01*
X143812611Y-107790865D01*
X143820647Y-107794061D01*
G37*
%TD.AperFunction*%
%TD*%
%TA.AperFunction,Conductor*%
%TO.N,/V-A13*%
G36*
X160503939Y-87629774D02*
G01*
X160718186Y-87629987D01*
X160726455Y-87633422D01*
X160729874Y-87641699D01*
X160729807Y-87642939D01*
X160716857Y-87763267D01*
X160716351Y-87765631D01*
X160679206Y-87879923D01*
X160678465Y-87881695D01*
X160626407Y-87982048D01*
X160625808Y-87983072D01*
X160566870Y-88073032D01*
X160566695Y-88073290D01*
X160509429Y-88155814D01*
X160509422Y-88155824D01*
X160509306Y-88155992D01*
X160462040Y-88234611D01*
X160433400Y-88312459D01*
X160433380Y-88313430D01*
X160433380Y-88313432D01*
X160431802Y-88391856D01*
X160431779Y-88393002D01*
X160432196Y-88394072D01*
X160441075Y-88416852D01*
X160465573Y-88479709D01*
X160466135Y-88480407D01*
X160466137Y-88480410D01*
X160536585Y-88567862D01*
X160539107Y-88576455D01*
X160535747Y-88583475D01*
X160339137Y-88780085D01*
X160330864Y-88783512D01*
X160322776Y-88780266D01*
X160228573Y-88690142D01*
X160228455Y-88690029D01*
X160139996Y-88613628D01*
X160139860Y-88613523D01*
X160062268Y-88553639D01*
X160062257Y-88553631D01*
X160062134Y-88553536D01*
X159991338Y-88504317D01*
X159924075Y-88460535D01*
X159856947Y-88416841D01*
X159856668Y-88416652D01*
X159786237Y-88367686D01*
X159785768Y-88367342D01*
X159715915Y-88313432D01*
X159708409Y-88307639D01*
X159707937Y-88307255D01*
X159619905Y-88231222D01*
X159619469Y-88230824D01*
X159525738Y-88141152D01*
X159522129Y-88132957D01*
X159525541Y-88124436D01*
X160015860Y-87632736D01*
X160024157Y-87629298D01*
X160503939Y-87629774D01*
G37*
%TD.AperFunction*%
%TD*%
%TA.AperFunction,Conductor*%
%TO.N,/V-A13*%
G36*
X170285529Y-94637486D02*
G01*
X170372328Y-94845678D01*
X170433123Y-94991498D01*
X170433123Y-95000502D01*
X170296685Y-95327757D01*
X170285530Y-95354512D01*
X170279183Y-95360830D01*
X170269992Y-95360707D01*
X170195616Y-95327757D01*
X170195114Y-95327521D01*
X170125428Y-95292609D01*
X170125062Y-95292417D01*
X170066612Y-95260500D01*
X170066511Y-95260444D01*
X170015334Y-95231845D01*
X170015252Y-95231799D01*
X169967213Y-95206756D01*
X169967010Y-95206668D01*
X169918661Y-95185750D01*
X169918653Y-95185747D01*
X169918394Y-95185635D01*
X169864729Y-95168717D01*
X169864431Y-95168658D01*
X169864428Y-95168657D01*
X169802425Y-95156338D01*
X169802420Y-95156337D01*
X169802152Y-95156284D01*
X169801878Y-95156256D01*
X169801870Y-95156255D01*
X169726826Y-95148641D01*
X169726820Y-95148641D01*
X169726597Y-95148618D01*
X169726377Y-95148612D01*
X169726365Y-95148611D01*
X169645369Y-95146321D01*
X169637196Y-95142662D01*
X169634000Y-95134626D01*
X169634000Y-94857373D01*
X169637427Y-94849100D01*
X169645368Y-94845678D01*
X169685992Y-94844529D01*
X169726365Y-94843388D01*
X169726377Y-94843387D01*
X169726597Y-94843381D01*
X169726820Y-94843358D01*
X169726826Y-94843358D01*
X169801870Y-94835744D01*
X169801878Y-94835743D01*
X169802152Y-94835715D01*
X169802420Y-94835662D01*
X169802425Y-94835661D01*
X169864428Y-94823342D01*
X169864431Y-94823341D01*
X169864729Y-94823282D01*
X169918394Y-94806364D01*
X169918653Y-94806252D01*
X169918661Y-94806249D01*
X169967010Y-94785331D01*
X169967014Y-94785329D01*
X169967213Y-94785243D01*
X170015252Y-94760200D01*
X170066511Y-94731554D01*
X170066612Y-94731498D01*
X170125062Y-94699582D01*
X170125428Y-94699390D01*
X170195114Y-94664477D01*
X170195616Y-94664241D01*
X170269992Y-94631292D01*
X170278944Y-94631074D01*
X170285529Y-94637486D01*
G37*
%TD.AperFunction*%
%TD*%
%TA.AperFunction,Conductor*%
%TO.N,/V-A14*%
G36*
X163258866Y-90169988D02*
G01*
X163267135Y-90173423D01*
X163270537Y-90182317D01*
X163267172Y-90244856D01*
X163267051Y-90246021D01*
X163257004Y-90310772D01*
X163256841Y-90311613D01*
X163243593Y-90368933D01*
X163243512Y-90369264D01*
X163229969Y-90420943D01*
X163219135Y-90468599D01*
X163214021Y-90513885D01*
X163217594Y-90558632D01*
X163232819Y-90604673D01*
X163262662Y-90653838D01*
X163262995Y-90654218D01*
X163262998Y-90654222D01*
X163302870Y-90699720D01*
X163305746Y-90708200D01*
X163302344Y-90715704D01*
X163105704Y-90912344D01*
X163097431Y-90915771D01*
X163089720Y-90912870D01*
X163044222Y-90872998D01*
X163044218Y-90872995D01*
X163043838Y-90872662D01*
X163037585Y-90868866D01*
X162995235Y-90843160D01*
X162995234Y-90843160D01*
X162994673Y-90842819D01*
X162994048Y-90842612D01*
X162994045Y-90842611D01*
X162949297Y-90827814D01*
X162949298Y-90827814D01*
X162948632Y-90827594D01*
X162947939Y-90827539D01*
X162947936Y-90827538D01*
X162904441Y-90824065D01*
X162904437Y-90824065D01*
X162903885Y-90824021D01*
X162858599Y-90829135D01*
X162858278Y-90829208D01*
X162811030Y-90839949D01*
X162811020Y-90839952D01*
X162810943Y-90839969D01*
X162781571Y-90847666D01*
X162759264Y-90853512D01*
X162758933Y-90853593D01*
X162701613Y-90866841D01*
X162700772Y-90867004D01*
X162688772Y-90868866D01*
X162636017Y-90877051D01*
X162634861Y-90877171D01*
X162598597Y-90879123D01*
X162572317Y-90880537D01*
X162563871Y-90877560D01*
X162559988Y-90868866D01*
X162559305Y-90181017D01*
X162562724Y-90172740D01*
X162571017Y-90169305D01*
X163258866Y-90169988D01*
G37*
%TD.AperFunction*%
%TD*%
%TA.AperFunction,Conductor*%
%TO.N,/V-A14*%
G36*
X173612441Y-88632989D02*
G01*
X173883308Y-88904814D01*
X173886720Y-88913094D01*
X173883002Y-88921628D01*
X173834543Y-88966842D01*
X173834007Y-88967312D01*
X173781574Y-89010570D01*
X173781244Y-89010832D01*
X173733563Y-89047368D01*
X173691043Y-89080234D01*
X173654179Y-89112435D01*
X173623294Y-89147113D01*
X173598711Y-89187408D01*
X173598514Y-89187945D01*
X173598513Y-89187948D01*
X173598128Y-89189001D01*
X173580753Y-89236462D01*
X173580664Y-89236954D01*
X173580663Y-89236958D01*
X173569807Y-89297053D01*
X173569806Y-89297062D01*
X173569742Y-89297416D01*
X173569724Y-89297786D01*
X173566548Y-89362285D01*
X173562718Y-89370380D01*
X173554862Y-89373410D01*
X173277518Y-89373410D01*
X173269245Y-89369983D01*
X173265819Y-89361894D01*
X173264406Y-89272252D01*
X173264406Y-89272239D01*
X173264404Y-89272143D01*
X173260072Y-89188862D01*
X173259989Y-89187948D01*
X173253696Y-89119159D01*
X173253688Y-89119071D01*
X173252877Y-89112705D01*
X173245936Y-89058273D01*
X173229082Y-88945788D01*
X173229047Y-88945534D01*
X173221337Y-88885071D01*
X173221292Y-88884657D01*
X173214949Y-88815315D01*
X173214916Y-88814857D01*
X173210608Y-88732031D01*
X173210593Y-88731607D01*
X173209187Y-88642390D01*
X173212484Y-88634064D01*
X173220856Y-88630506D01*
X173604124Y-88629548D01*
X173612441Y-88632989D01*
G37*
%TD.AperFunction*%
%TD*%
%TA.AperFunction,Conductor*%
%TO.N,/V-A14*%
G36*
X173565404Y-89089427D02*
G01*
X173568396Y-89094539D01*
X173579858Y-89135384D01*
X173593716Y-89182519D01*
X173607574Y-89227403D01*
X173621432Y-89270038D01*
X173635291Y-89310423D01*
X173649149Y-89348557D01*
X173663007Y-89384442D01*
X173676865Y-89418077D01*
X173690723Y-89449462D01*
X173690753Y-89449525D01*
X173702117Y-89473415D01*
X173702576Y-89482358D01*
X173701993Y-89483719D01*
X173426442Y-90028843D01*
X173419651Y-90034681D01*
X173410722Y-90034007D01*
X173405558Y-90028843D01*
X173130007Y-89483719D01*
X173129333Y-89474790D01*
X173129883Y-89473416D01*
X173141235Y-89449550D01*
X173141254Y-89449508D01*
X173141276Y-89449462D01*
X173155134Y-89418077D01*
X173168992Y-89384442D01*
X173182850Y-89348557D01*
X173196709Y-89310423D01*
X173210567Y-89270038D01*
X173224425Y-89227403D01*
X173238283Y-89182519D01*
X173252141Y-89135384D01*
X173263604Y-89094539D01*
X173269139Y-89087499D01*
X173274869Y-89086000D01*
X173557131Y-89086000D01*
X173565404Y-89089427D01*
G37*
%TD.AperFunction*%
%TD*%
%TA.AperFunction,Conductor*%
%TO.N,/V-A14*%
G36*
X173421278Y-90062993D02*
G01*
X173426442Y-90068157D01*
X173701993Y-90613282D01*
X173702667Y-90622211D01*
X173702120Y-90623579D01*
X173690723Y-90647537D01*
X173676865Y-90678922D01*
X173663007Y-90712556D01*
X173649149Y-90748441D01*
X173635291Y-90786576D01*
X173621432Y-90826960D01*
X173607574Y-90869595D01*
X173593716Y-90914480D01*
X173579858Y-90961615D01*
X173579837Y-90961690D01*
X173568396Y-91002461D01*
X173562861Y-91009501D01*
X173557131Y-91011000D01*
X173274869Y-91011000D01*
X173266596Y-91007573D01*
X173263604Y-91002461D01*
X173252162Y-90961690D01*
X173252141Y-90961615D01*
X173238283Y-90914480D01*
X173224425Y-90869595D01*
X173210567Y-90826960D01*
X173196709Y-90786576D01*
X173182850Y-90748441D01*
X173168992Y-90712556D01*
X173155134Y-90678922D01*
X173141276Y-90647537D01*
X173129883Y-90623585D01*
X173129424Y-90614642D01*
X173130007Y-90613281D01*
X173405558Y-90068157D01*
X173412349Y-90062319D01*
X173421278Y-90062993D01*
G37*
%TD.AperFunction*%
%TD*%
%TA.AperFunction,Conductor*%
%TO.N,/V-RW*%
G36*
X171047529Y-93621486D02*
G01*
X171134328Y-93829678D01*
X171195123Y-93975498D01*
X171195123Y-93984502D01*
X171058685Y-94311757D01*
X171047530Y-94338512D01*
X171041183Y-94344830D01*
X171031992Y-94344707D01*
X170957616Y-94311757D01*
X170957114Y-94311521D01*
X170887428Y-94276609D01*
X170887062Y-94276417D01*
X170828612Y-94244500D01*
X170828511Y-94244444D01*
X170777334Y-94215845D01*
X170777252Y-94215799D01*
X170729213Y-94190756D01*
X170729010Y-94190668D01*
X170680661Y-94169750D01*
X170680653Y-94169747D01*
X170680394Y-94169635D01*
X170626729Y-94152717D01*
X170626431Y-94152658D01*
X170626428Y-94152657D01*
X170564425Y-94140338D01*
X170564420Y-94140337D01*
X170564152Y-94140284D01*
X170563878Y-94140256D01*
X170563870Y-94140255D01*
X170488826Y-94132641D01*
X170488820Y-94132641D01*
X170488597Y-94132618D01*
X170488377Y-94132612D01*
X170488365Y-94132611D01*
X170407369Y-94130321D01*
X170399196Y-94126662D01*
X170396000Y-94118626D01*
X170396000Y-93841373D01*
X170399427Y-93833100D01*
X170407368Y-93829678D01*
X170447992Y-93828529D01*
X170488365Y-93827388D01*
X170488377Y-93827387D01*
X170488597Y-93827381D01*
X170488820Y-93827358D01*
X170488826Y-93827358D01*
X170563870Y-93819744D01*
X170563878Y-93819743D01*
X170564152Y-93819715D01*
X170564420Y-93819662D01*
X170564425Y-93819661D01*
X170626428Y-93807342D01*
X170626431Y-93807341D01*
X170626729Y-93807282D01*
X170680394Y-93790364D01*
X170680653Y-93790252D01*
X170680661Y-93790249D01*
X170729010Y-93769331D01*
X170729014Y-93769329D01*
X170729213Y-93769243D01*
X170777252Y-93744200D01*
X170828511Y-93715554D01*
X170828612Y-93715498D01*
X170887062Y-93683582D01*
X170887428Y-93683390D01*
X170957114Y-93648477D01*
X170957616Y-93648241D01*
X171031992Y-93615292D01*
X171040944Y-93615074D01*
X171047529Y-93621486D01*
G37*
%TD.AperFunction*%
%TD*%
%TA.AperFunction,Conductor*%
%TO.N,/V-RW*%
G36*
X164197446Y-92561499D02*
G01*
X164203859Y-92568085D01*
X164233152Y-92643977D01*
X164233340Y-92644499D01*
X164257928Y-92718461D01*
X164258051Y-92718856D01*
X164276790Y-92782679D01*
X164276822Y-92782789D01*
X164292805Y-92839266D01*
X164292814Y-92839296D01*
X164292833Y-92839363D01*
X164309094Y-92891039D01*
X164328679Y-92940495D01*
X164354664Y-92990404D01*
X164390121Y-93043444D01*
X164438125Y-93102291D01*
X164469301Y-93135281D01*
X164493939Y-93161353D01*
X164497130Y-93169720D01*
X164493708Y-93177662D01*
X164297662Y-93373708D01*
X164289389Y-93377135D01*
X164281353Y-93373939D01*
X164255281Y-93349301D01*
X164222291Y-93318125D01*
X164163444Y-93270121D01*
X164110404Y-93234664D01*
X164060495Y-93208679D01*
X164033989Y-93198182D01*
X164011229Y-93189169D01*
X164011223Y-93189167D01*
X164011039Y-93189094D01*
X164010839Y-93189031D01*
X163959485Y-93172871D01*
X163959456Y-93172862D01*
X163959363Y-93172833D01*
X163959296Y-93172814D01*
X163959266Y-93172805D01*
X163902817Y-93156830D01*
X163902707Y-93156798D01*
X163838847Y-93138048D01*
X163838469Y-93137931D01*
X163764491Y-93113337D01*
X163763985Y-93113155D01*
X163688085Y-93083859D01*
X163681601Y-93077683D01*
X163681478Y-93068492D01*
X163691786Y-93043444D01*
X163827437Y-92713803D01*
X163833803Y-92707437D01*
X164188493Y-92561478D01*
X164197446Y-92561499D01*
G37*
%TD.AperFunction*%
%TD*%
%TA.AperFunction,Conductor*%
%TO.N,/V-RW*%
G36*
X143663295Y-109748895D02*
G01*
X143692740Y-109774315D01*
X143725480Y-109799847D01*
X143758220Y-109822648D01*
X143790961Y-109842716D01*
X143791101Y-109842790D01*
X143791113Y-109842797D01*
X143815857Y-109855898D01*
X143823701Y-109860052D01*
X143856442Y-109874656D01*
X143856656Y-109874734D01*
X143856657Y-109874734D01*
X143888969Y-109886451D01*
X143888975Y-109886453D01*
X143889182Y-109886528D01*
X143921923Y-109895668D01*
X143922147Y-109895712D01*
X143922156Y-109895714D01*
X143941495Y-109899499D01*
X143954663Y-109902076D01*
X143954908Y-109902103D01*
X143954911Y-109902104D01*
X143975819Y-109904452D01*
X143983658Y-109908781D01*
X143986145Y-109917342D01*
X143521632Y-114193909D01*
X143517331Y-114201764D01*
X143508737Y-114204278D01*
X143500882Y-114199977D01*
X143498368Y-114193909D01*
X143033855Y-109917342D01*
X143036369Y-109908748D01*
X143044181Y-109904452D01*
X143065088Y-109902104D01*
X143065091Y-109902103D01*
X143065336Y-109902076D01*
X143078504Y-109899499D01*
X143097843Y-109895714D01*
X143097852Y-109895712D01*
X143098076Y-109895668D01*
X143130816Y-109886528D01*
X143131023Y-109886453D01*
X143131029Y-109886451D01*
X143163342Y-109874734D01*
X143163343Y-109874734D01*
X143163557Y-109874656D01*
X143196297Y-109860052D01*
X143204220Y-109855857D01*
X143228886Y-109842797D01*
X143228898Y-109842790D01*
X143229038Y-109842716D01*
X143261778Y-109822648D01*
X143294519Y-109799847D01*
X143327259Y-109774315D01*
X143356707Y-109748894D01*
X143364351Y-109746051D01*
X143655648Y-109746051D01*
X143663295Y-109748895D01*
G37*
%TD.AperFunction*%
%TD*%
%TA.AperFunction,Conductor*%
%TO.N,/V-RW*%
G36*
X177904512Y-91334470D02*
G01*
X177910830Y-91340817D01*
X177910707Y-91350008D01*
X177877757Y-91424383D01*
X177877521Y-91424885D01*
X177842609Y-91494570D01*
X177842417Y-91494936D01*
X177810481Y-91553421D01*
X177781799Y-91604746D01*
X177756756Y-91652785D01*
X177735635Y-91701605D01*
X177718717Y-91755270D01*
X177706284Y-91817847D01*
X177698618Y-91893401D01*
X177698612Y-91893621D01*
X177698611Y-91893633D01*
X177696321Y-91974631D01*
X177692662Y-91982804D01*
X177684626Y-91986000D01*
X177407373Y-91986000D01*
X177399100Y-91982573D01*
X177395678Y-91974631D01*
X177393388Y-91893633D01*
X177393387Y-91893621D01*
X177393381Y-91893401D01*
X177385715Y-91817847D01*
X177373282Y-91755270D01*
X177356364Y-91701605D01*
X177335243Y-91652785D01*
X177310200Y-91604746D01*
X177281517Y-91553421D01*
X177249582Y-91494936D01*
X177249390Y-91494570D01*
X177214477Y-91424885D01*
X177214241Y-91424383D01*
X177181292Y-91350008D01*
X177181074Y-91341056D01*
X177187486Y-91334471D01*
X177541498Y-91186877D01*
X177550502Y-91186877D01*
X177904512Y-91334470D01*
G37*
%TD.AperFunction*%
%TD*%
%TA.AperFunction,Conductor*%
%TO.N,/V-RW*%
G36*
X177695404Y-91364427D02*
G01*
X177698396Y-91369539D01*
X177709858Y-91410384D01*
X177723716Y-91457519D01*
X177737574Y-91502403D01*
X177751432Y-91545038D01*
X177765291Y-91585423D01*
X177779149Y-91623557D01*
X177793007Y-91659442D01*
X177806865Y-91693077D01*
X177820723Y-91724462D01*
X177820753Y-91724525D01*
X177832117Y-91748415D01*
X177832576Y-91757358D01*
X177831993Y-91758719D01*
X177556442Y-92303843D01*
X177549651Y-92309681D01*
X177540722Y-92309007D01*
X177535558Y-92303843D01*
X177260007Y-91758719D01*
X177259333Y-91749790D01*
X177259883Y-91748416D01*
X177271235Y-91724550D01*
X177271254Y-91724508D01*
X177271276Y-91724462D01*
X177285134Y-91693077D01*
X177298992Y-91659442D01*
X177312850Y-91623557D01*
X177326709Y-91585423D01*
X177340567Y-91545038D01*
X177354425Y-91502403D01*
X177368283Y-91457519D01*
X177382141Y-91410384D01*
X177393604Y-91369539D01*
X177399139Y-91362499D01*
X177404869Y-91361000D01*
X177687131Y-91361000D01*
X177695404Y-91364427D01*
G37*
%TD.AperFunction*%
%TD*%
%TA.AperFunction,Conductor*%
%TO.N,/V-RW*%
G36*
X142598512Y-104542470D02*
G01*
X142604830Y-104548817D01*
X142604707Y-104558008D01*
X142571757Y-104632383D01*
X142571521Y-104632885D01*
X142536609Y-104702570D01*
X142536417Y-104702936D01*
X142504481Y-104761421D01*
X142475799Y-104812746D01*
X142450756Y-104860785D01*
X142429635Y-104909605D01*
X142412717Y-104963270D01*
X142400284Y-105025847D01*
X142392618Y-105101401D01*
X142392612Y-105101621D01*
X142392611Y-105101633D01*
X142390321Y-105182631D01*
X142386662Y-105190804D01*
X142378626Y-105194000D01*
X142101373Y-105194000D01*
X142093100Y-105190573D01*
X142089678Y-105182631D01*
X142087388Y-105101633D01*
X142087387Y-105101621D01*
X142087381Y-105101401D01*
X142079715Y-105025847D01*
X142067282Y-104963270D01*
X142050364Y-104909605D01*
X142029243Y-104860785D01*
X142004200Y-104812746D01*
X141975517Y-104761421D01*
X141943582Y-104702936D01*
X141943390Y-104702570D01*
X141908477Y-104632885D01*
X141908241Y-104632383D01*
X141875292Y-104558008D01*
X141875074Y-104549056D01*
X141881486Y-104542471D01*
X142235498Y-104394877D01*
X142244502Y-104394877D01*
X142598512Y-104542470D01*
G37*
%TD.AperFunction*%
%TD*%
%TA.AperFunction,Conductor*%
%TO.N,/PB6*%
G36*
X165858166Y-81595272D02*
G01*
X166054728Y-81791834D01*
X166058155Y-81800107D01*
X166055216Y-81807862D01*
X165967787Y-81906625D01*
X165905462Y-82003524D01*
X165905262Y-82004016D01*
X165905259Y-82004021D01*
X165869320Y-82092271D01*
X165868735Y-82093708D01*
X165850805Y-82180574D01*
X165844871Y-82267515D01*
X165844870Y-82267668D01*
X165844130Y-82357831D01*
X165844127Y-82358018D01*
X165841790Y-82454764D01*
X165841735Y-82455646D01*
X165831084Y-82562091D01*
X165830882Y-82563378D01*
X165805199Y-82683220D01*
X165804812Y-82684605D01*
X165761126Y-82810459D01*
X165755176Y-82817151D01*
X165745610Y-82817437D01*
X165420386Y-82683220D01*
X165103788Y-82552562D01*
X165097438Y-82546212D01*
X164946542Y-82180574D01*
X164832563Y-81904390D01*
X164832574Y-81895436D01*
X164839541Y-81888874D01*
X164965394Y-81845187D01*
X164966779Y-81844800D01*
X165020502Y-81833286D01*
X165086627Y-81819115D01*
X165087902Y-81818915D01*
X165194364Y-81808262D01*
X165195224Y-81808209D01*
X165292007Y-81805871D01*
X165292139Y-81805868D01*
X165382484Y-81805128D01*
X165469425Y-81799193D01*
X165469821Y-81799111D01*
X165469823Y-81799111D01*
X165555762Y-81781372D01*
X165556290Y-81781263D01*
X165558815Y-81780235D01*
X165645978Y-81744740D01*
X165645983Y-81744737D01*
X165646475Y-81744537D01*
X165743374Y-81682212D01*
X165842138Y-81594784D01*
X165850604Y-81591867D01*
X165858166Y-81595272D01*
G37*
%TD.AperFunction*%
%TD*%
%TA.AperFunction,Conductor*%
%TO.N,/PB6*%
G36*
X142640559Y-102171312D02*
G01*
X142643986Y-102179599D01*
X142643888Y-102263342D01*
X142643888Y-102263373D01*
X142643584Y-102341977D01*
X142643584Y-102342011D01*
X142643136Y-102408009D01*
X142643123Y-102408009D01*
X142643136Y-102408041D01*
X142642592Y-102465563D01*
X142642592Y-102465582D01*
X142641408Y-102572302D01*
X142640864Y-102629875D01*
X142640416Y-102695873D01*
X142640112Y-102774511D01*
X142640014Y-102858343D01*
X142636577Y-102866612D01*
X142628343Y-102870029D01*
X142244876Y-102870988D01*
X142236559Y-102867547D01*
X142227388Y-102858343D01*
X141965912Y-102595943D01*
X141962500Y-102587663D01*
X141966439Y-102578929D01*
X141992129Y-102556154D01*
X142016506Y-102534544D01*
X142017533Y-102533732D01*
X142048746Y-102511810D01*
X142074437Y-102493767D01*
X142075273Y-102493232D01*
X142129455Y-102461677D01*
X142129857Y-102461453D01*
X142158580Y-102446203D01*
X142180456Y-102434589D01*
X142226212Y-102408849D01*
X142226457Y-102408675D01*
X142226466Y-102408669D01*
X142265454Y-102380932D01*
X142265918Y-102380602D01*
X142298561Y-102346116D01*
X142323130Y-102301657D01*
X142338614Y-102243491D01*
X142343226Y-102178754D01*
X142347232Y-102170745D01*
X142354896Y-102167885D01*
X142632286Y-102167885D01*
X142640559Y-102171312D01*
G37*
%TD.AperFunction*%
%TD*%
%TA.AperFunction,Conductor*%
%TO.N,/IRQ*%
G36*
X136043365Y-109731119D02*
G01*
X136072740Y-109758348D01*
X136072838Y-109758431D01*
X136072842Y-109758434D01*
X136105377Y-109785817D01*
X136105391Y-109785828D01*
X136105480Y-109785903D01*
X136105594Y-109785989D01*
X136138092Y-109810567D01*
X136138109Y-109810579D01*
X136138220Y-109810663D01*
X136170961Y-109832630D01*
X136181736Y-109838940D01*
X136203529Y-109851702D01*
X136203545Y-109851710D01*
X136203701Y-109851802D01*
X136236442Y-109868180D01*
X136258471Y-109877320D01*
X136268991Y-109881685D01*
X136268997Y-109881687D01*
X136269182Y-109881764D01*
X136269374Y-109881827D01*
X136269384Y-109881831D01*
X136301703Y-109892483D01*
X136301714Y-109892486D01*
X136301923Y-109892555D01*
X136334663Y-109900551D01*
X136334882Y-109900586D01*
X136334888Y-109900587D01*
X136356406Y-109904006D01*
X136364039Y-109908689D01*
X136366202Y-109916823D01*
X135932198Y-113912500D01*
X135901632Y-114193909D01*
X135897331Y-114201764D01*
X135888737Y-114204278D01*
X135880882Y-114199977D01*
X135878368Y-114193909D01*
X135840257Y-113843037D01*
X135413798Y-109916822D01*
X135416312Y-109908229D01*
X135423593Y-109904006D01*
X135438363Y-109901659D01*
X135445111Y-109900587D01*
X135445117Y-109900586D01*
X135445336Y-109900551D01*
X135478076Y-109892555D01*
X135478285Y-109892486D01*
X135478296Y-109892483D01*
X135510614Y-109881831D01*
X135510624Y-109881827D01*
X135510816Y-109881764D01*
X135511001Y-109881687D01*
X135511007Y-109881685D01*
X135543376Y-109868255D01*
X135543557Y-109868180D01*
X135576297Y-109851802D01*
X135576454Y-109851710D01*
X135576469Y-109851702D01*
X135598289Y-109838924D01*
X135609038Y-109832630D01*
X135641778Y-109810663D01*
X135674519Y-109785903D01*
X135674608Y-109785828D01*
X135674622Y-109785817D01*
X135707157Y-109758434D01*
X135707161Y-109758431D01*
X135707259Y-109758348D01*
X135736635Y-109731119D01*
X135744589Y-109728000D01*
X136035411Y-109728000D01*
X136043365Y-109731119D01*
G37*
%TD.AperFunction*%
%TD*%
%TA.AperFunction,Conductor*%
%TO.N,/IRQ*%
G36*
X164357862Y-86674784D02*
G01*
X164456625Y-86762212D01*
X164553524Y-86824537D01*
X164554016Y-86824737D01*
X164554021Y-86824740D01*
X164641492Y-86860361D01*
X164643708Y-86861263D01*
X164644236Y-86861372D01*
X164730176Y-86879111D01*
X164730178Y-86879111D01*
X164730574Y-86879193D01*
X164817515Y-86885128D01*
X164907859Y-86885868D01*
X164907991Y-86885871D01*
X165004775Y-86888209D01*
X165005635Y-86888262D01*
X165112097Y-86898915D01*
X165113372Y-86899115D01*
X165179497Y-86913286D01*
X165233220Y-86924800D01*
X165234605Y-86925187D01*
X165360459Y-86968874D01*
X165367151Y-86974824D01*
X165367437Y-86984390D01*
X165253458Y-87260574D01*
X165102562Y-87626212D01*
X165096212Y-87632562D01*
X164779614Y-87763220D01*
X164454390Y-87897437D01*
X164445436Y-87897426D01*
X164438874Y-87890459D01*
X164395187Y-87764605D01*
X164394800Y-87763220D01*
X164369116Y-87643378D01*
X164368914Y-87642091D01*
X164358263Y-87535646D01*
X164358208Y-87534764D01*
X164355871Y-87438018D01*
X164355868Y-87437831D01*
X164355129Y-87347668D01*
X164355128Y-87347515D01*
X164349193Y-87260574D01*
X164331263Y-87173708D01*
X164330361Y-87171492D01*
X164294740Y-87084021D01*
X164294737Y-87084016D01*
X164294537Y-87083524D01*
X164232212Y-86986625D01*
X164144784Y-86887862D01*
X164141867Y-86879396D01*
X164145272Y-86871834D01*
X164341834Y-86675272D01*
X164350107Y-86671845D01*
X164357862Y-86674784D01*
G37*
%TD.AperFunction*%
%TD*%
%TA.AperFunction,Conductor*%
%TO.N,/V-A15*%
G36*
X161931299Y-82289541D02*
G01*
X162556212Y-82547438D01*
X162562562Y-82553788D01*
X162599938Y-82644353D01*
X162827437Y-83195610D01*
X162827426Y-83204564D01*
X162820459Y-83211126D01*
X162694605Y-83254812D01*
X162693220Y-83255199D01*
X162639649Y-83266680D01*
X162573372Y-83280883D01*
X162572097Y-83281083D01*
X162465635Y-83291736D01*
X162464775Y-83291789D01*
X162367991Y-83294127D01*
X162367859Y-83294130D01*
X162277515Y-83294871D01*
X162190574Y-83300805D01*
X162190178Y-83300887D01*
X162190176Y-83300887D01*
X162104236Y-83318626D01*
X162103708Y-83318735D01*
X162103212Y-83318937D01*
X162014021Y-83355259D01*
X162014016Y-83355262D01*
X162013524Y-83355462D01*
X161916625Y-83417787D01*
X161818413Y-83504728D01*
X161817862Y-83505216D01*
X161809396Y-83508133D01*
X161801834Y-83504728D01*
X161605272Y-83308166D01*
X161601845Y-83299893D01*
X161604784Y-83292138D01*
X161637826Y-83254812D01*
X161692212Y-83193374D01*
X161754537Y-83096475D01*
X161754737Y-83095983D01*
X161754740Y-83095978D01*
X161791061Y-83006786D01*
X161791263Y-83006290D01*
X161809193Y-82919425D01*
X161815128Y-82832484D01*
X161815868Y-82742139D01*
X161815871Y-82741980D01*
X161818208Y-82645235D01*
X161818263Y-82644353D01*
X161828914Y-82537908D01*
X161829116Y-82536621D01*
X161854800Y-82416779D01*
X161855187Y-82415394D01*
X161898874Y-82289541D01*
X161904824Y-82282849D01*
X161914390Y-82282563D01*
X161931299Y-82289541D01*
G37*
%TD.AperFunction*%
%TD*%
%TA.AperFunction,Conductor*%
%TO.N,/V-A15*%
G36*
X172615404Y-89089427D02*
G01*
X172618396Y-89094539D01*
X172629858Y-89135384D01*
X172643716Y-89182519D01*
X172657574Y-89227403D01*
X172671432Y-89270038D01*
X172685291Y-89310423D01*
X172699149Y-89348557D01*
X172713007Y-89384442D01*
X172726865Y-89418077D01*
X172740723Y-89449462D01*
X172740753Y-89449525D01*
X172752117Y-89473415D01*
X172752576Y-89482358D01*
X172751993Y-89483719D01*
X172476442Y-90028843D01*
X172469651Y-90034681D01*
X172460722Y-90034007D01*
X172455558Y-90028843D01*
X172180007Y-89483719D01*
X172179333Y-89474790D01*
X172179883Y-89473416D01*
X172191235Y-89449550D01*
X172191254Y-89449508D01*
X172191276Y-89449462D01*
X172205134Y-89418077D01*
X172218992Y-89384442D01*
X172232850Y-89348557D01*
X172246709Y-89310423D01*
X172260567Y-89270038D01*
X172274425Y-89227403D01*
X172288283Y-89182519D01*
X172302141Y-89135384D01*
X172313604Y-89094539D01*
X172319139Y-89087499D01*
X172324869Y-89086000D01*
X172607131Y-89086000D01*
X172615404Y-89089427D01*
G37*
%TD.AperFunction*%
%TD*%
%TA.AperFunction,Conductor*%
%TO.N,/V-A15*%
G36*
X161443295Y-109748895D02*
G01*
X161472740Y-109774315D01*
X161505480Y-109799847D01*
X161538220Y-109822648D01*
X161570961Y-109842716D01*
X161571101Y-109842790D01*
X161571113Y-109842797D01*
X161595857Y-109855898D01*
X161603701Y-109860052D01*
X161636442Y-109874656D01*
X161636656Y-109874734D01*
X161636657Y-109874734D01*
X161668969Y-109886451D01*
X161668975Y-109886453D01*
X161669182Y-109886528D01*
X161701923Y-109895668D01*
X161702147Y-109895712D01*
X161702156Y-109895714D01*
X161721495Y-109899499D01*
X161734663Y-109902076D01*
X161734908Y-109902103D01*
X161734911Y-109902104D01*
X161755819Y-109904452D01*
X161763658Y-109908781D01*
X161766145Y-109917342D01*
X161301632Y-114193909D01*
X161297331Y-114201764D01*
X161288737Y-114204278D01*
X161280882Y-114199977D01*
X161278368Y-114193909D01*
X160813855Y-109917342D01*
X160816369Y-109908748D01*
X160824181Y-109904452D01*
X160845088Y-109902104D01*
X160845091Y-109902103D01*
X160845336Y-109902076D01*
X160858504Y-109899499D01*
X160877843Y-109895714D01*
X160877852Y-109895712D01*
X160878076Y-109895668D01*
X160910816Y-109886528D01*
X160911023Y-109886453D01*
X160911029Y-109886451D01*
X160943342Y-109874734D01*
X160943343Y-109874734D01*
X160943557Y-109874656D01*
X160976297Y-109860052D01*
X160984220Y-109855857D01*
X161008886Y-109842797D01*
X161008898Y-109842790D01*
X161009038Y-109842716D01*
X161041778Y-109822648D01*
X161074519Y-109799847D01*
X161107259Y-109774315D01*
X161136707Y-109748894D01*
X161144351Y-109746051D01*
X161435648Y-109746051D01*
X161443295Y-109748895D01*
G37*
%TD.AperFunction*%
%TD*%
%TA.AperFunction,Conductor*%
%TO.N,/V-A15*%
G36*
X165096197Y-105407437D02*
G01*
X165102563Y-105413803D01*
X165238214Y-105743444D01*
X165248522Y-105768492D01*
X165248501Y-105777446D01*
X165241915Y-105783859D01*
X165166014Y-105813155D01*
X165165508Y-105813337D01*
X165091529Y-105837931D01*
X165091151Y-105838048D01*
X165027209Y-105856822D01*
X164970636Y-105872833D01*
X164918959Y-105889094D01*
X164918775Y-105889167D01*
X164918769Y-105889169D01*
X164896031Y-105898174D01*
X164869504Y-105908679D01*
X164819594Y-105934664D01*
X164766554Y-105970121D01*
X164707708Y-106018125D01*
X164671028Y-106052788D01*
X164648647Y-106073939D01*
X164640280Y-106077130D01*
X164632338Y-106073708D01*
X164436292Y-105877662D01*
X164432865Y-105869389D01*
X164436061Y-105861353D01*
X164463676Y-105832130D01*
X164491874Y-105802291D01*
X164539878Y-105743444D01*
X164575335Y-105690404D01*
X164601319Y-105640495D01*
X164620904Y-105591039D01*
X164637165Y-105539363D01*
X164637184Y-105539296D01*
X164637193Y-105539266D01*
X164653176Y-105482789D01*
X164653208Y-105482679D01*
X164671947Y-105418856D01*
X164672070Y-105418461D01*
X164696659Y-105344499D01*
X164696847Y-105343977D01*
X164726141Y-105268085D01*
X164732317Y-105261601D01*
X164741507Y-105261478D01*
X165096197Y-105407437D01*
G37*
%TD.AperFunction*%
%TD*%
%TA.AperFunction,Conductor*%
%TO.N,/~{CE}*%
G36*
X151023264Y-93280227D02*
G01*
X151026669Y-93287789D01*
X151034684Y-93419446D01*
X151059131Y-93532034D01*
X151059340Y-93532530D01*
X151096724Y-93621282D01*
X151096931Y-93621774D01*
X151145676Y-93695876D01*
X151202956Y-93761549D01*
X151203072Y-93761667D01*
X151203073Y-93761668D01*
X151266288Y-93825929D01*
X151266417Y-93826063D01*
X151333183Y-93896134D01*
X151333769Y-93896797D01*
X151401503Y-93979592D01*
X151402270Y-93980644D01*
X151468851Y-94083548D01*
X151469557Y-94084801D01*
X151527659Y-94204686D01*
X151528183Y-94213626D01*
X151521621Y-94220593D01*
X150880491Y-94487133D01*
X150871509Y-94487133D01*
X150230379Y-94220593D01*
X150224055Y-94214252D01*
X150224341Y-94204686D01*
X150282441Y-94084801D01*
X150283147Y-94083548D01*
X150349729Y-93980644D01*
X150350496Y-93979592D01*
X150418229Y-93896797D01*
X150418815Y-93896134D01*
X150485581Y-93826063D01*
X150485710Y-93825929D01*
X150548925Y-93761668D01*
X150548926Y-93761667D01*
X150549042Y-93761549D01*
X150606322Y-93695876D01*
X150655067Y-93621774D01*
X150692868Y-93532034D01*
X150717315Y-93419446D01*
X150725331Y-93287789D01*
X150729254Y-93279739D01*
X150737009Y-93276800D01*
X151014991Y-93276800D01*
X151023264Y-93280227D01*
G37*
%TD.AperFunction*%
%TD*%
%TA.AperFunction,Conductor*%
%TO.N,/~{CE}*%
G36*
X151771299Y-87369541D02*
G01*
X152396212Y-87627438D01*
X152402562Y-87633788D01*
X152439938Y-87724353D01*
X152667437Y-88275610D01*
X152667426Y-88284564D01*
X152660459Y-88291126D01*
X152534605Y-88334812D01*
X152533220Y-88335199D01*
X152479649Y-88346680D01*
X152413372Y-88360883D01*
X152412097Y-88361083D01*
X152305635Y-88371736D01*
X152304775Y-88371789D01*
X152207991Y-88374127D01*
X152207859Y-88374130D01*
X152117515Y-88374871D01*
X152030574Y-88380805D01*
X152030178Y-88380887D01*
X152030176Y-88380887D01*
X151944236Y-88398626D01*
X151943708Y-88398735D01*
X151943212Y-88398937D01*
X151854021Y-88435259D01*
X151854016Y-88435262D01*
X151853524Y-88435462D01*
X151756625Y-88497787D01*
X151658413Y-88584728D01*
X151657862Y-88585216D01*
X151649396Y-88588133D01*
X151641834Y-88584728D01*
X151445272Y-88388166D01*
X151441845Y-88379893D01*
X151444784Y-88372138D01*
X151477826Y-88334812D01*
X151532212Y-88273374D01*
X151594537Y-88176475D01*
X151594737Y-88175983D01*
X151594740Y-88175978D01*
X151631061Y-88086786D01*
X151631263Y-88086290D01*
X151649193Y-87999425D01*
X151655128Y-87912484D01*
X151655868Y-87822139D01*
X151655871Y-87821980D01*
X151658208Y-87725235D01*
X151658263Y-87724353D01*
X151668914Y-87617908D01*
X151669116Y-87616621D01*
X151694800Y-87496779D01*
X151695187Y-87495394D01*
X151738874Y-87369541D01*
X151744824Y-87362849D01*
X151754390Y-87362563D01*
X151771299Y-87369541D01*
G37*
%TD.AperFunction*%
%TD*%
%TA.AperFunction,Conductor*%
%TO.N,/~{CE}*%
G36*
X172311288Y-93358561D02*
G01*
X172414108Y-93453977D01*
X172414302Y-93454128D01*
X172414310Y-93454135D01*
X172509810Y-93528555D01*
X172512460Y-93530620D01*
X172512682Y-93530762D01*
X172512689Y-93530767D01*
X172601060Y-93587300D01*
X172601069Y-93587305D01*
X172601264Y-93587430D01*
X172683703Y-93631020D01*
X172683823Y-93631076D01*
X172683829Y-93631079D01*
X172762959Y-93667999D01*
X172841959Y-93704858D01*
X172842477Y-93705116D01*
X172911598Y-93741664D01*
X172924224Y-93748340D01*
X172925060Y-93748827D01*
X173012999Y-93805085D01*
X173013886Y-93805712D01*
X173111416Y-93881713D01*
X173112183Y-93882366D01*
X173214004Y-93976856D01*
X173217737Y-93984995D01*
X173214330Y-93993694D01*
X172724140Y-94485264D01*
X172715843Y-94488702D01*
X172490060Y-94488478D01*
X172021535Y-94488013D01*
X172013267Y-94484578D01*
X172009848Y-94476301D01*
X172009891Y-94475311D01*
X172019880Y-94359100D01*
X172020201Y-94357206D01*
X172048668Y-94245759D01*
X172049138Y-94244318D01*
X172088419Y-94145910D01*
X172088779Y-94145099D01*
X172132220Y-94056445D01*
X172132250Y-94056383D01*
X172172856Y-93974732D01*
X172172964Y-93974515D01*
X172203827Y-93896727D01*
X172217947Y-93819852D01*
X172208428Y-93740721D01*
X172191497Y-93704978D01*
X172168688Y-93656828D01*
X172168687Y-93656826D01*
X172168375Y-93656168D01*
X172140346Y-93622473D01*
X172097721Y-93571232D01*
X172095065Y-93562681D01*
X172098443Y-93555477D01*
X172295056Y-93358864D01*
X172303329Y-93355437D01*
X172311288Y-93358561D01*
G37*
%TD.AperFunction*%
%TD*%
%TA.AperFunction,Conductor*%
%TO.N,/~{CE}*%
G36*
X171813550Y-92260426D02*
G01*
X171818644Y-92267607D01*
X171837824Y-92349073D01*
X171859648Y-92439522D01*
X171881472Y-92527720D01*
X171903296Y-92613669D01*
X171925121Y-92697367D01*
X171925134Y-92697417D01*
X171946945Y-92778816D01*
X171968749Y-92857943D01*
X171968769Y-92858014D01*
X171990593Y-92934959D01*
X171990594Y-92934963D01*
X172012418Y-93009662D01*
X172032225Y-93075411D01*
X172031330Y-93084321D01*
X172029295Y-93087059D01*
X171831421Y-93284933D01*
X171823148Y-93288360D01*
X171814875Y-93284933D01*
X171813960Y-93283903D01*
X171789831Y-93253293D01*
X171757552Y-93214594D01*
X171725273Y-93178144D01*
X171692994Y-93143945D01*
X171660715Y-93111996D01*
X171628436Y-93082296D01*
X171628218Y-93082111D01*
X171596254Y-93054929D01*
X171596239Y-93054917D01*
X171596157Y-93054847D01*
X171596084Y-93054790D01*
X171596073Y-93054781D01*
X171563964Y-93029715D01*
X171563960Y-93029712D01*
X171563878Y-93029648D01*
X171531599Y-93006699D01*
X171531489Y-93006629D01*
X171531478Y-93006621D01*
X171504860Y-92989552D01*
X171499746Y-92982201D01*
X171499479Y-92979421D01*
X171504311Y-92778816D01*
X171515072Y-92331957D01*
X171518697Y-92323770D01*
X171524244Y-92320816D01*
X171679177Y-92286595D01*
X171804733Y-92258864D01*
X171813550Y-92260426D01*
G37*
%TD.AperFunction*%
%TD*%
%TA.AperFunction,Conductor*%
%TO.N,/~{OE}*%
G36*
X178050166Y-95057272D02*
G01*
X178246728Y-95253834D01*
X178250155Y-95262107D01*
X178247216Y-95269862D01*
X178159787Y-95368625D01*
X178097462Y-95465524D01*
X178097262Y-95466016D01*
X178097259Y-95466021D01*
X178061320Y-95554271D01*
X178060735Y-95555708D01*
X178042805Y-95642574D01*
X178036871Y-95729515D01*
X178036870Y-95729668D01*
X178036130Y-95819831D01*
X178036127Y-95820018D01*
X178033790Y-95916764D01*
X178033735Y-95917646D01*
X178023084Y-96024091D01*
X178022882Y-96025378D01*
X177997199Y-96145220D01*
X177996812Y-96146605D01*
X177953126Y-96272459D01*
X177947176Y-96279151D01*
X177937610Y-96279437D01*
X177612386Y-96145220D01*
X177295788Y-96014562D01*
X177289438Y-96008212D01*
X177138542Y-95642574D01*
X177024563Y-95366390D01*
X177024574Y-95357436D01*
X177031541Y-95350874D01*
X177157394Y-95307187D01*
X177158779Y-95306800D01*
X177212502Y-95295286D01*
X177278627Y-95281115D01*
X177279902Y-95280915D01*
X177386364Y-95270262D01*
X177387224Y-95270209D01*
X177484007Y-95267871D01*
X177484139Y-95267868D01*
X177574484Y-95267128D01*
X177661425Y-95261193D01*
X177661821Y-95261111D01*
X177661823Y-95261111D01*
X177747762Y-95243372D01*
X177748290Y-95243263D01*
X177750815Y-95242235D01*
X177837978Y-95206740D01*
X177837983Y-95206737D01*
X177838475Y-95206537D01*
X177935374Y-95144212D01*
X178034138Y-95056784D01*
X178042604Y-95053867D01*
X178050166Y-95057272D01*
G37*
%TD.AperFunction*%
%TD*%
%TA.AperFunction,Conductor*%
%TO.N,/~{OE}*%
G36*
X154197862Y-95056784D02*
G01*
X154296625Y-95144212D01*
X154393524Y-95206537D01*
X154394016Y-95206737D01*
X154394021Y-95206740D01*
X154481492Y-95242361D01*
X154483708Y-95243263D01*
X154484236Y-95243372D01*
X154570176Y-95261111D01*
X154570178Y-95261111D01*
X154570574Y-95261193D01*
X154657515Y-95267128D01*
X154747859Y-95267868D01*
X154747991Y-95267871D01*
X154844775Y-95270209D01*
X154845635Y-95270262D01*
X154952097Y-95280915D01*
X154953372Y-95281115D01*
X155019497Y-95295286D01*
X155073220Y-95306800D01*
X155074605Y-95307187D01*
X155200459Y-95350874D01*
X155207151Y-95356824D01*
X155207437Y-95366390D01*
X155093458Y-95642574D01*
X154942562Y-96008212D01*
X154936212Y-96014562D01*
X154619614Y-96145220D01*
X154294390Y-96279437D01*
X154285436Y-96279426D01*
X154278874Y-96272459D01*
X154235187Y-96146605D01*
X154234800Y-96145220D01*
X154209116Y-96025378D01*
X154208914Y-96024091D01*
X154198263Y-95917646D01*
X154198208Y-95916764D01*
X154195871Y-95820018D01*
X154195868Y-95819831D01*
X154195129Y-95729668D01*
X154195128Y-95729515D01*
X154189193Y-95642574D01*
X154171263Y-95555708D01*
X154170361Y-95553492D01*
X154134740Y-95466021D01*
X154134737Y-95466016D01*
X154134537Y-95465524D01*
X154072212Y-95368625D01*
X153984784Y-95269862D01*
X153981867Y-95261396D01*
X153985272Y-95253834D01*
X154181834Y-95057272D01*
X154190107Y-95053845D01*
X154197862Y-95056784D01*
G37*
%TD.AperFunction*%
%TD*%
%TA.AperFunction,Conductor*%
%TO.N,/~{OE}*%
G36*
X178794531Y-89928544D02*
G01*
X178800671Y-89934492D01*
X178822208Y-89981783D01*
X178848417Y-90037080D01*
X178874626Y-90090127D01*
X178900835Y-90140924D01*
X178927044Y-90189472D01*
X178953253Y-90235769D01*
X178979462Y-90279816D01*
X179005671Y-90321613D01*
X179031880Y-90361160D01*
X179031923Y-90361221D01*
X179052436Y-90390412D01*
X179054389Y-90399151D01*
X179051136Y-90405412D01*
X178848363Y-90608185D01*
X178842637Y-90611331D01*
X178833119Y-90613454D01*
X178833106Y-90613457D01*
X178832866Y-90613511D01*
X178832635Y-90613583D01*
X178832631Y-90613584D01*
X178819975Y-90617526D01*
X178819966Y-90617529D01*
X178819774Y-90617589D01*
X178813248Y-90620197D01*
X178806889Y-90622739D01*
X178806883Y-90622742D01*
X178806682Y-90622822D01*
X178793591Y-90629210D01*
X178793401Y-90629319D01*
X178793400Y-90629320D01*
X178780663Y-90636659D01*
X178780651Y-90636666D01*
X178780499Y-90636754D01*
X178780363Y-90636844D01*
X178780349Y-90636853D01*
X178767860Y-90645152D01*
X178767407Y-90645453D01*
X178767276Y-90645552D01*
X178767267Y-90645558D01*
X178757722Y-90652744D01*
X178754316Y-90655308D01*
X178741224Y-90666318D01*
X178728140Y-90678477D01*
X178728139Y-90678477D01*
X178728132Y-90678484D01*
X178728129Y-90678481D01*
X178719823Y-90681783D01*
X178711601Y-90678237D01*
X178708919Y-90673862D01*
X178574443Y-90279758D01*
X178498847Y-90058209D01*
X178499418Y-90049274D01*
X178505473Y-90043610D01*
X178521366Y-90037080D01*
X178785576Y-89928519D01*
X178794531Y-89928544D01*
G37*
%TD.AperFunction*%
%TD*%
%TA.AperFunction,Conductor*%
%TO.N,/~{OE}*%
G36*
X154311299Y-87369541D02*
G01*
X154936212Y-87627438D01*
X154942562Y-87633788D01*
X154979938Y-87724353D01*
X155207437Y-88275610D01*
X155207426Y-88284564D01*
X155200459Y-88291126D01*
X155074605Y-88334812D01*
X155073220Y-88335199D01*
X155019649Y-88346680D01*
X154953372Y-88360883D01*
X154952097Y-88361083D01*
X154845635Y-88371736D01*
X154844775Y-88371789D01*
X154747991Y-88374127D01*
X154747859Y-88374130D01*
X154657515Y-88374871D01*
X154570574Y-88380805D01*
X154570178Y-88380887D01*
X154570176Y-88380887D01*
X154484236Y-88398626D01*
X154483708Y-88398735D01*
X154483212Y-88398937D01*
X154394021Y-88435259D01*
X154394016Y-88435262D01*
X154393524Y-88435462D01*
X154296625Y-88497787D01*
X154198413Y-88584728D01*
X154197862Y-88585216D01*
X154189396Y-88588133D01*
X154181834Y-88584728D01*
X153985272Y-88388166D01*
X153981845Y-88379893D01*
X153984784Y-88372138D01*
X154017826Y-88334812D01*
X154072212Y-88273374D01*
X154134537Y-88176475D01*
X154134737Y-88175983D01*
X154134740Y-88175978D01*
X154171061Y-88086786D01*
X154171263Y-88086290D01*
X154189193Y-87999425D01*
X154195128Y-87912484D01*
X154195868Y-87822139D01*
X154195871Y-87821980D01*
X154198208Y-87725235D01*
X154198263Y-87724353D01*
X154208914Y-87617908D01*
X154209116Y-87616621D01*
X154234800Y-87496779D01*
X154235187Y-87495394D01*
X154278874Y-87369541D01*
X154284824Y-87362849D01*
X154294390Y-87362563D01*
X154311299Y-87369541D01*
G37*
%TD.AperFunction*%
%TD*%
M02*
