M48
; DRILL file {KiCad 7.0.6} date Tue Aug  8 09:29:56 2023
; FORMAT={-:-/ absolute / inch / decimal}
; #@! TF.CreationDate,2023-08-08T09:29:56+02:00
; #@! TF.GenerationSoftware,Kicad,Pcbnew,7.0.6
; #@! TF.FileFunction,Plated,1,2,PTH
FMAT,2
INCH
; #@! TA.AperFunction,Plated,PTH,ViaDrill
T1C0.0157
; #@! TA.AperFunction,Plated,PTH,ComponentDrill
T2C0.0315
%
G90
G05
T1
X5.35Y-2.95
X5.35Y-3.825
X5.35Y-4.125
X5.6Y-4.05
X5.6Y-4.11
X5.68Y-4.27
X5.7Y-3.38
X5.7Y-3.5
X5.7Y-3.61
X5.7Y-3.73
X5.7Y-3.84
X5.7Y-3.95
X5.75Y-4.17
X5.75Y-4.22
X5.75Y-4.27
X5.8Y-4.17
X5.8Y-4.22
X5.8Y-4.27
X6.45Y-3.65
X6.5Y-3.515
X6.5Y-4.15
X6.59Y-3.2
X6.64Y-3.03
X6.71Y-3.74
X6.74Y-3.7
X6.745Y-3.4909
X6.77Y-3.19
X6.77Y-3.27
X6.835Y-3.4894
X6.9Y-3.26
X6.945Y-3.425
X6.945Y-3.71
X6.99Y-3.59
X6.99Y-3.71
X7.04Y-3.425
X7.05Y-2.95
X7.05Y-3.825
X7.05Y-4.125
T2
X5.9Y-3.15
X5.9Y-3.25
X5.9Y-3.35
X5.9Y-3.45
X5.94Y-3.72
X6.0Y-3.05
X6.0Y-3.15
X6.0Y-3.25
X6.0Y-3.35
X6.0Y-3.45
X6.0Y-3.55
X6.1Y-3.05
X6.1Y-3.15
X6.1Y-3.45
X6.1Y-3.55
X6.1Y-3.78
X6.2Y-3.05
X6.2Y-3.15
X6.2Y-3.45
X6.2Y-3.55
X6.3Y-3.05
X6.3Y-3.15
X6.3Y-3.45
X6.3Y-3.55
X6.4Y-3.05
X6.4Y-3.15
X6.4Y-3.25
X6.4Y-3.35
X6.4Y-3.45
X6.4Y-3.55
X6.5Y-3.15
X6.5Y-3.25
X6.5Y-3.35
X6.5Y-3.45
X6.8Y-3.72
X6.98Y-3.78
T0
M30
