%TF.GenerationSoftware,KiCad,Pcbnew,7.0.6*%
%TF.CreationDate,2023-08-08T09:29:53+02:00*%
%TF.ProjectId,Vectorblade_PLCC32_THT_Kicad7,56656374-6f72-4626-9c61-64655f504c43,rev?*%
%TF.SameCoordinates,Original*%
%TF.FileFunction,Copper,L1,Top*%
%TF.FilePolarity,Positive*%
%FSLAX46Y46*%
G04 Gerber Fmt 4.6, Leading zero omitted, Abs format (unit mm)*
G04 Created by KiCad (PCBNEW 7.0.6) date 2023-08-08 09:29:53*
%MOMM*%
%LPD*%
G01*
G04 APERTURE LIST*
G04 Aperture macros list*
%AMRoundRect*
0 Rectangle with rounded corners*
0 $1 Rounding radius*
0 $2 $3 $4 $5 $6 $7 $8 $9 X,Y pos of 4 corners*
0 Add a 4 corners polygon primitive as box body*
4,1,4,$2,$3,$4,$5,$6,$7,$8,$9,$2,$3,0*
0 Add four circle primitives for the rounded corners*
1,1,$1+$1,$2,$3*
1,1,$1+$1,$4,$5*
1,1,$1+$1,$6,$7*
1,1,$1+$1,$8,$9*
0 Add four rect primitives between the rounded corners*
20,1,$1+$1,$2,$3,$4,$5,0*
20,1,$1+$1,$4,$5,$6,$7,0*
20,1,$1+$1,$6,$7,$8,$9,0*
20,1,$1+$1,$8,$9,$2,$3,0*%
G04 Aperture macros list end*
%TA.AperFunction,ComponentPad*%
%ADD10C,1.422400*%
%TD*%
%TA.AperFunction,ComponentPad*%
%ADD11R,1.422400X1.422400*%
%TD*%
%TA.AperFunction,SMDPad,CuDef*%
%ADD12RoundRect,0.666750X-0.222250X-3.778250X0.222250X-3.778250X0.222250X3.778250X-0.222250X3.778250X0*%
%TD*%
%TA.AperFunction,SMDPad,CuDef*%
%ADD13RoundRect,0.150000X0.150000X-0.512500X0.150000X0.512500X-0.150000X0.512500X-0.150000X-0.512500X0*%
%TD*%
%TA.AperFunction,SMDPad,CuDef*%
%ADD14RoundRect,0.250000X-0.325000X-0.650000X0.325000X-0.650000X0.325000X0.650000X-0.325000X0.650000X0*%
%TD*%
%TA.AperFunction,SMDPad,CuDef*%
%ADD15RoundRect,0.150000X-0.150000X0.512500X-0.150000X-0.512500X0.150000X-0.512500X0.150000X0.512500X0*%
%TD*%
%TA.AperFunction,ViaPad*%
%ADD16C,0.800000*%
%TD*%
%TA.AperFunction,Conductor*%
%ADD17C,0.300000*%
%TD*%
%TA.AperFunction,Conductor*%
%ADD18C,1.240000*%
%TD*%
%TA.AperFunction,Conductor*%
%ADD19C,1.000000*%
%TD*%
%TA.AperFunction,Conductor*%
%ADD20C,0.600000*%
%TD*%
G04 APERTURE END LIST*
D10*
%TO.P,,22,CE*%
%TO.N,/~{CE}*%
X150876000Y-94488000D03*
%TD*%
D11*
%TO.P,U1,1,NC*%
%TO.N,unconnected-(U1-Pad1)*%
X162560000Y-85090000D03*
D10*
%TO.P,U1,2,A16*%
%TO.N,/PB6*%
X165100000Y-82550000D03*
%TO.P,U1,3,A15*%
%TO.N,/V-A15*%
X162560000Y-82550000D03*
%TO.P,U1,4,A12*%
%TO.N,/V-A12*%
X165100000Y-80010000D03*
%TO.P,U1,5,A7*%
%TO.N,/V-A7*%
X162560000Y-77470000D03*
%TO.P,U1,6,A6*%
%TO.N,/V-A6*%
X162560000Y-80010000D03*
%TO.P,U1,7,A5*%
%TO.N,/V-A5*%
X160020000Y-77470000D03*
%TO.P,U1,8,A4*%
%TO.N,/V-A4*%
X160020000Y-80010000D03*
%TO.P,U1,9,A3*%
%TO.N,/V-A3*%
X157480000Y-77470000D03*
%TO.P,U1,10,A2*%
%TO.N,/V-A2*%
X157480000Y-80010000D03*
%TO.P,U1,11,A1*%
%TO.N,/V-A1*%
X154940000Y-77470000D03*
%TO.P,U1,12,A0*%
%TO.N,/V-A0*%
X154940000Y-80010000D03*
%TO.P,U1,13,D0*%
%TO.N,/V-D0*%
X152400000Y-77470000D03*
%TO.P,U1,14,D1*%
%TO.N,/V-D1*%
X149860000Y-80010000D03*
%TO.P,U1,15,D2*%
%TO.N,/V-D2*%
X152400000Y-80010000D03*
%TO.P,U1,16,GND*%
%TO.N,GND*%
X149860000Y-82550000D03*
%TO.P,U1,17,D3*%
%TO.N,/V-D3*%
X152400000Y-82550000D03*
%TO.P,U1,18,D4*%
%TO.N,/V-D4*%
X149860000Y-85090000D03*
%TO.P,U1,19,D5*%
%TO.N,/V-D5*%
X152400000Y-85090000D03*
%TO.P,U1,20,D6*%
%TO.N,/V-D6*%
X149860000Y-87630000D03*
%TO.P,U1,21,D7*%
%TO.N,/V-D7*%
X152400000Y-90170000D03*
%TO.P,U1,22,CE*%
%TO.N,/~{CE}*%
X152400000Y-87630000D03*
%TO.P,U1,23,A10*%
%TO.N,/V-A10*%
X154940000Y-90170000D03*
%TO.P,U1,24,OE*%
%TO.N,/~{OE}*%
X154940000Y-87630000D03*
%TO.P,U1,25,A11*%
%TO.N,/V-A11*%
X157480000Y-90170000D03*
%TO.P,U1,26,A9*%
%TO.N,/V-A9*%
X157480000Y-87630000D03*
%TO.P,U1,27,A8*%
%TO.N,/V-A8*%
X160020000Y-90170000D03*
%TO.P,U1,28,A13*%
%TO.N,/V-A13*%
X160020000Y-87630000D03*
%TO.P,U1,29,A14*%
%TO.N,/V-A14*%
X162560000Y-90170000D03*
%TO.P,U1,30,A17*%
%TO.N,/IRQ*%
X165100000Y-87630000D03*
%TO.P,U1,31,PGM*%
%TO.N,/V-RW*%
X162560000Y-87630000D03*
%TO.P,U1,32,VCC*%
%TO.N,+5V*%
X165100000Y-85090000D03*
%TD*%
D12*
%TO.P,CON3,2,VCC*%
%TO.N,+5V*%
X179070000Y-114300000D03*
%TO.P,CON3,4,VCC2*%
X176530000Y-114300000D03*
%TO.P,CON3,6,A8*%
%TO.N,/V-A8*%
X173990000Y-114300000D03*
%TO.P,CON3,8,A9*%
%TO.N,/V-A9*%
X171450000Y-114300000D03*
%TO.P,CON3,10,A11*%
%TO.N,/V-A11*%
X168910000Y-114300000D03*
%TO.P,CON3,12,OE*%
%TO.N,unconnected-(CON3-Pad12)*%
X166370000Y-114300000D03*
%TO.P,CON3,14,A10*%
%TO.N,/V-A10*%
X163830000Y-114300000D03*
%TO.P,CON3,16,CE*%
%TO.N,/V-A15*%
X161290000Y-114300000D03*
%TO.P,CON3,18,D7*%
%TO.N,/V-D7*%
X158750000Y-114300000D03*
%TO.P,CON3,20,D6*%
%TO.N,/V-D6*%
X156210000Y-114300000D03*
%TO.P,CON3,22,D5*%
%TO.N,/V-D5*%
X153670000Y-114300000D03*
%TO.P,CON3,24,D4*%
%TO.N,/V-D4*%
X151130000Y-114300000D03*
%TO.P,CON3,26,D3*%
%TO.N,/V-D3*%
X148590000Y-114300000D03*
%TO.P,CON3,28,GND2*%
%TO.N,GND*%
X146050000Y-114300000D03*
%TO.P,CON3,30,RW*%
%TO.N,/V-RW*%
X143510000Y-114300000D03*
%TO.P,CON3,32,CART*%
%TO.N,unconnected-(CON3-Pad32)*%
X140970000Y-114300000D03*
%TO.P,CON3,34,NMI*%
%TO.N,unconnected-(CON3-Pad34)*%
X138430000Y-114300000D03*
%TO.P,CON3,36,IRQ*%
%TO.N,/IRQ*%
X135890000Y-114300000D03*
%TD*%
D10*
%TO.P,,22,CE*%
%TO.N,/~{OE}*%
X177292000Y-96012000D03*
%TD*%
D13*
%TO.P,U3,1*%
%TO.N,N/C*%
X176596000Y-92323500D03*
%TO.P,U3,2*%
%TO.N,/V-RW*%
X177546000Y-92323500D03*
%TO.P,U3,3,GND*%
%TO.N,GND*%
X178496000Y-92323500D03*
%TO.P,U3,4*%
%TO.N,/~{OE}*%
X178496000Y-90048500D03*
%TO.P,U3,5,VCC*%
%TO.N,+5V*%
X176596000Y-90048500D03*
%TD*%
D14*
%TO.P,C1,1,1*%
%TO.N,+5V*%
X173023000Y-85090000D03*
%TO.P,C1,2,2*%
%TO.N,GND*%
X175973000Y-85090000D03*
%TD*%
D10*
%TO.P,,24,OE*%
%TO.N,/~{OE}*%
X154940000Y-96012000D03*
%TD*%
%TO.P,,24,OE*%
%TO.N,/~{CE}*%
X172720000Y-94488000D03*
%TD*%
D15*
%TO.P,U2,1*%
%TO.N,/V-A14*%
X173416000Y-90048500D03*
%TO.P,U2,2*%
%TO.N,/V-A15*%
X172466000Y-90048500D03*
%TO.P,U2,3,GND*%
%TO.N,GND*%
X171516000Y-90048500D03*
%TO.P,U2,4*%
%TO.N,/~{CE}*%
X171516000Y-92323500D03*
%TO.P,U2,5,VCC*%
%TO.N,+5V*%
X173416000Y-92323500D03*
%TD*%
D16*
%TO.N,GND*%
X135890000Y-104775000D03*
X175260000Y-82804000D03*
X146050000Y-107188000D03*
X171323000Y-88667977D03*
X147320000Y-105918000D03*
X144780000Y-97536000D03*
X135890000Y-97155000D03*
X177546000Y-94234000D03*
X168656000Y-76962000D03*
X147320000Y-108458000D03*
X144780000Y-94742000D03*
X135890000Y-74930000D03*
X144780000Y-85852000D03*
X171958000Y-81026000D03*
X178816000Y-86995000D03*
X179070000Y-97155000D03*
X179070000Y-74930000D03*
X146050000Y-108458000D03*
X144780000Y-91694000D03*
X171958000Y-83058000D03*
X176403000Y-94234000D03*
X147320000Y-107188000D03*
X176403000Y-86995000D03*
X144780000Y-88900000D03*
X146050000Y-105918000D03*
X144780000Y-100330000D03*
X179070000Y-104775000D03*
%TO.N,/V-A5*%
X167386000Y-81280000D03*
%TO.N,/V-A12*%
X144272000Y-108458000D03*
%TO.N,/V-A13*%
X170434000Y-94996000D03*
%TO.N,/V-A14*%
X173609000Y-88630536D03*
%TO.N,/V-RW*%
X177546000Y-91186000D03*
X171196000Y-93980000D03*
X163830000Y-92710000D03*
X142240000Y-104394000D03*
%TO.N,/PB6*%
X142240000Y-102870000D03*
%TO.N,/V-A15*%
X165100000Y-105410000D03*
X165100000Y-89281000D03*
%TD*%
D17*
%TO.N,/V-A14*%
X172916000Y-91186000D02*
G75*
G03*
X173416000Y-90686000I0J500000D01*
G01*
%TO.N,GND*%
X177546000Y-94234000D02*
X178496000Y-93284000D01*
X171323000Y-88667977D02*
X171516000Y-88860977D01*
D18*
X149860000Y-82550000D02*
X148336000Y-82550000D01*
D17*
X178496000Y-93284000D02*
X178496000Y-92323500D01*
X171516000Y-88860977D02*
X171516000Y-90048500D01*
D19*
%TO.N,+5V*%
X172720000Y-100711382D02*
X172720000Y-100964618D01*
D20*
X176596000Y-90048500D02*
X175006000Y-90048500D01*
D19*
X175006000Y-88564685D02*
X175006000Y-95192462D01*
X173023000Y-85090000D02*
X165100000Y-85090000D01*
X173023000Y-85090000D02*
X173023000Y-85869250D01*
X176530000Y-114300000D02*
X176530000Y-106680000D01*
X174067309Y-104217309D02*
X176530000Y-106680000D01*
X176530000Y-106680000D02*
X178698026Y-108848026D01*
X179070000Y-109746051D02*
X179070000Y-114300000D01*
X173023000Y-85869250D02*
X174502233Y-87348483D01*
D20*
X173416000Y-92323500D02*
X175006000Y-92323500D01*
D19*
X174067318Y-97458700D02*
G75*
G03*
X172720000Y-100711382I3252682J-3252700D01*
G01*
X175006001Y-88564685D02*
G75*
G03*
X174502232Y-87348484I-1720001J-15D01*
G01*
X174067336Y-97458718D02*
G75*
G03*
X175006000Y-95192462I-2266336J2266218D01*
G01*
X179070034Y-109746051D02*
G75*
G03*
X178698026Y-108848026I-1270034J-49D01*
G01*
X172719988Y-100964618D02*
G75*
G03*
X174067309Y-104217309I4600012J18D01*
G01*
D17*
%TO.N,/V-A8*%
X173618025Y-106308025D02*
X160391974Y-93081974D01*
X160020000Y-92183949D02*
X160020000Y-90170000D01*
X173990000Y-114300000D02*
X173990000Y-107206051D01*
X160019966Y-92183949D02*
G75*
G03*
X160391974Y-93081974I1270034J49D01*
G01*
X173990034Y-107206051D02*
G75*
G03*
X173618025Y-106308025I-1270034J-49D01*
G01*
%TO.N,/V-A5*%
X164573949Y-76200000D02*
X161816051Y-76200000D01*
X167014025Y-78114025D02*
X165471974Y-76571974D01*
X160918025Y-76571975D02*
X160020000Y-77470000D01*
X167386000Y-81280000D02*
X167386000Y-79012051D01*
X167386034Y-79012051D02*
G75*
G03*
X167014025Y-78114025I-1270034J-49D01*
G01*
X161816051Y-76199966D02*
G75*
G03*
X160918025Y-76571975I49J-1270034D01*
G01*
X165471950Y-76571998D02*
G75*
G03*
X164573949Y-76200000I-898050J-898002D01*
G01*
%TO.N,/V-A9*%
X158378025Y-88528025D02*
X157480000Y-87630000D01*
X171078025Y-105038025D02*
X159121974Y-93081974D01*
X158750000Y-92183949D02*
X158750000Y-89426051D01*
X171450000Y-114300000D02*
X171450000Y-105936051D01*
X171450034Y-105936051D02*
G75*
G03*
X171078025Y-105038025I-1270034J-49D01*
G01*
X158749966Y-92183949D02*
G75*
G03*
X159121974Y-93081974I1270034J49D01*
G01*
X158750034Y-89426051D02*
G75*
G03*
X158378025Y-88528025I-1270034J-49D01*
G01*
%TO.N,/V-A11*%
X168910000Y-114300000D02*
X168910000Y-104666051D01*
X168538025Y-103768025D02*
X157851974Y-93081974D01*
X157480000Y-92183949D02*
X157480000Y-90170000D01*
X168910034Y-104666051D02*
G75*
G03*
X168538025Y-103768025I-1270034J-49D01*
G01*
X157479966Y-92183949D02*
G75*
G03*
X157851974Y-93081974I1270034J49D01*
G01*
%TO.N,/V-A10*%
X166370000Y-105518949D02*
X166370000Y-103396051D01*
X164201975Y-108213025D02*
X165998026Y-106416974D01*
X165998025Y-102498025D02*
X155311974Y-91811974D01*
X154940000Y-90913949D02*
X154940000Y-90170000D01*
X163830000Y-114300000D02*
X163830000Y-109111051D01*
X154939966Y-90913949D02*
G75*
G03*
X155311974Y-91811974I1270034J49D01*
G01*
X165998002Y-106416950D02*
G75*
G03*
X166370000Y-105518949I-898002J898050D01*
G01*
X164201999Y-108213049D02*
G75*
G03*
X163830000Y-109111051I898001J-898051D01*
G01*
X166370034Y-103396051D02*
G75*
G03*
X165998025Y-102498025I-1270034J-49D01*
G01*
%TO.N,/V-D7*%
X152400000Y-103613949D02*
X152400000Y-90170000D01*
X157750000Y-108712000D02*
X157386214Y-108712000D01*
X156679107Y-108419107D02*
X152771974Y-104511974D01*
X158750000Y-114300000D02*
X158750000Y-109712000D01*
X152399966Y-103613949D02*
G75*
G03*
X152771974Y-104511974I1270034J49D01*
G01*
X158750000Y-109712000D02*
G75*
G03*
X157750000Y-108712000I-1000000J0D01*
G01*
X156679100Y-108419114D02*
G75*
G03*
X157386214Y-108712000I707100J707114D01*
G01*
%TO.N,/V-D6*%
X149352000Y-88138000D02*
X149352000Y-101835949D01*
X149723975Y-102733975D02*
X155838026Y-108848026D01*
X156210000Y-109746051D02*
X156210000Y-114300000D01*
X149860000Y-87630000D02*
X149352000Y-88138000D01*
X149351966Y-101835949D02*
G75*
G03*
X149723975Y-102733975I1270034J49D01*
G01*
X156210034Y-109746051D02*
G75*
G03*
X155838026Y-108848026I-1270034J-49D01*
G01*
%TO.N,/V-D5*%
X149860000Y-86360000D02*
X150603949Y-86360000D01*
X151501975Y-85988025D02*
X152400000Y-85090000D01*
X153670000Y-114300000D02*
X153670000Y-108476051D01*
X153298025Y-107578025D02*
X148961974Y-103241974D01*
X148590000Y-102343949D02*
X148590000Y-87630000D01*
X150603949Y-86360034D02*
G75*
G03*
X151501975Y-85988025I-49J1270034D01*
G01*
X153670034Y-108476051D02*
G75*
G03*
X153298025Y-107578025I-1270034J-49D01*
G01*
X148589966Y-102343949D02*
G75*
G03*
X148961974Y-103241974I1270034J49D01*
G01*
X149860000Y-86360000D02*
G75*
G03*
X148590000Y-87630000I0J-1270000D01*
G01*
%TO.N,/V-D4*%
X147828000Y-102851949D02*
X147828000Y-87122001D01*
X150758025Y-106308025D02*
X148199974Y-103749974D01*
X151130000Y-114300000D02*
X151130000Y-107206051D01*
X149860000Y-85090000D02*
G75*
G03*
X147828000Y-87122001I0J-2032000D01*
G01*
X147827966Y-102851949D02*
G75*
G03*
X148199974Y-103749974I1270034J49D01*
G01*
X151130034Y-107206051D02*
G75*
G03*
X150758025Y-106308025I-1270034J-49D01*
G01*
%TO.N,/V-D3*%
X151501975Y-83448025D02*
X152400000Y-82550000D01*
X148590000Y-114300000D02*
X148590000Y-105936051D01*
X149856609Y-83820000D02*
X150603949Y-83820000D01*
X148218025Y-105038025D02*
X147437974Y-104257974D01*
X147066000Y-103359949D02*
X147066000Y-86610609D01*
X150603949Y-83820034D02*
G75*
G03*
X151501975Y-83448025I-49J1270034D01*
G01*
X147065966Y-103359949D02*
G75*
G03*
X147437974Y-104257974I1270034J49D01*
G01*
X149856609Y-83820000D02*
G75*
G03*
X147066000Y-86610609I-9J-2790600D01*
G01*
X148590034Y-105936051D02*
G75*
G03*
X148218025Y-105038025I-1270034J-49D01*
G01*
%TO.N,/V-A12*%
X143256000Y-106915949D02*
X143256000Y-85870051D01*
X164201975Y-80908025D02*
X165100000Y-80010000D01*
X144272000Y-108458000D02*
X143627974Y-107813974D01*
X143627975Y-84972025D02*
X146948026Y-81651974D01*
X147846051Y-81280000D02*
X163303949Y-81280000D01*
X163303949Y-81280034D02*
G75*
G03*
X164201975Y-80908025I-49J1270034D01*
G01*
X147846051Y-81279966D02*
G75*
G03*
X146948026Y-81651974I49J-1270034D01*
G01*
X143627999Y-84972049D02*
G75*
G03*
X143256000Y-85870051I898001J-898051D01*
G01*
X143255966Y-106915949D02*
G75*
G03*
X143627974Y-107813974I1270034J49D01*
G01*
%TO.N,/V-A13*%
X160918025Y-89163025D02*
X160020000Y-88265000D01*
X161290000Y-91548949D02*
X161290000Y-90061051D01*
X160020000Y-88265000D02*
X160020000Y-87630000D01*
X163839025Y-94624025D02*
X161661974Y-92446974D01*
X170434000Y-94996000D02*
X164737051Y-94996000D01*
X161290034Y-90061051D02*
G75*
G03*
X160918025Y-89163025I-1270034J-49D01*
G01*
X163839049Y-94624001D02*
G75*
G03*
X164737051Y-94996000I898051J898001D01*
G01*
X161289966Y-91548949D02*
G75*
G03*
X161661974Y-92446974I1270034J49D01*
G01*
%TO.N,/V-A14*%
X163204025Y-90814025D02*
X162560000Y-90170000D01*
X172916000Y-91186000D02*
X164102051Y-91186000D01*
X173609000Y-88630536D02*
X173416000Y-88823536D01*
X173416000Y-88823536D02*
X173416000Y-90048500D01*
X173416000Y-90048500D02*
X173416000Y-90686000D01*
X163204049Y-90814001D02*
G75*
G03*
X164102051Y-91186000I898051J898001D01*
G01*
%TO.N,/V-RW*%
X165626051Y-93980000D02*
X171196000Y-93980000D01*
X163830000Y-92710000D02*
X164728026Y-93608026D01*
X143510000Y-109746051D02*
X143510000Y-114300000D01*
X177546000Y-91186000D02*
X177546000Y-92323500D01*
X142240000Y-104394000D02*
X142240000Y-107423949D01*
X142611975Y-108321975D02*
X143138026Y-108848026D01*
X164728050Y-93608002D02*
G75*
G03*
X165626051Y-93980000I898050J898002D01*
G01*
X143510034Y-109746051D02*
G75*
G03*
X143138026Y-108848026I-1270034J-49D01*
G01*
X142239966Y-107423949D02*
G75*
G03*
X142611975Y-108321975I1270034J49D01*
G01*
%TO.N,/PB6*%
X166370000Y-80010000D02*
X166370000Y-80753949D01*
X165998025Y-81651975D02*
X165100000Y-82550000D01*
X142240000Y-102870000D02*
X142494000Y-102616000D01*
X142865975Y-84464025D02*
X148218026Y-79111974D01*
X149116051Y-78740000D02*
X165100000Y-78740000D01*
X142494000Y-102616000D02*
X142494000Y-85362051D01*
X166370000Y-80010000D02*
G75*
G03*
X165100000Y-78740000I-1270000J0D01*
G01*
X149116051Y-78739966D02*
G75*
G03*
X148218026Y-79111974I49J-1270034D01*
G01*
X165998001Y-81651951D02*
G75*
G03*
X166370000Y-80753949I-898001J898051D01*
G01*
X142865999Y-84464049D02*
G75*
G03*
X142494000Y-85362051I898001J-898051D01*
G01*
%TO.N,/IRQ*%
X139954000Y-108458000D02*
X137160000Y-108458000D01*
X166741975Y-83448025D02*
X168030026Y-82159974D01*
X165081949Y-75438000D02*
X151148051Y-75438000D01*
X135890000Y-109728000D02*
X135890000Y-114300000D01*
X141483041Y-101826974D02*
X141472959Y-101837056D01*
X163830000Y-85833949D02*
X163830000Y-85090000D01*
X165100000Y-87630000D02*
X164201974Y-86731974D01*
X150250025Y-75809975D02*
X142103974Y-83956026D01*
X168030025Y-77860025D02*
X165979974Y-75809974D01*
X165100000Y-83820000D02*
X165843949Y-83820000D01*
X141224000Y-102438097D02*
X141224000Y-107188000D01*
X168402000Y-81261949D02*
X168402000Y-78758051D01*
X141732000Y-84854051D02*
X141732000Y-101225933D01*
X141483024Y-101826957D02*
G75*
G03*
X141732000Y-101225933I-601024J601057D01*
G01*
X141472961Y-101837058D02*
G75*
G03*
X141224000Y-102438097I601039J-601042D01*
G01*
X137160000Y-108458000D02*
G75*
G03*
X135890000Y-109728000I0J-1270000D01*
G01*
X165843949Y-83820034D02*
G75*
G03*
X166741975Y-83448025I-49J1270034D01*
G01*
X142103998Y-83956050D02*
G75*
G03*
X141732000Y-84854051I898002J-898050D01*
G01*
X165979950Y-75809998D02*
G75*
G03*
X165081949Y-75438000I-898050J-898002D01*
G01*
X165100000Y-83820000D02*
G75*
G03*
X163830000Y-85090000I0J-1270000D01*
G01*
X168402034Y-78758051D02*
G75*
G03*
X168030025Y-77860025I-1270034J-49D01*
G01*
X163829966Y-85833949D02*
G75*
G03*
X164201974Y-86731974I1270034J49D01*
G01*
X151148051Y-75437966D02*
G75*
G03*
X150250025Y-75809975I49J-1270034D01*
G01*
X139954000Y-108458000D02*
G75*
G03*
X141224000Y-107188000I0J1270000D01*
G01*
X168030002Y-82159950D02*
G75*
G03*
X168402000Y-81261949I-898002J898050D01*
G01*
%TO.N,/V-A15*%
X164846000Y-88900000D02*
X165100000Y-88900000D01*
X164846000Y-89027000D02*
X164846000Y-88900000D01*
X162560000Y-88900000D02*
X164846000Y-88900000D01*
X162560000Y-82550000D02*
X161661974Y-83448026D01*
X172466000Y-88900000D02*
X172466000Y-90048500D01*
X165335949Y-88900000D02*
X165335949Y-89045051D01*
X161290000Y-109746051D02*
X161290000Y-114300000D01*
X165100000Y-89281000D02*
X164846000Y-89027000D01*
X165100000Y-105410000D02*
X161661974Y-108848026D01*
X165335949Y-89045051D02*
X165100000Y-89281000D01*
X166233975Y-88528025D02*
X166760026Y-88001974D01*
X167658051Y-87630000D02*
X171196000Y-87630000D01*
X161290000Y-84346051D02*
X161290000Y-87630000D01*
X165100000Y-88900000D02*
X165335949Y-88900000D01*
X165100000Y-89281000D02*
X165100000Y-88900000D01*
X172466000Y-88900000D02*
G75*
G03*
X171196000Y-87630000I-1270000J0D01*
G01*
X161290000Y-87630000D02*
G75*
G03*
X162560000Y-88900000I1270000J0D01*
G01*
X161661998Y-108848050D02*
G75*
G03*
X161290000Y-109746051I898002J-898050D01*
G01*
X165335949Y-88900034D02*
G75*
G03*
X166233975Y-88528025I-49J1270034D01*
G01*
X161661998Y-83448050D02*
G75*
G03*
X161290000Y-84346051I898002J-898050D01*
G01*
X167658051Y-87629966D02*
G75*
G03*
X166760026Y-88001974I49J-1270034D01*
G01*
%TO.N,/~{CE}*%
X150876000Y-89680051D02*
X150876000Y-94488000D01*
X152400000Y-87630000D02*
X151247974Y-88782026D01*
X171516000Y-92776000D02*
X172720000Y-93980000D01*
X172720000Y-93980000D02*
X172720000Y-94488000D01*
X171516000Y-92323500D02*
X171516000Y-92776000D01*
X151247998Y-88782050D02*
G75*
G03*
X150876000Y-89680051I898002J-898050D01*
G01*
%TO.N,/~{OE}*%
X179324000Y-93453949D02*
X179324000Y-91402551D01*
X177292000Y-96012000D02*
X178952026Y-94351974D01*
X154041975Y-95113975D02*
X154940000Y-96012000D01*
X153670000Y-89426051D02*
X153670000Y-94215949D01*
X178952025Y-90504525D02*
X178496000Y-90048500D01*
X154940000Y-87630000D02*
X154041974Y-88528026D01*
X154041998Y-88528050D02*
G75*
G03*
X153670000Y-89426051I898002J-898050D01*
G01*
X179324034Y-91402551D02*
G75*
G03*
X178952025Y-90504525I-1270034J-49D01*
G01*
X153669966Y-94215949D02*
G75*
G03*
X154041975Y-95113975I1270034J49D01*
G01*
X178952002Y-94351950D02*
G75*
G03*
X179324000Y-93453949I-898002J898050D01*
G01*
%TD*%
%TA.AperFunction,Conductor*%
%TO.N,GND*%
G36*
X181013000Y-72756062D02*
G01*
X181067538Y-72810600D01*
X181087500Y-72885100D01*
X181087500Y-110595000D01*
X181067538Y-110669500D01*
X181013000Y-110724038D01*
X180938500Y-110744000D01*
X180608500Y-110744000D01*
X180534000Y-110724038D01*
X180479462Y-110669500D01*
X180459500Y-110595000D01*
X180459500Y-110449700D01*
X180459500Y-110449698D01*
X180453260Y-110359796D01*
X180403732Y-110149219D01*
X180386974Y-110111266D01*
X180384669Y-110105383D01*
X180373425Y-110072663D01*
X180361063Y-110051438D01*
X180357294Y-110044046D01*
X180316355Y-109951327D01*
X180194103Y-109772861D01*
X180194102Y-109772860D01*
X180193339Y-109771746D01*
X180181668Y-109751455D01*
X180160684Y-109707261D01*
X180131707Y-109641345D01*
X180101799Y-109568260D01*
X180071150Y-109488193D01*
X180054746Y-109442571D01*
X180046899Y-109408858D01*
X180041967Y-109365091D01*
X180041965Y-109365085D01*
X180041965Y-109365079D01*
X179999436Y-109178781D01*
X179985212Y-109116470D01*
X179900977Y-108875766D01*
X179790322Y-108646007D01*
X179654638Y-108430082D01*
X179654636Y-108430080D01*
X179654634Y-108430076D01*
X179495638Y-108230712D01*
X179405467Y-108140547D01*
X177317897Y-106052977D01*
X177317895Y-106052974D01*
X177266362Y-106001441D01*
X177262513Y-105997287D01*
X177222867Y-105951106D01*
X177196330Y-105930564D01*
X177189246Y-105924324D01*
X174776068Y-103511147D01*
X174773547Y-103508498D01*
X174586442Y-103302062D01*
X174540004Y-103250826D01*
X174535368Y-103245177D01*
X174329299Y-102967327D01*
X174325241Y-102961254D01*
X174147396Y-102664540D01*
X174143952Y-102658095D01*
X173996056Y-102345398D01*
X173993256Y-102338639D01*
X173911291Y-102109566D01*
X173876719Y-102012944D01*
X173874596Y-102005947D01*
X173790542Y-101670386D01*
X173789118Y-101663235D01*
X173738356Y-101321027D01*
X173737643Y-101313790D01*
X173720589Y-100966685D01*
X173720500Y-100963038D01*
X173720500Y-100900969D01*
X175143723Y-100900969D01*
X175150150Y-100964858D01*
X175173882Y-101200762D01*
X175173883Y-101200768D01*
X175243729Y-101493854D01*
X175243731Y-101493862D01*
X175264767Y-101548479D01*
X175311718Y-101670386D01*
X175352025Y-101775038D01*
X175496820Y-102039257D01*
X175496825Y-102039265D01*
X175675554Y-102281838D01*
X175885020Y-102498424D01*
X176121485Y-102685158D01*
X176380730Y-102838709D01*
X176658128Y-102956336D01*
X176948729Y-103035940D01*
X177247347Y-103076100D01*
X177473251Y-103076100D01*
X177670460Y-103062898D01*
X177698634Y-103061012D01*
X177859129Y-103028389D01*
X177993894Y-103000998D01*
X177993895Y-103000997D01*
X177993903Y-103000996D01*
X178278537Y-102902160D01*
X178547459Y-102766268D01*
X178795869Y-102595744D01*
X179019333Y-102393632D01*
X179213865Y-102163539D01*
X179375993Y-101909570D01*
X179502823Y-101636258D01*
X179592093Y-101348479D01*
X179633843Y-101100967D01*
X179642208Y-101051377D01*
X179642208Y-101051375D01*
X179642209Y-101051370D01*
X179652277Y-100750231D01*
X179622118Y-100450438D01*
X179552269Y-100157339D01*
X179443977Y-99876166D01*
X179329082Y-99666508D01*
X179299179Y-99611942D01*
X179299174Y-99611934D01*
X179207613Y-99487667D01*
X179120446Y-99369362D01*
X178910980Y-99152776D01*
X178733337Y-99012493D01*
X178674518Y-98966044D01*
X178645806Y-98949038D01*
X178576870Y-98908206D01*
X178415274Y-98812493D01*
X178415271Y-98812492D01*
X178415270Y-98812491D01*
X178327091Y-98775100D01*
X178137876Y-98694865D01*
X178137869Y-98694863D01*
X177847271Y-98615260D01*
X177548653Y-98575100D01*
X177322756Y-98575100D01*
X177322749Y-98575100D01*
X177097366Y-98590187D01*
X176802105Y-98650201D01*
X176802094Y-98650205D01*
X176517467Y-98749038D01*
X176248546Y-98884929D01*
X176248540Y-98884932D01*
X176000127Y-99055459D01*
X175776669Y-99257565D01*
X175776657Y-99257578D01*
X175582143Y-99487651D01*
X175582131Y-99487667D01*
X175420005Y-99741633D01*
X175293177Y-100014941D01*
X175203906Y-100302720D01*
X175203905Y-100302728D01*
X175153791Y-100599822D01*
X175147105Y-100799822D01*
X175143723Y-100900969D01*
X173720500Y-100900969D01*
X173720500Y-100713197D01*
X173720590Y-100709541D01*
X173723494Y-100650431D01*
X173737655Y-100362208D01*
X173738367Y-100354975D01*
X173789129Y-100012779D01*
X173790554Y-100005616D01*
X173839069Y-99811934D01*
X173874610Y-99670045D01*
X173876729Y-99663064D01*
X173993269Y-99337358D01*
X173996067Y-99330607D01*
X174030612Y-99257568D01*
X174143971Y-99017891D01*
X174147402Y-99011473D01*
X174325257Y-98714742D01*
X174329296Y-98708695D01*
X174535384Y-98430820D01*
X174540004Y-98425192D01*
X174773227Y-98167869D01*
X174775688Y-98165286D01*
X174904646Y-98036323D01*
X174904648Y-98036321D01*
X175140685Y-97755009D01*
X175164178Y-97721454D01*
X175351312Y-97454188D01*
X175398797Y-97371936D01*
X175534916Y-97136162D01*
X175534916Y-97136161D01*
X175567924Y-97065373D01*
X175690108Y-96803335D01*
X175815700Y-96458253D01*
X175842492Y-96358258D01*
X175881051Y-96291468D01*
X175947845Y-96252902D01*
X176024973Y-96252900D01*
X176091769Y-96291462D01*
X176130335Y-96358256D01*
X176130335Y-96358258D01*
X176149023Y-96428001D01*
X176149026Y-96428009D01*
X176238626Y-96620158D01*
X176238628Y-96620163D01*
X176238629Y-96620164D01*
X176360239Y-96793841D01*
X176510159Y-96943761D01*
X176683836Y-97065371D01*
X176875991Y-97154974D01*
X177080787Y-97209849D01*
X177271748Y-97226556D01*
X177291999Y-97228328D01*
X177292000Y-97228328D01*
X177292001Y-97228328D01*
X177308993Y-97226841D01*
X177503213Y-97209849D01*
X177708009Y-97154974D01*
X177900164Y-97065371D01*
X178073841Y-96943761D01*
X178223761Y-96793841D01*
X178345371Y-96620164D01*
X178425926Y-96447411D01*
X178430672Y-96438227D01*
X178430770Y-96437943D01*
X178433628Y-96430893D01*
X178434974Y-96428009D01*
X178436833Y-96421071D01*
X178438407Y-96415943D01*
X178477012Y-96304731D01*
X178481168Y-96291462D01*
X178481632Y-96289981D01*
X178486017Y-96274317D01*
X178486941Y-96270570D01*
X178489764Y-96259138D01*
X178518739Y-96123930D01*
X178521357Y-96109748D01*
X178523617Y-96095195D01*
X178523679Y-96094714D01*
X178525355Y-96081575D01*
X178537715Y-95958053D01*
X178538910Y-95938545D01*
X178541579Y-95828108D01*
X178542182Y-95754547D01*
X178562754Y-95680213D01*
X178579609Y-95657008D01*
X178604563Y-95628821D01*
X178625715Y-95604928D01*
X178641742Y-95585358D01*
X178650291Y-95574920D01*
X178650293Y-95574915D01*
X178653673Y-95570789D01*
X178658624Y-95565320D01*
X179440937Y-94783009D01*
X179440940Y-94783004D01*
X179442212Y-94781733D01*
X179442916Y-94780981D01*
X179500972Y-94722931D01*
X179654232Y-94523210D01*
X179780113Y-94305193D01*
X179876461Y-94072610D01*
X179941627Y-93829442D01*
X179974496Y-93579848D01*
X179974496Y-93547014D01*
X179974500Y-93546980D01*
X179974500Y-93443713D01*
X179974500Y-93435128D01*
X179974503Y-93380680D01*
X179974501Y-93380674D01*
X179974502Y-93376681D01*
X179974500Y-93376627D01*
X179974500Y-91480019D01*
X179974502Y-91479970D01*
X179974502Y-91475824D01*
X179974503Y-91475820D01*
X179974502Y-91464277D01*
X179974535Y-91464153D01*
X179974533Y-91402526D01*
X179974534Y-91402526D01*
X179974529Y-91276649D01*
X179941660Y-91027051D01*
X179876493Y-90783878D01*
X179780143Y-90551291D01*
X179654260Y-90333270D01*
X179500996Y-90133545D01*
X179473974Y-90106525D01*
X179457496Y-90086939D01*
X179450801Y-90077428D01*
X179431719Y-90048699D01*
X179415899Y-90023530D01*
X179411833Y-90017060D01*
X179391247Y-89982558D01*
X179370052Y-89945222D01*
X179348317Y-89905085D01*
X179326118Y-89862201D01*
X179312004Y-89833731D01*
X179296500Y-89767550D01*
X179296500Y-89470310D01*
X179296440Y-89469547D01*
X179293598Y-89433431D01*
X179247744Y-89275602D01*
X179164081Y-89134135D01*
X179047865Y-89017919D01*
X178957766Y-88964635D01*
X178906400Y-88934257D01*
X178906399Y-88934256D01*
X178906398Y-88934256D01*
X178827456Y-88911321D01*
X178748571Y-88888402D01*
X178736277Y-88887434D01*
X178711694Y-88885500D01*
X178280306Y-88885500D01*
X178259234Y-88887158D01*
X178243428Y-88888402D01*
X178085599Y-88934257D01*
X177944136Y-89017918D01*
X177944133Y-89017920D01*
X177827920Y-89134133D01*
X177827918Y-89134136D01*
X177744257Y-89275599D01*
X177698402Y-89433428D01*
X177695500Y-89470310D01*
X177695500Y-90004055D01*
X177675538Y-90078555D01*
X177621000Y-90133093D01*
X177546500Y-90153055D01*
X177472000Y-90133093D01*
X177417462Y-90078555D01*
X177398437Y-90020738D01*
X177396969Y-90007709D01*
X177396500Y-89999361D01*
X177396500Y-89470310D01*
X177396440Y-89469547D01*
X177393598Y-89433431D01*
X177347744Y-89275602D01*
X177264081Y-89134135D01*
X177147865Y-89017919D01*
X177057766Y-88964635D01*
X177006400Y-88934257D01*
X177006399Y-88934256D01*
X177006398Y-88934256D01*
X176927456Y-88911321D01*
X176848571Y-88888402D01*
X176836277Y-88887434D01*
X176811694Y-88885500D01*
X176380306Y-88885500D01*
X176359234Y-88887158D01*
X176343428Y-88888402D01*
X176197070Y-88930924D01*
X176119959Y-88932539D01*
X176052371Y-88895382D01*
X176012416Y-88829410D01*
X176006500Y-88787840D01*
X176006500Y-88661041D01*
X176006501Y-88661020D01*
X176006501Y-88619107D01*
X176006500Y-88513765D01*
X176006500Y-88411899D01*
X175972287Y-88108266D01*
X175904294Y-87810373D01*
X175803375Y-87521966D01*
X175670800Y-87246671D01*
X175508236Y-86987951D01*
X175508231Y-86987943D01*
X175317731Y-86749062D01*
X175284827Y-86716157D01*
X175284819Y-86716148D01*
X175283736Y-86715065D01*
X175283496Y-86714650D01*
X175278693Y-86709210D01*
X175275842Y-86705543D01*
X175277495Y-86704256D01*
X175245172Y-86648270D01*
X175245172Y-86571142D01*
X175283736Y-86504347D01*
X175350531Y-86465783D01*
X175427659Y-86465783D01*
X175435964Y-86468269D01*
X175493677Y-86487393D01*
X175597496Y-86498000D01*
X175673000Y-86498000D01*
X175673000Y-85390000D01*
X176273000Y-85390000D01*
X176273000Y-86498000D01*
X176348504Y-86498000D01*
X176452324Y-86487393D01*
X176620524Y-86431657D01*
X176771335Y-86338637D01*
X176896637Y-86213335D01*
X176989657Y-86062524D01*
X177045393Y-85894324D01*
X177056000Y-85790503D01*
X177056000Y-85390000D01*
X176273000Y-85390000D01*
X175673000Y-85390000D01*
X174890000Y-85390000D01*
X174890000Y-85790503D01*
X174900606Y-85894324D01*
X174919730Y-85952036D01*
X174924215Y-86029034D01*
X174889600Y-86097958D01*
X174825161Y-86140341D01*
X174748163Y-86144826D01*
X174679239Y-86110211D01*
X174672934Y-86104263D01*
X174223198Y-85654527D01*
X174184634Y-85587732D01*
X174180937Y-85569397D01*
X174176886Y-85539837D01*
X174165866Y-85458309D01*
X174154839Y-85375630D01*
X174143810Y-85291804D01*
X174132775Y-85206830D01*
X174121737Y-85120710D01*
X174110694Y-85033444D01*
X174100723Y-84953641D01*
X174100311Y-84950618D01*
X174100487Y-84951684D01*
X174098499Y-84927426D01*
X174098499Y-84790000D01*
X174890000Y-84790000D01*
X175673000Y-84790000D01*
X175673000Y-83682000D01*
X176273000Y-83682000D01*
X176273000Y-84790000D01*
X177056000Y-84790000D01*
X177056000Y-84389496D01*
X177045393Y-84285675D01*
X176989657Y-84117475D01*
X176896637Y-83966664D01*
X176771335Y-83841362D01*
X176620524Y-83748342D01*
X176452324Y-83692606D01*
X176348504Y-83682000D01*
X176273000Y-83682000D01*
X175673000Y-83682000D01*
X175597496Y-83682000D01*
X175493675Y-83692606D01*
X175325475Y-83748342D01*
X175174664Y-83841362D01*
X175049362Y-83966664D01*
X174956342Y-84117475D01*
X174900606Y-84285675D01*
X174890000Y-84389496D01*
X174890000Y-84790000D01*
X174098499Y-84790000D01*
X174098499Y-84389996D01*
X174096711Y-84372493D01*
X174087999Y-84287203D01*
X174032814Y-84120666D01*
X173940712Y-83971344D01*
X173816656Y-83847288D01*
X173667334Y-83755186D01*
X173583445Y-83727388D01*
X173500798Y-83700001D01*
X173483665Y-83698250D01*
X173398009Y-83689500D01*
X173398004Y-83689500D01*
X172647996Y-83689500D01*
X172545202Y-83700001D01*
X172378666Y-83755186D01*
X172229343Y-83847288D01*
X172105287Y-83971345D01*
X172076066Y-84018721D01*
X172019965Y-84071650D01*
X171949249Y-84089500D01*
X167380163Y-84089500D01*
X167305663Y-84069538D01*
X167251125Y-84015000D01*
X167231163Y-83940500D01*
X167251125Y-83866000D01*
X167274804Y-83835141D01*
X167841347Y-83268598D01*
X168518937Y-82591009D01*
X168518940Y-82591004D01*
X168520212Y-82589733D01*
X168520916Y-82588981D01*
X168578972Y-82530931D01*
X168732232Y-82331210D01*
X168858113Y-82113193D01*
X168954461Y-81880610D01*
X169019627Y-81637442D01*
X169052496Y-81387848D01*
X169052496Y-81355014D01*
X169052500Y-81354980D01*
X169052500Y-81255509D01*
X169052500Y-81255508D01*
X169052503Y-81188680D01*
X169052501Y-81188674D01*
X169052502Y-81184681D01*
X169052500Y-81184626D01*
X169052500Y-78835519D01*
X169052502Y-78835470D01*
X169052502Y-78831324D01*
X169052503Y-78831320D01*
X169052502Y-78819777D01*
X169052535Y-78819653D01*
X169052533Y-78758026D01*
X169052534Y-78758026D01*
X169052529Y-78632149D01*
X169019660Y-78382551D01*
X168954493Y-78139378D01*
X168858143Y-77906791D01*
X168732260Y-77688770D01*
X168578996Y-77489045D01*
X168504820Y-77414874D01*
X166411009Y-75321063D01*
X166411008Y-75321063D01*
X166409711Y-75319765D01*
X166408924Y-75319025D01*
X166350933Y-75261030D01*
X166350927Y-75261024D01*
X166151212Y-75107769D01*
X166128166Y-75094463D01*
X165933193Y-74981887D01*
X165790547Y-74922795D01*
X165700611Y-74885539D01*
X165593414Y-74856811D01*
X165457442Y-74820373D01*
X165457439Y-74820372D01*
X165293643Y-74798802D01*
X165207848Y-74787504D01*
X165207845Y-74787503D01*
X165207843Y-74787503D01*
X165168271Y-74787502D01*
X165168225Y-74787500D01*
X165164126Y-74787500D01*
X165081974Y-74787500D01*
X165008680Y-74787497D01*
X165008679Y-74787497D01*
X165004530Y-74787497D01*
X165004481Y-74787500D01*
X151225519Y-74787500D01*
X151225467Y-74787497D01*
X151209773Y-74787497D01*
X151209649Y-74787464D01*
X151022155Y-74787470D01*
X150772554Y-74820339D01*
X150529374Y-74885508D01*
X150296788Y-74981858D01*
X150078773Y-75107738D01*
X150078770Y-75107740D01*
X150022351Y-75151034D01*
X149879044Y-75261004D01*
X149841959Y-75298091D01*
X149804874Y-75335179D01*
X145709648Y-79430405D01*
X141613781Y-83526272D01*
X141613059Y-83527040D01*
X141555027Y-83585069D01*
X141401769Y-83784787D01*
X141367959Y-83843344D01*
X141275887Y-84002807D01*
X141275886Y-84002810D01*
X141179539Y-84235388D01*
X141114372Y-84478561D01*
X141081503Y-84728159D01*
X141081502Y-84768009D01*
X141081500Y-84768060D01*
X141081500Y-84854026D01*
X141081497Y-84931469D01*
X141081500Y-84931519D01*
X141081500Y-101221021D01*
X141080861Y-101230761D01*
X141077261Y-101258094D01*
X141067194Y-101295657D01*
X141062275Y-101307532D01*
X141042826Y-101341218D01*
X141025931Y-101363235D01*
X141019499Y-101370569D01*
X140968478Y-101421588D01*
X140968430Y-101421640D01*
X140943447Y-101446625D01*
X140943442Y-101446630D01*
X140823705Y-101602673D01*
X140786657Y-101666843D01*
X140725356Y-101773018D01*
X140700675Y-101832603D01*
X140650085Y-101954737D01*
X140599177Y-102144725D01*
X140599174Y-102144741D01*
X140573500Y-102339745D01*
X140573500Y-107183814D01*
X140573031Y-107192162D01*
X140559847Y-107309171D01*
X140552422Y-107341700D01*
X140517694Y-107440945D01*
X140503218Y-107471005D01*
X140447278Y-107560034D01*
X140426475Y-107586121D01*
X140352121Y-107660475D01*
X140326034Y-107681278D01*
X140237005Y-107737218D01*
X140206945Y-107751694D01*
X140107700Y-107786422D01*
X140075171Y-107793847D01*
X139958162Y-107807031D01*
X139949814Y-107807500D01*
X137034118Y-107807500D01*
X136784540Y-107840357D01*
X136784523Y-107840360D01*
X136541355Y-107905515D01*
X136308754Y-108001863D01*
X136090739Y-108127735D01*
X136090736Y-108127736D01*
X136090738Y-108127736D01*
X135891009Y-108280993D01*
X135891007Y-108280994D01*
X135891003Y-108280998D01*
X135712998Y-108459003D01*
X135712994Y-108459007D01*
X135712993Y-108459009D01*
X135649360Y-108541938D01*
X135559735Y-108658739D01*
X135433863Y-108876754D01*
X135337516Y-109109354D01*
X135274094Y-109346052D01*
X135239617Y-109408595D01*
X135219684Y-109430172D01*
X135170423Y-109465369D01*
X135097328Y-109497643D01*
X135097326Y-109497645D01*
X134918860Y-109619897D01*
X134872055Y-109666701D01*
X134868260Y-109670240D01*
X134848467Y-109687449D01*
X134848463Y-109687453D01*
X134841553Y-109696367D01*
X134835350Y-109703406D01*
X134765896Y-109772862D01*
X134765894Y-109772864D01*
X134643646Y-109951325D01*
X134556266Y-110149223D01*
X134506741Y-110359789D01*
X134506739Y-110359805D01*
X134500500Y-110449700D01*
X134500500Y-110595000D01*
X134480538Y-110669500D01*
X134426000Y-110724038D01*
X134351500Y-110744000D01*
X134057500Y-110744000D01*
X133983000Y-110724038D01*
X133928462Y-110669500D01*
X133908500Y-110595000D01*
X133908500Y-101100969D01*
X135343723Y-101100969D01*
X135364503Y-101307532D01*
X135373882Y-101400762D01*
X135373883Y-101400768D01*
X135443729Y-101693854D01*
X135443731Y-101693861D01*
X135544995Y-101956787D01*
X135552025Y-101975038D01*
X135696820Y-102239257D01*
X135696825Y-102239265D01*
X135875554Y-102481838D01*
X136085020Y-102698424D01*
X136321485Y-102885158D01*
X136580730Y-103038709D01*
X136824784Y-103142196D01*
X136855821Y-103155358D01*
X136858128Y-103156336D01*
X137148729Y-103235940D01*
X137447347Y-103276100D01*
X137673251Y-103276100D01*
X137870460Y-103262898D01*
X137898634Y-103261012D01*
X138059129Y-103228389D01*
X138193894Y-103200998D01*
X138193895Y-103200997D01*
X138193903Y-103200996D01*
X138478537Y-103102160D01*
X138747459Y-102966268D01*
X138995869Y-102795744D01*
X139219333Y-102593632D01*
X139413865Y-102363539D01*
X139575993Y-102109570D01*
X139702823Y-101836258D01*
X139792093Y-101548479D01*
X139842209Y-101251370D01*
X139852277Y-100950231D01*
X139822118Y-100650438D01*
X139752269Y-100357339D01*
X139643977Y-100076166D01*
X139499175Y-99811935D01*
X139320446Y-99569362D01*
X139110980Y-99352776D01*
X138874515Y-99166042D01*
X138776870Y-99108206D01*
X138615274Y-99012493D01*
X138615271Y-99012492D01*
X138615270Y-99012491D01*
X138505730Y-98966042D01*
X138337876Y-98894865D01*
X138337869Y-98894863D01*
X138047271Y-98815260D01*
X137748653Y-98775100D01*
X137522756Y-98775100D01*
X137522749Y-98775100D01*
X137297366Y-98790187D01*
X137002105Y-98850201D01*
X137002094Y-98850205D01*
X136717467Y-98949038D01*
X136448546Y-99084929D01*
X136448540Y-99084932D01*
X136200127Y-99255459D01*
X135976669Y-99457565D01*
X135976657Y-99457578D01*
X135782143Y-99687651D01*
X135782131Y-99687667D01*
X135620005Y-99941633D01*
X135493177Y-100214941D01*
X135403906Y-100502720D01*
X135403905Y-100502728D01*
X135353791Y-100799822D01*
X135348212Y-100966694D01*
X135343723Y-101100969D01*
X133908500Y-101100969D01*
X133908500Y-72885100D01*
X133928462Y-72810600D01*
X133983000Y-72756062D01*
X134057500Y-72736100D01*
X180938500Y-72736100D01*
X181013000Y-72756062D01*
G37*
%TD.AperFunction*%
%TA.AperFunction,Conductor*%
G36*
X148644785Y-81950462D02*
G01*
X148699323Y-82005000D01*
X148719285Y-82079500D01*
X148711255Y-82125031D01*
X148711635Y-82125133D01*
X148710470Y-82129477D01*
X148710296Y-82130469D01*
X148709951Y-82131414D01*
X148654735Y-82337479D01*
X148636143Y-82549999D01*
X148654735Y-82762520D01*
X148709951Y-82968584D01*
X148709953Y-82968589D01*
X148798271Y-83157990D01*
X148811664Y-83233946D01*
X148785284Y-83306423D01*
X148726200Y-83355999D01*
X148706492Y-83363541D01*
X148695929Y-83366745D01*
X148383564Y-83496131D01*
X148383558Y-83496134D01*
X148085391Y-83655507D01*
X147804274Y-83843344D01*
X147804269Y-83843347D01*
X147804269Y-83843348D01*
X147542912Y-84057838D01*
X147303838Y-84296912D01*
X147168910Y-84461323D01*
X147089344Y-84558274D01*
X146901507Y-84839391D01*
X146742134Y-85137558D01*
X146742131Y-85137564D01*
X146612745Y-85449929D01*
X146612742Y-85449938D01*
X146514600Y-85773469D01*
X146514599Y-85773475D01*
X146448639Y-86105078D01*
X146448638Y-86105083D01*
X146448638Y-86105086D01*
X146429274Y-86301699D01*
X146415499Y-86441559D01*
X146415499Y-86441570D01*
X146415500Y-86528432D01*
X146415500Y-103282626D01*
X146415497Y-103282684D01*
X146415497Y-103298226D01*
X146415464Y-103298349D01*
X146415470Y-103485844D01*
X146448252Y-103734787D01*
X146448340Y-103735449D01*
X146511050Y-103969454D01*
X146513509Y-103978627D01*
X146609851Y-104211199D01*
X146609854Y-104211204D01*
X146609856Y-104211208D01*
X146735740Y-104429229D01*
X146889003Y-104628953D01*
X146960211Y-104700157D01*
X147342567Y-105082513D01*
X147703564Y-105443510D01*
X147703592Y-105443541D01*
X147706236Y-105446185D01*
X147706237Y-105446186D01*
X147755470Y-105495416D01*
X147760383Y-105500837D01*
X147825802Y-105580545D01*
X147842030Y-105604831D01*
X147885448Y-105686054D01*
X147896627Y-105713038D01*
X147923365Y-105801170D01*
X147929064Y-105829817D01*
X147939141Y-105932085D01*
X147939500Y-105939395D01*
X147939500Y-109323276D01*
X147919538Y-109397776D01*
X147903457Y-109420445D01*
X147900782Y-109423555D01*
X147875779Y-109450135D01*
X147827436Y-109484349D01*
X147797335Y-109497640D01*
X147797325Y-109497646D01*
X147618857Y-109619899D01*
X147580713Y-109658043D01*
X147577596Y-109660985D01*
X147548350Y-109687044D01*
X147548348Y-109687045D01*
X147539651Y-109698268D01*
X147533442Y-109705314D01*
X147465896Y-109772862D01*
X147465890Y-109772869D01*
X147447468Y-109799762D01*
X147388896Y-109849942D01*
X147313081Y-109864113D01*
X147240338Y-109838478D01*
X147201620Y-109799760D01*
X147179899Y-109768051D01*
X147025948Y-109614100D01*
X146846338Y-109491065D01*
X146846332Y-109491062D01*
X146647180Y-109403127D01*
X146647171Y-109403124D01*
X146435246Y-109353281D01*
X146435242Y-109353280D01*
X146350000Y-109347362D01*
X146350000Y-110744000D01*
X145750000Y-110744000D01*
X145750000Y-109347362D01*
X145749999Y-109347362D01*
X145664757Y-109353280D01*
X145664753Y-109353281D01*
X145452828Y-109403124D01*
X145452819Y-109403127D01*
X145253667Y-109491062D01*
X145253661Y-109491065D01*
X145074051Y-109614100D01*
X144920101Y-109768050D01*
X144920096Y-109768056D01*
X144898377Y-109799762D01*
X144839805Y-109849942D01*
X144763990Y-109864113D01*
X144691247Y-109838478D01*
X144652529Y-109799760D01*
X144634108Y-109772869D01*
X144634103Y-109772861D01*
X144608436Y-109747194D01*
X144545177Y-109683934D01*
X144540681Y-109679018D01*
X144538996Y-109677001D01*
X144538441Y-109676502D01*
X144533045Y-109671654D01*
X144530174Y-109668932D01*
X144481139Y-109619897D01*
X144481139Y-109619896D01*
X144449521Y-109598238D01*
X144399341Y-109539667D01*
X144385168Y-109463853D01*
X144410802Y-109391109D01*
X144469374Y-109340928D01*
X144502743Y-109329571D01*
X144551803Y-109319144D01*
X144724730Y-109242151D01*
X144877871Y-109130888D01*
X144986284Y-109010484D01*
X145004530Y-108990220D01*
X145004531Y-108990218D01*
X145004533Y-108990216D01*
X145099179Y-108826284D01*
X145157674Y-108646256D01*
X145177460Y-108458000D01*
X145157674Y-108269744D01*
X145099179Y-108089716D01*
X145004533Y-107925784D01*
X145004532Y-107925783D01*
X145004530Y-107925779D01*
X144877872Y-107785113D01*
X144873574Y-107781990D01*
X144724730Y-107673849D01*
X144721352Y-107672345D01*
X144633283Y-107633133D01*
X144627145Y-107630054D01*
X144595943Y-107612553D01*
X144595940Y-107612552D01*
X144595942Y-107612552D01*
X144514661Y-107581178D01*
X144503143Y-107577024D01*
X144414342Y-107547503D01*
X144339244Y-107525453D01*
X144287360Y-107510769D01*
X144276149Y-107507241D01*
X144226694Y-107480569D01*
X144215624Y-107471538D01*
X144211546Y-107467956D01*
X144182963Y-107440945D01*
X144167847Y-107426660D01*
X144167842Y-107426655D01*
X144126847Y-107391376D01*
X144126974Y-107391228D01*
X144115481Y-107381534D01*
X144090529Y-107356583D01*
X144085616Y-107351163D01*
X144077849Y-107341700D01*
X144020195Y-107271452D01*
X144003969Y-107247168D01*
X143960549Y-107165941D01*
X143949374Y-107138968D01*
X143922631Y-107050821D01*
X143916935Y-107022183D01*
X143906859Y-106919915D01*
X143906500Y-106912606D01*
X143906500Y-85873739D01*
X143906859Y-85866429D01*
X143916018Y-85773480D01*
X143916969Y-85763819D01*
X143922665Y-85735187D01*
X143949408Y-85647038D01*
X143960580Y-85620072D01*
X144003997Y-85538849D01*
X144020221Y-85514569D01*
X144085858Y-85434595D01*
X144090772Y-85429175D01*
X144111600Y-85408346D01*
X144139763Y-85380186D01*
X144139764Y-85380183D01*
X144147088Y-85372860D01*
X144147108Y-85372836D01*
X147347689Y-82172255D01*
X147347703Y-82172244D01*
X147356183Y-82163763D01*
X147356186Y-82163762D01*
X147405427Y-82114518D01*
X147410836Y-82109617D01*
X147420474Y-82101707D01*
X147490552Y-82044192D01*
X147514828Y-82027970D01*
X147596058Y-81984548D01*
X147623027Y-81973375D01*
X147711180Y-81946631D01*
X147739813Y-81940935D01*
X147842090Y-81930858D01*
X147849393Y-81930500D01*
X148570285Y-81930500D01*
X148644785Y-81950462D01*
G37*
%TD.AperFunction*%
%TA.AperFunction,Conductor*%
G36*
X178599000Y-92043462D02*
G01*
X178653538Y-92098000D01*
X178673500Y-92172500D01*
X178673500Y-93450260D01*
X178673141Y-93457565D01*
X178670576Y-93483597D01*
X178663031Y-93560174D01*
X178657332Y-93588821D01*
X178630596Y-93676947D01*
X178619417Y-93703933D01*
X178576002Y-93785150D01*
X178559774Y-93809434D01*
X178494142Y-93889403D01*
X178489230Y-93894823D01*
X178437323Y-93946728D01*
X177729404Y-94654648D01*
X177705938Y-94673766D01*
X177699079Y-94678277D01*
X177699073Y-94678282D01*
X177646989Y-94724388D01*
X177577974Y-94758821D01*
X177549453Y-94761815D01*
X177475895Y-94762419D01*
X177365683Y-94765082D01*
X177346182Y-94766258D01*
X177222492Y-94778635D01*
X177215753Y-94779493D01*
X177209013Y-94780351D01*
X177200080Y-94781733D01*
X177194476Y-94782600D01*
X177180152Y-94785241D01*
X177151124Y-94791461D01*
X177044697Y-94814269D01*
X177029518Y-94818026D01*
X177029235Y-94818096D01*
X177013605Y-94822491D01*
X176999138Y-94827032D01*
X176999135Y-94827033D01*
X176888046Y-94865593D01*
X176882904Y-94867172D01*
X176875999Y-94869023D01*
X176875974Y-94869032D01*
X176873117Y-94870364D01*
X176866078Y-94873219D01*
X176858575Y-94875824D01*
X176850832Y-94878776D01*
X176789247Y-94907120D01*
X176782520Y-94911119D01*
X176782278Y-94910712D01*
X176766967Y-94919863D01*
X176683837Y-94958628D01*
X176510157Y-95080240D01*
X176360237Y-95230160D01*
X176277554Y-95348244D01*
X176218471Y-95397821D01*
X176142514Y-95411214D01*
X176070038Y-95384834D01*
X176020461Y-95325751D01*
X176006501Y-95262783D01*
X176006500Y-95192450D01*
X176006500Y-93584159D01*
X176026462Y-93509659D01*
X176081000Y-93455121D01*
X176155500Y-93435159D01*
X176197071Y-93441076D01*
X176343422Y-93483596D01*
X176343426Y-93483596D01*
X176343431Y-93483598D01*
X176380306Y-93486500D01*
X176380310Y-93486500D01*
X176811690Y-93486500D01*
X176811694Y-93486500D01*
X176848569Y-93483598D01*
X177006398Y-93437744D01*
X177006409Y-93437737D01*
X177011819Y-93435397D01*
X177088120Y-93424127D01*
X177130181Y-93435397D01*
X177135592Y-93437738D01*
X177135602Y-93437744D01*
X177293431Y-93483598D01*
X177330306Y-93486500D01*
X177330310Y-93486500D01*
X177761690Y-93486500D01*
X177761694Y-93486500D01*
X177798569Y-93483598D01*
X177956398Y-93437744D01*
X177956400Y-93437742D01*
X177965400Y-93435128D01*
X177966042Y-93437340D01*
X178029106Y-93428020D01*
X178073173Y-93442850D01*
X178073992Y-93440958D01*
X178082588Y-93444677D01*
X178195999Y-93477627D01*
X178195999Y-93309200D01*
X178215961Y-93234700D01*
X178216665Y-93233494D01*
X178297744Y-93096398D01*
X178343598Y-92938569D01*
X178346500Y-92901694D01*
X178346500Y-92172500D01*
X178366462Y-92098000D01*
X178421000Y-92043462D01*
X178495500Y-92023500D01*
X178524500Y-92023500D01*
X178599000Y-92043462D01*
G37*
%TD.AperFunction*%
%TA.AperFunction,Conductor*%
G36*
X171200161Y-88280969D02*
G01*
X171234792Y-88284870D01*
X171317173Y-88294152D01*
X171349695Y-88301576D01*
X171448946Y-88336305D01*
X171479003Y-88350780D01*
X171568035Y-88406722D01*
X171594121Y-88427524D01*
X171668475Y-88501878D01*
X171689278Y-88527965D01*
X171745218Y-88616994D01*
X171759694Y-88647054D01*
X171794422Y-88746299D01*
X171801847Y-88778828D01*
X171815031Y-88895836D01*
X171815500Y-88904184D01*
X171815500Y-88977019D01*
X171809448Y-89019049D01*
X171804272Y-89036657D01*
X171792525Y-89074707D01*
X171791781Y-89076996D01*
X171781099Y-89109861D01*
X171770056Y-89142036D01*
X171764415Y-89157559D01*
X171759474Y-89171157D01*
X171753329Y-89187068D01*
X171749463Y-89197079D01*
X171740156Y-89219671D01*
X171731726Y-89238760D01*
X171719917Y-89263587D01*
X171717643Y-89268787D01*
X171714807Y-89274327D01*
X171714078Y-89276011D01*
X171712102Y-89281752D01*
X171709918Y-89287225D01*
X171709913Y-89287238D01*
X171684976Y-89369233D01*
X171683444Y-89377586D01*
X171682785Y-89377465D01*
X171679856Y-89394004D01*
X171668402Y-89433429D01*
X171665500Y-89470310D01*
X171665500Y-90199500D01*
X171645538Y-90274000D01*
X171591000Y-90328538D01*
X171516500Y-90348500D01*
X170708001Y-90348500D01*
X170708001Y-90386500D01*
X170688039Y-90461000D01*
X170633501Y-90515538D01*
X170559001Y-90535500D01*
X164105740Y-90535500D01*
X164098435Y-90535141D01*
X164057613Y-90531119D01*
X163995821Y-90525030D01*
X163967174Y-90519330D01*
X163886680Y-90494909D01*
X163821184Y-90454178D01*
X163784829Y-90386156D01*
X163781280Y-90342237D01*
X163784545Y-90294167D01*
X163785120Y-90273387D01*
X163783464Y-90141677D01*
X163782705Y-90125017D01*
X163781326Y-90107506D01*
X163779438Y-90090713D01*
X163763600Y-89982557D01*
X163758798Y-89949762D01*
X163754967Y-89929435D01*
X163749876Y-89907418D01*
X163744396Y-89887474D01*
X163744395Y-89887474D01*
X163709748Y-89778961D01*
X163708771Y-89775629D01*
X163706606Y-89767550D01*
X163702974Y-89753991D01*
X163702973Y-89753989D01*
X163702971Y-89753981D01*
X163701686Y-89750450D01*
X163701521Y-89748572D01*
X163701290Y-89747707D01*
X163701442Y-89747666D01*
X163694970Y-89673615D01*
X163727571Y-89603716D01*
X163790754Y-89559482D01*
X163841704Y-89550500D01*
X164132469Y-89550500D01*
X164206969Y-89570462D01*
X164261507Y-89625000D01*
X164269221Y-89642329D01*
X164269641Y-89642143D01*
X164272818Y-89649278D01*
X164272820Y-89649282D01*
X164272821Y-89649284D01*
X164290570Y-89680026D01*
X164367469Y-89813220D01*
X164472111Y-89929435D01*
X164494129Y-89953888D01*
X164647270Y-90065151D01*
X164820197Y-90142144D01*
X164961315Y-90172139D01*
X165005352Y-90181500D01*
X165005354Y-90181500D01*
X165194648Y-90181500D01*
X165234004Y-90173134D01*
X165379803Y-90142144D01*
X165552730Y-90065151D01*
X165705871Y-89953888D01*
X165788427Y-89862201D01*
X165832530Y-89813220D01*
X165832531Y-89813218D01*
X165832533Y-89813216D01*
X165869897Y-89748500D01*
X170708000Y-89748500D01*
X171216000Y-89748500D01*
X171216000Y-88894370D01*
X171102602Y-88927316D01*
X170959506Y-89011942D01*
X170959500Y-89011946D01*
X170841946Y-89129500D01*
X170841944Y-89129503D01*
X170757317Y-89272600D01*
X170710936Y-89432239D01*
X170710935Y-89432244D01*
X170708000Y-89469547D01*
X170708000Y-89748500D01*
X165869897Y-89748500D01*
X165927179Y-89649284D01*
X165935677Y-89623127D01*
X165945329Y-89600163D01*
X165950426Y-89590410D01*
X165971098Y-89531733D01*
X165974921Y-89519971D01*
X165978634Y-89507520D01*
X165979334Y-89504938D01*
X166018113Y-89438267D01*
X166066104Y-89406310D01*
X166187209Y-89356143D01*
X166405230Y-89230260D01*
X166604955Y-89076996D01*
X166686153Y-88995793D01*
X167159689Y-88522255D01*
X167159703Y-88522244D01*
X167168183Y-88513763D01*
X167168186Y-88513762D01*
X167217427Y-88464518D01*
X167222836Y-88459617D01*
X167302552Y-88394192D01*
X167326828Y-88377970D01*
X167408058Y-88334548D01*
X167435027Y-88323375D01*
X167523180Y-88296631D01*
X167551813Y-88290935D01*
X167654090Y-88280858D01*
X167661393Y-88280500D01*
X171122706Y-88280500D01*
X171191813Y-88280500D01*
X171200161Y-88280969D01*
G37*
%TD.AperFunction*%
%TD*%
%TA.AperFunction,Conductor*%
%TO.N,/V-A14*%
G36*
X173420183Y-90066809D02*
G01*
X173425898Y-90073274D01*
X173644199Y-90678449D01*
X173643783Y-90687394D01*
X173642660Y-90689294D01*
X173623147Y-90716164D01*
X173599992Y-90750298D01*
X173576836Y-90786682D01*
X173553681Y-90825316D01*
X173530526Y-90866201D01*
X173507370Y-90909335D01*
X173484215Y-90954719D01*
X173461059Y-91002353D01*
X173437904Y-91052237D01*
X173421665Y-91088798D01*
X173415175Y-91094968D01*
X173406223Y-91094742D01*
X173402699Y-91092322D01*
X173205108Y-90894731D01*
X173201916Y-90888791D01*
X173195097Y-90855273D01*
X173187577Y-90820435D01*
X173180057Y-90787727D01*
X173172537Y-90757148D01*
X173165018Y-90728700D01*
X173157498Y-90702381D01*
X173149978Y-90678191D01*
X173142458Y-90656132D01*
X173134938Y-90636202D01*
X173129529Y-90623401D01*
X173129467Y-90614449D01*
X173129865Y-90613575D01*
X173404459Y-90071951D01*
X173411254Y-90066124D01*
X173420183Y-90066809D01*
G37*
%TD.AperFunction*%
%TD*%
%TA.AperFunction,Conductor*%
%TO.N,+5V*%
G36*
X165112091Y-84379228D02*
G01*
X165140988Y-84380253D01*
X165266458Y-84384705D01*
X165266931Y-84384740D01*
X165402774Y-84400736D01*
X165403241Y-84400812D01*
X165502059Y-84421403D01*
X165516301Y-84424371D01*
X165516748Y-84424483D01*
X165614737Y-84453105D01*
X165615002Y-84453190D01*
X165705598Y-84484400D01*
X165705599Y-84484400D01*
X165796335Y-84515657D01*
X165796344Y-84515659D01*
X165796348Y-84515661D01*
X165796349Y-84515661D01*
X165894666Y-84544380D01*
X165894668Y-84544380D01*
X165894670Y-84544381D01*
X166008192Y-84568036D01*
X166008191Y-84568036D01*
X166144496Y-84584086D01*
X166183362Y-84585464D01*
X166299916Y-84589599D01*
X166308061Y-84593317D01*
X166311200Y-84601292D01*
X166311200Y-85578707D01*
X166307773Y-85586980D01*
X166299915Y-85590400D01*
X166144496Y-85595913D01*
X166008191Y-85611963D01*
X166008192Y-85611963D01*
X165894670Y-85635618D01*
X165894668Y-85635618D01*
X165894666Y-85635619D01*
X165796335Y-85664342D01*
X165705598Y-85695600D01*
X165705599Y-85695600D01*
X165615002Y-85726808D01*
X165614737Y-85726893D01*
X165516748Y-85755515D01*
X165516301Y-85755627D01*
X165403262Y-85779182D01*
X165402753Y-85779265D01*
X165266935Y-85795257D01*
X165266458Y-85795293D01*
X165112097Y-85800770D01*
X165103707Y-85797638D01*
X165099989Y-85789492D01*
X165099983Y-85789153D01*
X165099000Y-85090000D01*
X165099982Y-84390903D01*
X165103420Y-84382637D01*
X165111698Y-84379222D01*
X165112091Y-84379228D01*
G37*
%TD.AperFunction*%
%TD*%
%TA.AperFunction,Conductor*%
%TO.N,+5V*%
G36*
X172453550Y-84520541D02*
G01*
X173015705Y-85081719D01*
X173019139Y-85089989D01*
X173015719Y-85098265D01*
X173015705Y-85098279D01*
X172453551Y-85659458D01*
X172445275Y-85662878D01*
X172440766Y-85661970D01*
X172418000Y-85652437D01*
X172388000Y-85641000D01*
X172358000Y-85630687D01*
X172328000Y-85621500D01*
X172298000Y-85613437D01*
X172268000Y-85606500D01*
X172238000Y-85600687D01*
X172208000Y-85596000D01*
X172178000Y-85592437D01*
X172158752Y-85590873D01*
X172150784Y-85586787D01*
X172148000Y-85579211D01*
X172148000Y-84600788D01*
X172151427Y-84592515D01*
X172158751Y-84589126D01*
X172178000Y-84587562D01*
X172208000Y-84584000D01*
X172238000Y-84579312D01*
X172268000Y-84573500D01*
X172298000Y-84566562D01*
X172328000Y-84558500D01*
X172358000Y-84549312D01*
X172388000Y-84539000D01*
X172418000Y-84527562D01*
X172440766Y-84518028D01*
X172449719Y-84517994D01*
X172453550Y-84520541D01*
G37*
%TD.AperFunction*%
%TD*%
%TA.AperFunction,Conductor*%
%TO.N,+5V*%
G36*
X177029950Y-109558427D02*
G01*
X177032730Y-109562862D01*
X177063824Y-109652417D01*
X177097649Y-109743999D01*
X177131474Y-109829746D01*
X177165298Y-109909658D01*
X177199123Y-109983735D01*
X177232948Y-110051977D01*
X177266772Y-110114384D01*
X177300595Y-110170954D01*
X177300596Y-110170955D01*
X177334422Y-110221693D01*
X177365059Y-110262364D01*
X177367300Y-110271034D01*
X177367169Y-110271784D01*
X176541455Y-114245868D01*
X176536417Y-114253271D01*
X176527620Y-114254943D01*
X176520217Y-114249905D01*
X176518545Y-114245868D01*
X176482022Y-114070089D01*
X175692830Y-110271781D01*
X175694502Y-110262986D01*
X175694917Y-110262394D01*
X175725577Y-110221693D01*
X175759402Y-110170956D01*
X175759404Y-110170954D01*
X175793227Y-110114384D01*
X175827051Y-110051977D01*
X175860876Y-109983735D01*
X175894701Y-109909658D01*
X175928525Y-109829746D01*
X175962350Y-109743999D01*
X175996175Y-109652417D01*
X176027270Y-109562862D01*
X176033221Y-109556171D01*
X176038323Y-109555000D01*
X177021677Y-109555000D01*
X177029950Y-109558427D01*
G37*
%TD.AperFunction*%
%TD*%
%TA.AperFunction,Conductor*%
%TO.N,+5V*%
G36*
X179561793Y-109571566D02*
G01*
X179565926Y-109577073D01*
X179597209Y-109664081D01*
X179631769Y-109754367D01*
X179666329Y-109838818D01*
X179700888Y-109917434D01*
X179735448Y-109990216D01*
X179770008Y-110057162D01*
X179804567Y-110118273D01*
X179839127Y-110173549D01*
X179855284Y-110196663D01*
X179873687Y-110222990D01*
X179904847Y-110262307D01*
X179907300Y-110270919D01*
X179907133Y-110271954D01*
X179081608Y-114245854D01*
X179076571Y-114253257D01*
X179067773Y-114254929D01*
X179060370Y-114249892D01*
X179058699Y-114245858D01*
X178233079Y-110272977D01*
X178234751Y-110264180D01*
X178236475Y-110262116D01*
X178266074Y-110234035D01*
X178300396Y-110196662D01*
X178334717Y-110154477D01*
X178334720Y-110154472D01*
X178334728Y-110154463D01*
X178361156Y-110118273D01*
X178369039Y-110107479D01*
X178403360Y-110055668D01*
X178437682Y-109999045D01*
X178472003Y-109937610D01*
X178506325Y-109871362D01*
X178540646Y-109800301D01*
X178572368Y-109730175D01*
X178578900Y-109724050D01*
X178581195Y-109723442D01*
X179553085Y-109569476D01*
X179561793Y-109571566D01*
G37*
%TD.AperFunction*%
%TD*%
%TA.AperFunction,Conductor*%
%TO.N,+5V*%
G36*
X173594889Y-85011226D02*
G01*
X173599448Y-85018934D01*
X173599475Y-85019132D01*
X173609143Y-85096511D01*
X173620287Y-85184574D01*
X173631430Y-85271512D01*
X173642574Y-85357325D01*
X173653717Y-85442013D01*
X173664861Y-85525576D01*
X173676004Y-85608014D01*
X173687148Y-85689327D01*
X173698291Y-85769515D01*
X173708620Y-85842799D01*
X173706382Y-85851469D01*
X173705308Y-85852705D01*
X173013777Y-86544236D01*
X173005504Y-86547663D01*
X172997231Y-86544236D01*
X172995052Y-86541221D01*
X172971259Y-86493927D01*
X172940190Y-86433294D01*
X172909120Y-86373786D01*
X172878051Y-86315404D01*
X172846981Y-86258146D01*
X172815912Y-86202013D01*
X172784842Y-86147006D01*
X172753773Y-86093123D01*
X172722703Y-86040365D01*
X172694525Y-85993537D01*
X172693196Y-85984682D01*
X172693566Y-85983477D01*
X173019881Y-85095852D01*
X173025952Y-85089270D01*
X173029208Y-85088308D01*
X173586218Y-85009000D01*
X173594889Y-85011226D01*
G37*
%TD.AperFunction*%
%TD*%
%TA.AperFunction,Conductor*%
%TO.N,/V-A8*%
G36*
X160024491Y-90170867D02*
G01*
X160665621Y-90437407D01*
X160671945Y-90443748D01*
X160671934Y-90452702D01*
X160671659Y-90453314D01*
X160613399Y-90573522D01*
X160613046Y-90574149D01*
X160546093Y-90677626D01*
X160545709Y-90678153D01*
X160477628Y-90761373D01*
X160477335Y-90761705D01*
X160410362Y-90831994D01*
X160346956Y-90896448D01*
X160346957Y-90896448D01*
X160289680Y-90962116D01*
X160240929Y-91036227D01*
X160203133Y-91125955D01*
X160203132Y-91125960D01*
X160178683Y-91238554D01*
X160178683Y-91238555D01*
X160170669Y-91370211D01*
X160166746Y-91378261D01*
X160158991Y-91381200D01*
X159881009Y-91381200D01*
X159872736Y-91377773D01*
X159869331Y-91370211D01*
X159861315Y-91238555D01*
X159861315Y-91238554D01*
X159861315Y-91238553D01*
X159836868Y-91125964D01*
X159836865Y-91125958D01*
X159836865Y-91125955D01*
X159799068Y-91036227D01*
X159799067Y-91036224D01*
X159750322Y-90962123D01*
X159750320Y-90962121D01*
X159750317Y-90962116D01*
X159693041Y-90896448D01*
X159693042Y-90896448D01*
X159629636Y-90831995D01*
X159562662Y-90761705D01*
X159562369Y-90761373D01*
X159494289Y-90678153D01*
X159493905Y-90677626D01*
X159426944Y-90574137D01*
X159426598Y-90573522D01*
X159368339Y-90453312D01*
X159367816Y-90444374D01*
X159373766Y-90437682D01*
X159374360Y-90437414D01*
X160015509Y-90170866D01*
X160024463Y-90170856D01*
X160024491Y-90170867D01*
G37*
%TD.AperFunction*%
%TD*%
%TA.AperFunction,Conductor*%
%TO.N,/V-A8*%
G36*
X174142335Y-109558427D02*
G01*
X174143504Y-109559791D01*
X174194371Y-109629351D01*
X174248742Y-109698186D01*
X174303113Y-109761505D01*
X174357485Y-109819308D01*
X174411856Y-109871594D01*
X174466227Y-109918365D01*
X174520599Y-109959619D01*
X174574970Y-109995358D01*
X174574974Y-109995360D01*
X174629338Y-110025579D01*
X174629339Y-110025579D01*
X174675564Y-110046584D01*
X174681679Y-110053127D01*
X174682271Y-110059120D01*
X174001547Y-114230245D01*
X173996833Y-114237859D01*
X173988116Y-114239908D01*
X173980502Y-114235194D01*
X173978453Y-114230246D01*
X173978453Y-114230245D01*
X173297728Y-110059119D01*
X173299777Y-110050403D01*
X173304433Y-110046584D01*
X173350658Y-110025580D01*
X173405029Y-109995358D01*
X173459400Y-109959619D01*
X173513772Y-109918365D01*
X173568143Y-109871594D01*
X173622514Y-109819308D01*
X173676886Y-109761505D01*
X173731257Y-109698186D01*
X173785628Y-109629351D01*
X173836494Y-109559793D01*
X173844143Y-109555138D01*
X173845938Y-109555000D01*
X174134062Y-109555000D01*
X174142335Y-109558427D01*
G37*
%TD.AperFunction*%
%TD*%
%TA.AperFunction,Conductor*%
%TO.N,/V-A5*%
G36*
X160778165Y-76515271D02*
G01*
X160974728Y-76711834D01*
X160978155Y-76720107D01*
X160975216Y-76727862D01*
X160887783Y-76826629D01*
X160825462Y-76923522D01*
X160788735Y-77013708D01*
X160788733Y-77013714D01*
X160770806Y-77100562D01*
X160770805Y-77100571D01*
X160764871Y-77187508D01*
X160764871Y-77187509D01*
X160764129Y-77277926D01*
X160761783Y-77374984D01*
X160761756Y-77375425D01*
X160751050Y-77482414D01*
X160750950Y-77483058D01*
X160725124Y-77603572D01*
X160724930Y-77604265D01*
X160681125Y-77730459D01*
X160675175Y-77737151D01*
X160666235Y-77737675D01*
X160665609Y-77737437D01*
X160023789Y-77472562D01*
X160017449Y-77466239D01*
X159752562Y-76824388D01*
X159752573Y-76815436D01*
X159758914Y-76809112D01*
X159759533Y-76808876D01*
X159885744Y-76765065D01*
X159886409Y-76764878D01*
X160006957Y-76739044D01*
X160007584Y-76738947D01*
X160044677Y-76735235D01*
X160114583Y-76728240D01*
X160115014Y-76728214D01*
X160212072Y-76725869D01*
X160302490Y-76725128D01*
X160302491Y-76725128D01*
X160333462Y-76723013D01*
X160389425Y-76719193D01*
X160389433Y-76719191D01*
X160389436Y-76719191D01*
X160425077Y-76711834D01*
X160476290Y-76701263D01*
X160566475Y-76664537D01*
X160663374Y-76602212D01*
X160762140Y-76514781D01*
X160770603Y-76511866D01*
X160778165Y-76515271D01*
G37*
%TD.AperFunction*%
%TD*%
%TA.AperFunction,Conductor*%
%TO.N,/V-A5*%
G36*
X167532899Y-80483427D02*
G01*
X167536321Y-80491369D01*
X167538618Y-80572597D01*
X167538619Y-80572605D01*
X167538618Y-80572604D01*
X167546282Y-80648142D01*
X167546284Y-80648153D01*
X167558717Y-80710729D01*
X167558719Y-80710736D01*
X167575635Y-80764394D01*
X167575639Y-80764405D01*
X167596758Y-80813218D01*
X167621799Y-80861252D01*
X167650481Y-80912577D01*
X167682522Y-80971254D01*
X167717583Y-81041238D01*
X167717701Y-81041489D01*
X167750707Y-81115991D01*
X167750925Y-81124943D01*
X167744749Y-81131427D01*
X167744512Y-81131529D01*
X167390502Y-81279123D01*
X167381548Y-81279144D01*
X167381498Y-81279123D01*
X167027487Y-81131529D01*
X167021169Y-81125182D01*
X167021190Y-81116228D01*
X167021270Y-81116041D01*
X167054312Y-81041452D01*
X167054404Y-81041257D01*
X167089477Y-80971254D01*
X167121517Y-80912577D01*
X167150200Y-80861252D01*
X167150200Y-80861251D01*
X167175241Y-80813218D01*
X167196359Y-80764405D01*
X167196364Y-80764394D01*
X167213282Y-80710729D01*
X167225715Y-80648152D01*
X167225870Y-80646617D01*
X167233381Y-80572604D01*
X167233380Y-80572605D01*
X167233381Y-80572597D01*
X167235678Y-80491367D01*
X167239337Y-80483196D01*
X167247373Y-80480000D01*
X167524626Y-80480000D01*
X167532899Y-80483427D01*
G37*
%TD.AperFunction*%
%TD*%
%TA.AperFunction,Conductor*%
%TO.N,/V-A9*%
G36*
X158134563Y-87362573D02*
G01*
X158140887Y-87368914D01*
X158141125Y-87369540D01*
X158184930Y-87495733D01*
X158185124Y-87496426D01*
X158210950Y-87616940D01*
X158211050Y-87617584D01*
X158221756Y-87724573D01*
X158221783Y-87725014D01*
X158224129Y-87822072D01*
X158224871Y-87912490D01*
X158224871Y-87912491D01*
X158230805Y-87999427D01*
X158230806Y-87999436D01*
X158248733Y-88086283D01*
X158248735Y-88086289D01*
X158285462Y-88176476D01*
X158347783Y-88273369D01*
X158347785Y-88273372D01*
X158347787Y-88273374D01*
X158435216Y-88372138D01*
X158438133Y-88380603D01*
X158434728Y-88388165D01*
X158238165Y-88584728D01*
X158229892Y-88588155D01*
X158222138Y-88585216D01*
X158123374Y-88497787D01*
X158123372Y-88497785D01*
X158123369Y-88497783D01*
X158026476Y-88435462D01*
X157981382Y-88417098D01*
X157936290Y-88398735D01*
X157936287Y-88398734D01*
X157936283Y-88398733D01*
X157849436Y-88380806D01*
X157849427Y-88380805D01*
X157762491Y-88374871D01*
X157762490Y-88374871D01*
X157672072Y-88374129D01*
X157575014Y-88371783D01*
X157574573Y-88371756D01*
X157467584Y-88361050D01*
X157466940Y-88360950D01*
X157346420Y-88335122D01*
X157345733Y-88334930D01*
X157219540Y-88291125D01*
X157212848Y-88285175D01*
X157212324Y-88276235D01*
X157212550Y-88275639D01*
X157477437Y-87633788D01*
X157483759Y-87627449D01*
X158125611Y-87362562D01*
X158134563Y-87362573D01*
G37*
%TD.AperFunction*%
%TD*%
%TA.AperFunction,Conductor*%
%TO.N,/V-A9*%
G36*
X171602335Y-109558427D02*
G01*
X171603504Y-109559791D01*
X171654371Y-109629351D01*
X171708742Y-109698186D01*
X171763113Y-109761505D01*
X171817485Y-109819308D01*
X171871856Y-109871594D01*
X171926227Y-109918365D01*
X171980599Y-109959619D01*
X172034970Y-109995358D01*
X172034974Y-109995360D01*
X172089338Y-110025579D01*
X172089339Y-110025579D01*
X172135564Y-110046584D01*
X172141679Y-110053127D01*
X172142271Y-110059120D01*
X171461547Y-114230245D01*
X171456833Y-114237859D01*
X171448116Y-114239908D01*
X171440502Y-114235194D01*
X171438453Y-114230246D01*
X171438453Y-114230245D01*
X170757728Y-110059119D01*
X170759777Y-110050403D01*
X170764433Y-110046584D01*
X170810658Y-110025580D01*
X170865029Y-109995358D01*
X170919400Y-109959619D01*
X170973772Y-109918365D01*
X171028143Y-109871594D01*
X171082514Y-109819308D01*
X171136886Y-109761505D01*
X171191257Y-109698186D01*
X171245628Y-109629351D01*
X171296494Y-109559793D01*
X171304143Y-109555138D01*
X171305938Y-109555000D01*
X171594062Y-109555000D01*
X171602335Y-109558427D01*
G37*
%TD.AperFunction*%
%TD*%
%TA.AperFunction,Conductor*%
%TO.N,/V-A11*%
G36*
X169062335Y-109558427D02*
G01*
X169063504Y-109559791D01*
X169114371Y-109629351D01*
X169168742Y-109698186D01*
X169223113Y-109761505D01*
X169277485Y-109819308D01*
X169331856Y-109871594D01*
X169386227Y-109918365D01*
X169440599Y-109959619D01*
X169494970Y-109995358D01*
X169494974Y-109995360D01*
X169549338Y-110025579D01*
X169549339Y-110025579D01*
X169595564Y-110046584D01*
X169601679Y-110053127D01*
X169602271Y-110059120D01*
X168921547Y-114230245D01*
X168916833Y-114237859D01*
X168908116Y-114239908D01*
X168900502Y-114235194D01*
X168898453Y-114230246D01*
X168898453Y-114230245D01*
X168217728Y-110059119D01*
X168219777Y-110050403D01*
X168224433Y-110046584D01*
X168270658Y-110025580D01*
X168325029Y-109995358D01*
X168379400Y-109959619D01*
X168433772Y-109918365D01*
X168488143Y-109871594D01*
X168542514Y-109819308D01*
X168596886Y-109761505D01*
X168651257Y-109698186D01*
X168705628Y-109629351D01*
X168756494Y-109559793D01*
X168764143Y-109555138D01*
X168765938Y-109555000D01*
X169054062Y-109555000D01*
X169062335Y-109558427D01*
G37*
%TD.AperFunction*%
%TD*%
%TA.AperFunction,Conductor*%
%TO.N,/V-A11*%
G36*
X157484491Y-90170867D02*
G01*
X158125621Y-90437407D01*
X158131945Y-90443748D01*
X158131934Y-90452702D01*
X158131659Y-90453314D01*
X158073399Y-90573522D01*
X158073046Y-90574149D01*
X158006093Y-90677626D01*
X158005709Y-90678153D01*
X157937628Y-90761373D01*
X157937335Y-90761705D01*
X157870362Y-90831994D01*
X157806956Y-90896448D01*
X157806957Y-90896448D01*
X157749680Y-90962116D01*
X157700929Y-91036227D01*
X157663133Y-91125955D01*
X157663132Y-91125960D01*
X157638683Y-91238554D01*
X157638683Y-91238555D01*
X157630669Y-91370211D01*
X157626746Y-91378261D01*
X157618991Y-91381200D01*
X157341009Y-91381200D01*
X157332736Y-91377773D01*
X157329331Y-91370211D01*
X157321315Y-91238555D01*
X157321315Y-91238554D01*
X157321315Y-91238553D01*
X157296868Y-91125964D01*
X157296865Y-91125958D01*
X157296865Y-91125955D01*
X157259068Y-91036227D01*
X157259067Y-91036224D01*
X157210322Y-90962123D01*
X157210320Y-90962121D01*
X157210317Y-90962116D01*
X157153041Y-90896448D01*
X157153042Y-90896448D01*
X157089636Y-90831995D01*
X157022662Y-90761705D01*
X157022369Y-90761373D01*
X156954289Y-90678153D01*
X156953905Y-90677626D01*
X156886944Y-90574137D01*
X156886598Y-90573522D01*
X156828339Y-90453312D01*
X156827816Y-90444374D01*
X156833766Y-90437682D01*
X156834360Y-90437414D01*
X157475509Y-90170866D01*
X157484463Y-90170856D01*
X157484491Y-90170867D01*
G37*
%TD.AperFunction*%
%TD*%
%TA.AperFunction,Conductor*%
%TO.N,/V-A10*%
G36*
X155585373Y-90437307D02*
G01*
X155591698Y-90443646D01*
X155591689Y-90452601D01*
X155591303Y-90453435D01*
X155536615Y-90560468D01*
X155535664Y-90562018D01*
X155466948Y-90656677D01*
X155466478Y-90657245D01*
X155393439Y-90735052D01*
X155393128Y-90735360D01*
X155361835Y-90764051D01*
X155320513Y-90801937D01*
X155278008Y-90840467D01*
X155253038Y-90863103D01*
X155253038Y-90863104D01*
X155195515Y-90924651D01*
X155152573Y-90992544D01*
X155152570Y-90992550D01*
X155128849Y-91072729D01*
X155128849Y-91072732D01*
X155128849Y-91072733D01*
X155128849Y-91072734D01*
X155128983Y-91171167D01*
X155145826Y-91243308D01*
X155155171Y-91283332D01*
X155153714Y-91292168D01*
X155147393Y-91297119D01*
X154882970Y-91383046D01*
X154874043Y-91382344D01*
X154868389Y-91376000D01*
X154819755Y-91245336D01*
X154819751Y-91245325D01*
X154765402Y-91134399D01*
X154765396Y-91134389D01*
X154709401Y-91046287D01*
X154709393Y-91046276D01*
X154651888Y-90973533D01*
X154592988Y-90908667D01*
X154532867Y-90844266D01*
X154471813Y-90773046D01*
X154471524Y-90772679D01*
X154409674Y-90687248D01*
X154409365Y-90686776D01*
X154346685Y-90579497D01*
X154346443Y-90579034D01*
X154288064Y-90453213D01*
X154287690Y-90444266D01*
X154293753Y-90437676D01*
X154294149Y-90437501D01*
X154935201Y-90170915D01*
X154944153Y-90170903D01*
X155585373Y-90437307D01*
G37*
%TD.AperFunction*%
%TD*%
%TA.AperFunction,Conductor*%
%TO.N,/V-A10*%
G36*
X163982335Y-109558427D02*
G01*
X163983504Y-109559791D01*
X164034371Y-109629351D01*
X164088742Y-109698186D01*
X164143113Y-109761505D01*
X164197485Y-109819308D01*
X164251856Y-109871594D01*
X164306227Y-109918365D01*
X164360599Y-109959619D01*
X164414970Y-109995358D01*
X164414974Y-109995360D01*
X164469338Y-110025579D01*
X164469339Y-110025579D01*
X164515564Y-110046584D01*
X164521679Y-110053127D01*
X164522271Y-110059120D01*
X163841547Y-114230245D01*
X163836833Y-114237859D01*
X163828116Y-114239908D01*
X163820502Y-114235194D01*
X163818453Y-114230246D01*
X163818453Y-114230245D01*
X163137728Y-110059119D01*
X163139777Y-110050403D01*
X163144433Y-110046584D01*
X163190658Y-110025580D01*
X163245029Y-109995358D01*
X163299400Y-109959619D01*
X163353772Y-109918365D01*
X163408143Y-109871594D01*
X163462514Y-109819308D01*
X163516886Y-109761505D01*
X163571257Y-109698186D01*
X163625628Y-109629351D01*
X163676494Y-109559793D01*
X163684143Y-109555138D01*
X163685938Y-109555000D01*
X163974062Y-109555000D01*
X163982335Y-109558427D01*
G37*
%TD.AperFunction*%
%TD*%
%TA.AperFunction,Conductor*%
%TO.N,/V-D7*%
G36*
X152404491Y-90170867D02*
G01*
X153045621Y-90437407D01*
X153051945Y-90443748D01*
X153051934Y-90452702D01*
X153051659Y-90453314D01*
X152993399Y-90573522D01*
X152993046Y-90574149D01*
X152926093Y-90677626D01*
X152925709Y-90678153D01*
X152857628Y-90761373D01*
X152857335Y-90761705D01*
X152790362Y-90831994D01*
X152726956Y-90896448D01*
X152726957Y-90896448D01*
X152669680Y-90962116D01*
X152620929Y-91036227D01*
X152583133Y-91125955D01*
X152583132Y-91125960D01*
X152558683Y-91238554D01*
X152558683Y-91238555D01*
X152550669Y-91370211D01*
X152546746Y-91378261D01*
X152538991Y-91381200D01*
X152261009Y-91381200D01*
X152252736Y-91377773D01*
X152249331Y-91370211D01*
X152241315Y-91238555D01*
X152241315Y-91238554D01*
X152241315Y-91238553D01*
X152216868Y-91125964D01*
X152216865Y-91125958D01*
X152216865Y-91125955D01*
X152179068Y-91036227D01*
X152179067Y-91036224D01*
X152130322Y-90962123D01*
X152130320Y-90962121D01*
X152130317Y-90962116D01*
X152073041Y-90896448D01*
X152073042Y-90896448D01*
X152009636Y-90831995D01*
X151942662Y-90761705D01*
X151942369Y-90761373D01*
X151874289Y-90678153D01*
X151873905Y-90677626D01*
X151806944Y-90574137D01*
X151806598Y-90573522D01*
X151748339Y-90453312D01*
X151747816Y-90444374D01*
X151753766Y-90437682D01*
X151754360Y-90437414D01*
X152395509Y-90170866D01*
X152404463Y-90170856D01*
X152404491Y-90170867D01*
G37*
%TD.AperFunction*%
%TD*%
%TA.AperFunction,Conductor*%
%TO.N,/V-D7*%
G36*
X158896750Y-109587606D02*
G01*
X158899501Y-109590171D01*
X158949934Y-109655321D01*
X159004798Y-109720798D01*
X159059662Y-109780877D01*
X159114527Y-109835558D01*
X159169391Y-109884841D01*
X159191347Y-109902403D01*
X159224253Y-109928725D01*
X159224254Y-109928726D01*
X159252536Y-109948565D01*
X159279120Y-109967213D01*
X159279122Y-109967214D01*
X159279123Y-109967215D01*
X159333980Y-110000300D01*
X159333984Y-110000302D01*
X159388848Y-110027993D01*
X159388853Y-110027995D01*
X159388855Y-110027996D01*
X159435067Y-110046774D01*
X159441442Y-110053063D01*
X159442210Y-110059497D01*
X158761738Y-114230225D01*
X158757024Y-114237838D01*
X158748307Y-114239888D01*
X158740694Y-114235174D01*
X158738645Y-114230228D01*
X158057902Y-110060180D01*
X158059951Y-110051464D01*
X158065814Y-110047176D01*
X158110741Y-110032506D01*
X158110745Y-110032504D01*
X158110752Y-110032502D01*
X158149120Y-110016379D01*
X158165196Y-110009625D01*
X158219651Y-109981644D01*
X158274106Y-109948563D01*
X158328561Y-109910382D01*
X158383016Y-109867100D01*
X158383015Y-109867101D01*
X158437481Y-109818710D01*
X158491928Y-109765235D01*
X158546381Y-109706655D01*
X158546380Y-109706654D01*
X158598203Y-109646051D01*
X158604808Y-109642182D01*
X158887969Y-109585859D01*
X158896750Y-109587606D01*
G37*
%TD.AperFunction*%
%TD*%
%TA.AperFunction,Conductor*%
%TO.N,/V-D6*%
G36*
X156358535Y-109625901D02*
G01*
X156360675Y-109627911D01*
X156411151Y-109688957D01*
X156465880Y-109749939D01*
X156520599Y-109805703D01*
X156575334Y-109856274D01*
X156575333Y-109856273D01*
X156630067Y-109901634D01*
X156684792Y-109941778D01*
X156684792Y-109941779D01*
X156739515Y-109976714D01*
X156739519Y-109976716D01*
X156739525Y-109976720D01*
X156794254Y-110006451D01*
X156848983Y-110030973D01*
X156859349Y-110034631D01*
X156894483Y-110047030D01*
X156901144Y-110053015D01*
X156902136Y-110059947D01*
X156221700Y-114230232D01*
X156216986Y-114237845D01*
X156208269Y-114239895D01*
X156200656Y-114235181D01*
X156198606Y-114230233D01*
X156198606Y-114230232D01*
X155517960Y-110060538D01*
X155520009Y-110051823D01*
X155526269Y-110047413D01*
X155551609Y-110040118D01*
X155570672Y-110034631D01*
X155625042Y-110014002D01*
X155641079Y-110006449D01*
X155679436Y-109988384D01*
X155733819Y-109957794D01*
X155788202Y-109922225D01*
X155842584Y-109881679D01*
X155896962Y-109836158D01*
X155896961Y-109836158D01*
X155896968Y-109836152D01*
X155951351Y-109785649D01*
X156005734Y-109730167D01*
X156057344Y-109672790D01*
X156064212Y-109669058D01*
X156349828Y-109623811D01*
X156358535Y-109625901D01*
G37*
%TD.AperFunction*%
%TD*%
%TA.AperFunction,Conductor*%
%TO.N,/V-D6*%
G36*
X149860443Y-87632426D02*
G01*
X149862993Y-87636239D01*
X150127390Y-88275522D01*
X150127385Y-88284477D01*
X150121050Y-88290806D01*
X150120335Y-88291074D01*
X150034255Y-88320265D01*
X150033627Y-88320440D01*
X149939498Y-88341050D01*
X149939085Y-88341125D01*
X149849820Y-88354042D01*
X149767101Y-88364020D01*
X149692738Y-88375837D01*
X149692734Y-88375837D01*
X149628321Y-88394299D01*
X149591452Y-88415161D01*
X149575446Y-88424218D01*
X149575445Y-88424218D01*
X149575445Y-88424219D01*
X149535705Y-88470397D01*
X149535702Y-88470402D01*
X149510691Y-88537647D01*
X149510690Y-88537653D01*
X149502990Y-88620167D01*
X149498810Y-88628086D01*
X149491341Y-88630780D01*
X149213573Y-88630780D01*
X149205300Y-88627353D01*
X149201874Y-88619208D01*
X149200510Y-88494521D01*
X149196467Y-88382382D01*
X149190508Y-88288334D01*
X149183273Y-88206347D01*
X149175400Y-88130389D01*
X149167526Y-88054433D01*
X149160291Y-87972444D01*
X149154332Y-87878396D01*
X149150289Y-87766258D01*
X149148929Y-87641811D01*
X149152265Y-87633501D01*
X149160500Y-87629984D01*
X149160559Y-87629983D01*
X149852165Y-87629011D01*
X149860443Y-87632426D01*
G37*
%TD.AperFunction*%
%TD*%
%TA.AperFunction,Conductor*%
%TO.N,/V-D5*%
G36*
X151754372Y-84822555D02*
G01*
X152371555Y-85077262D01*
X152396210Y-85087437D01*
X152402551Y-85093761D01*
X152402562Y-85093789D01*
X152667437Y-85735609D01*
X152667426Y-85744563D01*
X152661085Y-85750887D01*
X152660459Y-85751125D01*
X152534265Y-85794930D01*
X152533574Y-85795123D01*
X152485831Y-85805354D01*
X152413058Y-85820950D01*
X152412414Y-85821050D01*
X152305425Y-85831756D01*
X152304984Y-85831783D01*
X152207926Y-85834129D01*
X152117509Y-85834871D01*
X152117508Y-85834871D01*
X152030571Y-85840805D01*
X152030562Y-85840806D01*
X151943714Y-85858733D01*
X151943708Y-85858735D01*
X151853522Y-85895462D01*
X151756629Y-85957783D01*
X151657862Y-86045216D01*
X151649396Y-86048133D01*
X151641834Y-86044728D01*
X151445271Y-85848165D01*
X151441844Y-85839892D01*
X151444781Y-85832140D01*
X151532212Y-85733374D01*
X151594537Y-85636475D01*
X151631263Y-85546290D01*
X151649193Y-85459425D01*
X151655128Y-85372484D01*
X151655869Y-85282072D01*
X151658214Y-85185014D01*
X151658241Y-85184573D01*
X151668947Y-85077584D01*
X151669044Y-85076957D01*
X151694878Y-84956409D01*
X151695065Y-84955744D01*
X151738874Y-84829539D01*
X151744824Y-84822848D01*
X151753764Y-84822324D01*
X151754372Y-84822555D01*
G37*
%TD.AperFunction*%
%TD*%
%TA.AperFunction,Conductor*%
%TO.N,/V-D5*%
G36*
X153822335Y-109558427D02*
G01*
X153823504Y-109559791D01*
X153874371Y-109629351D01*
X153928742Y-109698186D01*
X153983113Y-109761505D01*
X154037485Y-109819308D01*
X154091856Y-109871594D01*
X154146227Y-109918365D01*
X154200599Y-109959619D01*
X154254970Y-109995358D01*
X154254974Y-109995360D01*
X154309338Y-110025579D01*
X154309339Y-110025579D01*
X154355564Y-110046584D01*
X154361679Y-110053127D01*
X154362271Y-110059120D01*
X153681547Y-114230245D01*
X153676833Y-114237859D01*
X153668116Y-114239908D01*
X153660502Y-114235194D01*
X153658453Y-114230246D01*
X153658453Y-114230245D01*
X152977728Y-110059119D01*
X152979777Y-110050403D01*
X152984433Y-110046584D01*
X153030658Y-110025580D01*
X153085029Y-109995358D01*
X153139400Y-109959619D01*
X153193772Y-109918365D01*
X153248143Y-109871594D01*
X153302514Y-109819308D01*
X153356886Y-109761505D01*
X153411257Y-109698186D01*
X153465628Y-109629351D01*
X153516494Y-109559793D01*
X153524143Y-109555138D01*
X153525938Y-109555000D01*
X153814062Y-109555000D01*
X153822335Y-109558427D01*
G37*
%TD.AperFunction*%
%TD*%
%TA.AperFunction,Conductor*%
%TO.N,/V-D4*%
G36*
X151282335Y-109558427D02*
G01*
X151283504Y-109559791D01*
X151334371Y-109629351D01*
X151388742Y-109698186D01*
X151443113Y-109761505D01*
X151497485Y-109819308D01*
X151551856Y-109871594D01*
X151606227Y-109918365D01*
X151660599Y-109959619D01*
X151714970Y-109995358D01*
X151714974Y-109995360D01*
X151769338Y-110025579D01*
X151769339Y-110025579D01*
X151815564Y-110046584D01*
X151821679Y-110053127D01*
X151822271Y-110059120D01*
X151141547Y-114230245D01*
X151136833Y-114237859D01*
X151128116Y-114239908D01*
X151120502Y-114235194D01*
X151118453Y-114230246D01*
X151118453Y-114230245D01*
X150437728Y-110059119D01*
X150439777Y-110050403D01*
X150444433Y-110046584D01*
X150490658Y-110025580D01*
X150545029Y-109995358D01*
X150599400Y-109959619D01*
X150653772Y-109918365D01*
X150708143Y-109871594D01*
X150762514Y-109819308D01*
X150816886Y-109761505D01*
X150871257Y-109698186D01*
X150925628Y-109629351D01*
X150976494Y-109559793D01*
X150984143Y-109555138D01*
X150985938Y-109555000D01*
X151274062Y-109555000D01*
X151282335Y-109558427D01*
G37*
%TD.AperFunction*%
%TD*%
%TA.AperFunction,Conductor*%
%TO.N,/V-D4*%
G36*
X149365391Y-84595384D02*
G01*
X149365757Y-84595734D01*
X149731207Y-84960193D01*
X149855317Y-85083967D01*
X149858755Y-85092235D01*
X149857861Y-85096738D01*
X149592792Y-85735125D01*
X149586454Y-85741451D01*
X149577499Y-85741444D01*
X149576455Y-85740948D01*
X149508727Y-85704559D01*
X149506915Y-85703355D01*
X149443476Y-85652105D01*
X149442264Y-85650976D01*
X149389524Y-85594323D01*
X149389223Y-85593972D01*
X149343749Y-85536250D01*
X149302329Y-85482349D01*
X149302327Y-85482346D01*
X149261462Y-85436934D01*
X149261461Y-85436933D01*
X149217519Y-85404497D01*
X149217516Y-85404496D01*
X149166839Y-85389511D01*
X149166837Y-85389511D01*
X149105792Y-85396464D01*
X149040353Y-85425562D01*
X149031401Y-85425792D01*
X149025467Y-85420721D01*
X148886310Y-85179695D01*
X148885141Y-85170817D01*
X148890114Y-85164004D01*
X148966098Y-85115165D01*
X149029900Y-85062691D01*
X149077082Y-85011428D01*
X149112585Y-84960193D01*
X149141351Y-84907804D01*
X149168322Y-84853075D01*
X149198353Y-84794994D01*
X149198531Y-84794676D01*
X149236514Y-84732093D01*
X149236812Y-84731652D01*
X149287719Y-84663254D01*
X149288081Y-84662813D01*
X149348864Y-84596146D01*
X149356968Y-84592342D01*
X149365391Y-84595384D01*
G37*
%TD.AperFunction*%
%TD*%
%TA.AperFunction,Conductor*%
%TO.N,/V-D3*%
G36*
X151754372Y-82282555D02*
G01*
X152371555Y-82537262D01*
X152396210Y-82547437D01*
X152402551Y-82553761D01*
X152402562Y-82553789D01*
X152667437Y-83195609D01*
X152667426Y-83204563D01*
X152661085Y-83210887D01*
X152660459Y-83211125D01*
X152534265Y-83254930D01*
X152533574Y-83255123D01*
X152485831Y-83265354D01*
X152413058Y-83280950D01*
X152412414Y-83281050D01*
X152305425Y-83291756D01*
X152304984Y-83291783D01*
X152207926Y-83294129D01*
X152117509Y-83294871D01*
X152117508Y-83294871D01*
X152030571Y-83300805D01*
X152030562Y-83300806D01*
X151943714Y-83318733D01*
X151943708Y-83318735D01*
X151853522Y-83355462D01*
X151756629Y-83417783D01*
X151657862Y-83505216D01*
X151649396Y-83508133D01*
X151641834Y-83504728D01*
X151445271Y-83308165D01*
X151441844Y-83299892D01*
X151444781Y-83292140D01*
X151532212Y-83193374D01*
X151594537Y-83096475D01*
X151631263Y-83006290D01*
X151649193Y-82919425D01*
X151655128Y-82832484D01*
X151655869Y-82742072D01*
X151658214Y-82645014D01*
X151658241Y-82644573D01*
X151668947Y-82537584D01*
X151669044Y-82536957D01*
X151694878Y-82416409D01*
X151695065Y-82415744D01*
X151738874Y-82289539D01*
X151744824Y-82282848D01*
X151753764Y-82282324D01*
X151754372Y-82282555D01*
G37*
%TD.AperFunction*%
%TD*%
%TA.AperFunction,Conductor*%
%TO.N,/V-D3*%
G36*
X148742335Y-109558427D02*
G01*
X148743504Y-109559791D01*
X148794371Y-109629351D01*
X148848742Y-109698186D01*
X148903113Y-109761505D01*
X148957485Y-109819308D01*
X149011856Y-109871594D01*
X149066227Y-109918365D01*
X149120599Y-109959619D01*
X149174970Y-109995358D01*
X149174974Y-109995360D01*
X149229338Y-110025579D01*
X149229339Y-110025579D01*
X149275564Y-110046584D01*
X149281679Y-110053127D01*
X149282271Y-110059120D01*
X148601547Y-114230245D01*
X148596833Y-114237859D01*
X148588116Y-114239908D01*
X148580502Y-114235194D01*
X148578453Y-114230246D01*
X148578453Y-114230245D01*
X147897728Y-110059119D01*
X147899777Y-110050403D01*
X147904433Y-110046584D01*
X147950658Y-110025580D01*
X148005029Y-109995358D01*
X148059400Y-109959619D01*
X148113772Y-109918365D01*
X148168143Y-109871594D01*
X148222514Y-109819308D01*
X148276886Y-109761505D01*
X148331257Y-109698186D01*
X148385628Y-109629351D01*
X148436494Y-109559793D01*
X148444143Y-109555138D01*
X148445938Y-109555000D01*
X148734062Y-109555000D01*
X148742335Y-109558427D01*
G37*
%TD.AperFunction*%
%TD*%
%TA.AperFunction,Conductor*%
%TO.N,/V-A12*%
G36*
X164454372Y-79742555D02*
G01*
X165071555Y-79997262D01*
X165096210Y-80007437D01*
X165102551Y-80013761D01*
X165102562Y-80013789D01*
X165367437Y-80655609D01*
X165367426Y-80664563D01*
X165361085Y-80670887D01*
X165360459Y-80671125D01*
X165234265Y-80714930D01*
X165233574Y-80715123D01*
X165185831Y-80725354D01*
X165113058Y-80740950D01*
X165112414Y-80741050D01*
X165005425Y-80751756D01*
X165004984Y-80751783D01*
X164907926Y-80754129D01*
X164817509Y-80754871D01*
X164817508Y-80754871D01*
X164730571Y-80760805D01*
X164730562Y-80760806D01*
X164643714Y-80778733D01*
X164643708Y-80778735D01*
X164553522Y-80815462D01*
X164456629Y-80877783D01*
X164357862Y-80965216D01*
X164349396Y-80968133D01*
X164341834Y-80964728D01*
X164145271Y-80768165D01*
X164141844Y-80759892D01*
X164144781Y-80752140D01*
X164232212Y-80653374D01*
X164294537Y-80556475D01*
X164331263Y-80466290D01*
X164349193Y-80379425D01*
X164355128Y-80292484D01*
X164355869Y-80202072D01*
X164358214Y-80105014D01*
X164358241Y-80104573D01*
X164368947Y-79997584D01*
X164369044Y-79996957D01*
X164394878Y-79876409D01*
X164395065Y-79875744D01*
X164438874Y-79749539D01*
X164444824Y-79742848D01*
X164453764Y-79742324D01*
X164454372Y-79742555D01*
G37*
%TD.AperFunction*%
%TD*%
%TA.AperFunction,Conductor*%
%TO.N,/V-A12*%
G36*
X143820646Y-107794059D02*
G01*
X143879708Y-107849874D01*
X143938554Y-107897878D01*
X143973142Y-107921000D01*
X143991583Y-107933328D01*
X143991586Y-107933330D01*
X143991594Y-107933335D01*
X144041504Y-107959319D01*
X144090959Y-107978904D01*
X144127296Y-107990338D01*
X144142636Y-107995165D01*
X144199209Y-108011176D01*
X144263356Y-108030010D01*
X144337632Y-108054703D01*
X144337876Y-108054791D01*
X144385162Y-108073043D01*
X144413914Y-108084141D01*
X144420398Y-108090317D01*
X144420616Y-108099269D01*
X144420521Y-108099508D01*
X144274563Y-108454195D01*
X144268245Y-108460542D01*
X144268195Y-108460563D01*
X143913508Y-108606521D01*
X143904554Y-108606500D01*
X143898236Y-108600153D01*
X143898141Y-108599914D01*
X143868797Y-108523893D01*
X143868703Y-108523632D01*
X143844010Y-108449356D01*
X143825176Y-108385209D01*
X143809165Y-108328636D01*
X143792903Y-108276957D01*
X143773319Y-108227504D01*
X143747335Y-108177594D01*
X143711878Y-108124554D01*
X143663874Y-108065708D01*
X143608059Y-108006646D01*
X143604869Y-107998280D01*
X143608290Y-107990339D01*
X143804339Y-107794290D01*
X143812611Y-107790864D01*
X143820646Y-107794059D01*
G37*
%TD.AperFunction*%
%TD*%
%TA.AperFunction,Conductor*%
%TO.N,/V-A13*%
G36*
X160718186Y-87629987D02*
G01*
X160726455Y-87633422D01*
X160729874Y-87641699D01*
X160729807Y-87642939D01*
X160716856Y-87763267D01*
X160716350Y-87765631D01*
X160679205Y-87879923D01*
X160678464Y-87881695D01*
X160626270Y-87982311D01*
X160625970Y-87982823D01*
X160566802Y-88073135D01*
X160566802Y-88073136D01*
X160525292Y-88132956D01*
X160509303Y-88155997D01*
X160462041Y-88234608D01*
X160462038Y-88234613D01*
X160433400Y-88312456D01*
X160431779Y-88393003D01*
X160458100Y-88460535D01*
X160465573Y-88479709D01*
X160536585Y-88567862D01*
X160539107Y-88576454D01*
X160535747Y-88583474D01*
X160339137Y-88780084D01*
X160330864Y-88783511D01*
X160322776Y-88780265D01*
X160228465Y-88690038D01*
X160139998Y-88613630D01*
X160139998Y-88613629D01*
X160062137Y-88553538D01*
X159991338Y-88504317D01*
X159924075Y-88460535D01*
X159856811Y-88416752D01*
X159786117Y-88367603D01*
X159785898Y-88367442D01*
X159708286Y-88307544D01*
X159708046Y-88307348D01*
X159619797Y-88231127D01*
X159619592Y-88230941D01*
X159525737Y-88141151D01*
X159522128Y-88132956D01*
X159525371Y-88124609D01*
X159525493Y-88124483D01*
X160015861Y-87632733D01*
X160024126Y-87629297D01*
X160718186Y-87629987D01*
G37*
%TD.AperFunction*%
%TD*%
%TA.AperFunction,Conductor*%
%TO.N,/V-A13*%
G36*
X170285427Y-94637250D02*
G01*
X170285529Y-94637487D01*
X170433123Y-94991497D01*
X170433144Y-95000451D01*
X170433123Y-95000501D01*
X170285529Y-95354512D01*
X170279182Y-95360830D01*
X170270228Y-95360809D01*
X170269991Y-95360707D01*
X170195489Y-95327701D01*
X170195238Y-95327583D01*
X170125254Y-95292522D01*
X170066577Y-95260481D01*
X170015252Y-95231799D01*
X169967218Y-95206758D01*
X169918405Y-95185639D01*
X169918394Y-95185635D01*
X169864736Y-95168719D01*
X169864729Y-95168717D01*
X169802153Y-95156284D01*
X169802142Y-95156282D01*
X169726604Y-95148618D01*
X169726597Y-95148618D01*
X169674660Y-95147149D01*
X169645369Y-95146321D01*
X169637196Y-95142662D01*
X169634000Y-95134626D01*
X169634000Y-94857373D01*
X169637427Y-94849100D01*
X169645367Y-94845678D01*
X169726597Y-94843381D01*
X169726604Y-94843380D01*
X169726604Y-94843381D01*
X169802142Y-94835716D01*
X169802141Y-94835716D01*
X169802152Y-94835715D01*
X169864729Y-94823282D01*
X169918394Y-94806364D01*
X169967213Y-94785243D01*
X169967211Y-94785243D01*
X169967218Y-94785241D01*
X170015252Y-94760200D01*
X170066577Y-94731517D01*
X170125254Y-94699477D01*
X170125253Y-94699477D01*
X170195257Y-94664404D01*
X170195452Y-94664312D01*
X170269992Y-94631291D01*
X170278943Y-94631074D01*
X170285427Y-94637250D01*
G37*
%TD.AperFunction*%
%TD*%
%TA.AperFunction,Conductor*%
%TO.N,/V-A14*%
G36*
X163214271Y-89902695D02*
G01*
X163220596Y-89909034D01*
X163220928Y-89909941D01*
X163259700Y-90031374D01*
X163260131Y-90033238D01*
X163278048Y-90155594D01*
X163278109Y-90156369D01*
X163279532Y-90269574D01*
X163279519Y-90270044D01*
X163272412Y-90374697D01*
X163264867Y-90471539D01*
X163265033Y-90561270D01*
X163281040Y-90644776D01*
X163281041Y-90644777D01*
X163321020Y-90722971D01*
X163321021Y-90722973D01*
X163321023Y-90722975D01*
X163393108Y-90796774D01*
X163496350Y-90861400D01*
X163501544Y-90868694D01*
X163500567Y-90876629D01*
X163374369Y-91124285D01*
X163367559Y-91130100D01*
X163358969Y-91129563D01*
X163347734Y-91124285D01*
X163231267Y-91069568D01*
X163142271Y-91035712D01*
X163114295Y-91025070D01*
X163012929Y-90996108D01*
X162982470Y-90990025D01*
X162921787Y-90977907D01*
X162835462Y-90965684D01*
X162748590Y-90954665D01*
X162655956Y-90940098D01*
X162655605Y-90940032D01*
X162551844Y-90917170D01*
X162551429Y-90917062D01*
X162430981Y-90881106D01*
X162430588Y-90880973D01*
X162398073Y-90868694D01*
X162299114Y-90831322D01*
X162292588Y-90825195D01*
X162292304Y-90816244D01*
X162292410Y-90815974D01*
X162557255Y-90174040D01*
X162563576Y-90167701D01*
X163205318Y-89902686D01*
X163214271Y-89902695D01*
G37*
%TD.AperFunction*%
%TD*%
%TA.AperFunction,Conductor*%
%TO.N,/V-A14*%
G36*
X173612405Y-88632954D02*
G01*
X173612435Y-88632983D01*
X173883308Y-88904814D01*
X173886720Y-88913093D01*
X173883279Y-88921360D01*
X173883002Y-88921627D01*
X173834412Y-88966962D01*
X173834144Y-88967197D01*
X173781419Y-89010698D01*
X173733563Y-89047368D01*
X173691045Y-89080232D01*
X173654175Y-89112437D01*
X173654174Y-89112439D01*
X173623295Y-89147110D01*
X173623289Y-89147119D01*
X173598712Y-89187405D01*
X173598709Y-89187412D01*
X173580754Y-89236459D01*
X173580753Y-89236462D01*
X173569742Y-89297416D01*
X173566548Y-89362285D01*
X173562718Y-89370380D01*
X173554862Y-89373410D01*
X173277517Y-89373410D01*
X173269244Y-89369983D01*
X173265818Y-89361895D01*
X173264404Y-89272143D01*
X173260072Y-89188862D01*
X173253688Y-89119071D01*
X173245936Y-89058273D01*
X173237500Y-89001972D01*
X173229064Y-88945671D01*
X173221312Y-88884873D01*
X173214928Y-88815082D01*
X173210596Y-88731802D01*
X173209186Y-88642387D01*
X173212482Y-88634064D01*
X173220701Y-88630507D01*
X173220764Y-88630506D01*
X173604124Y-88629548D01*
X173612405Y-88632954D01*
G37*
%TD.AperFunction*%
%TD*%
%TA.AperFunction,Conductor*%
%TO.N,/V-A14*%
G36*
X173565404Y-89089427D02*
G01*
X173568396Y-89094539D01*
X173579858Y-89135384D01*
X173593716Y-89182519D01*
X173607574Y-89227404D01*
X173621432Y-89270037D01*
X173635291Y-89310423D01*
X173649149Y-89348558D01*
X173663007Y-89384442D01*
X173676865Y-89418077D01*
X173690723Y-89449462D01*
X173702117Y-89473414D01*
X173702576Y-89482357D01*
X173701993Y-89483718D01*
X173426442Y-90028842D01*
X173419651Y-90034680D01*
X173410722Y-90034006D01*
X173405558Y-90028842D01*
X173316672Y-89853000D01*
X173130005Y-89483716D01*
X173129332Y-89474789D01*
X173129875Y-89473430D01*
X173141276Y-89449462D01*
X173155134Y-89418077D01*
X173168992Y-89384442D01*
X173182850Y-89348558D01*
X173196709Y-89310423D01*
X173196709Y-89310422D01*
X173210568Y-89270038D01*
X173224425Y-89227404D01*
X173238283Y-89182519D01*
X173252141Y-89135384D01*
X173263604Y-89094538D01*
X173269139Y-89087499D01*
X173274869Y-89086000D01*
X173557131Y-89086000D01*
X173565404Y-89089427D01*
G37*
%TD.AperFunction*%
%TD*%
%TA.AperFunction,Conductor*%
%TO.N,/V-RW*%
G36*
X171047427Y-93621250D02*
G01*
X171047529Y-93621487D01*
X171195123Y-93975497D01*
X171195144Y-93984451D01*
X171195123Y-93984501D01*
X171047529Y-94338512D01*
X171041182Y-94344830D01*
X171032228Y-94344809D01*
X171031991Y-94344707D01*
X170957489Y-94311701D01*
X170957238Y-94311583D01*
X170887254Y-94276522D01*
X170828577Y-94244481D01*
X170777252Y-94215799D01*
X170729218Y-94190758D01*
X170680405Y-94169639D01*
X170680394Y-94169635D01*
X170626736Y-94152719D01*
X170626729Y-94152717D01*
X170564153Y-94140284D01*
X170564142Y-94140282D01*
X170488604Y-94132618D01*
X170488597Y-94132618D01*
X170436660Y-94131149D01*
X170407369Y-94130321D01*
X170399196Y-94126662D01*
X170396000Y-94118626D01*
X170396000Y-93841373D01*
X170399427Y-93833100D01*
X170407367Y-93829678D01*
X170488597Y-93827381D01*
X170488604Y-93827380D01*
X170488604Y-93827381D01*
X170564142Y-93819716D01*
X170564141Y-93819716D01*
X170564152Y-93819715D01*
X170626729Y-93807282D01*
X170680394Y-93790364D01*
X170729213Y-93769243D01*
X170729211Y-93769243D01*
X170729218Y-93769241D01*
X170777252Y-93744200D01*
X170828577Y-93715517D01*
X170887254Y-93683477D01*
X170887254Y-93683476D01*
X170957257Y-93648404D01*
X170957452Y-93648312D01*
X171031992Y-93615291D01*
X171040943Y-93615074D01*
X171047427Y-93621250D01*
G37*
%TD.AperFunction*%
%TD*%
%TA.AperFunction,Conductor*%
%TO.N,/V-RW*%
G36*
X164197445Y-92561499D02*
G01*
X164203763Y-92567846D01*
X164203858Y-92568085D01*
X164233201Y-92644105D01*
X164233295Y-92644366D01*
X164254263Y-92707436D01*
X164257988Y-92718642D01*
X164276822Y-92782789D01*
X164292833Y-92839363D01*
X164309094Y-92891039D01*
X164328679Y-92940495D01*
X164354664Y-92990404D01*
X164390121Y-93043444D01*
X164438125Y-93102291D01*
X164493939Y-93161352D01*
X164497130Y-93169719D01*
X164493708Y-93177661D01*
X164297661Y-93373708D01*
X164289388Y-93377135D01*
X164281352Y-93373939D01*
X164222291Y-93318125D01*
X164205121Y-93304119D01*
X164163447Y-93270123D01*
X164163445Y-93270122D01*
X164163444Y-93270121D01*
X164110404Y-93234664D01*
X164060495Y-93208679D01*
X164011039Y-93189094D01*
X163959363Y-93172833D01*
X163902789Y-93156822D01*
X163838642Y-93137988D01*
X163838641Y-93137987D01*
X163764366Y-93113295D01*
X163764105Y-93113201D01*
X163688085Y-93083858D01*
X163681601Y-93077682D01*
X163681383Y-93068730D01*
X163681457Y-93068543D01*
X163827437Y-92713802D01*
X163833753Y-92707457D01*
X164188492Y-92561478D01*
X164197445Y-92561499D01*
G37*
%TD.AperFunction*%
%TD*%
%TA.AperFunction,Conductor*%
%TO.N,/V-RW*%
G36*
X143658535Y-109625901D02*
G01*
X143660675Y-109627911D01*
X143711151Y-109688957D01*
X143765880Y-109749939D01*
X143820599Y-109805703D01*
X143875334Y-109856274D01*
X143875333Y-109856273D01*
X143930067Y-109901634D01*
X143984792Y-109941778D01*
X143984792Y-109941779D01*
X144039515Y-109976714D01*
X144039519Y-109976716D01*
X144039525Y-109976720D01*
X144094254Y-110006451D01*
X144148983Y-110030973D01*
X144159349Y-110034631D01*
X144194483Y-110047030D01*
X144201144Y-110053015D01*
X144202136Y-110059947D01*
X143521700Y-114230232D01*
X143516986Y-114237845D01*
X143508269Y-114239895D01*
X143500656Y-114235181D01*
X143498606Y-114230233D01*
X143498606Y-114230232D01*
X142817960Y-110060538D01*
X142820009Y-110051823D01*
X142826269Y-110047413D01*
X142851609Y-110040118D01*
X142870672Y-110034631D01*
X142925042Y-110014002D01*
X142941079Y-110006449D01*
X142979436Y-109988384D01*
X143033819Y-109957794D01*
X143088202Y-109922225D01*
X143142584Y-109881679D01*
X143196962Y-109836158D01*
X143196961Y-109836158D01*
X143196968Y-109836152D01*
X143251351Y-109785649D01*
X143305734Y-109730167D01*
X143357344Y-109672790D01*
X143364212Y-109669058D01*
X143649828Y-109623811D01*
X143658535Y-109625901D01*
G37*
%TD.AperFunction*%
%TD*%
%TA.AperFunction,Conductor*%
%TO.N,/V-RW*%
G36*
X177904512Y-91334470D02*
G01*
X177910830Y-91340817D01*
X177910809Y-91349771D01*
X177910707Y-91350008D01*
X177877701Y-91424509D01*
X177877583Y-91424760D01*
X177842522Y-91494744D01*
X177810481Y-91553421D01*
X177781799Y-91604746D01*
X177756758Y-91652780D01*
X177735639Y-91701593D01*
X177735635Y-91701604D01*
X177718719Y-91755262D01*
X177718717Y-91755269D01*
X177706284Y-91817845D01*
X177706282Y-91817856D01*
X177698618Y-91893394D01*
X177698619Y-91893393D01*
X177698618Y-91893401D01*
X177697141Y-91945638D01*
X177696321Y-91974631D01*
X177692662Y-91982804D01*
X177684626Y-91986000D01*
X177407373Y-91986000D01*
X177399100Y-91982573D01*
X177395678Y-91974631D01*
X177393381Y-91893401D01*
X177393380Y-91893393D01*
X177393381Y-91893394D01*
X177385716Y-91817856D01*
X177385715Y-91817854D01*
X177385715Y-91817847D01*
X177373282Y-91755270D01*
X177356364Y-91701605D01*
X177335243Y-91652785D01*
X177335241Y-91652780D01*
X177310200Y-91604746D01*
X177281517Y-91553421D01*
X177249477Y-91494744D01*
X177214414Y-91424760D01*
X177214305Y-91424528D01*
X177181291Y-91350007D01*
X177181074Y-91341056D01*
X177187250Y-91334572D01*
X177187439Y-91334490D01*
X177541500Y-91186875D01*
X177550449Y-91186855D01*
X177904512Y-91334470D01*
G37*
%TD.AperFunction*%
%TD*%
%TA.AperFunction,Conductor*%
%TO.N,/V-RW*%
G36*
X177695404Y-91364427D02*
G01*
X177698396Y-91369539D01*
X177709858Y-91410384D01*
X177723716Y-91457519D01*
X177737574Y-91502404D01*
X177751432Y-91545037D01*
X177765291Y-91585423D01*
X177779149Y-91623558D01*
X177793007Y-91659442D01*
X177806865Y-91693077D01*
X177820723Y-91724462D01*
X177832117Y-91748414D01*
X177832576Y-91757357D01*
X177831993Y-91758718D01*
X177556442Y-92303842D01*
X177549651Y-92309680D01*
X177540722Y-92309006D01*
X177535558Y-92303842D01*
X177446672Y-92128000D01*
X177260005Y-91758716D01*
X177259332Y-91749789D01*
X177259875Y-91748430D01*
X177271276Y-91724462D01*
X177285134Y-91693077D01*
X177298992Y-91659442D01*
X177312850Y-91623558D01*
X177326709Y-91585423D01*
X177326709Y-91585422D01*
X177340568Y-91545038D01*
X177354425Y-91502404D01*
X177368283Y-91457519D01*
X177382141Y-91410384D01*
X177393604Y-91369538D01*
X177399139Y-91362499D01*
X177404869Y-91361000D01*
X177687131Y-91361000D01*
X177695404Y-91364427D01*
G37*
%TD.AperFunction*%
%TD*%
%TA.AperFunction,Conductor*%
%TO.N,/V-RW*%
G36*
X142598512Y-104542470D02*
G01*
X142604830Y-104548817D01*
X142604809Y-104557771D01*
X142604707Y-104558008D01*
X142571701Y-104632509D01*
X142571583Y-104632760D01*
X142536522Y-104702744D01*
X142504481Y-104761421D01*
X142475799Y-104812746D01*
X142450758Y-104860780D01*
X142429639Y-104909593D01*
X142429635Y-104909604D01*
X142412719Y-104963262D01*
X142412717Y-104963269D01*
X142400284Y-105025845D01*
X142400282Y-105025856D01*
X142392618Y-105101394D01*
X142392619Y-105101393D01*
X142392618Y-105101401D01*
X142391141Y-105153638D01*
X142390321Y-105182631D01*
X142386662Y-105190804D01*
X142378626Y-105194000D01*
X142101373Y-105194000D01*
X142093100Y-105190573D01*
X142089678Y-105182631D01*
X142087381Y-105101401D01*
X142087380Y-105101393D01*
X142087381Y-105101394D01*
X142079716Y-105025856D01*
X142079715Y-105025854D01*
X142079715Y-105025847D01*
X142067282Y-104963270D01*
X142050364Y-104909605D01*
X142029243Y-104860785D01*
X142029241Y-104860780D01*
X142004200Y-104812746D01*
X141975517Y-104761421D01*
X141943477Y-104702744D01*
X141908414Y-104632760D01*
X141908305Y-104632528D01*
X141875291Y-104558007D01*
X141875074Y-104549056D01*
X141881250Y-104542572D01*
X141881439Y-104542490D01*
X142235500Y-104394875D01*
X142244449Y-104394855D01*
X142598512Y-104542470D01*
G37*
%TD.AperFunction*%
%TD*%
%TA.AperFunction,Conductor*%
%TO.N,/PB6*%
G36*
X165858165Y-81595271D02*
G01*
X166054728Y-81791834D01*
X166058155Y-81800107D01*
X166055216Y-81807862D01*
X165967783Y-81906629D01*
X165905462Y-82003522D01*
X165868735Y-82093708D01*
X165868733Y-82093714D01*
X165850806Y-82180562D01*
X165850805Y-82180571D01*
X165844871Y-82267508D01*
X165844871Y-82267509D01*
X165844129Y-82357926D01*
X165841783Y-82454984D01*
X165841756Y-82455425D01*
X165831050Y-82562414D01*
X165830950Y-82563058D01*
X165805124Y-82683572D01*
X165804930Y-82684265D01*
X165761125Y-82810459D01*
X165755175Y-82817151D01*
X165746235Y-82817675D01*
X165745609Y-82817437D01*
X165103789Y-82552562D01*
X165097449Y-82546239D01*
X164832562Y-81904388D01*
X164832573Y-81895436D01*
X164838914Y-81889112D01*
X164839533Y-81888876D01*
X164965744Y-81845065D01*
X164966409Y-81844878D01*
X165086957Y-81819044D01*
X165087584Y-81818947D01*
X165124677Y-81815235D01*
X165194583Y-81808240D01*
X165195014Y-81808214D01*
X165292072Y-81805869D01*
X165382490Y-81805128D01*
X165382491Y-81805128D01*
X165413462Y-81803013D01*
X165469425Y-81799193D01*
X165469433Y-81799191D01*
X165469436Y-81799191D01*
X165505077Y-81791834D01*
X165556290Y-81781263D01*
X165646475Y-81744537D01*
X165743374Y-81682212D01*
X165842140Y-81594781D01*
X165850603Y-81591866D01*
X165858165Y-81595271D01*
G37*
%TD.AperFunction*%
%TD*%
%TA.AperFunction,Conductor*%
%TO.N,/PB6*%
G36*
X142640559Y-102171312D02*
G01*
X142643986Y-102179585D01*
X142643986Y-102179599D01*
X142643888Y-102263373D01*
X142643584Y-102342011D01*
X142643136Y-102408009D01*
X142642592Y-102465582D01*
X142641408Y-102572302D01*
X142640864Y-102629875D01*
X142640416Y-102695873D01*
X142640112Y-102774512D01*
X142640013Y-102858343D01*
X142636576Y-102866612D01*
X142628342Y-102870029D01*
X142244875Y-102870987D01*
X142236594Y-102867581D01*
X142236558Y-102867546D01*
X142227387Y-102858343D01*
X141965910Y-102595941D01*
X141962499Y-102587662D01*
X141965940Y-102579395D01*
X141966411Y-102578953D01*
X142016753Y-102534324D01*
X142017267Y-102533919D01*
X142038591Y-102518942D01*
X142074651Y-102493615D01*
X142075032Y-102493371D01*
X142129660Y-102461557D01*
X142180456Y-102434589D01*
X142226212Y-102408849D01*
X142265918Y-102380602D01*
X142298561Y-102346116D01*
X142323130Y-102301657D01*
X142338614Y-102243491D01*
X142343225Y-102178754D01*
X142347232Y-102170745D01*
X142354896Y-102167885D01*
X142632286Y-102167885D01*
X142640559Y-102171312D01*
G37*
%TD.AperFunction*%
%TD*%
%TA.AperFunction,Conductor*%
%TO.N,/IRQ*%
G36*
X135751322Y-109592247D02*
G01*
X136035717Y-109642394D01*
X136042579Y-109646314D01*
X136094238Y-109706768D01*
X136111902Y-109725785D01*
X136148624Y-109765318D01*
X136203010Y-109818773D01*
X136257396Y-109867133D01*
X136283248Y-109887698D01*
X136311782Y-109910397D01*
X136311781Y-109910396D01*
X136366169Y-109948567D01*
X136366169Y-109948566D01*
X136399477Y-109968822D01*
X136420560Y-109981643D01*
X136455348Y-109999538D01*
X136474940Y-110009617D01*
X136529323Y-110032498D01*
X136574188Y-110047172D01*
X136580986Y-110053000D01*
X136582098Y-110060177D01*
X135901376Y-114230230D01*
X135896661Y-114237843D01*
X135887944Y-114239892D01*
X135880331Y-114235177D01*
X135878283Y-114230231D01*
X135197801Y-110059567D01*
X135199851Y-110050851D01*
X135205024Y-110046813D01*
X135251099Y-110028495D01*
X135251097Y-110028495D01*
X135251102Y-110028494D01*
X135305909Y-110001341D01*
X135339112Y-109981643D01*
X135360723Y-109968822D01*
X135397265Y-109943568D01*
X135415538Y-109930940D01*
X135470347Y-109887698D01*
X135525154Y-109839096D01*
X135579965Y-109785127D01*
X135579965Y-109785128D01*
X135634785Y-109725785D01*
X135689597Y-109661089D01*
X135740082Y-109596560D01*
X135747878Y-109592156D01*
X135751322Y-109592247D01*
G37*
%TD.AperFunction*%
%TD*%
%TA.AperFunction,Conductor*%
%TO.N,/IRQ*%
G36*
X164357860Y-86674782D02*
G01*
X164456625Y-86762212D01*
X164456627Y-86762213D01*
X164456629Y-86762215D01*
X164553522Y-86824536D01*
X164553524Y-86824537D01*
X164643708Y-86861263D01*
X164672663Y-86867239D01*
X164730562Y-86879191D01*
X164730567Y-86879191D01*
X164730574Y-86879193D01*
X164784875Y-86882899D01*
X164817508Y-86885128D01*
X164817509Y-86885128D01*
X164907926Y-86885869D01*
X165004984Y-86888214D01*
X165005416Y-86888240D01*
X165058408Y-86893542D01*
X165112414Y-86898947D01*
X165113044Y-86899044D01*
X165233585Y-86924877D01*
X165234259Y-86925066D01*
X165328917Y-86957925D01*
X165360459Y-86968874D01*
X165367151Y-86974824D01*
X165367675Y-86983764D01*
X165367437Y-86984390D01*
X165102562Y-87626210D01*
X165096238Y-87632551D01*
X165096210Y-87632562D01*
X164454390Y-87897437D01*
X164445436Y-87897426D01*
X164439112Y-87891085D01*
X164438874Y-87890459D01*
X164395068Y-87764264D01*
X164394877Y-87763585D01*
X164369044Y-87643044D01*
X164368947Y-87642414D01*
X164358241Y-87535425D01*
X164358214Y-87534984D01*
X164355869Y-87437926D01*
X164355128Y-87347509D01*
X164355128Y-87347508D01*
X164352899Y-87314875D01*
X164349193Y-87260574D01*
X164331263Y-87173708D01*
X164294537Y-87083524D01*
X164232212Y-86986625D01*
X164144782Y-86887860D01*
X164141866Y-86879396D01*
X164145270Y-86871835D01*
X164341835Y-86675270D01*
X164350107Y-86671844D01*
X164357860Y-86674782D01*
G37*
%TD.AperFunction*%
%TD*%
%TA.AperFunction,Conductor*%
%TO.N,/V-A15*%
G36*
X164695512Y-88751067D02*
G01*
X164770480Y-88754506D01*
X164770769Y-88754527D01*
X164833426Y-88760683D01*
X164833776Y-88760731D01*
X164881850Y-88768910D01*
X164888004Y-88769958D01*
X164888452Y-88770052D01*
X164938119Y-88782715D01*
X164938492Y-88782824D01*
X164987467Y-88799313D01*
X164987761Y-88799420D01*
X165039978Y-88820175D01*
X165099140Y-88845547D01*
X165168908Y-88875850D01*
X165242401Y-88906934D01*
X165248685Y-88913313D01*
X165248663Y-88922162D01*
X165102853Y-89276496D01*
X165096535Y-89282843D01*
X165096500Y-89282858D01*
X164742398Y-89429136D01*
X164733443Y-89429127D01*
X164727117Y-89422789D01*
X164726731Y-89421704D01*
X164713877Y-89378927D01*
X164713463Y-89376928D01*
X164707090Y-89322770D01*
X164707051Y-89322084D01*
X164707327Y-89268959D01*
X164707342Y-89268578D01*
X164710901Y-89218217D01*
X164714249Y-89172017D01*
X164713854Y-89131422D01*
X164713854Y-89131418D01*
X164706198Y-89097670D01*
X164687762Y-89072018D01*
X164687761Y-89072017D01*
X164655030Y-89055711D01*
X164614866Y-89051173D01*
X164607030Y-89046839D01*
X164604480Y-89039547D01*
X164604480Y-88761837D01*
X164607907Y-88753564D01*
X164616179Y-88750137D01*
X164695512Y-88751067D01*
G37*
%TD.AperFunction*%
%TD*%
%TA.AperFunction,Conductor*%
%TO.N,/V-A15*%
G36*
X164626593Y-88750667D02*
G01*
X164626594Y-88750667D01*
X164710746Y-88753089D01*
X164781336Y-88757887D01*
X164781678Y-88757920D01*
X164842877Y-88765701D01*
X164843296Y-88765769D01*
X164899412Y-88777162D01*
X164899829Y-88777263D01*
X164955147Y-88792917D01*
X164955475Y-88793021D01*
X165014323Y-88813637D01*
X165080836Y-88839854D01*
X165159027Y-88872247D01*
X165242323Y-88906967D01*
X165248640Y-88913312D01*
X165248641Y-88922217D01*
X165102853Y-89276496D01*
X165096535Y-89282843D01*
X165096500Y-89282858D01*
X164742003Y-89429299D01*
X164733048Y-89429290D01*
X164726722Y-89422952D01*
X164726450Y-89422226D01*
X164710421Y-89374724D01*
X164710249Y-89374101D01*
X164698014Y-89317056D01*
X164697945Y-89316668D01*
X164690453Y-89262369D01*
X164684810Y-89211947D01*
X164678088Y-89166574D01*
X164667331Y-89127238D01*
X164649587Y-89094926D01*
X164649584Y-89094922D01*
X164621900Y-89070624D01*
X164581317Y-89055319D01*
X164535487Y-89050999D01*
X164527572Y-89046811D01*
X164524885Y-89039351D01*
X164524885Y-88761777D01*
X164528312Y-88753504D01*
X164536585Y-88750077D01*
X164536627Y-88750077D01*
X164626593Y-88750667D01*
G37*
%TD.AperFunction*%
%TD*%
%TA.AperFunction,Conductor*%
%TO.N,/V-A15*%
G36*
X161914372Y-82282555D02*
G01*
X162531555Y-82537262D01*
X162556210Y-82547437D01*
X162562551Y-82553761D01*
X162562562Y-82553789D01*
X162827437Y-83195609D01*
X162827426Y-83204563D01*
X162821085Y-83210887D01*
X162820459Y-83211125D01*
X162694265Y-83254930D01*
X162693574Y-83255123D01*
X162645831Y-83265354D01*
X162573058Y-83280950D01*
X162572414Y-83281050D01*
X162465425Y-83291756D01*
X162464984Y-83291783D01*
X162367926Y-83294129D01*
X162277509Y-83294871D01*
X162277508Y-83294871D01*
X162190571Y-83300805D01*
X162190562Y-83300806D01*
X162103714Y-83318733D01*
X162103708Y-83318735D01*
X162013522Y-83355462D01*
X161916629Y-83417783D01*
X161817862Y-83505216D01*
X161809396Y-83508133D01*
X161801834Y-83504728D01*
X161605271Y-83308165D01*
X161601844Y-83299892D01*
X161604781Y-83292140D01*
X161692212Y-83193374D01*
X161754537Y-83096475D01*
X161791263Y-83006290D01*
X161809193Y-82919425D01*
X161815128Y-82832484D01*
X161815869Y-82742072D01*
X161818214Y-82645014D01*
X161818241Y-82644573D01*
X161828947Y-82537584D01*
X161829044Y-82536957D01*
X161854878Y-82416409D01*
X161855065Y-82415744D01*
X161898874Y-82289539D01*
X161904824Y-82282848D01*
X161913764Y-82282324D01*
X161914372Y-82282555D01*
G37*
%TD.AperFunction*%
%TD*%
%TA.AperFunction,Conductor*%
%TO.N,/V-A15*%
G36*
X172615404Y-89089427D02*
G01*
X172618396Y-89094539D01*
X172629858Y-89135384D01*
X172643716Y-89182519D01*
X172657574Y-89227404D01*
X172671432Y-89270037D01*
X172685291Y-89310423D01*
X172699149Y-89348558D01*
X172713007Y-89384442D01*
X172726865Y-89418077D01*
X172740723Y-89449462D01*
X172752117Y-89473414D01*
X172752576Y-89482357D01*
X172751993Y-89483718D01*
X172476442Y-90028842D01*
X172469651Y-90034680D01*
X172460722Y-90034006D01*
X172455558Y-90028842D01*
X172366672Y-89853000D01*
X172180005Y-89483716D01*
X172179332Y-89474789D01*
X172179875Y-89473430D01*
X172191276Y-89449462D01*
X172205134Y-89418077D01*
X172218992Y-89384442D01*
X172232850Y-89348558D01*
X172246709Y-89310423D01*
X172246709Y-89310422D01*
X172260568Y-89270038D01*
X172274425Y-89227404D01*
X172288283Y-89182519D01*
X172302141Y-89135384D01*
X172313604Y-89094538D01*
X172319139Y-89087499D01*
X172324869Y-89086000D01*
X172607131Y-89086000D01*
X172615404Y-89089427D01*
G37*
%TD.AperFunction*%
%TD*%
%TA.AperFunction,Conductor*%
%TO.N,/V-A15*%
G36*
X165603371Y-88722475D02*
G01*
X165609044Y-88729210D01*
X165694817Y-88993163D01*
X165694115Y-89002090D01*
X165688065Y-89007630D01*
X165637984Y-89027823D01*
X165594353Y-89055630D01*
X165564207Y-89087200D01*
X165544435Y-89122778D01*
X165544432Y-89122785D01*
X165531925Y-89162601D01*
X165531922Y-89162614D01*
X165523567Y-89206943D01*
X165516260Y-89256010D01*
X165506927Y-89309864D01*
X165506844Y-89310259D01*
X165492429Y-89369049D01*
X165492265Y-89369599D01*
X165473648Y-89422444D01*
X165467667Y-89429108D01*
X165458725Y-89429591D01*
X165458153Y-89429373D01*
X165103555Y-89283167D01*
X165097213Y-89276845D01*
X165097194Y-89276800D01*
X164951429Y-88922393D01*
X164951452Y-88913442D01*
X164957800Y-88907125D01*
X164957813Y-88907119D01*
X165033593Y-88876990D01*
X165105826Y-88851107D01*
X165167304Y-88831845D01*
X165221704Y-88817249D01*
X165272706Y-88805366D01*
X165323987Y-88794240D01*
X165379227Y-88781918D01*
X165442103Y-88766446D01*
X165516293Y-88745869D01*
X165594455Y-88721650D01*
X165603371Y-88722475D01*
G37*
%TD.AperFunction*%
%TD*%
%TA.AperFunction,Conductor*%
%TO.N,/V-A15*%
G36*
X161150167Y-109623810D02*
G01*
X161435787Y-109669058D01*
X161442655Y-109672790D01*
X161494265Y-109730167D01*
X161548648Y-109785649D01*
X161603031Y-109836152D01*
X161603038Y-109836158D01*
X161603037Y-109836158D01*
X161657415Y-109881679D01*
X161711797Y-109922225D01*
X161766180Y-109957794D01*
X161820563Y-109988384D01*
X161858920Y-110006449D01*
X161874957Y-110014002D01*
X161929327Y-110034631D01*
X161952439Y-110041284D01*
X161973729Y-110047412D01*
X161980731Y-110052993D01*
X161982039Y-110060540D01*
X161301393Y-114230233D01*
X161296678Y-114237846D01*
X161287961Y-114239895D01*
X161280348Y-114235180D01*
X161278299Y-114230233D01*
X160597862Y-110059946D01*
X160599913Y-110051229D01*
X160605515Y-110047030D01*
X160651016Y-110030973D01*
X160705745Y-110006451D01*
X160760474Y-109976720D01*
X160760479Y-109976716D01*
X160760484Y-109976714D01*
X160815207Y-109941779D01*
X160815207Y-109941778D01*
X160869932Y-109901634D01*
X160924666Y-109856273D01*
X160924665Y-109856274D01*
X160979400Y-109805703D01*
X161034119Y-109749939D01*
X161088848Y-109688957D01*
X161105302Y-109669058D01*
X161139325Y-109627910D01*
X161147237Y-109623719D01*
X161150167Y-109623810D01*
G37*
%TD.AperFunction*%
%TD*%
%TA.AperFunction,Conductor*%
%TO.N,/V-A15*%
G36*
X164741507Y-105261478D02*
G01*
X164832779Y-105299037D01*
X165096195Y-105407436D01*
X165102542Y-105413754D01*
X165102563Y-105413804D01*
X165248521Y-105768491D01*
X165248500Y-105777445D01*
X165242153Y-105783763D01*
X165241914Y-105783858D01*
X165165893Y-105813201D01*
X165165632Y-105813295D01*
X165091355Y-105837988D01*
X165091356Y-105837988D01*
X165027209Y-105856822D01*
X164970636Y-105872833D01*
X164918959Y-105889094D01*
X164894231Y-105898886D01*
X164869506Y-105908678D01*
X164869500Y-105908681D01*
X164819597Y-105934662D01*
X164819591Y-105934666D01*
X164766552Y-105970122D01*
X164766550Y-105970123D01*
X164715197Y-106012015D01*
X164707708Y-106018125D01*
X164648647Y-106073939D01*
X164640280Y-106077130D01*
X164632338Y-106073708D01*
X164436291Y-105877661D01*
X164432864Y-105869388D01*
X164436059Y-105861354D01*
X164491874Y-105802291D01*
X164539878Y-105743444D01*
X164575335Y-105690404D01*
X164601319Y-105640495D01*
X164620904Y-105591039D01*
X164637165Y-105539363D01*
X164653176Y-105482789D01*
X164672010Y-105418642D01*
X164696708Y-105344350D01*
X164696785Y-105344136D01*
X164726141Y-105268083D01*
X164732316Y-105261601D01*
X164741268Y-105261383D01*
X164741507Y-105261478D01*
G37*
%TD.AperFunction*%
%TD*%
%TA.AperFunction,Conductor*%
%TO.N,/V-A15*%
G36*
X165428439Y-88751072D02*
G01*
X165433207Y-88758652D01*
X165433229Y-88758786D01*
X165476693Y-89033151D01*
X165474603Y-89041859D01*
X165468336Y-89046236D01*
X165450295Y-89051364D01*
X165450294Y-89051365D01*
X165450293Y-89051365D01*
X165450292Y-89051366D01*
X165443646Y-89056898D01*
X165435326Y-89063825D01*
X165431038Y-89080403D01*
X165435048Y-89100738D01*
X165435049Y-89100741D01*
X165444974Y-89124464D01*
X165458433Y-89151205D01*
X165472972Y-89180446D01*
X165473116Y-89180761D01*
X165486298Y-89211953D01*
X165486526Y-89212595D01*
X165495922Y-89244871D01*
X165496321Y-89246887D01*
X165498603Y-89268051D01*
X165496082Y-89276644D01*
X165488224Y-89280938D01*
X165486975Y-89281005D01*
X165106854Y-89281152D01*
X165098579Y-89277728D01*
X165096029Y-89273903D01*
X165093622Y-89268051D01*
X164951324Y-88922136D01*
X164951346Y-88913183D01*
X164957560Y-88906922D01*
X165011094Y-88884140D01*
X165063801Y-88860609D01*
X165108034Y-88840344D01*
X165146782Y-88822835D01*
X165182952Y-88807605D01*
X165183118Y-88807540D01*
X165219648Y-88794090D01*
X165219906Y-88794003D01*
X165259864Y-88781781D01*
X165260099Y-88781715D01*
X165306668Y-88770159D01*
X165362802Y-88758779D01*
X165419708Y-88749083D01*
X165428439Y-88751072D01*
G37*
%TD.AperFunction*%
%TD*%
%TA.AperFunction,Conductor*%
%TO.N,/~{CE}*%
G36*
X151023264Y-93280227D02*
G01*
X151026669Y-93287789D01*
X151034683Y-93419443D01*
X151034683Y-93419444D01*
X151059132Y-93532037D01*
X151059133Y-93532042D01*
X151096929Y-93621770D01*
X151096931Y-93621774D01*
X151129427Y-93671175D01*
X151145677Y-93695878D01*
X151194564Y-93751927D01*
X151202956Y-93761549D01*
X151202957Y-93761550D01*
X151202956Y-93761550D01*
X151266362Y-93826004D01*
X151333335Y-93896293D01*
X151333628Y-93896625D01*
X151401709Y-93979844D01*
X151402093Y-93980371D01*
X151469050Y-94083856D01*
X151469399Y-94084476D01*
X151527659Y-94204685D01*
X151528183Y-94213625D01*
X151522233Y-94220317D01*
X151521621Y-94220592D01*
X150880491Y-94487132D01*
X150871537Y-94487143D01*
X150871509Y-94487132D01*
X150230378Y-94220592D01*
X150224054Y-94214251D01*
X150224065Y-94205297D01*
X150224324Y-94204718D01*
X150282601Y-94084471D01*
X150282940Y-94083868D01*
X150349911Y-93980362D01*
X150350281Y-93979854D01*
X150418380Y-93896612D01*
X150418654Y-93896301D01*
X150485636Y-93826004D01*
X150517339Y-93793776D01*
X150549042Y-93761550D01*
X150549041Y-93761550D01*
X150549042Y-93761549D01*
X150606322Y-93695876D01*
X150655067Y-93621774D01*
X150692868Y-93532034D01*
X150717315Y-93419446D01*
X150725330Y-93287789D01*
X150729254Y-93279739D01*
X150737009Y-93276800D01*
X151014991Y-93276800D01*
X151023264Y-93280227D01*
G37*
%TD.AperFunction*%
%TD*%
%TA.AperFunction,Conductor*%
%TO.N,/~{CE}*%
G36*
X151754372Y-87362555D02*
G01*
X152371555Y-87617262D01*
X152396210Y-87627437D01*
X152402551Y-87633761D01*
X152402562Y-87633789D01*
X152667437Y-88275609D01*
X152667426Y-88284563D01*
X152661085Y-88290887D01*
X152660459Y-88291125D01*
X152534265Y-88334930D01*
X152533574Y-88335123D01*
X152485831Y-88345354D01*
X152413058Y-88360950D01*
X152412414Y-88361050D01*
X152305425Y-88371756D01*
X152304984Y-88371783D01*
X152207926Y-88374129D01*
X152117509Y-88374871D01*
X152117508Y-88374871D01*
X152030571Y-88380805D01*
X152030562Y-88380806D01*
X151943714Y-88398733D01*
X151943708Y-88398735D01*
X151853522Y-88435462D01*
X151756629Y-88497783D01*
X151657862Y-88585216D01*
X151649396Y-88588133D01*
X151641834Y-88584728D01*
X151445271Y-88388165D01*
X151441844Y-88379892D01*
X151444781Y-88372140D01*
X151532212Y-88273374D01*
X151594537Y-88176475D01*
X151631263Y-88086290D01*
X151649193Y-87999425D01*
X151655128Y-87912484D01*
X151655869Y-87822072D01*
X151658214Y-87725014D01*
X151658241Y-87724573D01*
X151668947Y-87617584D01*
X151669044Y-87616957D01*
X151694878Y-87496409D01*
X151695065Y-87495744D01*
X151738874Y-87369539D01*
X151744824Y-87362848D01*
X151753764Y-87362324D01*
X151754372Y-87362555D01*
G37*
%TD.AperFunction*%
%TD*%
%TA.AperFunction,Conductor*%
%TO.N,/~{CE}*%
G36*
X172311287Y-93358561D02*
G01*
X172311614Y-93358864D01*
X172414108Y-93453977D01*
X172512460Y-93530620D01*
X172575944Y-93571232D01*
X172601267Y-93587432D01*
X172635375Y-93605466D01*
X172683703Y-93631020D01*
X172683706Y-93631021D01*
X172683707Y-93631022D01*
X172762959Y-93667999D01*
X172842090Y-93704919D01*
X172842338Y-93705042D01*
X172924438Y-93748453D01*
X172924856Y-93748697D01*
X173013227Y-93805231D01*
X173013670Y-93805544D01*
X173111613Y-93881868D01*
X173111997Y-93882195D01*
X173214004Y-93976856D01*
X173217737Y-93984995D01*
X173214621Y-93993391D01*
X173214330Y-93993694D01*
X172724140Y-94485264D01*
X172715871Y-94488702D01*
X172715843Y-94488702D01*
X172021535Y-94488012D01*
X172013266Y-94484577D01*
X172009847Y-94476300D01*
X172009889Y-94475329D01*
X172019880Y-94359093D01*
X172020199Y-94357211D01*
X172048762Y-94245390D01*
X172048993Y-94244681D01*
X172088511Y-94145676D01*
X172088665Y-94145328D01*
X172132250Y-94056383D01*
X172172964Y-93974515D01*
X172172963Y-93974515D01*
X172172967Y-93974509D01*
X172172966Y-93974509D01*
X172203827Y-93896727D01*
X172217947Y-93819852D01*
X172217946Y-93819848D01*
X172217947Y-93819847D01*
X172209387Y-93748697D01*
X172208428Y-93740721D01*
X172168375Y-93656168D01*
X172147455Y-93631020D01*
X172097720Y-93571232D01*
X172095064Y-93562681D01*
X172098441Y-93555478D01*
X172295056Y-93358863D01*
X172303328Y-93355437D01*
X172311287Y-93358561D01*
G37*
%TD.AperFunction*%
%TD*%
%TA.AperFunction,Conductor*%
%TO.N,/~{CE}*%
G36*
X171813549Y-92260425D02*
G01*
X171818644Y-92267607D01*
X171837824Y-92349073D01*
X171859648Y-92439522D01*
X171881472Y-92527720D01*
X171903297Y-92613669D01*
X171925121Y-92697368D01*
X171946945Y-92778816D01*
X171968770Y-92858015D01*
X171990594Y-92934963D01*
X172012418Y-93009662D01*
X172032224Y-93075411D01*
X172031329Y-93084321D01*
X172029294Y-93087059D01*
X171831421Y-93284932D01*
X171823148Y-93288359D01*
X171814875Y-93284932D01*
X171813960Y-93283902D01*
X171789831Y-93253293D01*
X171757552Y-93214594D01*
X171725273Y-93178145D01*
X171692994Y-93143945D01*
X171660716Y-93111996D01*
X171628437Y-93082297D01*
X171596158Y-93054847D01*
X171563879Y-93029648D01*
X171531600Y-93006699D01*
X171504859Y-92989551D01*
X171499746Y-92982201D01*
X171499479Y-92979421D01*
X171504311Y-92778816D01*
X171515072Y-92331957D01*
X171518697Y-92323770D01*
X171524244Y-92320815D01*
X171804733Y-92258863D01*
X171813549Y-92260425D01*
G37*
%TD.AperFunction*%
%TD*%
%TA.AperFunction,Conductor*%
%TO.N,/~{OE}*%
G36*
X178050165Y-95057271D02*
G01*
X178246728Y-95253834D01*
X178250155Y-95262107D01*
X178247216Y-95269862D01*
X178159783Y-95368629D01*
X178097462Y-95465522D01*
X178060735Y-95555708D01*
X178060733Y-95555714D01*
X178042806Y-95642562D01*
X178042805Y-95642571D01*
X178036871Y-95729508D01*
X178036871Y-95729509D01*
X178036129Y-95819926D01*
X178033783Y-95916984D01*
X178033756Y-95917425D01*
X178023050Y-96024414D01*
X178022950Y-96025058D01*
X177997124Y-96145572D01*
X177996930Y-96146265D01*
X177953125Y-96272459D01*
X177947175Y-96279151D01*
X177938235Y-96279675D01*
X177937609Y-96279437D01*
X177295789Y-96014562D01*
X177289449Y-96008239D01*
X177024562Y-95366388D01*
X177024573Y-95357436D01*
X177030914Y-95351112D01*
X177031533Y-95350876D01*
X177157744Y-95307065D01*
X177158409Y-95306878D01*
X177278957Y-95281044D01*
X177279584Y-95280947D01*
X177316677Y-95277235D01*
X177386583Y-95270240D01*
X177387014Y-95270214D01*
X177484072Y-95267869D01*
X177574490Y-95267128D01*
X177574491Y-95267128D01*
X177605462Y-95265013D01*
X177661425Y-95261193D01*
X177661433Y-95261191D01*
X177661436Y-95261191D01*
X177697077Y-95253834D01*
X177748290Y-95243263D01*
X177838475Y-95206537D01*
X177935374Y-95144212D01*
X178034140Y-95056781D01*
X178042603Y-95053866D01*
X178050165Y-95057271D01*
G37*
%TD.AperFunction*%
%TD*%
%TA.AperFunction,Conductor*%
%TO.N,/~{OE}*%
G36*
X154197860Y-95056782D02*
G01*
X154296625Y-95144212D01*
X154296627Y-95144213D01*
X154296629Y-95144215D01*
X154393522Y-95206536D01*
X154393524Y-95206537D01*
X154483708Y-95243263D01*
X154512663Y-95249239D01*
X154570562Y-95261191D01*
X154570567Y-95261191D01*
X154570574Y-95261193D01*
X154624875Y-95264899D01*
X154657508Y-95267128D01*
X154657509Y-95267128D01*
X154747926Y-95267869D01*
X154844984Y-95270214D01*
X154845416Y-95270240D01*
X154898408Y-95275542D01*
X154952414Y-95280947D01*
X154953044Y-95281044D01*
X155073585Y-95306877D01*
X155074259Y-95307066D01*
X155168917Y-95339925D01*
X155200459Y-95350874D01*
X155207151Y-95356824D01*
X155207675Y-95365764D01*
X155207437Y-95366390D01*
X154942562Y-96008210D01*
X154936238Y-96014551D01*
X154936210Y-96014562D01*
X154294390Y-96279437D01*
X154285436Y-96279426D01*
X154279112Y-96273085D01*
X154278874Y-96272459D01*
X154235068Y-96146264D01*
X154234877Y-96145585D01*
X154209044Y-96025044D01*
X154208947Y-96024414D01*
X154198241Y-95917425D01*
X154198214Y-95916984D01*
X154195869Y-95819926D01*
X154195128Y-95729509D01*
X154195128Y-95729508D01*
X154192899Y-95696875D01*
X154189193Y-95642574D01*
X154171263Y-95555708D01*
X154134537Y-95465524D01*
X154072212Y-95368625D01*
X153984782Y-95269860D01*
X153981866Y-95261396D01*
X153985270Y-95253835D01*
X154181835Y-95057270D01*
X154190107Y-95053844D01*
X154197860Y-95056782D01*
G37*
%TD.AperFunction*%
%TD*%
%TA.AperFunction,Conductor*%
%TO.N,/~{OE}*%
G36*
X178794545Y-89928517D02*
G01*
X178800678Y-89934450D01*
X178822390Y-89981949D01*
X178848781Y-90037433D01*
X178875171Y-90090667D01*
X178901562Y-90141651D01*
X178927953Y-90190386D01*
X178954343Y-90236870D01*
X178980734Y-90281104D01*
X179007124Y-90323088D01*
X179033515Y-90362822D01*
X179054139Y-90392116D01*
X179056099Y-90400853D01*
X179052701Y-90407266D01*
X178846430Y-90606534D01*
X178841054Y-90609491D01*
X178831239Y-90611866D01*
X178831233Y-90611868D01*
X178823570Y-90614405D01*
X178818327Y-90616142D01*
X178818328Y-90616142D01*
X178818324Y-90616143D01*
X178818323Y-90616144D01*
X178805413Y-90621572D01*
X178792503Y-90628151D01*
X178792502Y-90628151D01*
X178779591Y-90635882D01*
X178779592Y-90635882D01*
X178766682Y-90644763D01*
X178759010Y-90650724D01*
X178753783Y-90654787D01*
X178753783Y-90654786D01*
X178740862Y-90665981D01*
X178740861Y-90665981D01*
X178727986Y-90678282D01*
X178719637Y-90681519D01*
X178711444Y-90677904D01*
X178708831Y-90673600D01*
X178498860Y-90058197D01*
X178499432Y-90049261D01*
X178505484Y-90043598D01*
X178785592Y-89928492D01*
X178794545Y-89928517D01*
G37*
%TD.AperFunction*%
%TD*%
%TA.AperFunction,Conductor*%
%TO.N,/~{OE}*%
G36*
X154294372Y-87362555D02*
G01*
X154911555Y-87617262D01*
X154936210Y-87627437D01*
X154942551Y-87633761D01*
X154942562Y-87633789D01*
X155207437Y-88275609D01*
X155207426Y-88284563D01*
X155201085Y-88290887D01*
X155200459Y-88291125D01*
X155074265Y-88334930D01*
X155073574Y-88335123D01*
X155025831Y-88345354D01*
X154953058Y-88360950D01*
X154952414Y-88361050D01*
X154845425Y-88371756D01*
X154844984Y-88371783D01*
X154747926Y-88374129D01*
X154657509Y-88374871D01*
X154657508Y-88374871D01*
X154570571Y-88380805D01*
X154570562Y-88380806D01*
X154483714Y-88398733D01*
X154483708Y-88398735D01*
X154393522Y-88435462D01*
X154296629Y-88497783D01*
X154197862Y-88585216D01*
X154189396Y-88588133D01*
X154181834Y-88584728D01*
X153985271Y-88388165D01*
X153981844Y-88379892D01*
X153984781Y-88372140D01*
X154072212Y-88273374D01*
X154134537Y-88176475D01*
X154171263Y-88086290D01*
X154189193Y-87999425D01*
X154195128Y-87912484D01*
X154195869Y-87822072D01*
X154198214Y-87725014D01*
X154198241Y-87724573D01*
X154208947Y-87617584D01*
X154209044Y-87616957D01*
X154234878Y-87496409D01*
X154235065Y-87495744D01*
X154278874Y-87369539D01*
X154284824Y-87362848D01*
X154293764Y-87362324D01*
X154294372Y-87362555D01*
G37*
%TD.AperFunction*%
%TD*%
M02*
