%TF.GenerationSoftware,KiCad,Pcbnew,(6.99.0-3907-g11dc5424cb)*%
%TF.CreationDate,2022-10-22T08:16:01+02:00*%
%TF.ProjectId,Vectorblade_PLCC32_THT_Kicad7,56656374-6f72-4626-9c61-64655f504c43,rev?*%
%TF.SameCoordinates,Original*%
%TF.FileFunction,Copper,L2,Bot*%
%TF.FilePolarity,Positive*%
%FSLAX46Y46*%
G04 Gerber Fmt 4.6, Leading zero omitted, Abs format (unit mm)*
G04 Created by KiCad (PCBNEW (6.99.0-3907-g11dc5424cb)) date 2022-10-22 08:16:01*
%MOMM*%
%LPD*%
G01*
G04 APERTURE LIST*
G04 Aperture macros list*
%AMRoundRect*
0 Rectangle with rounded corners*
0 $1 Rounding radius*
0 $2 $3 $4 $5 $6 $7 $8 $9 X,Y pos of 4 corners*
0 Add a 4 corners polygon primitive as box body*
4,1,4,$2,$3,$4,$5,$6,$7,$8,$9,$2,$3,0*
0 Add four circle primitives for the rounded corners*
1,1,$1+$1,$2,$3*
1,1,$1+$1,$4,$5*
1,1,$1+$1,$6,$7*
1,1,$1+$1,$8,$9*
0 Add four rect primitives between the rounded corners*
20,1,$1+$1,$2,$3,$4,$5,0*
20,1,$1+$1,$4,$5,$6,$7,0*
20,1,$1+$1,$6,$7,$8,$9,0*
20,1,$1+$1,$8,$9,$2,$3,0*%
G04 Aperture macros list end*
%TA.AperFunction,ComponentPad*%
%ADD10C,1.422400*%
%TD*%
%TA.AperFunction,ComponentPad*%
%ADD11R,1.422400X1.422400*%
%TD*%
%TA.AperFunction,SMDPad,CuDef*%
%ADD12RoundRect,0.666750X-0.222250X-3.778250X0.222250X-3.778250X0.222250X3.778250X-0.222250X3.778250X0*%
%TD*%
%TA.AperFunction,ViaPad*%
%ADD13C,0.800000*%
%TD*%
%TA.AperFunction,Conductor*%
%ADD14C,0.300000*%
%TD*%
G04 APERTURE END LIST*
D10*
%TO.P,,22,CE*%
%TO.N,/~{CE}*%
X150876000Y-94488000D03*
%TD*%
D11*
%TO.P,U1,1,NC*%
%TO.N,unconnected-(U1-Pad1)*%
X162559999Y-85089999D03*
D10*
%TO.P,U1,2,A16*%
%TO.N,/PB6*%
X165100000Y-82550000D03*
%TO.P,U1,3,A15*%
%TO.N,/V-A15*%
X162560000Y-82550000D03*
%TO.P,U1,4,A12*%
%TO.N,/V-A12*%
X165100000Y-80010000D03*
%TO.P,U1,5,A7*%
%TO.N,/V-A7*%
X162560000Y-77470000D03*
%TO.P,U1,6,A6*%
%TO.N,/V-A6*%
X162560000Y-80010000D03*
%TO.P,U1,7,A5*%
%TO.N,/V-A5*%
X160020000Y-77470000D03*
%TO.P,U1,8,A4*%
%TO.N,/V-A4*%
X160020000Y-80010000D03*
%TO.P,U1,9,A3*%
%TO.N,/V-A3*%
X157480000Y-77470000D03*
%TO.P,U1,10,A2*%
%TO.N,/V-A2*%
X157480000Y-80010000D03*
%TO.P,U1,11,A1*%
%TO.N,/V-A1*%
X154940000Y-77470000D03*
%TO.P,U1,12,A0*%
%TO.N,/V-A0*%
X154940000Y-80010000D03*
%TO.P,U1,13,D0*%
%TO.N,/V-D0*%
X152400000Y-77470000D03*
%TO.P,U1,14,D1*%
%TO.N,/V-D1*%
X149860000Y-80010000D03*
%TO.P,U1,15,D2*%
%TO.N,/V-D2*%
X152400000Y-80010000D03*
%TO.P,U1,16,GND*%
%TO.N,GND*%
X149860000Y-82550000D03*
%TO.P,U1,17,D3*%
%TO.N,/V-D3*%
X152400000Y-82550000D03*
%TO.P,U1,18,D4*%
%TO.N,/V-D4*%
X149860000Y-85090000D03*
%TO.P,U1,19,D5*%
%TO.N,/V-D5*%
X152400000Y-85090000D03*
%TO.P,U1,20,D6*%
%TO.N,/V-D6*%
X149860000Y-87630000D03*
%TO.P,U1,21,D7*%
%TO.N,/V-D7*%
X152400000Y-90170000D03*
%TO.P,U1,22,CE*%
%TO.N,/~{CE}*%
X152400000Y-87630000D03*
%TO.P,U1,23,A10*%
%TO.N,/V-A10*%
X154940000Y-90170000D03*
%TO.P,U1,24,OE*%
%TO.N,/~{OE}*%
X154940000Y-87630000D03*
%TO.P,U1,25,A11*%
%TO.N,/V-A11*%
X157480000Y-90170000D03*
%TO.P,U1,26,A9*%
%TO.N,/V-A9*%
X157480000Y-87630000D03*
%TO.P,U1,27,A8*%
%TO.N,/V-A8*%
X160020000Y-90170000D03*
%TO.P,U1,28,A13*%
%TO.N,/V-A13*%
X160020000Y-87630000D03*
%TO.P,U1,29,A14*%
%TO.N,/V-A14*%
X162560000Y-90170000D03*
%TO.P,U1,30,A17*%
%TO.N,/IRQ*%
X165100000Y-87630000D03*
%TO.P,U1,31,PGM*%
%TO.N,/V-RW*%
X162560000Y-87630000D03*
%TO.P,U1,32,VCC*%
%TO.N,+5V*%
X165100000Y-85090000D03*
%TD*%
D12*
%TO.P,CON3,1,HALT*%
%TO.N,unconnected-(CON3-Pad1)*%
X179070000Y-114300000D03*
%TO.P,CON3,3,A7*%
%TO.N,/V-A7*%
X176530000Y-114300000D03*
%TO.P,CON3,5,A6*%
%TO.N,/V-A6*%
X173990000Y-114300000D03*
%TO.P,CON3,7,A5*%
%TO.N,/V-A5*%
X171450000Y-114300000D03*
%TO.P,CON3,9,A4*%
%TO.N,/V-A4*%
X168910000Y-114300000D03*
%TO.P,CON3,11,A3*%
%TO.N,/V-A3*%
X166370000Y-114300000D03*
%TO.P,CON3,13,A2*%
%TO.N,/V-A2*%
X163830000Y-114300000D03*
%TO.P,CON3,15,A1*%
%TO.N,/V-A1*%
X161290000Y-114300000D03*
%TO.P,CON3,17,A0*%
%TO.N,/V-A0*%
X158750000Y-114300000D03*
%TO.P,CON3,19,D0*%
%TO.N,/V-D0*%
X156210000Y-114300000D03*
%TO.P,CON3,21,D1*%
%TO.N,/V-D1*%
X153670000Y-114300000D03*
%TO.P,CON3,23,D2*%
%TO.N,/V-D2*%
X151130000Y-114300000D03*
%TO.P,CON3,25,GND*%
%TO.N,GND*%
X148590000Y-114300000D03*
%TO.P,CON3,27,GND1*%
X146050000Y-114300000D03*
%TO.P,CON3,29,A12*%
%TO.N,/V-A12*%
X143510000Y-114300000D03*
%TO.P,CON3,31,A13*%
%TO.N,/V-A13*%
X140970000Y-114300000D03*
%TO.P,CON3,33,A14*%
%TO.N,/V-A14*%
X138430000Y-114300000D03*
%TO.P,CON3,35,PB6*%
%TO.N,/PB6*%
X135890000Y-114300000D03*
%TD*%
D10*
%TO.P,,22,CE*%
%TO.N,/~{OE}*%
X177292000Y-96012000D03*
%TD*%
%TO.P,,24,OE*%
%TO.N,/~{OE}*%
X154940000Y-96012000D03*
%TD*%
%TO.P,,24,OE*%
%TO.N,/~{CE}*%
X172720000Y-94488000D03*
%TD*%
D13*
%TO.N,GND*%
X135890000Y-104775000D03*
X175260000Y-82804000D03*
X146050000Y-107188000D03*
X171323000Y-88667977D03*
X147320000Y-105918000D03*
X144780000Y-97536000D03*
X135890000Y-97155000D03*
X177546000Y-94234000D03*
X168656000Y-76962000D03*
X147320000Y-108458000D03*
X144780000Y-94742000D03*
X135890000Y-74930000D03*
X144780000Y-85852000D03*
X171958000Y-81026000D03*
X178816000Y-86995000D03*
X179070000Y-97155000D03*
X179070000Y-74930000D03*
X146050000Y-108458000D03*
X144780000Y-91694000D03*
X171958000Y-83058000D03*
X176403000Y-94234000D03*
X147320000Y-107188000D03*
X176403000Y-86995000D03*
X144780000Y-88900000D03*
X146050000Y-105918000D03*
X144780000Y-100330000D03*
X179070000Y-104775000D03*
%TO.N,/V-A5*%
X167386000Y-81280000D03*
%TO.N,/V-A12*%
X144272000Y-108458000D03*
%TO.N,/V-A13*%
X170434000Y-94996000D03*
%TO.N,/V-A14*%
X173609000Y-88630536D03*
%TO.N,/V-RW*%
X177546000Y-91186000D03*
X171196000Y-93980000D03*
X164592000Y-92710000D03*
X142240000Y-104394000D03*
%TO.N,/PB6*%
X142240000Y-102870000D03*
%TD*%
D14*
%TO.N,/V-A7*%
X176530000Y-114300000D02*
X176530000Y-109634214D01*
X169125107Y-80225107D02*
X166662893Y-77762893D01*
X169418000Y-101693786D02*
X169418000Y-80932214D01*
X176237107Y-108927107D02*
X169710893Y-102400893D01*
X165955786Y-77470000D02*
X162560000Y-77470000D01*
X169417990Y-80932214D02*
G75*
G03*
X169125107Y-80225107I-999990J14D01*
G01*
X176529990Y-109634214D02*
G75*
G03*
X176237107Y-108927107I-999990J14D01*
G01*
X169418010Y-101693786D02*
G75*
G03*
X169710893Y-102400893I999990J-14D01*
G01*
X166662900Y-77762886D02*
G75*
G03*
X165955786Y-77470000I-707100J-707114D01*
G01*
%TO.N,/V-A6*%
X173697107Y-108927107D02*
X168948893Y-104178893D01*
X165955786Y-78740000D02*
X164244214Y-78740000D01*
X168363107Y-80733107D02*
X166662893Y-79032893D01*
X173990000Y-114300000D02*
X173990000Y-109634214D01*
X168656000Y-103471786D02*
X168656000Y-81440214D01*
X163537107Y-79032893D02*
X162560000Y-80010000D01*
X173989990Y-109634214D02*
G75*
G03*
X173697107Y-108927107I-999990J14D01*
G01*
X168656010Y-103471786D02*
G75*
G03*
X168948893Y-104178893I999990J-14D01*
G01*
X168655990Y-81440214D02*
G75*
G03*
X168363107Y-80733107I-999990J14D01*
G01*
X164244214Y-78740010D02*
G75*
G03*
X163537107Y-79032893I-14J-999990D01*
G01*
X166662900Y-79032886D02*
G75*
G03*
X165955786Y-78740000I-707100J-707114D01*
G01*
%TO.N,/V-A5*%
X168186893Y-105956893D02*
X171157107Y-108927107D01*
X167894000Y-82202214D02*
X167894000Y-105249786D01*
X171450000Y-109634214D02*
X171450000Y-114300000D01*
X167386000Y-81280000D02*
X167601107Y-81495107D01*
X171449990Y-109634214D02*
G75*
G03*
X171157107Y-108927107I-999990J14D01*
G01*
X167894010Y-105249786D02*
G75*
G03*
X168186893Y-105956893I999990J-14D01*
G01*
X167893990Y-82202214D02*
G75*
G03*
X167601107Y-81495107I-999990J14D01*
G01*
%TO.N,/V-A4*%
X160997107Y-80987107D02*
X160020000Y-80010000D01*
X168617107Y-108927107D02*
X167424893Y-107734893D01*
X166839107Y-82269070D02*
X166142930Y-81572893D01*
X167132000Y-107027786D02*
X167132000Y-82976177D01*
X165435823Y-81280000D02*
X161704214Y-81280000D01*
X168910000Y-114300000D02*
X168910000Y-109634214D01*
X167132016Y-82976177D02*
G75*
G03*
X166839107Y-82269070I-1000016J-23D01*
G01*
X168909990Y-109634214D02*
G75*
G03*
X168617107Y-108927107I-999990J14D01*
G01*
X160997100Y-80987114D02*
G75*
G03*
X161704214Y-81280000I707100J707114D01*
G01*
X167132010Y-107027786D02*
G75*
G03*
X167424893Y-107734893I999990J-14D01*
G01*
X166142918Y-81572905D02*
G75*
G03*
X165435823Y-81280000I-707118J-707095D01*
G01*
%TO.N,/V-A3*%
X162212214Y-83820000D02*
X165370000Y-83820000D01*
X166370000Y-84820000D02*
X166370000Y-114300000D01*
X158750000Y-79154214D02*
X158750000Y-80357786D01*
X159042893Y-81064893D02*
X161505107Y-83527107D01*
X157480000Y-77470000D02*
X158457107Y-78447107D01*
X166370000Y-84820000D02*
G75*
G03*
X165370000Y-83820000I-1000000J0D01*
G01*
X158750010Y-80357786D02*
G75*
G03*
X159042893Y-81064893I999990J-14D01*
G01*
X161505100Y-83527114D02*
G75*
G03*
X162212214Y-83820000I707100J707114D01*
G01*
X158749990Y-79154214D02*
G75*
G03*
X158457107Y-78447107I-999990J14D01*
G01*
%TO.N,/V-A2*%
X163830000Y-114300000D02*
X163830000Y-96934214D01*
X157480000Y-80772000D02*
X157480000Y-80010000D01*
X163537107Y-96227107D02*
X161582893Y-94272893D01*
X160997107Y-84289107D02*
X157480000Y-80772000D01*
X161290000Y-93565786D02*
X161290000Y-84996214D01*
X161289990Y-84996214D02*
G75*
G03*
X160997107Y-84289107I-999990J14D01*
G01*
X161290010Y-93565786D02*
G75*
G03*
X161582893Y-94272893I999990J-14D01*
G01*
X163829990Y-96934214D02*
G75*
G03*
X163537107Y-96227107I-999990J14D01*
G01*
%TO.N,/V-A1*%
X161290000Y-114300000D02*
X161290000Y-109634214D01*
X155194000Y-84167786D02*
X155194000Y-82202214D01*
X161582893Y-108927107D02*
X162775107Y-107734893D01*
X157573786Y-86106000D02*
X157132214Y-86106000D01*
X158457107Y-86575107D02*
X158280893Y-86398893D01*
X158750000Y-92295786D02*
X158750000Y-87282214D01*
X162775107Y-96735107D02*
X159042893Y-93002893D01*
X155486893Y-81495107D02*
X155917107Y-81064893D01*
X163068000Y-107027786D02*
X163068000Y-97442214D01*
X156425107Y-85813107D02*
X155486893Y-84874893D01*
X155917107Y-78447107D02*
X154940000Y-77470000D01*
X156210000Y-80357786D02*
X156210000Y-79154214D01*
X162775114Y-107734900D02*
G75*
G03*
X163068000Y-107027786I-707114J707100D01*
G01*
X158280900Y-86398886D02*
G75*
G03*
X157573786Y-86106000I-707100J-707114D01*
G01*
X158750010Y-92295786D02*
G75*
G03*
X159042893Y-93002893I999990J-14D01*
G01*
X156425100Y-85813114D02*
G75*
G03*
X157132214Y-86106000I707100J707114D01*
G01*
X155486886Y-81495100D02*
G75*
G03*
X155194000Y-82202214I707114J-707100D01*
G01*
X155194010Y-84167786D02*
G75*
G03*
X155486893Y-84874893I999990J-14D01*
G01*
X161582886Y-108927100D02*
G75*
G03*
X161290000Y-109634214I707114J-707100D01*
G01*
X158749990Y-87282214D02*
G75*
G03*
X158457107Y-86575107I-999990J14D01*
G01*
X155917114Y-81064900D02*
G75*
G03*
X156210000Y-80357786I-707114J707100D01*
G01*
X163067990Y-97442214D02*
G75*
G03*
X162775107Y-96735107I-999990J14D01*
G01*
X156209990Y-79154214D02*
G75*
G03*
X155917107Y-78447107I-999990J14D01*
G01*
%TO.N,/V-A0*%
X155917107Y-86575107D02*
X154724893Y-85382893D01*
X154432000Y-84675786D02*
X154432000Y-80518000D01*
X162306000Y-105249786D02*
X162306000Y-97950214D01*
X156210000Y-91025786D02*
X156210000Y-87282214D01*
X159042893Y-108927107D02*
X162013107Y-105956893D01*
X162013107Y-97243107D02*
X156502893Y-91732893D01*
X154432000Y-80518000D02*
X154940000Y-80010000D01*
X158750000Y-114300000D02*
X158750000Y-109634214D01*
X156209990Y-87282214D02*
G75*
G03*
X155917107Y-86575107I-999990J14D01*
G01*
X159042886Y-108927100D02*
G75*
G03*
X158750000Y-109634214I707114J-707100D01*
G01*
X154432010Y-84675786D02*
G75*
G03*
X154724893Y-85382893I999990J-14D01*
G01*
X162013114Y-105956900D02*
G75*
G03*
X162306000Y-105249786I-707114J707100D01*
G01*
X162305990Y-97950214D02*
G75*
G03*
X162013107Y-97243107I-999990J14D01*
G01*
X156210010Y-91025786D02*
G75*
G03*
X156502893Y-91732893I999990J-14D01*
G01*
%TO.N,/V-D0*%
X153670000Y-90632822D02*
X153670000Y-79154214D01*
X153377107Y-78447107D02*
X152400000Y-77470000D01*
X152946893Y-91770143D02*
X153377107Y-91339929D01*
X152654000Y-105249786D02*
X152654000Y-92477250D01*
X156210000Y-114300000D02*
X156210000Y-109634214D01*
X155917107Y-108927107D02*
X152946893Y-105956893D01*
X153377096Y-91339918D02*
G75*
G03*
X153670000Y-90632822I-707096J707118D01*
G01*
X156209990Y-109634214D02*
G75*
G03*
X155917107Y-108927107I-999990J14D01*
G01*
X153669990Y-79154214D02*
G75*
G03*
X153377107Y-78447107I-999990J14D01*
G01*
X152654010Y-105249786D02*
G75*
G03*
X152946893Y-105956893I999990J-14D01*
G01*
X152946868Y-91770118D02*
G75*
G03*
X152654000Y-92477250I707132J-707082D01*
G01*
%TO.N,/V-D1*%
X149352000Y-103217786D02*
X149352000Y-91092214D01*
X153670000Y-114300000D02*
X153670000Y-108364214D01*
X151130000Y-88485786D02*
X151130000Y-81694214D01*
X150837107Y-80987107D02*
X149860000Y-80010000D01*
X153377107Y-107657107D02*
X149644893Y-103924893D01*
X149644893Y-90385107D02*
X150837107Y-89192893D01*
X149352010Y-103217786D02*
G75*
G03*
X149644893Y-103924893I999990J-14D01*
G01*
X153669990Y-108364214D02*
G75*
G03*
X153377107Y-107657107I-999990J14D01*
G01*
X151129990Y-81694214D02*
G75*
G03*
X150837107Y-80987107I-999990J14D01*
G01*
X150837114Y-89192900D02*
G75*
G03*
X151130000Y-88485786I-707114J707100D01*
G01*
X149644886Y-90385100D02*
G75*
G03*
X149352000Y-91092214I707114J-707100D01*
G01*
%TO.N,/V-D2*%
X151130000Y-107094214D02*
X151130000Y-114300000D01*
X150715786Y-78740000D02*
X149590000Y-78740000D01*
X152400000Y-80010000D02*
X151422893Y-79032893D01*
X148882893Y-104432893D02*
X150837107Y-106387107D01*
X148590000Y-79740000D02*
X148590000Y-103725786D01*
X151422900Y-79032886D02*
G75*
G03*
X150715786Y-78740000I-707100J-707114D01*
G01*
X148590010Y-103725786D02*
G75*
G03*
X148882893Y-104432893I999990J-14D01*
G01*
X149590000Y-78740000D02*
G75*
G03*
X148590000Y-79740000I0J-1000000D01*
G01*
X151129990Y-107094214D02*
G75*
G03*
X150837107Y-106387107I-999990J14D01*
G01*
%TO.N,/V-A12*%
X143510000Y-109634214D02*
X143510000Y-114300000D01*
X144272000Y-108458000D02*
X143802893Y-108927107D01*
X143802886Y-108927100D02*
G75*
G03*
X143510000Y-109634214I707114J-707100D01*
G01*
%TO.N,/V-A13*%
X165955786Y-76200000D02*
X151036214Y-76200000D01*
X170180000Y-94742000D02*
X170180000Y-80424214D01*
X150329107Y-76492893D02*
X148120893Y-78701107D01*
X147535107Y-101892893D02*
X141262893Y-108165107D01*
X147828000Y-79408214D02*
X147828000Y-101185786D01*
X169887107Y-79717107D02*
X166662893Y-76492893D01*
X170434000Y-94996000D02*
X170180000Y-94742000D01*
X140970000Y-108872214D02*
X140970000Y-114300000D01*
X170179990Y-80424214D02*
G75*
G03*
X169887107Y-79717107I-999990J14D01*
G01*
X147535114Y-101892900D02*
G75*
G03*
X147828000Y-101185786I-707114J707100D01*
G01*
X141262886Y-108165100D02*
G75*
G03*
X140970000Y-108872214I707114J-707100D01*
G01*
X151036214Y-76200010D02*
G75*
G03*
X150329107Y-76492893I-14J-999990D01*
G01*
X148120886Y-78701100D02*
G75*
G03*
X147828000Y-79408214I707114J-707100D01*
G01*
X166662900Y-76492886D02*
G75*
G03*
X165955786Y-76200000I-707100J-707114D01*
G01*
%TO.N,/V-A14*%
X149821107Y-75730893D02*
X147358893Y-78193107D01*
X173316107Y-80098107D02*
X168948893Y-75730893D01*
X139447330Y-108458000D02*
X139444670Y-108458000D01*
X173609000Y-88630536D02*
X173609000Y-80805214D01*
X147066000Y-78900214D02*
X147066000Y-100677786D01*
X138430000Y-109634214D02*
X138430000Y-114300000D01*
X168241786Y-75438000D02*
X150528214Y-75438000D01*
X146773107Y-101384893D02*
X139878665Y-108279335D01*
X139013335Y-108636665D02*
X138722893Y-108927107D01*
X150528214Y-75438010D02*
G75*
G03*
X149821107Y-75730893I-14J-999990D01*
G01*
X173608990Y-80805214D02*
G75*
G03*
X173316107Y-80098107I-999990J14D01*
G01*
X168948900Y-75730886D02*
G75*
G03*
X168241786Y-75438000I-707100J-707114D01*
G01*
X147358886Y-78193100D02*
G75*
G03*
X147066000Y-78900214I707114J-707100D01*
G01*
X146773114Y-101384900D02*
G75*
G03*
X147066000Y-100677786I-707114J707100D01*
G01*
X138722886Y-108927100D02*
G75*
G03*
X138430000Y-109634214I707114J-707100D01*
G01*
X139444670Y-108457979D02*
G75*
G03*
X139013335Y-108636665I30J-610021D01*
G01*
X139447330Y-108458021D02*
G75*
G03*
X139878665Y-108279335I-30J610021D01*
G01*
%TO.N,/V-RW*%
X146304000Y-100169786D02*
X146304000Y-78392214D01*
X146596893Y-77685107D02*
X149313107Y-74968893D01*
X173697107Y-91478893D02*
X171196000Y-93980000D01*
X177546000Y-83472214D02*
X177546000Y-91186000D01*
X142494000Y-104394000D02*
X146011107Y-100876893D01*
X150020214Y-74676000D02*
X168749786Y-74676000D01*
X164299107Y-89369107D02*
X162560000Y-87630000D01*
X177546000Y-91186000D02*
X174404214Y-91186000D01*
X169456893Y-74968893D02*
X177253107Y-82765107D01*
X164592000Y-92710000D02*
X164592000Y-90076214D01*
X142240000Y-104394000D02*
X142494000Y-104394000D01*
X164591990Y-90076214D02*
G75*
G03*
X164299107Y-89369107I-999990J14D01*
G01*
X146011114Y-100876900D02*
G75*
G03*
X146304000Y-100169786I-707114J707100D01*
G01*
X174404214Y-91186010D02*
G75*
G03*
X173697107Y-91478893I-14J-999990D01*
G01*
X146596886Y-77685100D02*
G75*
G03*
X146304000Y-78392214I707114J-707100D01*
G01*
X150020214Y-74676010D02*
G75*
G03*
X149313107Y-74968893I-14J-999990D01*
G01*
X169456900Y-74968886D02*
G75*
G03*
X168749786Y-74676000I-707100J-707114D01*
G01*
X177545990Y-83472214D02*
G75*
G03*
X177253107Y-82765107I-999990J14D01*
G01*
%TO.N,/PB6*%
X138777786Y-107696000D02*
X137828214Y-107696000D01*
X137121107Y-107988893D02*
X136182893Y-108927107D01*
X142240000Y-102870000D02*
X141516893Y-103593107D01*
X141224000Y-104300214D02*
X141224000Y-105249786D01*
X135890000Y-109634214D02*
X135890000Y-114300000D01*
X140931107Y-105956893D02*
X139484893Y-107403107D01*
X138777786Y-107695990D02*
G75*
G03*
X139484893Y-107403107I14J999990D01*
G01*
X137828214Y-107696010D02*
G75*
G03*
X137121107Y-107988893I-14J-999990D01*
G01*
X136182886Y-108927100D02*
G75*
G03*
X135890000Y-109634214I707114J-707100D01*
G01*
X141516886Y-103593100D02*
G75*
G03*
X141224000Y-104300214I707114J-707100D01*
G01*
X140931114Y-105956900D02*
G75*
G03*
X141224000Y-105249786I-707114J707100D01*
G01*
%TD*%
%TA.AperFunction,Conductor*%
%TO.N,GND*%
G36*
X147895859Y-102662805D02*
G01*
X147934423Y-102729600D01*
X147939500Y-102768164D01*
X147939500Y-103766711D01*
X147939507Y-103766761D01*
X147939510Y-103766866D01*
X147939509Y-103833956D01*
X147967747Y-104048464D01*
X148023742Y-104257452D01*
X148106536Y-104457342D01*
X148214713Y-104644715D01*
X148346422Y-104816366D01*
X148364809Y-104834754D01*
X148364812Y-104834758D01*
X150370220Y-106840166D01*
X150383071Y-106854820D01*
X150420726Y-106903893D01*
X150440175Y-106937581D01*
X150460076Y-106985629D01*
X150470143Y-107023199D01*
X150473561Y-107049167D01*
X150476964Y-107075011D01*
X150478226Y-107084601D01*
X150479500Y-107104048D01*
X150479499Y-107167499D01*
X150479500Y-107167503D01*
X150479500Y-109323278D01*
X150459538Y-109397778D01*
X150443513Y-109420381D01*
X150442996Y-109420983D01*
X150438518Y-109425963D01*
X150415780Y-109450136D01*
X150367434Y-109484352D01*
X150337327Y-109497645D01*
X150331648Y-109501535D01*
X150331643Y-109501538D01*
X150164544Y-109616004D01*
X150158861Y-109619897D01*
X150122181Y-109656577D01*
X150115952Y-109662457D01*
X150088343Y-109687053D01*
X150082528Y-109694557D01*
X150070118Y-109708640D01*
X150005897Y-109772861D01*
X150002006Y-109778541D01*
X150002002Y-109778546D01*
X149987469Y-109799762D01*
X149928898Y-109849942D01*
X149853083Y-109864114D01*
X149780339Y-109838480D01*
X149741620Y-109799761D01*
X149723790Y-109773732D01*
X149715026Y-109763178D01*
X149570822Y-109618974D01*
X149560268Y-109610210D01*
X149392022Y-109494958D01*
X149380033Y-109488281D01*
X149193478Y-109405909D01*
X149180467Y-109401548D01*
X148981110Y-109354660D01*
X148969235Y-109352864D01*
X148909570Y-109348722D01*
X148893849Y-109351786D01*
X148890000Y-109362983D01*
X148890000Y-110744000D01*
X148290000Y-110744000D01*
X148290000Y-109366980D01*
X148285855Y-109351509D01*
X148274420Y-109348445D01*
X148210765Y-109352864D01*
X148198890Y-109354660D01*
X147999533Y-109401548D01*
X147986522Y-109405909D01*
X147799967Y-109488281D01*
X147787978Y-109494958D01*
X147619732Y-109610210D01*
X147609178Y-109618974D01*
X147464974Y-109763178D01*
X147456210Y-109773732D01*
X147442925Y-109793126D01*
X147384354Y-109843307D01*
X147308539Y-109857480D01*
X147235795Y-109831846D01*
X147197075Y-109793126D01*
X147183790Y-109773732D01*
X147175026Y-109763178D01*
X147030822Y-109618974D01*
X147020268Y-109610210D01*
X146852022Y-109494958D01*
X146840033Y-109488281D01*
X146653478Y-109405909D01*
X146640467Y-109401548D01*
X146441110Y-109354660D01*
X146429235Y-109352864D01*
X146369570Y-109348722D01*
X146353849Y-109351786D01*
X146350000Y-109362983D01*
X146350000Y-110744000D01*
X145750000Y-110744000D01*
X145750000Y-109366980D01*
X145745855Y-109351509D01*
X145734420Y-109348445D01*
X145670765Y-109352864D01*
X145658890Y-109354660D01*
X145459533Y-109401548D01*
X145446522Y-109405909D01*
X145259967Y-109488281D01*
X145247978Y-109494958D01*
X145079732Y-109610210D01*
X145069178Y-109618974D01*
X144924974Y-109763178D01*
X144916210Y-109773732D01*
X144898380Y-109799761D01*
X144839809Y-109849942D01*
X144763994Y-109864115D01*
X144691250Y-109838481D01*
X144652531Y-109799762D01*
X144637998Y-109778546D01*
X144637994Y-109778541D01*
X144634103Y-109772861D01*
X144535864Y-109674622D01*
X144535885Y-109674601D01*
X144535807Y-109674556D01*
X144534645Y-109673196D01*
X144532945Y-109671703D01*
X144481139Y-109619897D01*
X144475456Y-109616004D01*
X144475455Y-109616003D01*
X144457304Y-109603569D01*
X144407124Y-109544996D01*
X144392954Y-109469181D01*
X144418589Y-109396438D01*
X144477162Y-109346258D01*
X144498921Y-109337863D01*
X144506851Y-109335498D01*
X144506929Y-109335474D01*
X144507629Y-109335265D01*
X144508554Y-109334968D01*
X144509172Y-109334755D01*
X144509200Y-109334746D01*
X144527741Y-109328365D01*
X144527775Y-109328353D01*
X144528411Y-109328134D01*
X144529091Y-109327884D01*
X144529108Y-109327878D01*
X144560422Y-109316368D01*
X144588056Y-109306211D01*
X144646389Y-109280487D01*
X144652634Y-109276017D01*
X144659301Y-109272215D01*
X144659649Y-109272826D01*
X144672984Y-109265190D01*
X144683864Y-109260346D01*
X144724730Y-109242151D01*
X144786507Y-109197268D01*
X144871551Y-109135480D01*
X144871553Y-109135479D01*
X144877871Y-109130888D01*
X144933597Y-109068998D01*
X144999307Y-108996021D01*
X144999311Y-108996016D01*
X145004533Y-108990216D01*
X145099179Y-108826284D01*
X145157674Y-108646256D01*
X145159081Y-108632874D01*
X145176644Y-108465764D01*
X145177460Y-108458000D01*
X145175305Y-108437499D01*
X145158491Y-108277514D01*
X145158490Y-108277511D01*
X145157674Y-108269744D01*
X145149056Y-108243219D01*
X145108069Y-108117076D01*
X145099179Y-108089716D01*
X145004533Y-107925784D01*
X144999311Y-107919984D01*
X144999307Y-107919979D01*
X144933597Y-107847002D01*
X144877871Y-107785112D01*
X144724730Y-107673849D01*
X144551803Y-107596856D01*
X144544167Y-107595233D01*
X144544164Y-107595232D01*
X144374287Y-107559124D01*
X144374286Y-107559124D01*
X144366646Y-107557500D01*
X144177354Y-107557500D01*
X144169714Y-107559124D01*
X144169713Y-107559124D01*
X143999836Y-107595232D01*
X143999833Y-107595233D01*
X143992197Y-107596856D01*
X143819270Y-107673849D01*
X143666129Y-107785112D01*
X143610403Y-107847002D01*
X143544693Y-107919979D01*
X143544689Y-107919984D01*
X143539467Y-107925784D01*
X143444821Y-108089716D01*
X143442409Y-108097140D01*
X143438169Y-108110188D01*
X143427577Y-108134923D01*
X143423791Y-108141936D01*
X143401866Y-108201584D01*
X143394981Y-108221599D01*
X143394684Y-108222525D01*
X143388733Y-108242486D01*
X143371910Y-108303471D01*
X143367320Y-108321379D01*
X143367126Y-108322198D01*
X143363310Y-108339684D01*
X143352623Y-108393179D01*
X143350751Y-108403060D01*
X143350665Y-108403540D01*
X143348792Y-108414716D01*
X143348731Y-108415109D01*
X143348730Y-108415113D01*
X143348259Y-108418127D01*
X143315098Y-108491016D01*
X143303954Y-108504273D01*
X143303953Y-108504274D01*
X143303776Y-108504125D01*
X143292928Y-108517115D01*
X143266415Y-108543628D01*
X143263445Y-108547498D01*
X143263442Y-108547502D01*
X143203881Y-108625125D01*
X143134705Y-108715279D01*
X143026527Y-108902654D01*
X143024660Y-108907161D01*
X143024659Y-108907164D01*
X142953739Y-109078386D01*
X142943732Y-109102545D01*
X142942469Y-109107259D01*
X142896056Y-109280487D01*
X142887737Y-109311534D01*
X142883172Y-109346212D01*
X142853657Y-109417470D01*
X142795630Y-109463070D01*
X142723636Y-109494858D01*
X142723624Y-109494864D01*
X142717327Y-109497645D01*
X142711648Y-109501535D01*
X142711643Y-109501538D01*
X142544544Y-109616004D01*
X142538861Y-109619897D01*
X142487731Y-109671027D01*
X142478725Y-109679321D01*
X142468496Y-109687991D01*
X142463733Y-109694138D01*
X142459050Y-109699030D01*
X142454024Y-109704734D01*
X142385897Y-109772861D01*
X142382004Y-109778544D01*
X142362925Y-109806396D01*
X142304353Y-109856577D01*
X142228538Y-109870750D01*
X142155795Y-109845116D01*
X142117075Y-109806396D01*
X142097996Y-109778544D01*
X142094103Y-109772861D01*
X142041550Y-109720308D01*
X142032893Y-109710690D01*
X142030996Y-109707968D01*
X142024881Y-109701425D01*
X142022390Y-109699030D01*
X141987539Y-109665528D01*
X141987531Y-109665521D01*
X141985875Y-109663929D01*
X141985389Y-109663618D01*
X141980645Y-109659403D01*
X141941139Y-109619897D01*
X141935456Y-109616004D01*
X141768357Y-109501538D01*
X141768352Y-109501535D01*
X141762673Y-109497645D01*
X141756373Y-109494863D01*
X141756367Y-109494860D01*
X141732562Y-109484349D01*
X141684215Y-109450132D01*
X141661483Y-109425965D01*
X141656967Y-109420940D01*
X141656436Y-109420322D01*
X141623062Y-109350791D01*
X141620500Y-109323278D01*
X141620500Y-108945503D01*
X141620501Y-108945499D01*
X141620500Y-108881973D01*
X141621774Y-108862526D01*
X141629848Y-108801192D01*
X141639913Y-108763627D01*
X141659817Y-108715572D01*
X141679264Y-108681890D01*
X141716875Y-108632874D01*
X141729726Y-108618220D01*
X147685141Y-102662805D01*
X147751936Y-102624241D01*
X147829064Y-102624241D01*
X147895859Y-102662805D01*
G37*
%TD.AperFunction*%
%TA.AperFunction,Conductor*%
G36*
X181013000Y-72756062D02*
G01*
X181067538Y-72810600D01*
X181087500Y-72885100D01*
X181087500Y-110595000D01*
X181067538Y-110669500D01*
X181013000Y-110724038D01*
X180938500Y-110744000D01*
X180608500Y-110744000D01*
X180534000Y-110724038D01*
X180479462Y-110669500D01*
X180459500Y-110595000D01*
X180459500Y-110449698D01*
X180453260Y-110359796D01*
X180403732Y-110149219D01*
X180316355Y-109951327D01*
X180312465Y-109945648D01*
X180312462Y-109945643D01*
X180197996Y-109778544D01*
X180194103Y-109772861D01*
X180041139Y-109619897D01*
X180035456Y-109616004D01*
X179868357Y-109501538D01*
X179868352Y-109501535D01*
X179862673Y-109497645D01*
X179856376Y-109494864D01*
X179856373Y-109494863D01*
X179784367Y-109463070D01*
X179664781Y-109410268D01*
X179658082Y-109408692D01*
X179658078Y-109408691D01*
X179460076Y-109362121D01*
X179460075Y-109362121D01*
X179454204Y-109360740D01*
X179448188Y-109360322D01*
X179448185Y-109360322D01*
X179416039Y-109358091D01*
X179364302Y-109354500D01*
X178775698Y-109354500D01*
X178723961Y-109358091D01*
X178691815Y-109360322D01*
X178691812Y-109360322D01*
X178685796Y-109360740D01*
X178679925Y-109362121D01*
X178679924Y-109362121D01*
X178481922Y-109408691D01*
X178481918Y-109408692D01*
X178475219Y-109410268D01*
X178355633Y-109463070D01*
X178283627Y-109494863D01*
X178283624Y-109494864D01*
X178277327Y-109497645D01*
X178271648Y-109501535D01*
X178271643Y-109501538D01*
X178104544Y-109616004D01*
X178098861Y-109619897D01*
X177945897Y-109772861D01*
X177942004Y-109778544D01*
X177922925Y-109806396D01*
X177864353Y-109856577D01*
X177788538Y-109870750D01*
X177715795Y-109845116D01*
X177677075Y-109806396D01*
X177657996Y-109778544D01*
X177654103Y-109772861D01*
X177555864Y-109674622D01*
X177555885Y-109674601D01*
X177555807Y-109674556D01*
X177554645Y-109673196D01*
X177552945Y-109671703D01*
X177501139Y-109619897D01*
X177495456Y-109616004D01*
X177328352Y-109501535D01*
X177328350Y-109501534D01*
X177322673Y-109497645D01*
X177316373Y-109494863D01*
X177244360Y-109463067D01*
X177184270Y-109414714D01*
X177156817Y-109346208D01*
X177155338Y-109334968D01*
X177152253Y-109311536D01*
X177096258Y-109102548D01*
X177013464Y-108902658D01*
X176995883Y-108872205D01*
X176969371Y-108826284D01*
X176905287Y-108715285D01*
X176842053Y-108632874D01*
X176776549Y-108547506D01*
X176773578Y-108543634D01*
X176755191Y-108525246D01*
X176755188Y-108525242D01*
X170177780Y-101947834D01*
X170164929Y-101933180D01*
X170150032Y-101913766D01*
X170127273Y-101884105D01*
X170107825Y-101850419D01*
X170087924Y-101802371D01*
X170077857Y-101764800D01*
X170069774Y-101703397D01*
X170068500Y-101683951D01*
X170068500Y-101668926D01*
X170068501Y-101620511D01*
X170068501Y-101620501D01*
X170068500Y-101620497D01*
X170068500Y-100900969D01*
X175143723Y-100900969D01*
X175173882Y-101200762D01*
X175243731Y-101493861D01*
X175245519Y-101498503D01*
X175245521Y-101498510D01*
X175324432Y-101703397D01*
X175352023Y-101775034D01*
X175496825Y-102039265D01*
X175617406Y-102202919D01*
X175647144Y-102243279D01*
X175675554Y-102281838D01*
X175679010Y-102285412D01*
X175679013Y-102285415D01*
X175750505Y-102359337D01*
X175885020Y-102498424D01*
X175924613Y-102529690D01*
X176117162Y-102681744D01*
X176121485Y-102685158D01*
X176195280Y-102728867D01*
X176323847Y-102805017D01*
X176380730Y-102838709D01*
X176385305Y-102840649D01*
X176385307Y-102840650D01*
X176592450Y-102928486D01*
X176658128Y-102956336D01*
X176948729Y-103035940D01*
X176953665Y-103036604D01*
X176953666Y-103036604D01*
X177242422Y-103075438D01*
X177242427Y-103075438D01*
X177247347Y-103076100D01*
X177473244Y-103076100D01*
X177475732Y-103075933D01*
X177475745Y-103075933D01*
X177574985Y-103069289D01*
X177698634Y-103061012D01*
X177703519Y-103060019D01*
X177703527Y-103060018D01*
X177924415Y-103015120D01*
X177993903Y-103000996D01*
X178278537Y-102902160D01*
X178547459Y-102766268D01*
X178795869Y-102595744D01*
X178802405Y-102589833D01*
X178891620Y-102509142D01*
X179019333Y-102393632D01*
X179071458Y-102331979D01*
X179210647Y-102167345D01*
X179213865Y-102163539D01*
X179216544Y-102159342D01*
X179216548Y-102159337D01*
X179351566Y-101947834D01*
X179375993Y-101909570D01*
X179502823Y-101636258D01*
X179592093Y-101348479D01*
X179642209Y-101051370D01*
X179647404Y-100895990D01*
X179652111Y-100755209D01*
X179652111Y-100755203D01*
X179652277Y-100750231D01*
X179622118Y-100450438D01*
X179552269Y-100157339D01*
X179550481Y-100152697D01*
X179550479Y-100152690D01*
X179445766Y-99880810D01*
X179445764Y-99880805D01*
X179443977Y-99876166D01*
X179299175Y-99611935D01*
X179120446Y-99369362D01*
X179104406Y-99352776D01*
X178923810Y-99166042D01*
X178910980Y-99152776D01*
X178736542Y-99015024D01*
X178678422Y-98969127D01*
X178678419Y-98969125D01*
X178674515Y-98966042D01*
X178415270Y-98812491D01*
X178410693Y-98810550D01*
X178142457Y-98696808D01*
X178142454Y-98696807D01*
X178137872Y-98694864D01*
X177847271Y-98615260D01*
X177842334Y-98614596D01*
X177553578Y-98575762D01*
X177553573Y-98575762D01*
X177548653Y-98575100D01*
X177322756Y-98575100D01*
X177320268Y-98575267D01*
X177320255Y-98575267D01*
X177221015Y-98581911D01*
X177097366Y-98590188D01*
X177092481Y-98591181D01*
X177092473Y-98591182D01*
X176967536Y-98616577D01*
X176802097Y-98650204D01*
X176517463Y-98749040D01*
X176248541Y-98884932D01*
X176000131Y-99055456D01*
X175776667Y-99257568D01*
X175582135Y-99487661D01*
X175579456Y-99491858D01*
X175579452Y-99491863D01*
X175505364Y-99607921D01*
X175420007Y-99741630D01*
X175293177Y-100014942D01*
X175203907Y-100302721D01*
X175153791Y-100599830D01*
X175149736Y-100721103D01*
X175147269Y-100794917D01*
X175143723Y-100900969D01*
X170068500Y-100900969D01*
X170068500Y-96022928D01*
X170071428Y-96012000D01*
X176075672Y-96012000D01*
X176076239Y-96018481D01*
X176092747Y-96207161D01*
X176094151Y-96223213D01*
X176095832Y-96229487D01*
X176095833Y-96229492D01*
X176142204Y-96402548D01*
X176149026Y-96428009D01*
X176238629Y-96620164D01*
X176242360Y-96625492D01*
X176242362Y-96625496D01*
X176313523Y-96727124D01*
X176360239Y-96793841D01*
X176510159Y-96943761D01*
X176515485Y-96947490D01*
X176678504Y-97061638D01*
X176678508Y-97061640D01*
X176683836Y-97065371D01*
X176875991Y-97154974D01*
X176882272Y-97156657D01*
X177074508Y-97208167D01*
X177074513Y-97208168D01*
X177080787Y-97209849D01*
X177087258Y-97210415D01*
X177087263Y-97210416D01*
X177285519Y-97227761D01*
X177292000Y-97228328D01*
X177298481Y-97227761D01*
X177496737Y-97210416D01*
X177496742Y-97210415D01*
X177503213Y-97209849D01*
X177509487Y-97208168D01*
X177509492Y-97208167D01*
X177701728Y-97156657D01*
X177708009Y-97154974D01*
X177900164Y-97065371D01*
X177905492Y-97061640D01*
X177905496Y-97061638D01*
X178068515Y-96947490D01*
X178073841Y-96943761D01*
X178223761Y-96793841D01*
X178270477Y-96727124D01*
X178341638Y-96625496D01*
X178341640Y-96625492D01*
X178345371Y-96620164D01*
X178434974Y-96428009D01*
X178441796Y-96402548D01*
X178488167Y-96229492D01*
X178488168Y-96229487D01*
X178489849Y-96223213D01*
X178491254Y-96207161D01*
X178507761Y-96018481D01*
X178508328Y-96012000D01*
X178494502Y-95853967D01*
X178490416Y-95807263D01*
X178490415Y-95807258D01*
X178489849Y-95800787D01*
X178459204Y-95686416D01*
X178436657Y-95602272D01*
X178434974Y-95595991D01*
X178345371Y-95403836D01*
X178341640Y-95398508D01*
X178341638Y-95398504D01*
X178227490Y-95235485D01*
X178223761Y-95230159D01*
X178073841Y-95080239D01*
X178007124Y-95033523D01*
X177905496Y-94962362D01*
X177905492Y-94962360D01*
X177900164Y-94958629D01*
X177708009Y-94869026D01*
X177701728Y-94867343D01*
X177509492Y-94815833D01*
X177509487Y-94815832D01*
X177503213Y-94814151D01*
X177496742Y-94813585D01*
X177496737Y-94813584D01*
X177298481Y-94796239D01*
X177292000Y-94795672D01*
X177285519Y-94796239D01*
X177087263Y-94813584D01*
X177087258Y-94813585D01*
X177080787Y-94814151D01*
X177074513Y-94815832D01*
X177074508Y-94815833D01*
X176882272Y-94867343D01*
X176875991Y-94869026D01*
X176683836Y-94958629D01*
X176678508Y-94962360D01*
X176678504Y-94962362D01*
X176576876Y-95033523D01*
X176510159Y-95080239D01*
X176360239Y-95230159D01*
X176356510Y-95235485D01*
X176242362Y-95398504D01*
X176242360Y-95398508D01*
X176238629Y-95403836D01*
X176149026Y-95595991D01*
X176147343Y-95602272D01*
X176124797Y-95686416D01*
X176094151Y-95800787D01*
X176093585Y-95807258D01*
X176093584Y-95807263D01*
X176089498Y-95853967D01*
X176075672Y-96012000D01*
X170071428Y-96012000D01*
X170088462Y-95948428D01*
X170143000Y-95893890D01*
X170217500Y-95873928D01*
X170248478Y-95877184D01*
X170339354Y-95896500D01*
X170528646Y-95896500D01*
X170536286Y-95894876D01*
X170536287Y-95894876D01*
X170706164Y-95858768D01*
X170706167Y-95858767D01*
X170713803Y-95857144D01*
X170886730Y-95780151D01*
X171039871Y-95668888D01*
X171095597Y-95606998D01*
X171161307Y-95534021D01*
X171161311Y-95534016D01*
X171166533Y-95528216D01*
X171175452Y-95512769D01*
X171234937Y-95409736D01*
X171261179Y-95364284D01*
X171319674Y-95184256D01*
X171334887Y-95039511D01*
X171362527Y-94967506D01*
X171422467Y-94918968D01*
X171498646Y-94906902D01*
X171570651Y-94934542D01*
X171618111Y-94992115D01*
X171666629Y-95096164D01*
X171670360Y-95101492D01*
X171670362Y-95101496D01*
X171722872Y-95176487D01*
X171788239Y-95269841D01*
X171938159Y-95419761D01*
X172004876Y-95466477D01*
X172106504Y-95537638D01*
X172106508Y-95537640D01*
X172111836Y-95541371D01*
X172303991Y-95630974D01*
X172310272Y-95632657D01*
X172502508Y-95684167D01*
X172502513Y-95684168D01*
X172508787Y-95685849D01*
X172515258Y-95686415D01*
X172515263Y-95686416D01*
X172713519Y-95703761D01*
X172720000Y-95704328D01*
X172726481Y-95703761D01*
X172924737Y-95686416D01*
X172924742Y-95686415D01*
X172931213Y-95685849D01*
X172937487Y-95684168D01*
X172937492Y-95684167D01*
X173129728Y-95632657D01*
X173136009Y-95630974D01*
X173328164Y-95541371D01*
X173333492Y-95537640D01*
X173333496Y-95537638D01*
X173435124Y-95466477D01*
X173501841Y-95419761D01*
X173651761Y-95269841D01*
X173717128Y-95176487D01*
X173769638Y-95101496D01*
X173769640Y-95101492D01*
X173773371Y-95096164D01*
X173862974Y-94904009D01*
X173886601Y-94815833D01*
X173916167Y-94705492D01*
X173916168Y-94705487D01*
X173917849Y-94699213D01*
X173936328Y-94488000D01*
X173917849Y-94276787D01*
X173862974Y-94071991D01*
X173773371Y-93879836D01*
X173769640Y-93874508D01*
X173769638Y-93874504D01*
X173655490Y-93711485D01*
X173651761Y-93706159D01*
X173501841Y-93556239D01*
X173410808Y-93492497D01*
X173333496Y-93438362D01*
X173333492Y-93438360D01*
X173328164Y-93434629D01*
X173136009Y-93345026D01*
X173081581Y-93330442D01*
X173014786Y-93291878D01*
X172976222Y-93225083D01*
X172976222Y-93147955D01*
X173014786Y-93081160D01*
X174150166Y-91945780D01*
X174164820Y-91932929D01*
X174191566Y-91912406D01*
X174213895Y-91895273D01*
X174247581Y-91875825D01*
X174295629Y-91855924D01*
X174333199Y-91845857D01*
X174372283Y-91840712D01*
X174394604Y-91837774D01*
X174414048Y-91836500D01*
X174477425Y-91836501D01*
X174477499Y-91836501D01*
X174477502Y-91836500D01*
X176700674Y-91836500D01*
X176726039Y-91838675D01*
X176743080Y-91841619D01*
X176748402Y-91841769D01*
X176748407Y-91841770D01*
X176783188Y-91842753D01*
X176800460Y-91843241D01*
X176811280Y-91843942D01*
X176822828Y-91845113D01*
X176876653Y-91861224D01*
X176885129Y-91865642D01*
X176888914Y-91867685D01*
X176931916Y-91891716D01*
X176936241Y-91894105D01*
X176994792Y-91926078D01*
X177002232Y-91930061D01*
X177002598Y-91930253D01*
X177002877Y-91930396D01*
X177010808Y-91934463D01*
X177010870Y-91934494D01*
X177011004Y-91934563D01*
X177080690Y-91969475D01*
X177092049Y-91974989D01*
X177092551Y-91975225D01*
X177102863Y-91979933D01*
X177103178Y-91980073D01*
X177103239Y-91980100D01*
X177118424Y-91986827D01*
X177177239Y-92012883D01*
X177233099Y-92033782D01*
X177233284Y-92033811D01*
X177247372Y-92038763D01*
X177259057Y-92043966D01*
X177259065Y-92043969D01*
X177266197Y-92047144D01*
X177293381Y-92052922D01*
X177443713Y-92084876D01*
X177443714Y-92084876D01*
X177451354Y-92086500D01*
X177640646Y-92086500D01*
X177648286Y-92084876D01*
X177648287Y-92084876D01*
X177818164Y-92048768D01*
X177818167Y-92048767D01*
X177825803Y-92047144D01*
X177998730Y-91970151D01*
X178060506Y-91925268D01*
X178145551Y-91863480D01*
X178145553Y-91863479D01*
X178151871Y-91858888D01*
X178207597Y-91796998D01*
X178273307Y-91724021D01*
X178273311Y-91724016D01*
X178278533Y-91718216D01*
X178373179Y-91554284D01*
X178431674Y-91374256D01*
X178432525Y-91366167D01*
X178450644Y-91193764D01*
X178451460Y-91186000D01*
X178449305Y-91165499D01*
X178432491Y-91005514D01*
X178432490Y-91005511D01*
X178431674Y-90997744D01*
X178413699Y-90942422D01*
X178375596Y-90825153D01*
X178375594Y-90825148D01*
X178373179Y-90817716D01*
X178372815Y-90817086D01*
X178352958Y-90772264D01*
X178340100Y-90743239D01*
X178340073Y-90743178D01*
X178339933Y-90742863D01*
X178335225Y-90732551D01*
X178334989Y-90732049D01*
X178329475Y-90720690D01*
X178294563Y-90651004D01*
X178290253Y-90642598D01*
X178290061Y-90642232D01*
X178289969Y-90642060D01*
X178289917Y-90641962D01*
X178286180Y-90634981D01*
X178286140Y-90634908D01*
X178286081Y-90634797D01*
X178254145Y-90576312D01*
X178251753Y-90571981D01*
X178251681Y-90571851D01*
X178251595Y-90571697D01*
X178227695Y-90528929D01*
X178225643Y-90525130D01*
X178224055Y-90522085D01*
X178221231Y-90516668D01*
X178205113Y-90462827D01*
X178203942Y-90451280D01*
X178203241Y-90440455D01*
X178201914Y-90393515D01*
X178201619Y-90383080D01*
X178198111Y-90336234D01*
X178198005Y-90335841D01*
X178196500Y-90318120D01*
X178196500Y-83431289D01*
X178196493Y-83431239D01*
X178196490Y-83431134D01*
X178196491Y-83368914D01*
X178196491Y-83364044D01*
X178168253Y-83149536D01*
X178112258Y-82940548D01*
X178029464Y-82740658D01*
X177921287Y-82553285D01*
X177789578Y-82381634D01*
X177771191Y-82363246D01*
X177771188Y-82363242D01*
X169917030Y-74509084D01*
X169916864Y-74508912D01*
X169916868Y-74508909D01*
X169840372Y-74432415D01*
X169668721Y-74300705D01*
X169481346Y-74192527D01*
X169459697Y-74183560D01*
X169285966Y-74111600D01*
X169285960Y-74111598D01*
X169281455Y-74109732D01*
X169254820Y-74102596D01*
X169077166Y-74054996D01*
X169077162Y-74054995D01*
X169072466Y-74053737D01*
X169067644Y-74053102D01*
X169067643Y-74053102D01*
X168862782Y-74026134D01*
X168862780Y-74026134D01*
X168857957Y-74025499D01*
X168853086Y-74025499D01*
X168749777Y-74025500D01*
X149979289Y-74025500D01*
X149979239Y-74025507D01*
X149979134Y-74025510D01*
X149978141Y-74025510D01*
X149916914Y-74025509D01*
X149912044Y-74025509D01*
X149907222Y-74026144D01*
X149907219Y-74026144D01*
X149818868Y-74037775D01*
X149697536Y-74053747D01*
X149488548Y-74109742D01*
X149288658Y-74192536D01*
X149101285Y-74300713D01*
X149097423Y-74303676D01*
X149097422Y-74303677D01*
X148950572Y-74416356D01*
X148929634Y-74432422D01*
X148911246Y-74450809D01*
X148911242Y-74450812D01*
X146137084Y-77224970D01*
X146136912Y-77225136D01*
X146136909Y-77225132D01*
X146060415Y-77301628D01*
X145928705Y-77473279D01*
X145820527Y-77660654D01*
X145818659Y-77665164D01*
X145749918Y-77831125D01*
X145737732Y-77860545D01*
X145736469Y-77865259D01*
X145699267Y-78004109D01*
X145681737Y-78069534D01*
X145681102Y-78074356D01*
X145681102Y-78074357D01*
X145668782Y-78167950D01*
X145653499Y-78284043D01*
X145653500Y-78338766D01*
X145653500Y-100096497D01*
X145653499Y-100096501D01*
X145653499Y-100096509D01*
X145653500Y-100160025D01*
X145652226Y-100179472D01*
X145648153Y-100210417D01*
X145644152Y-100240808D01*
X145634087Y-100278373D01*
X145614183Y-100326428D01*
X145594736Y-100360110D01*
X145557125Y-100409126D01*
X145544274Y-100423780D01*
X143336998Y-102631056D01*
X143270203Y-102669620D01*
X143193075Y-102669620D01*
X143126280Y-102631056D01*
X143089932Y-102571741D01*
X143069592Y-102509143D01*
X143069592Y-102509142D01*
X143067179Y-102501716D01*
X143004777Y-102393632D01*
X142976438Y-102344547D01*
X142976436Y-102344544D01*
X142972533Y-102337784D01*
X142967311Y-102331984D01*
X142967307Y-102331979D01*
X142879890Y-102234894D01*
X142845871Y-102197112D01*
X142692730Y-102085849D01*
X142519803Y-102008856D01*
X142512167Y-102007233D01*
X142512164Y-102007232D01*
X142342287Y-101971124D01*
X142342286Y-101971124D01*
X142334646Y-101969500D01*
X142145354Y-101969500D01*
X142137714Y-101971124D01*
X142137713Y-101971124D01*
X141967836Y-102007232D01*
X141967833Y-102007233D01*
X141960197Y-102008856D01*
X141787270Y-102085849D01*
X141634129Y-102197112D01*
X141600110Y-102234894D01*
X141512693Y-102331979D01*
X141512689Y-102331984D01*
X141507467Y-102337784D01*
X141503564Y-102344544D01*
X141503562Y-102344547D01*
X141475223Y-102393632D01*
X141412821Y-102501716D01*
X141410409Y-102509140D01*
X141410408Y-102509142D01*
X141408283Y-102515683D01*
X141399178Y-102536479D01*
X141399423Y-102536594D01*
X141397153Y-102541419D01*
X141394553Y-102546054D01*
X141392639Y-102551013D01*
X141374900Y-102596970D01*
X141365259Y-102621946D01*
X141361252Y-102632690D01*
X141361064Y-102633212D01*
X141356973Y-102645025D01*
X141332384Y-102718987D01*
X141329428Y-102728170D01*
X141329305Y-102728565D01*
X141326921Y-102736448D01*
X141308182Y-102800271D01*
X141306814Y-102805017D01*
X141293343Y-102852613D01*
X141292125Y-102856686D01*
X141289243Y-102865844D01*
X141262574Y-102915298D01*
X141255253Y-102924273D01*
X141248089Y-102932431D01*
X141208656Y-102974159D01*
X141207543Y-102975452D01*
X141207536Y-102975460D01*
X141182606Y-103004427D01*
X141182604Y-103004430D01*
X141178003Y-103009776D01*
X141177804Y-103010123D01*
X141166340Y-103023714D01*
X141057084Y-103132970D01*
X141056912Y-103133136D01*
X141056909Y-103133132D01*
X140980415Y-103209628D01*
X140848705Y-103381279D01*
X140740527Y-103568654D01*
X140738659Y-103573164D01*
X140678285Y-103718925D01*
X140657732Y-103768545D01*
X140601737Y-103977534D01*
X140573499Y-104192043D01*
X140573500Y-104257452D01*
X140573500Y-105176497D01*
X140573499Y-105176501D01*
X140573499Y-105176509D01*
X140573500Y-105240025D01*
X140572226Y-105259474D01*
X140564152Y-105320808D01*
X140554087Y-105358373D01*
X140534183Y-105406428D01*
X140514736Y-105440110D01*
X140477125Y-105489126D01*
X140464274Y-105503780D01*
X139031834Y-106936220D01*
X139017180Y-106949071D01*
X139010098Y-106954505D01*
X138968996Y-106986044D01*
X138968107Y-106986726D01*
X138934419Y-107006175D01*
X138886371Y-107026076D01*
X138848801Y-107036143D01*
X138822833Y-107039561D01*
X138787396Y-107044226D01*
X138767952Y-107045500D01*
X138704575Y-107045499D01*
X138704501Y-107045499D01*
X138704498Y-107045500D01*
X137787289Y-107045500D01*
X137787239Y-107045507D01*
X137787134Y-107045510D01*
X137786141Y-107045510D01*
X137724914Y-107045509D01*
X137720044Y-107045509D01*
X137715222Y-107046144D01*
X137715219Y-107046144D01*
X137626868Y-107057775D01*
X137505536Y-107073747D01*
X137296548Y-107129742D01*
X137096658Y-107212536D01*
X136909285Y-107320713D01*
X136737634Y-107452422D01*
X136719246Y-107470809D01*
X136719242Y-107470812D01*
X135723084Y-108466970D01*
X135722912Y-108467136D01*
X135722909Y-108467132D01*
X135646415Y-108543628D01*
X135514705Y-108715279D01*
X135406527Y-108902654D01*
X135404660Y-108907161D01*
X135404659Y-108907164D01*
X135333739Y-109078386D01*
X135323732Y-109102545D01*
X135322469Y-109107259D01*
X135276056Y-109280487D01*
X135267737Y-109311534D01*
X135263172Y-109346212D01*
X135233657Y-109417470D01*
X135175630Y-109463070D01*
X135103636Y-109494858D01*
X135103624Y-109494864D01*
X135097327Y-109497645D01*
X135091648Y-109501535D01*
X135091643Y-109501538D01*
X134924544Y-109616004D01*
X134918861Y-109619897D01*
X134867731Y-109671027D01*
X134858725Y-109679321D01*
X134848496Y-109687991D01*
X134843733Y-109694138D01*
X134839050Y-109699030D01*
X134834024Y-109704734D01*
X134765897Y-109772861D01*
X134762004Y-109778544D01*
X134647538Y-109945643D01*
X134647535Y-109945648D01*
X134643645Y-109951327D01*
X134556268Y-110149219D01*
X134506740Y-110359796D01*
X134500500Y-110449698D01*
X134500500Y-110595000D01*
X134480538Y-110669500D01*
X134426000Y-110724038D01*
X134351500Y-110744000D01*
X134057500Y-110744000D01*
X133983000Y-110724038D01*
X133928462Y-110669500D01*
X133908500Y-110595000D01*
X133908500Y-101100969D01*
X135343723Y-101100969D01*
X135373882Y-101400762D01*
X135443731Y-101693861D01*
X135445519Y-101698503D01*
X135445521Y-101698510D01*
X135550234Y-101970390D01*
X135552023Y-101975034D01*
X135696825Y-102239265D01*
X135875554Y-102481838D01*
X135879010Y-102485412D01*
X135879013Y-102485415D01*
X135979999Y-102589833D01*
X136085020Y-102698424D01*
X136088928Y-102701510D01*
X136317342Y-102881886D01*
X136321485Y-102885158D01*
X136438375Y-102954392D01*
X136531882Y-103009776D01*
X136580730Y-103038709D01*
X136585305Y-103040649D01*
X136585307Y-103040650D01*
X136830218Y-103144501D01*
X136858128Y-103156336D01*
X137148729Y-103235940D01*
X137153665Y-103236604D01*
X137153666Y-103236604D01*
X137442422Y-103275438D01*
X137442427Y-103275438D01*
X137447347Y-103276100D01*
X137673244Y-103276100D01*
X137675732Y-103275933D01*
X137675745Y-103275933D01*
X137774985Y-103269289D01*
X137898634Y-103261012D01*
X137903519Y-103260019D01*
X137903527Y-103260018D01*
X138085695Y-103222990D01*
X138193903Y-103200996D01*
X138478537Y-103102160D01*
X138747459Y-102966268D01*
X138953284Y-102824977D01*
X138991764Y-102798562D01*
X138991765Y-102798561D01*
X138995869Y-102795744D01*
X139219333Y-102593632D01*
X139253811Y-102552852D01*
X139410647Y-102367345D01*
X139413865Y-102363539D01*
X139416544Y-102359342D01*
X139416548Y-102359337D01*
X139573314Y-102113766D01*
X139575993Y-102109570D01*
X139702823Y-101836258D01*
X139792093Y-101548479D01*
X139842209Y-101251370D01*
X139848683Y-101057742D01*
X139852111Y-100955209D01*
X139852111Y-100955203D01*
X139852277Y-100950231D01*
X139822118Y-100650438D01*
X139752269Y-100357339D01*
X139750481Y-100352697D01*
X139750479Y-100352690D01*
X139645766Y-100080810D01*
X139645764Y-100080805D01*
X139643977Y-100076166D01*
X139499175Y-99811935D01*
X139351814Y-99611935D01*
X139323400Y-99573371D01*
X139323399Y-99573370D01*
X139320446Y-99569362D01*
X139110980Y-99352776D01*
X138874515Y-99166042D01*
X138687809Y-99055456D01*
X138619547Y-99015024D01*
X138619544Y-99015022D01*
X138615270Y-99012491D01*
X138610693Y-99010550D01*
X138342457Y-98896808D01*
X138342454Y-98896807D01*
X138337872Y-98894864D01*
X138047271Y-98815260D01*
X138012249Y-98810550D01*
X137753578Y-98775762D01*
X137753573Y-98775762D01*
X137748653Y-98775100D01*
X137522756Y-98775100D01*
X137520268Y-98775267D01*
X137520255Y-98775267D01*
X137421015Y-98781911D01*
X137297366Y-98790188D01*
X137292481Y-98791181D01*
X137292473Y-98791182D01*
X137167536Y-98816577D01*
X137002097Y-98850204D01*
X136717463Y-98949040D01*
X136448541Y-99084932D01*
X136200131Y-99255456D01*
X136196437Y-99258797D01*
X136173769Y-99279299D01*
X135976667Y-99457568D01*
X135782135Y-99687661D01*
X135779456Y-99691858D01*
X135779452Y-99691863D01*
X135705364Y-99807921D01*
X135620007Y-99941630D01*
X135493177Y-100214942D01*
X135403907Y-100502721D01*
X135353791Y-100799830D01*
X135353625Y-100804805D01*
X135345548Y-101046395D01*
X135343723Y-101100969D01*
X133908500Y-101100969D01*
X133908500Y-72885100D01*
X133928462Y-72810600D01*
X133983000Y-72756062D01*
X134057500Y-72736100D01*
X180938500Y-72736100D01*
X181013000Y-72756062D01*
G37*
%TD.AperFunction*%
%TA.AperFunction,Conductor*%
G36*
X168168501Y-76088501D02*
G01*
X168168576Y-76088501D01*
X168232027Y-76088500D01*
X168251472Y-76089774D01*
X168312810Y-76097848D01*
X168350373Y-76107913D01*
X168398428Y-76127817D01*
X168432110Y-76147264D01*
X168481126Y-76184875D01*
X168495780Y-76197726D01*
X172849220Y-80551166D01*
X172862071Y-80565820D01*
X172899726Y-80614893D01*
X172919175Y-80648581D01*
X172939076Y-80696629D01*
X172949143Y-80734199D01*
X172957226Y-80795601D01*
X172958500Y-80815048D01*
X172958499Y-80878499D01*
X172958500Y-80878503D01*
X172958500Y-87785203D01*
X172956325Y-87810567D01*
X172953380Y-87827615D01*
X172953230Y-87832937D01*
X172953229Y-87832942D01*
X172951758Y-87884990D01*
X172951057Y-87895824D01*
X172949886Y-87907363D01*
X172933773Y-87961194D01*
X172929356Y-87969666D01*
X172927308Y-87973458D01*
X172903499Y-88016060D01*
X172903307Y-88016406D01*
X172900908Y-88020748D01*
X172868917Y-88079334D01*
X172864938Y-88086768D01*
X172864746Y-88087134D01*
X172860439Y-88095534D01*
X172860323Y-88095766D01*
X172860246Y-88095918D01*
X172842498Y-88131345D01*
X172825526Y-88165220D01*
X172825318Y-88165649D01*
X172820258Y-88176071D01*
X172820229Y-88176132D01*
X172820009Y-88176585D01*
X172819773Y-88177087D01*
X172815063Y-88187404D01*
X172814939Y-88187684D01*
X172814906Y-88187757D01*
X172783192Y-88259346D01*
X172782182Y-88261627D01*
X172781821Y-88262252D01*
X172781052Y-88264618D01*
X172761217Y-88317635D01*
X172760047Y-88325064D01*
X172758132Y-88332348D01*
X172758021Y-88332319D01*
X172755118Y-88344435D01*
X172723326Y-88442280D01*
X172703540Y-88630536D01*
X172704356Y-88638300D01*
X172722241Y-88808466D01*
X172723326Y-88818792D01*
X172725741Y-88826224D01*
X172725741Y-88826225D01*
X172742005Y-88876279D01*
X172781821Y-88998820D01*
X172792580Y-89017455D01*
X172871080Y-89153421D01*
X172876467Y-89162752D01*
X172881689Y-89168552D01*
X172881693Y-89168557D01*
X172925624Y-89217346D01*
X173003129Y-89303424D01*
X173156270Y-89414687D01*
X173329197Y-89491680D01*
X173336833Y-89493303D01*
X173336836Y-89493304D01*
X173506713Y-89529412D01*
X173506714Y-89529412D01*
X173514354Y-89531036D01*
X173703646Y-89531036D01*
X173711286Y-89529412D01*
X173711287Y-89529412D01*
X173881164Y-89493304D01*
X173881167Y-89493303D01*
X173888803Y-89491680D01*
X174061730Y-89414687D01*
X174214871Y-89303424D01*
X174292376Y-89217346D01*
X174336307Y-89168557D01*
X174336311Y-89168552D01*
X174341533Y-89162752D01*
X174346921Y-89153421D01*
X174425420Y-89017455D01*
X174436179Y-88998820D01*
X174475995Y-88876279D01*
X174492259Y-88826225D01*
X174492259Y-88826224D01*
X174494674Y-88818792D01*
X174495760Y-88808466D01*
X174513644Y-88638300D01*
X174514460Y-88630536D01*
X174494674Y-88442280D01*
X174458955Y-88332348D01*
X174438596Y-88269689D01*
X174438594Y-88269684D01*
X174436179Y-88262252D01*
X174435815Y-88261622D01*
X174402933Y-88187399D01*
X174398225Y-88177087D01*
X174397989Y-88176585D01*
X174392475Y-88165226D01*
X174357563Y-88095540D01*
X174357365Y-88095152D01*
X174353423Y-88087465D01*
X174353398Y-88087416D01*
X174353253Y-88087134D01*
X174353061Y-88086768D01*
X174352896Y-88086459D01*
X174349180Y-88079517D01*
X174349140Y-88079444D01*
X174349081Y-88079333D01*
X174317145Y-88020848D01*
X174314753Y-88016517D01*
X174314681Y-88016387D01*
X174314595Y-88016233D01*
X174290695Y-87973465D01*
X174288643Y-87969666D01*
X174287260Y-87967014D01*
X174284231Y-87961204D01*
X174268113Y-87907363D01*
X174266942Y-87895824D01*
X174266241Y-87884991D01*
X174265003Y-87841213D01*
X174264619Y-87827616D01*
X174261111Y-87780770D01*
X174261005Y-87780377D01*
X174259500Y-87762656D01*
X174259500Y-81051164D01*
X174279462Y-80976664D01*
X174334000Y-80922126D01*
X174408500Y-80902164D01*
X174483000Y-80922126D01*
X174513859Y-80945805D01*
X176786220Y-83218166D01*
X176799071Y-83232820D01*
X176836726Y-83281893D01*
X176856175Y-83315581D01*
X176876076Y-83363629D01*
X176886143Y-83401199D01*
X176892369Y-83448491D01*
X176894226Y-83462601D01*
X176895500Y-83482048D01*
X176895499Y-83545499D01*
X176895500Y-83545503D01*
X176895500Y-90340667D01*
X176893325Y-90366031D01*
X176890380Y-90383079D01*
X176890229Y-90388404D01*
X176889701Y-90393691D01*
X176887945Y-90393515D01*
X176868241Y-90459501D01*
X176812177Y-90512469D01*
X176746514Y-90530063D01*
X176746523Y-90530243D01*
X176745682Y-90530286D01*
X176745598Y-90530309D01*
X176743079Y-90530380D01*
X176741377Y-90530507D01*
X176741367Y-90530508D01*
X176703244Y-90533364D01*
X176703243Y-90533364D01*
X176696210Y-90533891D01*
X176695825Y-90533995D01*
X176678106Y-90535500D01*
X174363289Y-90535500D01*
X174363239Y-90535507D01*
X174363134Y-90535510D01*
X174362141Y-90535510D01*
X174300914Y-90535509D01*
X174296044Y-90535509D01*
X174291222Y-90536144D01*
X174291219Y-90536144D01*
X174202868Y-90547775D01*
X174081536Y-90563747D01*
X173872548Y-90619742D01*
X173672658Y-90702536D01*
X173668442Y-90704970D01*
X173668440Y-90704971D01*
X173640602Y-90721043D01*
X173485285Y-90810713D01*
X173481423Y-90813676D01*
X173481422Y-90813677D01*
X173476979Y-90817086D01*
X173313634Y-90942422D01*
X173295246Y-90960809D01*
X173295242Y-90960812D01*
X171333760Y-92922294D01*
X171314293Y-92938686D01*
X171300159Y-92948656D01*
X171296294Y-92952308D01*
X171296292Y-92952310D01*
X171258431Y-92988089D01*
X171250275Y-92995252D01*
X171241299Y-93002574D01*
X171191846Y-93029243D01*
X171182669Y-93032131D01*
X171178544Y-93033363D01*
X171131468Y-93046685D01*
X171131468Y-93046686D01*
X171131163Y-93046772D01*
X171126410Y-93048142D01*
X171126349Y-93048160D01*
X171126238Y-93048192D01*
X171062609Y-93066874D01*
X171062538Y-93066895D01*
X171062440Y-93066924D01*
X171062237Y-93066985D01*
X171062231Y-93066987D01*
X171055623Y-93068979D01*
X171055532Y-93069007D01*
X171055379Y-93069053D01*
X171055001Y-93069170D01*
X171049755Y-93070854D01*
X171045302Y-93072283D01*
X171045273Y-93072292D01*
X171044991Y-93072383D01*
X171044674Y-93072488D01*
X171044559Y-93072526D01*
X171026505Y-93078528D01*
X170949512Y-93083088D01*
X170880554Y-93048541D01*
X170838109Y-92984142D01*
X170830500Y-92937137D01*
X170830500Y-80383289D01*
X170830493Y-80383239D01*
X170830490Y-80383134D01*
X170830491Y-80320914D01*
X170830491Y-80316044D01*
X170829745Y-80310373D01*
X170805909Y-80129309D01*
X170802253Y-80101536D01*
X170746258Y-79892548D01*
X170663464Y-79692658D01*
X170651926Y-79672672D01*
X170611997Y-79603513D01*
X170555287Y-79505285D01*
X170423578Y-79333634D01*
X170405191Y-79315246D01*
X170405188Y-79315242D01*
X167432805Y-76342859D01*
X167394241Y-76276064D01*
X167394241Y-76198936D01*
X167432805Y-76132141D01*
X167499600Y-76093577D01*
X167538164Y-76088500D01*
X168168498Y-76088500D01*
X168168501Y-76088501D01*
G37*
%TD.AperFunction*%
%TD*%
%TA.AperFunction,Conductor*%
%TO.N,/V-A7*%
G36*
X162843314Y-76818341D02*
G01*
X162855773Y-76824379D01*
X162963203Y-76876444D01*
X162964446Y-76877144D01*
X163067354Y-76943729D01*
X163068406Y-76944496D01*
X163151202Y-77012229D01*
X163151865Y-77012815D01*
X163221936Y-77079581D01*
X163222070Y-77079710D01*
X163286449Y-77143042D01*
X163352123Y-77200322D01*
X163426224Y-77249067D01*
X163515964Y-77286868D01*
X163516486Y-77286981D01*
X163516488Y-77286982D01*
X163628114Y-77311220D01*
X163628118Y-77311221D01*
X163628553Y-77311315D01*
X163629002Y-77311342D01*
X163629007Y-77311343D01*
X163760211Y-77319331D01*
X163768261Y-77323254D01*
X163771200Y-77331009D01*
X163771200Y-77608991D01*
X163767773Y-77617264D01*
X163760211Y-77620669D01*
X163629007Y-77628656D01*
X163629002Y-77628657D01*
X163628553Y-77628684D01*
X163628118Y-77628778D01*
X163628114Y-77628779D01*
X163560907Y-77643372D01*
X163515964Y-77653131D01*
X163515467Y-77653340D01*
X163515468Y-77653340D01*
X163426710Y-77690726D01*
X163426707Y-77690727D01*
X163426224Y-77690931D01*
X163352123Y-77739676D01*
X163286449Y-77796956D01*
X163286332Y-77797071D01*
X163286331Y-77797072D01*
X163222070Y-77860288D01*
X163221936Y-77860417D01*
X163151865Y-77927183D01*
X163151202Y-77927769D01*
X163068406Y-77995503D01*
X163067355Y-77996269D01*
X162964446Y-78062854D01*
X162963203Y-78063554D01*
X162864880Y-78111207D01*
X162843314Y-78121659D01*
X162834374Y-78122183D01*
X162827407Y-78115621D01*
X162777642Y-77995916D01*
X162560867Y-77474491D01*
X162560867Y-77465509D01*
X162650763Y-77249274D01*
X162827407Y-76824379D01*
X162833748Y-76818055D01*
X162843314Y-76818341D01*
G37*
%TD.AperFunction*%
%TD*%
%TA.AperFunction,Conductor*%
%TO.N,/V-D1*%
G36*
X150514564Y-79742574D02*
G01*
X150521126Y-79749541D01*
X150564812Y-79875394D01*
X150565199Y-79876779D01*
X150590882Y-79996621D01*
X150591084Y-79997908D01*
X150601735Y-80104353D01*
X150601790Y-80105235D01*
X150604127Y-80201980D01*
X150604130Y-80202139D01*
X150604871Y-80292484D01*
X150610805Y-80379425D01*
X150628735Y-80466290D01*
X150628937Y-80466786D01*
X150665259Y-80555978D01*
X150665262Y-80555983D01*
X150665462Y-80556475D01*
X150727787Y-80653374D01*
X150805252Y-80740882D01*
X150815216Y-80752138D01*
X150818133Y-80760604D01*
X150814728Y-80768166D01*
X150618166Y-80964728D01*
X150609893Y-80968155D01*
X150602138Y-80965216D01*
X150595145Y-80959026D01*
X150503374Y-80877787D01*
X150406475Y-80815462D01*
X150405983Y-80815262D01*
X150405978Y-80815259D01*
X150316786Y-80778937D01*
X150316290Y-80778735D01*
X150265087Y-80768166D01*
X150229823Y-80760887D01*
X150229821Y-80760887D01*
X150229425Y-80760805D01*
X150142484Y-80754871D01*
X150052139Y-80754130D01*
X150052007Y-80754127D01*
X149955224Y-80751789D01*
X149954364Y-80751736D01*
X149847902Y-80741083D01*
X149846627Y-80740883D01*
X149780350Y-80726680D01*
X149726779Y-80715199D01*
X149725394Y-80714812D01*
X149599541Y-80671126D01*
X149592849Y-80665176D01*
X149592563Y-80655610D01*
X149820062Y-80104353D01*
X149857438Y-80013788D01*
X149863788Y-80007438D01*
X150488701Y-79749541D01*
X150505610Y-79742563D01*
X150514564Y-79742574D01*
G37*
%TD.AperFunction*%
%TD*%
%TA.AperFunction,Conductor*%
%TO.N,/V-A6*%
G36*
X163318166Y-79055272D02*
G01*
X163514728Y-79251834D01*
X163518155Y-79260107D01*
X163515216Y-79267862D01*
X163427787Y-79366625D01*
X163365462Y-79463524D01*
X163365262Y-79464016D01*
X163365259Y-79464021D01*
X163329320Y-79552271D01*
X163328735Y-79553708D01*
X163310805Y-79640574D01*
X163304871Y-79727515D01*
X163304870Y-79727668D01*
X163304130Y-79817831D01*
X163304127Y-79818018D01*
X163301790Y-79914764D01*
X163301735Y-79915646D01*
X163291084Y-80022091D01*
X163290882Y-80023378D01*
X163265199Y-80143220D01*
X163264812Y-80144605D01*
X163221126Y-80270459D01*
X163215176Y-80277151D01*
X163205610Y-80277437D01*
X162880386Y-80143220D01*
X162563788Y-80012562D01*
X162557438Y-80006212D01*
X162406542Y-79640574D01*
X162292563Y-79364390D01*
X162292574Y-79355436D01*
X162299541Y-79348874D01*
X162425394Y-79305187D01*
X162426779Y-79304800D01*
X162480502Y-79293286D01*
X162546627Y-79279115D01*
X162547902Y-79278915D01*
X162654364Y-79268262D01*
X162655224Y-79268209D01*
X162752007Y-79265871D01*
X162752139Y-79265868D01*
X162842484Y-79265128D01*
X162929425Y-79259193D01*
X162929821Y-79259111D01*
X162929823Y-79259111D01*
X163015762Y-79241372D01*
X163016290Y-79241263D01*
X163018815Y-79240235D01*
X163105978Y-79204740D01*
X163105983Y-79204737D01*
X163106475Y-79204537D01*
X163203374Y-79142212D01*
X163302138Y-79054784D01*
X163310604Y-79051867D01*
X163318166Y-79055272D01*
G37*
%TD.AperFunction*%
%TD*%
%TA.AperFunction,Conductor*%
%TO.N,/V-A3*%
G36*
X166522335Y-109558427D02*
G01*
X166523504Y-109559792D01*
X166574371Y-109629350D01*
X166628742Y-109698185D01*
X166683113Y-109761504D01*
X166683213Y-109761610D01*
X166737374Y-109819191D01*
X166737390Y-109819207D01*
X166737484Y-109819307D01*
X166791856Y-109871594D01*
X166791990Y-109871709D01*
X166791993Y-109871712D01*
X166846097Y-109918254D01*
X166846112Y-109918266D01*
X166846227Y-109918365D01*
X166900598Y-109959619D01*
X166954970Y-109995358D01*
X166955157Y-109995462D01*
X166955167Y-109995468D01*
X166955171Y-109995470D01*
X167009341Y-110025580D01*
X167009551Y-110025675D01*
X167009560Y-110025680D01*
X167055564Y-110046584D01*
X167061679Y-110053127D01*
X167062271Y-110059120D01*
X166381547Y-114230246D01*
X166376833Y-114237860D01*
X166368116Y-114239909D01*
X166360502Y-114235195D01*
X166358453Y-114230246D01*
X165677729Y-110059120D01*
X165679778Y-110050403D01*
X165684436Y-110046584D01*
X165730438Y-110025680D01*
X165730439Y-110025680D01*
X165730658Y-110025580D01*
X165785029Y-109995358D01*
X165785203Y-109995244D01*
X165785214Y-109995237D01*
X165815950Y-109975033D01*
X165839400Y-109959619D01*
X165893771Y-109918365D01*
X165893886Y-109918266D01*
X165893901Y-109918254D01*
X165948006Y-109871712D01*
X165948009Y-109871709D01*
X165948143Y-109871594D01*
X166002514Y-109819307D01*
X166002608Y-109819207D01*
X166002624Y-109819191D01*
X166056776Y-109761620D01*
X166056785Y-109761610D01*
X166056885Y-109761504D01*
X166111257Y-109698185D01*
X166165628Y-109629350D01*
X166216494Y-109559794D01*
X166224144Y-109555138D01*
X166225938Y-109555000D01*
X166514062Y-109555000D01*
X166522335Y-109558427D01*
G37*
%TD.AperFunction*%
%TD*%
%TA.AperFunction,Conductor*%
%TO.N,/V-A5*%
G36*
X171602822Y-109637641D02*
G01*
X171603506Y-109638387D01*
X171654371Y-109698927D01*
X171654445Y-109699008D01*
X171654458Y-109699023D01*
X171708644Y-109758400D01*
X171708742Y-109758507D01*
X171763113Y-109812951D01*
X171817484Y-109862260D01*
X171817564Y-109862325D01*
X171817579Y-109862338D01*
X171871739Y-109906340D01*
X171871856Y-109906435D01*
X171871971Y-109906517D01*
X171871982Y-109906526D01*
X171926075Y-109945366D01*
X171926227Y-109945475D01*
X171980598Y-109979380D01*
X171980761Y-109979466D01*
X171980764Y-109979468D01*
X172034769Y-110008044D01*
X172034776Y-110008048D01*
X172034970Y-110008150D01*
X172035175Y-110008239D01*
X172035181Y-110008242D01*
X172062155Y-110019968D01*
X172089341Y-110031786D01*
X172089561Y-110031861D01*
X172089564Y-110031862D01*
X172134340Y-110047098D01*
X172141068Y-110053007D01*
X172142118Y-110060058D01*
X171461547Y-114230246D01*
X171456833Y-114237860D01*
X171448116Y-114239909D01*
X171440502Y-114235195D01*
X171438453Y-114230246D01*
X170757882Y-110060058D01*
X170759931Y-110051341D01*
X170765660Y-110047098D01*
X170810435Y-110031862D01*
X170810438Y-110031861D01*
X170810658Y-110031786D01*
X170865029Y-110008150D01*
X170919400Y-109979380D01*
X170973771Y-109945475D01*
X171028143Y-109906435D01*
X171028260Y-109906340D01*
X171082419Y-109862338D01*
X171082434Y-109862325D01*
X171082514Y-109862260D01*
X171136885Y-109812951D01*
X171191257Y-109758507D01*
X171191355Y-109758400D01*
X171245541Y-109699023D01*
X171245554Y-109699008D01*
X171245628Y-109698927D01*
X171296493Y-109638388D01*
X171304439Y-109634258D01*
X171305451Y-109634214D01*
X171594549Y-109634214D01*
X171602822Y-109637641D01*
G37*
%TD.AperFunction*%
%TD*%
%TA.AperFunction,Conductor*%
%TO.N,/PB6*%
G36*
X142236197Y-102867437D02*
G01*
X142242563Y-102873803D01*
X142378214Y-103203444D01*
X142388522Y-103228492D01*
X142388501Y-103237446D01*
X142381915Y-103243859D01*
X142306014Y-103273155D01*
X142305508Y-103273337D01*
X142231529Y-103297931D01*
X142231151Y-103298048D01*
X142167209Y-103316822D01*
X142110636Y-103332833D01*
X142058959Y-103349094D01*
X142058775Y-103349167D01*
X142058769Y-103349169D01*
X142036031Y-103358174D01*
X142009504Y-103368679D01*
X141959594Y-103394664D01*
X141906554Y-103430121D01*
X141847708Y-103478125D01*
X141811028Y-103512788D01*
X141788647Y-103533939D01*
X141780280Y-103537130D01*
X141772338Y-103533708D01*
X141576292Y-103337662D01*
X141572865Y-103329389D01*
X141576061Y-103321353D01*
X141603676Y-103292130D01*
X141631874Y-103262291D01*
X141679878Y-103203444D01*
X141715335Y-103150404D01*
X141741319Y-103100495D01*
X141760904Y-103051039D01*
X141777165Y-102999363D01*
X141777184Y-102999296D01*
X141777193Y-102999266D01*
X141793176Y-102942789D01*
X141793208Y-102942679D01*
X141811947Y-102878856D01*
X141812070Y-102878461D01*
X141836659Y-102804499D01*
X141836847Y-102803977D01*
X141866141Y-102728085D01*
X141872317Y-102721601D01*
X141881507Y-102721478D01*
X142236197Y-102867437D01*
G37*
%TD.AperFunction*%
%TD*%
%TA.AperFunction,Conductor*%
%TO.N,/V-A13*%
G36*
X141122335Y-109558427D02*
G01*
X141123504Y-109559792D01*
X141174371Y-109629350D01*
X141228742Y-109698185D01*
X141283113Y-109761504D01*
X141283213Y-109761610D01*
X141337374Y-109819191D01*
X141337390Y-109819207D01*
X141337484Y-109819307D01*
X141391856Y-109871594D01*
X141391990Y-109871709D01*
X141391993Y-109871712D01*
X141446097Y-109918254D01*
X141446112Y-109918266D01*
X141446227Y-109918365D01*
X141500598Y-109959619D01*
X141554970Y-109995358D01*
X141555157Y-109995462D01*
X141555167Y-109995468D01*
X141555171Y-109995470D01*
X141609341Y-110025580D01*
X141609551Y-110025675D01*
X141609560Y-110025680D01*
X141655564Y-110046584D01*
X141661679Y-110053127D01*
X141662271Y-110059120D01*
X140981547Y-114230246D01*
X140976833Y-114237860D01*
X140968116Y-114239909D01*
X140960502Y-114235195D01*
X140958453Y-114230246D01*
X140277729Y-110059120D01*
X140279778Y-110050403D01*
X140284436Y-110046584D01*
X140330438Y-110025680D01*
X140330439Y-110025680D01*
X140330658Y-110025580D01*
X140385029Y-109995358D01*
X140385203Y-109995244D01*
X140385214Y-109995237D01*
X140415950Y-109975033D01*
X140439400Y-109959619D01*
X140493771Y-109918365D01*
X140493886Y-109918266D01*
X140493901Y-109918254D01*
X140548006Y-109871712D01*
X140548009Y-109871709D01*
X140548143Y-109871594D01*
X140602514Y-109819307D01*
X140602608Y-109819207D01*
X140602624Y-109819191D01*
X140656776Y-109761620D01*
X140656785Y-109761610D01*
X140656885Y-109761504D01*
X140711257Y-109698185D01*
X140765628Y-109629350D01*
X140816494Y-109559794D01*
X140824144Y-109555138D01*
X140825938Y-109555000D01*
X141114062Y-109555000D01*
X141122335Y-109558427D01*
G37*
%TD.AperFunction*%
%TD*%
%TA.AperFunction,Conductor*%
%TO.N,/V-A1*%
G36*
X161442822Y-109637641D02*
G01*
X161443506Y-109638387D01*
X161494371Y-109698927D01*
X161494445Y-109699008D01*
X161494458Y-109699023D01*
X161548644Y-109758400D01*
X161548742Y-109758507D01*
X161603113Y-109812951D01*
X161657484Y-109862260D01*
X161657564Y-109862325D01*
X161657579Y-109862338D01*
X161711739Y-109906340D01*
X161711856Y-109906435D01*
X161711971Y-109906517D01*
X161711982Y-109906526D01*
X161766075Y-109945366D01*
X161766227Y-109945475D01*
X161820598Y-109979380D01*
X161820761Y-109979466D01*
X161820764Y-109979468D01*
X161874769Y-110008044D01*
X161874776Y-110008048D01*
X161874970Y-110008150D01*
X161875175Y-110008239D01*
X161875181Y-110008242D01*
X161902155Y-110019968D01*
X161929341Y-110031786D01*
X161929561Y-110031861D01*
X161929564Y-110031862D01*
X161974340Y-110047098D01*
X161981068Y-110053007D01*
X161982118Y-110060058D01*
X161301547Y-114230246D01*
X161296833Y-114237860D01*
X161288116Y-114239909D01*
X161280502Y-114235195D01*
X161278453Y-114230246D01*
X160597882Y-110060058D01*
X160599931Y-110051341D01*
X160605660Y-110047098D01*
X160650435Y-110031862D01*
X160650438Y-110031861D01*
X160650658Y-110031786D01*
X160705029Y-110008150D01*
X160759400Y-109979380D01*
X160813771Y-109945475D01*
X160868143Y-109906435D01*
X160868260Y-109906340D01*
X160922419Y-109862338D01*
X160922434Y-109862325D01*
X160922514Y-109862260D01*
X160976885Y-109812951D01*
X161031257Y-109758507D01*
X161031355Y-109758400D01*
X161085541Y-109699023D01*
X161085554Y-109699008D01*
X161085628Y-109698927D01*
X161136493Y-109638388D01*
X161144439Y-109634258D01*
X161145451Y-109634214D01*
X161434549Y-109634214D01*
X161442822Y-109637641D01*
G37*
%TD.AperFunction*%
%TD*%
%TA.AperFunction,Conductor*%
%TO.N,/V-A7*%
G36*
X176682822Y-109637641D02*
G01*
X176683506Y-109638387D01*
X176734371Y-109698927D01*
X176734445Y-109699008D01*
X176734458Y-109699023D01*
X176788644Y-109758400D01*
X176788742Y-109758507D01*
X176843113Y-109812951D01*
X176897484Y-109862260D01*
X176897564Y-109862325D01*
X176897579Y-109862338D01*
X176951739Y-109906340D01*
X176951856Y-109906435D01*
X176951971Y-109906517D01*
X176951982Y-109906526D01*
X177006075Y-109945366D01*
X177006227Y-109945475D01*
X177060598Y-109979380D01*
X177060761Y-109979466D01*
X177060764Y-109979468D01*
X177114769Y-110008044D01*
X177114776Y-110008048D01*
X177114970Y-110008150D01*
X177115175Y-110008239D01*
X177115181Y-110008242D01*
X177142155Y-110019968D01*
X177169341Y-110031786D01*
X177169561Y-110031861D01*
X177169564Y-110031862D01*
X177214340Y-110047098D01*
X177221068Y-110053007D01*
X177222118Y-110060058D01*
X176541547Y-114230246D01*
X176536833Y-114237860D01*
X176528116Y-114239909D01*
X176520502Y-114235195D01*
X176518453Y-114230246D01*
X175837882Y-110060058D01*
X175839931Y-110051341D01*
X175845660Y-110047098D01*
X175890435Y-110031862D01*
X175890438Y-110031861D01*
X175890658Y-110031786D01*
X175945029Y-110008150D01*
X175999400Y-109979380D01*
X176053771Y-109945475D01*
X176108143Y-109906435D01*
X176108260Y-109906340D01*
X176162419Y-109862338D01*
X176162434Y-109862325D01*
X176162514Y-109862260D01*
X176216885Y-109812951D01*
X176271257Y-109758507D01*
X176271355Y-109758400D01*
X176325541Y-109699023D01*
X176325554Y-109699008D01*
X176325628Y-109698927D01*
X176376493Y-109638388D01*
X176384439Y-109634258D01*
X176385451Y-109634214D01*
X176674549Y-109634214D01*
X176682822Y-109637641D01*
G37*
%TD.AperFunction*%
%TD*%
%TA.AperFunction,Conductor*%
%TO.N,/V-A13*%
G36*
X170327377Y-94297312D02*
G01*
X170330774Y-94304754D01*
X170335385Y-94369491D01*
X170350869Y-94427657D01*
X170375438Y-94472116D01*
X170408081Y-94506602D01*
X170408545Y-94506932D01*
X170447533Y-94534669D01*
X170447542Y-94534675D01*
X170447787Y-94534849D01*
X170493543Y-94560589D01*
X170541251Y-94585918D01*
X170544142Y-94587453D01*
X170544543Y-94587677D01*
X170598726Y-94619232D01*
X170599562Y-94619767D01*
X170625253Y-94637810D01*
X170656466Y-94659732D01*
X170657493Y-94660544D01*
X170685652Y-94685506D01*
X170707561Y-94704929D01*
X170711479Y-94712981D01*
X170708088Y-94721943D01*
X170438404Y-94992581D01*
X170437441Y-94993547D01*
X170429124Y-94996988D01*
X170045657Y-94996029D01*
X170037392Y-94992581D01*
X170033986Y-94984343D01*
X170033888Y-94900511D01*
X170033888Y-94900466D01*
X170033584Y-94821873D01*
X170033136Y-94755875D01*
X170032592Y-94698302D01*
X170032591Y-94698191D01*
X170032591Y-94698172D01*
X170031408Y-94591582D01*
X170031408Y-94591563D01*
X170030864Y-94534041D01*
X170030877Y-94534009D01*
X170030864Y-94534009D01*
X170030416Y-94468011D01*
X170030112Y-94389373D01*
X170030014Y-94305599D01*
X170033431Y-94297322D01*
X170041714Y-94293885D01*
X170319104Y-94293885D01*
X170327377Y-94297312D01*
G37*
%TD.AperFunction*%
%TD*%
%TA.AperFunction,Conductor*%
%TO.N,/V-RW*%
G36*
X142800204Y-103890966D02*
G01*
X142996569Y-104087331D01*
X142999996Y-104095604D01*
X142996727Y-104103716D01*
X142933527Y-104169392D01*
X142877685Y-104232800D01*
X142833329Y-104288305D01*
X142796632Y-104338542D01*
X142763763Y-104386144D01*
X142730991Y-104433608D01*
X142730811Y-104433862D01*
X142694338Y-104483791D01*
X142694030Y-104484193D01*
X142650000Y-104539291D01*
X142649674Y-104539680D01*
X142594180Y-104602693D01*
X142593831Y-104603073D01*
X142531092Y-104668270D01*
X142522886Y-104671855D01*
X142514409Y-104668451D01*
X142385013Y-104539700D01*
X142240963Y-104396369D01*
X142238396Y-104392528D01*
X142216158Y-104338487D01*
X142091727Y-104036112D01*
X142091748Y-104027159D01*
X142098919Y-104020537D01*
X142179674Y-103994205D01*
X142181545Y-103993761D01*
X142262664Y-103981453D01*
X142264419Y-103981321D01*
X142307197Y-103981324D01*
X142337228Y-103981326D01*
X142338468Y-103981392D01*
X142405430Y-103988537D01*
X142405852Y-103988590D01*
X142468826Y-103997631D01*
X142468830Y-103997632D01*
X142468987Y-103997654D01*
X142469139Y-103997668D01*
X142469148Y-103997669D01*
X142529572Y-104003208D01*
X142529573Y-104003208D01*
X142529998Y-104003247D01*
X142530425Y-104003224D01*
X142590122Y-104000009D01*
X142590125Y-104000008D01*
X142590765Y-103999974D01*
X142591382Y-103999801D01*
X142591385Y-103999801D01*
X142652721Y-103982655D01*
X142652723Y-103982654D01*
X142653382Y-103982470D01*
X142653979Y-103982137D01*
X142653982Y-103982136D01*
X142719441Y-103945654D01*
X142719947Y-103945372D01*
X142720387Y-103944996D01*
X142784329Y-103890345D01*
X142792845Y-103887575D01*
X142800204Y-103890966D01*
G37*
%TD.AperFunction*%
%TD*%
%TA.AperFunction,Conductor*%
%TO.N,/V-A0*%
G36*
X158902822Y-109637641D02*
G01*
X158903506Y-109638387D01*
X158954371Y-109698927D01*
X158954445Y-109699008D01*
X158954458Y-109699023D01*
X159008644Y-109758400D01*
X159008742Y-109758507D01*
X159063113Y-109812951D01*
X159117484Y-109862260D01*
X159117564Y-109862325D01*
X159117579Y-109862338D01*
X159171739Y-109906340D01*
X159171856Y-109906435D01*
X159171971Y-109906517D01*
X159171982Y-109906526D01*
X159226075Y-109945366D01*
X159226227Y-109945475D01*
X159280598Y-109979380D01*
X159280761Y-109979466D01*
X159280764Y-109979468D01*
X159334769Y-110008044D01*
X159334776Y-110008048D01*
X159334970Y-110008150D01*
X159335175Y-110008239D01*
X159335181Y-110008242D01*
X159362155Y-110019968D01*
X159389341Y-110031786D01*
X159389561Y-110031861D01*
X159389564Y-110031862D01*
X159434340Y-110047098D01*
X159441068Y-110053007D01*
X159442118Y-110060058D01*
X158761547Y-114230246D01*
X158756833Y-114237860D01*
X158748116Y-114239909D01*
X158740502Y-114235195D01*
X158738453Y-114230246D01*
X158057882Y-110060058D01*
X158059931Y-110051341D01*
X158065660Y-110047098D01*
X158110435Y-110031862D01*
X158110438Y-110031861D01*
X158110658Y-110031786D01*
X158165029Y-110008150D01*
X158219400Y-109979380D01*
X158273771Y-109945475D01*
X158328143Y-109906435D01*
X158328260Y-109906340D01*
X158382419Y-109862338D01*
X158382434Y-109862325D01*
X158382514Y-109862260D01*
X158436885Y-109812951D01*
X158491257Y-109758507D01*
X158491355Y-109758400D01*
X158545541Y-109699023D01*
X158545554Y-109699008D01*
X158545628Y-109698927D01*
X158596493Y-109638388D01*
X158604439Y-109634258D01*
X158605451Y-109634214D01*
X158894549Y-109634214D01*
X158902822Y-109637641D01*
G37*
%TD.AperFunction*%
%TD*%
%TA.AperFunction,Conductor*%
%TO.N,/V-D0*%
G36*
X156362822Y-109637641D02*
G01*
X156363506Y-109638387D01*
X156414371Y-109698927D01*
X156414445Y-109699008D01*
X156414458Y-109699023D01*
X156468644Y-109758400D01*
X156468742Y-109758507D01*
X156523113Y-109812951D01*
X156577484Y-109862260D01*
X156577564Y-109862325D01*
X156577579Y-109862338D01*
X156631739Y-109906340D01*
X156631856Y-109906435D01*
X156631971Y-109906517D01*
X156631982Y-109906526D01*
X156686075Y-109945366D01*
X156686227Y-109945475D01*
X156740598Y-109979380D01*
X156740761Y-109979466D01*
X156740764Y-109979468D01*
X156794769Y-110008044D01*
X156794776Y-110008048D01*
X156794970Y-110008150D01*
X156795175Y-110008239D01*
X156795181Y-110008242D01*
X156822155Y-110019968D01*
X156849341Y-110031786D01*
X156849561Y-110031861D01*
X156849564Y-110031862D01*
X156894340Y-110047098D01*
X156901068Y-110053007D01*
X156902118Y-110060058D01*
X156221547Y-114230246D01*
X156216833Y-114237860D01*
X156208116Y-114239909D01*
X156200502Y-114235195D01*
X156198453Y-114230246D01*
X155517882Y-110060058D01*
X155519931Y-110051341D01*
X155525660Y-110047098D01*
X155570435Y-110031862D01*
X155570438Y-110031861D01*
X155570658Y-110031786D01*
X155625029Y-110008150D01*
X155679400Y-109979380D01*
X155733771Y-109945475D01*
X155788143Y-109906435D01*
X155788260Y-109906340D01*
X155842419Y-109862338D01*
X155842434Y-109862325D01*
X155842514Y-109862260D01*
X155896885Y-109812951D01*
X155951257Y-109758507D01*
X155951355Y-109758400D01*
X156005541Y-109699023D01*
X156005554Y-109699008D01*
X156005628Y-109698927D01*
X156056493Y-109638388D01*
X156064439Y-109634258D01*
X156065451Y-109634214D01*
X156354549Y-109634214D01*
X156362822Y-109637641D01*
G37*
%TD.AperFunction*%
%TD*%
%TA.AperFunction,Conductor*%
%TO.N,/V-A6*%
G36*
X174142822Y-109637641D02*
G01*
X174143506Y-109638387D01*
X174194371Y-109698927D01*
X174194445Y-109699008D01*
X174194458Y-109699023D01*
X174248644Y-109758400D01*
X174248742Y-109758507D01*
X174303113Y-109812951D01*
X174357484Y-109862260D01*
X174357564Y-109862325D01*
X174357579Y-109862338D01*
X174411739Y-109906340D01*
X174411856Y-109906435D01*
X174411971Y-109906517D01*
X174411982Y-109906526D01*
X174466075Y-109945366D01*
X174466227Y-109945475D01*
X174520598Y-109979380D01*
X174520761Y-109979466D01*
X174520764Y-109979468D01*
X174574769Y-110008044D01*
X174574776Y-110008048D01*
X174574970Y-110008150D01*
X174575175Y-110008239D01*
X174575181Y-110008242D01*
X174602155Y-110019968D01*
X174629341Y-110031786D01*
X174629561Y-110031861D01*
X174629564Y-110031862D01*
X174674340Y-110047098D01*
X174681068Y-110053007D01*
X174682118Y-110060058D01*
X174001547Y-114230246D01*
X173996833Y-114237860D01*
X173988116Y-114239909D01*
X173980502Y-114235195D01*
X173978453Y-114230246D01*
X173297882Y-110060058D01*
X173299931Y-110051341D01*
X173305660Y-110047098D01*
X173350435Y-110031862D01*
X173350438Y-110031861D01*
X173350658Y-110031786D01*
X173405029Y-110008150D01*
X173459400Y-109979380D01*
X173513771Y-109945475D01*
X173568143Y-109906435D01*
X173568260Y-109906340D01*
X173622419Y-109862338D01*
X173622434Y-109862325D01*
X173622514Y-109862260D01*
X173676885Y-109812951D01*
X173731257Y-109758507D01*
X173731355Y-109758400D01*
X173785541Y-109699023D01*
X173785554Y-109699008D01*
X173785628Y-109698927D01*
X173836493Y-109638388D01*
X173844439Y-109634258D01*
X173845451Y-109634214D01*
X174134549Y-109634214D01*
X174142822Y-109637641D01*
G37*
%TD.AperFunction*%
%TD*%
%TA.AperFunction,Conductor*%
%TO.N,/V-A12*%
G36*
X143662822Y-109637641D02*
G01*
X143663506Y-109638387D01*
X143714371Y-109698927D01*
X143714445Y-109699008D01*
X143714458Y-109699023D01*
X143768644Y-109758400D01*
X143768742Y-109758507D01*
X143823113Y-109812951D01*
X143877484Y-109862260D01*
X143877564Y-109862325D01*
X143877579Y-109862338D01*
X143931739Y-109906340D01*
X143931856Y-109906435D01*
X143931971Y-109906517D01*
X143931982Y-109906526D01*
X143986075Y-109945366D01*
X143986227Y-109945475D01*
X144040598Y-109979380D01*
X144040761Y-109979466D01*
X144040764Y-109979468D01*
X144094769Y-110008044D01*
X144094776Y-110008048D01*
X144094970Y-110008150D01*
X144095175Y-110008239D01*
X144095181Y-110008242D01*
X144122155Y-110019968D01*
X144149341Y-110031786D01*
X144149561Y-110031861D01*
X144149564Y-110031862D01*
X144194340Y-110047098D01*
X144201068Y-110053007D01*
X144202118Y-110060058D01*
X143521547Y-114230246D01*
X143516833Y-114237860D01*
X143508116Y-114239909D01*
X143500502Y-114235195D01*
X143498453Y-114230246D01*
X142817882Y-110060058D01*
X142819931Y-110051341D01*
X142825660Y-110047098D01*
X142870435Y-110031862D01*
X142870438Y-110031861D01*
X142870658Y-110031786D01*
X142925029Y-110008150D01*
X142979400Y-109979380D01*
X143033771Y-109945475D01*
X143088143Y-109906435D01*
X143088260Y-109906340D01*
X143142419Y-109862338D01*
X143142434Y-109862325D01*
X143142514Y-109862260D01*
X143196885Y-109812951D01*
X143251257Y-109758507D01*
X143251355Y-109758400D01*
X143305541Y-109699023D01*
X143305554Y-109699008D01*
X143305628Y-109698927D01*
X143356493Y-109638388D01*
X143364439Y-109634258D01*
X143365451Y-109634214D01*
X143654549Y-109634214D01*
X143662822Y-109637641D01*
G37*
%TD.AperFunction*%
%TD*%
%TA.AperFunction,Conductor*%
%TO.N,/V-D2*%
G36*
X151282335Y-109558427D02*
G01*
X151283504Y-109559792D01*
X151334371Y-109629350D01*
X151388742Y-109698185D01*
X151443113Y-109761504D01*
X151443213Y-109761610D01*
X151497374Y-109819191D01*
X151497390Y-109819207D01*
X151497484Y-109819307D01*
X151551856Y-109871594D01*
X151551990Y-109871709D01*
X151551993Y-109871712D01*
X151606097Y-109918254D01*
X151606112Y-109918266D01*
X151606227Y-109918365D01*
X151660598Y-109959619D01*
X151714970Y-109995358D01*
X151715157Y-109995462D01*
X151715167Y-109995468D01*
X151715171Y-109995470D01*
X151769341Y-110025580D01*
X151769551Y-110025675D01*
X151769560Y-110025680D01*
X151815564Y-110046584D01*
X151821679Y-110053127D01*
X151822271Y-110059120D01*
X151141547Y-114230246D01*
X151136833Y-114237860D01*
X151128116Y-114239909D01*
X151120502Y-114235195D01*
X151118453Y-114230246D01*
X150437729Y-110059120D01*
X150439778Y-110050403D01*
X150444436Y-110046584D01*
X150490438Y-110025680D01*
X150490439Y-110025680D01*
X150490658Y-110025580D01*
X150545029Y-109995358D01*
X150545203Y-109995244D01*
X150545214Y-109995237D01*
X150575950Y-109975033D01*
X150599400Y-109959619D01*
X150653771Y-109918365D01*
X150653886Y-109918266D01*
X150653901Y-109918254D01*
X150708006Y-109871712D01*
X150708009Y-109871709D01*
X150708143Y-109871594D01*
X150762514Y-109819307D01*
X150762608Y-109819207D01*
X150762624Y-109819191D01*
X150816776Y-109761620D01*
X150816785Y-109761610D01*
X150816885Y-109761504D01*
X150871257Y-109698185D01*
X150925628Y-109629350D01*
X150976494Y-109559794D01*
X150984144Y-109555138D01*
X150985938Y-109555000D01*
X151274062Y-109555000D01*
X151282335Y-109558427D01*
G37*
%TD.AperFunction*%
%TD*%
%TA.AperFunction,Conductor*%
%TO.N,/V-A14*%
G36*
X138582822Y-109637641D02*
G01*
X138583506Y-109638387D01*
X138634371Y-109698927D01*
X138634445Y-109699008D01*
X138634458Y-109699023D01*
X138688644Y-109758400D01*
X138688742Y-109758507D01*
X138743113Y-109812951D01*
X138797484Y-109862260D01*
X138797564Y-109862325D01*
X138797579Y-109862338D01*
X138851739Y-109906340D01*
X138851856Y-109906435D01*
X138851971Y-109906517D01*
X138851982Y-109906526D01*
X138906075Y-109945366D01*
X138906227Y-109945475D01*
X138960598Y-109979380D01*
X138960761Y-109979466D01*
X138960764Y-109979468D01*
X139014769Y-110008044D01*
X139014776Y-110008048D01*
X139014970Y-110008150D01*
X139015175Y-110008239D01*
X139015181Y-110008242D01*
X139042155Y-110019968D01*
X139069341Y-110031786D01*
X139069561Y-110031861D01*
X139069564Y-110031862D01*
X139114340Y-110047098D01*
X139121068Y-110053007D01*
X139122118Y-110060058D01*
X138441547Y-114230246D01*
X138436833Y-114237860D01*
X138428116Y-114239909D01*
X138420502Y-114235195D01*
X138418453Y-114230246D01*
X137737882Y-110060058D01*
X137739931Y-110051341D01*
X137745660Y-110047098D01*
X137790435Y-110031862D01*
X137790438Y-110031861D01*
X137790658Y-110031786D01*
X137845029Y-110008150D01*
X137899400Y-109979380D01*
X137953771Y-109945475D01*
X138008143Y-109906435D01*
X138008260Y-109906340D01*
X138062419Y-109862338D01*
X138062434Y-109862325D01*
X138062514Y-109862260D01*
X138116885Y-109812951D01*
X138171257Y-109758507D01*
X138171355Y-109758400D01*
X138225541Y-109699023D01*
X138225554Y-109699008D01*
X138225628Y-109698927D01*
X138276493Y-109638388D01*
X138284439Y-109634258D01*
X138285451Y-109634214D01*
X138574549Y-109634214D01*
X138582822Y-109637641D01*
G37*
%TD.AperFunction*%
%TD*%
%TA.AperFunction,Conductor*%
%TO.N,/V-RW*%
G36*
X171663662Y-93316292D02*
G01*
X171859708Y-93512338D01*
X171863135Y-93520611D01*
X171859939Y-93528647D01*
X171838788Y-93551028D01*
X171804125Y-93587708D01*
X171756121Y-93646554D01*
X171720664Y-93699594D01*
X171694679Y-93749504D01*
X171675094Y-93798959D01*
X171658833Y-93850636D01*
X171658815Y-93850700D01*
X171642830Y-93907181D01*
X171642798Y-93907291D01*
X171624051Y-93971142D01*
X171623931Y-93971529D01*
X171620880Y-93980707D01*
X171599340Y-94045500D01*
X171599152Y-94046022D01*
X171569859Y-94121915D01*
X171563683Y-94128399D01*
X171554493Y-94128522D01*
X171199803Y-93982563D01*
X171193437Y-93976197D01*
X171047478Y-93621507D01*
X171047499Y-93612554D01*
X171054085Y-93606141D01*
X171101402Y-93587877D01*
X171129985Y-93576844D01*
X171130491Y-93576662D01*
X171204469Y-93552067D01*
X171204847Y-93551950D01*
X171268735Y-93533192D01*
X171268817Y-93533168D01*
X171325266Y-93517193D01*
X171325296Y-93517184D01*
X171325363Y-93517165D01*
X171325456Y-93517136D01*
X171325485Y-93517127D01*
X171376839Y-93500967D01*
X171376841Y-93500966D01*
X171377039Y-93500904D01*
X171377223Y-93500831D01*
X171377229Y-93500829D01*
X171399989Y-93491816D01*
X171426495Y-93481319D01*
X171476404Y-93455335D01*
X171529444Y-93419878D01*
X171588291Y-93371874D01*
X171618130Y-93343676D01*
X171647353Y-93316061D01*
X171655720Y-93312870D01*
X171663662Y-93316292D01*
G37*
%TD.AperFunction*%
%TD*%
%TA.AperFunction,Conductor*%
%TO.N,/V-A2*%
G36*
X157486529Y-80012295D02*
G01*
X158125449Y-80277346D01*
X158131778Y-80283681D01*
X158131423Y-80293401D01*
X158089428Y-80377073D01*
X158088701Y-80378323D01*
X158033645Y-80460762D01*
X158033091Y-80461519D01*
X157998914Y-80504582D01*
X157975021Y-80534687D01*
X157974789Y-80534972D01*
X157918547Y-80601302D01*
X157869334Y-80662909D01*
X157869160Y-80663186D01*
X157869156Y-80663192D01*
X157855744Y-80684578D01*
X157832204Y-80722112D01*
X157812117Y-80781345D01*
X157814031Y-80843043D01*
X157842905Y-80909638D01*
X157843424Y-80910269D01*
X157896956Y-80975368D01*
X157899564Y-80983934D01*
X157896192Y-80991072D01*
X157699801Y-81187463D01*
X157691528Y-81190890D01*
X157683294Y-81187502D01*
X157631106Y-81135799D01*
X157596089Y-81101107D01*
X157516633Y-81024057D01*
X157449192Y-80960161D01*
X157389761Y-80905036D01*
X157334335Y-80854295D01*
X157278909Y-80803555D01*
X157219479Y-80748429D01*
X157152038Y-80684534D01*
X157072638Y-80607537D01*
X157072549Y-80607450D01*
X156985446Y-80521156D01*
X156981980Y-80512899D01*
X156985395Y-80504582D01*
X157473762Y-80014840D01*
X157482031Y-80011402D01*
X157486529Y-80012295D01*
G37*
%TD.AperFunction*%
%TD*%
%TA.AperFunction,Conductor*%
%TO.N,/V-RW*%
G36*
X177692899Y-90389427D02*
G01*
X177696321Y-90397369D01*
X177698618Y-90478597D01*
X177706284Y-90554152D01*
X177718717Y-90616729D01*
X177735635Y-90670394D01*
X177735747Y-90670653D01*
X177735750Y-90670661D01*
X177756668Y-90719010D01*
X177756756Y-90719213D01*
X177781799Y-90767252D01*
X177781845Y-90767334D01*
X177810425Y-90818476D01*
X177810481Y-90818577D01*
X177842417Y-90877062D01*
X177842609Y-90877428D01*
X177877521Y-90947114D01*
X177877757Y-90947616D01*
X177910707Y-91021992D01*
X177910925Y-91030944D01*
X177904512Y-91037530D01*
X177546000Y-91187000D01*
X177176448Y-91032927D01*
X177214359Y-90947349D01*
X177249406Y-90877396D01*
X177249569Y-90877085D01*
X177281517Y-90818577D01*
X177281573Y-90818476D01*
X177310154Y-90767334D01*
X177310200Y-90767252D01*
X177335243Y-90719213D01*
X177335331Y-90719010D01*
X177356249Y-90670661D01*
X177356252Y-90670653D01*
X177356364Y-90670394D01*
X177373282Y-90616729D01*
X177385715Y-90554152D01*
X177393381Y-90478597D01*
X177395678Y-90397368D01*
X177399337Y-90389196D01*
X177407373Y-90386000D01*
X177684626Y-90386000D01*
X177692899Y-90389427D01*
G37*
%TD.AperFunction*%
%TD*%
%TA.AperFunction,Conductor*%
%TO.N,/V-D0*%
G36*
X153054564Y-77202574D02*
G01*
X153061126Y-77209541D01*
X153104812Y-77335394D01*
X153105199Y-77336779D01*
X153130882Y-77456621D01*
X153131084Y-77457908D01*
X153141735Y-77564353D01*
X153141790Y-77565235D01*
X153144127Y-77661980D01*
X153144130Y-77662139D01*
X153144871Y-77752484D01*
X153150805Y-77839425D01*
X153168735Y-77926290D01*
X153168937Y-77926786D01*
X153205259Y-78015978D01*
X153205262Y-78015983D01*
X153205462Y-78016475D01*
X153267787Y-78113374D01*
X153345252Y-78200882D01*
X153355216Y-78212138D01*
X153358133Y-78220604D01*
X153354728Y-78228166D01*
X153158166Y-78424728D01*
X153149893Y-78428155D01*
X153142138Y-78425216D01*
X153135145Y-78419026D01*
X153043374Y-78337787D01*
X152946475Y-78275462D01*
X152945983Y-78275262D01*
X152945978Y-78275259D01*
X152856786Y-78238937D01*
X152856290Y-78238735D01*
X152805087Y-78228166D01*
X152769823Y-78220887D01*
X152769821Y-78220887D01*
X152769425Y-78220805D01*
X152682484Y-78214871D01*
X152592139Y-78214130D01*
X152592007Y-78214127D01*
X152495224Y-78211789D01*
X152494364Y-78211736D01*
X152387902Y-78201083D01*
X152386627Y-78200883D01*
X152320350Y-78186680D01*
X152266779Y-78175199D01*
X152265394Y-78174812D01*
X152139541Y-78131126D01*
X152132849Y-78125176D01*
X152132563Y-78115610D01*
X152360062Y-77564353D01*
X152397438Y-77473788D01*
X152403788Y-77467438D01*
X153028701Y-77209541D01*
X153045610Y-77202563D01*
X153054564Y-77202574D01*
G37*
%TD.AperFunction*%
%TD*%
%TA.AperFunction,Conductor*%
%TO.N,/V-RW*%
G36*
X163214564Y-87362574D02*
G01*
X163221126Y-87369541D01*
X163264812Y-87495394D01*
X163265199Y-87496779D01*
X163290882Y-87616621D01*
X163291084Y-87617908D01*
X163301735Y-87724353D01*
X163301790Y-87725235D01*
X163304127Y-87821980D01*
X163304130Y-87822139D01*
X163304871Y-87912484D01*
X163310805Y-87999425D01*
X163328735Y-88086290D01*
X163328937Y-88086786D01*
X163365259Y-88175978D01*
X163365262Y-88175983D01*
X163365462Y-88176475D01*
X163427787Y-88273374D01*
X163505252Y-88360882D01*
X163515216Y-88372138D01*
X163518133Y-88380604D01*
X163514728Y-88388166D01*
X163318166Y-88584728D01*
X163309893Y-88588155D01*
X163302138Y-88585216D01*
X163295145Y-88579026D01*
X163203374Y-88497787D01*
X163106475Y-88435462D01*
X163105983Y-88435262D01*
X163105978Y-88435259D01*
X163016786Y-88398937D01*
X163016290Y-88398735D01*
X162965087Y-88388166D01*
X162929823Y-88380887D01*
X162929821Y-88380887D01*
X162929425Y-88380805D01*
X162842484Y-88374871D01*
X162752139Y-88374130D01*
X162752007Y-88374127D01*
X162655224Y-88371789D01*
X162654364Y-88371736D01*
X162547902Y-88361083D01*
X162546627Y-88360883D01*
X162480350Y-88346680D01*
X162426779Y-88335199D01*
X162425394Y-88334812D01*
X162299541Y-88291126D01*
X162292849Y-88285176D01*
X162292563Y-88275610D01*
X162520062Y-87724353D01*
X162557438Y-87633788D01*
X162563788Y-87627438D01*
X163188701Y-87369541D01*
X163205610Y-87362563D01*
X163214564Y-87362574D01*
G37*
%TD.AperFunction*%
%TD*%
%TA.AperFunction,Conductor*%
%TO.N,/V-A4*%
G36*
X169062822Y-109637641D02*
G01*
X169063506Y-109638387D01*
X169114371Y-109698927D01*
X169114445Y-109699008D01*
X169114458Y-109699023D01*
X169168644Y-109758400D01*
X169168742Y-109758507D01*
X169223113Y-109812951D01*
X169277484Y-109862260D01*
X169277564Y-109862325D01*
X169277579Y-109862338D01*
X169331739Y-109906340D01*
X169331856Y-109906435D01*
X169331971Y-109906517D01*
X169331982Y-109906526D01*
X169386075Y-109945366D01*
X169386227Y-109945475D01*
X169440598Y-109979380D01*
X169440761Y-109979466D01*
X169440764Y-109979468D01*
X169494769Y-110008044D01*
X169494776Y-110008048D01*
X169494970Y-110008150D01*
X169495175Y-110008239D01*
X169495181Y-110008242D01*
X169522155Y-110019968D01*
X169549341Y-110031786D01*
X169549561Y-110031861D01*
X169549564Y-110031862D01*
X169594340Y-110047098D01*
X169601068Y-110053007D01*
X169602118Y-110060058D01*
X168921547Y-114230246D01*
X168916833Y-114237860D01*
X168908116Y-114239909D01*
X168900502Y-114235195D01*
X168898453Y-114230246D01*
X168217882Y-110060058D01*
X168219931Y-110051341D01*
X168225660Y-110047098D01*
X168270435Y-110031862D01*
X168270438Y-110031861D01*
X168270658Y-110031786D01*
X168325029Y-110008150D01*
X168379400Y-109979380D01*
X168433771Y-109945475D01*
X168488143Y-109906435D01*
X168488260Y-109906340D01*
X168542419Y-109862338D01*
X168542434Y-109862325D01*
X168542514Y-109862260D01*
X168596885Y-109812951D01*
X168651257Y-109758507D01*
X168651355Y-109758400D01*
X168705541Y-109699023D01*
X168705554Y-109699008D01*
X168705628Y-109698927D01*
X168756493Y-109638388D01*
X168764439Y-109634258D01*
X168765451Y-109634214D01*
X169054549Y-109634214D01*
X169062822Y-109637641D01*
G37*
%TD.AperFunction*%
%TD*%
%TA.AperFunction,Conductor*%
%TO.N,/V-A0*%
G36*
X154940444Y-80012426D02*
G01*
X154942994Y-80016239D01*
X155115987Y-80434516D01*
X155207391Y-80655522D01*
X155207386Y-80664477D01*
X155200336Y-80671074D01*
X155114563Y-80700161D01*
X155113308Y-80700510D01*
X155019702Y-80721007D01*
X155018879Y-80721156D01*
X154997884Y-80724194D01*
X154929984Y-80734018D01*
X154929710Y-80734055D01*
X154847224Y-80744005D01*
X154847217Y-80744006D01*
X154847101Y-80744020D01*
X154795836Y-80752167D01*
X154773089Y-80755781D01*
X154773085Y-80755782D01*
X154772738Y-80755837D01*
X154708321Y-80774300D01*
X154685049Y-80787468D01*
X154656325Y-80803720D01*
X154656323Y-80803722D01*
X154655446Y-80804218D01*
X154615704Y-80850399D01*
X154590691Y-80917650D01*
X154590619Y-80918423D01*
X154582990Y-81000167D01*
X154578810Y-81008086D01*
X154571341Y-81010780D01*
X154293572Y-81010780D01*
X154285299Y-81007353D01*
X154281873Y-80999208D01*
X154280512Y-80874671D01*
X154280511Y-80874643D01*
X154280510Y-80874521D01*
X154279676Y-80851375D01*
X154276472Y-80762511D01*
X154276470Y-80762476D01*
X154276467Y-80762382D01*
X154276059Y-80755935D01*
X154270511Y-80668375D01*
X154270504Y-80668289D01*
X154263273Y-80586347D01*
X154255400Y-80510389D01*
X154247535Y-80434516D01*
X154247518Y-80434339D01*
X154240304Y-80352596D01*
X154240282Y-80352307D01*
X154234340Y-80258525D01*
X154234325Y-80258207D01*
X154230294Y-80146409D01*
X154230287Y-80146115D01*
X154228929Y-80021811D01*
X154232265Y-80013501D01*
X154240611Y-80009983D01*
X154932166Y-80009011D01*
X154940444Y-80012426D01*
G37*
%TD.AperFunction*%
%TD*%
%TA.AperFunction,Conductor*%
%TO.N,/V-RW*%
G36*
X164738899Y-91913427D02*
G01*
X164742321Y-91921369D01*
X164744618Y-92002597D01*
X164752284Y-92078152D01*
X164764717Y-92140729D01*
X164781635Y-92194394D01*
X164781747Y-92194653D01*
X164781750Y-92194661D01*
X164802668Y-92243010D01*
X164802756Y-92243213D01*
X164827799Y-92291252D01*
X164827845Y-92291334D01*
X164856425Y-92342476D01*
X164856481Y-92342577D01*
X164888417Y-92401062D01*
X164888609Y-92401428D01*
X164923521Y-92471114D01*
X164923757Y-92471616D01*
X164956707Y-92545992D01*
X164956925Y-92554944D01*
X164950512Y-92561530D01*
X164596502Y-92709123D01*
X164587498Y-92709123D01*
X164233486Y-92561529D01*
X164227169Y-92555183D01*
X164227292Y-92545992D01*
X164260241Y-92471616D01*
X164260477Y-92471114D01*
X164295390Y-92401428D01*
X164295582Y-92401062D01*
X164327517Y-92342577D01*
X164327573Y-92342476D01*
X164356154Y-92291334D01*
X164356200Y-92291252D01*
X164381243Y-92243213D01*
X164381331Y-92243010D01*
X164402249Y-92194661D01*
X164402252Y-92194653D01*
X164402364Y-92194394D01*
X164419282Y-92140729D01*
X164431715Y-92078152D01*
X164439381Y-92002597D01*
X164441678Y-91921368D01*
X164445337Y-91913196D01*
X164453373Y-91910000D01*
X164730626Y-91910000D01*
X164738899Y-91913427D01*
G37*
%TD.AperFunction*%
%TD*%
%TA.AperFunction,Conductor*%
%TO.N,/V-A12*%
G36*
X144075121Y-108375984D02*
G01*
X144268197Y-108455437D01*
X144274563Y-108461803D01*
X144342992Y-108628090D01*
X144420447Y-108816312D01*
X144420426Y-108825266D01*
X144413663Y-108831746D01*
X144354018Y-108853669D01*
X144353093Y-108853966D01*
X144292103Y-108870789D01*
X144291286Y-108870982D01*
X144237782Y-108881672D01*
X144237309Y-108881757D01*
X144213941Y-108885405D01*
X144189165Y-108889273D01*
X144189156Y-108889275D01*
X144189102Y-108889283D01*
X144144649Y-108896532D01*
X144144646Y-108896533D01*
X144144435Y-108896567D01*
X144101573Y-108906554D01*
X144058557Y-108922227D01*
X144013424Y-108946566D01*
X143964212Y-108982554D01*
X143963966Y-108982779D01*
X143963964Y-108982781D01*
X143917217Y-109025607D01*
X143908802Y-109028669D01*
X143901041Y-109025253D01*
X143704747Y-108828959D01*
X143701320Y-108820686D01*
X143704393Y-108812783D01*
X143747218Y-108766035D01*
X143747220Y-108766033D01*
X143747445Y-108765787D01*
X143783433Y-108716575D01*
X143807772Y-108671441D01*
X143823444Y-108628425D01*
X143833432Y-108585564D01*
X143840716Y-108540896D01*
X143848242Y-108492689D01*
X143848328Y-108492209D01*
X143859015Y-108438714D01*
X143859209Y-108437895D01*
X143876032Y-108376910D01*
X143876329Y-108375984D01*
X143898254Y-108316336D01*
X143904325Y-108309754D01*
X143913688Y-108309553D01*
X144075121Y-108375984D01*
G37*
%TD.AperFunction*%
%TD*%
%TA.AperFunction,Conductor*%
%TO.N,/V-A3*%
G36*
X158134564Y-77202574D02*
G01*
X158141126Y-77209541D01*
X158184812Y-77335394D01*
X158185199Y-77336779D01*
X158210882Y-77456621D01*
X158211084Y-77457908D01*
X158221735Y-77564353D01*
X158221790Y-77565235D01*
X158224127Y-77661980D01*
X158224130Y-77662139D01*
X158224871Y-77752484D01*
X158230805Y-77839425D01*
X158248735Y-77926290D01*
X158248937Y-77926786D01*
X158285259Y-78015978D01*
X158285262Y-78015983D01*
X158285462Y-78016475D01*
X158347787Y-78113374D01*
X158425252Y-78200882D01*
X158435216Y-78212138D01*
X158438133Y-78220604D01*
X158434728Y-78228166D01*
X158238166Y-78424728D01*
X158229893Y-78428155D01*
X158222138Y-78425216D01*
X158215145Y-78419026D01*
X158123374Y-78337787D01*
X158026475Y-78275462D01*
X158025983Y-78275262D01*
X158025978Y-78275259D01*
X157936786Y-78238937D01*
X157936290Y-78238735D01*
X157885087Y-78228166D01*
X157849823Y-78220887D01*
X157849821Y-78220887D01*
X157849425Y-78220805D01*
X157762484Y-78214871D01*
X157672139Y-78214130D01*
X157672007Y-78214127D01*
X157575224Y-78211789D01*
X157574364Y-78211736D01*
X157467902Y-78201083D01*
X157466627Y-78200883D01*
X157400350Y-78186680D01*
X157346779Y-78175199D01*
X157345394Y-78174812D01*
X157219541Y-78131126D01*
X157212849Y-78125176D01*
X157212563Y-78115610D01*
X157440062Y-77564353D01*
X157477438Y-77473788D01*
X157483788Y-77467438D01*
X158108701Y-77209541D01*
X158125610Y-77202563D01*
X158134564Y-77202574D01*
G37*
%TD.AperFunction*%
%TD*%
%TA.AperFunction,Conductor*%
%TO.N,/V-RW*%
G36*
X177547000Y-91186000D02*
G01*
X177546706Y-91186706D01*
X177408685Y-91517757D01*
X177397530Y-91544512D01*
X177391183Y-91550830D01*
X177381992Y-91550707D01*
X177307616Y-91517757D01*
X177307114Y-91517521D01*
X177237428Y-91482609D01*
X177237062Y-91482417D01*
X177178612Y-91450500D01*
X177178511Y-91450444D01*
X177127334Y-91421845D01*
X177127252Y-91421799D01*
X177079213Y-91396756D01*
X177079010Y-91396668D01*
X177030661Y-91375750D01*
X177030653Y-91375747D01*
X177030394Y-91375635D01*
X176976729Y-91358717D01*
X176976431Y-91358658D01*
X176976428Y-91358657D01*
X176914425Y-91346338D01*
X176914420Y-91346337D01*
X176914152Y-91346284D01*
X176913878Y-91346256D01*
X176913870Y-91346255D01*
X176838826Y-91338641D01*
X176838820Y-91338641D01*
X176838597Y-91338618D01*
X176838377Y-91338612D01*
X176838365Y-91338611D01*
X176757369Y-91336321D01*
X176749196Y-91332662D01*
X176746000Y-91324626D01*
X176746000Y-91047373D01*
X176749427Y-91039100D01*
X176757368Y-91035678D01*
X176797992Y-91034529D01*
X176838365Y-91033388D01*
X176838377Y-91033387D01*
X176838597Y-91033381D01*
X176838820Y-91033358D01*
X176838826Y-91033358D01*
X176913870Y-91025744D01*
X176913878Y-91025743D01*
X176914152Y-91025715D01*
X176914420Y-91025662D01*
X176914425Y-91025661D01*
X176976428Y-91013342D01*
X176976431Y-91013341D01*
X176976729Y-91013282D01*
X177030394Y-90996364D01*
X177030653Y-90996252D01*
X177030661Y-90996249D01*
X177079010Y-90975331D01*
X177079014Y-90975329D01*
X177079213Y-90975243D01*
X177127252Y-90950200D01*
X177178511Y-90921554D01*
X177178612Y-90921498D01*
X177195222Y-90912428D01*
X177237098Y-90889562D01*
X177237396Y-90889406D01*
X177307349Y-90854359D01*
X177392927Y-90816448D01*
X177547000Y-91186000D01*
G37*
%TD.AperFunction*%
%TD*%
%TA.AperFunction,Conductor*%
%TO.N,/PB6*%
G36*
X136042822Y-109637641D02*
G01*
X136043506Y-109638387D01*
X136094371Y-109698927D01*
X136094445Y-109699008D01*
X136094458Y-109699023D01*
X136148644Y-109758400D01*
X136148742Y-109758507D01*
X136203113Y-109812951D01*
X136257484Y-109862260D01*
X136257564Y-109862325D01*
X136257579Y-109862338D01*
X136311739Y-109906340D01*
X136311856Y-109906435D01*
X136311971Y-109906517D01*
X136311982Y-109906526D01*
X136366075Y-109945366D01*
X136366227Y-109945475D01*
X136420598Y-109979380D01*
X136420761Y-109979466D01*
X136420764Y-109979468D01*
X136474769Y-110008044D01*
X136474776Y-110008048D01*
X136474970Y-110008150D01*
X136475175Y-110008239D01*
X136475181Y-110008242D01*
X136502155Y-110019968D01*
X136529341Y-110031786D01*
X136529561Y-110031861D01*
X136529564Y-110031862D01*
X136574340Y-110047098D01*
X136581068Y-110053007D01*
X136582118Y-110060058D01*
X135901547Y-114230246D01*
X135896833Y-114237860D01*
X135888116Y-114239909D01*
X135880502Y-114235195D01*
X135878453Y-114230246D01*
X135197882Y-110060058D01*
X135199931Y-110051341D01*
X135205660Y-110047098D01*
X135250435Y-110031862D01*
X135250438Y-110031861D01*
X135250658Y-110031786D01*
X135305029Y-110008150D01*
X135359400Y-109979380D01*
X135413771Y-109945475D01*
X135468143Y-109906435D01*
X135468260Y-109906340D01*
X135522419Y-109862338D01*
X135522434Y-109862325D01*
X135522514Y-109862260D01*
X135576885Y-109812951D01*
X135631257Y-109758507D01*
X135631355Y-109758400D01*
X135685541Y-109699023D01*
X135685554Y-109699008D01*
X135685628Y-109698927D01*
X135736493Y-109638388D01*
X135744439Y-109634258D01*
X135745451Y-109634214D01*
X136034549Y-109634214D01*
X136042822Y-109637641D01*
G37*
%TD.AperFunction*%
%TD*%
%TA.AperFunction,Conductor*%
%TO.N,/V-A14*%
G36*
X173755899Y-87833963D02*
G01*
X173759321Y-87841905D01*
X173761618Y-87923133D01*
X173769284Y-87998688D01*
X173781717Y-88061265D01*
X173798635Y-88114930D01*
X173798747Y-88115189D01*
X173798750Y-88115197D01*
X173819668Y-88163546D01*
X173819756Y-88163749D01*
X173844799Y-88211788D01*
X173844845Y-88211870D01*
X173873425Y-88263012D01*
X173873481Y-88263113D01*
X173905417Y-88321598D01*
X173905609Y-88321964D01*
X173940521Y-88391650D01*
X173940757Y-88392152D01*
X173973707Y-88466528D01*
X173973925Y-88475480D01*
X173967512Y-88482066D01*
X173613502Y-88629659D01*
X173604498Y-88629659D01*
X173250486Y-88482065D01*
X173244169Y-88475719D01*
X173244292Y-88466528D01*
X173277241Y-88392152D01*
X173277477Y-88391650D01*
X173312390Y-88321964D01*
X173312582Y-88321598D01*
X173344517Y-88263113D01*
X173344573Y-88263012D01*
X173373154Y-88211870D01*
X173373200Y-88211788D01*
X173398243Y-88163749D01*
X173398331Y-88163546D01*
X173419249Y-88115197D01*
X173419252Y-88115189D01*
X173419364Y-88114930D01*
X173436282Y-88061265D01*
X173448715Y-87998688D01*
X173456381Y-87923133D01*
X173458678Y-87841904D01*
X173462337Y-87833732D01*
X173470373Y-87830536D01*
X173747626Y-87830536D01*
X173755899Y-87833963D01*
G37*
%TD.AperFunction*%
%TD*%
%TA.AperFunction,Conductor*%
%TO.N,/V-A2*%
G36*
X163982335Y-109558427D02*
G01*
X163983504Y-109559792D01*
X164034371Y-109629350D01*
X164088742Y-109698185D01*
X164143113Y-109761504D01*
X164143213Y-109761610D01*
X164197374Y-109819191D01*
X164197390Y-109819207D01*
X164197484Y-109819307D01*
X164251856Y-109871594D01*
X164251990Y-109871709D01*
X164251993Y-109871712D01*
X164306097Y-109918254D01*
X164306112Y-109918266D01*
X164306227Y-109918365D01*
X164360598Y-109959619D01*
X164414970Y-109995358D01*
X164415157Y-109995462D01*
X164415167Y-109995468D01*
X164415171Y-109995470D01*
X164469341Y-110025580D01*
X164469551Y-110025675D01*
X164469560Y-110025680D01*
X164515564Y-110046584D01*
X164521679Y-110053127D01*
X164522271Y-110059120D01*
X163841547Y-114230246D01*
X163836833Y-114237860D01*
X163828116Y-114239909D01*
X163820502Y-114235195D01*
X163818453Y-114230246D01*
X163137729Y-110059120D01*
X163139778Y-110050403D01*
X163144436Y-110046584D01*
X163190438Y-110025680D01*
X163190439Y-110025680D01*
X163190658Y-110025580D01*
X163245029Y-109995358D01*
X163245203Y-109995244D01*
X163245214Y-109995237D01*
X163275950Y-109975033D01*
X163299400Y-109959619D01*
X163353771Y-109918365D01*
X163353886Y-109918266D01*
X163353901Y-109918254D01*
X163408006Y-109871712D01*
X163408009Y-109871709D01*
X163408143Y-109871594D01*
X163462514Y-109819307D01*
X163462608Y-109819207D01*
X163462624Y-109819191D01*
X163516776Y-109761620D01*
X163516785Y-109761610D01*
X163516885Y-109761504D01*
X163571257Y-109698185D01*
X163625628Y-109629350D01*
X163676494Y-109559794D01*
X163684144Y-109555138D01*
X163685938Y-109555000D01*
X163974062Y-109555000D01*
X163982335Y-109558427D01*
G37*
%TD.AperFunction*%
%TD*%
%TA.AperFunction,Conductor*%
%TO.N,/V-A4*%
G36*
X160674564Y-79742574D02*
G01*
X160681126Y-79749541D01*
X160724812Y-79875394D01*
X160725199Y-79876779D01*
X160750882Y-79996621D01*
X160751084Y-79997908D01*
X160761735Y-80104353D01*
X160761790Y-80105235D01*
X160764127Y-80201980D01*
X160764130Y-80202139D01*
X160764871Y-80292484D01*
X160770805Y-80379425D01*
X160788735Y-80466290D01*
X160788937Y-80466786D01*
X160825259Y-80555978D01*
X160825262Y-80555983D01*
X160825462Y-80556475D01*
X160887787Y-80653374D01*
X160965252Y-80740882D01*
X160975216Y-80752138D01*
X160978133Y-80760604D01*
X160974728Y-80768166D01*
X160778166Y-80964728D01*
X160769893Y-80968155D01*
X160762138Y-80965216D01*
X160755145Y-80959026D01*
X160663374Y-80877787D01*
X160566475Y-80815462D01*
X160565983Y-80815262D01*
X160565978Y-80815259D01*
X160476786Y-80778937D01*
X160476290Y-80778735D01*
X160425087Y-80768166D01*
X160389823Y-80760887D01*
X160389821Y-80760887D01*
X160389425Y-80760805D01*
X160302484Y-80754871D01*
X160212139Y-80754130D01*
X160212007Y-80754127D01*
X160115224Y-80751789D01*
X160114364Y-80751736D01*
X160007902Y-80741083D01*
X160006627Y-80740883D01*
X159940350Y-80726680D01*
X159886779Y-80715199D01*
X159885394Y-80714812D01*
X159759541Y-80671126D01*
X159752849Y-80665176D01*
X159752563Y-80655610D01*
X159980062Y-80104353D01*
X160017438Y-80013788D01*
X160023788Y-80007438D01*
X160648701Y-79749541D01*
X160665610Y-79742563D01*
X160674564Y-79742574D01*
G37*
%TD.AperFunction*%
%TD*%
%TA.AperFunction,Conductor*%
%TO.N,/V-D2*%
G36*
X151657862Y-79054784D02*
G01*
X151756625Y-79142212D01*
X151853524Y-79204537D01*
X151854016Y-79204737D01*
X151854021Y-79204740D01*
X151941492Y-79240361D01*
X151943708Y-79241263D01*
X151944236Y-79241372D01*
X152030176Y-79259111D01*
X152030178Y-79259111D01*
X152030574Y-79259193D01*
X152117515Y-79265128D01*
X152207859Y-79265868D01*
X152207991Y-79265871D01*
X152304775Y-79268209D01*
X152305635Y-79268262D01*
X152412097Y-79278915D01*
X152413372Y-79279115D01*
X152479497Y-79293286D01*
X152533220Y-79304800D01*
X152534605Y-79305187D01*
X152660459Y-79348874D01*
X152667151Y-79354824D01*
X152667437Y-79364390D01*
X152553458Y-79640574D01*
X152402562Y-80006212D01*
X152396212Y-80012562D01*
X152079614Y-80143220D01*
X151754390Y-80277437D01*
X151745436Y-80277426D01*
X151738874Y-80270459D01*
X151695187Y-80144605D01*
X151694800Y-80143220D01*
X151669116Y-80023378D01*
X151668914Y-80022091D01*
X151658263Y-79915646D01*
X151658208Y-79914764D01*
X151655871Y-79818018D01*
X151655868Y-79817831D01*
X151655129Y-79727668D01*
X151655128Y-79727515D01*
X151649193Y-79640574D01*
X151631263Y-79553708D01*
X151630361Y-79551492D01*
X151594740Y-79464021D01*
X151594737Y-79464016D01*
X151594537Y-79463524D01*
X151532212Y-79366625D01*
X151444784Y-79267862D01*
X151441867Y-79259396D01*
X151445272Y-79251834D01*
X151641834Y-79055272D01*
X151650107Y-79051845D01*
X151657862Y-79054784D01*
G37*
%TD.AperFunction*%
%TD*%
%TA.AperFunction,Conductor*%
%TO.N,/V-A1*%
G36*
X155594564Y-77202574D02*
G01*
X155601126Y-77209541D01*
X155644812Y-77335394D01*
X155645199Y-77336779D01*
X155670882Y-77456621D01*
X155671084Y-77457908D01*
X155681735Y-77564353D01*
X155681790Y-77565235D01*
X155684127Y-77661980D01*
X155684130Y-77662139D01*
X155684871Y-77752484D01*
X155690805Y-77839425D01*
X155708735Y-77926290D01*
X155708937Y-77926786D01*
X155745259Y-78015978D01*
X155745262Y-78015983D01*
X155745462Y-78016475D01*
X155807787Y-78113374D01*
X155885252Y-78200882D01*
X155895216Y-78212138D01*
X155898133Y-78220604D01*
X155894728Y-78228166D01*
X155698166Y-78424728D01*
X155689893Y-78428155D01*
X155682138Y-78425216D01*
X155675145Y-78419026D01*
X155583374Y-78337787D01*
X155486475Y-78275462D01*
X155485983Y-78275262D01*
X155485978Y-78275259D01*
X155396786Y-78238937D01*
X155396290Y-78238735D01*
X155345087Y-78228166D01*
X155309823Y-78220887D01*
X155309821Y-78220887D01*
X155309425Y-78220805D01*
X155222484Y-78214871D01*
X155132139Y-78214130D01*
X155132007Y-78214127D01*
X155035224Y-78211789D01*
X155034364Y-78211736D01*
X154927902Y-78201083D01*
X154926627Y-78200883D01*
X154860350Y-78186680D01*
X154806779Y-78175199D01*
X154805394Y-78174812D01*
X154679541Y-78131126D01*
X154672849Y-78125176D01*
X154672563Y-78115610D01*
X154900062Y-77564353D01*
X154937438Y-77473788D01*
X154943788Y-77467438D01*
X155568701Y-77209541D01*
X155585610Y-77202563D01*
X155594564Y-77202574D01*
G37*
%TD.AperFunction*%
%TD*%
%TA.AperFunction,Conductor*%
%TO.N,/V-D1*%
G36*
X153822335Y-109558427D02*
G01*
X153823504Y-109559792D01*
X153874371Y-109629350D01*
X153928742Y-109698185D01*
X153983113Y-109761504D01*
X153983213Y-109761610D01*
X154037374Y-109819191D01*
X154037390Y-109819207D01*
X154037484Y-109819307D01*
X154091856Y-109871594D01*
X154091990Y-109871709D01*
X154091993Y-109871712D01*
X154146097Y-109918254D01*
X154146112Y-109918266D01*
X154146227Y-109918365D01*
X154200598Y-109959619D01*
X154254970Y-109995358D01*
X154255157Y-109995462D01*
X154255167Y-109995468D01*
X154255171Y-109995470D01*
X154309341Y-110025580D01*
X154309551Y-110025675D01*
X154309560Y-110025680D01*
X154355564Y-110046584D01*
X154361679Y-110053127D01*
X154362271Y-110059120D01*
X153681547Y-114230246D01*
X153676833Y-114237860D01*
X153668116Y-114239909D01*
X153660502Y-114235195D01*
X153658453Y-114230246D01*
X152977729Y-110059120D01*
X152979778Y-110050403D01*
X152984436Y-110046584D01*
X153030438Y-110025680D01*
X153030439Y-110025680D01*
X153030658Y-110025580D01*
X153085029Y-109995358D01*
X153085203Y-109995244D01*
X153085214Y-109995237D01*
X153115950Y-109975033D01*
X153139400Y-109959619D01*
X153193771Y-109918365D01*
X153193886Y-109918266D01*
X153193901Y-109918254D01*
X153248006Y-109871712D01*
X153248009Y-109871709D01*
X153248143Y-109871594D01*
X153302514Y-109819307D01*
X153302608Y-109819207D01*
X153302624Y-109819191D01*
X153356776Y-109761620D01*
X153356785Y-109761610D01*
X153356885Y-109761504D01*
X153411257Y-109698185D01*
X153465628Y-109629350D01*
X153516494Y-109559794D01*
X153524144Y-109555138D01*
X153525938Y-109555000D01*
X153814062Y-109555000D01*
X153822335Y-109558427D01*
G37*
%TD.AperFunction*%
%TD*%
M02*
