%TF.GenerationSoftware,KiCad,Pcbnew,(6.99.0-1875-gfe1a5267a2)*%
%TF.CreationDate,2022-07-11T17:03:01+02:00*%
%TF.ProjectId,Vectorblade_PLCC32_THT_Kicad6,56656374-6f72-4626-9c61-64655f504c43,rev?*%
%TF.SameCoordinates,Original*%
%TF.FileFunction,Legend,Bot*%
%TF.FilePolarity,Positive*%
%FSLAX46Y46*%
G04 Gerber Fmt 4.6, Leading zero omitted, Abs format (unit mm)*
G04 Created by KiCad (PCBNEW (6.99.0-1875-gfe1a5267a2)) date 2022-07-11 17:03:01*
%MOMM*%
%LPD*%
G01*
G04 APERTURE LIST*
%ADD10C,1.000000*%
%ADD11C,0.400000*%
G04 APERTURE END LIST*
D10*
X159766000Y-83820000D02*
G75*
G03*
X159766000Y-83820000I-2286000J0D01*
G01*
D11*
X161622856Y-106367142D02*
X161337142Y-106462380D01*
X161337142Y-106462380D02*
X161241904Y-106557619D01*
X161241904Y-106557619D02*
X161146666Y-106748095D01*
X161146666Y-106748095D02*
X161146666Y-107033809D01*
X161146666Y-107033809D02*
X161241904Y-107224285D01*
X161241904Y-107224285D02*
X161337142Y-107319523D01*
X161337142Y-107319523D02*
X161527618Y-107414761D01*
X161527618Y-107414761D02*
X162289523Y-107414761D01*
X162289523Y-107414761D02*
X162289523Y-105414761D01*
X162289523Y-105414761D02*
X161622856Y-105414761D01*
X161622856Y-105414761D02*
X161432380Y-105510000D01*
X161432380Y-105510000D02*
X161337142Y-105605238D01*
X161337142Y-105605238D02*
X161241904Y-105795714D01*
X161241904Y-105795714D02*
X161241904Y-105986190D01*
X161241904Y-105986190D02*
X161337142Y-106176666D01*
X161337142Y-106176666D02*
X161432380Y-106271904D01*
X161432380Y-106271904D02*
X161622856Y-106367142D01*
X161622856Y-106367142D02*
X162289523Y-106367142D01*
X160003809Y-107414761D02*
X160194285Y-107319523D01*
X160194285Y-107319523D02*
X160289523Y-107224285D01*
X160289523Y-107224285D02*
X160384761Y-107033809D01*
X160384761Y-107033809D02*
X160384761Y-106462380D01*
X160384761Y-106462380D02*
X160289523Y-106271904D01*
X160289523Y-106271904D02*
X160194285Y-106176666D01*
X160194285Y-106176666D02*
X160003809Y-106081428D01*
X160003809Y-106081428D02*
X159718094Y-106081428D01*
X159718094Y-106081428D02*
X159527618Y-106176666D01*
X159527618Y-106176666D02*
X159432380Y-106271904D01*
X159432380Y-106271904D02*
X159337142Y-106462380D01*
X159337142Y-106462380D02*
X159337142Y-107033809D01*
X159337142Y-107033809D02*
X159432380Y-107224285D01*
X159432380Y-107224285D02*
X159527618Y-107319523D01*
X159527618Y-107319523D02*
X159718094Y-107414761D01*
X159718094Y-107414761D02*
X160003809Y-107414761D01*
X158765713Y-106081428D02*
X158003809Y-106081428D01*
X158479999Y-105414761D02*
X158479999Y-107129047D01*
X158479999Y-107129047D02*
X158384761Y-107319523D01*
X158384761Y-107319523D02*
X158194285Y-107414761D01*
X158194285Y-107414761D02*
X158003809Y-107414761D01*
X157622856Y-106081428D02*
X156860952Y-106081428D01*
X157337142Y-105414761D02*
X157337142Y-107129047D01*
X157337142Y-107129047D02*
X157241904Y-107319523D01*
X157241904Y-107319523D02*
X157051428Y-107414761D01*
X157051428Y-107414761D02*
X156860952Y-107414761D01*
X155908571Y-107414761D02*
X156099047Y-107319523D01*
X156099047Y-107319523D02*
X156194285Y-107224285D01*
X156194285Y-107224285D02*
X156289523Y-107033809D01*
X156289523Y-107033809D02*
X156289523Y-106462380D01*
X156289523Y-106462380D02*
X156194285Y-106271904D01*
X156194285Y-106271904D02*
X156099047Y-106176666D01*
X156099047Y-106176666D02*
X155908571Y-106081428D01*
X155908571Y-106081428D02*
X155622856Y-106081428D01*
X155622856Y-106081428D02*
X155432380Y-106176666D01*
X155432380Y-106176666D02*
X155337142Y-106271904D01*
X155337142Y-106271904D02*
X155241904Y-106462380D01*
X155241904Y-106462380D02*
X155241904Y-107033809D01*
X155241904Y-107033809D02*
X155337142Y-107224285D01*
X155337142Y-107224285D02*
X155432380Y-107319523D01*
X155432380Y-107319523D02*
X155622856Y-107414761D01*
X155622856Y-107414761D02*
X155908571Y-107414761D01*
X154384761Y-107414761D02*
X154384761Y-106081428D01*
X154384761Y-106271904D02*
X154289523Y-106176666D01*
X154289523Y-106176666D02*
X154099047Y-106081428D01*
X154099047Y-106081428D02*
X153813332Y-106081428D01*
X153813332Y-106081428D02*
X153622856Y-106176666D01*
X153622856Y-106176666D02*
X153527618Y-106367142D01*
X153527618Y-106367142D02*
X153527618Y-107414761D01*
X153527618Y-106367142D02*
X153432380Y-106176666D01*
X153432380Y-106176666D02*
X153241904Y-106081428D01*
X153241904Y-106081428D02*
X152956190Y-106081428D01*
X152956190Y-106081428D02*
X152765713Y-106176666D01*
X152765713Y-106176666D02*
X152670475Y-106367142D01*
X152670475Y-106367142D02*
X152670475Y-107414761D01*
M02*
