%TF.GenerationSoftware,KiCad,Pcbnew,(6.99.0-4380-g9b6f7d5db7)*%
%TF.CreationDate,2022-11-27T23:54:04+01:00*%
%TF.ProjectId,Vectorblade_PLCC32_THT_Kicad7,56656374-6f72-4626-9c61-64655f504c43,rev?*%
%TF.SameCoordinates,Original*%
%TF.FileFunction,Soldermask,Bot*%
%TF.FilePolarity,Negative*%
%FSLAX46Y46*%
G04 Gerber Fmt 4.6, Leading zero omitted, Abs format (unit mm)*
G04 Created by KiCad (PCBNEW (6.99.0-4380-g9b6f7d5db7)) date 2022-11-27 23:54:04*
%MOMM*%
%LPD*%
G01*
G04 APERTURE LIST*
G04 Aperture macros list*
%AMRoundRect*
0 Rectangle with rounded corners*
0 $1 Rounding radius*
0 $2 $3 $4 $5 $6 $7 $8 $9 X,Y pos of 4 corners*
0 Add a 4 corners polygon primitive as box body*
4,1,4,$2,$3,$4,$5,$6,$7,$8,$9,$2,$3,0*
0 Add four circle primitives for the rounded corners*
1,1,$1+$1,$2,$3*
1,1,$1+$1,$4,$5*
1,1,$1+$1,$6,$7*
1,1,$1+$1,$8,$9*
0 Add four rect primitives between the rounded corners*
20,1,$1+$1,$2,$3,$4,$5,0*
20,1,$1+$1,$4,$5,$6,$7,0*
20,1,$1+$1,$6,$7,$8,$9,0*
20,1,$1+$1,$8,$9,$2,$3,0*%
G04 Aperture macros list end*
%ADD10C,1.422400*%
%ADD11C,3.000000*%
%ADD12R,1.422400X1.422400*%
%ADD13RoundRect,0.717550X-0.222250X-3.778250X0.222250X-3.778250X0.222250X3.778250X-0.222250X3.778250X0*%
%ADD14C,4.000000*%
%ADD15C,5.000000*%
G04 APERTURE END LIST*
D10*
%TO.C,*%
X150876000Y-94488000D03*
%TD*%
D11*
%TO.C,U1*%
X157480000Y-83820000D03*
D12*
X162559999Y-85089999D03*
D10*
X165100000Y-82550000D03*
X162560000Y-82550000D03*
X165100000Y-80010000D03*
X162560000Y-77470000D03*
X162560000Y-80010000D03*
X160020000Y-77470000D03*
X160020000Y-80010000D03*
X157480000Y-77470000D03*
X157480000Y-80010000D03*
X154940000Y-77470000D03*
X154940000Y-80010000D03*
X152400000Y-77470000D03*
X149860000Y-80010000D03*
X152400000Y-80010000D03*
X149860000Y-82550000D03*
X152400000Y-82550000D03*
X149860000Y-85090000D03*
X152400000Y-85090000D03*
X149860000Y-87630000D03*
X152400000Y-90170000D03*
X152400000Y-87630000D03*
X154940000Y-90170000D03*
X154940000Y-87630000D03*
X157480000Y-90170000D03*
X157480000Y-87630000D03*
X160020000Y-90170000D03*
X160020000Y-87630000D03*
X162560000Y-90170000D03*
X165100000Y-87630000D03*
X162560000Y-87630000D03*
X165100000Y-85090000D03*
%TD*%
D13*
%TO.C,CON3*%
X179070000Y-114300000D03*
X176530000Y-114300000D03*
X173990000Y-114300000D03*
X171450000Y-114300000D03*
X168910000Y-114300000D03*
X166370000Y-114300000D03*
X163830000Y-114300000D03*
X161290000Y-114300000D03*
X158750000Y-114300000D03*
X156210000Y-114300000D03*
X153670000Y-114300000D03*
X151130000Y-114300000D03*
X148590000Y-114300000D03*
X146050000Y-114300000D03*
X143510000Y-114300000D03*
X140970000Y-114300000D03*
X138430000Y-114300000D03*
X135890000Y-114300000D03*
%TD*%
D14*
%TO.C,@HOLE1*%
X177398000Y-100825600D03*
%TD*%
D10*
%TO.C,*%
X177292000Y-96012000D03*
%TD*%
D15*
%TO.C,@HOLE0*%
X157498000Y-100725600D03*
%TD*%
D14*
%TO.C,@HOLE2*%
X137598000Y-101025600D03*
%TD*%
D10*
%TO.C,*%
X154940000Y-96012000D03*
%TD*%
%TO.C,*%
X172720000Y-94488000D03*
%TD*%
G36*
X181098707Y-110899293D02*
G01*
X181099000Y-110900000D01*
X181099000Y-119625600D01*
X181098707Y-119626307D01*
X181098000Y-119626600D01*
X133900000Y-119626600D01*
X133899293Y-119626307D01*
X133899000Y-119625600D01*
X133899000Y-110900000D01*
X133899293Y-110899293D01*
X133900000Y-110899000D01*
X181098000Y-110899000D01*
X181098707Y-110899293D01*
G37*
M02*
