%TF.GenerationSoftware,KiCad,Pcbnew,7.0.6*%
%TF.CreationDate,2023-08-08T09:29:53+02:00*%
%TF.ProjectId,Vectorblade_PLCC32_THT_Kicad7,56656374-6f72-4626-9c61-64655f504c43,rev?*%
%TF.SameCoordinates,Original*%
%TF.FileFunction,Copper,L2,Bot*%
%TF.FilePolarity,Positive*%
%FSLAX46Y46*%
G04 Gerber Fmt 4.6, Leading zero omitted, Abs format (unit mm)*
G04 Created by KiCad (PCBNEW 7.0.6) date 2023-08-08 09:29:53*
%MOMM*%
%LPD*%
G01*
G04 APERTURE LIST*
G04 Aperture macros list*
%AMRoundRect*
0 Rectangle with rounded corners*
0 $1 Rounding radius*
0 $2 $3 $4 $5 $6 $7 $8 $9 X,Y pos of 4 corners*
0 Add a 4 corners polygon primitive as box body*
4,1,4,$2,$3,$4,$5,$6,$7,$8,$9,$2,$3,0*
0 Add four circle primitives for the rounded corners*
1,1,$1+$1,$2,$3*
1,1,$1+$1,$4,$5*
1,1,$1+$1,$6,$7*
1,1,$1+$1,$8,$9*
0 Add four rect primitives between the rounded corners*
20,1,$1+$1,$2,$3,$4,$5,0*
20,1,$1+$1,$4,$5,$6,$7,0*
20,1,$1+$1,$6,$7,$8,$9,0*
20,1,$1+$1,$8,$9,$2,$3,0*%
G04 Aperture macros list end*
%TA.AperFunction,ComponentPad*%
%ADD10C,1.422400*%
%TD*%
%TA.AperFunction,ComponentPad*%
%ADD11R,1.422400X1.422400*%
%TD*%
%TA.AperFunction,SMDPad,CuDef*%
%ADD12RoundRect,0.666750X-0.222250X-3.778250X0.222250X-3.778250X0.222250X3.778250X-0.222250X3.778250X0*%
%TD*%
%TA.AperFunction,ViaPad*%
%ADD13C,0.800000*%
%TD*%
%TA.AperFunction,Conductor*%
%ADD14C,0.300000*%
%TD*%
G04 APERTURE END LIST*
D10*
%TO.P,,22,CE*%
%TO.N,/~{CE}*%
X150876000Y-94488000D03*
%TD*%
D11*
%TO.P,U1,1,NC*%
%TO.N,unconnected-(U1-Pad1)*%
X162560000Y-85090000D03*
D10*
%TO.P,U1,2,A16*%
%TO.N,/PB6*%
X165100000Y-82550000D03*
%TO.P,U1,3,A15*%
%TO.N,/V-A15*%
X162560000Y-82550000D03*
%TO.P,U1,4,A12*%
%TO.N,/V-A12*%
X165100000Y-80010000D03*
%TO.P,U1,5,A7*%
%TO.N,/V-A7*%
X162560000Y-77470000D03*
%TO.P,U1,6,A6*%
%TO.N,/V-A6*%
X162560000Y-80010000D03*
%TO.P,U1,7,A5*%
%TO.N,/V-A5*%
X160020000Y-77470000D03*
%TO.P,U1,8,A4*%
%TO.N,/V-A4*%
X160020000Y-80010000D03*
%TO.P,U1,9,A3*%
%TO.N,/V-A3*%
X157480000Y-77470000D03*
%TO.P,U1,10,A2*%
%TO.N,/V-A2*%
X157480000Y-80010000D03*
%TO.P,U1,11,A1*%
%TO.N,/V-A1*%
X154940000Y-77470000D03*
%TO.P,U1,12,A0*%
%TO.N,/V-A0*%
X154940000Y-80010000D03*
%TO.P,U1,13,D0*%
%TO.N,/V-D0*%
X152400000Y-77470000D03*
%TO.P,U1,14,D1*%
%TO.N,/V-D1*%
X149860000Y-80010000D03*
%TO.P,U1,15,D2*%
%TO.N,/V-D2*%
X152400000Y-80010000D03*
%TO.P,U1,16,GND*%
%TO.N,GND*%
X149860000Y-82550000D03*
%TO.P,U1,17,D3*%
%TO.N,/V-D3*%
X152400000Y-82550000D03*
%TO.P,U1,18,D4*%
%TO.N,/V-D4*%
X149860000Y-85090000D03*
%TO.P,U1,19,D5*%
%TO.N,/V-D5*%
X152400000Y-85090000D03*
%TO.P,U1,20,D6*%
%TO.N,/V-D6*%
X149860000Y-87630000D03*
%TO.P,U1,21,D7*%
%TO.N,/V-D7*%
X152400000Y-90170000D03*
%TO.P,U1,22,CE*%
%TO.N,/~{CE}*%
X152400000Y-87630000D03*
%TO.P,U1,23,A10*%
%TO.N,/V-A10*%
X154940000Y-90170000D03*
%TO.P,U1,24,OE*%
%TO.N,/~{OE}*%
X154940000Y-87630000D03*
%TO.P,U1,25,A11*%
%TO.N,/V-A11*%
X157480000Y-90170000D03*
%TO.P,U1,26,A9*%
%TO.N,/V-A9*%
X157480000Y-87630000D03*
%TO.P,U1,27,A8*%
%TO.N,/V-A8*%
X160020000Y-90170000D03*
%TO.P,U1,28,A13*%
%TO.N,/V-A13*%
X160020000Y-87630000D03*
%TO.P,U1,29,A14*%
%TO.N,/V-A14*%
X162560000Y-90170000D03*
%TO.P,U1,30,A17*%
%TO.N,/IRQ*%
X165100000Y-87630000D03*
%TO.P,U1,31,PGM*%
%TO.N,/V-RW*%
X162560000Y-87630000D03*
%TO.P,U1,32,VCC*%
%TO.N,+5V*%
X165100000Y-85090000D03*
%TD*%
D12*
%TO.P,CON3,1,HALT*%
%TO.N,unconnected-(CON3-Pad1)*%
X179070000Y-114300000D03*
%TO.P,CON3,3,A7*%
%TO.N,/V-A7*%
X176530000Y-114300000D03*
%TO.P,CON3,5,A6*%
%TO.N,/V-A6*%
X173990000Y-114300000D03*
%TO.P,CON3,7,A5*%
%TO.N,/V-A5*%
X171450000Y-114300000D03*
%TO.P,CON3,9,A4*%
%TO.N,/V-A4*%
X168910000Y-114300000D03*
%TO.P,CON3,11,A3*%
%TO.N,/V-A3*%
X166370000Y-114300000D03*
%TO.P,CON3,13,A2*%
%TO.N,/V-A2*%
X163830000Y-114300000D03*
%TO.P,CON3,15,A1*%
%TO.N,/V-A1*%
X161290000Y-114300000D03*
%TO.P,CON3,17,A0*%
%TO.N,/V-A0*%
X158750000Y-114300000D03*
%TO.P,CON3,19,D0*%
%TO.N,/V-D0*%
X156210000Y-114300000D03*
%TO.P,CON3,21,D1*%
%TO.N,/V-D1*%
X153670000Y-114300000D03*
%TO.P,CON3,23,D2*%
%TO.N,/V-D2*%
X151130000Y-114300000D03*
%TO.P,CON3,25,GND*%
%TO.N,GND*%
X148590000Y-114300000D03*
%TO.P,CON3,27,GND1*%
X146050000Y-114300000D03*
%TO.P,CON3,29,A12*%
%TO.N,/V-A12*%
X143510000Y-114300000D03*
%TO.P,CON3,31,A13*%
%TO.N,/V-A13*%
X140970000Y-114300000D03*
%TO.P,CON3,33,A14*%
%TO.N,/V-A14*%
X138430000Y-114300000D03*
%TO.P,CON3,35,PB6*%
%TO.N,/PB6*%
X135890000Y-114300000D03*
%TD*%
D10*
%TO.P,,22,CE*%
%TO.N,/~{OE}*%
X177292000Y-96012000D03*
%TD*%
%TO.P,,24,OE*%
%TO.N,/~{OE}*%
X154940000Y-96012000D03*
%TD*%
%TO.P,,24,OE*%
%TO.N,/~{CE}*%
X172720000Y-94488000D03*
%TD*%
D13*
%TO.N,GND*%
X135890000Y-104775000D03*
X175260000Y-82804000D03*
X146050000Y-107188000D03*
X171323000Y-88667977D03*
X147320000Y-105918000D03*
X144780000Y-97536000D03*
X135890000Y-97155000D03*
X177546000Y-94234000D03*
X168656000Y-76962000D03*
X147320000Y-108458000D03*
X144780000Y-94742000D03*
X135890000Y-74930000D03*
X144780000Y-85852000D03*
X171958000Y-81026000D03*
X178816000Y-86995000D03*
X179070000Y-97155000D03*
X179070000Y-74930000D03*
X146050000Y-108458000D03*
X144780000Y-91694000D03*
X171958000Y-83058000D03*
X176403000Y-94234000D03*
X147320000Y-107188000D03*
X176403000Y-86995000D03*
X144780000Y-88900000D03*
X146050000Y-105918000D03*
X144780000Y-100330000D03*
X179070000Y-104775000D03*
%TO.N,/V-A5*%
X167386000Y-81280000D03*
%TO.N,/V-A12*%
X144272000Y-108458000D03*
%TO.N,/V-A13*%
X170434000Y-94996000D03*
%TO.N,/V-A14*%
X173609000Y-88630536D03*
%TO.N,/V-RW*%
X177546000Y-91186000D03*
X171196000Y-93980000D03*
X163830000Y-92710000D03*
X142240000Y-104394000D03*
%TO.N,/PB6*%
X142240000Y-102870000D03*
%TO.N,/V-A15*%
X165100000Y-105410000D03*
X165100000Y-89281000D03*
%TD*%
D14*
%TO.N,/V-A7*%
X176530000Y-114300000D02*
X176530000Y-109746051D01*
X169046025Y-80146025D02*
X166741974Y-77841974D01*
X169418000Y-101581949D02*
X169418000Y-81044051D01*
X176158025Y-108848025D02*
X169789974Y-102479974D01*
X165843949Y-77470000D02*
X162560000Y-77470000D01*
X169417966Y-101581949D02*
G75*
G03*
X169789974Y-102479974I1270034J49D01*
G01*
X169418034Y-81044051D02*
G75*
G03*
X169046025Y-80146025I-1270034J-49D01*
G01*
X176530034Y-109746051D02*
G75*
G03*
X176158025Y-108848025I-1270034J-49D01*
G01*
X166741950Y-77841998D02*
G75*
G03*
X165843949Y-77470000I-898050J-898002D01*
G01*
%TO.N,/V-A6*%
X173618025Y-108848025D02*
X169027974Y-104257974D01*
X165843949Y-78740000D02*
X164356051Y-78740000D01*
X168284025Y-80654025D02*
X166741974Y-79111974D01*
X173990000Y-114300000D02*
X173990000Y-109746051D01*
X168656000Y-103359949D02*
X168656000Y-81552051D01*
X163458025Y-79111975D02*
X162560000Y-80010000D01*
X166741950Y-79111998D02*
G75*
G03*
X165843949Y-78740000I-898050J-898002D01*
G01*
X173990034Y-109746051D02*
G75*
G03*
X173618025Y-108848025I-1270034J-49D01*
G01*
X168655966Y-103359949D02*
G75*
G03*
X169027974Y-104257974I1270034J49D01*
G01*
X164356051Y-78739966D02*
G75*
G03*
X163458025Y-79111975I49J-1270034D01*
G01*
X168656034Y-81552051D02*
G75*
G03*
X168284025Y-80654025I-1270034J-49D01*
G01*
%TO.N,/V-A5*%
X167894000Y-81788000D02*
X167894000Y-105137949D01*
X167386000Y-81280000D02*
X167894000Y-81788000D01*
X168265975Y-106035975D02*
X171078026Y-108848026D01*
X171450000Y-109746051D02*
X171450000Y-114300000D01*
X171450034Y-109746051D02*
G75*
G03*
X171078026Y-108848026I-1270034J-49D01*
G01*
X167893966Y-105137949D02*
G75*
G03*
X168265975Y-106035975I1270034J49D01*
G01*
%TO.N,/V-A4*%
X160918025Y-80908025D02*
X160020000Y-80010000D01*
X168538025Y-108848025D02*
X167503974Y-107813974D01*
X166760025Y-82189988D02*
X166222011Y-81651974D01*
X167132000Y-106915949D02*
X167132000Y-83088014D01*
X165323986Y-81280000D02*
X161816051Y-81280000D01*
X168910000Y-114300000D02*
X168910000Y-109746051D01*
X160918049Y-80908001D02*
G75*
G03*
X161816051Y-81280000I898051J898001D01*
G01*
X168910034Y-109746051D02*
G75*
G03*
X168538025Y-108848025I-1270034J-49D01*
G01*
X167131966Y-106915949D02*
G75*
G03*
X167503974Y-107813974I1270034J49D01*
G01*
X166222018Y-81651967D02*
G75*
G03*
X165323986Y-81280000I-898018J-898033D01*
G01*
X167131989Y-83088014D02*
G75*
G03*
X166760024Y-82189989I-1269989J14D01*
G01*
%TO.N,/V-A3*%
X166370000Y-114300000D02*
X166370000Y-85090000D01*
X165100000Y-83820000D02*
X162324051Y-83820000D01*
X158750000Y-80245949D02*
X158750000Y-79266051D01*
X161426025Y-83448025D02*
X159121974Y-81143974D01*
X158378025Y-78368025D02*
X157480000Y-77470000D01*
X161426049Y-83448001D02*
G75*
G03*
X162324051Y-83820000I898051J898001D01*
G01*
X158750034Y-79266051D02*
G75*
G03*
X158378025Y-78368025I-1270034J-49D01*
G01*
X166370000Y-85090000D02*
G75*
G03*
X165100000Y-83820000I-1270000J0D01*
G01*
X158749966Y-80245949D02*
G75*
G03*
X159121974Y-81143974I1270034J49D01*
G01*
%TO.N,/V-A2*%
X161290000Y-93453949D02*
X161290000Y-85108051D01*
X160918025Y-84210025D02*
X157480000Y-80772000D01*
X157480000Y-80772000D02*
X157480000Y-80010000D01*
X163830000Y-114300000D02*
X163830000Y-97046051D01*
X163458025Y-96148025D02*
X161661974Y-94351974D01*
X161289966Y-93453949D02*
G75*
G03*
X161661974Y-94351974I1270034J49D01*
G01*
X163830034Y-97046051D02*
G75*
G03*
X163458025Y-96148025I-1270034J-49D01*
G01*
X161290034Y-85108051D02*
G75*
G03*
X160918025Y-84210025I-1270034J-49D01*
G01*
%TO.N,/V-A1*%
X161661975Y-108848025D02*
X162696026Y-107813974D01*
X161290000Y-114300000D02*
X161290000Y-109746051D01*
X155565975Y-81416025D02*
X155838026Y-81143974D01*
X156210000Y-80245949D02*
X156210000Y-79266051D01*
X158750000Y-92183949D02*
X158750000Y-87376000D01*
X155838025Y-78368025D02*
X154940000Y-77470000D01*
X156346025Y-85734025D02*
X155565974Y-84953974D01*
X155194000Y-84055949D02*
X155194000Y-82314051D01*
X162696025Y-96656025D02*
X159121974Y-93081974D01*
X163068000Y-106915949D02*
X163068000Y-97554051D01*
X157480000Y-86106000D02*
X157244051Y-86106000D01*
X155565999Y-81416049D02*
G75*
G03*
X155194000Y-82314051I898001J-898051D01*
G01*
X163068034Y-97554051D02*
G75*
G03*
X162696025Y-96656025I-1270034J-49D01*
G01*
X156346049Y-85734001D02*
G75*
G03*
X157244051Y-86106000I898051J898001D01*
G01*
X158749966Y-92183949D02*
G75*
G03*
X159121974Y-93081974I1270034J49D01*
G01*
X155193966Y-84055949D02*
G75*
G03*
X155565974Y-84953974I1270034J49D01*
G01*
X162696002Y-107813950D02*
G75*
G03*
X163068000Y-106915949I-898002J898050D01*
G01*
X158750000Y-87376000D02*
G75*
G03*
X157480000Y-86106000I-1270000J0D01*
G01*
X155838002Y-81143950D02*
G75*
G03*
X156210000Y-80245949I-898002J898050D01*
G01*
X161661999Y-108848049D02*
G75*
G03*
X161290000Y-109746051I898001J-898051D01*
G01*
X156210034Y-79266051D02*
G75*
G03*
X155838025Y-78368025I-1270034J-49D01*
G01*
%TO.N,/V-A0*%
X155838025Y-86496025D02*
X154803974Y-85461974D01*
X158750000Y-114300000D02*
X158750000Y-109746051D01*
X162306000Y-105137949D02*
X162306000Y-98062051D01*
X154432000Y-84563949D02*
X154432000Y-80518000D01*
X161934025Y-97164025D02*
X156581974Y-91811974D01*
X159121975Y-108848025D02*
X161934026Y-106035974D01*
X156210000Y-90913949D02*
X156210000Y-87394051D01*
X154432000Y-80518000D02*
X154940000Y-80010000D01*
X154431966Y-84563949D02*
G75*
G03*
X154803974Y-85461974I1270034J49D01*
G01*
X162306034Y-98062051D02*
G75*
G03*
X161934025Y-97164025I-1270034J-49D01*
G01*
X156210034Y-87394051D02*
G75*
G03*
X155838025Y-86496025I-1270034J-49D01*
G01*
X156209966Y-90913949D02*
G75*
G03*
X156581974Y-91811974I1270034J49D01*
G01*
X159121999Y-108848049D02*
G75*
G03*
X158750000Y-109746051I898001J-898051D01*
G01*
X161934002Y-106035950D02*
G75*
G03*
X162306000Y-105137949I-898002J898050D01*
G01*
%TO.N,/V-D0*%
X153670000Y-90520985D02*
X153670000Y-79266051D01*
X153298025Y-78368025D02*
X152400000Y-77470000D01*
X153025975Y-91691061D02*
X153298026Y-91419010D01*
X152654000Y-105137949D02*
X152654000Y-92589087D01*
X156210000Y-114300000D02*
X156210000Y-109746051D01*
X155838025Y-108848025D02*
X153025974Y-106035974D01*
X153670034Y-79266051D02*
G75*
G03*
X153298025Y-78368025I-1270034J-49D01*
G01*
X156210034Y-109746051D02*
G75*
G03*
X155838025Y-108848025I-1270034J-49D01*
G01*
X153025981Y-91691067D02*
G75*
G03*
X152654000Y-92589087I898019J-898033D01*
G01*
X152653966Y-105137949D02*
G75*
G03*
X153025974Y-106035974I1270034J49D01*
G01*
X153298034Y-91419018D02*
G75*
G03*
X153670000Y-90520985I-898034J898018D01*
G01*
%TO.N,/V-D1*%
X149352000Y-103105949D02*
X149352000Y-91204051D01*
X153670000Y-114300000D02*
X153670000Y-108476051D01*
X151130000Y-88373949D02*
X151130000Y-81806051D01*
X150758025Y-80908025D02*
X149860000Y-80010000D01*
X153298025Y-107578025D02*
X149723974Y-104003974D01*
X149723975Y-90306025D02*
X150758026Y-89271974D01*
X149351966Y-103105949D02*
G75*
G03*
X149723974Y-104003974I1270034J49D01*
G01*
X153670034Y-108476051D02*
G75*
G03*
X153298025Y-107578025I-1270034J-49D01*
G01*
X151130034Y-81806051D02*
G75*
G03*
X150758025Y-80908025I-1270034J-49D01*
G01*
X149723999Y-90306049D02*
G75*
G03*
X149352000Y-91204051I898001J-898051D01*
G01*
X150758002Y-89271950D02*
G75*
G03*
X151130000Y-88373949I-898002J898050D01*
G01*
%TO.N,/V-D2*%
X148590000Y-103613949D02*
X148590000Y-80010000D01*
X151501975Y-79111975D02*
X152400000Y-80010000D01*
X150758025Y-106308025D02*
X148961974Y-104511974D01*
X151130000Y-114300000D02*
X151130000Y-107206051D01*
X149860000Y-78740000D02*
X150603949Y-78740000D01*
X151501951Y-79111999D02*
G75*
G03*
X150603949Y-78740000I-898051J-898001D01*
G01*
X148589966Y-103613949D02*
G75*
G03*
X148961974Y-104511974I1270034J49D01*
G01*
X149860000Y-78740000D02*
G75*
G03*
X148590000Y-80010000I0J-1270000D01*
G01*
X151130034Y-107206051D02*
G75*
G03*
X150758025Y-106308025I-1270034J-49D01*
G01*
%TO.N,/V-A12*%
X143510000Y-109746051D02*
X143510000Y-114300000D01*
X144272000Y-108458000D02*
X143881974Y-108848026D01*
X143881998Y-108848050D02*
G75*
G03*
X143510000Y-109746051I898002J-898050D01*
G01*
%TO.N,/V-A13*%
X170180000Y-94742000D02*
X170180000Y-80536051D01*
X170434000Y-94996000D02*
X170180000Y-94742000D01*
X165843949Y-76200000D02*
X151627922Y-76200000D01*
X140970000Y-108984051D02*
X140970000Y-114300000D01*
X169808025Y-79638025D02*
X166741974Y-76571974D01*
X147456025Y-101971975D02*
X141341974Y-108086026D01*
X147828000Y-79999922D02*
X147828000Y-101073949D01*
X166741950Y-76571998D02*
G75*
G03*
X165843949Y-76200000I-898050J-898002D01*
G01*
X151627922Y-76200000D02*
G75*
G03*
X147828000Y-79999922I-22J-3799900D01*
G01*
X170180034Y-80536051D02*
G75*
G03*
X169808025Y-79638025I-1270034J-49D01*
G01*
X141341998Y-108086050D02*
G75*
G03*
X140970000Y-108984051I898002J-898050D01*
G01*
X147456001Y-101971951D02*
G75*
G03*
X147828000Y-101073949I-898001J898051D01*
G01*
%TO.N,/V-A14*%
X173237025Y-80019025D02*
X169027974Y-75809974D01*
X138430000Y-109201948D02*
X138430000Y-114300000D01*
X146694025Y-101463975D02*
X140071974Y-108086026D01*
X173609000Y-88630536D02*
X173609000Y-80917051D01*
X168129949Y-75438000D02*
X151618667Y-75438000D01*
X147066000Y-79990667D02*
X147066000Y-100565949D01*
X139173949Y-108458000D02*
G75*
G03*
X138430000Y-109201948I-49J-743900D01*
G01*
X139173949Y-108458034D02*
G75*
G03*
X140071974Y-108086026I-49J1270034D01*
G01*
X146694001Y-101463951D02*
G75*
G03*
X147066000Y-100565949I-898001J898051D01*
G01*
X169027950Y-75809998D02*
G75*
G03*
X168129949Y-75438000I-898050J-898002D01*
G01*
X173609034Y-80917051D02*
G75*
G03*
X173237025Y-80019025I-1270034J-49D01*
G01*
X151618667Y-75438000D02*
G75*
G03*
X147066000Y-79990667I33J-4552700D01*
G01*
%TO.N,/V-RW*%
X177546000Y-83584051D02*
X177546000Y-91186000D01*
X151613375Y-74676000D02*
X168637949Y-74676000D01*
X142240000Y-104394000D02*
X142494000Y-104394000D01*
X173618025Y-91557975D02*
X171196000Y-93980000D01*
X169535975Y-75047975D02*
X177174026Y-82686026D01*
X146304000Y-100057949D02*
X146304000Y-79985375D01*
X163458025Y-88528025D02*
X162560000Y-87630000D01*
X177546000Y-91186000D02*
X174516051Y-91186000D01*
X142494000Y-104394000D02*
X145932026Y-100955974D01*
X163830000Y-92710000D02*
X163830000Y-89426051D01*
X169535951Y-75047999D02*
G75*
G03*
X168637949Y-74676000I-898051J-898001D01*
G01*
X145932002Y-100955950D02*
G75*
G03*
X146304000Y-100057949I-898002J898050D01*
G01*
X177546034Y-83584051D02*
G75*
G03*
X177174026Y-82686026I-1270034J-49D01*
G01*
X151613375Y-74676000D02*
G75*
G03*
X146304000Y-79985375I25J-5309400D01*
G01*
X163830034Y-89426051D02*
G75*
G03*
X163458025Y-88528025I-1270034J-49D01*
G01*
X174516051Y-91185966D02*
G75*
G03*
X173618025Y-91557975I49J-1270034D01*
G01*
%TO.N,/PB6*%
X140852025Y-106035975D02*
X139563974Y-107324026D01*
X142240000Y-102870000D02*
X141595974Y-103514026D01*
X141224000Y-104412051D02*
X141224000Y-105137949D01*
X138665949Y-107696000D02*
X137160000Y-107696000D01*
X135890000Y-108966000D02*
X135890000Y-114300000D01*
X137160000Y-107696000D02*
G75*
G03*
X135890000Y-108966000I0J-1270000D01*
G01*
X141595998Y-103514050D02*
G75*
G03*
X141224000Y-104412051I898002J-898050D01*
G01*
X138665949Y-107696034D02*
G75*
G03*
X139563974Y-107324026I-49J1270034D01*
G01*
X140852001Y-106035951D02*
G75*
G03*
X141224000Y-105137949I-898001J898051D01*
G01*
%TO.N,/V-A15*%
X165100000Y-105410000D02*
X165100000Y-89281000D01*
%TD*%
%TA.AperFunction,Conductor*%
%TO.N,GND*%
G36*
X181013000Y-72756062D02*
G01*
X181067538Y-72810600D01*
X181087500Y-72885100D01*
X181087500Y-110595000D01*
X181067538Y-110669500D01*
X181013000Y-110724038D01*
X180938500Y-110744000D01*
X180608500Y-110744000D01*
X180534000Y-110724038D01*
X180479462Y-110669500D01*
X180459500Y-110595000D01*
X180459500Y-110449700D01*
X180459500Y-110449698D01*
X180453260Y-110359796D01*
X180403732Y-110149219D01*
X180316355Y-109951327D01*
X180194103Y-109772861D01*
X180041139Y-109619897D01*
X179862673Y-109497645D01*
X179664781Y-109410268D01*
X179664779Y-109410267D01*
X179664776Y-109410266D01*
X179454210Y-109360741D01*
X179454206Y-109360740D01*
X179454204Y-109360740D01*
X179454199Y-109360739D01*
X179454194Y-109360739D01*
X179392359Y-109356447D01*
X179364302Y-109354500D01*
X178775698Y-109354500D01*
X178751428Y-109356184D01*
X178685805Y-109360739D01*
X178685798Y-109360739D01*
X178685796Y-109360740D01*
X178685794Y-109360740D01*
X178685789Y-109360741D01*
X178475223Y-109410266D01*
X178442046Y-109424915D01*
X178277330Y-109497644D01*
X178277325Y-109497646D01*
X178098860Y-109619897D01*
X177945897Y-109772860D01*
X177922925Y-109806396D01*
X177864353Y-109856577D01*
X177788538Y-109870750D01*
X177715795Y-109845116D01*
X177677075Y-109806396D01*
X177654105Y-109772864D01*
X177654103Y-109772861D01*
X177649292Y-109768050D01*
X177565177Y-109683934D01*
X177560681Y-109679018D01*
X177558996Y-109677001D01*
X177558441Y-109676502D01*
X177553045Y-109671654D01*
X177550174Y-109668932D01*
X177501139Y-109619897D01*
X177322673Y-109497645D01*
X177322667Y-109497642D01*
X177228070Y-109455873D01*
X177167981Y-109407520D01*
X177144334Y-109358142D01*
X177082493Y-109127378D01*
X176986143Y-108894791D01*
X176860260Y-108676770D01*
X176706996Y-108477045D01*
X176632820Y-108402874D01*
X173474120Y-105244174D01*
X170304952Y-102075005D01*
X170304945Y-102074997D01*
X170252529Y-102022583D01*
X170247616Y-102017163D01*
X170240799Y-102008857D01*
X170182195Y-101937452D01*
X170165969Y-101913168D01*
X170122549Y-101831941D01*
X170111374Y-101804968D01*
X170084631Y-101716821D01*
X170078935Y-101688183D01*
X170068859Y-101585915D01*
X170068500Y-101578606D01*
X170068500Y-100900968D01*
X175143723Y-100900968D01*
X175173882Y-101200762D01*
X175173883Y-101200768D01*
X175243729Y-101493854D01*
X175243731Y-101493862D01*
X175352025Y-101775038D01*
X175496820Y-102039257D01*
X175496825Y-102039265D01*
X175675554Y-102281838D01*
X175885020Y-102498424D01*
X176121485Y-102685158D01*
X176380730Y-102838709D01*
X176658128Y-102956336D01*
X176948729Y-103035940D01*
X177247347Y-103076100D01*
X177473251Y-103076100D01*
X177670460Y-103062898D01*
X177698634Y-103061012D01*
X177950663Y-103009785D01*
X177993894Y-103000998D01*
X177993895Y-103000997D01*
X177993903Y-103000996D01*
X178278537Y-102902160D01*
X178547459Y-102766268D01*
X178795869Y-102595744D01*
X179019333Y-102393632D01*
X179213865Y-102163539D01*
X179375993Y-101909570D01*
X179502823Y-101636258D01*
X179592093Y-101348479D01*
X179633843Y-101100967D01*
X179642208Y-101051377D01*
X179642208Y-101051375D01*
X179642209Y-101051370D01*
X179652277Y-100750231D01*
X179622118Y-100450438D01*
X179552269Y-100157339D01*
X179443977Y-99876166D01*
X179299175Y-99611935D01*
X179120446Y-99369362D01*
X178910980Y-99152776D01*
X178733337Y-99012493D01*
X178674518Y-98966044D01*
X178645806Y-98949038D01*
X178576870Y-98908206D01*
X178415274Y-98812493D01*
X178415271Y-98812492D01*
X178415270Y-98812491D01*
X178327091Y-98775100D01*
X178137876Y-98694865D01*
X178137869Y-98694863D01*
X177847271Y-98615260D01*
X177548653Y-98575100D01*
X177322756Y-98575100D01*
X177322749Y-98575100D01*
X177097366Y-98590187D01*
X176802105Y-98650201D01*
X176802094Y-98650205D01*
X176517467Y-98749038D01*
X176248546Y-98884929D01*
X176248540Y-98884932D01*
X176000127Y-99055459D01*
X175776669Y-99257565D01*
X175776657Y-99257578D01*
X175582143Y-99487651D01*
X175582131Y-99487667D01*
X175420005Y-99741633D01*
X175293177Y-100014941D01*
X175203906Y-100302720D01*
X175203905Y-100302728D01*
X175153791Y-100599822D01*
X175143723Y-100900967D01*
X175143723Y-100900968D01*
X170068500Y-100900968D01*
X170068500Y-96022928D01*
X170071428Y-96012000D01*
X176075672Y-96012000D01*
X176094151Y-96223213D01*
X176149025Y-96428007D01*
X176149026Y-96428009D01*
X176238626Y-96620158D01*
X176238628Y-96620163D01*
X176238629Y-96620164D01*
X176360239Y-96793841D01*
X176510159Y-96943761D01*
X176683836Y-97065371D01*
X176875991Y-97154974D01*
X177080787Y-97209849D01*
X177271748Y-97226556D01*
X177291999Y-97228328D01*
X177292000Y-97228328D01*
X177292001Y-97228328D01*
X177308993Y-97226841D01*
X177503213Y-97209849D01*
X177708009Y-97154974D01*
X177900164Y-97065371D01*
X178073841Y-96943761D01*
X178223761Y-96793841D01*
X178345371Y-96620164D01*
X178434974Y-96428009D01*
X178489849Y-96223213D01*
X178508328Y-96012000D01*
X178489849Y-95800787D01*
X178434974Y-95595991D01*
X178345371Y-95403836D01*
X178223761Y-95230159D01*
X178073841Y-95080239D01*
X177900164Y-94958629D01*
X177900165Y-94958629D01*
X177900163Y-94958628D01*
X177900158Y-94958626D01*
X177708009Y-94869026D01*
X177708007Y-94869025D01*
X177503213Y-94814151D01*
X177503214Y-94814151D01*
X177292001Y-94795672D01*
X177291999Y-94795672D01*
X177080786Y-94814151D01*
X176875992Y-94869025D01*
X176875990Y-94869026D01*
X176683841Y-94958626D01*
X176683836Y-94958628D01*
X176510157Y-95080240D01*
X176360240Y-95230157D01*
X176238628Y-95403836D01*
X176238626Y-95403841D01*
X176149026Y-95595990D01*
X176149025Y-95595992D01*
X176094151Y-95800786D01*
X176075672Y-96011999D01*
X176075672Y-96012000D01*
X170071428Y-96012000D01*
X170088462Y-95948428D01*
X170143000Y-95893890D01*
X170217500Y-95873928D01*
X170248479Y-95877184D01*
X170339352Y-95896500D01*
X170339354Y-95896500D01*
X170528648Y-95896500D01*
X170568004Y-95888134D01*
X170713803Y-95857144D01*
X170886730Y-95780151D01*
X171039871Y-95668888D01*
X171131335Y-95567307D01*
X171166530Y-95528220D01*
X171166531Y-95528218D01*
X171166533Y-95528216D01*
X171261179Y-95364284D01*
X171319674Y-95184256D01*
X171334887Y-95039509D01*
X171362526Y-94967506D01*
X171422465Y-94918967D01*
X171498643Y-94906901D01*
X171570649Y-94934541D01*
X171618110Y-94992115D01*
X171666625Y-95096158D01*
X171666628Y-95096163D01*
X171666629Y-95096164D01*
X171788239Y-95269841D01*
X171938159Y-95419761D01*
X172111836Y-95541371D01*
X172303991Y-95630974D01*
X172508787Y-95685849D01*
X172699748Y-95702556D01*
X172719999Y-95704328D01*
X172720000Y-95704328D01*
X172720001Y-95704328D01*
X172736993Y-95702841D01*
X172931213Y-95685849D01*
X173136009Y-95630974D01*
X173328164Y-95541371D01*
X173501841Y-95419761D01*
X173651761Y-95269841D01*
X173773371Y-95096164D01*
X173862974Y-94904009D01*
X173917849Y-94699213D01*
X173936328Y-94488000D01*
X173917849Y-94276787D01*
X173862974Y-94071991D01*
X173773371Y-93879836D01*
X173651761Y-93706159D01*
X173501841Y-93556239D01*
X173328164Y-93434629D01*
X173328165Y-93434629D01*
X173328163Y-93434628D01*
X173328158Y-93434626D01*
X173136009Y-93345026D01*
X173136001Y-93345023D01*
X173081578Y-93330440D01*
X173014783Y-93291875D01*
X172976220Y-93225080D01*
X172976222Y-93147952D01*
X173014783Y-93081161D01*
X174018836Y-92077108D01*
X174018860Y-92077088D01*
X174026182Y-92069764D01*
X174026186Y-92069763D01*
X174075428Y-92020517D01*
X174080829Y-92015622D01*
X174160552Y-91950191D01*
X174184828Y-91933970D01*
X174266055Y-91890550D01*
X174293037Y-91879373D01*
X174352837Y-91861231D01*
X174381172Y-91852635D01*
X174409817Y-91846936D01*
X174411451Y-91846775D01*
X174512089Y-91836858D01*
X174519396Y-91836500D01*
X176700674Y-91836500D01*
X176726037Y-91838674D01*
X176743080Y-91841619D01*
X176803199Y-91843318D01*
X176808576Y-91843667D01*
X176822821Y-91845112D01*
X176876665Y-91861231D01*
X176887065Y-91866653D01*
X176934139Y-91892959D01*
X176984737Y-91920588D01*
X177002836Y-91930471D01*
X177086460Y-91972365D01*
X177097553Y-91977581D01*
X177179691Y-92013969D01*
X177182393Y-92015132D01*
X177238675Y-92035497D01*
X177238681Y-92035497D01*
X177243430Y-92037216D01*
X177248381Y-92039211D01*
X177266197Y-92047144D01*
X177386438Y-92072701D01*
X177451352Y-92086500D01*
X177451354Y-92086500D01*
X177640648Y-92086500D01*
X177684926Y-92077088D01*
X177825803Y-92047144D01*
X177998730Y-91970151D01*
X178151871Y-91858888D01*
X178236229Y-91765199D01*
X178278530Y-91718220D01*
X178278531Y-91718218D01*
X178278533Y-91718216D01*
X178373179Y-91554284D01*
X178431674Y-91374256D01*
X178451460Y-91186000D01*
X178431674Y-90997744D01*
X178431674Y-90997743D01*
X178373181Y-90817719D01*
X178371811Y-90814644D01*
X178371201Y-90813444D01*
X178355572Y-90778164D01*
X178337581Y-90737553D01*
X178332365Y-90726460D01*
X178290471Y-90642836D01*
X178252959Y-90574140D01*
X178226652Y-90527064D01*
X178221227Y-90516659D01*
X178205112Y-90462822D01*
X178204775Y-90459499D01*
X178203666Y-90448573D01*
X178203318Y-90443200D01*
X178201716Y-90386497D01*
X178201620Y-90383095D01*
X178201620Y-90383096D01*
X178197584Y-90329197D01*
X178197774Y-90329182D01*
X178196500Y-90314164D01*
X178196500Y-83661519D01*
X178196502Y-83661470D01*
X178196502Y-83657324D01*
X178196503Y-83657320D01*
X178196502Y-83645777D01*
X178196535Y-83645653D01*
X178196533Y-83584026D01*
X178196534Y-83584026D01*
X178196529Y-83458149D01*
X178163660Y-83208551D01*
X178098493Y-82965379D01*
X178062148Y-82877641D01*
X178002148Y-82732800D01*
X178002145Y-82732795D01*
X178002144Y-82732792D01*
X177876260Y-82514771D01*
X177876257Y-82514767D01*
X177723006Y-82315057D01*
X177722994Y-82315043D01*
X177644728Y-82236782D01*
X173809705Y-78401759D01*
X169967010Y-74559064D01*
X169967005Y-74559060D01*
X169965717Y-74557772D01*
X169964958Y-74557060D01*
X169906932Y-74499030D01*
X169707211Y-74345769D01*
X169489194Y-74219887D01*
X169285514Y-74135512D01*
X169256614Y-74123540D01*
X169256612Y-74123539D01*
X169256611Y-74123539D01*
X169013443Y-74058374D01*
X169013438Y-74058373D01*
X169013437Y-74058373D01*
X168913997Y-74045277D01*
X168763849Y-74025505D01*
X168763846Y-74025504D01*
X168763844Y-74025504D01*
X168725161Y-74025503D01*
X168725107Y-74025500D01*
X168720126Y-74025500D01*
X168637974Y-74025500D01*
X168564680Y-74025497D01*
X168564679Y-74025497D01*
X168560530Y-74025497D01*
X168560481Y-74025500D01*
X151572450Y-74025500D01*
X151572448Y-74025500D01*
X151379208Y-74025501D01*
X150912325Y-74062248D01*
X150692535Y-74097059D01*
X150449767Y-74135511D01*
X150449766Y-74135511D01*
X149994383Y-74244841D01*
X149994379Y-74244842D01*
X149994376Y-74244843D01*
X149548971Y-74389565D01*
X149548966Y-74389567D01*
X149548967Y-74389566D01*
X149284700Y-74499030D01*
X149116293Y-74568787D01*
X148699011Y-74781404D01*
X148299697Y-75026105D01*
X147920812Y-75301381D01*
X147920811Y-75301382D01*
X147920810Y-75301382D01*
X147564692Y-75605537D01*
X147233537Y-75936692D01*
X146929382Y-76292810D01*
X146929381Y-76292812D01*
X146654105Y-76671697D01*
X146409404Y-77071011D01*
X146196787Y-77488293D01*
X146159670Y-77577898D01*
X146017566Y-77920967D01*
X146017567Y-77920966D01*
X146017565Y-77920971D01*
X145872843Y-78366376D01*
X145872841Y-78366383D01*
X145763511Y-78821766D01*
X145763511Y-78821767D01*
X145749676Y-78909119D01*
X145690248Y-79284325D01*
X145655012Y-79732018D01*
X145653501Y-79751211D01*
X145653500Y-79903196D01*
X145653500Y-100054260D01*
X145653141Y-100061570D01*
X145643031Y-100164174D01*
X145637332Y-100192821D01*
X145610596Y-100280947D01*
X145599417Y-100307933D01*
X145556002Y-100389150D01*
X145539774Y-100413434D01*
X145474142Y-100493403D01*
X145469230Y-100498823D01*
X145417323Y-100550728D01*
X143336997Y-102631055D01*
X143270202Y-102669619D01*
X143193074Y-102669619D01*
X143126279Y-102631055D01*
X143089931Y-102571739D01*
X143067181Y-102501723D01*
X143067179Y-102501716D01*
X142972533Y-102337784D01*
X142972532Y-102337783D01*
X142972530Y-102337779D01*
X142845872Y-102197113D01*
X142799661Y-102163539D01*
X142692730Y-102085849D01*
X142692729Y-102085848D01*
X142692727Y-102085847D01*
X142519805Y-102008857D01*
X142519803Y-102008856D01*
X142413359Y-101986231D01*
X142334648Y-101969500D01*
X142334646Y-101969500D01*
X142145354Y-101969500D01*
X142145352Y-101969500D01*
X142045392Y-101990747D01*
X141960197Y-102008856D01*
X141960195Y-102008856D01*
X141960194Y-102008857D01*
X141787272Y-102085847D01*
X141634127Y-102197113D01*
X141507469Y-102337780D01*
X141412824Y-102501710D01*
X141412821Y-102501717D01*
X141408280Y-102515691D01*
X141396538Y-102542513D01*
X141394554Y-102546049D01*
X141364373Y-102624240D01*
X141363105Y-102627526D01*
X141358970Y-102639019D01*
X141329502Y-102727656D01*
X141307453Y-102802755D01*
X141292769Y-102854639D01*
X141290120Y-102863054D01*
X141289240Y-102865853D01*
X141262571Y-102915302D01*
X141253545Y-102926365D01*
X141249964Y-102930443D01*
X141208663Y-102974148D01*
X141208663Y-102974149D01*
X141173395Y-103015130D01*
X141173248Y-103015003D01*
X141163544Y-103026509D01*
X141105784Y-103084268D01*
X141105064Y-103085035D01*
X141047027Y-103143069D01*
X140893769Y-103342787D01*
X140860125Y-103401057D01*
X140767887Y-103560807D01*
X140767886Y-103560810D01*
X140671539Y-103793388D01*
X140606372Y-104036561D01*
X140573503Y-104286159D01*
X140573502Y-104326009D01*
X140573500Y-104326060D01*
X140573500Y-104412026D01*
X140573497Y-104489469D01*
X140573500Y-104489519D01*
X140573500Y-105134260D01*
X140573141Y-105141571D01*
X140563030Y-105244179D01*
X140557331Y-105272825D01*
X140530596Y-105360947D01*
X140519417Y-105387931D01*
X140476003Y-105469147D01*
X140459775Y-105493433D01*
X140394141Y-105573404D01*
X140389229Y-105578823D01*
X140338315Y-105629735D01*
X140338302Y-105629750D01*
X139158728Y-106809323D01*
X139106582Y-106861471D01*
X139101163Y-106866383D01*
X139021454Y-106931802D01*
X138997168Y-106948030D01*
X138915941Y-106991450D01*
X138888959Y-107002627D01*
X138800832Y-107029365D01*
X138772185Y-107035064D01*
X138709663Y-107041224D01*
X138669908Y-107045141D01*
X138662607Y-107045500D01*
X137034118Y-107045500D01*
X136784540Y-107078357D01*
X136784523Y-107078360D01*
X136541355Y-107143515D01*
X136308754Y-107239863D01*
X136090739Y-107365735D01*
X136034698Y-107408737D01*
X135891009Y-107518993D01*
X135891007Y-107518994D01*
X135891003Y-107518998D01*
X135712998Y-107697003D01*
X135712994Y-107697007D01*
X135712993Y-107697009D01*
X135645389Y-107785113D01*
X135559735Y-107896739D01*
X135433863Y-108114754D01*
X135337515Y-108347355D01*
X135272360Y-108590523D01*
X135272357Y-108590540D01*
X135239500Y-108840118D01*
X135239500Y-109323276D01*
X135219538Y-109397776D01*
X135203457Y-109420445D01*
X135200782Y-109423555D01*
X135175779Y-109450135D01*
X135127436Y-109484349D01*
X135097335Y-109497640D01*
X135097325Y-109497646D01*
X134918857Y-109619899D01*
X134880713Y-109658043D01*
X134877596Y-109660985D01*
X134848350Y-109687044D01*
X134848348Y-109687045D01*
X134839651Y-109698268D01*
X134833442Y-109705314D01*
X134765896Y-109772862D01*
X134765894Y-109772864D01*
X134643646Y-109951325D01*
X134556266Y-110149223D01*
X134506741Y-110359789D01*
X134506739Y-110359805D01*
X134500500Y-110449700D01*
X134500500Y-110595000D01*
X134480538Y-110669500D01*
X134426000Y-110724038D01*
X134351500Y-110744000D01*
X134057500Y-110744000D01*
X133983000Y-110724038D01*
X133928462Y-110669500D01*
X133908500Y-110595000D01*
X133908500Y-101100968D01*
X135343723Y-101100968D01*
X135373882Y-101400762D01*
X135373883Y-101400768D01*
X135443729Y-101693854D01*
X135443731Y-101693862D01*
X135452578Y-101716832D01*
X135537549Y-101937454D01*
X135552025Y-101975038D01*
X135696820Y-102239257D01*
X135696825Y-102239265D01*
X135875554Y-102481838D01*
X136085020Y-102698424D01*
X136247968Y-102827102D01*
X136282844Y-102854644D01*
X136321485Y-102885158D01*
X136580730Y-103038709D01*
X136858128Y-103156336D01*
X137148729Y-103235940D01*
X137447347Y-103276100D01*
X137673251Y-103276100D01*
X137870460Y-103262898D01*
X137898634Y-103261012D01*
X138059129Y-103228389D01*
X138193894Y-103200998D01*
X138193895Y-103200997D01*
X138193903Y-103200996D01*
X138478537Y-103102160D01*
X138747459Y-102966268D01*
X138995869Y-102795744D01*
X139219333Y-102593632D01*
X139413865Y-102363539D01*
X139575993Y-102109570D01*
X139702823Y-101836258D01*
X139792093Y-101548479D01*
X139842209Y-101251370D01*
X139852277Y-100950231D01*
X139822118Y-100650438D01*
X139752269Y-100357339D01*
X139643977Y-100076166D01*
X139499175Y-99811935D01*
X139320446Y-99569362D01*
X139110980Y-99352776D01*
X138874515Y-99166042D01*
X138776870Y-99108206D01*
X138615274Y-99012493D01*
X138615271Y-99012492D01*
X138615270Y-99012491D01*
X138505730Y-98966042D01*
X138337876Y-98894865D01*
X138337869Y-98894863D01*
X138047271Y-98815260D01*
X137748653Y-98775100D01*
X137522756Y-98775100D01*
X137522749Y-98775100D01*
X137297366Y-98790187D01*
X137002105Y-98850201D01*
X137002094Y-98850205D01*
X136717467Y-98949038D01*
X136448546Y-99084929D01*
X136448540Y-99084932D01*
X136200127Y-99255459D01*
X135976669Y-99457565D01*
X135976657Y-99457578D01*
X135782143Y-99687651D01*
X135782131Y-99687667D01*
X135620005Y-99941633D01*
X135493177Y-100214941D01*
X135403906Y-100502720D01*
X135403905Y-100502728D01*
X135353791Y-100799822D01*
X135343723Y-101100967D01*
X135343723Y-101100968D01*
X133908500Y-101100968D01*
X133908500Y-72885100D01*
X133928462Y-72810600D01*
X133983000Y-72756062D01*
X134057500Y-72736100D01*
X180938500Y-72736100D01*
X181013000Y-72756062D01*
G37*
%TD.AperFunction*%
%TA.AperFunction,Conductor*%
G36*
X147895859Y-102662804D02*
G01*
X147934423Y-102729599D01*
X147939500Y-102768163D01*
X147939500Y-103536626D01*
X147939497Y-103536684D01*
X147939497Y-103552226D01*
X147939464Y-103552349D01*
X147939470Y-103739844D01*
X147947468Y-103800583D01*
X147972340Y-103989449D01*
X147984965Y-104036561D01*
X148037509Y-104232627D01*
X148133851Y-104465199D01*
X148133854Y-104465204D01*
X148133856Y-104465208D01*
X148259740Y-104683229D01*
X148413002Y-104882952D01*
X148413003Y-104882953D01*
X148475418Y-104945364D01*
X150243563Y-106713510D01*
X150243581Y-106713530D01*
X150246236Y-106716185D01*
X150246237Y-106716186D01*
X150295470Y-106765416D01*
X150300383Y-106770837D01*
X150365802Y-106850545D01*
X150382030Y-106874831D01*
X150425448Y-106956054D01*
X150436627Y-106983038D01*
X150457194Y-107050832D01*
X150463365Y-107071170D01*
X150469063Y-107099816D01*
X150475579Y-107165941D01*
X150479141Y-107202085D01*
X150479500Y-107209395D01*
X150479500Y-109323276D01*
X150459538Y-109397776D01*
X150443457Y-109420445D01*
X150440782Y-109423555D01*
X150415779Y-109450135D01*
X150367436Y-109484349D01*
X150337335Y-109497640D01*
X150337325Y-109497646D01*
X150158857Y-109619899D01*
X150120713Y-109658043D01*
X150117596Y-109660985D01*
X150088350Y-109687044D01*
X150088348Y-109687045D01*
X150079651Y-109698268D01*
X150073442Y-109705314D01*
X150005896Y-109772862D01*
X150005890Y-109772869D01*
X149987468Y-109799762D01*
X149928896Y-109849942D01*
X149853081Y-109864113D01*
X149780338Y-109838478D01*
X149741620Y-109799760D01*
X149719899Y-109768051D01*
X149565948Y-109614100D01*
X149386338Y-109491065D01*
X149386332Y-109491062D01*
X149187180Y-109403127D01*
X149187171Y-109403124D01*
X148975246Y-109353281D01*
X148975242Y-109353280D01*
X148890000Y-109347362D01*
X148890000Y-110744000D01*
X148290000Y-110744000D01*
X148290000Y-109347362D01*
X148289999Y-109347362D01*
X148204757Y-109353280D01*
X148204753Y-109353281D01*
X147992828Y-109403124D01*
X147992819Y-109403127D01*
X147793667Y-109491062D01*
X147793661Y-109491065D01*
X147614051Y-109614100D01*
X147460101Y-109768050D01*
X147442924Y-109793126D01*
X147384351Y-109843306D01*
X147308536Y-109857477D01*
X147235793Y-109831843D01*
X147197076Y-109793126D01*
X147179898Y-109768050D01*
X147025948Y-109614100D01*
X146846338Y-109491065D01*
X146846332Y-109491062D01*
X146647180Y-109403127D01*
X146647171Y-109403124D01*
X146435246Y-109353281D01*
X146435242Y-109353280D01*
X146350000Y-109347362D01*
X146350000Y-110744000D01*
X145750000Y-110744000D01*
X145750000Y-109347362D01*
X145749999Y-109347362D01*
X145664757Y-109353280D01*
X145664753Y-109353281D01*
X145452828Y-109403124D01*
X145452819Y-109403127D01*
X145253667Y-109491062D01*
X145253661Y-109491065D01*
X145074051Y-109614100D01*
X144920101Y-109768050D01*
X144920096Y-109768056D01*
X144898377Y-109799762D01*
X144839805Y-109849942D01*
X144763990Y-109864113D01*
X144691247Y-109838478D01*
X144652529Y-109799760D01*
X144634105Y-109772864D01*
X144634103Y-109772861D01*
X144481139Y-109619897D01*
X144481138Y-109619896D01*
X144455732Y-109602492D01*
X144405552Y-109543920D01*
X144391382Y-109468104D01*
X144417017Y-109395361D01*
X144475589Y-109345181D01*
X144499765Y-109336088D01*
X144500780Y-109335804D01*
X144515307Y-109331258D01*
X144543504Y-109321492D01*
X144550976Y-109319412D01*
X144551797Y-109319146D01*
X144551800Y-109319144D01*
X144551803Y-109319144D01*
X144554211Y-109318071D01*
X144560116Y-109315738D01*
X144585732Y-109306868D01*
X144593223Y-109304028D01*
X144655305Y-109275551D01*
X144655309Y-109275547D01*
X144662056Y-109271547D01*
X144662431Y-109272180D01*
X144678750Y-109262621D01*
X144724730Y-109242151D01*
X144877871Y-109130888D01*
X144950195Y-109050563D01*
X145004530Y-108990220D01*
X145004531Y-108990218D01*
X145004533Y-108990216D01*
X145099179Y-108826284D01*
X145157674Y-108646256D01*
X145177460Y-108458000D01*
X145157674Y-108269744D01*
X145099179Y-108089716D01*
X145004533Y-107925784D01*
X145004532Y-107925783D01*
X145004530Y-107925779D01*
X144877872Y-107785113D01*
X144724727Y-107673847D01*
X144551805Y-107596857D01*
X144551803Y-107596856D01*
X144445359Y-107574231D01*
X144366648Y-107557500D01*
X144366646Y-107557500D01*
X144177354Y-107557500D01*
X144177352Y-107557500D01*
X144077392Y-107578747D01*
X143992197Y-107596856D01*
X143992195Y-107596856D01*
X143992194Y-107596857D01*
X143819272Y-107673847D01*
X143666127Y-107785113D01*
X143539469Y-107925780D01*
X143444820Y-108089716D01*
X143440135Y-108104134D01*
X143428477Y-108130806D01*
X143426358Y-108134594D01*
X143426351Y-108134610D01*
X143412044Y-108171802D01*
X143400586Y-108201587D01*
X143395974Y-108214560D01*
X143389222Y-108235358D01*
X143372166Y-108287891D01*
X143368649Y-108299680D01*
X143350807Y-108365158D01*
X143338059Y-108417988D01*
X143331601Y-108444323D01*
X143315183Y-108484610D01*
X143309481Y-108494264D01*
X143306776Y-108498510D01*
X143280809Y-108536379D01*
X143280807Y-108536382D01*
X143254782Y-108578418D01*
X143250541Y-108584559D01*
X143179768Y-108676789D01*
X143157538Y-108715291D01*
X143053887Y-108894807D01*
X143045877Y-108914144D01*
X142957539Y-109127388D01*
X142895706Y-109358121D01*
X142857139Y-109424915D01*
X142811969Y-109455856D01*
X142717328Y-109497644D01*
X142717326Y-109497645D01*
X142538860Y-109619897D01*
X142486898Y-109671858D01*
X142482549Y-109675874D01*
X142468556Y-109687801D01*
X142468555Y-109687802D01*
X142463155Y-109694768D01*
X142456955Y-109701800D01*
X142385896Y-109772862D01*
X142385894Y-109772864D01*
X142362925Y-109806396D01*
X142304353Y-109856577D01*
X142228538Y-109870750D01*
X142155795Y-109845116D01*
X142117075Y-109806396D01*
X142094105Y-109772864D01*
X142094103Y-109772861D01*
X142041336Y-109720094D01*
X142036093Y-109714268D01*
X142030998Y-109707970D01*
X142030328Y-109707254D01*
X142024881Y-109701425D01*
X142001572Y-109679018D01*
X141985698Y-109663758D01*
X141979437Y-109658195D01*
X141941139Y-109619897D01*
X141762673Y-109497645D01*
X141762669Y-109497642D01*
X141732561Y-109484348D01*
X141684220Y-109450136D01*
X141672977Y-109438184D01*
X141660285Y-109424691D01*
X141658049Y-109422201D01*
X141656493Y-109420389D01*
X141656398Y-109420278D01*
X141623051Y-109350732D01*
X141620500Y-109323279D01*
X141620500Y-108987739D01*
X141620859Y-108980430D01*
X141630969Y-108877817D01*
X141636664Y-108849188D01*
X141663405Y-108761046D01*
X141674579Y-108734072D01*
X141718001Y-108652842D01*
X141734225Y-108628565D01*
X141749328Y-108610163D01*
X141799875Y-108548574D01*
X141804759Y-108543186D01*
X141853762Y-108494186D01*
X141853763Y-108494183D01*
X141862244Y-108485703D01*
X141862255Y-108485689D01*
X147685141Y-102662804D01*
X147751936Y-102624240D01*
X147829064Y-102624240D01*
X147895859Y-102662804D01*
G37*
%TD.AperFunction*%
%TA.AperFunction,Conductor*%
G36*
X168133566Y-76088858D02*
G01*
X168236180Y-76098969D01*
X168264813Y-76104665D01*
X168352950Y-76131404D01*
X168379931Y-76142581D01*
X168461152Y-76185998D01*
X168485434Y-76202225D01*
X168513398Y-76225175D01*
X168565414Y-76267866D01*
X168570824Y-76272770D01*
X168622997Y-76324945D01*
X168623005Y-76324952D01*
X172722563Y-80424510D01*
X172722581Y-80424530D01*
X172725236Y-80427185D01*
X172725237Y-80427186D01*
X172774470Y-80476416D01*
X172779383Y-80481837D01*
X172844802Y-80561545D01*
X172861030Y-80585831D01*
X172904448Y-80667054D01*
X172915627Y-80694038D01*
X172931931Y-80747780D01*
X172942365Y-80782170D01*
X172948064Y-80810817D01*
X172958141Y-80913085D01*
X172958500Y-80920395D01*
X172958500Y-87785201D01*
X172956325Y-87810567D01*
X172953381Y-87827607D01*
X172953379Y-87827625D01*
X172951680Y-87887713D01*
X172951329Y-87893130D01*
X172949885Y-87907359D01*
X172933775Y-87961186D01*
X172929990Y-87968448D01*
X172928349Y-87971596D01*
X172902038Y-88018678D01*
X172864530Y-88087369D01*
X172822780Y-88170698D01*
X172817570Y-88181742D01*
X172810138Y-88198518D01*
X172783812Y-88257941D01*
X172783230Y-88259088D01*
X172780942Y-88264225D01*
X172780384Y-88265713D01*
X172779443Y-88267917D01*
X172779434Y-88267938D01*
X172759501Y-88323212D01*
X172759500Y-88323216D01*
X172759272Y-88324780D01*
X172753548Y-88349263D01*
X172723325Y-88442279D01*
X172703540Y-88630535D01*
X172723325Y-88818790D01*
X172753515Y-88911703D01*
X172781821Y-88998820D01*
X172781822Y-88998821D01*
X172876469Y-89162756D01*
X173003127Y-89303422D01*
X173003129Y-89303424D01*
X173156270Y-89414687D01*
X173329197Y-89491680D01*
X173470315Y-89521675D01*
X173514352Y-89531036D01*
X173514354Y-89531036D01*
X173703648Y-89531036D01*
X173743003Y-89522670D01*
X173888803Y-89491680D01*
X174061730Y-89414687D01*
X174214871Y-89303424D01*
X174287195Y-89223099D01*
X174341530Y-89162756D01*
X174341531Y-89162754D01*
X174341533Y-89162752D01*
X174436179Y-88998820D01*
X174494674Y-88818792D01*
X174514460Y-88630536D01*
X174494674Y-88442280D01*
X174464451Y-88349263D01*
X174436181Y-88262255D01*
X174434811Y-88259180D01*
X174434201Y-88257980D01*
X174434184Y-88257941D01*
X174400581Y-88182089D01*
X174395365Y-88170996D01*
X174353471Y-88087372D01*
X174315959Y-88018676D01*
X174289652Y-87971600D01*
X174284227Y-87961195D01*
X174268112Y-87907360D01*
X174266666Y-87893109D01*
X174266318Y-87887736D01*
X174265244Y-87849746D01*
X174264620Y-87827631D01*
X174264620Y-87827632D01*
X174260584Y-87773733D01*
X174260774Y-87773718D01*
X174259500Y-87758700D01*
X174259500Y-81051163D01*
X174279462Y-80976663D01*
X174334000Y-80922125D01*
X174408500Y-80902163D01*
X174483000Y-80922125D01*
X174513854Y-80945800D01*
X175593913Y-82025859D01*
X176659414Y-83091360D01*
X176659434Y-83091382D01*
X176711470Y-83143416D01*
X176716380Y-83148832D01*
X176730300Y-83165793D01*
X176781802Y-83228545D01*
X176798030Y-83252831D01*
X176841450Y-83334058D01*
X176852626Y-83361036D01*
X176872695Y-83427182D01*
X176879365Y-83449167D01*
X176885064Y-83477814D01*
X176886239Y-83489736D01*
X176894756Y-83576182D01*
X176895141Y-83580083D01*
X176895500Y-83587393D01*
X176895500Y-90340665D01*
X176893325Y-90366031D01*
X176890381Y-90383071D01*
X176890379Y-90383091D01*
X176890308Y-90385596D01*
X176890039Y-90386497D01*
X176889851Y-90388372D01*
X176889489Y-90388335D01*
X176868241Y-90459499D01*
X176812178Y-90512468D01*
X176745589Y-90530309D01*
X176743080Y-90530380D01*
X176728331Y-90531485D01*
X176689147Y-90534421D01*
X176689132Y-90534227D01*
X176674144Y-90535500D01*
X174593519Y-90535500D01*
X174593467Y-90535497D01*
X174577773Y-90535497D01*
X174577649Y-90535464D01*
X174390155Y-90535470D01*
X174140554Y-90568339D01*
X173897374Y-90633508D01*
X173664788Y-90729858D01*
X173446773Y-90855738D01*
X173446770Y-90855740D01*
X173424471Y-90872852D01*
X173247044Y-91009004D01*
X173179047Y-91077007D01*
X171333765Y-92922287D01*
X171314297Y-92938681D01*
X171300158Y-92948654D01*
X171300157Y-92948656D01*
X171256443Y-92989965D01*
X171252362Y-92993549D01*
X171241295Y-93002576D01*
X171191853Y-93029240D01*
X171189054Y-93030120D01*
X171180639Y-93032769D01*
X171128754Y-93047453D01*
X171128755Y-93047453D01*
X171053654Y-93069502D01*
X171026502Y-93078528D01*
X170949509Y-93083086D01*
X170880552Y-93048537D01*
X170838108Y-92984138D01*
X170830500Y-92937136D01*
X170830500Y-80613519D01*
X170830502Y-80613470D01*
X170830502Y-80609324D01*
X170830503Y-80609320D01*
X170830502Y-80597777D01*
X170830535Y-80597653D01*
X170830533Y-80536026D01*
X170830534Y-80536026D01*
X170830529Y-80410149D01*
X170797660Y-80160551D01*
X170732493Y-79917378D01*
X170636143Y-79684791D01*
X170510260Y-79466770D01*
X170356996Y-79267045D01*
X170282820Y-79192874D01*
X167432805Y-76342858D01*
X167394241Y-76276064D01*
X167394241Y-76198936D01*
X167432805Y-76132141D01*
X167499600Y-76093577D01*
X167538164Y-76088500D01*
X168126260Y-76088500D01*
X168133566Y-76088858D01*
G37*
%TD.AperFunction*%
%TD*%
%TA.AperFunction,Conductor*%
%TO.N,/V-A7*%
G36*
X176678535Y-109625901D02*
G01*
X176680675Y-109627911D01*
X176731151Y-109688957D01*
X176785880Y-109749939D01*
X176840599Y-109805703D01*
X176895334Y-109856274D01*
X176895333Y-109856273D01*
X176950067Y-109901634D01*
X177004792Y-109941778D01*
X177004792Y-109941779D01*
X177059515Y-109976714D01*
X177059519Y-109976716D01*
X177059525Y-109976720D01*
X177114254Y-110006451D01*
X177168983Y-110030973D01*
X177179349Y-110034631D01*
X177214483Y-110047030D01*
X177221144Y-110053015D01*
X177222136Y-110059947D01*
X176541700Y-114230232D01*
X176536986Y-114237845D01*
X176528269Y-114239895D01*
X176520656Y-114235181D01*
X176518606Y-114230233D01*
X176518606Y-114230232D01*
X175837960Y-110060538D01*
X175840009Y-110051823D01*
X175846269Y-110047413D01*
X175871609Y-110040118D01*
X175890672Y-110034631D01*
X175945042Y-110014002D01*
X175961079Y-110006449D01*
X175999436Y-109988384D01*
X176053819Y-109957794D01*
X176108202Y-109922225D01*
X176162584Y-109881679D01*
X176216962Y-109836158D01*
X176216961Y-109836158D01*
X176216968Y-109836152D01*
X176271351Y-109785649D01*
X176325734Y-109730167D01*
X176377344Y-109672790D01*
X176384212Y-109669058D01*
X176669828Y-109623811D01*
X176678535Y-109625901D01*
G37*
%TD.AperFunction*%
%TD*%
%TA.AperFunction,Conductor*%
%TO.N,/V-A7*%
G36*
X162842702Y-76818065D02*
G01*
X162843292Y-76818330D01*
X162963527Y-76876601D01*
X162964137Y-76876944D01*
X163067626Y-76943905D01*
X163068153Y-76944289D01*
X163151373Y-77012369D01*
X163151705Y-77012662D01*
X163221995Y-77079636D01*
X163286448Y-77143042D01*
X163286448Y-77143041D01*
X163352116Y-77200317D01*
X163352121Y-77200320D01*
X163352123Y-77200322D01*
X163426224Y-77249067D01*
X163448658Y-77258517D01*
X163515955Y-77286865D01*
X163515958Y-77286865D01*
X163515964Y-77286868D01*
X163628553Y-77311315D01*
X163760213Y-77319331D01*
X163768261Y-77323253D01*
X163771200Y-77331008D01*
X163771200Y-77608990D01*
X163767773Y-77617263D01*
X163760211Y-77620668D01*
X163628555Y-77628683D01*
X163628554Y-77628683D01*
X163532148Y-77649616D01*
X163515964Y-77653131D01*
X163515963Y-77653131D01*
X163515960Y-77653132D01*
X163515955Y-77653133D01*
X163426227Y-77690929D01*
X163352116Y-77739680D01*
X163290206Y-77793678D01*
X163286449Y-77796956D01*
X163286448Y-77796957D01*
X163286448Y-77796956D01*
X163221994Y-77860362D01*
X163151705Y-77927335D01*
X163151373Y-77927628D01*
X163068153Y-77995709D01*
X163067626Y-77996093D01*
X162964149Y-78063046D01*
X162963522Y-78063399D01*
X162843314Y-78121659D01*
X162834374Y-78122183D01*
X162827682Y-78116233D01*
X162827407Y-78115621D01*
X162777555Y-77995709D01*
X162721287Y-77860362D01*
X162560867Y-77474490D01*
X162560856Y-77465536D01*
X162560867Y-77465508D01*
X162827407Y-76824377D01*
X162833748Y-76818054D01*
X162842702Y-76818065D01*
G37*
%TD.AperFunction*%
%TD*%
%TA.AperFunction,Conductor*%
%TO.N,/V-A6*%
G36*
X174138535Y-109625901D02*
G01*
X174140675Y-109627911D01*
X174191151Y-109688957D01*
X174245880Y-109749939D01*
X174300599Y-109805703D01*
X174355334Y-109856274D01*
X174355333Y-109856273D01*
X174410067Y-109901634D01*
X174464792Y-109941778D01*
X174464792Y-109941779D01*
X174519515Y-109976714D01*
X174519519Y-109976716D01*
X174519525Y-109976720D01*
X174574254Y-110006451D01*
X174628983Y-110030973D01*
X174639349Y-110034631D01*
X174674483Y-110047030D01*
X174681144Y-110053015D01*
X174682136Y-110059947D01*
X174001700Y-114230232D01*
X173996986Y-114237845D01*
X173988269Y-114239895D01*
X173980656Y-114235181D01*
X173978606Y-114230233D01*
X173978606Y-114230232D01*
X173297960Y-110060538D01*
X173300009Y-110051823D01*
X173306269Y-110047413D01*
X173331609Y-110040118D01*
X173350672Y-110034631D01*
X173405042Y-110014002D01*
X173421079Y-110006449D01*
X173459436Y-109988384D01*
X173513819Y-109957794D01*
X173568202Y-109922225D01*
X173622584Y-109881679D01*
X173676962Y-109836158D01*
X173676961Y-109836158D01*
X173676968Y-109836152D01*
X173731351Y-109785649D01*
X173785734Y-109730167D01*
X173837344Y-109672790D01*
X173844212Y-109669058D01*
X174129828Y-109623811D01*
X174138535Y-109625901D01*
G37*
%TD.AperFunction*%
%TD*%
%TA.AperFunction,Conductor*%
%TO.N,/V-A6*%
G36*
X163318165Y-79055271D02*
G01*
X163514728Y-79251834D01*
X163518155Y-79260107D01*
X163515216Y-79267862D01*
X163427783Y-79366629D01*
X163365462Y-79463522D01*
X163328735Y-79553708D01*
X163328733Y-79553714D01*
X163310806Y-79640562D01*
X163310805Y-79640571D01*
X163304871Y-79727508D01*
X163304871Y-79727509D01*
X163304129Y-79817926D01*
X163301783Y-79914984D01*
X163301756Y-79915425D01*
X163291050Y-80022414D01*
X163290950Y-80023058D01*
X163265124Y-80143572D01*
X163264930Y-80144265D01*
X163221125Y-80270459D01*
X163215175Y-80277151D01*
X163206235Y-80277675D01*
X163205609Y-80277437D01*
X162563789Y-80012562D01*
X162557449Y-80006239D01*
X162292562Y-79364388D01*
X162292573Y-79355436D01*
X162298914Y-79349112D01*
X162299533Y-79348876D01*
X162425744Y-79305065D01*
X162426409Y-79304878D01*
X162546957Y-79279044D01*
X162547584Y-79278947D01*
X162584677Y-79275235D01*
X162654583Y-79268240D01*
X162655014Y-79268214D01*
X162752072Y-79265869D01*
X162842490Y-79265128D01*
X162842491Y-79265128D01*
X162873462Y-79263013D01*
X162929425Y-79259193D01*
X162929433Y-79259191D01*
X162929436Y-79259191D01*
X162965077Y-79251834D01*
X163016290Y-79241263D01*
X163106475Y-79204537D01*
X163203374Y-79142212D01*
X163302140Y-79054781D01*
X163310603Y-79051866D01*
X163318165Y-79055271D01*
G37*
%TD.AperFunction*%
%TD*%
%TA.AperFunction,Conductor*%
%TO.N,/V-A5*%
G36*
X167754063Y-81131245D02*
G01*
X167760216Y-81137211D01*
X167800669Y-81226392D01*
X167800671Y-81226396D01*
X167844088Y-81307243D01*
X167885083Y-81374351D01*
X167922940Y-81432603D01*
X167956841Y-81486723D01*
X167957035Y-81487058D01*
X167986212Y-81541776D01*
X167986489Y-81542376D01*
X168010365Y-81602696D01*
X168010597Y-81603415D01*
X168028551Y-81674377D01*
X168028679Y-81675043D01*
X168040004Y-81761661D01*
X168040049Y-81762193D01*
X168043554Y-81857450D01*
X168040434Y-81865843D01*
X168032292Y-81869572D01*
X168031862Y-81869580D01*
X167754546Y-81869580D01*
X167746273Y-81866153D01*
X167742909Y-81859090D01*
X167736629Y-81798688D01*
X167715523Y-81750084D01*
X167715522Y-81750083D01*
X167682189Y-81719485D01*
X167682187Y-81719484D01*
X167638128Y-81702604D01*
X167638123Y-81702603D01*
X167638122Y-81702603D01*
X167584849Y-81695160D01*
X167523863Y-81692870D01*
X167456788Y-81691449D01*
X167456553Y-81691439D01*
X167385060Y-81686627D01*
X167384497Y-81686561D01*
X167353594Y-81681401D01*
X167310526Y-81674210D01*
X167308893Y-81673815D01*
X167245032Y-81653418D01*
X167238194Y-81647637D01*
X167237447Y-81638713D01*
X167237768Y-81637831D01*
X167384141Y-81283498D01*
X167390465Y-81277162D01*
X167745109Y-81131224D01*
X167754063Y-81131245D01*
G37*
%TD.AperFunction*%
%TD*%
%TA.AperFunction,Conductor*%
%TO.N,/V-A5*%
G36*
X171598535Y-109625901D02*
G01*
X171600675Y-109627911D01*
X171651151Y-109688957D01*
X171705880Y-109749939D01*
X171760599Y-109805703D01*
X171815334Y-109856274D01*
X171815333Y-109856273D01*
X171870067Y-109901634D01*
X171924792Y-109941778D01*
X171924792Y-109941779D01*
X171979515Y-109976714D01*
X171979519Y-109976716D01*
X171979525Y-109976720D01*
X172034254Y-110006451D01*
X172088983Y-110030973D01*
X172099349Y-110034631D01*
X172134483Y-110047030D01*
X172141144Y-110053015D01*
X172142136Y-110059947D01*
X171461700Y-114230232D01*
X171456986Y-114237845D01*
X171448269Y-114239895D01*
X171440656Y-114235181D01*
X171438606Y-114230233D01*
X171438606Y-114230232D01*
X170757960Y-110060538D01*
X170760009Y-110051823D01*
X170766269Y-110047413D01*
X170791609Y-110040118D01*
X170810672Y-110034631D01*
X170865042Y-110014002D01*
X170881079Y-110006449D01*
X170919436Y-109988384D01*
X170973819Y-109957794D01*
X171028202Y-109922225D01*
X171082584Y-109881679D01*
X171136962Y-109836158D01*
X171136961Y-109836158D01*
X171136968Y-109836152D01*
X171191351Y-109785649D01*
X171245734Y-109730167D01*
X171297344Y-109672790D01*
X171304212Y-109669058D01*
X171589828Y-109623811D01*
X171598535Y-109625901D01*
G37*
%TD.AperFunction*%
%TD*%
%TA.AperFunction,Conductor*%
%TO.N,/V-A4*%
G36*
X160674563Y-79742573D02*
G01*
X160680887Y-79748914D01*
X160681125Y-79749540D01*
X160724930Y-79875733D01*
X160725124Y-79876426D01*
X160750950Y-79996940D01*
X160751050Y-79997584D01*
X160761756Y-80104573D01*
X160761783Y-80105014D01*
X160764129Y-80202072D01*
X160764871Y-80292490D01*
X160764871Y-80292491D01*
X160770805Y-80379427D01*
X160770806Y-80379436D01*
X160788733Y-80466283D01*
X160788735Y-80466289D01*
X160825462Y-80556476D01*
X160887783Y-80653369D01*
X160887785Y-80653372D01*
X160887787Y-80653374D01*
X160975216Y-80752138D01*
X160978133Y-80760603D01*
X160974728Y-80768165D01*
X160778165Y-80964728D01*
X160769892Y-80968155D01*
X160762138Y-80965216D01*
X160663374Y-80877787D01*
X160663372Y-80877785D01*
X160663369Y-80877783D01*
X160566476Y-80815462D01*
X160521382Y-80797098D01*
X160476290Y-80778735D01*
X160476287Y-80778734D01*
X160476283Y-80778733D01*
X160389436Y-80760806D01*
X160389427Y-80760805D01*
X160302491Y-80754871D01*
X160302490Y-80754871D01*
X160212072Y-80754129D01*
X160115014Y-80751783D01*
X160114573Y-80751756D01*
X160007584Y-80741050D01*
X160006940Y-80740950D01*
X159886420Y-80715122D01*
X159885733Y-80714930D01*
X159759540Y-80671125D01*
X159752848Y-80665175D01*
X159752324Y-80656235D01*
X159752550Y-80655639D01*
X160017437Y-80013788D01*
X160023759Y-80007449D01*
X160665611Y-79742562D01*
X160674563Y-79742573D01*
G37*
%TD.AperFunction*%
%TD*%
%TA.AperFunction,Conductor*%
%TO.N,/V-A4*%
G36*
X169058535Y-109625901D02*
G01*
X169060675Y-109627911D01*
X169111151Y-109688957D01*
X169165880Y-109749939D01*
X169220599Y-109805703D01*
X169275334Y-109856274D01*
X169275333Y-109856273D01*
X169330067Y-109901634D01*
X169384792Y-109941778D01*
X169384792Y-109941779D01*
X169439515Y-109976714D01*
X169439519Y-109976716D01*
X169439525Y-109976720D01*
X169494254Y-110006451D01*
X169548983Y-110030973D01*
X169559349Y-110034631D01*
X169594483Y-110047030D01*
X169601144Y-110053015D01*
X169602136Y-110059947D01*
X168921700Y-114230232D01*
X168916986Y-114237845D01*
X168908269Y-114239895D01*
X168900656Y-114235181D01*
X168898606Y-114230233D01*
X168898606Y-114230232D01*
X168217960Y-110060538D01*
X168220009Y-110051823D01*
X168226269Y-110047413D01*
X168251609Y-110040118D01*
X168270672Y-110034631D01*
X168325042Y-110014002D01*
X168341079Y-110006449D01*
X168379436Y-109988384D01*
X168433819Y-109957794D01*
X168488202Y-109922225D01*
X168542584Y-109881679D01*
X168596962Y-109836158D01*
X168596961Y-109836158D01*
X168596968Y-109836152D01*
X168651351Y-109785649D01*
X168705734Y-109730167D01*
X168757344Y-109672790D01*
X168764212Y-109669058D01*
X169049828Y-109623811D01*
X169058535Y-109625901D01*
G37*
%TD.AperFunction*%
%TD*%
%TA.AperFunction,Conductor*%
%TO.N,/V-A3*%
G36*
X166522335Y-109558427D02*
G01*
X166523504Y-109559791D01*
X166574371Y-109629351D01*
X166628742Y-109698186D01*
X166683113Y-109761505D01*
X166737485Y-109819308D01*
X166791856Y-109871594D01*
X166846227Y-109918365D01*
X166900599Y-109959619D01*
X166954970Y-109995358D01*
X166954974Y-109995360D01*
X167009338Y-110025579D01*
X167009339Y-110025579D01*
X167055564Y-110046584D01*
X167061679Y-110053127D01*
X167062271Y-110059120D01*
X166381547Y-114230245D01*
X166376833Y-114237859D01*
X166368116Y-114239908D01*
X166360502Y-114235194D01*
X166358453Y-114230246D01*
X166358453Y-114230245D01*
X165677728Y-110059119D01*
X165679777Y-110050403D01*
X165684433Y-110046584D01*
X165730658Y-110025580D01*
X165785029Y-109995358D01*
X165839400Y-109959619D01*
X165893772Y-109918365D01*
X165948143Y-109871594D01*
X166002514Y-109819308D01*
X166056886Y-109761505D01*
X166111257Y-109698186D01*
X166165628Y-109629351D01*
X166216494Y-109559793D01*
X166224143Y-109555138D01*
X166225938Y-109555000D01*
X166514062Y-109555000D01*
X166522335Y-109558427D01*
G37*
%TD.AperFunction*%
%TD*%
%TA.AperFunction,Conductor*%
%TO.N,/V-A3*%
G36*
X158134563Y-77202573D02*
G01*
X158140887Y-77208914D01*
X158141125Y-77209540D01*
X158184930Y-77335733D01*
X158185124Y-77336426D01*
X158210950Y-77456940D01*
X158211050Y-77457584D01*
X158221756Y-77564573D01*
X158221783Y-77565014D01*
X158224129Y-77662072D01*
X158224871Y-77752490D01*
X158224871Y-77752491D01*
X158230805Y-77839427D01*
X158230806Y-77839436D01*
X158248733Y-77926283D01*
X158248735Y-77926289D01*
X158285462Y-78016476D01*
X158347783Y-78113369D01*
X158347785Y-78113372D01*
X158347787Y-78113374D01*
X158435216Y-78212138D01*
X158438133Y-78220603D01*
X158434728Y-78228165D01*
X158238165Y-78424728D01*
X158229892Y-78428155D01*
X158222138Y-78425216D01*
X158123374Y-78337787D01*
X158123372Y-78337785D01*
X158123369Y-78337783D01*
X158026476Y-78275462D01*
X157981382Y-78257098D01*
X157936290Y-78238735D01*
X157936287Y-78238734D01*
X157936283Y-78238733D01*
X157849436Y-78220806D01*
X157849427Y-78220805D01*
X157762491Y-78214871D01*
X157762490Y-78214871D01*
X157672072Y-78214129D01*
X157575014Y-78211783D01*
X157574573Y-78211756D01*
X157467584Y-78201050D01*
X157466940Y-78200950D01*
X157346420Y-78175122D01*
X157345733Y-78174930D01*
X157219540Y-78131125D01*
X157212848Y-78125175D01*
X157212324Y-78116235D01*
X157212550Y-78115639D01*
X157477437Y-77473788D01*
X157483759Y-77467449D01*
X158125611Y-77202562D01*
X158134563Y-77202573D01*
G37*
%TD.AperFunction*%
%TD*%
%TA.AperFunction,Conductor*%
%TO.N,/V-A2*%
G36*
X157486529Y-80012295D02*
G01*
X158125449Y-80277346D01*
X158131778Y-80283681D01*
X158131773Y-80292636D01*
X158131423Y-80293401D01*
X158089266Y-80377397D01*
X158088902Y-80378022D01*
X158033516Y-80460952D01*
X158033234Y-80461339D01*
X157974885Y-80534858D01*
X157918547Y-80601302D01*
X157869336Y-80662905D01*
X157869329Y-80662915D01*
X157832205Y-80722108D01*
X157832202Y-80722115D01*
X157812117Y-80781343D01*
X157812116Y-80781349D01*
X157814030Y-80843041D01*
X157814031Y-80843045D01*
X157842903Y-80909635D01*
X157842904Y-80909637D01*
X157842905Y-80909638D01*
X157884451Y-80960161D01*
X157896956Y-80975367D01*
X157899564Y-80983933D01*
X157896192Y-80991071D01*
X157699800Y-81187463D01*
X157691527Y-81190890D01*
X157683294Y-81187502D01*
X157596089Y-81101107D01*
X157516633Y-81024057D01*
X157449192Y-80960161D01*
X157389761Y-80905036D01*
X157334335Y-80854295D01*
X157278909Y-80803555D01*
X157219479Y-80748429D01*
X157152038Y-80684534D01*
X157072582Y-80607483D01*
X156985444Y-80521155D01*
X156981979Y-80512899D01*
X156985367Y-80504610D01*
X156985374Y-80504602D01*
X157473761Y-80014839D01*
X157482030Y-80011402D01*
X157486529Y-80012295D01*
G37*
%TD.AperFunction*%
%TD*%
%TA.AperFunction,Conductor*%
%TO.N,/V-A2*%
G36*
X163982335Y-109558427D02*
G01*
X163983504Y-109559791D01*
X164034371Y-109629351D01*
X164088742Y-109698186D01*
X164143113Y-109761505D01*
X164197485Y-109819308D01*
X164251856Y-109871594D01*
X164306227Y-109918365D01*
X164360599Y-109959619D01*
X164414970Y-109995358D01*
X164414974Y-109995360D01*
X164469338Y-110025579D01*
X164469339Y-110025579D01*
X164515564Y-110046584D01*
X164521679Y-110053127D01*
X164522271Y-110059120D01*
X163841547Y-114230245D01*
X163836833Y-114237859D01*
X163828116Y-114239908D01*
X163820502Y-114235194D01*
X163818453Y-114230246D01*
X163818453Y-114230245D01*
X163137728Y-110059119D01*
X163139777Y-110050403D01*
X163144433Y-110046584D01*
X163190658Y-110025580D01*
X163245029Y-109995358D01*
X163299400Y-109959619D01*
X163353772Y-109918365D01*
X163408143Y-109871594D01*
X163462514Y-109819308D01*
X163516886Y-109761505D01*
X163571257Y-109698186D01*
X163625628Y-109629351D01*
X163676494Y-109559793D01*
X163684143Y-109555138D01*
X163685938Y-109555000D01*
X163974062Y-109555000D01*
X163982335Y-109558427D01*
G37*
%TD.AperFunction*%
%TD*%
%TA.AperFunction,Conductor*%
%TO.N,/V-A1*%
G36*
X161150167Y-109623810D02*
G01*
X161435787Y-109669058D01*
X161442655Y-109672790D01*
X161494265Y-109730167D01*
X161548648Y-109785649D01*
X161603031Y-109836152D01*
X161603038Y-109836158D01*
X161603037Y-109836158D01*
X161657415Y-109881679D01*
X161711797Y-109922225D01*
X161766180Y-109957794D01*
X161820563Y-109988384D01*
X161858920Y-110006449D01*
X161874957Y-110014002D01*
X161929327Y-110034631D01*
X161952439Y-110041284D01*
X161973729Y-110047412D01*
X161980731Y-110052993D01*
X161982039Y-110060540D01*
X161301393Y-114230233D01*
X161296678Y-114237846D01*
X161287961Y-114239895D01*
X161280348Y-114235180D01*
X161278299Y-114230233D01*
X160597862Y-110059946D01*
X160599913Y-110051229D01*
X160605515Y-110047030D01*
X160651016Y-110030973D01*
X160705745Y-110006451D01*
X160760474Y-109976720D01*
X160760479Y-109976716D01*
X160760484Y-109976714D01*
X160815207Y-109941779D01*
X160815207Y-109941778D01*
X160869932Y-109901634D01*
X160924666Y-109856273D01*
X160924665Y-109856274D01*
X160979400Y-109805703D01*
X161034119Y-109749939D01*
X161088848Y-109688957D01*
X161105302Y-109669058D01*
X161139325Y-109627910D01*
X161147237Y-109623719D01*
X161150167Y-109623810D01*
G37*
%TD.AperFunction*%
%TD*%
%TA.AperFunction,Conductor*%
%TO.N,/V-A1*%
G36*
X155594563Y-77202573D02*
G01*
X155600887Y-77208914D01*
X155601125Y-77209540D01*
X155644930Y-77335733D01*
X155645124Y-77336426D01*
X155670950Y-77456940D01*
X155671050Y-77457584D01*
X155681756Y-77564573D01*
X155681783Y-77565014D01*
X155684129Y-77662072D01*
X155684871Y-77752490D01*
X155684871Y-77752491D01*
X155690805Y-77839427D01*
X155690806Y-77839436D01*
X155708733Y-77926283D01*
X155708735Y-77926289D01*
X155745462Y-78016476D01*
X155807783Y-78113369D01*
X155807785Y-78113372D01*
X155807787Y-78113374D01*
X155895216Y-78212138D01*
X155898133Y-78220603D01*
X155894728Y-78228165D01*
X155698165Y-78424728D01*
X155689892Y-78428155D01*
X155682138Y-78425216D01*
X155583374Y-78337787D01*
X155583372Y-78337785D01*
X155583369Y-78337783D01*
X155486476Y-78275462D01*
X155441382Y-78257098D01*
X155396290Y-78238735D01*
X155396287Y-78238734D01*
X155396283Y-78238733D01*
X155309436Y-78220806D01*
X155309427Y-78220805D01*
X155222491Y-78214871D01*
X155222490Y-78214871D01*
X155132072Y-78214129D01*
X155035014Y-78211783D01*
X155034573Y-78211756D01*
X154927584Y-78201050D01*
X154926940Y-78200950D01*
X154806420Y-78175122D01*
X154805733Y-78174930D01*
X154679540Y-78131125D01*
X154672848Y-78125175D01*
X154672324Y-78116235D01*
X154672550Y-78115639D01*
X154937437Y-77473788D01*
X154943759Y-77467449D01*
X155585611Y-77202562D01*
X155594563Y-77202573D01*
G37*
%TD.AperFunction*%
%TD*%
%TA.AperFunction,Conductor*%
%TO.N,/V-A0*%
G36*
X158610167Y-109623810D02*
G01*
X158895787Y-109669058D01*
X158902655Y-109672790D01*
X158954265Y-109730167D01*
X159008648Y-109785649D01*
X159063031Y-109836152D01*
X159063038Y-109836158D01*
X159063037Y-109836158D01*
X159117415Y-109881679D01*
X159171797Y-109922225D01*
X159226180Y-109957794D01*
X159280563Y-109988384D01*
X159318920Y-110006449D01*
X159334957Y-110014002D01*
X159389327Y-110034631D01*
X159412439Y-110041284D01*
X159433729Y-110047412D01*
X159440731Y-110052993D01*
X159442039Y-110060540D01*
X158761393Y-114230233D01*
X158756678Y-114237846D01*
X158747961Y-114239895D01*
X158740348Y-114235180D01*
X158738299Y-114230233D01*
X158057862Y-110059946D01*
X158059913Y-110051229D01*
X158065515Y-110047030D01*
X158111016Y-110030973D01*
X158165745Y-110006451D01*
X158220474Y-109976720D01*
X158220479Y-109976716D01*
X158220484Y-109976714D01*
X158275207Y-109941779D01*
X158275207Y-109941778D01*
X158329932Y-109901634D01*
X158384666Y-109856273D01*
X158384665Y-109856274D01*
X158439400Y-109805703D01*
X158494119Y-109749939D01*
X158548848Y-109688957D01*
X158565302Y-109669058D01*
X158599325Y-109627910D01*
X158607237Y-109623719D01*
X158610167Y-109623810D01*
G37*
%TD.AperFunction*%
%TD*%
%TA.AperFunction,Conductor*%
%TO.N,/V-A0*%
G36*
X154940443Y-80012426D02*
G01*
X154942993Y-80016239D01*
X155207390Y-80655522D01*
X155207385Y-80664477D01*
X155201050Y-80670806D01*
X155200335Y-80671074D01*
X155114255Y-80700265D01*
X155113627Y-80700440D01*
X155019498Y-80721050D01*
X155019085Y-80721125D01*
X154929820Y-80734042D01*
X154847101Y-80744020D01*
X154772738Y-80755837D01*
X154772734Y-80755837D01*
X154708321Y-80774299D01*
X154671452Y-80795161D01*
X154655446Y-80804218D01*
X154655445Y-80804218D01*
X154655445Y-80804219D01*
X154615705Y-80850397D01*
X154615702Y-80850402D01*
X154590691Y-80917647D01*
X154590690Y-80917653D01*
X154582990Y-81000167D01*
X154578810Y-81008086D01*
X154571341Y-81010780D01*
X154293573Y-81010780D01*
X154285300Y-81007353D01*
X154281874Y-80999208D01*
X154280510Y-80874521D01*
X154276467Y-80762382D01*
X154270508Y-80668334D01*
X154263273Y-80586347D01*
X154255400Y-80510389D01*
X154247526Y-80434433D01*
X154240291Y-80352444D01*
X154234332Y-80258396D01*
X154230289Y-80146258D01*
X154228929Y-80021811D01*
X154232265Y-80013501D01*
X154240500Y-80009984D01*
X154240559Y-80009983D01*
X154932165Y-80009011D01*
X154940443Y-80012426D01*
G37*
%TD.AperFunction*%
%TD*%
%TA.AperFunction,Conductor*%
%TO.N,/V-D0*%
G36*
X153054563Y-77202573D02*
G01*
X153060887Y-77208914D01*
X153061125Y-77209540D01*
X153104930Y-77335733D01*
X153105124Y-77336426D01*
X153130950Y-77456940D01*
X153131050Y-77457584D01*
X153141756Y-77564573D01*
X153141783Y-77565014D01*
X153144129Y-77662072D01*
X153144871Y-77752490D01*
X153144871Y-77752491D01*
X153150805Y-77839427D01*
X153150806Y-77839436D01*
X153168733Y-77926283D01*
X153168735Y-77926289D01*
X153205462Y-78016476D01*
X153267783Y-78113369D01*
X153267785Y-78113372D01*
X153267787Y-78113374D01*
X153355216Y-78212138D01*
X153358133Y-78220603D01*
X153354728Y-78228165D01*
X153158165Y-78424728D01*
X153149892Y-78428155D01*
X153142138Y-78425216D01*
X153043374Y-78337787D01*
X153043372Y-78337785D01*
X153043369Y-78337783D01*
X152946476Y-78275462D01*
X152901382Y-78257098D01*
X152856290Y-78238735D01*
X152856287Y-78238734D01*
X152856283Y-78238733D01*
X152769436Y-78220806D01*
X152769427Y-78220805D01*
X152682491Y-78214871D01*
X152682490Y-78214871D01*
X152592072Y-78214129D01*
X152495014Y-78211783D01*
X152494573Y-78211756D01*
X152387584Y-78201050D01*
X152386940Y-78200950D01*
X152266420Y-78175122D01*
X152265733Y-78174930D01*
X152139540Y-78131125D01*
X152132848Y-78125175D01*
X152132324Y-78116235D01*
X152132550Y-78115639D01*
X152397437Y-77473788D01*
X152403759Y-77467449D01*
X153045611Y-77202562D01*
X153054563Y-77202573D01*
G37*
%TD.AperFunction*%
%TD*%
%TA.AperFunction,Conductor*%
%TO.N,/V-D0*%
G36*
X156358535Y-109625901D02*
G01*
X156360675Y-109627911D01*
X156411151Y-109688957D01*
X156465880Y-109749939D01*
X156520599Y-109805703D01*
X156575334Y-109856274D01*
X156575333Y-109856273D01*
X156630067Y-109901634D01*
X156684792Y-109941778D01*
X156684792Y-109941779D01*
X156739515Y-109976714D01*
X156739519Y-109976716D01*
X156739525Y-109976720D01*
X156794254Y-110006451D01*
X156848983Y-110030973D01*
X156859349Y-110034631D01*
X156894483Y-110047030D01*
X156901144Y-110053015D01*
X156902136Y-110059947D01*
X156221700Y-114230232D01*
X156216986Y-114237845D01*
X156208269Y-114239895D01*
X156200656Y-114235181D01*
X156198606Y-114230233D01*
X156198606Y-114230232D01*
X155517960Y-110060538D01*
X155520009Y-110051823D01*
X155526269Y-110047413D01*
X155551609Y-110040118D01*
X155570672Y-110034631D01*
X155625042Y-110014002D01*
X155641079Y-110006449D01*
X155679436Y-109988384D01*
X155733819Y-109957794D01*
X155788202Y-109922225D01*
X155842584Y-109881679D01*
X155896962Y-109836158D01*
X155896961Y-109836158D01*
X155896968Y-109836152D01*
X155951351Y-109785649D01*
X156005734Y-109730167D01*
X156057344Y-109672790D01*
X156064212Y-109669058D01*
X156349828Y-109623811D01*
X156358535Y-109625901D01*
G37*
%TD.AperFunction*%
%TD*%
%TA.AperFunction,Conductor*%
%TO.N,/V-D1*%
G36*
X153822335Y-109558427D02*
G01*
X153823504Y-109559791D01*
X153874371Y-109629351D01*
X153928742Y-109698186D01*
X153983113Y-109761505D01*
X154037485Y-109819308D01*
X154091856Y-109871594D01*
X154146227Y-109918365D01*
X154200599Y-109959619D01*
X154254970Y-109995358D01*
X154254974Y-109995360D01*
X154309338Y-110025579D01*
X154309339Y-110025579D01*
X154355564Y-110046584D01*
X154361679Y-110053127D01*
X154362271Y-110059120D01*
X153681547Y-114230245D01*
X153676833Y-114237859D01*
X153668116Y-114239908D01*
X153660502Y-114235194D01*
X153658453Y-114230246D01*
X153658453Y-114230245D01*
X152977728Y-110059119D01*
X152979777Y-110050403D01*
X152984433Y-110046584D01*
X153030658Y-110025580D01*
X153085029Y-109995358D01*
X153139400Y-109959619D01*
X153193772Y-109918365D01*
X153248143Y-109871594D01*
X153302514Y-109819308D01*
X153356886Y-109761505D01*
X153411257Y-109698186D01*
X153465628Y-109629351D01*
X153516494Y-109559793D01*
X153524143Y-109555138D01*
X153525938Y-109555000D01*
X153814062Y-109555000D01*
X153822335Y-109558427D01*
G37*
%TD.AperFunction*%
%TD*%
%TA.AperFunction,Conductor*%
%TO.N,/V-D1*%
G36*
X150514563Y-79742573D02*
G01*
X150520887Y-79748914D01*
X150521125Y-79749540D01*
X150564930Y-79875733D01*
X150565124Y-79876426D01*
X150590950Y-79996940D01*
X150591050Y-79997584D01*
X150601756Y-80104573D01*
X150601783Y-80105014D01*
X150604129Y-80202072D01*
X150604871Y-80292490D01*
X150604871Y-80292491D01*
X150610805Y-80379427D01*
X150610806Y-80379436D01*
X150628733Y-80466283D01*
X150628735Y-80466289D01*
X150665462Y-80556476D01*
X150727783Y-80653369D01*
X150727785Y-80653372D01*
X150727787Y-80653374D01*
X150815216Y-80752138D01*
X150818133Y-80760603D01*
X150814728Y-80768165D01*
X150618165Y-80964728D01*
X150609892Y-80968155D01*
X150602138Y-80965216D01*
X150503374Y-80877787D01*
X150503372Y-80877785D01*
X150503369Y-80877783D01*
X150406476Y-80815462D01*
X150361382Y-80797098D01*
X150316290Y-80778735D01*
X150316287Y-80778734D01*
X150316283Y-80778733D01*
X150229436Y-80760806D01*
X150229427Y-80760805D01*
X150142491Y-80754871D01*
X150142490Y-80754871D01*
X150052072Y-80754129D01*
X149955014Y-80751783D01*
X149954573Y-80751756D01*
X149847584Y-80741050D01*
X149846940Y-80740950D01*
X149726420Y-80715122D01*
X149725733Y-80714930D01*
X149599540Y-80671125D01*
X149592848Y-80665175D01*
X149592324Y-80656235D01*
X149592550Y-80655639D01*
X149857437Y-80013788D01*
X149863759Y-80007449D01*
X150505611Y-79742562D01*
X150514563Y-79742573D01*
G37*
%TD.AperFunction*%
%TD*%
%TA.AperFunction,Conductor*%
%TO.N,/V-D2*%
G36*
X151657860Y-79054782D02*
G01*
X151756625Y-79142212D01*
X151756627Y-79142213D01*
X151756629Y-79142215D01*
X151853522Y-79204536D01*
X151853524Y-79204537D01*
X151943708Y-79241263D01*
X151972663Y-79247239D01*
X152030562Y-79259191D01*
X152030567Y-79259191D01*
X152030574Y-79259193D01*
X152084875Y-79262899D01*
X152117508Y-79265128D01*
X152117509Y-79265128D01*
X152207926Y-79265869D01*
X152304984Y-79268214D01*
X152305416Y-79268240D01*
X152358408Y-79273542D01*
X152412414Y-79278947D01*
X152413044Y-79279044D01*
X152533585Y-79304877D01*
X152534259Y-79305066D01*
X152628917Y-79337925D01*
X152660459Y-79348874D01*
X152667151Y-79354824D01*
X152667675Y-79363764D01*
X152667437Y-79364390D01*
X152402562Y-80006210D01*
X152396238Y-80012551D01*
X152396210Y-80012562D01*
X151754390Y-80277437D01*
X151745436Y-80277426D01*
X151739112Y-80271085D01*
X151738874Y-80270459D01*
X151695068Y-80144264D01*
X151694877Y-80143585D01*
X151669044Y-80023044D01*
X151668947Y-80022414D01*
X151658241Y-79915425D01*
X151658214Y-79914984D01*
X151655869Y-79817926D01*
X151655128Y-79727509D01*
X151655128Y-79727508D01*
X151652899Y-79694875D01*
X151649193Y-79640574D01*
X151631263Y-79553708D01*
X151594537Y-79463524D01*
X151532212Y-79366625D01*
X151444782Y-79267860D01*
X151441866Y-79259396D01*
X151445270Y-79251835D01*
X151641835Y-79055270D01*
X151650107Y-79051844D01*
X151657860Y-79054782D01*
G37*
%TD.AperFunction*%
%TD*%
%TA.AperFunction,Conductor*%
%TO.N,/V-D2*%
G36*
X151282335Y-109558427D02*
G01*
X151283504Y-109559791D01*
X151334371Y-109629351D01*
X151388742Y-109698186D01*
X151443113Y-109761505D01*
X151497485Y-109819308D01*
X151551856Y-109871594D01*
X151606227Y-109918365D01*
X151660599Y-109959619D01*
X151714970Y-109995358D01*
X151714974Y-109995360D01*
X151769338Y-110025579D01*
X151769339Y-110025579D01*
X151815564Y-110046584D01*
X151821679Y-110053127D01*
X151822271Y-110059120D01*
X151141547Y-114230245D01*
X151136833Y-114237859D01*
X151128116Y-114239908D01*
X151120502Y-114235194D01*
X151118453Y-114230246D01*
X151118453Y-114230245D01*
X150437728Y-110059119D01*
X150439777Y-110050403D01*
X150444433Y-110046584D01*
X150490658Y-110025580D01*
X150545029Y-109995358D01*
X150599400Y-109959619D01*
X150653772Y-109918365D01*
X150708143Y-109871594D01*
X150762514Y-109819308D01*
X150816886Y-109761505D01*
X150871257Y-109698186D01*
X150925628Y-109629351D01*
X150976494Y-109559793D01*
X150984143Y-109555138D01*
X150985938Y-109555000D01*
X151274062Y-109555000D01*
X151282335Y-109558427D01*
G37*
%TD.AperFunction*%
%TD*%
%TA.AperFunction,Conductor*%
%TO.N,/V-A12*%
G36*
X143370167Y-109623810D02*
G01*
X143655787Y-109669058D01*
X143662655Y-109672790D01*
X143714265Y-109730167D01*
X143768648Y-109785649D01*
X143823031Y-109836152D01*
X143823038Y-109836158D01*
X143823037Y-109836158D01*
X143877415Y-109881679D01*
X143931797Y-109922225D01*
X143986180Y-109957794D01*
X144040563Y-109988384D01*
X144078920Y-110006449D01*
X144094957Y-110014002D01*
X144149327Y-110034631D01*
X144172439Y-110041284D01*
X144193729Y-110047412D01*
X144200731Y-110052993D01*
X144202039Y-110060540D01*
X143521393Y-114230233D01*
X143516678Y-114237846D01*
X143507961Y-114239895D01*
X143500348Y-114235180D01*
X143498299Y-114230233D01*
X142817862Y-110059946D01*
X142819913Y-110051229D01*
X142825515Y-110047030D01*
X142871016Y-110030973D01*
X142925745Y-110006451D01*
X142980474Y-109976720D01*
X142980479Y-109976716D01*
X142980484Y-109976714D01*
X143035207Y-109941779D01*
X143035207Y-109941778D01*
X143089932Y-109901634D01*
X143144666Y-109856273D01*
X143144665Y-109856274D01*
X143199400Y-109805703D01*
X143254119Y-109749939D01*
X143308848Y-109688957D01*
X143325302Y-109669058D01*
X143359325Y-109627910D01*
X143367237Y-109623719D01*
X143370167Y-109623810D01*
G37*
%TD.AperFunction*%
%TD*%
%TA.AperFunction,Conductor*%
%TO.N,/V-A12*%
G36*
X143913457Y-108309455D02*
G01*
X144219884Y-108435511D01*
X144268075Y-108455336D01*
X144274422Y-108461652D01*
X144274443Y-108461702D01*
X144420356Y-108816096D01*
X144420337Y-108825050D01*
X144413991Y-108831369D01*
X144413366Y-108831606D01*
X144357072Y-108851102D01*
X144356401Y-108851290D01*
X144296231Y-108864381D01*
X144295652Y-108864477D01*
X144241649Y-108870656D01*
X144241302Y-108870685D01*
X144192076Y-108873364D01*
X144192077Y-108873364D01*
X144146547Y-108875951D01*
X144120811Y-108879510D01*
X144103653Y-108881884D01*
X144062170Y-108894609D01*
X144020887Y-108917567D01*
X143978556Y-108954215D01*
X143978546Y-108954225D01*
X143940965Y-108999548D01*
X143933047Y-109003729D01*
X143925082Y-109001545D01*
X143700473Y-108838347D01*
X143695794Y-108830712D01*
X143697700Y-108822267D01*
X143734773Y-108768204D01*
X143734774Y-108768202D01*
X143734775Y-108768202D01*
X143766852Y-108713888D01*
X143766851Y-108713888D01*
X143789910Y-108666192D01*
X143806379Y-108622581D01*
X143818681Y-108580514D01*
X143829236Y-108537472D01*
X143840469Y-108490920D01*
X143840469Y-108490919D01*
X143854772Y-108438428D01*
X143854829Y-108438237D01*
X143874609Y-108377309D01*
X143874705Y-108377039D01*
X143898149Y-108316098D01*
X143904318Y-108309609D01*
X143913270Y-108309381D01*
X143913457Y-108309455D01*
G37*
%TD.AperFunction*%
%TD*%
%TA.AperFunction,Conductor*%
%TO.N,/V-A13*%
G36*
X170327377Y-94297312D02*
G01*
X170330774Y-94304754D01*
X170335384Y-94369487D01*
X170335385Y-94369496D01*
X170350868Y-94427654D01*
X170350870Y-94427661D01*
X170375437Y-94472115D01*
X170375437Y-94472116D01*
X170408080Y-94506602D01*
X170408081Y-94506602D01*
X170447787Y-94534849D01*
X170493543Y-94560589D01*
X170544338Y-94587557D01*
X170598955Y-94619365D01*
X170599359Y-94619624D01*
X170656731Y-94659919D01*
X170657243Y-94660323D01*
X170707561Y-94704929D01*
X170711479Y-94712980D01*
X170708555Y-94721444D01*
X170708088Y-94721942D01*
X170437441Y-94993546D01*
X170429174Y-94996987D01*
X170429124Y-94996987D01*
X170045657Y-94996029D01*
X170037392Y-94992581D01*
X170033986Y-94984343D01*
X170033888Y-94900511D01*
X170033584Y-94821873D01*
X170033136Y-94755875D01*
X170032592Y-94698302D01*
X170031408Y-94591582D01*
X170030864Y-94534009D01*
X170030416Y-94468011D01*
X170030112Y-94389373D01*
X170030014Y-94305599D01*
X170033431Y-94297322D01*
X170041700Y-94293885D01*
X170319104Y-94293885D01*
X170327377Y-94297312D01*
G37*
%TD.AperFunction*%
%TD*%
%TA.AperFunction,Conductor*%
%TO.N,/V-A13*%
G36*
X141122335Y-109558427D02*
G01*
X141123504Y-109559791D01*
X141174371Y-109629351D01*
X141228742Y-109698186D01*
X141283113Y-109761505D01*
X141337485Y-109819308D01*
X141391856Y-109871594D01*
X141446227Y-109918365D01*
X141500599Y-109959619D01*
X141554970Y-109995358D01*
X141554974Y-109995360D01*
X141609338Y-110025579D01*
X141609339Y-110025579D01*
X141655564Y-110046584D01*
X141661679Y-110053127D01*
X141662271Y-110059120D01*
X140981547Y-114230245D01*
X140976833Y-114237859D01*
X140968116Y-114239908D01*
X140960502Y-114235194D01*
X140958453Y-114230246D01*
X140958453Y-114230245D01*
X140277728Y-110059119D01*
X140279777Y-110050403D01*
X140284433Y-110046584D01*
X140330658Y-110025580D01*
X140385029Y-109995358D01*
X140439400Y-109959619D01*
X140493772Y-109918365D01*
X140548143Y-109871594D01*
X140602514Y-109819308D01*
X140656886Y-109761505D01*
X140711257Y-109698186D01*
X140765628Y-109629351D01*
X140816494Y-109559793D01*
X140824143Y-109555138D01*
X140825938Y-109555000D01*
X141114062Y-109555000D01*
X141122335Y-109558427D01*
G37*
%TD.AperFunction*%
%TD*%
%TA.AperFunction,Conductor*%
%TO.N,/V-A14*%
G36*
X138582335Y-109558427D02*
G01*
X138583504Y-109559791D01*
X138634371Y-109629351D01*
X138688742Y-109698186D01*
X138743113Y-109761505D01*
X138797485Y-109819308D01*
X138851856Y-109871594D01*
X138906227Y-109918365D01*
X138960599Y-109959619D01*
X139014970Y-109995358D01*
X139014974Y-109995360D01*
X139069338Y-110025579D01*
X139069339Y-110025579D01*
X139115564Y-110046584D01*
X139121679Y-110053127D01*
X139122271Y-110059120D01*
X138441547Y-114230245D01*
X138436833Y-114237859D01*
X138428116Y-114239908D01*
X138420502Y-114235194D01*
X138418453Y-114230246D01*
X138418453Y-114230245D01*
X137737728Y-110059119D01*
X137739777Y-110050403D01*
X137744433Y-110046584D01*
X137790658Y-110025580D01*
X137845029Y-109995358D01*
X137899400Y-109959619D01*
X137953772Y-109918365D01*
X138008143Y-109871594D01*
X138062514Y-109819308D01*
X138116886Y-109761505D01*
X138171257Y-109698186D01*
X138225628Y-109629351D01*
X138276494Y-109559793D01*
X138284143Y-109555138D01*
X138285938Y-109555000D01*
X138574062Y-109555000D01*
X138582335Y-109558427D01*
G37*
%TD.AperFunction*%
%TD*%
%TA.AperFunction,Conductor*%
%TO.N,/V-A14*%
G36*
X173755899Y-87833963D02*
G01*
X173759321Y-87841905D01*
X173761618Y-87923133D01*
X173761619Y-87923141D01*
X173761618Y-87923140D01*
X173769282Y-87998678D01*
X173769284Y-87998689D01*
X173781717Y-88061265D01*
X173781719Y-88061272D01*
X173798635Y-88114930D01*
X173798639Y-88114941D01*
X173819758Y-88163754D01*
X173844799Y-88211788D01*
X173873481Y-88263113D01*
X173905522Y-88321790D01*
X173940583Y-88391774D01*
X173940701Y-88392025D01*
X173973707Y-88466527D01*
X173973925Y-88475479D01*
X173967749Y-88481963D01*
X173967512Y-88482065D01*
X173613502Y-88629659D01*
X173604548Y-88629680D01*
X173604498Y-88629659D01*
X173250487Y-88482065D01*
X173244169Y-88475718D01*
X173244190Y-88466764D01*
X173244270Y-88466577D01*
X173277312Y-88391988D01*
X173277404Y-88391793D01*
X173312477Y-88321790D01*
X173344517Y-88263113D01*
X173373200Y-88211788D01*
X173373200Y-88211787D01*
X173398241Y-88163754D01*
X173419359Y-88114941D01*
X173419364Y-88114930D01*
X173436282Y-88061265D01*
X173448715Y-87998688D01*
X173448870Y-87997153D01*
X173456381Y-87923140D01*
X173456380Y-87923141D01*
X173456381Y-87923133D01*
X173458678Y-87841903D01*
X173462337Y-87833732D01*
X173470373Y-87830536D01*
X173747626Y-87830536D01*
X173755899Y-87833963D01*
G37*
%TD.AperFunction*%
%TD*%
%TA.AperFunction,Conductor*%
%TO.N,/V-RW*%
G36*
X177692899Y-90389427D02*
G01*
X177696321Y-90397369D01*
X177698618Y-90478597D01*
X177698619Y-90478605D01*
X177698618Y-90478604D01*
X177706282Y-90554142D01*
X177706284Y-90554153D01*
X177718717Y-90616729D01*
X177718719Y-90616736D01*
X177735635Y-90670394D01*
X177735639Y-90670405D01*
X177756758Y-90719218D01*
X177781799Y-90767252D01*
X177810481Y-90818577D01*
X177842522Y-90877254D01*
X177877583Y-90947238D01*
X177877701Y-90947489D01*
X177910707Y-91021991D01*
X177910925Y-91030943D01*
X177904749Y-91037427D01*
X177904512Y-91037529D01*
X177550502Y-91185123D01*
X177541548Y-91185144D01*
X177541498Y-91185123D01*
X177187487Y-91037529D01*
X177181169Y-91031182D01*
X177181190Y-91022228D01*
X177181270Y-91022041D01*
X177214312Y-90947452D01*
X177214404Y-90947257D01*
X177249477Y-90877254D01*
X177281517Y-90818577D01*
X177310200Y-90767252D01*
X177310200Y-90767251D01*
X177335241Y-90719218D01*
X177356359Y-90670405D01*
X177356364Y-90670394D01*
X177373282Y-90616729D01*
X177385715Y-90554152D01*
X177385870Y-90552617D01*
X177393381Y-90478604D01*
X177393380Y-90478605D01*
X177393381Y-90478597D01*
X177395678Y-90397367D01*
X177399337Y-90389196D01*
X177407373Y-90386000D01*
X177684626Y-90386000D01*
X177692899Y-90389427D01*
G37*
%TD.AperFunction*%
%TD*%
%TA.AperFunction,Conductor*%
%TO.N,/V-RW*%
G36*
X171663661Y-93316291D02*
G01*
X171859708Y-93512338D01*
X171863135Y-93520611D01*
X171859939Y-93528647D01*
X171804125Y-93587708D01*
X171804126Y-93587707D01*
X171756123Y-93646550D01*
X171756122Y-93646552D01*
X171720666Y-93699591D01*
X171720662Y-93699597D01*
X171694681Y-93749500D01*
X171694678Y-93749506D01*
X171675095Y-93798957D01*
X171658833Y-93850636D01*
X171642822Y-93907209D01*
X171623988Y-93971356D01*
X171599295Y-94045632D01*
X171599201Y-94045893D01*
X171569858Y-94121914D01*
X171563682Y-94128398D01*
X171554730Y-94128616D01*
X171554491Y-94128521D01*
X171199804Y-93982563D01*
X171193457Y-93976245D01*
X171193436Y-93976195D01*
X171120501Y-93798959D01*
X171047477Y-93621507D01*
X171047499Y-93612553D01*
X171053846Y-93606235D01*
X171053991Y-93606177D01*
X171130136Y-93576785D01*
X171130350Y-93576708D01*
X171204642Y-93552010D01*
X171268789Y-93533176D01*
X171325363Y-93517165D01*
X171377039Y-93500904D01*
X171426495Y-93481319D01*
X171476404Y-93455335D01*
X171529444Y-93419878D01*
X171588291Y-93371874D01*
X171647354Y-93316059D01*
X171655719Y-93312869D01*
X171663661Y-93316291D01*
G37*
%TD.AperFunction*%
%TD*%
%TA.AperFunction,Conductor*%
%TO.N,/V-RW*%
G36*
X163214563Y-87362573D02*
G01*
X163220887Y-87368914D01*
X163221125Y-87369540D01*
X163264930Y-87495733D01*
X163265124Y-87496426D01*
X163290950Y-87616940D01*
X163291050Y-87617584D01*
X163301756Y-87724573D01*
X163301783Y-87725014D01*
X163304129Y-87822072D01*
X163304871Y-87912490D01*
X163304871Y-87912491D01*
X163310805Y-87999427D01*
X163310806Y-87999436D01*
X163328733Y-88086283D01*
X163328735Y-88086289D01*
X163365462Y-88176476D01*
X163427783Y-88273369D01*
X163427785Y-88273372D01*
X163427787Y-88273374D01*
X163515216Y-88372138D01*
X163518133Y-88380603D01*
X163514728Y-88388165D01*
X163318165Y-88584728D01*
X163309892Y-88588155D01*
X163302138Y-88585216D01*
X163203374Y-88497787D01*
X163203372Y-88497785D01*
X163203369Y-88497783D01*
X163106476Y-88435462D01*
X163061382Y-88417098D01*
X163016290Y-88398735D01*
X163016287Y-88398734D01*
X163016283Y-88398733D01*
X162929436Y-88380806D01*
X162929427Y-88380805D01*
X162842491Y-88374871D01*
X162842490Y-88374871D01*
X162752072Y-88374129D01*
X162655014Y-88371783D01*
X162654573Y-88371756D01*
X162547584Y-88361050D01*
X162546940Y-88360950D01*
X162426420Y-88335122D01*
X162425733Y-88334930D01*
X162299540Y-88291125D01*
X162292848Y-88285175D01*
X162292324Y-88276235D01*
X162292550Y-88275639D01*
X162557437Y-87633788D01*
X162563759Y-87627449D01*
X163205611Y-87362562D01*
X163214563Y-87362573D01*
G37*
%TD.AperFunction*%
%TD*%
%TA.AperFunction,Conductor*%
%TO.N,/V-RW*%
G36*
X177397427Y-90827250D02*
G01*
X177397529Y-90827487D01*
X177545123Y-91181497D01*
X177545144Y-91190451D01*
X177545123Y-91190501D01*
X177397529Y-91544512D01*
X177391182Y-91550830D01*
X177382228Y-91550809D01*
X177381991Y-91550707D01*
X177307489Y-91517701D01*
X177307238Y-91517583D01*
X177237254Y-91482522D01*
X177178577Y-91450481D01*
X177127252Y-91421799D01*
X177079218Y-91396758D01*
X177030405Y-91375639D01*
X177030394Y-91375635D01*
X176976736Y-91358719D01*
X176976729Y-91358717D01*
X176914153Y-91346284D01*
X176914142Y-91346282D01*
X176838604Y-91338618D01*
X176838597Y-91338618D01*
X176786660Y-91337149D01*
X176757369Y-91336321D01*
X176749196Y-91332662D01*
X176746000Y-91324626D01*
X176746000Y-91047373D01*
X176749427Y-91039100D01*
X176757367Y-91035678D01*
X176838597Y-91033381D01*
X176838604Y-91033380D01*
X176838604Y-91033381D01*
X176914142Y-91025716D01*
X176914141Y-91025716D01*
X176914152Y-91025715D01*
X176976729Y-91013282D01*
X177030394Y-90996364D01*
X177079213Y-90975243D01*
X177079211Y-90975243D01*
X177079218Y-90975241D01*
X177127252Y-90950200D01*
X177178577Y-90921517D01*
X177237254Y-90889477D01*
X177307257Y-90854404D01*
X177307452Y-90854312D01*
X177381992Y-90821291D01*
X177390943Y-90821074D01*
X177397427Y-90827250D01*
G37*
%TD.AperFunction*%
%TD*%
%TA.AperFunction,Conductor*%
%TO.N,/V-RW*%
G36*
X142800203Y-103890965D02*
G01*
X142996569Y-104087331D01*
X142999996Y-104095604D01*
X142996726Y-104103717D01*
X142933527Y-104169392D01*
X142877689Y-104232795D01*
X142833329Y-104288305D01*
X142796632Y-104338542D01*
X142763763Y-104386144D01*
X142730895Y-104433747D01*
X142694197Y-104483984D01*
X142649929Y-104539379D01*
X142649749Y-104539594D01*
X142594000Y-104602897D01*
X142531092Y-104668270D01*
X142522886Y-104671855D01*
X142514548Y-104668588D01*
X142514409Y-104668451D01*
X142240964Y-104396369D01*
X142238396Y-104392527D01*
X142119547Y-104103717D01*
X142091727Y-104036112D01*
X142091748Y-104027159D01*
X142098095Y-104020841D01*
X142098912Y-104020539D01*
X142179676Y-103994204D01*
X142181542Y-103993761D01*
X142262665Y-103981452D01*
X142264418Y-103981321D01*
X142337557Y-103981325D01*
X142338140Y-103981357D01*
X142405635Y-103988558D01*
X142405636Y-103988559D01*
X142468970Y-103997652D01*
X142468978Y-103997652D01*
X142468987Y-103997654D01*
X142529998Y-104003247D01*
X142529999Y-104003246D01*
X142530000Y-104003247D01*
X142547359Y-104002311D01*
X142590765Y-103999974D01*
X142653382Y-103982470D01*
X142719947Y-103945372D01*
X142784329Y-103890343D01*
X142792844Y-103887574D01*
X142800203Y-103890965D01*
G37*
%TD.AperFunction*%
%TD*%
%TA.AperFunction,Conductor*%
%TO.N,/V-RW*%
G36*
X163976899Y-91913427D02*
G01*
X163980321Y-91921369D01*
X163982618Y-92002597D01*
X163982619Y-92002605D01*
X163982618Y-92002604D01*
X163990282Y-92078142D01*
X163990284Y-92078153D01*
X164002717Y-92140729D01*
X164002719Y-92140736D01*
X164019635Y-92194394D01*
X164019639Y-92194405D01*
X164040758Y-92243218D01*
X164065799Y-92291252D01*
X164094481Y-92342577D01*
X164126522Y-92401254D01*
X164161583Y-92471238D01*
X164161701Y-92471489D01*
X164194707Y-92545991D01*
X164194925Y-92554943D01*
X164188749Y-92561427D01*
X164188512Y-92561529D01*
X163834502Y-92709123D01*
X163825548Y-92709144D01*
X163825498Y-92709123D01*
X163471487Y-92561529D01*
X163465169Y-92555182D01*
X163465190Y-92546228D01*
X163465270Y-92546041D01*
X163498312Y-92471452D01*
X163498404Y-92471257D01*
X163533477Y-92401254D01*
X163565517Y-92342577D01*
X163594200Y-92291252D01*
X163619241Y-92243218D01*
X163640359Y-92194405D01*
X163640364Y-92194394D01*
X163657282Y-92140729D01*
X163669715Y-92078152D01*
X163669870Y-92076617D01*
X163677381Y-92002604D01*
X163677380Y-92002605D01*
X163677381Y-92002597D01*
X163679678Y-91921367D01*
X163683337Y-91913196D01*
X163691373Y-91910000D01*
X163968626Y-91910000D01*
X163976899Y-91913427D01*
G37*
%TD.AperFunction*%
%TD*%
%TA.AperFunction,Conductor*%
%TO.N,/PB6*%
G36*
X141881507Y-102721478D02*
G01*
X141972779Y-102759037D01*
X142236195Y-102867436D01*
X142242542Y-102873754D01*
X142242563Y-102873804D01*
X142388521Y-103228491D01*
X142388500Y-103237445D01*
X142382153Y-103243763D01*
X142381914Y-103243858D01*
X142305893Y-103273201D01*
X142305632Y-103273295D01*
X142231355Y-103297988D01*
X142231356Y-103297988D01*
X142167209Y-103316822D01*
X142110636Y-103332833D01*
X142058959Y-103349094D01*
X142034231Y-103358886D01*
X142009506Y-103368678D01*
X142009500Y-103368681D01*
X141959597Y-103394662D01*
X141959591Y-103394666D01*
X141906552Y-103430122D01*
X141906550Y-103430123D01*
X141855197Y-103472015D01*
X141847708Y-103478125D01*
X141788647Y-103533939D01*
X141780280Y-103537130D01*
X141772338Y-103533708D01*
X141576291Y-103337661D01*
X141572864Y-103329388D01*
X141576059Y-103321354D01*
X141631874Y-103262291D01*
X141679878Y-103203444D01*
X141715335Y-103150404D01*
X141741319Y-103100495D01*
X141760904Y-103051039D01*
X141777165Y-102999363D01*
X141793176Y-102942789D01*
X141812010Y-102878642D01*
X141836708Y-102804350D01*
X141836785Y-102804136D01*
X141866141Y-102728083D01*
X141872316Y-102721601D01*
X141881268Y-102721383D01*
X141881507Y-102721478D01*
G37*
%TD.AperFunction*%
%TD*%
%TA.AperFunction,Conductor*%
%TO.N,/PB6*%
G36*
X136042335Y-109558427D02*
G01*
X136043504Y-109559791D01*
X136094371Y-109629351D01*
X136148742Y-109698186D01*
X136203113Y-109761505D01*
X136257485Y-109819308D01*
X136311856Y-109871594D01*
X136366227Y-109918365D01*
X136420599Y-109959619D01*
X136474970Y-109995358D01*
X136474974Y-109995360D01*
X136529338Y-110025579D01*
X136529339Y-110025579D01*
X136575564Y-110046584D01*
X136581679Y-110053127D01*
X136582271Y-110059120D01*
X135901547Y-114230245D01*
X135896833Y-114237859D01*
X135888116Y-114239908D01*
X135880502Y-114235194D01*
X135878453Y-114230246D01*
X135878453Y-114230245D01*
X135197728Y-110059119D01*
X135199777Y-110050403D01*
X135204433Y-110046584D01*
X135250658Y-110025580D01*
X135305029Y-109995358D01*
X135359400Y-109959619D01*
X135413772Y-109918365D01*
X135468143Y-109871594D01*
X135522514Y-109819308D01*
X135576886Y-109761505D01*
X135631257Y-109698186D01*
X135685628Y-109629351D01*
X135736494Y-109559793D01*
X135744143Y-109555138D01*
X135745938Y-109555000D01*
X136034062Y-109555000D01*
X136042335Y-109558427D01*
G37*
%TD.AperFunction*%
%TD*%
%TA.AperFunction,Conductor*%
%TO.N,/V-A15*%
G36*
X165246899Y-104613427D02*
G01*
X165250321Y-104621369D01*
X165252618Y-104702597D01*
X165252619Y-104702605D01*
X165252618Y-104702604D01*
X165260282Y-104778142D01*
X165260284Y-104778153D01*
X165272717Y-104840729D01*
X165272719Y-104840736D01*
X165289635Y-104894394D01*
X165289639Y-104894405D01*
X165310758Y-104943218D01*
X165335799Y-104991252D01*
X165364481Y-105042577D01*
X165396522Y-105101254D01*
X165431583Y-105171238D01*
X165431701Y-105171489D01*
X165464707Y-105245991D01*
X165464925Y-105254943D01*
X165458749Y-105261427D01*
X165458512Y-105261529D01*
X165104502Y-105409123D01*
X165095548Y-105409144D01*
X165095498Y-105409123D01*
X164741487Y-105261529D01*
X164735169Y-105255182D01*
X164735190Y-105246228D01*
X164735270Y-105246041D01*
X164768312Y-105171452D01*
X164768404Y-105171257D01*
X164803477Y-105101254D01*
X164835517Y-105042577D01*
X164864200Y-104991252D01*
X164864200Y-104991251D01*
X164889241Y-104943218D01*
X164910359Y-104894405D01*
X164910364Y-104894394D01*
X164927282Y-104840729D01*
X164939715Y-104778152D01*
X164939870Y-104776617D01*
X164947381Y-104702604D01*
X164947380Y-104702605D01*
X164947381Y-104702597D01*
X164949678Y-104621367D01*
X164953337Y-104613196D01*
X164961373Y-104610000D01*
X165238626Y-104610000D01*
X165246899Y-104613427D01*
G37*
%TD.AperFunction*%
%TD*%
%TA.AperFunction,Conductor*%
%TO.N,/V-A15*%
G36*
X165458512Y-89429470D02*
G01*
X165464830Y-89435817D01*
X165464809Y-89444771D01*
X165464707Y-89445008D01*
X165431701Y-89519509D01*
X165431583Y-89519760D01*
X165396522Y-89589744D01*
X165364481Y-89648421D01*
X165335799Y-89699746D01*
X165310758Y-89747780D01*
X165289639Y-89796593D01*
X165289635Y-89796604D01*
X165272719Y-89850262D01*
X165272717Y-89850269D01*
X165260284Y-89912845D01*
X165260282Y-89912856D01*
X165252618Y-89988394D01*
X165252619Y-89988393D01*
X165252618Y-89988401D01*
X165251141Y-90040638D01*
X165250321Y-90069631D01*
X165246662Y-90077804D01*
X165238626Y-90081000D01*
X164961373Y-90081000D01*
X164953100Y-90077573D01*
X164949678Y-90069631D01*
X164947381Y-89988401D01*
X164947380Y-89988393D01*
X164947381Y-89988394D01*
X164939716Y-89912856D01*
X164939715Y-89912854D01*
X164939715Y-89912847D01*
X164927282Y-89850270D01*
X164910364Y-89796605D01*
X164889243Y-89747785D01*
X164889241Y-89747780D01*
X164864200Y-89699746D01*
X164835517Y-89648421D01*
X164803477Y-89589744D01*
X164768414Y-89519760D01*
X164768305Y-89519528D01*
X164735291Y-89445007D01*
X164735074Y-89436056D01*
X164741250Y-89429572D01*
X164741439Y-89429490D01*
X165095500Y-89281875D01*
X165104449Y-89281855D01*
X165458512Y-89429470D01*
G37*
%TD.AperFunction*%
%TD*%
M02*
