<?xml version="1.0" standalone="no"?>
<!DOCTYPE svg PUBLIC "-//W3C//DTD SVG 20010904//EN"
 "http://www.w3.org/TR/2001/REC-SVG-20010904/DTD/svg10.dtd">
<svg version="1.0" xmlns="http://www.w3.org/2000/svg"
 width="917.000000pt" height="351.000000pt" viewBox="0 0 917.000000 351.000000"
 preserveAspectRatio="xMidYMid meet">

<g transform="translate(0.000000,351.000000) scale(0.100000,-0.100000)"
fill="#000000" stroke="none">
<path d="M5839 3500 c-54 -5 -130 -15 -170 -24 -41 -8 -102 -17 -136 -21 l-63
-7 0 -35 0 -36 43 7 c23 3 121 17 217 31 475 69 1016 29 1420 -105 187 -62
399 -175 510 -272 25 -22 50 -43 55 -47 6 -5 26 -28 45 -51 19 -24 42 -51 50
-59 8 -9 21 -29 28 -44 12 -27 11 -29 -23 -43 -34 -14 -38 -13 -65 8 -16 13
-29 27 -29 32 -1 14 -89 94 -136 124 -22 14 -49 34 -61 44 -30 26 -166 95
-264 133 -350 136 -653 189 -1070 188 -129 0 -253 -3 -275 -7 -22 -3 -78 -11
-125 -17 -92 -12 -334 -58 -470 -90 -234 -54 -532 -125 -674 -160 -88 -21
-170 -39 -182 -39 -13 0 -26 -4 -29 -10 -3 -5 -17 -10 -30 -10 -13 0 -84 -15
-157 -33 -189 -48 -304 -75 -373 -87 -33 -7 -103 -22 -155 -35 -100 -26 -354
-82 -430 -96 -59 -11 -222 -39 -285 -49 -27 -5 -95 -16 -150 -24 -181 -29
-537 -67 -730 -77 -104 -6 -226 -12 -270 -15 l-80 -6 -32 -76 c-18 -43 -44
-113 -59 -157 -15 -44 -31 -84 -35 -89 -5 -6 -9 -16 -9 -24 0 -7 -9 -32 -19
-55 -11 -24 -23 -56 -27 -72 -4 -17 -10 -35 -15 -40 -4 -6 -31 -71 -58 -144
-28 -73 -57 -146 -66 -163 -8 -17 -15 -36 -15 -42 0 -11 -43 -131 -65 -181 -7
-16 -20 -48 -28 -70 -8 -22 -31 -85 -52 -140 -20 -55 -40 -104 -44 -110 -5 -5
-14 -32 -22 -60 -18 -62 -67 -112 -155 -156 -35 -18 -70 -39 -76 -46 -6 -7
-29 -13 -52 -13 -48 0 -90 32 -118 90 -9 19 -53 112 -98 205 -44 94 -85 177
-90 185 -6 8 -13 22 -15 30 -7 19 -66 140 -195 403 l-103 207 -66 1 c-36 1
-77 4 -91 8 -22 6 -15 12 65 50 50 24 99 46 110 51 11 4 55 25 97 45 66 33 81
37 102 27 13 -6 28 -21 31 -34 4 -13 10 -25 14 -28 8 -6 30 -45 53 -92 10 -21
23 -38 28 -38 6 0 10 -7 10 -15 0 -9 16 -41 35 -71 19 -30 35 -58 35 -62 1 -4
21 -38 45 -77 24 -38 58 -97 76 -130 17 -33 41 -73 54 -90 12 -16 25 -40 29
-52 6 -18 15 -23 40 -23 28 0 34 5 43 33 9 28 110 252 149 330 8 16 14 35 14
42 0 7 4 15 8 17 9 4 52 84 52 99 0 5 20 52 45 105 25 52 45 97 45 100 0 3 11
29 24 57 13 29 35 77 49 107 14 30 48 103 76 162 28 59 51 112 51 118 0 24 35
69 59 79 14 5 199 12 411 14 212 3 419 10 460 16 41 5 138 15 215 21 77 6 174
17 215 25 41 8 111 19 155 25 161 22 367 57 543 92 52 11 62 16 62 33 0 11 -4
26 -9 34 -9 15 -21 14 -191 -19 -331 -64 -382 -72 -640 -105 -350 -44 -732
-67 -1040 -63 -189 3 -219 1 -252 -15 -38 -18 -83 -76 -107 -137 -8 -19 -18
-39 -23 -44 -4 -6 -8 -20 -8 -33 0 -13 -4 -23 -8 -23 -4 0 -14 -17 -21 -37 -8
-21 -24 -54 -36 -73 -12 -19 -28 -57 -35 -85 -7 -27 -17 -52 -21 -55 -15 -10
-71 -132 -76 -166 -3 -19 -9 -34 -13 -34 -6 0 -60 -102 -60 -114 0 -3 -18 -43
-40 -90 -22 -47 -40 -89 -40 -94 0 -4 -14 -34 -30 -65 -21 -38 -36 -54 -45
-50 -8 3 -15 8 -15 13 0 4 -25 47 -55 96 -30 49 -65 109 -77 133 -13 24 -28
46 -35 48 -7 3 -13 10 -13 15 0 18 -62 138 -71 138 -5 0 -9 7 -9 16 0 24 -76
98 -116 113 -39 14 -144 7 -144 -10 0 -5 -7 -9 -14 -9 -8 0 -50 -16 -93 -36
-43 -20 -105 -49 -138 -64 -33 -15 -81 -38 -107 -50 -27 -12 -57 -34 -68 -50
-22 -32 -27 -104 -9 -143 18 -39 81 -67 152 -67 34 0 67 -4 72 -8 16 -11 45
-60 45 -75 0 -8 7 -20 15 -27 8 -7 15 -21 15 -31 0 -11 5 -19 10 -19 6 0 10
-5 10 -12 0 -11 100 -226 121 -258 5 -8 13 -25 18 -37 6 -11 34 -72 64 -135
30 -62 58 -123 62 -135 3 -13 11 -23 16 -23 5 0 9 -6 9 -12 0 -7 16 -42 35
-78 19 -36 38 -72 41 -80 32 -75 61 -120 95 -147 58 -46 99 -57 188 -49 l76 6
12 -49 c6 -27 29 -73 50 -104 38 -55 119 -147 129 -147 2 0 22 -17 43 -39 21
-21 62 -54 92 -74 30 -20 62 -43 71 -51 10 -9 22 -16 27 -16 5 0 29 -11 52
-25 24 -14 52 -25 62 -25 9 0 17 -4 17 -9 0 -5 8 -11 17 -14 10 -3 43 -15 73
-27 193 -76 457 -134 715 -157 213 -18 708 -6 890 22 55 9 129 20 165 25 86
12 243 37 305 49 130 25 458 95 615 131 223 51 337 75 425 90 39 6 126 25 195
41 68 17 172 37 230 45 58 8 119 19 135 24 17 5 93 19 170 30 143 21 264 40
415 65 47 7 110 16 140 20 60 6 140 33 140 46 0 4 11 19 24 32 28 29 34 61 40
237 l4 125 29 -3 c15 -2 72 -6 126 -9 87 -4 103 -2 145 18 26 13 49 25 52 28
3 3 22 15 43 26 38 19 40 19 70 1 18 -10 60 -21 95 -24 70 -5 126 13 174 56
l26 24 39 -36 c41 -40 120 -80 190 -98 58 -14 186 6 228 36 83 59 126 67 163
29 13 -12 33 -14 101 -11 52 3 86 9 89 16 2 7 10 12 17 12 8 0 18 6 22 14 4 7
19 19 32 26 23 12 27 10 50 -17 23 -28 52 -47 131 -90 44 -23 234 -12 260 17
3 3 19 12 35 20 17 8 52 36 79 62 28 27 53 48 58 48 4 0 18 10 31 22 34 32
106 93 146 122 18 13 40 32 50 40 31 29 146 122 162 132 9 5 48 37 85 71 38
34 81 73 97 86 21 17 29 35 33 73 12 98 -43 151 -148 141 l-58 -5 0 53 c0 64
-13 97 -59 147 -62 69 -165 83 -314 44 -149 -40 -244 -67 -259 -76 -10 -6 -27
-10 -39 -10 -26 0 -54 -15 -106 -57 -28 -23 -43 -30 -46 -21 -2 7 -2 168 1
357 4 288 3 346 -9 355 -8 6 -19 20 -25 31 -11 21 -35 35 -91 56 -32 11 -33
14 -33 64 0 35 -5 57 -15 65 -8 7 -15 18 -15 24 0 6 -12 25 -26 41 -14 17 -44
51 -66 78 -23 26 -47 47 -55 47 -7 0 -13 5 -13 11 0 14 -65 74 -103 95 -16 8
-49 31 -74 50 -24 19 -49 34 -54 34 -5 0 -19 8 -30 18 -11 11 -39 25 -62 33
-23 7 -44 16 -47 19 -13 16 -169 77 -285 112 -112 33 -229 58 -465 99 -75 13
-712 20 -831 9z m565 -359 c180 -17 387 -51 491 -81 17 -5 68 -19 115 -31 47
-13 96 -29 110 -36 14 -7 31 -13 38 -13 7 0 20 -4 30 -10 9 -5 62 -30 117 -56
93 -43 197 -107 236 -145 9 -9 23 -21 31 -25 8 -5 40 -42 71 -81 l57 -73 -36
-15 c-20 -8 -40 -15 -44 -15 -4 0 -13 -7 -20 -15 -7 -8 -19 -15 -27 -15 -13 0
-32 -13 -90 -61 -8 -6 -13 -33 -13 -66 0 -51 3 -59 36 -89 25 -24 45 -34 68
-34 17 0 37 -5 44 -12 13 -13 15 -83 6 -164 -8 -62 -11 -64 -160 -99 -108 -26
-153 -44 -187 -76 -12 -10 -24 -19 -27 -19 -4 0 -10 23 -13 51 -15 122 -64
163 -189 156 -42 -2 -83 -8 -90 -14 -7 -6 -37 -14 -65 -18 -29 -4 -55 -10 -58
-15 -3 -4 -26 -11 -52 -14 -27 -4 -61 -11 -78 -16 -16 -5 -76 -21 -133 -35
-93 -23 -158 -47 -172 -64 -3 -3 -20 -17 -39 -30 l-34 -24 7 294 c3 162 9 395
12 519 7 239 6 250 -40 296 -33 33 -61 44 -114 44 -49 0 -115 -21 -127 -40 -3
-5 -14 -10 -23 -10 -15 0 -197 -84 -274 -125 -14 -8 -33 -15 -41 -15 -20 0
-57 -60 -64 -103 -11 -68 48 -137 119 -137 50 0 49 2 38 -271 -6 -140 -15
-258 -19 -262 -4 -4 -20 -3 -35 3 -38 14 -105 13 -170 -4 -30 -8 -76 -18 -102
-22 l-47 -7 7 386 c8 441 9 436 -67 480 -25 15 -59 27 -75 27 -31 0 -118 -28
-167 -53 -36 -19 -110 -52 -147 -66 -16 -6 -28 -15 -28 -21 0 -5 -9 -10 -20
-10 -28 0 -109 -42 -144 -75 -26 -24 -28 -30 -24 -90 3 -56 8 -68 36 -94 24
-24 41 -31 71 -31 29 0 41 -5 45 -17 7 -23 -9 -367 -18 -382 -4 -6 -31 -18
-60 -26 -51 -15 -56 -15 -112 6 -52 20 -63 21 -103 10 -46 -12 -60 -18 -186
-76 l-70 -33 -35 38 c-64 69 -157 87 -285 54 -33 -9 -80 -20 -105 -24 -58 -11
-255 -65 -301 -82 -38 -14 -96 -55 -129 -90 -18 -20 -19 -19 -14 63 5 96 10
104 94 139 30 12 62 28 71 36 8 8 22 14 30 14 8 0 31 14 52 31 36 30 37 32 37
98 0 58 -3 71 -23 89 -33 31 -79 42 -174 42 l-83 0 0 75 c0 63 -3 78 -21 96
-11 11 -18 24 -14 27 6 7 52 18 260 62 55 12 123 27 150 34 28 8 95 23 150 36
55 12 174 39 265 61 91 22 206 49 255 60 50 11 115 27 145 35 384 99 938 221
1110 244 47 6 101 14 120 18 63 13 340 14 464 3z m-185 -195 c13 -23 1 -609
-29 -1426 -6 -151 -10 -375 -10 -497 0 -122 -3 -229 -6 -238 -4 -8 -20 -23
-36 -31 -27 -14 -54 -19 -233 -43 -38 -6 -119 -19 -180 -30 -60 -10 -135 -22
-165 -25 -30 -4 -68 -11 -85 -16 -16 -5 -68 -14 -115 -20 -47 -6 -116 -18
-155 -27 -38 -8 -92 -19 -120 -23 -74 -12 -297 -56 -395 -78 -47 -11 -121 -27
-165 -36 -93 -20 -231 -51 -295 -66 -25 -7 -65 -15 -90 -20 -25 -5 -112 -23
-195 -41 -82 -17 -172 -34 -198 -38 -27 -4 -52 -12 -55 -17 -4 -6 -27 -10 -52
-11 -25 0 -103 -9 -175 -21 -342 -54 -367 -56 -700 -57 -327 0 -381 4 -645 51
-87 15 -290 74 -347 100 -17 8 -35 14 -40 14 -5 0 -38 16 -73 35 -36 19 -71
35 -79 35 -7 0 -30 14 -51 30 -21 17 -41 30 -45 30 -12 0 -125 100 -191 169
-55 56 -104 128 -104 151 0 4 19 20 42 35 l42 28 15 -22 c9 -12 37 -48 63 -79
26 -31 48 -60 48 -64 0 -5 6 -8 14 -8 7 0 21 -11 30 -25 9 -13 30 -32 48 -41
17 -9 40 -25 51 -35 25 -23 211 -116 252 -125 17 -3 44 -15 60 -25 17 -10 55
-21 85 -25 30 -4 57 -10 60 -15 15 -22 327 -65 570 -80 210 -12 375 -7 565 17
66 9 147 19 180 23 63 8 198 34 275 52 25 6 70 15 100 19 30 4 107 20 170 35
63 15 135 31 160 36 63 12 116 25 180 42 30 8 105 24 165 37 61 12 148 33 195
45 47 13 126 31 175 40 50 9 113 22 140 30 28 8 97 23 155 35 58 11 121 25
140 30 19 5 121 25 225 45 105 19 220 42 256 50 37 8 84 15 106 15 22 0 48 7
59 15 10 8 29 15 41 15 12 0 24 4 27 8 11 18 61 1437 61 1727 l0 140 -62 5
c-102 8 -108 4 152 125 166 77 165 77 184 41z m-883 -276 c-4 -91 -9 -292 -13
-447 l-5 -283 23 0 c13 0 87 16 164 36 184 47 190 48 223 35 53 -22 63 -57 80
-258 l15 -185 -23 -41 c-25 -48 -86 -107 -109 -107 -8 0 -31 -10 -50 -23 -64
-42 -142 -87 -150 -87 -5 0 -14 -6 -20 -14 -7 -8 -31 -24 -54 -36 -23 -11 -75
-39 -116 -60 -94 -51 -135 -52 -208 -8 -31 19 -57 43 -64 60 -12 29 -10 123 8
436 l6 112 -39 0 c-21 0 -63 -7 -93 -15 -30 -8 -58 -12 -63 -9 -4 3 -8 30 -8
60 l0 54 -35 0 c-19 0 -35 -4 -35 -8 0 -4 -15 -13 -33 -20 l-34 -12 -6 -168
c-7 -169 -29 -348 -48 -383 -5 -10 -15 -19 -20 -19 -6 0 -28 -12 -48 -27 -20
-16 -45 -34 -56 -41 -11 -7 -33 -21 -50 -32 -40 -27 -51 -25 -87 10 -26 26
-29 35 -24 68 12 70 46 377 53 463 l6 86 -45 7 c-80 12 -82 9 -75 -118 8 -158
-14 -208 -110 -252 -18 -8 -33 -19 -33 -24 0 -6 -8 -10 -19 -10 -10 0 -24 -7
-31 -16 -8 -8 -27 -21 -44 -28 -17 -7 -58 -30 -91 -52 -33 -21 -76 -47 -95
-56 -19 -10 -60 -32 -90 -49 -74 -41 -131 -51 -189 -33 -51 16 -75 34 -109 83
-23 32 -23 35 -9 74 9 23 23 83 32 132 50 278 70 335 134 393 47 42 82 61 134
71 62 13 327 79 365 92 25 8 37 8 45 0 6 -6 19 -11 28 -11 19 0 59 -61 59 -90
0 -51 31 -64 87 -36 15 8 35 17 43 20 8 3 22 10 30 15 36 21 226 101 242 101
9 0 21 -13 27 -31 10 -29 13 -31 47 -26 20 3 67 18 106 33 47 18 78 24 96 19
15 -3 42 -9 60 -12 l32 -5 3 213 c4 407 3 439 -13 449 -8 5 -31 12 -50 16 -19
3 -44 9 -55 14 -18 7 -18 9 10 20 16 6 43 17 60 25 16 7 64 28 105 46 41 18
83 39 92 47 9 7 36 20 60 27 38 11 45 11 62 -4 17 -15 18 -27 12 -181z m2675
-62 c7 -16 5 -200 -5 -583 -10 -420 -11 -562 -2 -568 6 -4 31 -6 56 -5 l45 3
17 55 c9 30 24 94 32 142 22 126 58 188 140 243 21 14 57 30 80 35 22 5 97 25
166 46 69 20 144 39 166 41 111 12 168 -97 109 -206 -23 -42 -35 -50 -118 -88
-92 -42 -182 -76 -245 -93 -43 -11 -43 -10 -45 -61 -2 -39 1 -44 22 -47 25 -4
105 22 131 42 8 7 40 20 70 30 55 19 66 23 175 69 33 13 72 27 87 31 15 3 33
13 42 21 8 8 20 15 26 15 6 0 18 7 26 15 9 8 23 15 32 15 18 0 18 0 -53 -56
-55 -43 -88 -71 -149 -124 -23 -20 -72 -61 -111 -92 -38 -31 -79 -65 -90 -75
-11 -10 -29 -25 -41 -33 -35 -25 -114 -93 -153 -131 -101 -101 -232 -114 -310
-30 -32 34 -33 38 -27 93 l7 58 -35 0 c-34 0 -102 -39 -160 -92 -11 -10 -23
-18 -27 -18 -5 0 -25 -11 -45 -25 -20 -14 -45 -25 -55 -25 -24 0 -49 37 -49
72 0 25 -3 28 -35 28 -24 0 -37 -6 -45 -20 -6 -11 -19 -20 -29 -20 -10 0 -33
-10 -52 -23 -19 -12 -55 -32 -81 -45 -26 -13 -50 -27 -53 -33 -8 -12 -97 -12
-132 2 -53 20 -102 60 -108 90 -13 57 -35 89 -62 89 -21 0 -76 -29 -93 -50 -3
-3 -23 -17 -45 -30 -22 -13 -49 -32 -59 -42 -11 -10 -27 -18 -36 -18 -25 0
-60 29 -60 50 0 35 -12 50 -40 50 -15 0 -33 -7 -40 -15 -7 -8 -17 -15 -22 -15
-5 0 -33 -16 -62 -35 -29 -19 -57 -35 -63 -35 -5 0 -14 -5 -21 -12 -15 -15
-81 -38 -110 -38 -53 0 -112 24 -153 60 -38 36 -41 42 -37 82 10 90 41 264 53
293 7 17 16 53 19 80 9 59 27 115 38 115 4 0 8 6 8 13 0 20 96 107 117 107 11
0 23 4 28 9 13 13 161 44 205 43 19 0 50 -3 68 -7 28 -6 32 -5 32 13 0 28 17
38 85 51 33 7 79 17 103 23 33 8 46 8 55 -1 9 -9 12 -90 12 -299 l0 -287 39
-3 c21 -2 43 1 49 7 5 5 16 43 23 83 32 184 88 328 127 328 10 0 20 7 23 14 7
17 92 47 211 74 70 16 85 17 94 6 6 -8 24 -14 39 -14 28 0 28 1 34 78 3 42 8
152 12 243 l6 166 -32 7 c-18 3 -47 6 -66 6 -18 0 -35 4 -38 8 -2 4 43 30 102
57 58 28 135 64 171 82 80 38 98 40 112 11z m-4611 -189 l0 -98 138 -3 137 -3
-95 -46 c-52 -26 -104 -49 -115 -53 -11 -3 -32 -17 -46 -30 l-27 -25 -6 -263
c-4 -145 -8 -411 -9 -593 l-2 -330 65 -1 c36 0 69 -1 74 -2 11 -3 -39 -42 -53
-42 -6 0 -11 -4 -11 -8 0 -4 -15 -16 -32 -26 -18 -11 -83 -52 -144 -93 -121
-80 -153 -89 -180 -48 -15 23 -16 47 -10 193 3 92 9 285 13 430 l6 262 -21 0
c-24 0 -110 -59 -111 -76 -1 -6 -12 -17 -26 -24 -14 -7 -25 -17 -25 -22 0 -4
-6 -8 -12 -8 -7 0 -37 -23 -66 -50 -29 -28 -56 -50 -60 -50 -4 0 -25 -16 -45
-35 -20 -19 -40 -35 -43 -35 -6 0 -48 -37 -107 -92 -16 -16 -32 -28 -37 -28
-5 0 -13 -6 -17 -13 -4 -7 -34 -21 -67 -31 -72 -22 -126 -16 -181 22 -50 35
-54 69 -24 202 12 52 24 121 26 153 5 55 4 57 -20 57 -16 0 -41 -14 -64 -36
-21 -20 -54 -48 -73 -63 -19 -14 -42 -34 -51 -43 -9 -10 -21 -18 -27 -18 -5 0
-35 -25 -67 -55 -31 -30 -59 -55 -63 -55 -4 0 -23 -14 -42 -31 -19 -17 -47
-38 -62 -47 -15 -9 -28 -22 -28 -29 0 -7 -26 -25 -57 -40 -70 -33 -155 -36
-221 -7 -53 24 -69 62 -53 132 6 26 20 92 32 147 11 55 27 127 34 160 8 33 17
77 21 98 6 37 54 118 90 154 18 19 57 35 139 57 28 8 112 32 188 54 168 49
195 48 239 -12 26 -36 29 -46 23 -86 -7 -48 -37 -105 -70 -132 -11 -9 -58 -31
-105 -49 -167 -63 -255 -101 -262 -112 -4 -7 -8 -27 -8 -45 l0 -33 58 7 c32 4
81 19 111 35 30 16 72 34 94 40 23 6 74 26 115 45 40 19 78 34 84 34 35 0 81
37 105 84 52 103 101 140 233 176 36 10 101 28 145 40 156 44 172 46 208 27
41 -22 59 -51 66 -102 l6 -40 52 -3 c52 -3 52 -3 57 30 8 50 15 433 9 457 -5
19 -13 21 -72 21 l-66 0 34 30 c18 17 42 30 52 30 18 0 70 23 224 96 l70 33
18 -20 c14 -17 17 -41 17 -120z m-356 76 c-10 -8 -25 -15 -33 -15 -20 0 -113
-51 -143 -79 -25 -22 -28 -32 -28 -88 0 -57 2 -64 28 -80 15 -10 31 -23 35
-30 4 -7 21 -13 37 -13 49 0 60 -9 60 -50 0 -66 -2 -67 -83 -57 -66 8 -157 -2
-192 -22 -10 -5 -131 -39 -232 -65 -28 -7 -68 -23 -88 -34 -49 -30 -64 -28
-80 11 -21 47 -44 70 -96 95 -54 26 -150 30 -231 8 -61 -17 -235 -65 -260 -73
-12 -4 -18 0 -18 11 0 9 4 16 8 16 5 0 17 28 27 63 10 34 22 67 25 72 4 6 13
28 20 50 7 22 16 45 20 50 4 6 14 30 21 55 22 78 17 76 232 84 203 7 420 25
602 50 253 35 317 45 323 50 3 3 19 6 36 6 28 0 29 -1 10 -15z m1858 -922 c2
-9 0 -77 -5 -152 -11 -202 3 -321 40 -321 7 0 13 -8 13 -19 0 -19 17 -33 94
-76 39 -22 57 -25 144 -25 87 0 104 3 143 25 24 13 54 29 67 35 13 5 38 21 56
35 18 14 36 25 40 25 3 0 50 25 104 57 146 85 171 97 179 90 8 -9 -10 -293
-20 -303 -4 -5 -31 -11 -60 -15 -121 -15 -214 -31 -242 -39 -16 -5 -88 -21
-160 -34 -71 -14 -193 -38 -270 -55 -77 -16 -165 -35 -195 -41 -69 -14 -249
-57 -315 -74 -27 -8 -95 -24 -150 -35 -55 -12 -188 -42 -295 -66 -327 -75
-500 -111 -640 -136 -30 -5 -80 -14 -110 -19 -179 -33 -275 -42 -510 -47 -318
-7 -465 7 -740 70 -63 15 -174 49 -215 67 -91 40 -181 83 -185 90 -3 4 -23 15
-45 26 -50 23 -178 150 -231 229 -25 38 -48 61 -62 63 -27 4 -27 12 -2 62 11
22 20 46 20 55 0 19 14 19 48 1 92 -49 121 -59 193 -63 121 -9 253 42 329 127
8 9 23 21 32 26 16 9 92 72 129 107 11 9 21 17 24 17 3 0 5 -29 5 -64 0 -60 3
-68 39 -113 54 -69 130 -98 256 -98 81 0 97 4 158 33 37 18 91 53 120 77 28
25 68 59 87 75 19 17 46 38 60 47 24 17 74 59 111 95 11 11 21 13 25 7 3 -5 3
-153 -1 -328 l-8 -318 23 -42 c27 -46 86 -81 153 -88 32 -4 56 2 97 21 87 42
111 57 117 72 3 8 10 14 15 14 18 0 168 105 168 117 0 7 7 13 15 13 9 0 33 11
54 24 47 30 75 86 68 133 -7 38 -2 41 88 62 72 17 225 94 250 125 6 7 21 17
35 21 14 4 32 13 40 20 8 7 38 23 65 36 28 12 59 31 71 41 l21 19 7 -82 c7
-88 16 -112 53 -146 37 -35 58 -43 126 -50 57 -5 68 -3 108 22 24 15 46 32 47
36 2 5 11 9 21 9 9 0 32 13 51 30 19 16 40 29 45 30 6 0 30 19 52 43 52 53 62
93 63 253 0 67 3 136 6 153 6 28 10 31 45 31 27 0 38 -5 41 -17z"/>
<path d="M3965 1825 c-5 -1 -35 -11 -65 -20 -60 -19 -79 -37 -80 -77 0 -15 -4
-37 -9 -50 -4 -13 -11 -51 -15 -85 l-7 -63 35 0 c41 0 173 58 199 87 13 15 18
41 20 114 l2 94 -35 2 c-19 1 -39 0 -45 -2z"/>
<path d="M5420 1806 c-85 -30 -96 -50 -105 -183 l-8 -103 27 0 c30 0 170 61
197 86 23 20 37 187 19 209 -17 21 -54 18 -130 -9z"/>
<path d="M8535 1823 c-42 -11 -103 -43 -109 -59 -3 -8 -6 -27 -6 -41 0 -24 2
-25 43 -19 23 4 44 11 45 16 2 6 8 10 13 10 6 0 30 9 55 20 38 18 44 25 44 50
0 27 -3 30 -32 29 -18 -1 -42 -4 -53 -6z"/>
<path d="M6710 1793 c-88 -28 -85 -24 -103 -141 -23 -142 -22 -152 6 -152 26
0 153 48 183 70 33 24 41 48 48 148 l6 92 -48 -1 c-26 -1 -67 -8 -92 -16z"/>
<path d="M7630 1796 c-25 -7 -61 -20 -81 -28 -35 -15 -36 -17 -49 -99 -24
-158 -25 -169 -2 -169 11 0 44 11 74 25 29 14 61 25 71 25 10 0 33 16 52 35
26 26 35 43 35 68 0 19 3 62 6 96 l7 61 -34 -1 c-19 0 -54 -6 -79 -13z"/>
<path d="M1895 1815 c-75 -28 -85 -36 -85 -72 0 -31 2 -33 33 -33 18 0 37 4
43 8 5 5 28 15 52 22 50 16 65 31 60 62 -4 29 -45 34 -103 13z"/>
<path d="M2682 1805 c-18 -8 -39 -20 -46 -27 -13 -14 -29 -119 -30 -203 -1
-46 1 -50 24 -53 15 -2 57 14 103 38 42 22 83 40 90 40 6 0 73 25 147 55 l135
54 3 45 c3 45 3 46 -28 46 -17 0 -77 -11 -133 -25 -56 -14 -110 -27 -120 -29
-23 -6 -47 20 -47 50 0 21 -5 24 -32 24 -18 -1 -48 -7 -66 -15z"/>
</g>
</svg>
